# This file uses meters as units for non-parametric coordinates.

mtllib fy_hof_visage_interface.max.fobj.mtl
g default
v 6.186322 156.264175 3.524024
v 6.288833 158.540609 4.694553
v 5.093779 160.687625 5.717469
v 3.429629 161.443806 7.398064
v 1.215735 161.751249 8.574734
v 0.044521 161.566044 8.855390
v -1.126692 161.751246 8.574735
v -3.340585 161.443803 7.398065
v -5.004736 160.687622 5.717469
v -6.199790 158.540606 4.694553
v -6.097279 156.264172 3.524024
v -6.315170 154.647617 2.913607
v -6.142267 154.752988 0.760039
v -6.273164 155.556783 -2.653110
v -6.123697 154.557836 -2.733714
v -5.592382 152.555576 -2.199011
v -3.839637 150.832206 -3.585437
v -2.070914 150.781111 -4.521512
v 0.044521 150.749481 -4.962892
v 2.157771 150.781112 -4.521510
v 3.928681 150.832209 -3.585437
v 5.681425 152.555579 -2.199011
v 6.212740 154.557839 -2.733713
v 6.362208 155.556786 -2.653109
v 6.231310 154.752992 0.760039
v 6.404214 154.647620 2.913607
vn -0.000001 0.979923 -0.199376
vn -0.011694 0.925070 -0.379615
vn 0.011692 0.925071 -0.379614
vn -0.000001 0.979923 -0.199376
vn -0.271191 0.674649 -0.686516
vn -0.011694 0.925070 -0.379615
vn 0.011692 0.925071 -0.379614
vn 0.271189 0.674652 -0.686514
vn -0.000001 0.979923 -0.199376
vn -0.011694 0.925070 -0.379615
vn -0.000000 0.600555 -0.799583
vn -0.000000 0.600555 -0.799583
vn -0.011694 0.925070 -0.379615
vn -0.000000 0.600555 -0.799583
vn 0.011692 0.925071 -0.379614
vn -0.000000 0.445942 -0.895062
vn -0.000000 0.600555 -0.799583
vn -0.000000 0.600555 -0.799583
vn -0.000000 0.445942 -0.895062
vn -0.000000 0.600555 -0.799583
vn -0.000000 0.445942 -0.895062
vn -0.000000 0.404583 -0.914501
vn -0.000000 0.445942 -0.895062
vn -0.000000 0.445942 -0.895062
vn -0.000000 0.404583 -0.914501
vn -0.000000 0.445942 -0.895062
vn -0.000000 0.404583 -0.914501
vn -0.000000 0.842351 -0.538930
vn -0.000000 0.404583 -0.914501
vn -0.000000 0.404583 -0.914501
vn -0.000000 0.842351 -0.538930
vn -0.000000 0.404583 -0.914501
vn -0.000000 0.842350 -0.538930
vn -0.000000 0.990370 0.138443
vn -0.000000 0.990370 0.138443
vn -0.000000 0.842351 -0.538930
vn -0.000000 0.990370 0.138443
vn -0.000000 0.842351 -0.538930
vn -0.000000 0.842350 -0.538930
vn -0.000000 0.833189 -0.552988
vn -0.000000 0.833189 -0.552988
vn -0.000000 0.990370 0.138443
vn -0.000000 0.833189 -0.552988
vn -0.000000 0.990370 0.138443
vn -0.000000 0.990370 0.138443
vn 0.000000 -0.067535 -0.997717
vn 0.000000 -0.067535 -0.997717
vn -0.000000 0.833189 -0.552988
vn 0.000000 -0.067535 -0.997717
vn -0.000000 0.833189 -0.552988
vn -0.000000 0.833189 -0.552988
vn 0.000000 0.038373 -0.999263
vn 0.000000 0.038373 -0.999263
vn 0.000000 -0.067535 -0.997717
vn 0.000000 0.038373 -0.999263
vn 0.000000 -0.067535 -0.997717
vn 0.000000 -0.067535 -0.997717
vn 0.000000 0.038373 -0.999263
vn -0.000000 0.729548 -0.683929
vn -0.000000 0.729635 -0.683837
vn 0.000000 0.038373 -0.999263
vn -0.000000 0.729635 -0.683837
vn 0.000000 0.038373 -0.999263
vn -0.000000 0.729548 -0.683929
vn -0.000000 0.998446 -0.055730
vn -0.000000 0.998446 -0.055729
vn -0.000000 0.729548 -0.683929
vn -0.000000 0.998446 -0.055729
vn -0.000000 0.729635 -0.683837
vn -0.000000 0.998446 -0.055730
vn -0.000000 0.997442 -0.071480
vn -0.000000 0.998446 -0.055729
s off
g Shape01
usemtl Shape01SG
f 6//1 4//2 8//3
f 6//4 5//5 4//6
f 8//7 7//8 6//9
f 4//10 3//11 9//12
f 4//13 9//14 8//15
f 10//16 9//17 3//18
f 10//19 3//20 2//21
f 11//22 10//23 2//24
f 11//25 2//26 1//27
f 12//28 11//29 1//30
f 12//31 1//32 26//33
f 25//34 13//35 12//36
f 25//37 12//38 26//39
f 24//40 14//41 13//42
f 24//43 13//44 25//45
f 23//46 15//47 14//48
f 23//49 14//50 24//51
f 22//52 16//53 15//54
f 22//55 15//56 23//57
f 22//58 21//59 17//60
f 22//61 17//62 16//63
f 21//64 20//65 18//66
f 21//67 18//68 17//69
f 20//70 19//71 18//72
g default
v 3.949443 146.075857 -3.172429
v 2.367900 146.200079 -4.909048
v -0.000110 146.325934 -5.609584
v -2.368121 146.200079 -4.909048
v -3.949663 146.075857 -3.172429
v -4.015087 145.590031 -1.363920
v -3.632273 144.962484 0.244254
v -2.137093 144.734371 1.271475
v -0.000110 144.451046 1.758497
v 2.136871 144.734371 1.271475
v 3.632052 144.962484 0.244254
v 4.014866 145.590031 -1.363920
vn -0.060142 0.966658 0.248908
vn 0.126180 0.913598 0.386544
vn -0.104951 0.961902 0.252450
vn 0.044019 0.959306 0.278916
vn -0.126181 0.913598 0.386544
vn 0.041861 0.958668 0.281430
vn 0.044019 0.959306 0.278916
vn 0.041861 0.958668 0.281430
vn 0.006311 0.971016 0.238933
vn 0.124535 0.967716 0.219126
vn 0.044019 0.959306 0.278916
vn 0.006311 0.971016 0.238933
vn 0.073154 0.970752 0.228667
vn 0.124535 0.967716 0.219126
vn 0.006311 0.971016 0.238933
vn -0.000000 0.969117 0.246602
vn 0.073154 0.970752 0.228667
vn 0.006311 0.971016 0.238933
vn -0.069779 0.967589 0.242699
vn -0.000000 0.969117 0.246602
vn 0.006311 0.971016 0.238933
vn -0.069779 0.967589 0.242699
vn 0.006311 0.971016 0.238933
vn -0.060142 0.966658 0.248908
vn -0.069779 0.967589 0.242699
vn -0.060142 0.966658 0.248908
vn -0.104951 0.961902 0.252450
vn -0.212265 0.941802 0.260678
vn -0.069779 0.967589 0.242699
vn -0.104951 0.961902 0.252450
s off
g int_cou_tet
usemtl int_cou_tetSG
f 36//73 37//74 38//75
f 32//76 33//77 34//78
f 32//79 34//80 35//81
f 31//82 32//83 35//84
f 30//85 31//86 35//87
f 29//88 30//89 35//90
f 28//91 29//92 35//93
f 28//94 35//95 36//96
f 28//97 36//98 38//99
f 27//100 28//101 38//102
