# This file uses meters as units for non-parametric coordinates.

mtllib tr_hof_visage_interface.max.fobj.mtl
g default
v -4.948168 160.136991 5.202890
v -3.832968 161.080048 6.696220
v -1.747805 161.550483 7.477317
v -0.000000 161.665089 7.866476
v 1.747805 161.550483 7.477316
v 3.832968 161.080047 6.696220
v 4.948167 160.136991 5.202890
v 5.639213 159.219867 3.866611
v 6.126847 157.173228 1.768120
v 6.273700 156.187392 1.046784
v 6.318975 154.941260 0.212724
v 6.207666 154.703521 -1.011300
v 6.293554 155.428744 -0.867410
v 6.474647 156.139456 -1.592193
v 6.399172 155.572993 -3.555899
v 6.012522 153.748534 -3.192473
v 4.860703 151.572997 -3.612731
v 3.506756 150.177436 -3.945401
v 2.185325 149.499164 -4.602901
v -0.000000 149.248200 -5.096317
v -2.185326 149.499165 -4.602901
v -3.506757 150.177437 -3.945401
v -4.860704 151.572997 -3.612732
v -6.012523 153.748534 -3.192473
v -6.399173 155.572993 -3.555899
v -6.474648 156.139456 -1.592193
v -6.293555 155.428743 -0.867410
v -6.207666 154.703521 -1.011299
v -6.318975 154.941260 0.212724
v -6.273700 156.187392 1.046784
v -6.126847 157.173228 1.768120
v -5.639214 159.219867 3.866610
vn -0.921835 0.385875 0.036349
vn -0.984225 0.138423 -0.110181
vn -0.969258 0.245708 -0.012946
vn 0.969258 0.245708 -0.012946
vn 0.984225 0.138423 -0.110181
vn 0.921835 0.385875 0.036349
vn 0.803896 0.430242 -0.410662
vn 0.978898 0.203268 -0.021012
vn 0.969258 0.245708 -0.012946
vn -0.969258 0.245708 -0.012946
vn -0.978898 0.203268 -0.021012
vn -0.803896 0.430242 -0.410662
vn -0.969258 0.245708 -0.012946
vn -0.803896 0.430242 -0.410662
vn -0.623769 0.630151 -0.462409
vn -0.921835 0.385875 0.036349
vn -0.969258 0.245708 -0.012946
vn -0.623769 0.630151 -0.462409
vn 0.623769 0.630151 -0.462409
vn 0.803896 0.430242 -0.410662
vn 0.969258 0.245708 -0.012946
vn 0.623769 0.630151 -0.462409
vn 0.969258 0.245708 -0.012946
vn 0.921835 0.385875 0.036349
vn 0.041301 0.649151 -0.759538
vn 0.623769 0.630151 -0.462409
vn 0.921835 0.385875 0.036349
vn -0.921835 0.385875 0.036349
vn -0.623769 0.630151 -0.462409
vn -0.098113 0.688599 -0.718474
vn -0.219896 0.672295 -0.706870
vn -0.921835 0.385875 0.036349
vn -0.098113 0.688599 -0.718474
vn 0.041301 0.649151 -0.759538
vn 0.921835 0.385875 0.036349
vn -0.029725 0.647281 -0.761672
vn 0.041301 0.649151 -0.759538
vn -0.029725 0.647281 -0.761672
vn -0.145043 0.591844 -0.792896
vn 0.041301 0.649151 -0.759538
vn -0.145043 0.591844 -0.792896
vn 0.056945 0.682019 -0.729114
vn -0.102735 0.603615 -0.790629
vn 0.041301 0.649151 -0.759538
vn 0.056945 0.682019 -0.729114
vn 0.024948 0.665464 -0.746013
vn -0.102735 0.603615 -0.790629
vn 0.056945 0.682019 -0.729114
vn 0.053714 0.678787 -0.732368
vn 0.024948 0.665464 -0.746013
vn 0.056945 0.682019 -0.729114
vn 0.053714 0.678787 -0.732368
vn 0.056945 0.682019 -0.729114
vn 0.024133 0.740117 -0.672045
vn -0.098113 0.688599 -0.718474
vn 0.053714 0.678787 -0.732368
vn 0.024133 0.740117 -0.672045
vn -0.219896 0.672295 -0.706870
vn -0.098113 0.688599 -0.718474
vn 0.024133 0.740117 -0.672045
vn -0.050786 0.565774 -0.822995
vn -0.219896 0.672295 -0.706870
vn 0.024133 0.740117 -0.672045
vn -0.026592 0.637024 -0.770385
vn -0.050786 0.565774 -0.822995
vn 0.024133 0.740117 -0.672045
vn 0.000000 0.762264 -0.647266
vn -0.026592 0.637024 -0.770385
vn 0.024133 0.740117 -0.672045
vn 0.000000 0.762264 -0.647266
vn 0.024133 0.740117 -0.672045
vn 0.002841 0.832743 -0.553653
vn -0.000000 0.831733 -0.555175
vn 0.000000 0.762264 -0.647266
vn 0.002841 0.832743 -0.553653
vn -0.000700 0.847367 -0.531008
vn -0.000000 0.831733 -0.555175
vn 0.002841 0.832743 -0.553653
vn -0.010386 0.862718 -0.505579
vn -0.000700 0.847367 -0.531008
vn 0.002841 0.832743 -0.553653
vn -0.024119 0.885825 -0.463391
vn -0.010386 0.862718 -0.505579
vn 0.002841 0.832743 -0.553653
vn 0.076873 0.794732 -0.602073
vn -0.024119 0.885825 -0.463391
vn 0.002841 0.832743 -0.553653
vn 0.012790 0.841106 -0.540720
vn 0.076873 0.794732 -0.602073
vn 0.002841 0.832743 -0.553653
s off
g Shape01
usemtl Shape01SG
f 12//1 13//2 14//3
f 26//4 27//5 28//6
f 24//7 25//8 26//9
f 14//10 15//11 16//12
f 14//13 16//14 17//15
f 12//16 14//17 17//18
f 23//19 24//20 26//21
f 23//22 26//23 28//24
f 22//25 23//26 28//27
f 12//28 17//29 18//30
f 11//31 12//32 18//33
f 22//34 28//35 29//36
f 22//37 29//38 30//39
f 22//40 30//41 31//42
f 21//43 22//44 31//45
f 20//46 21//47 31//48
f 19//49 20//50 31//51
f 19//52 31//53 32//54
f 18//55 19//56 32//57
f 11//58 18//59 32//60
f 10//61 11//62 32//63
f 9//64 10//65 32//66
f 8//67 9//68 32//69
f 8//70 32//71 1//72
f 7//73 8//74 1//75
f 6//76 7//77 1//78
f 5//79 6//80 1//81
f 4//82 5//83 1//84
f 3//85 4//86 1//87
f 2//88 3//89 1//90
g default
v 3.949443 146.075857 -3.172429
v 2.367900 146.200079 -4.909048
v -0.000110 146.325934 -5.609584
v -2.368121 146.200079 -4.909048
v -3.949663 146.075857 -3.172429
v -4.015087 145.590031 -1.363920
v -3.632273 144.962484 0.244254
v -2.137093 144.734371 1.271475
v -0.000110 144.451046 1.758497
v 2.136871 144.734371 1.271475
v 3.632052 144.962484 0.244254
v 4.014866 145.590031 -1.363920
vn -0.060142 0.966658 0.248908
vn 0.126180 0.913598 0.386544
vn -0.104951 0.961902 0.252450
vn 0.044019 0.959306 0.278916
vn -0.126181 0.913598 0.386544
vn 0.041861 0.958668 0.281430
vn 0.044019 0.959306 0.278916
vn 0.041861 0.958668 0.281430
vn 0.006311 0.971016 0.238933
vn 0.124535 0.967716 0.219126
vn 0.044019 0.959306 0.278916
vn 0.006311 0.971016 0.238933
vn 0.073154 0.970752 0.228667
vn 0.124535 0.967716 0.219126
vn 0.006311 0.971016 0.238933
vn -0.000000 0.969117 0.246602
vn 0.073154 0.970752 0.228667
vn 0.006311 0.971016 0.238933
vn -0.069779 0.967589 0.242699
vn -0.000000 0.969117 0.246602
vn 0.006311 0.971016 0.238933
vn -0.069779 0.967589 0.242699
vn 0.006311 0.971016 0.238933
vn -0.060142 0.966658 0.248908
vn -0.069779 0.967589 0.242699
vn -0.060142 0.966658 0.248908
vn -0.104951 0.961902 0.252450
vn -0.212265 0.941802 0.260678
vn -0.069779 0.967589 0.242699
vn -0.104951 0.961902 0.252450
s off
g int_cou_tet
usemtl int_cou_tetSG
f 42//91 43//92 44//93
f 38//94 39//95 40//96
f 38//97 40//98 41//99
f 37//100 38//101 41//102
f 36//103 37//104 41//105
f 35//106 36//107 41//108
f 34//109 35//110 41//111
f 34//112 41//113 42//114
f 34//115 42//116 44//117
f 33//118 34//119 44//120
