# This file uses meters as units for non-parametric coordinates.

mtllib beamgroundcircle.max.fobj.mtl
g default
v 74.769012 0.000000 -2.391656
v 69.059971 0.000000 -31.092914
v 52.802018 0.000000 -55.424662
v 28.470269 0.000000 -71.682616
v -0.230992 0.000000 -77.391656
v -28.932252 0.000000 -71.682616
v -53.263995 0.000000 -55.424662
v -69.521948 0.000000 -31.092917
v -75.230988 0.000000 -2.391667
v -69.521960 -0.000000 26.309584
v -53.264013 -0.000000 50.641338
v -28.932258 -0.000000 66.899304
v -0.230988 -0.000000 72.608344
v 28.470281 -0.000000 66.899304
v 52.802036 -0.000000 50.641332
v 69.059995 -0.000000 26.309566
v 74.769012 78.735369 -2.391656
v 69.059965 78.735369 -31.092914
v 52.802018 78.735369 -55.424662
v 28.470269 78.735369 -71.682616
v -0.230992 78.735369 -77.391656
v -28.932252 78.735369 -71.682616
v -53.264001 78.735369 -55.424662
v -69.521954 78.735369 -31.092917
v -75.230988 78.735369 -2.391667
v -69.521960 78.735369 26.309584
v -53.264019 78.735369 50.641338
v -28.932258 78.735369 66.899304
v -0.230988 78.735369 72.608344
v 28.470281 78.735369 66.899304
v 52.802036 78.735369 50.641332
v 69.059995 78.735369 26.309566
v 74.769012 152.447581 -2.391655
v 69.059965 152.447581 -31.092914
v 52.802018 152.447581 -55.424662
v 28.470269 152.447581 -71.682616
v -0.230992 152.447581 -77.391656
v -28.932252 152.447581 -71.682616
v -53.264001 152.447581 -55.424662
v -69.521954 152.447581 -31.092917
v -75.230988 152.447581 -2.391667
v -69.521960 152.447581 26.309584
v -53.264019 152.447581 50.641338
v -28.932258 152.447581 66.899304
v -0.230988 152.447581 72.608344
v 28.470281 152.447581 66.899304
v 52.802036 152.447581 50.641332
v 69.059995 152.447581 26.309566
v 74.769012 229.652715 -2.391655
v 69.059965 229.652715 -31.092914
v 52.802018 229.652691 -55.424662
v 28.470269 229.652715 -71.682616
v -0.230992 229.652715 -77.391656
v -28.932252 229.652715 -71.682616
v -53.264001 229.652691 -55.424662
v -69.521954 229.652715 -31.092917
v -75.230988 229.652691 -2.391666
v -69.521960 229.652691 26.309584
v -53.264019 229.652715 50.641338
v -28.932258 229.652691 66.899304
v -0.230988 229.652691 72.608344
v 28.470281 229.652691 66.899304
v 52.802036 229.652715 50.641332
v 69.059995 229.652691 26.309566
vt 7.500000 0.000500
vt 8.125187 0.000500
vt 8.750264 0.000500
vt 9.375187 0.000500
vt 9.999999 0.000500
vt 0.624813 0.000500
vt 1.249735 0.000500
vt 1.874812 0.000500
vt 2.500000 0.000500
vt 3.125186 0.000500
vt 3.750264 0.000500
vt 4.375187 0.000500
vt 5.000000 0.000500
vt 5.624813 0.000500
vt 6.249735 0.000500
vt 6.874813 0.000500
vt 7.500000 0.343002
vt 8.125187 0.343002
vt 8.750264 0.343002
vt 9.375187 0.343002
vt 9.999999 0.343002
vt 0.624813 0.343002
vt 1.249735 0.343002
vt 1.874812 0.343002
vt 2.500000 0.343002
vt 3.125186 0.343002
vt 3.750264 0.343002
vt 4.375187 0.343002
vt 5.000000 0.343002
vt 5.624813 0.343002
vt 6.249735 0.343002
vt 6.874813 0.343002
vt 7.500000 0.663654
vt 8.125187 0.663654
vt 8.750264 0.663654
vt 9.375187 0.663654
vt 9.999999 0.663654
vt 0.624813 0.663654
vt 1.249735 0.663654
vt 1.874812 0.663654
vt 2.500000 0.663654
vt 3.125186 0.663654
vt 3.750264 0.663654
vt 4.375187 0.663654
vt 5.000000 0.663654
vt 5.624813 0.663654
vt 6.249735 0.663654
vt 6.874813 0.663654
vt 7.500000 0.999500
vt 8.125187 0.999500
vt 8.750264 0.999500
vt 9.375187 0.999500
vt 9.999999 0.999500
vt 0.624813 0.999500
vt 1.249735 0.999500
vt 1.874812 0.999500
vt 2.500000 0.999500
vt 3.125186 0.999500
vt 3.750264 0.999500
vt 4.375187 0.999500
vt 5.000000 0.999500
vt 5.624813 0.999500
vt 6.249735 0.999500
vt 6.874813 0.999500
vt -0.000001 0.000500
vt -0.000001 0.343002
vt -0.000001 0.000500
vt -0.000001 0.343002
vt -0.000001 0.663654
vt -0.000001 0.343002
vt -0.000001 0.663654
vt -0.000001 0.999500
vt -0.000001 0.663654
vn 1.000000 0.000000 -0.000000
vn 0.923880 0.000000 -0.382684
vn 1.000000 -0.000000 -0.000000
vn 1.000000 0.000000 -0.000000
vn 0.923879 0.000000 -0.382683
vn 0.923880 0.000000 -0.382684
vn 0.923879 0.000000 -0.382683
vn 0.707107 0.000000 -0.707107
vn 0.923880 0.000000 -0.382684
vn 0.923879 0.000000 -0.382683
vn 0.707107 0.000000 -0.707107
vn 0.707107 0.000000 -0.707107
vn 0.707107 0.000000 -0.707107
vn 0.382684 0.000000 -0.923880
vn 0.707107 0.000000 -0.707107
vn 0.707107 0.000000 -0.707107
vn 0.382684 0.000000 -0.923880
vn 0.382684 0.000000 -0.923880
vn 0.382684 0.000000 -0.923880
vn 0.000000 0.000000 -1.000000
vn 0.382684 0.000000 -0.923880
vn 0.382684 0.000000 -0.923880
vn 0.000000 0.000000 -1.000000
vn 0.000000 0.000000 -1.000000
vn 0.000000 0.000000 -1.000000
vn -0.382683 0.000000 -0.923880
vn 0.000000 0.000000 -1.000000
vn 0.000000 0.000000 -1.000000
vn -0.382683 -0.000000 -0.923879
vn -0.382683 0.000000 -0.923880
vn -0.382683 -0.000000 -0.923879
vn -0.707107 -0.000000 -0.707107
vn -0.382683 0.000000 -0.923880
vn -0.382683 -0.000000 -0.923879
vn -0.707107 -0.000000 -0.707107
vn -0.707107 -0.000000 -0.707107
vn -0.707107 -0.000000 -0.707107
vn -0.923880 -0.000000 -0.382684
vn -0.707107 -0.000000 -0.707107
vn -0.707107 -0.000000 -0.707107
vn -0.923879 -0.000000 -0.382684
vn -0.923880 -0.000000 -0.382684
vn -0.923879 -0.000000 -0.382684
vn -1.000000 -0.000000 -0.000000
vn -0.923880 -0.000000 -0.382684
vn -0.923879 -0.000000 -0.382684
vn -1.000000 0.000000 -0.000000
vn -1.000000 -0.000000 -0.000000
vn -1.000000 0.000000 -0.000000
vn -0.923880 -0.000000 0.382683
vn -1.000000 -0.000000 -0.000000
vn -1.000000 0.000000 -0.000000
vn -0.923880 -0.000000 0.382683
vn -0.923880 -0.000000 0.382683
vn -0.923880 -0.000000 0.382683
vn -0.707107 -0.000000 0.707107
vn -0.923880 -0.000000 0.382683
vn -0.923880 -0.000000 0.382683
vn -0.707107 -0.000000 0.707107
vn -0.707107 -0.000000 0.707107
vn -0.707107 -0.000000 0.707107
vn -0.382683 -0.000000 0.923879
vn -0.707107 -0.000000 0.707107
vn -0.707107 -0.000000 0.707107
vn -0.382684 -0.000000 0.923879
vn -0.382683 -0.000000 0.923879
vn -0.382684 -0.000000 0.923879
vn -0.000000 -0.000000 1.000000
vn -0.382683 -0.000000 0.923879
vn -0.382684 -0.000000 0.923879
vn -0.000000 -0.000000 1.000000
vn -0.000000 -0.000000 1.000000
vn -0.000000 -0.000000 1.000000
vn 0.382684 -0.000000 0.923880
vn -0.000000 -0.000000 1.000000
vn -0.000000 -0.000000 1.000000
vn 0.382684 -0.000000 0.923880
vn 0.382684 -0.000000 0.923880
vn 0.382684 -0.000000 0.923880
vn 0.707107 -0.000000 0.707107
vn 0.382684 -0.000000 0.923880
vn 0.382684 -0.000000 0.923880
vn 0.707107 -0.000000 0.707107
vn 0.707107 -0.000000 0.707107
vn 0.707107 -0.000000 0.707107
vn 0.923880 -0.000000 0.382683
vn 0.707107 -0.000000 0.707107
vn 0.707107 -0.000000 0.707107
vn 0.923880 -0.000000 0.382683
vn 0.923880 -0.000000 0.382683
vn 0.923880 -0.000000 0.382683
vn 1.000000 -0.000000 -0.000000
vn 0.923880 -0.000000 0.382683
vn 0.923880 -0.000000 0.382683
vn 1.000000 0.000000 -0.000000
vn 1.000000 -0.000000 -0.000000
vn 1.000000 -0.000000 -0.000000
vn 0.923880 0.000000 -0.382684
vn 1.000000 -0.000000 -0.000000
vn 1.000000 -0.000000 -0.000000
vn 0.923880 0.000000 -0.382684
vn 0.923880 0.000000 -0.382684
vn 0.923880 0.000000 -0.382684
vn 0.707107 0.000000 -0.707107
vn 0.923880 0.000000 -0.382684
vn 0.923880 0.000000 -0.382684
vn 0.707107 0.000000 -0.707107
vn 0.707107 0.000000 -0.707107
vn 0.707107 0.000000 -0.707107
vn 0.382684 0.000000 -0.923880
vn 0.707107 0.000000 -0.707107
vn 0.707107 0.000000 -0.707107
vn 0.382684 0.000000 -0.923880
vn 0.382684 0.000000 -0.923880
vn 0.382684 0.000000 -0.923880
vn 0.000000 0.000000 -1.000000
vn 0.382684 0.000000 -0.923880
vn 0.382684 0.000000 -0.923880
vn 0.000000 0.000000 -1.000000
vn 0.000000 0.000000 -1.000000
vn 0.000000 0.000000 -1.000000
vn -0.382683 0.000000 -0.923879
vn 0.000000 0.000000 -1.000000
vn 0.000000 0.000000 -1.000000
vn -0.382683 0.000000 -0.923880
vn -0.382683 0.000000 -0.923879
vn -0.382683 0.000000 -0.923880
vn -0.707107 0.000000 -0.707107
vn -0.382683 0.000000 -0.923879
vn -0.382683 0.000000 -0.923880
vn -0.707107 -0.000000 -0.707107
vn -0.707107 0.000000 -0.707107
vn -0.707107 -0.000000 -0.707107
vn -0.923880 0.000000 -0.382683
vn -0.707107 0.000000 -0.707107
vn -0.707107 -0.000000 -0.707107
vn -0.923880 -0.000000 -0.382684
vn -0.923880 0.000000 -0.382683
vn -0.923880 -0.000000 -0.382684
vn -1.000000 -0.000000 -0.000000
vn -0.923880 0.000000 -0.382683
vn -0.923880 -0.000000 -0.382684
vn -1.000000 -0.000000 -0.000000
vn -1.000000 -0.000000 -0.000000
vn -1.000000 -0.000000 -0.000000
vn -0.923880 -0.000000 0.382683
vn -1.000000 -0.000000 -0.000000
vn -1.000000 -0.000000 -0.000000
vn -0.923880 -0.000000 0.382683
vn -0.923880 -0.000000 0.382683
vn -0.923880 -0.000000 0.382683
vn -0.707107 -0.000000 0.707107
vn -0.923880 -0.000000 0.382683
vn -0.923880 -0.000000 0.382683
vn -0.707107 -0.000000 0.707107
vn -0.707107 -0.000000 0.707107
vn -0.707107 -0.000000 0.707107
vn -0.382683 -0.000000 0.923880
vn -0.707107 -0.000000 0.707107
vn -0.707107 -0.000000 0.707107
vn -0.382683 -0.000000 0.923879
vn -0.382683 -0.000000 0.923880
vn -0.382683 -0.000000 0.923879
vn 0.000000 -0.000000 1.000000
vn -0.382683 -0.000000 0.923880
vn -0.382683 -0.000000 0.923879
vn -0.000000 -0.000000 1.000000
vn 0.000000 -0.000000 1.000000
vn -0.000000 -0.000000 1.000000
vn 0.382684 -0.000000 0.923880
vn 0.000000 -0.000000 1.000000
vn -0.000000 -0.000000 1.000000
vn 0.382684 -0.000000 0.923880
vn 0.382684 -0.000000 0.923880
vn 0.382684 -0.000000 0.923880
vn 0.707107 -0.000000 0.707107
vn 0.382684 -0.000000 0.923880
vn 0.382684 -0.000000 0.923880
vn 0.707107 -0.000000 0.707107
vn 0.707107 -0.000000 0.707107
vn 0.707107 -0.000000 0.707107
vn 0.923880 -0.000000 0.382683
vn 0.707107 -0.000000 0.707107
vn 0.707107 -0.000000 0.707107
vn 0.923880 -0.000000 0.382683
vn 0.923880 -0.000000 0.382683
vn 0.923880 -0.000000 0.382683
vn 1.000000 -0.000000 -0.000000
vn 0.923880 -0.000000 0.382683
vn 0.923880 -0.000000 0.382683
vn 1.000000 -0.000000 -0.000000
vn 1.000000 -0.000000 -0.000000
vn 1.000000 -0.000000 -0.000000
vn 0.923880 0.000000 -0.382684
vn 1.000000 -0.000000 -0.000000
vn 1.000000 -0.000000 -0.000000
vn 0.923880 0.000000 -0.382684
vn 0.923880 0.000000 -0.382684
vn 0.923880 0.000000 -0.382684
vn 0.707107 0.000000 -0.707107
vn 0.923880 0.000000 -0.382684
vn 0.923880 0.000000 -0.382684
vn 0.707107 0.000000 -0.707107
vn 0.707107 0.000000 -0.707107
vn 0.707107 0.000000 -0.707107
vn 0.382683 0.000000 -0.923880
vn 0.707107 0.000000 -0.707107
vn 0.707107 0.000000 -0.707107
vn 0.382684 0.000000 -0.923880
vn 0.382683 0.000000 -0.923880
vn 0.382684 0.000000 -0.923880
vn -0.000000 0.000000 -1.000000
vn 0.382683 0.000000 -0.923880
vn 0.382684 0.000000 -0.923880
vn 0.000000 0.000000 -1.000000
vn -0.000000 0.000000 -1.000000
vn 0.000000 0.000000 -1.000000
vn -0.382683 0.000000 -0.923880
vn -0.000000 0.000000 -1.000000
vn 0.000000 0.000000 -1.000000
vn -0.382683 0.000000 -0.923879
vn -0.382683 0.000000 -0.923880
vn -0.382683 0.000000 -0.923879
vn -0.707107 0.000000 -0.707107
vn -0.382683 0.000000 -0.923880
vn -0.382683 0.000000 -0.923879
vn -0.707107 0.000000 -0.707107
vn -0.707107 0.000000 -0.707107
vn -0.707107 0.000000 -0.707107
vn -0.923880 0.000000 -0.382683
vn -0.707107 0.000000 -0.707107
vn -0.707107 0.000000 -0.707107
vn -0.923880 0.000000 -0.382683
vn -0.923880 0.000000 -0.382683
vn -0.923880 0.000000 -0.382683
vn -1.000000 -0.000000 -0.000000
vn -0.923880 0.000000 -0.382683
vn -0.923880 0.000000 -0.382683
vn -1.000000 -0.000000 -0.000000
vn -1.000000 -0.000000 -0.000000
vn -1.000000 -0.000000 -0.000000
vn -0.923880 -0.000000 0.382683
vn -1.000000 -0.000000 -0.000000
vn -1.000000 -0.000000 -0.000000
vn -0.923880 -0.000000 0.382683
vn -0.923880 -0.000000 0.382683
vn -0.923880 -0.000000 0.382683
vn -0.707107 -0.000000 0.707107
vn -0.923880 -0.000000 0.382683
vn -0.923880 -0.000000 0.382683
vn -0.707107 -0.000000 0.707107
vn -0.707107 -0.000000 0.707107
vn -0.707107 -0.000000 0.707107
vn -0.382684 -0.000000 0.923879
vn -0.707107 -0.000000 0.707107
vn -0.707107 -0.000000 0.707107
vn -0.382683 -0.000000 0.923880
vn -0.382684 -0.000000 0.923879
vn -0.382683 -0.000000 0.923880
vn 0.000000 -0.000000 1.000000
vn -0.382684 -0.000000 0.923879
vn -0.382683 -0.000000 0.923880
vn 0.000000 -0.000000 1.000000
vn 0.000000 -0.000000 1.000000
vn 0.000000 -0.000000 1.000000
vn 0.382684 -0.000000 0.923880
vn 0.000000 -0.000000 1.000000
vn 0.000000 -0.000000 1.000000
vn 0.382684 -0.000000 0.923880
vn 0.382684 -0.000000 0.923880
vn 0.382684 -0.000000 0.923880
vn 0.707107 -0.000000 0.707107
vn 0.382684 -0.000000 0.923880
vn 0.382684 -0.000000 0.923880
vn 0.707107 -0.000000 0.707107
vn 0.707107 -0.000000 0.707107
vn 0.707107 -0.000000 0.707107
vn 0.923880 -0.000000 0.382683
vn 0.707107 -0.000000 0.707107
vn 0.707107 -0.000000 0.707107
vn 0.923880 -0.000000 0.382683
vn 0.923880 -0.000000 0.382683
vn 0.923880 -0.000000 0.382683
vn 1.000000 -0.000000 -0.000000
vn 0.923880 -0.000000 0.382683
vn 0.923880 -0.000000 0.382683
vn 1.000000 -0.000000 -0.000000
vn 1.000000 -0.000000 -0.000000
s off
g BeamGroundCircle
usemtl BeamGroundCircleSG
f 1/1/1 18/18/2 17/17/3
f 1/1/4 2/2/5 18/18/6
f 2/2/7 19/19/8 18/18/9
f 2/2/10 3/3/11 19/19/12
f 3/3/13 20/20/14 19/19/15
f 3/3/16 4/4/17 20/20/18
f 4/4/19 21/21/20 20/20/21
f 4/4/22 5/5/23 21/21/24
f 5/65/25 22/22/26 21/66/27
f 5/67/28 6/6/29 22/22/30
f 6/6/31 23/23/32 22/22/33
f 6/6/34 7/7/35 23/23/36
f 7/7/37 24/24/38 23/23/39
f 7/7/40 8/8/41 24/24/42
f 8/8/43 25/25/44 24/24/45
f 8/8/46 9/9/47 25/25/48
f 9/9/49 26/26/50 25/25/51
f 9/9/52 10/10/53 26/26/54
f 10/10/55 27/27/56 26/26/57
f 10/10/58 11/11/59 27/27/60
f 11/11/61 28/28/62 27/27/63
f 11/11/64 12/12/65 28/28/66
f 12/12/67 29/29/68 28/28/69
f 12/12/70 13/13/71 29/29/72
f 13/13/73 30/30/74 29/29/75
f 13/13/76 14/14/77 30/30/78
f 14/14/79 31/31/80 30/30/81
f 14/14/82 15/15/83 31/31/84
f 15/15/85 32/32/86 31/31/87
f 15/15/88 16/16/89 32/32/90
f 16/16/91 17/17/92 32/32/93
f 16/16/94 1/1/95 17/17/96
f 17/17/97 34/34/98 33/33/99
f 17/17/100 18/18/101 34/34/102
f 18/18/103 35/35/104 34/34/105
f 18/18/106 19/19/107 35/35/108
f 19/19/109 36/36/110 35/35/111
f 19/19/112 20/20/113 36/36/114
f 20/20/115 37/37/116 36/36/117
f 20/20/118 21/21/119 37/37/120
f 21/68/121 38/38/122 37/69/123
f 21/70/124 22/22/125 38/38/126
f 22/22/127 39/39/128 38/38/129
f 22/22/130 23/23/131 39/39/132
f 23/23/133 40/40/134 39/39/135
f 23/23/136 24/24/137 40/40/138
f 24/24/139 41/41/140 40/40/141
f 24/24/142 25/25/143 41/41/144
f 25/25/145 42/42/146 41/41/147
f 25/25/148 26/26/149 42/42/150
f 26/26/151 43/43/152 42/42/153
f 26/26/154 27/27/155 43/43/156
f 27/27/157 44/44/158 43/43/159
f 27/27/160 28/28/161 44/44/162
f 28/28/163 45/45/164 44/44/165
f 28/28/166 29/29/167 45/45/168
f 29/29/169 46/46/170 45/45/171
f 29/29/172 30/30/173 46/46/174
f 30/30/175 47/47/176 46/46/177
f 30/30/178 31/31/179 47/47/180
f 31/31/181 48/48/182 47/47/183
f 31/31/184 32/32/185 48/48/186
f 32/32/187 33/33/188 48/48/189
f 32/32/190 17/17/191 33/33/192
f 33/33/193 50/50/194 49/49/195
f 33/33/196 34/34/197 50/50/198
f 34/34/199 51/51/200 50/50/201
f 34/34/202 35/35/203 51/51/204
f 35/35/205 52/52/206 51/51/207
f 35/35/208 36/36/209 52/52/210
f 36/36/211 53/53/212 52/52/213
f 36/36/214 37/37/215 53/53/216
f 37/71/217 54/54/218 53/72/219
f 37/73/220 38/38/221 54/54/222
f 38/38/223 55/55/224 54/54/225
f 38/38/226 39/39/227 55/55/228
f 39/39/229 56/56/230 55/55/231
f 39/39/232 40/40/233 56/56/234
f 40/40/235 57/57/236 56/56/237
f 40/40/238 41/41/239 57/57/240
f 41/41/241 58/58/242 57/57/243
f 41/41/244 42/42/245 58/58/246
f 42/42/247 59/59/248 58/58/249
f 42/42/250 43/43/251 59/59/252
f 43/43/253 60/60/254 59/59/255
f 43/43/256 44/44/257 60/60/258
f 44/44/259 61/61/260 60/60/261
f 44/44/262 45/45/263 61/61/264
f 45/45/265 62/62/266 61/61/267
f 45/45/268 46/46/269 62/62/270
f 46/46/271 63/63/272 62/62/273
f 46/46/274 47/47/275 63/63/276
f 47/47/277 64/64/278 63/63/279
f 47/47/280 48/48/281 64/64/282
f 48/48/283 49/49/284 64/64/285
f 48/48/286 33/33/287 49/49/288
