# This file uses meters as units for non-parametric coordinates.

mtllib beama.max.fobj.mtl
g default
v -38.999999 0.000000 0.000000
v 38.999999 0.000000 0.000000
v -38.999999 52.866340 0.000000
v 38.999999 52.866340 0.000000
vt 0.000000 0.000000
vt 1.000000 0.000000
vt 0.000000 1.000000
vt 1.000000 1.000000
vt 0.000000 0.000000
vt 1.000000 0.000000
vt 0.000000 1.000000
vt 1.000000 1.000000
vt 0.000000 0.000000
vt 1.000000 0.000000
vt 0.000000 1.000000
vt 1.000000 1.000000
vn 0.000000 -0.000000 1.000000
vn 0.000000 -0.000000 1.000000
vn 0.000000 -0.000000 1.000000
vn 0.000000 -0.000000 1.000000
vn 0.000000 -0.000000 1.000000
vn 0.000000 -0.000000 1.000000
s off
g BeamA01
usemtl BeamA01SG
f 1/5/1 2/6/2 4/8/3
f 4/8/4 3/7/5 1/5/6
g default
v -38.999999 0.000000 0.000000
v 38.999999 0.000000 0.000000
v -38.999999 384.667873 0.000000
v 38.999999 384.667873 0.000000
vt 0.000000 0.000000
vt 1.000000 0.000000
vt 0.000000 1.000000
vt 1.000000 1.000000
vt 0.000000 0.000000
vt 1.000000 0.000000
vt 0.000000 1.000000
vt 1.000000 1.000000
vt 0.000000 0.000000
vt 1.000000 0.000000
vt 0.000000 1.000000
vt 1.000000 1.000000
vn 0.000000 -0.000000 1.000000
vn 0.000000 -0.000000 1.000000
vn 0.000000 -0.000000 1.000000
vn 0.000000 -0.000000 1.000000
vn 0.000000 -0.000000 1.000000
vn 0.000000 -0.000000 1.000000
s off
g BeamA02
usemtl BeamA02SG
f 5/17/7 6/18/8 8/20/9
f 8/20/10 7/19/11 5/17/12
