# This file uses meters as units for non-parametric coordinates.

mtllib beam3db.max.fobj.mtl
g default
v -16.968000 0.000042 0.000019
v 16.968001 0.000042 0.000019
v -21.150000 199.999988 0.000006
v 21.150000 199.999988 0.000006
v 4.561723 3.965956 14.501761
v -4.561763 -3.965867 -14.501755
v -155.092311 -58.555150 84.511817
v -165.657902 -67.740679 50.923932
v -5.042663 2.432591 -12.984370
v 5.042700 -2.432537 12.984340
v 139.255643 -48.853600 -78.752947
v 149.419451 -53.756559 -52.582204
vt 0.000000 0.000000
vt 1.000000 0.000000
vt 0.000000 1.000000
vt 1.000000 1.000000
vt 0.000000 0.000000
vt 1.000000 0.000000
vt 0.000000 1.000000
vt 1.000000 1.000000
vt 0.000000 0.000000
vt 1.000000 0.000000
vt 0.000000 1.000000
vt 1.000000 1.000000
vt 0.000000 0.000000
vt 1.000000 0.000000
vt 0.000000 1.000000
vt 1.000000 1.000000
vt 0.000000 0.000000
vt 1.000000 0.000000
vt 0.000000 1.000000
vt 1.000000 1.000000
vt 0.000000 0.000000
vt 1.000000 0.000000
vt 0.000000 1.000000
vt 1.000000 1.000000
vt 0.000000 0.000000
vt 1.000000 0.000000
vt 0.000000 1.000000
vt 1.000000 1.000000
vt 0.000000 0.000000
vt 1.000000 0.000000
vt 0.000000 1.000000
vt 1.000000 1.000000
vt 0.000000 0.000000
vt 1.000000 0.000000
vt 0.000000 1.000000
vt 1.000000 1.000000
vn 0.000000 0.000000 1.000000
vn 0.000000 0.000000 1.000000
vn 0.000000 0.000000 1.000000
vn 0.000000 0.000000 1.000000
vn 0.000000 0.000000 1.000000
vn 0.000000 0.000000 1.000000
vn -0.407057 0.905539 -0.119598
vn -0.407058 0.905539 -0.119599
vn -0.407057 0.905539 -0.119598
vn -0.407058 0.905539 -0.119599
vn -0.407057 0.905539 -0.119598
vn -0.407058 0.905539 -0.119599
vn 0.350454 0.935759 0.039205
vn 0.350455 0.935759 0.039206
vn 0.350455 0.935759 0.039205
vn 0.350455 0.935759 0.039206
vn 0.350455 0.935759 0.039205
vn 0.350455 0.935759 0.039206
s off
g Beam3DB
usemtl Beam3DBSG
f 3/11/1 1/9/2 4/12/3
f 2/10/4 4/12/5 1/9/6
f 7/23/7 5/21/8 8/24/9
f 6/22/10 8/24/11 5/21/12
f 11/35/13 9/33/14 12/36/15
f 10/34/16 12/36/17 9/33/18
