# This file uses meters as units for non-parametric coordinates.

mtllib fy_wea_masse1m_trail.max.fobj.mtl
g default
v -0.068602 -9.743567 -1.640552
v -2.207419 -9.705402 0.036249
v -1.742871 11.133914 0.027604
v -0.100019 11.123512 -1.471084
v -0.068602 -9.743567 1.713049
v -0.100019 11.123513 1.526293
v 2.081398 -9.782071 1.072568
v 1.713484 11.113052 0.953845
v 2.081398 -9.782072 -1.000071
v 1.713484 11.113053 -0.898637
v -1.274098 68.508428 -1.274647
v -1.278253 68.513662 1.274352
v 1.287017 68.497956 1.275010
v 1.293892 68.497956 -1.274937
v -0.170998 -10.696791 0.027609
v -1.778610 12.466419 0.027603
v -0.121845 12.455986 -1.483641
v -0.121845 12.455988 1.538850
v 1.708507 12.445501 0.961604
v 1.708507 12.445501 -0.906398
v -0.313009 11.794879 -1.851031
v -2.394266 11.798662 0.027604
v -0.313007 11.794880 1.906239
v 2.207807 11.791076 1.188664
v 2.207807 11.791076 -1.133455
v -1.285310 71.114957 -1.282186
v -1.288645 71.114957 1.292086
v -1.285310 78.836959 -1.282187
v -1.288645 78.836960 1.292086
v -1.286507 82.712936 -1.283589
v -1.290047 82.712937 1.293281
v 1.299246 71.099252 1.287032
v 1.299246 78.821254 1.287031
v 1.300441 82.697231 1.288432
v 13.362217 65.797645 0.008714
v 16.676766 74.928850 0.008577
v 1.305914 71.099251 -1.287167
v 5.309948 74.928850 -1.375661
v 5.309110 74.928850 1.401268
v 5.758537 60.386908 0.008848
v 1.305912 78.821254 -1.287168
v 1.307315 82.697230 -1.288364
v 13.362220 84.060055 0.008711
v 5.758542 89.470798 0.008844
v 0.010051 74.991669 16.647424
v -1.382639 74.991668 5.279766
v 0.009915 65.860464 13.332876
v 1.394287 74.991668 5.280604
v 0.009782 60.449726 5.729194
v 0.009915 84.122880 13.332874
v 0.009780 89.533610 5.729196
v -16.680005 74.991667 0.013164
v -5.312355 74.991667 -1.379527
v -13.365462 65.860462 0.013027
v -5.313194 74.991667 1.397399
v -5.761780 60.449725 0.012895
v -13.365464 84.122878 0.013026
v -5.761789 89.533609 0.012890
v 0.016995 74.991665 -16.671231
v 1.409686 74.991667 -5.303577
v 0.017133 65.860461 -13.356682
v -1.367240 74.991667 -5.304417
v 0.017267 60.449725 -5.753001
v 0.017131 84.122871 -13.356684
v 0.017267 89.533603 -5.753012
vt -0.999856 0.180947
vt -0.999713 -0.207654
vt 1.003394 -0.207650
vt 1.003251 0.224141
vt -0.999856 -0.607052
vt 1.003251 -0.607048
vt -1.000000 -1.003108
vt 1.003107 -1.003108
vt 1.003107 -1.003108
vt -1.000000 1.000000
vt -1.000000 0.620199
vt 1.003107 0.620198
vt 1.003107 1.000000
vt 0.591109 0.999928
vt 0.397110 0.999857
vt 0.397112 -0.000143
vt 0.612672 -0.000072
vt 0.197721 0.999928
vt 0.197722 -0.000072
vt -0.000000 1.000000
vt -0.000000 0.000000
vt -0.000000 0.000000
vt 1.000000 1.000000
vt 0.810394 1.000000
vt 0.810394 0.000000
vt 1.000000 0.000000
vt 0.499501 0.425534
vt 0.000000 0.447303
vt 0.500000 0.000500
vt 0.999001 0.447303
vt 0.808708 0.999500
vt 0.191292 0.999500
vt 0.960576 0.621248
vt 0.960576 0.399979
vt 1.000000 0.398781
vt 1.000000 0.622502
vt 0.960576 0.170253
vt 1.000000 0.171338
vt 0.960576 0.000000
vt 1.000000 0.000000
vt 1.000000 0.000000
vt 0.960576 1.000000
vt 0.960576 0.836496
vt 1.000000 0.835790
vt 1.000000 1.000000
vt 0.914146 0.622724
vt 0.914146 0.396074
vt 0.914146 0.170101
vt 0.914146 0.000000
vt 0.960576 0.000000
vt 0.960576 -0.002523
vt 0.914146 1.000000
vt 0.914146 0.833331
vt 0.012916 0.179423
vt -0.012854 0.179423
vt 0.012918 0.179423
vt -0.012852 0.179423
vt 0.801384 0.978043
vt 0.808293 0.979087
vt 1.000864 0.996046
vt 0.995682 0.270433
vt 0.368051 0.782660
vt 0.009863 0.299547
vt 0.732794 0.001843
vt 0.565411 0.000193
vt 0.128031 0.508823
vt 0.022608 0.505680
vt 0.127307 0.839644
vt 0.023089 0.840777
vt 0.035508 0.867516
vt 0.026735 0.974598
vt 0.040552 0.863361
vt 0.035508 0.980805
vt 1.000864 0.996046
vt 0.995682 0.270433
vt 0.368051 0.782660
vt 0.009863 0.299547
vt 0.732794 0.001843
vt 0.565411 0.000193
vt 0.040552 0.863361
vt 0.035508 0.980805
vt 0.801384 0.978043
vt 0.127307 0.839644
vt 0.128031 0.508823
vt 0.022608 0.505680
vt 0.023089 0.840777
vt 0.808293 0.979087
vt 0.035508 0.867516
vt 0.026735 0.974598
vt 1.000864 0.996046
vt 0.995682 0.270433
vt 0.368051 0.782660
vt 0.009863 0.299547
vt 0.732794 0.001843
vt 0.565411 0.000193
vt 0.040552 0.863361
vt 0.035508 0.980805
vt 0.801384 0.978043
vt 0.127307 0.839644
vt 0.128031 0.508823
vt 0.022608 0.505680
vt 0.023089 0.840777
vt 0.808293 0.979087
vt 0.035508 0.867516
vt 0.026735 0.974598
vt 1.000864 0.996046
vt 0.995682 0.270433
vt 0.368051 0.782660
vt 0.009863 0.299547
vt 0.732794 0.001843
vt 0.565411 0.000193
vt 0.040552 0.863361
vt 0.035508 0.980805
vt 0.801384 0.978043
vt 0.127307 0.839644
vt 0.128031 0.508823
vt 0.022608 0.505680
vt 0.023089 0.840777
vt 0.808293 0.979087
vt 0.035508 0.867516
vt 0.026735 0.974598
vt 0.021190 0.502933
vt 0.129000 0.502466
vt 0.128797 0.844506
vt 0.020990 0.845413
vt 0.021249 0.503091
vt 0.128950 0.502651
vt 0.128738 0.844348
vt 0.021040 0.845228
vt 0.128950 0.502651
vt 0.021249 0.503091
vt 0.021040 0.845228
vt 0.128738 0.844348
vt 0.995682 0.270433
vt 0.732794 0.001843
vt 0.995682 0.270433
vt 0.732794 0.001843
vt 0.565411 0.000193
vt 0.732794 0.001843
vt 0.368051 0.782660
vt 0.995682 0.270433
vt 0.368051 0.782660
vt 0.732794 0.001843
vt 0.368051 0.782660
vt 0.009863 0.299547
vt 0.565411 0.000193
vt 0.009863 0.299547
vt 0.732794 0.001843
vt 0.732794 0.001843
vt 0.368051 0.782660
vt 0.995682 0.270433
vt 0.368051 0.782660
vt 0.732794 0.001843
vt 0.565411 0.000193
vt 0.732794 0.001843
vt 0.009863 0.299547
vt 0.009863 0.299547
vt 0.368051 0.782660
vt 0.732794 0.001843
vt 0.127307 0.839644
vt 0.023089 0.840777
vt 0.127307 0.839644
vt 0.995682 0.270433
vt 0.732794 0.001843
vt 0.995682 0.270433
vt 0.732794 0.001843
vt 0.565411 0.000193
vt 0.732794 0.001843
vt 0.368051 0.782660
vt 0.995682 0.270433
vt 0.368051 0.782660
vt 0.732794 0.001843
vt 0.368051 0.782660
vt 0.009863 0.299547
vt 0.565411 0.000193
vt 0.009863 0.299547
vt 0.732794 0.001843
vt 0.732794 0.001843
vt 0.368051 0.782660
vt 0.995682 0.270433
vt 0.368051 0.782660
vt 0.732794 0.001843
vt 0.565411 0.000193
vt 0.732794 0.001843
vt 0.009863 0.299547
vt 0.009863 0.299547
vt 0.368051 0.782660
vt 0.732794 0.001843
vt 0.127307 0.839644
vt 0.023089 0.840777
vt 0.127307 0.839644
vt 0.995682 0.270433
vt 0.732794 0.001843
vt 0.995682 0.270433
vt 0.732794 0.001843
vt 0.565411 0.000193
vt 0.732794 0.001843
vt 0.368051 0.782660
vt 0.995682 0.270433
vt 0.368051 0.782660
vt 0.732794 0.001843
vt 0.368051 0.782660
vt 0.009863 0.299547
vt 0.565411 0.000193
vt 0.009863 0.299547
vt 0.732794 0.001843
vt 0.732794 0.001843
vt 0.368051 0.782660
vt 0.995682 0.270433
vt 0.368051 0.782660
vt 0.732794 0.001843
vt 0.565411 0.000193
vt 0.732794 0.001843
vt 0.009863 0.299547
vt 0.009863 0.299547
vt 0.368051 0.782660
vt 0.732794 0.001843
vt 0.127307 0.839644
vt 0.023089 0.840777
vt 0.127307 0.839644
vt 0.995682 0.270433
vt 0.732794 0.001843
vt 0.995682 0.270433
vt 0.732794 0.001843
vt 0.565411 0.000193
vt 0.732794 0.001843
vt 0.368051 0.782660
vt 0.995682 0.270433
vt 0.368051 0.782660
vt 0.732794 0.001843
vt 0.368051 0.782660
vt 0.009863 0.299547
vt 0.565411 0.000193
vt 0.009863 0.299547
vt 0.732794 0.001843
vt 0.732794 0.001843
vt 0.368051 0.782660
vt 0.995682 0.270433
vt 0.368051 0.782660
vt 0.732794 0.001843
vt 0.565411 0.000193
vt 0.732794 0.001843
vt 0.009863 0.299547
vt 0.009863 0.299547
vt 0.368051 0.782660
vt 0.732794 0.001843
vt 0.127307 0.839644
vt 0.023089 0.840777
vt 0.127307 0.839644
vn -0.182961 0.011840 -0.983049
vn -0.999865 0.016288 -0.002319
vn -0.999872 0.015635 -0.003298
vn -0.999872 0.015635 -0.003298
vn -0.218506 0.008522 -0.975798
vn -0.182961 0.011840 -0.983049
vn -0.999865 0.016288 -0.002319
vn -0.180033 0.009320 0.983616
vn -0.214962 0.013588 0.976528
vn -0.214962 0.013588 0.976528
vn -0.999872 0.015635 -0.003298
vn -0.999865 0.016288 -0.002319
vn -0.180033 0.009320 0.983616
vn 0.805445 0.017548 0.592411
vn 0.804054 0.016528 0.594327
vn 0.804054 0.016528 0.594327
vn -0.214962 0.013588 0.976528
vn -0.180033 0.009320 0.983616
vn 0.805445 0.017548 0.592411
vn 0.805875 0.016209 -0.591864
vn 0.804227 0.017044 -0.594078
vn 0.804227 0.017044 -0.594078
vn 0.804054 0.016528 0.594327
vn 0.805445 0.017548 0.592411
vn 0.805875 0.016209 -0.591864
vn -0.182961 0.011840 -0.983049
vn -0.218506 0.008522 -0.975798
vn -0.218506 0.008522 -0.975798
vn 0.804227 0.017044 -0.594078
vn 0.805875 0.016209 -0.591864
vn -0.211320 -0.008529 -0.977380
vn -0.999881 -0.015431 0.000220
vn -0.873609 0.001352 -0.486626
vn -0.999881 -0.015431 0.000220
vn -0.211226 -0.007571 0.977408
vn -0.481093 0.000171 0.876670
vn -0.481093 0.000171 0.876670
vn -0.873609 0.001352 -0.486626
vn -0.999881 -0.015431 0.000220
vn -0.211226 -0.007571 0.977408
vn 0.809175 0.002725 0.587561
vn 0.873386 0.000828 0.487028
vn 0.873386 0.000828 0.487028
vn -0.481093 0.000171 0.876670
vn -0.211226 -0.007571 0.977408
vn 0.809175 0.002725 0.587561
vn 0.809357 0.002125 -0.587313
vn 0.484645 0.000486 -0.874711
vn 0.484645 0.000486 -0.874711
vn 0.873386 0.000828 0.487028
vn 0.809175 0.002725 0.587561
vn 0.484645 0.000486 -0.874711
vn -0.211320 -0.008529 -0.977380
vn -0.873609 0.001352 -0.486626
vn -0.211320 -0.008529 -0.977380
vn 0.484645 0.000486 -0.874711
vn 0.809357 0.002125 -0.587313
vn -0.111844 -0.993722 -0.002704
vn -0.437713 -0.899115 0.000487
vn -0.087361 -0.862607 -0.498275
vn -0.111844 -0.993722 -0.002704
vn -0.086852 -0.864874 0.494419
vn -0.437713 -0.899115 0.000487
vn -0.111844 -0.993722 -0.002704
vn 0.285738 -0.936391 0.203779
vn -0.086852 -0.864874 0.494419
vn -0.111844 -0.993722 -0.002704
vn 0.287027 -0.935951 -0.203988
vn 0.285738 -0.936391 0.203779
vn -0.111844 -0.993722 -0.002704
vn -0.087361 -0.862607 -0.498275
vn 0.287027 -0.935951 -0.203988
vn -0.257876 -0.007878 -0.966146
vn -0.999940 -0.010993 0.000511
vn -0.735769 0.677231 -0.001695
vn -0.735769 0.677231 -0.001695
vn -0.148680 0.520228 -0.840986
vn -0.257876 -0.007878 -0.966146
vn -0.999940 -0.010993 0.000511
vn -0.257935 -0.003736 0.966155
vn -0.133662 0.511386 0.848892
vn -0.133662 0.511386 0.848892
vn -0.735769 0.677231 -0.001695
vn -0.999940 -0.010993 0.000511
vn -0.257935 -0.003736 0.966155
vn 0.822361 0.009438 0.568887
vn 0.586351 0.618527 0.523084
vn 0.586351 0.618527 0.523084
vn -0.133662 0.511386 0.848892
vn -0.257935 -0.003736 0.966155
vn 0.822361 0.009438 0.568887
vn 0.822656 0.004156 -0.568524
vn 0.591696 0.627175 -0.506505
vn 0.591696 0.627175 -0.506505
vn 0.586351 0.618527 0.523084
vn 0.822361 0.009438 0.568887
vn 0.822656 0.004156 -0.568524
vn -0.257876 -0.007878 -0.966146
vn -0.148680 0.520228 -0.840986
vn -0.148680 0.520228 -0.840986
vn 0.591696 0.627175 -0.506505
vn 0.822656 0.004156 -0.568524
vn -0.126162 -0.520277 -0.844627
vn -0.715538 -0.698563 0.003972
vn -0.999940 -0.010993 0.000511
vn -0.999940 -0.010993 0.000511
vn -0.257876 -0.007878 -0.966146
vn -0.126162 -0.520277 -0.844627
vn -0.715538 -0.698563 0.003972
vn -0.141529 -0.527705 0.837554
vn -0.257935 -0.003736 0.966155
vn -0.257935 -0.003736 0.966155
vn -0.999940 -0.010993 0.000511
vn -0.715538 -0.698563 0.003972
vn -0.141529 -0.527705 0.837554
vn 0.602095 -0.615217 0.508910
vn 0.822361 0.009438 0.568887
vn 0.822361 0.009438 0.568887
vn -0.257935 -0.003736 0.966155
vn -0.141529 -0.527705 0.837554
vn 0.602095 -0.615217 0.508910
vn 0.597607 -0.607810 -0.522908
vn 0.822656 0.004156 -0.568524
vn 0.822656 0.004156 -0.568524
vn 0.822361 0.009438 0.568887
vn 0.602095 -0.615217 0.508910
vn 0.597607 -0.607810 -0.522908
vn -0.126162 -0.520277 -0.844627
vn -0.257876 -0.007878 -0.966146
vn -0.257876 -0.007878 -0.966146
vn 0.822656 0.004156 -0.568524
vn 0.597607 -0.607810 -0.522908
vn 0.006059 0.999982 0.000012
vn 0.006063 0.999982 0.000008
vn 0.006059 0.999982 0.000012
vn 0.121604 0.000000 0.992579
vn 0.084485 -0.000393 0.996425
vn 0.088672 -0.072217 0.993439
vn 0.089249 -0.072044 -0.993400
vn 0.086182 -0.000379 -0.996279
vn 0.120886 -0.000000 -0.992666
vn 0.080363 -0.085046 0.993131
vn 0.088672 -0.072217 0.993439
vn 0.099138 -0.078878 0.991943
vn 0.101613 -0.077527 -0.991799
vn 0.081481 -0.086261 -0.992935
vn 0.484645 0.000486 -0.874711
vn 0.086182 -0.000379 -0.996279
vn 0.089249 -0.072044 -0.993400
vn 0.101613 -0.077527 -0.991799
vn 0.084485 -0.000393 0.996425
vn 0.099138 -0.078878 0.991943
vn 0.088672 -0.072217 0.993439
vn -0.557491 -0.614170 -0.558570
vn -0.558267 -0.616463 0.555258
vn -0.875893 -0.482500 -0.002362
vn 0.080363 -0.085046 0.993131
vn 0.099138 -0.078878 0.991943
vn 0.262869 -0.005695 0.964815
vn 0.101613 -0.077527 -0.991799
vn 0.089249 -0.072044 -0.993400
vn 0.081481 -0.086261 -0.992935
vn -0.260826 0.927960 -0.266196
vn -0.999992 0.004010 -0.000302
vn -0.999992 0.004021 -0.000935
vn -0.260826 0.927960 -0.266196
vn -0.999992 0.004021 -0.000935
vn -0.260615 0.928465 0.264638
vn 0.006059 0.999982 0.000012
vn 0.006059 0.999982 0.000012
vn 0.006055 0.999982 0.000016
vn 0.088926 0.072269 0.993413
vn 0.084485 -0.000393 0.996425
vn 0.121604 0.000000 0.992579
vn 0.120886 -0.000000 -0.992666
vn 0.086182 -0.000379 -0.996279
vn 0.089503 0.072093 -0.993374
vn 0.101890 0.077697 0.991757
vn 0.088926 0.072269 0.993413
vn 0.091655 0.080745 0.992512
vn 0.280345 -0.000398 -0.959899
vn 0.092928 0.081905 -0.992298
vn 0.104365 0.076352 -0.991604
vn 0.104365 0.076352 -0.991604
vn 0.089503 0.072093 -0.993374
vn 0.086182 -0.000379 -0.996279
vn 0.088926 0.072269 0.993413
vn 0.101890 0.077697 0.991757
vn 0.084485 -0.000393 0.996425
vn -0.835506 0.549477 -0.002229
vn -0.516817 0.681619 0.517973
vn -0.518057 0.678786 -0.520449
vn 0.276494 -0.000433 0.961016
vn 0.101890 0.077697 0.991757
vn 0.091655 0.080745 0.992512
vn 0.092928 0.081905 -0.992298
vn 0.089503 0.072093 -0.993374
vn 0.104365 0.076352 -0.991604
vn -0.999992 0.004021 -0.000935
vn -0.999992 0.004010 -0.000302
vn -0.269927 -0.925883 -0.264348
vn -0.268952 -0.926318 0.263820
vn -0.999992 0.004021 -0.000935
vn -0.269927 -0.925883 -0.264348
vn 0.268599 0.926183 0.264649
vn 0.268145 0.925738 -0.266660
vn -0.260826 0.927960 -0.266196
vn 0.268599 0.926183 0.264649
vn -0.260826 0.927960 -0.266196
vn -0.260615 0.928465 0.264638
vn 0.260541 -0.928735 -0.263761
vn 0.260212 -0.929097 0.262811
vn -0.268952 -0.926318 0.263820
vn 0.260541 -0.928735 -0.263761
vn -0.268952 -0.926318 0.263820
vn -0.269927 -0.925883 -0.264348
vn -0.992579 0.000000 0.121604
vn -0.996263 0.000192 0.086373
vn -0.993321 -0.072442 0.089804
vn 0.993401 -0.072043 0.089249
vn 0.996322 0.000382 0.085690
vn 0.992666 0.000000 0.120886
vn -0.992842 -0.086693 0.082154
vn -0.993321 -0.072442 0.089804
vn -0.991695 -0.077897 0.102342
vn 0.991813 -0.077543 0.101457
vn 0.992934 -0.086210 0.081550
vn 0.873386 0.000828 0.487028
vn 0.996322 0.000382 0.085690
vn 0.993401 -0.072043 0.089249
vn 0.991813 -0.077543 0.101457
vn -0.996263 0.000192 0.086373
vn -0.991695 -0.077897 0.102342
vn -0.993321 -0.072442 0.089804
vn 0.556681 -0.618334 -0.554770
vn -0.557491 -0.614170 -0.558570
vn -0.002738 -0.483891 -0.875124
vn -0.992842 -0.086693 0.082154
vn -0.991695 -0.077897 0.102342
vn -0.963332 -0.005677 0.268253
vn 0.991813 -0.077543 0.101457
vn 0.993401 -0.072043 0.089249
vn 0.992934 -0.086210 0.081550
vn 0.268145 0.925738 -0.266660
vn 0.000302 -0.002011 -0.999998
vn -0.000336 -0.002576 -0.999997
vn 0.268145 0.925738 -0.266660
vn -0.000336 -0.002576 -0.999997
vn -0.260826 0.927960 -0.266196
vn -0.993335 0.072417 0.089676
vn -0.996263 0.000192 0.086373
vn -0.992579 0.000000 0.121604
vn 0.992666 0.000000 0.120886
vn 0.996322 0.000382 0.085690
vn 0.993427 0.071993 0.088995
vn -0.991572 0.077165 0.104072
vn -0.993335 0.072417 0.089676
vn -0.992300 0.081913 0.092906
vn 0.960101 -0.000397 0.279655
vn 0.992429 0.081279 0.092076
vn 0.991699 0.076856 0.103087
vn 0.991699 0.076856 0.103087
vn 0.993427 0.071993 0.088995
vn 0.996322 0.000382 0.085690
vn -0.993335 0.072417 0.089676
vn -0.991572 0.077165 0.104072
vn -0.996263 0.000192 0.086373
vn 0.001735 0.544969 -0.838454
vn -0.518057 0.678786 -0.520449
vn 0.519302 0.678264 -0.519888
vn -0.959469 -0.000434 0.281814
vn -0.991572 0.077165 0.104072
vn -0.992300 0.081913 0.092906
vn 0.992429 0.081279 0.092076
vn 0.993427 0.071993 0.088995
vn 0.991699 0.076856 0.103087
vn -0.000336 -0.002576 -0.999997
vn 0.000302 -0.002011 -0.999998
vn 0.260541 -0.928735 -0.263761
vn -0.269927 -0.925883 -0.264348
vn -0.000336 -0.002576 -0.999997
vn 0.260541 -0.928735 -0.263761
vn -0.121604 -0.000000 -0.992579
vn -0.085821 0.000192 -0.996311
vn -0.089545 -0.072391 -0.993348
vn -0.088651 -0.071925 0.993462
vn -0.084604 0.000193 0.996415
vn -0.120886 0.000000 0.992667
vn -0.081958 -0.086168 -0.992904
vn -0.089545 -0.072391 -0.993348
vn -0.102199 -0.077738 -0.991722
vn -0.099037 -0.078292 0.991999
vn -0.080245 -0.085458 0.993105
vn -0.481093 0.000171 0.876670
vn -0.084604 0.000193 0.996415
vn -0.088651 -0.071925 0.993462
vn -0.099037 -0.078292 0.991999
vn -0.085821 0.000192 -0.996311
vn -0.102199 -0.077738 -0.991722
vn -0.089545 -0.072391 -0.993348
vn 0.555401 -0.618157 0.556248
vn 0.556681 -0.618334 -0.554770
vn 0.873830 -0.486226 0.002423
vn -0.081958 -0.086168 -0.992904
vn -0.102199 -0.077738 -0.991722
vn -0.269228 -0.003944 -0.963068
vn -0.099037 -0.078292 0.991999
vn -0.088651 -0.071925 0.993462
vn -0.080245 -0.085458 0.993105
vn 0.268599 0.926183 0.264649
vn 0.999998 -0.002010 0.000302
vn 0.999998 -0.002007 0.000577
vn 0.268599 0.926183 0.264649
vn 0.999998 -0.002007 0.000577
vn 0.268145 0.925738 -0.266660
vn -0.089418 0.072365 -0.993362
vn -0.085821 0.000192 -0.996311
vn -0.121604 -0.000000 -0.992579
vn -0.120886 0.000000 0.992667
vn -0.084604 0.000193 0.996415
vn -0.088525 0.071900 0.993476
vn -0.103396 0.077230 -0.991638
vn -0.089418 0.072365 -0.993362
vn -0.092318 0.081517 -0.992387
vn -0.275826 -0.000396 0.961207
vn -0.091204 0.080560 0.992568
vn -0.101772 0.077129 0.991813
vn -0.101772 0.077129 0.991813
vn -0.088525 0.071900 0.993476
vn -0.084604 0.000193 0.996415
vn -0.089418 0.072365 -0.993362
vn -0.103396 0.077230 -0.991638
vn -0.085821 0.000192 -0.996311
vn 0.836192 0.548436 0.001149
vn 0.519302 0.678264 -0.519888
vn 0.519839 0.678258 0.519359
vn -0.278866 -0.000434 -0.960330
vn -0.103396 0.077230 -0.991638
vn -0.092318 0.081517 -0.992387
vn -0.091204 0.080560 0.992568
vn -0.088525 0.071900 0.993476
vn -0.101772 0.077129 0.991813
vn 0.999998 -0.002007 0.000577
vn 0.999998 -0.002010 0.000302
vn 0.260212 -0.929097 0.262811
vn 0.260541 -0.928735 -0.263761
vn 0.999998 -0.002007 0.000577
vn 0.260212 -0.929097 0.262811
vn 0.992579 0.000000 -0.121604
vn 0.996352 0.000388 -0.085339
vn 0.993368 -0.072354 -0.089360
vn -0.993356 -0.072127 -0.089671
vn -0.996241 0.000188 -0.086623
vn -0.992667 -0.000000 -0.120886
vn 0.992963 -0.086026 -0.081383
vn 0.993368 -0.072354 -0.089360
vn 0.991813 -0.078230 -0.100931
vn -0.991705 -0.076987 -0.102924
vn -0.992828 -0.086792 -0.082216
vn -0.873609 0.001352 -0.486626
vn -0.996241 0.000188 -0.086623
vn -0.993356 -0.072127 -0.089671
vn -0.991705 -0.076987 -0.102924
vn 0.996352 0.000388 -0.085339
vn 0.991813 -0.078230 -0.100931
vn 0.993368 -0.072354 -0.089360
vn -0.558267 -0.616463 0.555258
vn 0.555401 -0.618157 0.556248
vn -0.001883 -0.485980 0.873968
vn 0.992963 -0.086026 -0.081383
vn 0.991813 -0.078230 -0.100931
vn 0.964323 -0.005701 -0.264668
vn -0.991705 -0.076987 -0.102924
vn -0.993356 -0.072127 -0.089671
vn -0.992828 -0.086792 -0.082216
vn -0.260615 0.928465 0.264638
vn -0.000302 -0.004017 0.999992
vn 0.000306 -0.003463 0.999994
vn -0.260615 0.928465 0.264638
vn 0.000306 -0.003463 0.999994
vn 0.268599 0.926183 0.264649
vn 0.993394 0.072304 -0.089106
vn 0.996352 0.000388 -0.085339
vn 0.992579 0.000000 -0.121604
vn -0.992667 -0.000000 -0.120886
vn -0.996241 0.000188 -0.086623
vn -0.993370 0.072102 -0.089544
vn 0.991700 0.077550 -0.102548
vn 0.993394 0.072304 -0.089106
vn 0.992465 0.081100 -0.091844
vn -0.959825 -0.000398 -0.280597
vn -0.992295 0.082026 -0.092855
vn -0.991584 0.076262 -0.104619
vn -0.991584 0.076262 -0.104619
vn -0.993370 0.072102 -0.089544
vn -0.996241 0.000188 -0.086623
vn 0.993394 0.072304 -0.089106
vn 0.991700 0.077550 -0.102548
vn 0.996352 0.000388 -0.085339
vn 0.004855 0.547431 0.836837
vn 0.519839 0.678258 0.519359
vn -0.516817 0.681619 0.517973
vn 0.960522 -0.000433 -0.278204
vn 0.991700 0.077550 -0.102548
vn 0.992465 0.081100 -0.091844
vn -0.992295 0.082026 -0.092855
vn -0.993370 0.072102 -0.089544
vn -0.991584 0.076262 -0.104619
vn 0.000306 -0.003463 0.999994
vn -0.000302 -0.004017 0.999992
vn -0.268952 -0.926318 0.263820
vn 0.260212 -0.929097 0.262811
vn 0.000306 -0.003463 0.999994
vn -0.268952 -0.926318 0.263820
s off
g Fy_Wea_masse1M
usemtl Fy_Wea_masse1MSG4
f 1/1/1 2/2/2 3/3/3
f 3/3/4 4/4/5 1/1/6
f 2/2/7 5/5/8 6/6/9
f 6/6/10 3/3/11 2/2/12
f 5/5/13 7/7/14 8/8/15
f 8/9/16 6/6/17 5/5/18
f 7/10/19 9/11/20 10/12/21
f 10/12/22 8/13/23 7/10/24
f 9/11/25 1/1/26 4/4/27
f 4/4/28 10/12/29 9/11/30
usemtl Fy_Wea_masse1MSG2
f 17/14/31 16/15/32 11/16/33
f 16/15/34 18/18/35 12/19/36
f 12/19/37 11/16/38 16/15/39
f 18/18/40 19/20/41 13/21/42
f 13/22/43 12/19/44 18/18/45
f 19/23/46 20/24/47 14/25/48
f 14/25/49 13/26/50 19/23/51
f 14/25/52 17/14/53 11/17/54
f 17/14/55 14/25/56 20/24/57
usemtl Fy_Wea_masse1MSG3
f 15/27/58 2/29/59 1/28/60
f 15/27/61 5/30/62 2/29/63
f 15/27/64 7/31/65 5/30/66
f 15/27/67 9/32/68 7/31/69
f 15/27/70 1/28/71 9/32/72
usemtl Fy_Wea_masse1MSG1
f 21/33/73 22/34/74 16/35/75
f 16/35/76 17/36/77 21/33/78
f 22/34/79 23/37/80 18/38/81
f 18/38/82 16/35/83 22/34/84
f 23/37/85 24/39/86 19/40/87
f 19/41/88 18/38/89 23/37/90
f 24/42/91 25/43/92 20/44/93
f 20/44/94 19/45/95 24/42/96
f 25/43/97 21/33/98 17/36/99
f 17/36/100 20/44/101 25/43/102
f 4/46/103 3/47/104 22/34/105
f 22/34/106 21/33/107 4/46/108
f 3/47/109 6/48/110 23/37/111
f 23/37/112 22/34/113 3/47/114
f 6/48/115 8/49/116 24/50/117
f 24/51/118 23/37/119 6/48/120
f 8/52/121 10/53/122 25/43/123
f 25/43/124 24/42/125 8/52/126
f 10/53/127 4/46/128 21/33/129
f 21/33/130 25/43/131 10/53/132
usemtl Fy_Wea_masse1MSG
f 30/122/133 31/123/134 34/124/135
f 36/60/136 39/61/137 35/62/138
f 35/62/139 38/134/140 36/60/141
f 40/63/142 35/62/143 32/64/144
f 37/135/145 40/63/146 14/65/147
f 38/136/148 35/62/149 37/137/150
f 39/61/151 32/64/152 35/62/153
f 13/72/154 14/73/155 40/58/156
f 40/63/157 32/64/158 13/138/159
f 37/139/160 35/62/161 40/63/162
f 32/68/163 39/66/164 38/67/165
f 32/68/166 38/67/167 37/69/168
f 30/122/169 34/124/170 42/125/171
f 43/140/172 39/61/173 36/60/174
f 36/60/175 38/141/176 43/142/177
f 33/143/178 43/144/179 44/145/180
f 42/146/181 44/147/182 41/148/183
f 41/149/184 43/150/185 38/151/186
f 43/152/187 33/153/188 39/61/189
f 44/59/190 42/70/191 34/71/192
f 34/154/193 33/155/194 44/156/195
f 44/157/196 43/158/197 41/159/198
f 38/67/199 39/66/200 33/160/201
f 41/161/202 38/67/203 33/162/204
f 26/126/205 27/127/206 32/128/207
f 26/126/208 32/128/209 37/129/210
f 29/130/211 28/131/212 41/132/213
f 29/130/214 41/132/215 33/133/216
f 45/74/217 46/75/218 47/76/219
f 47/76/220 48/163/221 45/74/222
f 49/77/223 47/76/224 27/78/225
f 32/164/226 49/77/227 13/79/228
f 48/165/229 47/76/230 32/166/231
f 46/75/232 27/78/233 47/76/234
f 12/80/235 13/81/236 49/82/237
f 49/77/238 27/78/239 12/167/240
f 32/168/241 47/76/242 49/77/243
f 27/83/244 46/84/245 48/85/246
f 27/83/247 48/85/248 32/86/249
f 50/169/250 46/75/251 45/74/252
f 45/74/253 48/170/254 50/171/255
f 29/172/256 50/173/257 51/174/258
f 34/175/259 51/176/260 33/177/261
f 33/178/262 50/179/263 48/180/264
f 50/181/265 29/182/266 46/75/267
f 51/87/268 34/88/269 31/89/270
f 31/183/271 29/184/272 51/185/273
f 51/186/274 50/187/275 33/188/276
f 48/85/277 46/84/278 29/189/279
f 33/190/280 48/85/281 29/191/282
f 52/90/283 53/91/284 54/92/285
f 54/92/286 55/192/287 52/90/288
f 56/93/289 54/92/290 26/94/291
f 27/193/292 56/93/293 12/95/294
f 55/194/295 54/92/296 27/195/297
f 53/91/298 26/94/299 54/92/300
f 11/96/301 12/97/302 56/98/303
f 56/93/304 26/94/305 11/196/306
f 27/197/307 54/92/308 56/93/309
f 26/99/310 53/100/311 55/101/312
f 26/99/313 55/101/314 27/102/315
f 57/198/316 53/91/317 52/90/318
f 52/90/319 55/199/320 57/200/321
f 28/201/322 57/202/323 58/203/324
f 31/204/325 58/205/326 29/206/327
f 29/207/328 57/208/329 55/209/330
f 57/210/331 28/211/332 53/91/333
f 58/103/334 31/104/335 30/105/336
f 30/212/337 28/213/338 58/214/339
f 58/215/340 57/216/341 29/217/342
f 55/101/343 53/100/344 28/218/345
f 29/219/346 55/101/347 28/220/348
f 59/106/349 60/107/350 61/108/351
f 61/108/352 62/221/353 59/106/354
f 63/109/355 61/108/356 37/110/357
f 26/222/358 63/109/359 11/111/360
f 62/223/361 61/108/362 26/224/363
f 60/107/364 37/110/365 61/108/366
f 14/112/367 11/113/368 63/114/369
f 63/109/370 37/110/371 14/225/372
f 26/226/373 61/108/374 63/109/375
f 37/115/376 60/116/377 62/117/378
f 37/115/379 62/117/380 26/118/381
f 64/227/382 60/107/383 59/106/384
f 59/106/385 62/228/386 64/229/387
f 41/230/388 64/231/389 65/232/390
f 30/233/391 65/234/392 28/235/393
f 28/236/394 64/237/395 62/238/396
f 64/239/397 41/240/398 60/107/399
f 65/119/400 30/120/401 42/121/402
f 42/241/403 41/242/404 65/243/405
f 65/244/406 64/245/407 28/246/408
f 62/117/409 60/116/410 41/247/411
f 28/248/412 62/117/413 41/249/414
