# This file uses meters as units for non-parametric coordinates.

mtllib ka_laseray.max.fobj.mtl
g default
v -99.999939 -0.049171 -0.176812
v -74.953405 -0.043479 4.730825
v 78.968105 -0.043479 4.891273
v 99.993189 -0.049171 -0.175871
v 78.589686 -0.043479 -5.674364
v -75.221196 -0.043479 -5.660266
v 78.968108 -5.335766 -0.231871
v 99.993191 -0.304142 -0.190652
v 78.589687 5.229871 -0.231871
v -75.221193 5.215770 -0.231873
v -99.999928 -0.303203 -0.190655
v -74.953403 -5.175320 -0.231874
vt 1.000000 0.500000
vt 0.852210 1.000000
vt 0.100000 1.000000
vt 0.000000 0.500000
vt 0.100000 0.000000
vt 0.852210 0.000000
vt 0.100000 1.000000
vt 0.000000 0.500000
vt 0.100000 0.000000
vt 0.852210 0.000000
vt 1.000000 0.500000
vt 0.852210 1.000000
vn 0.000127 1.000000 -0.000004
vn 0.000268 1.000000 -0.000010
vn 0.000119 1.000000 -0.000004
vn -0.000108 1.000000 0.000003
vn -0.000228 1.000000 0.000006
vn -0.000105 1.000000 0.000003
vn -0.000105 1.000000 0.000003
vn 0.000127 1.000000 -0.000004
vn 0.000119 1.000000 -0.000004
vn -0.000105 1.000000 0.000003
vn 0.000119 1.000000 -0.000004
vn -0.000108 1.000000 0.000003
vn -0.000918 -0.000033 1.000000
vn -0.001944 -0.000070 0.999998
vn -0.000863 -0.000031 1.000000
vn 0.000780 0.000020 1.000000
vn 0.001654 0.000042 0.999999
vn 0.000758 0.000019 1.000000
vn 0.000758 0.000019 1.000000
vn -0.000918 -0.000033 1.000000
vn -0.000863 -0.000031 1.000000
vn 0.000758 0.000019 1.000000
vn -0.000863 -0.000031 1.000000
vn 0.000780 0.000020 1.000000
s off
g rayon
usemtl rayonSG
f 3/3/1 4/4/2 5/5/3
f 6/6/4 1/1/5 2/2/6
f 2/2/7 3/3/8 5/5/9
f 2/2/10 5/5/11 6/6/12
f 7/7/13 8/8/14 9/9/15
f 10/10/16 11/11/17 12/12/18
f 12/12/19 7/7/20 9/9/21
f 12/12/22 9/9/23 10/10/24
