# This file uses meters as units for non-parametric coordinates.

mtllib ma_fx_birds.max.fobj.mtl
g default
v 28.436577 -108.380127 -2085.598087
v 30.496806 -51.161557 -2085.598087
v 23.788863 -57.948142 -1990.620893
v 32.922924 -24.236329 -1995.444018
v 32.922977 -24.236324 -2175.752169
v 23.788905 -57.948118 -2180.575341
v -4.600687 -48.383182 -1867.890024
v -4.600646 -48.383158 -2303.306055
v 40.185398 -42.017394 -2099.489766
v 40.185398 -42.017412 -2071.706426
v 29.945189 21.885675 -2085.598099
vn -0.995766 0.086479 -0.031161
vn -0.956892 0.231448 -0.175470
vn -0.970170 0.177542 0.165071
vn -0.956892 0.231448 -0.175470
vn -0.995766 0.086479 -0.031161
vn -0.952200 0.229082 -0.202081
vn -0.956892 0.231448 0.175470
vn -0.952200 0.229083 0.202081
vn -0.995766 0.086479 0.031161
vn -0.995766 0.086479 0.031161
vn -0.970170 0.177542 -0.165071
vn -0.956892 0.231448 0.175470
vn -0.956892 0.231448 -0.175470
vn -0.952200 0.229082 -0.202081
vn -0.945901 0.222503 -0.236142
vn -0.952200 0.229083 0.202081
vn -0.956892 0.231448 0.175470
vn -0.945901 0.222503 0.236143
vn -0.956892 0.231448 0.175470
vn -0.970170 0.177542 -0.165071
vn -0.774279 0.618775 -0.132705
vn -0.970170 0.177542 0.165071
vn -0.956892 0.231448 -0.175470
vn -0.774278 0.618776 0.132705
vn -0.970170 0.177542 0.165071
vn -0.774278 0.618776 0.132705
vn -0.818289 -0.006179 0.574774
vn -0.774279 0.618775 -0.132705
vn -0.970170 0.177542 -0.165071
vn -0.818289 -0.006179 -0.574774
s off
g ma_fx_bird03
usemtl ma_fx_bird03SG
f 1//1 4//2 2//3
f 4//4 1//5 3//6
f 5//7 6//8 1//9
f 1//10 2//11 5//12
f 4//13 3//14 7//15
f 6//16 5//17 8//18
f 5//19 2//20 9//21
f 2//22 4//23 10//24
f 2//25 10//26 11//27
f 9//28 2//29 11//30
g default
v -6.438299 -108.380127 -1647.257900
v -4.378070 -51.161557 -1647.257900
v 23.788863 -57.948142 -1552.280706
v 32.922924 -24.236329 -1557.103831
v 32.922977 -24.236324 -1737.411982
v 23.788905 -57.948118 -1742.235154
v 98.312700 -48.383182 -1429.549837
v 98.312736 -48.383158 -1864.965868
v 5.310521 -42.017394 -1661.149579
v 5.310521 -42.017412 -1633.366239
v -26.426005 21.885675 -1647.257912
vn -0.940967 0.090777 0.326100
vn -0.897483 0.260798 0.355681
vn -0.879268 -0.008732 0.476247
vn -0.897483 0.260798 0.355681
vn -0.940967 0.090777 0.326100
vn -0.909536 0.289149 0.298558
vn -0.897483 0.260799 -0.355681
vn -0.909536 0.289150 -0.298559
vn -0.940966 0.090777 -0.326101
vn -0.940966 0.090777 -0.326101
vn -0.879268 -0.008732 -0.476248
vn -0.897483 0.260799 -0.355681
vn -0.897483 0.260798 0.355681
vn -0.909536 0.289149 0.298558
vn -0.827265 0.292747 0.479512
vn -0.909536 0.289150 -0.298559
vn -0.897483 0.260799 -0.355681
vn -0.827265 0.292748 -0.479512
vn -0.897483 0.260799 -0.355681
vn -0.879268 -0.008732 -0.476248
vn -0.861011 0.346017 -0.372737
vn -0.879268 -0.008732 0.476247
vn -0.897483 0.260798 0.355681
vn -0.861010 0.346020 0.372736
vn -0.879268 -0.008732 0.476247
vn -0.861010 0.346020 0.372736
vn -0.726599 -0.219310 0.651119
vn -0.861011 0.346017 -0.372737
vn -0.879268 -0.008732 -0.476248
vn -0.726599 -0.219310 -0.651119
s off
g ma_fx_bird02
usemtl ma_fx_bird03SG
f 12//31 15//32 13//33
f 15//34 12//35 14//36
f 16//37 17//38 12//39
f 12//40 13//41 16//42
f 15//43 14//44 18//45
f 17//46 16//47 19//48
f 16//49 13//50 20//51
f 13//52 15//53 21//54
f 13//55 21//56 22//57
f 20//58 13//59 22//60
g default
v 28.436577 -108.380127 -2556.742001
v 30.496806 -51.161557 -2556.742001
v -31.397735 -57.948142 -2461.764807
v -22.263676 -24.236329 -2466.587931
v -22.263622 -24.236324 -2646.896082
v -31.397693 -57.948118 -2651.719254
v -110.868037 -48.383191 -2429.427290
v -110.867977 -48.383150 -2684.056568
v 40.185398 -42.017394 -2570.633680
v 40.185398 -42.017412 -2542.850339
v 29.945189 21.885675 -2556.742013
vn -0.847719 0.054535 -0.527634
vn -0.667155 0.111199 -0.736573
vn -0.908657 0.334966 -0.249278
vn -0.667155 0.111199 -0.736573
vn -0.847719 0.054535 -0.527634
vn -0.616370 0.054613 -0.785561
vn -0.667155 0.111198 0.736573
vn -0.616369 0.054612 0.785561
vn -0.847720 0.054535 0.527634
vn -0.847720 0.054535 0.527634
vn -0.908658 0.334966 0.249278
vn -0.667155 0.111198 0.736573
vn -0.667155 0.111199 -0.736573
vn -0.616370 0.054613 -0.785561
vn -0.379774 -0.029386 -0.924613
vn -0.616369 0.054612 0.785561
vn -0.667155 0.111198 0.736573
vn -0.379772 -0.029387 0.924613
vn -0.667155 0.111198 0.736573
vn -0.908658 0.334966 0.249278
vn -0.756752 0.645561 -0.102849
vn -0.908657 0.334966 -0.249278
vn -0.667155 0.111199 -0.736573
vn -0.756751 0.645562 0.102849
vn -0.908657 0.334966 -0.249278
vn -0.756751 0.645562 0.102849
vn -0.818289 -0.006179 0.574774
vn -0.756752 0.645561 -0.102849
vn -0.908658 0.334966 0.249278
vn -0.818289 -0.006179 -0.574774
s off
g ma_fx_bird04
usemtl ma_fx_bird03SG
f 23//61 26//62 24//63
f 26//64 23//65 25//66
f 27//67 28//68 23//69
f 23//70 24//71 27//72
f 26//73 25//74 29//75
f 28//76 27//77 30//78
f 27//79 24//80 31//81
f 24//82 26//83 32//84
f 24//85 32//86 33//87
f 31//88 24//89 33//90
g default
v -6.438299 -108.380127 -1247.048321
v -4.378070 -51.161557 -1247.048321
v 17.900908 -57.948142 -1152.071127
v 27.034968 -24.236329 -1156.894251
v 27.035016 -24.236324 -1337.202402
v 17.900950 -57.948118 -1342.025574
v -44.845697 -48.383185 -1057.736959
v -44.845662 -48.383158 -1436.359587
v 5.310521 -42.017394 -1260.940000
v 5.310521 -42.017412 -1233.156660
v -4.929687 21.885675 -1247.048333
vt 0.515512 0.009240
vt 0.514801 0.343897
vt 0.320775 0.154084
vt 0.325845 0.313088
vt 0.725029 0.320744
vt 0.710959 0.173224
vt -0.000860 0.242750
vt 0.998141 0.242749
vt 0.621098 0.463938
vt 0.386246 0.461885
vt 0.498641 0.781637
vn -0.958350 0.091301 0.270611
vn -0.965344 0.204073 -0.162683
vn -0.916012 0.092123 0.390430
vn -0.965344 0.204073 -0.162683
vn -0.958350 0.091301 0.270611
vn -0.948278 0.224877 -0.224051
vn -0.965344 0.204073 0.162683
vn -0.948278 0.224877 0.224052
vn -0.958349 0.091302 -0.270611
vn -0.958349 0.091302 -0.270611
vn -0.916012 0.092122 -0.390430
vn -0.965344 0.204073 0.162683
vn -0.965344 0.204073 -0.162683
vn -0.948278 0.224877 -0.224051
vn -0.817552 0.141656 -0.558160
vn -0.948278 0.224877 0.224052
vn -0.965344 0.204073 0.162683
vn -0.817551 0.141656 0.558161
vn -0.965344 0.204073 0.162683
vn -0.916012 0.092122 -0.390430
vn -0.840639 0.462458 -0.281882
vn -0.916012 0.092123 0.390430
vn -0.965344 0.204073 -0.162683
vn -0.840639 0.462460 0.281882
vn -0.916012 0.092123 0.390430
vn -0.840639 0.462460 0.281882
vn -0.818289 -0.006179 0.574774
vn -0.840639 0.462458 -0.281882
vn -0.916012 0.092122 -0.390430
vn -0.818289 -0.006179 -0.574774
s off
g ma_fx_bird01
usemtl ma_fx_bird03SG
f 34/1/91 37/4/92 35/2/93
f 37/4/94 34/1/95 36/3/96
f 38/5/97 39/6/98 34/1/99
f 34/1/100 35/2/101 38/5/102
f 37/4/103 36/3/104 40/7/105
f 39/6/106 38/5/107 41/8/108
f 38/5/109 35/2/110 42/9/111
f 35/2/112 37/4/113 43/10/114
f 35/2/115 43/10/116 44/11/117
f 42/9/118 35/2/119 44/11/120
