# This file uses meters as units for non-parametric coordinates.

mtllib mp_ressources_gen.max.fobj.mtl
g default
v 0.000000 40.346009 0.000001
v -0.000001 36.521888 -17.633559
v -10.364747 36.521888 -14.265849
v -16.770512 36.521888 -5.449067
v -16.770510 36.521888 5.449072
v -10.364744 36.521888 14.265850
v 0.000002 36.521888 17.633559
v 10.364748 36.521888 14.265847
v 16.770512 36.521888 5.449067
v 16.770510 36.521888 -5.449072
v 10.364743 36.521888 -14.265850
v -0.000001 23.251283 -28.531697
v -16.770512 23.251283 -23.082627
v -27.135256 23.251283 -8.816776
v -27.135256 23.251283 8.816782
v -16.770509 23.251283 23.082630
v 0.000004 23.251283 28.531697
v 16.770515 23.251283 23.082626
v 27.135259 23.251283 8.816775
v 27.135256 23.251283 -8.816785
v 16.770506 23.251283 -23.082632
v -0.000001 8.919093 -28.531697
v -16.770512 8.919093 -23.082627
v -27.135256 8.919093 -8.816777
v -27.135256 8.919093 8.816782
v -16.770509 8.919093 23.082630
v 0.000004 8.919093 28.531697
v 16.770515 8.919093 23.082626
v 27.135259 8.919093 8.816776
v 27.135256 8.919093 -8.816784
v 16.770506 8.919093 -23.082632
v -0.000001 0.043382 -17.633554
v -10.364745 0.043382 -14.265844
v -16.770509 0.043382 -5.449066
v -16.770507 0.043382 5.449071
v -10.364743 0.043382 14.265849
v 0.000002 0.043382 17.633557
v 10.364746 0.043382 14.265846
v 16.770509 0.043382 5.449067
v 16.770507 0.043382 -5.449070
v 10.364741 0.043382 -14.265847
vt 0.500000 0.500000
vt 0.371633 0.500000
vt 0.396149 0.424548
vt 0.460332 0.377916
vt 0.539668 0.377916
vt 0.603851 0.424548
vt 0.628367 0.500000
vt 0.603851 0.575452
vt 0.539668 0.622084
vt 0.460332 0.622084
vt 0.396149 0.575452
vt 0.260599 0.500000
vt 0.306320 0.359283
vt 0.426021 0.272316
vt 0.573979 0.272316
vt 0.693680 0.359283
vt 0.739401 0.500000
vt 0.693680 0.640717
vt 0.573979 0.727684
vt 0.426021 0.727684
vt 0.306320 0.640717
vt 0.184612 0.500000
vt 0.244846 0.314620
vt 0.402540 0.200049
vt 0.597460 0.200048
vt 0.755154 0.314620
vt 0.815388 0.500000
vt 0.755154 0.685380
vt 0.597460 0.799951
vt 0.402540 0.799951
vt 0.244846 0.685380
vt 0.110038 0.500000
vt 0.184514 0.270786
vt 0.379495 0.129124
vt 0.620505 0.129124
vt 0.815486 0.270786
vt 0.889962 0.500000
vt 0.815486 0.729214
vt 0.620505 0.870876
vt 0.379495 0.870876
vt 0.184514 0.729214
vt 1.000000 0.500000
vt 0.000000 0.500000
vt 0.000000 0.500000
vt 0.000000 0.500000
vt 0.000000 0.500000
vt 0.000000 0.500000
vt 0.000000 0.500000
vn 0.000000 1.000000 0.000000
vn -0.000000 0.824529 -0.565819
vn -0.332580 0.824529 -0.457757
vn 0.000000 1.000000 0.000000
vn -0.332580 0.824529 -0.457757
vn -0.538126 0.824529 -0.174848
vn 0.000000 1.000000 0.000000
vn -0.538126 0.824529 -0.174848
vn -0.538126 0.824530 0.174848
vn 0.000000 1.000000 0.000000
vn -0.538126 0.824530 0.174848
vn -0.332580 0.824530 0.457757
vn 0.000000 1.000000 0.000000
vn -0.332580 0.824530 0.457757
vn 0.000000 0.824529 0.565819
vn 0.000000 1.000000 0.000000
vn 0.000000 0.824529 0.565819
vn 0.332580 0.824530 0.457757
vn 0.000000 1.000000 0.000000
vn 0.332580 0.824530 0.457757
vn 0.538126 0.824529 0.174848
vn 0.000000 1.000000 0.000000
vn 0.538126 0.824529 0.174848
vn 0.538126 0.824529 -0.174848
vn 0.000000 1.000000 0.000000
vn 0.538126 0.824529 -0.174848
vn 0.332580 0.824530 -0.457757
vn 0.000000 1.000000 0.000000
vn 0.332580 0.824530 -0.457757
vn -0.000000 0.824529 -0.565819
vn -0.000000 0.824529 -0.565819
vn -0.000000 0.317671 -0.948201
vn -0.557339 0.317671 -0.767111
vn -0.000000 0.824529 -0.565819
vn -0.557339 0.317671 -0.767111
vn -0.332580 0.824529 -0.457757
vn -0.332580 0.824529 -0.457757
vn -0.557339 0.317671 -0.767111
vn -0.901793 0.317671 -0.293010
vn -0.332580 0.824529 -0.457757
vn -0.901793 0.317671 -0.293010
vn -0.538126 0.824529 -0.174848
vn -0.538126 0.824529 -0.174848
vn -0.901793 0.317671 -0.293010
vn -0.901793 0.317671 0.293010
vn -0.538126 0.824529 -0.174848
vn -0.901793 0.317671 0.293010
vn -0.538126 0.824530 0.174848
vn -0.538126 0.824530 0.174848
vn -0.901793 0.317671 0.293010
vn -0.557338 0.317671 0.767111
vn -0.538126 0.824530 0.174848
vn -0.557338 0.317671 0.767111
vn -0.332580 0.824530 0.457757
vn -0.332580 0.824530 0.457757
vn -0.557338 0.317671 0.767111
vn 0.000000 0.317671 0.948201
vn -0.332580 0.824530 0.457757
vn 0.000000 0.317671 0.948201
vn 0.000000 0.824529 0.565819
vn 0.000000 0.824529 0.565819
vn 0.000000 0.317671 0.948201
vn 0.557339 0.317671 0.767111
vn 0.000000 0.824529 0.565819
vn 0.557339 0.317671 0.767111
vn 0.332580 0.824530 0.457757
vn 0.332580 0.824530 0.457757
vn 0.557339 0.317671 0.767111
vn 0.901793 0.317671 0.293010
vn 0.332580 0.824530 0.457757
vn 0.901793 0.317671 0.293010
vn 0.538126 0.824529 0.174848
vn 0.538126 0.824529 0.174848
vn 0.901793 0.317671 0.293010
vn 0.901793 0.317671 -0.293010
vn 0.538126 0.824529 0.174848
vn 0.901793 0.317671 -0.293010
vn 0.538126 0.824529 -0.174848
vn 0.538126 0.824529 -0.174848
vn 0.901793 0.317671 -0.293010
vn 0.557338 0.317671 -0.767111
vn 0.538126 0.824529 -0.174848
vn 0.557338 0.317671 -0.767111
vn 0.332580 0.824530 -0.457757
vn 0.332580 0.824530 -0.457757
vn 0.557338 0.317671 -0.767111
vn -0.000000 0.317671 -0.948201
vn 0.332580 0.824530 -0.457757
vn -0.000000 0.317671 -0.948201
vn -0.000000 0.824529 -0.565819
vn -0.000000 0.317671 -0.948201
vn -0.000000 -0.399525 -0.916722
vn -0.538836 -0.399525 -0.741644
vn -0.000000 0.317671 -0.948201
vn -0.538836 -0.399525 -0.741644
vn -0.557339 0.317671 -0.767111
vn -0.557339 0.317671 -0.767111
vn -0.538836 -0.399525 -0.741644
vn -0.871855 -0.399525 -0.283283
vn -0.557339 0.317671 -0.767111
vn -0.871855 -0.399525 -0.283283
vn -0.901793 0.317671 -0.293010
vn -0.901793 0.317671 -0.293010
vn -0.871855 -0.399525 -0.283283
vn -0.871855 -0.399525 0.283283
vn -0.901793 0.317671 -0.293010
vn -0.871855 -0.399525 0.283283
vn -0.901793 0.317671 0.293010
vn -0.901793 0.317671 0.293010
vn -0.871855 -0.399525 0.283283
vn -0.538836 -0.399525 0.741644
vn -0.901793 0.317671 0.293010
vn -0.538836 -0.399525 0.741644
vn -0.557338 0.317671 0.767111
vn -0.557338 0.317671 0.767111
vn -0.538836 -0.399525 0.741644
vn 0.000000 -0.399525 0.916722
vn -0.557338 0.317671 0.767111
vn 0.000000 -0.399525 0.916722
vn 0.000000 0.317671 0.948201
vn 0.000000 0.317671 0.948201
vn 0.000000 -0.399525 0.916722
vn 0.538836 -0.399525 0.741644
vn 0.000000 0.317671 0.948201
vn 0.538836 -0.399525 0.741644
vn 0.557339 0.317671 0.767111
vn 0.557339 0.317671 0.767111
vn 0.538836 -0.399525 0.741644
vn 0.871855 -0.399525 0.283283
vn 0.557339 0.317671 0.767111
vn 0.871855 -0.399525 0.283283
vn 0.901793 0.317671 0.293010
vn 0.901793 0.317671 0.293010
vn 0.871855 -0.399525 0.283283
vn 0.871855 -0.399525 -0.283283
vn 0.901793 0.317671 0.293010
vn 0.871855 -0.399525 -0.283283
vn 0.901793 0.317671 -0.293010
vn 0.901793 0.317671 -0.293010
vn 0.871855 -0.399525 -0.283283
vn 0.538836 -0.399525 -0.741644
vn 0.901793 0.317671 -0.293010
vn 0.538836 -0.399525 -0.741644
vn 0.557338 0.317671 -0.767111
vn 0.557338 0.317671 -0.767111
vn 0.538836 -0.399525 -0.741644
vn -0.000000 -0.399525 -0.916722
vn 0.557338 0.317671 -0.767111
vn -0.000000 -0.399525 -0.916722
vn -0.000000 0.317671 -0.948201
vn -0.000000 -0.399525 -0.916722
vn -0.000000 -0.775383 -0.631491
vn -0.371181 -0.775383 -0.510887
vn -0.000000 -0.399525 -0.916722
vn -0.371181 -0.775383 -0.510887
vn -0.538836 -0.399525 -0.741644
vn -0.538836 -0.399525 -0.741644
vn -0.371181 -0.775383 -0.510887
vn -0.600584 -0.775383 -0.195141
vn -0.538836 -0.399525 -0.741644
vn -0.600584 -0.775383 -0.195141
vn -0.871855 -0.399525 -0.283283
vn -0.871855 -0.399525 -0.283283
vn -0.600584 -0.775383 -0.195141
vn -0.600584 -0.775383 0.195142
vn -0.871855 -0.399525 -0.283283
vn -0.600584 -0.775383 0.195142
vn -0.871855 -0.399525 0.283283
vn -0.871855 -0.399525 0.283283
vn -0.600584 -0.775383 0.195142
vn -0.371181 -0.775383 0.510887
vn -0.871855 -0.399525 0.283283
vn -0.371181 -0.775383 0.510887
vn -0.538836 -0.399525 0.741644
vn -0.538836 -0.399525 0.741644
vn -0.371181 -0.775383 0.510887
vn 0.000000 -0.775383 0.631491
vn -0.538836 -0.399525 0.741644
vn 0.000000 -0.775383 0.631491
vn 0.000000 -0.399525 0.916722
vn 0.000000 -0.399525 0.916722
vn 0.000000 -0.775383 0.631491
vn 0.371181 -0.775383 0.510887
vn 0.000000 -0.399525 0.916722
vn 0.371181 -0.775383 0.510887
vn 0.538836 -0.399525 0.741644
vn 0.538836 -0.399525 0.741644
vn 0.371181 -0.775383 0.510887
vn 0.600584 -0.775383 0.195141
vn 0.538836 -0.399525 0.741644
vn 0.600584 -0.775383 0.195141
vn 0.871855 -0.399525 0.283283
vn 0.871855 -0.399525 0.283283
vn 0.600584 -0.775383 0.195141
vn 0.600583 -0.775383 -0.195142
vn 0.871855 -0.399525 0.283283
vn 0.600583 -0.775383 -0.195142
vn 0.871855 -0.399525 -0.283283
vn 0.871855 -0.399525 -0.283283
vn 0.600583 -0.775383 -0.195142
vn 0.371181 -0.775383 -0.510887
vn 0.871855 -0.399525 -0.283283
vn 0.371181 -0.775383 -0.510887
vn 0.538836 -0.399525 -0.741644
vn 0.538836 -0.399525 -0.741644
vn 0.371181 -0.775383 -0.510887
vn -0.000000 -0.775383 -0.631491
vn 0.538836 -0.399525 -0.741644
vn -0.000000 -0.775383 -0.631491
vn -0.000000 -0.399525 -0.916722
s off
g mp_ressources_gen
usemtl mp_ressources_genSG
f 1/1/1 2/2/2 3/3/3
f 1/1/4 3/3/5 4/4/6
f 1/1/7 4/4/8 5/5/9
f 1/1/10 5/5/11 6/6/12
f 1/1/13 6/6/14 7/7/15
f 1/1/16 7/7/17 8/8/18
f 1/1/19 8/8/20 9/9/21
f 1/1/22 9/9/23 10/10/24
f 1/1/25 10/10/26 11/11/27
f 1/1/28 11/11/29 2/2/30
f 2/2/31 12/12/32 13/13/33
f 2/2/34 13/13/35 3/3/36
f 3/3/37 13/13/38 14/14/39
f 3/3/40 14/14/41 4/4/42
f 4/4/43 14/14/44 15/15/45
f 4/4/46 15/15/47 5/5/48
f 5/5/49 15/15/50 16/16/51
f 5/5/52 16/16/53 6/6/54
f 6/6/55 16/16/56 17/17/57
f 6/6/58 17/17/59 7/7/60
f 7/7/61 17/17/62 18/18/63
f 7/7/64 18/18/65 8/8/66
f 8/8/67 18/18/68 19/19/69
f 8/8/70 19/19/71 9/9/72
f 9/9/73 19/19/74 20/20/75
f 9/9/76 20/20/77 10/10/78
f 10/10/79 20/20/80 21/21/81
f 10/10/82 21/21/83 11/11/84
f 11/11/85 21/21/86 12/12/87
f 11/11/88 12/12/89 2/2/90
f 12/12/91 22/22/92 23/23/93
f 12/12/94 23/23/95 13/13/96
f 13/13/97 23/23/98 24/24/99
f 13/13/100 24/24/101 14/14/102
f 14/14/103 24/24/104 25/25/105
f 14/14/106 25/25/107 15/15/108
f 15/15/109 25/25/110 26/26/111
f 15/15/112 26/26/113 16/16/114
f 16/16/115 26/26/116 27/27/117
f 16/16/118 27/27/119 17/17/120
f 17/17/121 27/27/122 28/28/123
f 17/17/124 28/28/125 18/18/126
f 18/18/127 28/28/128 29/29/129
f 18/18/130 29/29/131 19/19/132
f 19/19/133 29/29/134 30/30/135
f 19/19/136 30/30/137 20/20/138
f 20/20/139 30/30/140 31/31/141
f 20/20/142 31/31/143 21/21/144
f 21/21/145 31/31/146 22/22/147
f 21/21/148 22/22/149 12/12/150
f 22/22/151 32/32/152 33/33/153
f 22/22/154 33/33/155 23/23/156
f 23/23/157 33/33/158 34/34/159
f 23/23/160 34/34/161 24/24/162
f 24/24/163 34/34/164 35/35/165
f 24/24/166 35/35/167 25/25/168
f 25/25/169 35/35/170 36/36/171
f 25/25/172 36/36/173 26/26/174
f 26/26/175 36/36/176 37/37/177
f 26/26/178 37/37/179 27/27/180
f 27/27/181 37/37/182 38/38/183
f 27/27/184 38/38/185 28/28/186
f 28/28/187 38/38/188 39/39/189
f 28/28/190 39/39/191 29/29/192
f 29/29/193 39/39/194 40/40/195
f 29/29/196 40/40/197 30/30/198
f 30/30/199 40/40/200 41/41/201
f 30/30/202 41/41/203 31/31/204
f 31/31/205 41/41/206 32/32/207
f 31/31/208 32/32/209 22/22/210
