# This file uses meters as units for non-parametric coordinates.

mtllib tr_blur2.max.fobj.mtl
g default
v -15.525190 18.310203 -0.187875
v 24.317113 14.824454 -0.187875
v -9.495050 87.235035 -0.187875
v 30.347252 83.749290 -0.187875
vt 0.999501 0.000499
vt 0.000499 0.000499
vt 0.999501 0.999501
vt 0.000499 0.999501
vn 0.000000 -0.000000 1.000000
vn 0.000000 -0.000000 1.000000
vn 0.000000 -0.000000 1.000000
vn 0.000000 -0.000000 1.000000
vn 0.000000 -0.000000 1.000000
vn 0.000000 -0.000000 1.000000
s off
g Tr_Blur2
usemtl Tr_Blur2SG
f 1/1/1 2/2/2 4/4/3
f 4/4/4 3/3/5 1/1/6
