# This file uses meters as units for non-parametric coordinates.

mtllib zo_wea_dague_trail.max.fobj.mtl
g default
v 2.813839 5.511892 -1.547247
v 2.813839 5.511892 0.317972
v -0.394919 -7.947743 -1.792392
v -2.331988 -8.420073 -0.614637
v -0.394919 -7.947739 0.563116
v 1.823606 -8.420068 0.477201
v 1.823607 -8.420068 -1.706476
v -0.387210 3.757995 -2.315120
v -2.828680 3.757998 -0.614637
v -0.387210 3.758001 1.085847
v 1.931675 3.757998 0.604472
v 1.931674 3.758000 -1.833747
v -0.393854 5.509348 -2.606739
v -3.633507 5.507414 -0.614636
v -0.339101 5.509391 1.376388
v -6.113813 6.809981 -0.596806
v -6.113817 32.036391 -0.596804
v 2.909411 6.814531 0.103195
v 2.947506 43.239749 -0.596802
v -2.354535 37.520388 -0.596803
v -4.167111 6.814530 0.103194
v -4.167113 31.579921 0.103196
v 2.909407 39.924044 0.103197
v 2.288544 6.814531 0.103195
v -0.351289 6.814530 0.103194
v -2.916791 6.813911 -0.614799
v -4.167110 6.814530 -1.296806
v -4.167114 31.579921 -1.296803
v 2.909412 6.814531 -1.296805
v 2.909407 39.924044 -1.296803
v 2.288730 6.814531 -1.296805
v -0.351196 6.814530 -1.296805
v -0.309028 -15.668803 -0.596806
v -0.309029 -13.479887 -1.809241
v -0.309029 -13.479887 0.615630
v 3.417932 -12.888695 -0.596805
v 1.392264 -12.305008 -1.809241
v 1.392263 -12.305008 0.615631
v 0.762654 -10.269898 -1.809240
v 0.762654 -10.269899 0.615631
v -1.460217 -10.269899 -1.809241
v -1.460218 -10.269899 0.615630
v -4.106864 -12.888698 -0.596806
v -2.075049 -12.305009 -1.809241
v -2.075049 -12.305009 0.615630
v 3.398322 -10.604967 -0.596805
v 1.903681 -14.776640 -0.596806
v -2.720257 -14.776640 -0.596806
v -4.087256 -10.492753 -0.596806
v -7.493609 5.313468 -2.576902
v -6.830534 2.760771 -0.911120
v -5.602423 5.452632 -0.481793
v -5.855901 3.371737 0.298429
vt 0.000000 0.003922
vt 0.936508 0.003922
vt 0.126984 0.482353
vt 0.666667 0.400000
vt 0.682540 0.266667
vt 0.047619 0.172549
vt 0.063492 0.003922
vt 0.825397 0.003922
vt 0.031373 0.777778
vt 0.109804 0.730159
vt 0.090196 1.000000
vt 0.074510 0.507937
vt 0.109804 0.730159
vt 0.074510 0.507937
vt 0.164706 1.000000
vt 0.227451 0.777778
vt 0.227451 0.777778
vt 0.172549 0.650794
vt 0.172549 0.650794
vt 0.172549 0.349206
vt 0.172549 0.349206
vt 0.164706 0.000000
vt 0.109804 0.269841
vt 0.090196 0.000000
vt 0.109804 0.269841
vt 0.031373 0.190476
vt 0.003922 0.507937
vt 0.227451 0.253968
vt 0.247059 0.492063
vt 0.247059 0.492063
vt 0.250980 0.841270
vt 0.250980 0.619048
vt 0.921569 0.920635
vt 0.250980 0.920635
vt 0.250980 0.920635
vt 0.250980 0.063492
vt 0.733333 0.063492
vt 0.725490 0.269841
vt 0.250980 0.269841
vt 0.843137 0.412698
vt 0.996078 0.920635
vt 0.921569 0.920635
vt 0.250980 0.841270
vt 0.250980 0.619048
vt 0.725490 0.269841
vt 0.250980 0.269841
vt 0.809524 0.976378
vt 0.555556 0.196850
vt 0.809524 0.196850
vt 0.555556 0.992126
vt 0.317460 0.196850
vt 0.317460 0.976378
vt 0.142857 0.196850
vt 0.142857 0.992126
vt 0.984127 0.196850
vt 0.984127 0.992126
vt 0.555556 0.110236
vt 0.809524 0.110236
vt 0.301587 0.110236
vt 0.111111 0.110236
vt 1.015873 0.110236
vt 0.555556 0.015748
vt 0.825397 0.015748
vt 0.301587 0.015748
vt 0.111111 0.015748
vt 1.015873 0.015748
vt 0.000000 0.196850
vt 0.000000 0.992126
vt 0.000000 0.196850
vt 0.031746 0.110236
vt 0.000000 0.196850
vt 0.031746 0.110236
vt 0.031746 0.015748
vt 0.031746 0.110236
vt 0.031746 0.015748
vt 0.921569 1.000000
vt 0.250980 1.000000
vt 0.250980 0.920635
vt 0.996078 0.920635
vt 0.921569 0.920635
vt 0.278431 0.079365
vt 0.329412 0.079365
vt 0.258824 0.079365
vt 0.258824 0.285714
vt 0.454902 0.285714
vt 0.407843 0.079365
vt 0.278431 0.285714
vt 0.329412 0.285714
vt 0.384314 0.190476
vt 0.407843 0.285714
vn -0.230955 0.028256 -0.972554
vn -0.963339 -0.268288 -0.000094
vn -0.195730 -0.106520 -0.974856
vn -0.230955 0.028256 -0.972554
vn -0.937758 0.347232 -0.006351
vn -0.963339 -0.268288 -0.000094
vn -0.937758 0.347232 -0.006351
vn -0.183861 -0.079401 0.979740
vn -0.963339 -0.268288 -0.000094
vn -0.937758 0.347232 -0.006351
vn -0.220288 0.039913 0.974618
vn -0.183861 -0.079401 0.979740
vn -0.220288 0.039913 0.974618
vn 0.701445 -0.118697 0.702771
vn -0.183861 -0.079401 0.979740
vn -0.220288 0.039913 0.974618
vn 0.641296 0.109402 0.759454
vn 0.701445 -0.118697 0.702771
vn 0.641296 0.109402 0.759454
vn 0.720426 -0.150317 -0.677046
vn 0.701445 -0.118697 0.702771
vn 0.641296 0.109402 0.759454
vn 0.643676 0.091857 -0.759765
vn 0.720426 -0.150317 -0.677046
vn 0.643676 0.091857 -0.759765
vn -0.195730 -0.106520 -0.974856
vn 0.720426 -0.150317 -0.677046
vn 0.643676 0.091857 -0.759765
vn -0.230955 0.028256 -0.972554
vn -0.195730 -0.106520 -0.974856
vn -0.195730 -0.106520 -0.974856
vn -0.861101 0.438196 0.257855
vn -0.095561 0.265475 -0.959370
vn -0.195730 -0.106520 -0.974856
vn -0.963339 -0.268288 -0.000094
vn -0.861101 0.438196 0.257855
vn -0.963339 -0.268288 -0.000094
vn -0.139445 0.228661 0.963467
vn -0.861101 0.438196 0.257855
vn -0.963339 -0.268288 -0.000094
vn -0.183861 -0.079401 0.979740
vn -0.139445 0.228661 0.963467
vn -0.183861 -0.079401 0.979740
vn 0.847346 0.014215 0.530851
vn -0.139445 0.228661 0.963467
vn -0.183861 -0.079401 0.979740
vn 0.701445 -0.118697 0.702771
vn 0.847346 0.014215 0.530851
vn 0.701445 -0.118697 0.702771
vn 0.830326 0.069450 -0.552934
vn 0.847346 0.014215 0.530851
vn 0.701445 -0.118697 0.702771
vn 0.720426 -0.150317 -0.677046
vn 0.830326 0.069450 -0.552934
vn 0.720426 -0.150317 -0.677046
vn -0.095561 0.265475 -0.959370
vn 0.830326 0.069450 -0.552934
vn 0.720426 -0.150317 -0.677046
vn -0.195730 -0.106520 -0.974856
vn -0.095561 0.265475 -0.959370
vn -0.781117 0.607218 0.145405
vn -0.004907 0.359007 -0.933322
vn -0.095561 0.265475 -0.959370
vn -0.095561 0.265475 -0.959370
vn -0.861101 0.438196 0.257855
vn -0.781117 0.607218 0.145405
vn -0.207799 0.634699 0.744296
vn -0.781117 0.607218 0.145405
vn -0.861101 0.438196 0.257855
vn -0.861101 0.438196 0.257855
vn -0.139445 0.228661 0.963467
vn -0.207799 0.634699 0.744296
vn 0.666693 0.478256 0.571657
vn -0.207799 0.634699 0.744296
vn -0.139445 0.228661 0.963467
vn -0.139445 0.228661 0.963467
vn 0.847346 0.014215 0.530851
vn 0.666693 0.478256 0.571657
vn 0.299825 0.188919 -0.935101
vn 0.666693 0.478256 0.571657
vn 0.847346 0.014215 0.530851
vn 0.847346 0.014215 0.530851
vn 0.830326 0.069450 -0.552934
vn 0.299825 0.188919 -0.935101
vn -0.004907 0.359007 -0.933322
vn 0.299825 0.188919 -0.935101
vn 0.830326 0.069450 -0.552934
vn 0.830326 0.069450 -0.552934
vn -0.095561 0.265475 -0.959370
vn -0.004907 0.359007 -0.933322
vn 0.299825 0.188919 -0.935101
vn -0.004907 0.359007 -0.933322
vn 0.000000 0.000000 -1.000000
vn 0.000000 0.000000 -1.000000
vn 0.299825 0.188919 -0.935101
vn 0.000000 0.000000 -1.000000
vn 0.000000 -1.000000 -0.000000
vn 0.000000 -1.000000 -0.000000
vn 0.000000 -1.000000 0.000000
vn -0.338371 0.000000 -0.941013
vn -0.317086 0.094814 -0.943646
vn -0.305435 0.103551 -0.946566
vn -0.305435 0.103551 -0.946566
vn -0.338371 0.000000 -0.941013
vn -0.338371 0.000000 -0.941013
vn -0.305435 0.103551 -0.946566
vn -0.219144 0.183143 -0.958350
vn -0.217884 0.198898 -0.955493
vn -0.219974 0.203923 -0.953953
vn -0.217884 0.198898 -0.955493
vn -0.219144 0.183143 -0.958350
vn 0.999986 -0.005337 -0.000000
vn 1.000000 0.000000 0.000000
vn 1.000000 0.000000 0.000000
vn 0.999986 -0.005337 -0.000000
vn 0.999986 -0.005337 -0.000000
vn 0.999934 -0.011490 -0.000000
vn -0.219144 0.183143 -0.958350
vn -0.305435 0.103551 -0.946566
vn -0.317086 0.094814 -0.943646
vn -0.000000 -0.000000 1.000000
vn -0.000000 -0.000000 1.000000
vn -0.000000 -0.000000 1.000000
vn -0.000000 -0.000000 1.000000
vn -0.000000 -0.000000 1.000000
vn -0.000000 -0.000000 1.000000
vn 0.000834 -1.000000 -0.000162
vn -0.000088 -1.000000 -0.000024
vn 0.000838 -1.000000 0.000161
vn -0.338372 -0.000000 0.941013
vn -0.305435 0.103551 0.946566
vn -0.317086 0.094813 0.943646
vn -0.305435 0.103551 0.946566
vn -0.338372 -0.000000 0.941013
vn -0.338372 -0.000000 0.941013
vn -0.219144 0.183143 0.958350
vn -0.217884 0.198897 0.955493
vn -0.219974 0.203923 0.953953
vn -0.217884 0.198897 0.955493
vn -0.219144 0.183143 0.958350
vn -0.305435 0.103551 0.946566
vn 1.000000 0.000000 0.000000
vn 0.999986 -0.005337 -0.000000
vn 0.999986 -0.005337 -0.000000
vn -0.219144 0.183143 0.958350
vn -0.317086 0.094813 0.943646
vn -0.305435 0.103551 0.946566
vn 0.000000 -1.000000 0.000000
vn 0.000000 -1.000000 -0.000000
vn 0.000000 -1.000000 0.000000
vn 0.000000 0.000000 -1.000000
vn 0.000000 0.000000 -1.000000
vn -0.004907 0.359007 -0.933322
vn -0.000000 -0.000000 1.000000
vn -0.000000 -0.000000 1.000000
vn -0.000000 -0.000000 1.000000
vn 0.000000 -1.000000 -0.000908
vn -0.000088 -1.000000 -0.000024
vn 0.000834 -1.000000 -0.000162
vn -0.004907 0.359007 -0.933322
vn 0.000000 0.000000 -1.000000
vn 0.000000 0.000000 -1.000000
vn -0.000000 -0.000000 1.000000
vn -0.000000 -0.000000 1.000000
vn -0.000000 -0.000000 1.000000
vn 0.000000 -1.000000 0.000863
vn 0.000838 -1.000000 0.000161
vn -0.000088 -1.000000 -0.000024
vn 0.000834 -1.000000 -0.000162
vn 0.000838 -1.000000 0.000161
vn 0.002337 -0.999997 0.000000
vn 0.589415 -0.807830 0.000000
vn -0.189770 0.057017 -0.980172
vn 0.947348 -0.320207 -0.000000
vn 0.589415 -0.807830 0.000000
vn 0.003872 0.222790 -0.974859
vn -0.189770 0.057017 -0.980172
vn 0.003872 0.222790 -0.974859
vn -0.189770 0.057016 0.980172
vn -0.189770 0.057017 -0.980172
vn 0.003872 0.222790 -0.974859
vn 0.003872 0.222789 0.974859
vn -0.189770 0.057016 0.980172
vn 0.003872 0.222789 0.974859
vn 0.589415 -0.807830 0.000000
vn -0.189770 0.057016 0.980172
vn -0.189770 0.057016 0.980172
vn 0.589415 -0.807830 0.000000
vn 0.947348 -0.320207 -0.000000
vn 0.989901 0.141754 0.001246
vn 0.643676 0.091857 -0.759765
vn 0.641296 0.109402 0.759454
vn 0.989901 0.141754 0.001246
vn -0.189770 0.057017 -0.980172
vn -0.101734 -0.434125 -0.895090
vn -0.189770 0.057017 -0.980172
vn -0.101488 -0.425293 0.899348
vn -0.101734 -0.434125 -0.895090
vn -0.189770 0.057017 -0.980172
vn -0.189770 0.057016 0.980172
vn -0.101488 -0.425293 0.899348
vn -0.189770 0.057016 0.980172
vn 0.989901 0.141754 0.001246
vn -0.101488 -0.425293 0.899348
vn -0.101488 -0.425293 0.899348
vn 0.989901 0.141754 0.001246
vn 0.641296 0.109402 0.759454
vn -0.101734 -0.434125 -0.895090
vn 0.001763 -0.293555 0.955941
vn 0.000764 -0.301822 -0.953364
vn -0.101734 -0.434125 -0.895090
vn -0.101488 -0.425293 0.899348
vn 0.001763 -0.293555 0.955941
vn -0.942885 0.333118 0.000657
vn 0.187745 0.065868 -0.980007
vn -0.952919 -0.303225 -0.000000
vn -0.942885 0.333118 0.000657
vn 0.000764 -0.301822 -0.953364
vn 0.187745 0.065868 -0.980007
vn 0.000764 -0.301822 -0.953364
vn 0.187745 0.065868 0.980007
vn 0.187745 0.065868 -0.980007
vn 0.000764 -0.301822 -0.953364
vn 0.001763 -0.293555 0.955941
vn 0.187745 0.065868 0.980007
vn 0.001763 -0.293555 0.955941
vn -0.942885 0.333118 0.000657
vn 0.187745 0.065868 0.980007
vn 0.187745 0.065868 0.980007
vn -0.942885 0.333118 0.000657
vn -0.952919 -0.303225 -0.000000
vn -0.595814 -0.803123 -0.000000
vn 0.003872 0.222790 -0.974859
vn 0.012195 -0.999926 -0.000000
vn -0.595814 -0.803123 -0.000000
vn 0.187745 0.065868 -0.980007
vn 0.003872 0.222790 -0.974859
vn 0.187745 0.065868 -0.980007
vn 0.003872 0.222789 0.974859
vn 0.003872 0.222790 -0.974859
vn 0.187745 0.065868 -0.980007
vn 0.187745 0.065868 0.980007
vn 0.003872 0.222789 0.974859
vn 0.187745 0.065868 0.980007
vn -0.595814 -0.803123 -0.000000
vn 0.003872 0.222789 0.974859
vn 0.003872 0.222789 0.974859
vn -0.595814 -0.803123 -0.000000
vn 0.012195 -0.999926 -0.000000
vn -0.189770 0.057016 0.980172
vn 0.947348 -0.320207 -0.000000
vn 0.989901 0.141754 0.001246
vn 0.947348 -0.320207 -0.000000
vn -0.189770 0.057017 -0.980172
vn 0.989901 0.141754 0.001246
vn 0.003872 0.222789 0.974859
vn 0.012195 -0.999926 -0.000000
vn 0.589415 -0.807830 0.000000
vn 0.012195 -0.999926 -0.000000
vn 0.003872 0.222790 -0.974859
vn 0.589415 -0.807830 0.000000
vn 0.187745 0.065868 0.980007
vn -0.952919 -0.303225 -0.000000
vn -0.595814 -0.803123 -0.000000
vn -0.952919 -0.303225 -0.000000
vn 0.187745 0.065868 -0.980007
vn -0.595814 -0.803123 -0.000000
vn 0.001763 -0.293555 0.955941
vn -0.937758 0.347232 -0.006351
vn -0.942885 0.333118 0.000657
vn -0.937758 0.347232 -0.006351
vn 0.000764 -0.301822 -0.953364
vn -0.942885 0.333118 0.000657
vn -0.230955 0.028256 -0.972554
vn 0.643676 0.091857 -0.759765
vn -0.101734 -0.434125 -0.895090
vn -0.230955 0.028256 -0.972554
vn 0.000764 -0.301822 -0.953364
vn -0.937758 0.347232 -0.006351
vn -0.220288 0.039913 0.974618
vn -0.937758 0.347232 -0.006351
vn 0.001763 -0.293555 0.955941
vn -0.220288 0.039913 0.974618
vn -0.101488 -0.425293 0.899348
vn 0.641296 0.109402 0.759454
vn 0.000764 -0.301822 -0.953364
vn -0.230955 0.028256 -0.972554
vn -0.101734 -0.434125 -0.895090
vn -0.101488 -0.425293 0.899348
vn -0.220288 0.039913 0.974618
vn 0.001763 -0.293555 0.955941
vn 0.989901 0.141754 0.001246
vn -0.101734 -0.434125 -0.895090
vn 0.643676 0.091857 -0.759765
vn 0.187669 -0.502130 -0.844183
vn 0.273338 -0.323187 -0.906000
vn -0.963339 -0.268288 -0.000094
vn -0.861101 0.438196 0.257855
vn -0.963339 -0.268288 -0.000094
vn 0.273338 -0.323187 -0.906000
vn 0.183573 0.225463 0.956801
vn 0.236860 0.315660 0.918834
vn -0.963339 -0.268288 -0.000094
vn -0.963339 -0.268288 -0.000094
vn -0.861101 0.438196 0.257855
vn 0.183573 0.225463 0.956801
s off
g Zo_Wea_Dague
usemtl Zo_Wea_DagueSG
f 3/47/1 9/48/2 8/49/3
f 3/47/4 4/50/5 9/48/6
f 4/50/7 10/51/8 9/48/9
f 4/50/10 5/52/11 10/51/12
f 5/52/13 11/53/14 10/51/15
f 5/52/16 6/54/17 11/53/18
f 6/54/19 12/67/20 11/53/21
f 6/54/22 7/68/23 12/69/24
f 7/56/25 8/49/26 12/55/27
f 7/56/28 3/47/29 8/49/30
f 8/49/31 14/57/32 13/58/33
f 8/49/34 9/48/35 14/57/36
f 9/48/37 15/59/38 14/57/39
f 9/48/40 10/51/41 15/59/42
f 10/51/43 2/60/44 15/59/45
f 10/51/46 11/53/47 2/60/48
f 11/53/49 1/70/50 2/60/51
f 11/53/52 12/71/53 1/72/54
f 12/55/55 13/58/56 1/61/57
f 12/55/58 8/49/59 13/58/60
f 26/62/61 32/63/62 13/58/63
f 13/58/64 14/57/65 26/62/66
f 25/64/67 26/62/68 14/57/69
f 14/57/70 15/59/71 25/64/72
f 24/65/73 25/64/74 15/59/75
f 15/59/76 2/60/77 24/65/78
f 31/73/79 24/65/80 2/60/81
f 2/60/82 1/74/83 31/75/84
f 32/63/85 31/66/86 1/61/87
f 1/61/88 13/58/89 32/63/90
usemtl Zo_Wea_DagueSG2
f 31/31/91 32/32/92 30/33/93
f 29/34/94 31/31/95 30/33/96
f 31/81/97 29/83/98 18/84/99
f 16/36/100 17/37/101 28/38/102
f 28/38/103 27/39/104 16/36/105
f 28/38/106 20/40/107 30/33/108
f 19/41/109 30/33/110 20/40/111
f 30/76/112 18/78/113 29/77/114
f 23/80/115 30/76/116 19/79/117
f 20/40/118 28/38/119 17/37/120
f 24/43/121 18/35/122 23/42/123
f 25/44/124 23/42/125 22/45/126
f 27/86/127 26/89/128 21/90/129
f 16/36/130 22/45/131 17/37/132
f 22/45/133 16/36/134 21/46/135
f 20/40/136 23/42/137 19/41/138
f 23/42/139 20/40/140 22/45/141
f 18/78/142 30/76/143 23/80/144
f 20/40/145 17/37/146 22/45/147
f 24/87/148 31/81/149 18/84/150
f 27/39/151 28/38/152 32/32/153
f 21/46/154 25/44/155 22/45/156
f 32/82/157 26/89/158 27/86/159
f 32/32/160 28/38/161 30/33/162
f 25/44/163 24/43/164 23/42/165
f 25/88/166 21/90/167 26/89/168
f 27/86/169 21/90/170 16/85/171
f 47/9/172 37/10/173 36/11/174
f 47/9/175 34/12/176 37/10/177
f 34/12/178 38/13/179 37/10/180
f 34/12/181 35/14/182 38/13/183
f 35/14/184 47/9/185 38/13/186
f 38/13/187 47/9/188 36/11/189
f 46/15/190 7/16/191 6/17/192
f 46/15/193 37/10/194 39/18/195
f 37/10/196 40/19/197 39/18/198
f 37/10/199 38/13/200 40/19/201
f 38/13/202 46/15/203 40/19/204
f 40/19/205 46/15/206 6/17/207
f 39/18/208 42/20/209 41/21/210
f 39/18/211 40/19/212 42/20/213
f 49/22/214 44/23/215 43/24/216
f 49/22/217 41/21/218 44/23/219
f 41/21/220 45/25/221 44/23/222
f 41/21/223 42/20/224 45/25/225
f 42/20/226 49/22/227 45/25/228
f 45/25/229 49/22/230 43/24/231
f 48/26/232 34/12/233 33/27/234
f 48/26/235 44/23/236 34/12/237
f 44/23/238 35/14/239 34/12/240
f 44/23/241 45/25/242 35/14/243
f 45/25/244 48/26/245 35/14/246
f 35/14/247 48/26/248 33/27/249
f 38/13/250 36/11/251 46/15/252
f 36/11/253 37/10/254 46/15/255
f 35/14/256 33/27/257 47/9/258
f 33/27/259 34/12/260 47/9/261
f 45/25/262 43/24/263 48/26/264
f 43/24/265 44/23/266 48/26/267
f 42/20/268 4/28/269 49/22/270
f 4/28/271 41/21/272 49/22/273
f 3/29/274 7/16/275 39/18/276
f 3/29/277 41/21/278 4/28/279
f 5/30/280 4/28/281 42/20/282
f 5/30/283 40/19/284 6/17/285
f 41/21/286 3/29/287 39/18/288
f 40/19/289 5/30/290 42/20/291
f 46/15/292 39/18/293 7/16/294
usemtl Zo_Wea_DagueSG1
f 51/1/295 50/2/296 9/3/297
f 14/4/298 9/3/299 50/2/300
f 52/7/301 53/8/302 9/5/303
f 9/5/304 14/6/305 52/7/306
