# This file uses meters as units for non-parametric coordinates.

mtllib zo_wea_epee2m_trail.max.fobj.mtl
g default
v 2.389373 7.671871 0.021620
v 2.389203 7.671870 1.021619
v -0.026745 -22.233915 -0.370457
v -1.719343 -22.260456 0.506444
v -0.026745 -22.233912 1.383342
v 1.911787 -22.260451 1.319374
v 1.911787 -22.260453 -0.306487
v -0.024273 7.671871 -0.843381
v -2.369961 7.671871 0.508769
v -0.024359 7.671871 1.886622
v 4.623701 -27.458084 0.522110
v 2.635904 -27.137703 -0.543102
v 2.635904 -27.137703 1.587321
v 4.064266 -24.558029 0.522111
v 2.316227 -25.480527 -0.543101
v 2.316227 -25.480527 1.587322
v 0.905981 -24.398884 -0.543101
v 0.905981 -24.398884 1.587322
v -0.934965 -24.398884 -0.543101
v -0.934965 -24.398884 1.587322
v -4.093250 -24.558028 0.522109
v -2.345211 -25.480530 -0.543102
v -2.345211 -25.480526 1.587322
v -4.652684 -27.458083 0.522109
v -2.664888 -27.137703 -0.543102
v -2.664888 -27.137702 1.587322
v -3.041857 -30.008349 0.522109
v -1.744415 -28.594998 -0.543102
v -1.744415 -28.594997 1.587322
v -0.014491 -31.015527 0.522110
v -0.014491 -29.170528 -0.543102
v -0.014491 -29.170528 1.587322
v 3.012874 -30.008349 0.522110
v 1.715431 -28.594998 -0.543102
v 1.715431 -28.594997 1.587322
v 3.647652 9.906927 0.538283
v 1.848990 9.881638 2.894561
v -1.903935 9.881638 2.894560
v -3.716276 9.906928 0.538282
v -1.928804 9.881640 -1.851580
v 1.862749 9.881640 -1.851580
v 3.138762 7.671847 0.538283
v 1.552225 7.671847 2.557577
v -1.620850 7.671847 2.557576
v -3.207387 7.671847 0.538282
v -1.620849 7.671847 -1.518888
v 1.552225 7.671847 -1.518888
v -6.239005 9.876681 0.521622
v -3.749594 18.389940 0.521624
v -3.807063 9.881639 -1.851580
v -0.000000 20.127830 -1.126475
v -4.249519 72.590548 0.521628
v -3.729123 93.714732 0.521630
v -0.000001 77.409404 -0.887022
v -0.000003 121.534395 0.521632
v -4.001093 51.265729 0.521626
v -4.659637 13.173978 0.521623
v -1.045175 14.467433 -1.126475
v 1.045175 14.467433 -1.126475
v 3.807062 9.881640 -1.851580
v -2.379326 108.838380 0.521631
v 6.239005 9.876684 0.521624
v 3.749595 18.389940 0.521624
v 4.249516 72.590548 0.521628
v 3.729119 93.714732 0.521630
v 4.001092 51.265728 0.521627
v 4.659637 13.173979 0.521624
v 2.379321 108.838379 0.521631
v -3.807063 9.881638 2.894560
v -0.000000 20.127830 2.169457
v -0.000001 77.409405 1.930013
v -1.045176 14.467433 2.169456
v 1.045175 14.467432 2.169456
v 3.807062 9.881638 2.894561
vt 0.744452 1.977250
vt 0.501100 0.000999
vt 0.746905 0.000999
vt 0.501580 1.999001
vt 0.253103 0.000999
vt 0.255749 1.977250
vt 0.041817 0.000999
vt 0.068353 1.999001
vt 0.958185 0.000999
vt 0.929296 1.999001
vt -0.041815 0.000999
vt -0.070704 1.999001
vt -0.041815 0.000999
vt 0.002160 0.906627
vt 0.493793 0.216215
vt 0.002507 0.216215
vt 0.489933 0.898815
vt 1.006207 0.216215
vt 1.008527 0.898815
vt 1.497493 0.216215
vt 1.497840 0.906626
vt 1.994234 0.216215
vt 1.988678 0.898815
vt 2.505766 0.216215
vt 2.511610 0.898816
vt -0.488391 0.898816
vt -0.494234 0.216215
vt -0.488391 0.898816
vt 0.333333 0.571429
vt 0.412698 0.714286
vt 0.222222 0.682540
vt 0.222222 0.428571
vt 0.476190 0.412698
vt 0.460317 0.317460
vt 0.714286 0.428571
vt 0.603175 0.571429
vt 0.714286 0.682540
vt 0.523810 0.714286
vt 0.460317 0.825397
vt 0.152642 0.142857
vt 0.127202 0.301587
vt 0.127202 0.015873
vt 0.162427 0.444444
vt 0.645793 0.492063
vt 0.444227 0.190476
vt 0.606654 0.174603
vt 0.205479 0.492063
vt 0.769080 0.238095
vt 0.884540 0.349206
vt 0.982387 0.523810
vt 0.191781 0.238095
vt 0.162427 0.555556
vt 0.127202 0.698413
vt 0.127202 0.603175
vt 0.152642 0.857143
vt 0.127202 0.984127
vt 0.606654 0.825397
vt 0.444227 0.793651
vt 0.769080 0.761905
vt 0.884540 0.698413
vt 0.191781 0.761905
vt 0.127202 0.301587
vt 0.162427 0.444444
vt 0.645793 0.492063
vt 0.205479 0.492063
vt 0.162427 0.555556
vt 0.127202 0.396825
vt 0.127202 0.698413
vt 0.127202 0.396825
vt 0.127202 0.603175
vt 0.050881 1.000000
vt 0.080235 0.746032
vt 0.091977 0.936508
vt 0.054795 0.777778
vt 0.080235 0.746032
vt 0.054795 0.777778
vt 0.125245 0.714286
vt 0.125245 0.714286
vt 0.093933 0.603175
vt 0.093933 0.603175
vt 0.093933 0.396825
vt 0.093933 0.396825
vt 0.125245 0.317460
vt 0.080235 0.253968
vt 0.091977 0.063492
vt 0.080235 0.253968
vt 0.054795 0.222222
vt 0.050881 0.000000
vt 0.054795 0.222222
vt 0.035225 0.317460
vt 0.015656 0.174603
vt 0.035225 0.317460
vt 0.027397 0.507937
vt 0.003914 0.507937
vt 0.027397 0.507937
vt 0.035225 0.682540
vt 0.015656 0.825397
vt 0.035225 0.682540
vt 0.125245 0.492063
vt 0.125245 0.492063
vt 0.125245 0.507937
vt 0.178082 0.507937
vt 0.125245 0.285714
vt 0.127202 0.714286
vt 0.127202 0.507937
vt 0.180039 0.507937
vt 0.103718 0.285714
vt 0.101761 0.714286
vt 0.125245 0.714286
vt 0.103718 0.714286
vt 0.101761 0.285714
vt 0.127202 0.285714
vn -0.222528 -0.013405 -0.974834
vn -0.999688 -0.024470 -0.004905
vn -0.095151 -0.005249 -0.995449
vn -0.222528 -0.013405 -0.974834
vn -0.999643 -0.026675 -0.001595
vn -0.999688 -0.024470 -0.004905
vn -0.999643 -0.026675 -0.001595
vn -0.091838 -0.014954 0.995662
vn -0.999688 -0.024470 -0.004905
vn -0.999643 -0.026675 -0.001595
vn -0.213053 -0.003567 0.977034
vn -0.091838 -0.014954 0.995662
vn -0.213053 -0.003567 0.977034
vn 0.817561 -0.018915 0.575531
vn -0.091838 -0.014954 0.995662
vn -0.213053 -0.003567 0.977034
vn 0.715986 -0.004479 0.698100
vn 0.817561 -0.018915 0.575531
vn 0.715986 -0.004479 0.698100
vn 0.821554 -0.006854 -0.570089
vn 0.817561 -0.018915 0.575531
vn 0.715986 -0.004479 0.698100
vn 0.721304 -0.021165 -0.692296
vn 0.821554 -0.006854 -0.570089
vn 0.721304 -0.021165 -0.692296
vn -0.095151 -0.005249 -0.995449
vn 0.821554 -0.006854 -0.570089
vn 0.721304 -0.021165 -0.692296
vn -0.222528 -0.013405 -0.974834
vn -0.095151 -0.005249 -0.995449
vn 0.983455 -0.181154 0.000000
vn -0.264001 -0.307191 -0.914296
vn 0.951123 0.308808 0.001546
vn 0.983455 -0.181154 0.000000
vn -0.328817 0.057968 -0.942613
vn -0.264001 -0.307191 -0.914296
vn -0.328817 0.057968 -0.942613
vn -0.264659 -0.303171 0.915447
vn -0.264001 -0.307191 -0.914296
vn -0.328817 0.057968 -0.942613
vn -0.328817 0.057969 0.942613
vn -0.264659 -0.303171 0.915447
vn -0.328817 0.057969 0.942613
vn 0.951123 0.308808 0.001546
vn -0.264659 -0.303171 0.915447
vn -0.328817 0.057969 0.942613
vn 0.983455 -0.181154 0.000000
vn 0.951123 0.308808 0.001546
vn 0.951123 0.308808 0.001546
vn 0.467066 0.390107 -0.793515
vn 0.467541 0.399659 0.788466
vn 0.467066 0.390107 -0.793515
vn -0.264001 -0.307191 -0.914296
vn -0.177424 -0.543451 -0.820477
vn -0.264001 -0.307191 -0.914296
vn -0.175537 -0.537017 0.825106
vn -0.177424 -0.543451 -0.820477
vn -0.264001 -0.307191 -0.914296
vn -0.264659 -0.303171 0.915447
vn -0.175537 -0.537017 0.825106
vn -0.264659 -0.303171 0.915447
vn 0.467541 0.399659 0.788466
vn -0.175537 -0.537017 0.825106
vn -0.264659 -0.303171 0.915447
vn 0.951123 0.308808 0.001546
vn 0.467541 0.399659 0.788466
vn -0.177424 -0.543451 -0.820477
vn 0.004779 -0.466055 0.884743
vn 0.027048 -0.471153 -0.881637
vn -0.177424 -0.543451 -0.820477
vn -0.175537 -0.537017 0.825106
vn 0.004779 -0.466055 0.884743
vn -0.779598 0.626278 -0.001675
vn 0.284758 -0.196522 -0.938239
vn -0.875972 0.482330 0.005595
vn -0.779598 0.626278 -0.001675
vn 0.027048 -0.471153 -0.881637
vn 0.284758 -0.196522 -0.938239
vn 0.027048 -0.471153 -0.881637
vn 0.291504 -0.168660 0.941583
vn 0.284758 -0.196522 -0.938239
vn 0.027048 -0.471153 -0.881637
vn 0.004779 -0.466055 0.884743
vn 0.291504 -0.168660 0.941583
vn 0.004779 -0.466055 0.884743
vn -0.875972 0.482330 0.005595
vn 0.291504 -0.168660 0.941583
vn 0.004779 -0.466055 0.884743
vn -0.779598 0.626278 -0.001675
vn -0.875972 0.482330 0.005595
vn -0.875972 0.482330 0.005595
vn 0.328817 0.057968 -0.942613
vn -0.983455 -0.181154 -0.000000
vn -0.875972 0.482330 0.005595
vn 0.284758 -0.196522 -0.938239
vn 0.328817 0.057968 -0.942613
vn 0.284758 -0.196522 -0.938239
vn 0.328816 0.057968 0.942613
vn 0.328817 0.057968 -0.942613
vn 0.284758 -0.196522 -0.938239
vn 0.291504 -0.168660 0.941583
vn 0.328816 0.057968 0.942613
vn 0.291504 -0.168660 0.941583
vn -0.983455 -0.181154 -0.000000
vn 0.328816 0.057968 0.942613
vn 0.291504 -0.168660 0.941583
vn -0.875972 0.482330 0.005595
vn -0.983455 -0.181154 -0.000000
vn -0.983455 -0.181154 -0.000000
vn 0.218268 0.261474 -0.940208
vn -0.625554 -0.780181 -0.000001
vn -0.983455 -0.181154 -0.000000
vn 0.328817 0.057968 -0.942613
vn 0.218268 0.261474 -0.940208
vn 0.328817 0.057968 -0.942613
vn 0.218268 0.261474 0.940208
vn 0.218268 0.261474 -0.940208
vn 0.328817 0.057968 -0.942613
vn 0.328816 0.057968 0.942613
vn 0.218268 0.261474 0.940208
vn 0.328816 0.057968 0.942613
vn -0.625554 -0.780181 -0.000001
vn 0.218268 0.261474 0.940208
vn 0.328816 0.057968 0.942613
vn -0.983455 -0.181154 -0.000000
vn -0.625554 -0.780181 -0.000001
vn -0.625554 -0.780181 -0.000001
vn -0.000000 0.344449 -0.938805
vn 0.000000 -1.000000 -0.000000
vn -0.625554 -0.780181 -0.000001
vn 0.218268 0.261474 -0.940208
vn -0.000000 0.344449 -0.938805
vn 0.218268 0.261474 -0.940208
vn -0.000000 0.344449 0.938805
vn -0.000000 0.344449 -0.938805
vn 0.218268 0.261474 -0.940208
vn 0.218268 0.261474 0.940208
vn -0.000000 0.344449 0.938805
vn 0.218268 0.261474 0.940208
vn 0.000000 -1.000000 -0.000000
vn -0.000000 0.344449 0.938805
vn 0.218268 0.261474 0.940208
vn -0.625554 -0.780181 -0.000001
vn 0.000000 -1.000000 -0.000000
vn 0.000000 -1.000000 -0.000000
vn -0.218269 0.261474 -0.940208
vn 0.625554 -0.780181 0.000000
vn 0.000000 -1.000000 -0.000000
vn -0.000000 0.344449 -0.938805
vn -0.218269 0.261474 -0.940208
vn -0.000000 0.344449 -0.938805
vn -0.218268 0.261474 0.940207
vn -0.218269 0.261474 -0.940208
vn -0.000000 0.344449 -0.938805
vn -0.000000 0.344449 0.938805
vn -0.218268 0.261474 0.940207
vn -0.000000 0.344449 0.938805
vn 0.625554 -0.780181 0.000000
vn -0.218268 0.261474 0.940207
vn -0.000000 0.344449 0.938805
vn 0.000000 -1.000000 -0.000000
vn 0.625554 -0.780181 0.000000
vn 0.625554 -0.780181 0.000000
vn -0.328817 0.057968 -0.942613
vn 0.983455 -0.181154 0.000000
vn 0.625554 -0.780181 0.000000
vn -0.218269 0.261474 -0.940208
vn -0.328817 0.057968 -0.942613
vn -0.218269 0.261474 -0.940208
vn -0.328817 0.057969 0.942613
vn -0.328817 0.057968 -0.942613
vn -0.218269 0.261474 -0.940208
vn -0.218268 0.261474 0.940207
vn -0.328817 0.057969 0.942613
vn -0.218268 0.261474 0.940207
vn 0.983455 -0.181154 0.000000
vn -0.328817 0.057969 0.942613
vn -0.218268 0.261474 0.940207
vn 0.625554 -0.780181 0.000000
vn 0.983455 -0.181154 0.000000
vn -0.779598 0.626278 -0.001675
vn -0.167118 0.158525 -0.973109
vn 0.027048 -0.471153 -0.881637
vn 0.004779 -0.466055 0.884743
vn -0.175537 -0.537017 0.825106
vn -0.167126 0.172420 0.970742
vn -0.167126 0.172420 0.970742
vn -0.779598 0.626278 -0.001675
vn 0.004779 -0.466055 0.884743
vn 0.467541 0.399659 0.788466
vn -0.167126 0.172420 0.970742
vn -0.175537 -0.537017 0.825106
vn -0.177424 -0.543451 -0.820477
vn 0.027048 -0.471153 -0.881637
vn -0.167118 0.158525 -0.973109
vn -0.167118 0.158525 -0.973109
vn 0.467066 0.390107 -0.793515
vn -0.177424 -0.543451 -0.820477
vn 0.951123 0.308808 0.001546
vn -0.264001 -0.307191 -0.914296
vn 0.467066 0.390107 -0.793515
vn 0.973901 -0.226823 0.008264
vn 0.419478 -0.187209 0.888252
vn 0.973730 -0.227466 0.010420
vn 0.973901 -0.226823 0.008264
vn 0.448847 -0.193323 0.872446
vn 0.419478 -0.187209 0.888252
vn 0.448847 -0.193323 0.872446
vn -0.416532 -0.188969 0.889265
vn 0.419478 -0.187209 0.888252
vn 0.448847 -0.193323 0.872446
vn -0.443909 -0.186934 0.876356
vn -0.416532 -0.188969 0.889265
vn -0.443909 -0.186934 0.876356
vn -0.974168 -0.225824 0.000926
vn -0.416532 -0.188969 0.889265
vn -0.443909 -0.186934 0.876356
vn -0.973865 -0.227115 0.002288
vn -0.974168 -0.225824 0.000926
vn -0.973865 -0.227115 0.002288
vn -0.422333 -0.187546 -0.886827
vn -0.974168 -0.225824 0.000926
vn -0.973865 -0.227115 0.002288
vn -0.454149 -0.194197 -0.869504
vn -0.422333 -0.187546 -0.886827
vn -0.454149 -0.194197 -0.869504
vn 0.417164 -0.192349 -0.888243
vn -0.422333 -0.187546 -0.886827
vn -0.454149 -0.194197 -0.869504
vn 0.451220 -0.189505 -0.872060
vn 0.417164 -0.192349 -0.888243
vn 0.451220 -0.189505 -0.872060
vn 0.973730 -0.227466 0.010420
vn 0.417164 -0.192349 -0.888243
vn 0.451220 -0.189505 -0.872060
vn 0.973901 -0.226823 0.008264
vn 0.973730 -0.227466 0.010420
vn 0.000001 -1.000000 -0.000028
vn -0.000047 -1.000000 -0.000034
vn -0.000010 -1.000000 -0.000025
vn 0.000001 -1.000000 -0.000028
vn -0.000010 -1.000000 -0.000025
vn 0.000010 -1.000000 -0.000020
vn 0.000023 -1.000000 0.000001
vn 0.000010 -1.000000 -0.000020
vn 0.000028 -1.000000 -0.000000
vn 0.000023 -1.000000 0.000001
vn 0.000028 -1.000000 -0.000000
vn 0.000010 -1.000000 0.000020
vn 0.000001 -1.000000 0.000028
vn 0.000010 -1.000000 0.000020
vn -0.000010 -1.000000 0.000024
vn -0.000050 -1.000000 0.000035
vn -0.000010 -1.000000 0.000024
vn -0.000044 -1.000000 -0.000000
vn -0.529855 0.287776 -0.797771
vn -0.588439 0.366956 -0.720474
vn -0.662630 0.317392 -0.678368
vn -0.461427 0.183419 -0.868011
vn -0.588439 0.366956 -0.720474
vn -0.529855 0.287776 -0.797771
vn -0.315568 0.006908 -0.948878
vn -0.354294 0.003207 -0.935129
vn -0.313707 -0.000921 -0.949519
vn -0.354294 0.003207 -0.935129
vn -0.315568 0.006908 -0.948878
vn -0.410315 0.024500 -0.911615
vn -0.315568 0.006908 -0.948878
vn -0.313707 -0.000921 -0.949519
vn -0.267352 0.022081 -0.963346
vn -0.315568 0.006908 -0.948878
vn -0.173161 0.031012 -0.984405
vn -0.167844 0.031455 -0.985312
vn -0.410315 0.024500 -0.911615
vn -0.420224 0.047290 -0.906187
vn -0.354294 0.003207 -0.935129
vn -0.420224 0.047290 -0.906187
vn -0.410315 0.024500 -0.911615
vn -0.529855 0.287776 -0.797771
vn -0.410315 0.024500 -0.911615
vn -0.461427 0.183419 -0.868011
vn -0.529855 0.287776 -0.797771
vn 0.000000 0.094435 -0.995531
vn -0.000000 0.156179 -0.987729
vn -0.000000 0.156180 -0.987729
vn -0.000000 0.156180 -0.987729
vn 0.000000 0.094435 -0.995531
vn 0.000000 0.094435 -0.995531
vn 0.000000 0.000000 -1.000000
vn 0.000000 0.094435 -0.995531
vn 0.000000 0.094435 -0.995531
vn -0.315568 0.006908 -0.948878
vn -0.267352 0.022081 -0.963346
vn -0.173161 0.031012 -0.984405
vn 0.529855 0.287776 -0.797771
vn 0.662630 0.317392 -0.678368
vn 0.588439 0.366956 -0.720474
vn 0.461427 0.183419 -0.868011
vn 0.529855 0.287776 -0.797771
vn 0.588439 0.366956 -0.720474
vn 0.315568 0.006908 -0.948878
vn 0.313707 -0.000921 -0.949519
vn 0.354294 0.003207 -0.935129
vn 0.354294 0.003207 -0.935129
vn 0.410315 0.024501 -0.911615
vn 0.315568 0.006908 -0.948878
vn 0.315568 0.006908 -0.948878
vn 0.267352 0.022081 -0.963346
vn 0.313707 -0.000921 -0.949519
vn 0.315568 0.006908 -0.948878
vn 0.167844 0.031455 -0.985312
vn 0.173161 0.031012 -0.984405
vn 0.410315 0.024501 -0.911615
vn 0.354294 0.003207 -0.935129
vn 0.420224 0.047290 -0.906187
vn 0.420224 0.047290 -0.906187
vn 0.529855 0.287776 -0.797771
vn 0.410315 0.024501 -0.911615
vn 0.410315 0.024501 -0.911615
vn 0.529855 0.287776 -0.797771
vn 0.461427 0.183419 -0.868011
vn 0.315568 0.006908 -0.948878
vn 0.173161 0.031012 -0.984405
vn 0.267352 0.022081 -0.963346
vn -0.529807 0.287762 0.797808
vn -0.662596 0.317376 0.678409
vn -0.588404 0.366935 0.720514
vn -0.461372 0.183402 0.868043
vn -0.529807 0.287762 0.797808
vn -0.588404 0.366935 0.720514
vn -0.315515 0.006906 0.948896
vn -0.313654 -0.000921 0.949537
vn -0.354240 0.003207 0.935149
vn -0.354240 0.003207 0.935149
vn -0.410260 0.024497 0.911639
vn -0.315515 0.006906 0.948896
vn -0.315515 0.006906 0.948896
vn -0.267305 0.022077 0.963359
vn -0.313654 -0.000921 0.949537
vn -0.315515 0.006906 0.948896
vn -0.167813 0.031449 0.985317
vn -0.173130 0.031006 0.984411
vn -0.410260 0.024497 0.911639
vn -0.354240 0.003207 0.935149
vn -0.420169 0.047284 0.906213
vn -0.420169 0.047284 0.906213
vn -0.529807 0.287762 0.797808
vn -0.410260 0.024497 0.911639
vn -0.410260 0.024497 0.911639
vn -0.529807 0.287762 0.797808
vn -0.461372 0.183402 0.868043
vn -0.000000 0.094435 0.995531
vn -0.000000 0.156179 0.987729
vn -0.000000 0.156179 0.987729
vn -0.000000 0.156179 0.987729
vn -0.000000 0.094435 0.995531
vn 0.000000 0.094434 0.995531
vn -0.000000 -0.000000 1.000000
vn 0.000000 0.094434 0.995531
vn -0.000000 0.094435 0.995531
vn -0.315515 0.006906 0.948896
vn -0.173130 0.031006 0.984411
vn -0.267305 0.022077 0.963359
vn 0.529807 0.287762 0.797808
vn 0.588403 0.366935 0.720514
vn 0.662596 0.317376 0.678410
vn 0.461372 0.183402 0.868044
vn 0.588403 0.366935 0.720514
vn 0.529807 0.287762 0.797808
vn 0.315515 0.006906 0.948895
vn 0.354240 0.003207 0.935149
vn 0.313654 -0.000921 0.949537
vn 0.354240 0.003207 0.935149
vn 0.315515 0.006906 0.948895
vn 0.410260 0.024497 0.911640
vn 0.315515 0.006906 0.948895
vn 0.313654 -0.000921 0.949537
vn 0.267305 0.022077 0.963359
vn 0.315515 0.006906 0.948895
vn 0.173130 0.031006 0.984411
vn 0.167813 0.031449 0.985317
vn 0.410260 0.024497 0.911640
vn 0.420169 0.047284 0.906213
vn 0.354240 0.003207 0.935149
vn 0.420169 0.047284 0.906213
vn 0.410260 0.024497 0.911640
vn 0.529807 0.287762 0.797808
vn 0.410260 0.024497 0.911640
vn 0.461372 0.183402 0.868044
vn 0.529807 0.287762 0.797808
vn 0.315515 0.006906 0.948895
vn 0.267305 0.022077 0.963359
vn 0.173130 0.031006 0.984411
vn 0.011921 -0.999878 0.010127
vn 0.011921 -0.999878 0.010127
vn 0.011921 -0.999878 0.010127
vn -0.011733 -0.999882 -0.009938
vn -0.011733 -0.999882 -0.009938
vn -0.011733 -0.999882 -0.009938
vn 0.000001 -0.999944 0.010581
vn 0.000001 -0.999944 0.010581
vn 0.000001 -0.999944 0.010581
vn -0.000000 -0.999942 -0.010732
vn -0.000000 -0.999942 -0.010732
vn -0.000000 -0.999942 -0.010732
vn -0.000000 -0.999942 -0.010732
vn -0.000000 -0.999942 -0.010732
vn -0.000000 -0.999942 -0.010732
vn 0.012056 -0.999875 -0.010267
vn 0.012056 -0.999875 -0.010267
vn 0.012056 -0.999875 -0.010267
vn -0.000000 -0.999944 0.010580
vn -0.000000 -0.999944 0.010580
vn -0.000000 -0.999944 0.010580
vn -0.011607 -0.999885 0.009806
vn -0.011607 -0.999885 0.009806
vn -0.011607 -0.999885 0.009806
vn -0.000047 -1.000000 -0.000034
vn -0.000050 -1.000000 0.000035
vn -0.000044 -1.000000 -0.000000
vn 0.000023 -1.000000 0.000001
vn 0.000010 -1.000000 0.000020
vn 0.000001 -1.000000 0.000028
vn 0.000023 -1.000000 0.000001
vn 0.000001 -1.000000 -0.000028
vn 0.000010 -1.000000 -0.000020
vn 0.000001 -1.000000 0.000028
vn -0.000010 -1.000000 0.000024
vn -0.000050 -1.000000 0.000035
vn -0.000047 -1.000000 -0.000034
vn -0.000044 -1.000000 -0.000000
vn -0.000010 -1.000000 -0.000025
vn 0.000000 0.094435 -0.995531
vn -0.000000 0.156180 -0.987729
vn -0.000000 0.156180 -0.987729
vn 0.000000 0.094435 -0.995531
vn -0.000000 0.156180 -0.987729
vn -0.000000 0.156180 -0.987729
vn -0.000000 0.094435 0.995531
vn -0.000000 0.156179 0.987729
vn -0.000000 0.156179 0.987729
vn -0.000000 0.094435 0.995531
vn -0.000000 0.156179 0.987729
vn -0.000000 0.156179 0.987729
s off
g Zo_Wea_Epee2M
usemtl Zo_Wea_Epee2MSG
f 3/1/1 9/2/2 8/3/3
f 3/1/4 4/4/5 9/2/6
f 4/4/7 10/5/8 9/2/9
f 4/4/10 5/6/11 10/5/12
f 5/6/13 2/7/14 10/5/15
f 5/6/16 6/8/17 2/7/18
f 6/8/19 1/11/20 2/7/21
f 6/8/22 7/12/23 1/13/24
f 7/10/25 8/3/26 1/9/27
f 7/10/28 3/1/29 8/3/30
usemtl Zo_Wea_Epee2MSG2
f 11/71/31 15/72/32 14/73/33
f 11/71/34 12/74/35 15/72/36
f 12/74/37 16/75/38 15/72/39
f 12/74/40 13/76/41 16/75/42
f 13/76/43 14/73/44 16/75/45
f 13/76/46 11/71/47 14/73/48
f 14/73/49 7/77/50 6/78/51
f 7/77/52 15/72/53 17/79/54
f 15/72/55 18/80/56 17/79/57
f 15/72/58 16/75/59 18/80/60
f 16/75/61 6/78/62 18/80/63
f 16/75/64 14/73/65 6/78/66
f 17/79/67 20/81/68 19/82/69
f 17/79/70 18/80/71 20/81/72
f 4/83/73 22/84/74 21/85/75
f 4/83/76 19/82/77 22/84/78
f 19/82/79 23/86/80 22/84/81
f 19/82/82 20/81/83 23/86/84
f 20/81/85 21/85/86 23/86/87
f 20/81/88 4/83/89 21/85/90
f 21/85/91 25/87/92 24/88/93
f 21/85/94 22/84/95 25/87/96
f 22/84/97 26/89/98 25/87/99
f 22/84/100 23/86/101 26/89/102
f 23/86/103 24/88/104 26/89/105
f 23/86/106 21/85/107 24/88/108
f 24/88/109 28/90/110 27/91/111
f 24/88/112 25/87/113 28/90/114
f 25/87/115 29/92/116 28/90/117
f 25/87/118 26/89/119 29/92/120
f 26/89/121 27/91/122 29/92/123
f 26/89/124 24/88/125 27/91/126
f 27/91/127 31/93/128 30/94/129
f 27/91/130 28/90/131 31/93/132
f 28/90/133 32/95/134 31/93/135
f 28/90/136 29/92/137 32/95/138
f 29/92/139 30/94/140 32/95/141
f 29/92/142 27/91/143 30/94/144
f 30/94/145 34/96/146 33/97/147
f 30/94/148 31/93/149 34/96/150
f 31/93/151 35/98/152 34/96/153
f 31/93/154 32/95/155 35/98/156
f 32/95/157 33/97/158 35/98/159
f 32/95/160 30/94/161 33/97/162
f 33/97/163 12/74/164 11/71/165
f 33/97/166 34/96/167 12/74/168
f 34/96/169 13/76/170 12/74/171
f 34/96/172 35/98/173 13/76/174
f 35/98/175 11/71/176 13/76/177
f 35/98/178 33/97/179 11/71/180
f 4/83/181 3/99/182 19/82/183
f 20/81/184 18/80/185 5/100/186
f 5/100/187 4/83/188 20/81/189
f 6/78/190 5/100/191 18/80/192
f 17/79/193 19/82/194 3/99/195
f 3/99/196 7/77/197 17/79/198
f 14/73/199 15/72/200 7/77/201
usemtl Zo_Wea_Epee2MSG3
f 36/14/202 43/15/203 42/16/204
f 36/14/205 37/17/206 43/15/207
f 37/17/208 44/18/209 43/15/210
f 37/17/211 38/19/212 44/18/213
f 38/19/214 45/20/215 44/18/216
f 38/19/217 39/21/218 45/20/219
f 39/21/220 46/22/221 45/20/222
f 39/21/223 40/23/224 46/22/225
f 40/23/226 47/24/227 46/22/228
f 40/23/229 41/25/230 47/24/231
f 41/26/232 42/16/233 47/27/234
f 41/28/235 36/14/236 42/16/237
f 10/29/238 2/30/239 43/31/240
f 10/29/241 43/31/242 44/32/243
f 9/33/244 44/32/245 45/34/246
f 9/33/247 45/34/248 46/35/249
f 8/36/250 46/35/251 47/37/252
f 1/38/253 47/37/254 42/39/255
usemtl Zo_Wea_Epee2MSG2
f 57/40/256 50/41/257 48/42/258
f 58/43/259 50/41/260 57/40/261
f 54/44/262 56/45/263 52/46/264
f 56/45/265 54/44/266 51/47/267
f 54/44/268 52/46/269 53/48/270
f 54/44/271 61/49/272 55/50/273
f 51/47/274 49/51/275 56/45/276
f 49/51/277 51/47/278 57/40/279
f 51/47/280 58/43/281 57/40/282
f 59/52/283 60/53/284 41/54/285
f 50/41/286 58/43/287 59/52/288
f 51/47/289 59/52/290 58/43/291
f 54/44/292 53/48/293 61/49/294
f 67/55/295 62/56/296 60/53/297
f 59/52/298 67/55/299 60/53/300
f 54/44/301 64/57/302 66/58/303
f 66/58/304 51/47/305 54/44/306
f 54/44/307 65/59/308 64/57/309
f 54/44/310 55/50/311 68/60/312
f 51/47/313 66/58/314 63/61/315
f 63/61/316 67/55/317 51/47/318
f 51/47/319 67/55/320 59/52/321
f 54/44/322 68/60/323 65/59/324
f 57/40/325 48/42/326 69/62/327
f 72/63/328 57/40/329 69/62/330
f 71/64/331 52/46/332 56/45/333
f 56/45/334 70/65/335 71/64/336
f 71/64/337 53/48/338 52/46/339
f 71/64/340 55/50/341 61/49/342
f 70/65/343 56/45/344 49/51/345
f 49/51/346 57/40/347 70/65/348
f 70/65/349 57/40/350 72/63/351
f 73/66/352 69/62/353 38/67/354
f 69/62/355 73/66/356 72/63/357
f 70/65/358 72/63/359 73/66/360
f 71/64/361 61/49/362 53/48/363
f 67/55/364 74/68/365 62/56/366
f 73/66/367 74/68/368 67/55/369
f 71/64/370 66/58/371 64/57/372
f 66/58/373 71/64/374 70/65/375
f 71/64/376 64/57/377 65/59/378
f 71/64/379 68/60/380 55/50/381
f 70/65/382 63/61/383 66/58/384
f 63/61/385 70/65/386 67/55/387
f 70/65/388 73/66/389 67/55/390
f 71/64/391 65/59/392 68/60/393
f 39/101/394 48/102/395 50/103/396
f 74/104/397 36/105/398 62/106/399
f 39/101/400 50/103/401 40/107/402
f 74/104/403 37/108/404 36/105/405
f 69/109/406 39/101/407 38/110/408
f 69/109/409 48/102/410 39/101/411
f 36/105/412 41/111/413 60/112/414
f 36/105/415 60/112/416 62/106/417
usemtl Zo_Wea_Epee2MSG3
f 2/30/418 1/38/419 42/39/420
f 9/33/421 46/35/422 8/36/423
f 9/33/424 10/29/425 44/32/426
f 8/36/427 47/37/428 1/38/429
f 2/30/430 42/39/431 43/31/432
usemtl Zo_Wea_Epee2MSG2
f 59/52/433 41/54/434 40/69/435
f 59/52/436 40/69/437 50/41/438
f 73/66/439 37/70/440 74/68/441
f 73/66/442 38/67/443 37/70/444
