# This file uses meters as units for non-parametric coordinates.

mtllib zo_wea_baton_trail.max.fobj.mtl
g default
v 0.656352 2.002376 -2.020044
v 2.124000 2.002376 0.000000
v -1.718352 2.002376 -1.248456
v -1.718352 2.002376 1.248456
v 0.656352 2.002376 2.020044
v 2.224188 6.582275 -0.000000
v 0.687312 6.582275 -2.115330
v -1.799406 6.582275 -1.307346
v -1.799406 6.582275 1.307345
v 0.687312 6.582275 2.115328
v 2.357640 32.187858 0.000000
v 0.728551 32.187858 -2.242248
v -1.907371 32.187858 -1.385785
v -1.907371 32.187855 1.385787
v 0.728551 32.187855 2.242249
v 2.124000 36.514002 0.000000
v 0.656352 36.514002 -2.020044
v -1.718352 36.514002 -1.248456
v -1.718352 36.514002 1.248456
v 0.656352 36.514002 2.020044
v 1.388060 36.585239 0.000002
v -0.000000 36.585239 -1.388058
v -1.388060 36.585239 0.000002
v 0.000000 36.585239 1.388061
v 1.388060 65.292728 0.000002
v -0.000000 65.292728 -1.388057
v -1.388060 65.292728 0.000002
v 0.000000 65.292728 1.388062
v 1.388060 67.577940 0.000002
v -0.000000 67.577946 -1.388058
v -1.388060 67.577940 0.000002
v 0.000000 67.577940 1.388062
v 1.388060 70.071232 0.000002
v -0.000000 70.071232 -1.388058
v -1.388060 70.071232 0.000002
v 0.000000 70.071232 1.388061
v 2.031716 65.292728 0.000002
v -0.000000 65.292728 -2.031714
v -2.031717 65.292728 0.000002
v 0.000000 65.292728 2.031719
v 2.031716 67.577940 0.000002
v -0.000000 67.577946 -2.031714
v -2.031717 67.577940 0.000002
v 0.000000 67.577940 2.031718
v 1.573000 6.906838 -0.000000
v 0.486084 6.906838 -1.496012
v -1.272584 6.906838 -0.924586
v -1.272584 6.906838 0.924586
v 0.486084 6.906838 1.496011
v 1.573000 31.543162 0.000000
v 0.486084 31.543162 -1.496011
v -1.272584 31.543162 -0.924586
v -1.272584 31.543157 0.924587
v 0.486084 31.543157 1.496012
v -0.461543 2.001045 -1.044428
v 1.225035 2.001045 -0.280261
v -1.188769 2.001045 0.660401
v 0.324533 2.001045 1.356425
v -0.461543 -0.012026 -1.044428
v 1.225035 -0.012026 -0.280260
v -1.188769 -0.012026 0.660401
v 0.324533 -0.012026 1.356425
vt 0.750000 0.000499
vt 1.000000 0.999501
vt 0.750000 0.999501
vt 1.000000 0.000499
vt 0.250000 0.999501
vt 0.250000 0.000499
vt 0.500000 0.999501
vt 0.500000 0.000499
vt -0.000000 0.000499
vt -0.000000 0.999501
vt -0.000000 0.000499
vt 0.750000 0.000500
vt 0.964850 0.999501
vt 0.750000 0.999501
vt 0.964850 0.000500
vt 0.158285 0.999501
vt 0.158285 0.000500
vt 0.341715 0.999500
vt 0.341715 0.000500
vt 0.535150 0.999500
vt 0.535150 0.000500
vt -0.035150 0.000500
vt -0.035150 0.999501
vt -0.035150 0.000500
vt 0.750000 0.590689
vt 1.000000 0.667415
vt 0.750000 0.667415
vt 1.000000 0.590689
vt 0.250000 0.667415
vt 0.250000 0.590689
vt 0.500000 0.667415
vt 0.500000 0.590689
vt -0.000000 0.590689
vt -0.000000 0.667415
vt -0.000000 0.590689
vt 0.458333 0.572974
vt 0.708333 0.641625
vt 0.458333 0.641625
vt 0.708333 0.572974
vt 0.958333 0.641625
vt 0.958333 0.572974
vt 0.208333 0.641625
vt 0.208333 0.572974
vt -0.041667 0.572974
vt -0.041667 0.641625
vt -0.041667 0.572974
vt 2.253968 0.086614
vt 2.888889 0.842520
vt 2.253968 0.842520
vt 2.888889 0.086614
vt 0.476190 0.842520
vt 0.476190 0.086614
vt 1.031746 0.842520
vt 1.031746 0.086614
vt 1.603175 0.842520
vt 1.603175 0.086614
vt 2.920635 0.905512
vt 2.253968 0.905512
vt 0.476190 0.905512
vt 1.015873 0.905512
vt 1.587302 0.905512
vt -0.095238 0.086614
vt -0.095238 0.842520
vt -0.095238 0.086614
vt -0.095238 0.842520
vt -0.079365 0.905512
vt -0.095238 0.842520
vt 2.253968 0.834646
vt 2.904762 0.086614
vt 2.253968 0.086614
vt 2.888889 0.834646
vt 0.476190 0.086614
vt 0.476190 0.834646
vt 1.015873 0.086614
vt 1.031746 0.834646
vt 1.603175 0.086614
vt 1.603175 0.834646
vt 2.253968 0.881890
vt 2.920635 0.881890
vt 0.492063 0.881890
vt 1.015873 0.881890
vt 1.587302 0.881890
vt -0.095238 0.834646
vt -0.095238 0.086614
vt -0.095238 0.834646
vt -0.095238 0.834646
vt -0.079365 0.881890
vt -0.079365 0.881890
vt 0.060503 0.476600
vt 0.805204 0.476600
vt 0.313004 0.476600
vt 0.539774 0.476600
vt 0.060503 0.523400
vt 0.805204 0.523400
vt 0.313004 0.523400
vt 0.539774 0.523400
vt -0.194796 0.523400
vt -0.194796 0.476600
vt -0.194796 0.476600
vt 0.952381 0.752941
vt 1.222222 0.627451
vt 0.825397 0.474510
vt 1.079365 0.356863
vt 0.126984 0.615686
vt 0.349206 0.388235
vt 0.238095 0.721569
vt -0.158730 0.596078
vt -0.095238 0.388235
vt -0.158730 0.184314
vt 0.126984 0.160784
vt 0.238095 0.058824
vt 0.476190 0.388235
vt 0.263048 0.498811
vt 0.718149 0.498811
vt 0.490599 0.726362
vt 0.490599 0.271261
vt 0.650794 0.447059
vt 0.428571 0.674510
vt 0.428571 0.780392
vt 0.761905 0.447059
vt 0.206349 0.447059
vt 0.095238 0.447059
vt 0.428571 0.219608
vt 0.428571 0.113725
vt 0.490599 0.726362
vt 0.718149 0.498811
vt 0.823667 0.498811
vt 0.490599 0.831880
vt 0.263048 0.498811
vt 0.157530 0.498811
vt 0.490599 0.271261
vt 0.490599 0.165743
vt 0.571429 0.968627
vt 0.809524 0.635294
vt 0.666667 0.682353
vt 0.380952 0.807843
vt 0.174603 0.843137
vt 0.174603 0.431373
vt 0.269841 0.529412
vt 0.571429 0.305882
vt 0.507937 0.415686
vn -0.296384 -0.576191 -0.761683
vn 0.777391 -0.573380 -0.258647
vn -0.760777 -0.578831 0.293552
vn -0.760777 -0.578831 0.293552
vn 0.777391 -0.573380 -0.258647
vn 0.254706 -0.581226 0.772852
vn 0.808890 -0.017695 -0.587693
vn 0.808890 -0.017695 -0.587693
vn 0.808890 -0.017695 -0.587693
vn 0.808890 -0.017695 -0.587693
vn 0.808890 -0.017695 -0.587693
vn 0.808890 -0.017695 -0.587693
vn -0.308969 -0.017695 -0.950908
vn -0.308969 -0.017695 -0.950908
vn -0.308969 -0.017695 -0.950908
vn -0.308969 -0.017695 -0.950908
vn -0.308969 -0.017695 -0.950908
vn -0.308969 -0.017695 -0.950908
vn -0.999843 -0.017695 0.000000
vn -0.999843 -0.017695 0.000000
vn -0.999843 -0.017695 0.000000
vn -0.999843 -0.017695 0.000000
vn -0.999843 -0.017695 0.000000
vn -0.999843 -0.017695 0.000000
vn -0.308968 -0.017695 0.950908
vn -0.308968 -0.017695 0.950908
vn -0.308968 -0.017695 0.950908
vn -0.308968 -0.017695 0.950908
vn -0.308969 -0.017695 0.950908
vn -0.308968 -0.017695 0.950908
vn 0.808890 -0.017695 0.587693
vn 0.808890 -0.017695 0.587693
vn 0.808890 -0.017695 0.587693
vn 0.808890 -0.017695 0.587693
vn 0.808890 -0.017695 0.587693
vn 0.808890 -0.017695 0.587693
vn 1.000000 -0.000000 -0.000000
vn 0.082362 -0.351520 -0.932551
vn 1.000000 -0.000000 -0.000000
vn 1.000000 -0.000000 -0.000000
vn 0.309017 0.000000 -0.951057
vn 0.082362 -0.351520 -0.932551
vn 0.309017 0.000000 -0.951057
vn -0.614771 -0.351520 -0.706039
vn 0.082362 -0.351520 -0.932551
vn 0.309017 0.000000 -0.951057
vn -0.809017 0.000000 -0.587785
vn -0.614771 -0.351520 -0.706039
vn -0.809017 0.000000 -0.587785
vn -0.614772 -0.351518 0.706038
vn -0.614771 -0.351520 -0.706039
vn -0.809017 0.000000 -0.587785
vn -0.809017 -0.000000 0.587786
vn -0.614772 -0.351518 0.706038
vn -0.809017 -0.000000 0.587786
vn 0.082362 -0.351518 0.932551
vn -0.614772 -0.351518 0.706038
vn -0.809017 -0.000000 0.587786
vn 0.309017 -0.000000 0.951056
vn 0.082362 -0.351518 0.932551
vn 0.309017 -0.000000 0.951056
vn 1.000000 -0.000000 -0.000000
vn 0.082362 -0.351518 0.932551
vn 0.309017 -0.000000 0.951056
vn 1.000000 -0.000000 -0.000000
vn 1.000000 -0.000000 -0.000000
vn 0.808246 0.043651 -0.587225
vn 0.808246 0.043651 -0.587225
vn 0.808246 0.043651 -0.587225
vn 0.808246 0.043651 -0.587225
vn 0.808246 0.043650 -0.587225
vn 0.808246 0.043651 -0.587225
vn -0.308723 0.043650 -0.950150
vn -0.308723 0.043650 -0.950150
vn -0.308723 0.043650 -0.950150
vn -0.308723 0.043650 -0.950150
vn -0.308723 0.043650 -0.950150
vn -0.308723 0.043650 -0.950150
vn -0.999047 0.043651 0.000000
vn -0.999047 0.043651 0.000000
vn -0.999047 0.043651 0.000000
vn -0.999047 0.043651 0.000000
vn -0.999047 0.043651 0.000000
vn -0.999047 0.043651 0.000000
vn -0.308722 0.043651 0.950150
vn -0.308722 0.043651 0.950150
vn -0.308722 0.043651 0.950150
vn -0.308722 0.043651 0.950150
vn -0.308722 0.043651 0.950150
vn -0.308722 0.043651 0.950150
vn 0.808246 0.043651 0.587225
vn 0.808246 0.043651 0.587225
vn 0.808246 0.043651 0.587225
vn 0.808246 0.043651 0.587225
vn 0.808246 0.043651 0.587225
vn 0.808246 0.043651 0.587225
vn -0.016916 0.993522 -0.112376
vn 0.088673 0.996061 0.000000
vn 0.034786 0.995794 -0.084764
vn -0.016916 0.993522 -0.112376
vn 0.034786 0.995794 -0.084764
vn -0.069550 0.996105 -0.054200
vn -0.137689 0.990475 0.000000
vn -0.069550 0.996105 -0.054200
vn -0.069550 0.996105 0.054200
vn -0.016916 0.993522 0.112377
vn -0.069550 0.996105 0.054200
vn 0.034786 0.995794 0.084765
vn -0.016916 0.993522 0.112377
vn 0.034786 0.995794 0.084765
vn 0.088673 0.996061 0.000000
vn 0.088673 0.996061 0.000000
vn 0.034786 0.995794 0.084765
vn 0.096346 0.995348 -0.000000
vn 0.088673 0.996061 0.000000
vn 0.096346 0.995348 -0.000000
vn 0.034786 0.995794 -0.084764
vn -0.137689 0.990475 0.000000
vn -0.069550 0.996105 0.054200
vn -0.016916 0.993522 0.112377
vn -0.137689 0.990475 0.000000
vn -0.016916 0.993522 -0.112376
vn -0.069550 0.996105 -0.054200
vn 0.446079 0.894993 0.000000
vn 0.137846 0.894993 -0.424246
vn 0.137846 0.894994 -0.424246
vn 0.137846 0.894994 -0.424246
vn 0.446079 0.894993 -0.000000
vn 0.446079 0.894993 0.000000
vn 0.137846 0.894993 -0.424246
vn -0.360886 0.894993 -0.262199
vn -0.360886 0.894994 -0.262199
vn -0.360886 0.894994 -0.262199
vn 0.137846 0.894994 -0.424246
vn 0.137846 0.894993 -0.424246
vn -0.360886 0.894993 -0.262199
vn -0.360886 0.894993 0.262199
vn -0.360886 0.894993 0.262199
vn -0.360886 0.894993 0.262199
vn -0.360886 0.894994 -0.262199
vn -0.360886 0.894993 -0.262199
vn -0.360886 0.894993 0.262199
vn 0.137846 0.894993 0.424247
vn 0.137846 0.894993 0.424247
vn 0.137846 0.894993 0.424247
vn -0.360886 0.894993 0.262199
vn -0.360886 0.894993 0.262199
vn 0.137846 0.894993 0.424247
vn 0.446079 0.894993 0.000000
vn 0.446079 0.894993 -0.000000
vn 0.446079 0.894993 -0.000000
vn 0.137846 0.894993 0.424247
vn 0.137846 0.894993 0.424247
vn 0.576474 -0.701610 -0.418833
vn 0.576474 -0.701610 -0.418833
vn 0.576474 -0.701610 -0.418833
vn 0.576474 -0.701610 -0.418833
vn 0.576474 -0.701610 -0.418833
vn 0.576474 -0.701610 -0.418833
vn -0.220194 -0.701610 -0.677686
vn -0.220194 -0.701610 -0.677686
vn 0.082362 -0.351520 -0.932551
vn 0.082362 -0.351520 -0.932551
vn -0.614771 -0.351520 -0.706039
vn -0.220194 -0.701610 -0.677686
vn -0.712563 -0.701608 -0.000002
vn -0.712561 -0.701610 -0.000001
vn -0.712562 -0.701609 -0.000001
vn -0.712562 -0.701609 -0.000001
vn -0.712564 -0.701607 -0.000002
vn -0.712563 -0.701608 -0.000002
vn -0.220194 -0.701608 0.677688
vn -0.220194 -0.701608 0.677688
vn -0.614772 -0.351518 0.706038
vn -0.614772 -0.351518 0.706038
vn 0.082362 -0.351518 0.932551
vn -0.220194 -0.701608 0.677688
vn 0.576475 -0.701610 0.418832
vn 0.576476 -0.701608 0.418834
vn 0.576476 -0.701608 0.418833
vn 0.576476 -0.701608 0.418833
vn 0.576475 -0.701610 0.418831
vn 0.576475 -0.701610 0.418832
vn 1.000000 0.000000 -0.000000
vn 0.000000 0.000000 -1.000000
vn 1.000000 0.000000 0.000000
vn 1.000000 0.000000 -0.000000
vn -0.000000 0.000000 -1.000000
vn 0.000000 0.000000 -1.000000
vn -0.000000 0.000000 -1.000000
vn -1.000000 0.000000 -0.000000
vn 0.000000 0.000000 -1.000000
vn -0.000000 0.000000 -1.000000
vn -1.000000 -0.000000 0.000000
vn -1.000000 0.000000 -0.000000
vn -1.000000 -0.000000 0.000000
vn -0.000000 -0.000000 1.000000
vn -1.000000 0.000000 -0.000000
vn -1.000000 -0.000000 0.000000
vn 0.000000 -0.000000 1.000000
vn -0.000000 -0.000000 1.000000
vn 0.000000 -0.000000 1.000000
vn 1.000000 0.000000 0.000000
vn -0.000000 -0.000000 1.000000
vn 0.000000 -0.000000 1.000000
vn 1.000000 0.000000 -0.000000
vn 1.000000 0.000000 0.000000
vn 0.707107 -0.000000 -0.707107
vn 0.707107 -0.000000 -0.707107
vn 0.707107 -0.000000 -0.707107
vn 0.707107 -0.000000 -0.707107
vn 0.707107 -0.000000 -0.707107
vn 0.707107 -0.000000 -0.707107
vn -0.707107 -0.000000 -0.707107
vn -0.707107 -0.000000 -0.707107
vn -0.707107 -0.000000 -0.707107
vn -0.707107 -0.000000 -0.707107
vn -0.707107 -0.000000 -0.707107
vn -0.707107 -0.000000 -0.707107
vn -0.707107 0.000000 0.707107
vn -0.707107 0.000000 0.707107
vn -0.707107 0.000000 0.707107
vn -0.707107 0.000000 0.707107
vn -0.707107 0.000000 0.707107
vn -0.707107 0.000000 0.707107
vn 0.707107 0.000000 0.707107
vn 0.707107 0.000000 0.707107
vn 0.707107 0.000000 0.707107
vn 0.707107 0.000000 0.707107
vn 0.707107 0.000000 0.707107
vn 0.707107 0.000000 0.707107
vn 1.000000 -0.000000 0.000001
vn 0.000000 0.577350 -0.816497
vn 0.816497 0.577350 -0.000000
vn 1.000000 -0.000000 0.000001
vn -0.000000 -0.000000 -1.000000
vn 0.000000 0.577350 -0.816497
vn -0.000000 -0.000000 -1.000000
vn -0.816497 0.577350 0.000000
vn 0.000000 0.577350 -0.816497
vn -0.000000 -0.000000 -1.000000
vn -1.000000 -0.000000 0.000001
vn -0.816497 0.577350 0.000000
vn -1.000000 -0.000000 0.000001
vn 0.000000 0.577350 0.816497
vn -0.816497 0.577350 0.000000
vn -1.000000 -0.000000 0.000001
vn 0.000000 0.000000 1.000000
vn 0.000000 0.577350 0.816497
vn 0.000000 0.000000 1.000000
vn 0.816497 0.577350 -0.000000
vn 0.000000 0.577350 0.816497
vn 0.000000 0.000000 1.000000
vn 1.000000 -0.000000 0.000001
vn 0.816497 0.577350 -0.000000
vn -0.816497 0.577350 0.000000
vn 0.816497 0.577350 -0.000000
vn 0.000000 0.577350 -0.816497
vn -0.816497 0.577350 0.000000
vn 0.000000 0.577350 0.816497
vn 0.816497 0.577350 -0.000000
vn 0.000000 -1.000000 -0.000000
vn 0.000000 -1.000000 -0.000000
vn 0.000000 -1.000000 -0.000000
vn 0.000000 -1.000000 -0.000000
vn 0.000000 -1.000000 -0.000000
vn 0.000000 -1.000000 -0.000000
vn 0.000000 -1.000000 -0.000000
vn 0.000000 -1.000000 -0.000000
vn 0.000000 -1.000000 -0.000000
vn 0.000000 -1.000000 -0.000000
vn 0.000000 -1.000000 -0.000000
vn 0.000000 -1.000000 -0.000000
vn 0.000000 -1.000000 -0.000000
vn 0.000000 -1.000000 -0.000000
vn 0.000000 -1.000000 -0.000000
vn 0.000000 -1.000000 -0.000000
vn 0.000000 -1.000000 -0.000000
vn 0.000000 -1.000000 -0.000000
vn 0.000000 -1.000000 -0.000000
vn 0.000000 -1.000000 -0.000000
vn 0.000000 -1.000000 -0.000000
vn 0.000000 -1.000000 -0.000000
vn 0.000000 -1.000000 -0.000000
vn 0.000000 -1.000000 -0.000000
vn -0.000001 1.000000 0.000000
vn 0.000000 1.000000 0.000002
vn 0.000000 1.000000 0.000002
vn 0.000000 1.000000 0.000002
vn -0.000000 1.000000 0.000000
vn -0.000001 1.000000 0.000000
vn -0.000000 1.000000 0.000001
vn -0.000001 1.000000 0.000000
vn -0.000000 1.000000 0.000000
vn -0.000000 1.000000 0.000000
vn -0.000000 1.000000 0.000001
vn -0.000000 1.000000 0.000001
vn 0.000000 1.000000 0.000000
vn -0.000000 1.000000 0.000001
vn -0.000000 1.000000 0.000001
vn -0.000000 1.000000 0.000001
vn 0.000000 1.000000 0.000000
vn 0.000000 1.000000 0.000000
vn 0.000000 1.000000 0.000002
vn 0.000000 1.000000 0.000000
vn 0.000000 1.000000 0.000000
vn 0.000000 1.000000 0.000000
vn 0.000000 1.000000 0.000002
vn 0.000000 1.000000 0.000002
vn 0.000419 -0.999999 -0.001253
vn 0.001543 -0.999999 0.000064
vn 0.001413 -0.999999 -0.000534
vn 0.001413 -0.999999 -0.000534
vn -0.000614 -0.999999 -0.001298
vn 0.000419 -0.999999 -0.001253
vn -0.000970 -0.999999 -0.000548
vn 0.000419 -0.999999 -0.001253
vn -0.000614 -0.999999 -0.001298
vn -0.001217 -0.999999 0.000820
vn -0.000970 -0.999999 -0.000548
vn -0.000614 -0.999999 -0.001298
vn -0.000614 -0.999999 -0.001298
vn -0.003121 -0.999995 -0.000485
vn -0.001217 -0.999999 0.000820
vn 0.001543 -0.999999 0.000064
vn 0.000550 -0.999999 0.001639
vn 0.000096 -0.999998 0.001896
vn 0.000096 -0.999998 0.001896
vn 0.001413 -0.999999 -0.000534
vn 0.001543 -0.999999 0.000064
vn 0.000550 -0.999999 0.001639
vn -0.001217 -0.999999 0.000820
vn -0.003121 -0.999995 -0.000485
vn -0.003121 -0.999995 -0.000485
vn 0.000096 -0.999998 0.001896
vn 0.000550 -0.999999 0.001639
vn -0.362631 -0.000000 -0.931933
vn 0.948860 -0.000000 -0.315697
vn 0.777391 -0.573380 -0.258647
vn 0.777391 -0.573380 -0.258647
vn -0.296384 -0.576191 -0.761683
vn -0.362631 -0.000000 -0.931933
vn -0.932957 0.000000 0.359988
vn -0.362631 -0.000000 -0.931933
vn -0.296384 -0.576191 -0.761683
vn -0.296384 -0.576191 -0.761683
vn -0.760777 -0.578831 0.293552
vn -0.932957 0.000000 0.359988
vn 0.948860 -0.000000 -0.315697
vn 0.313006 0.000000 0.949751
vn 0.254706 -0.581226 0.772852
vn 0.254706 -0.581226 0.772852
vn 0.777391 -0.573380 -0.258647
vn 0.948860 -0.000000 -0.315697
vn 0.313006 0.000000 0.949751
vn -0.932957 0.000000 0.359988
vn -0.760777 -0.578831 0.293552
vn -0.760777 -0.578831 0.293552
vn 0.254706 -0.581226 0.772852
vn 0.313006 0.000000 0.949751
s off
g Zo_Wea_Baton
usemtl Zo_Wea_BatonSG1
f 59/100/1 60/101/2 61/102/3
f 61/102/4 60/101/5 62/103/6
usemtl Zo_Wea_BatonSG2
f 2/47/7 7/48/8 6/49/9
f 2/47/10 1/50/11 7/48/12
f 1/62/13 8/51/14 7/63/15
f 1/64/16 3/52/17 8/51/18
f 3/52/19 9/53/20 8/51/21
f 3/52/22 4/54/23 9/53/24
f 4/54/25 10/55/26 9/53/27
f 4/54/28 5/56/29 10/55/30
f 5/56/31 6/49/32 10/55/33
f 5/56/34 2/47/35 6/49/36
usemtl Zo_Wea_BatonSG
f 45/12/37 51/13/38 50/14/39
f 45/12/40 46/15/41 51/13/42
f 46/22/43 52/16/44 51/23/45
f 46/24/46 47/17/47 52/16/48
f 47/17/49 53/18/50 52/16/51
f 47/17/52 48/19/53 53/18/54
f 48/19/55 54/20/56 53/18/57
f 48/19/58 49/21/59 54/20/60
f 49/21/61 50/14/62 54/20/63
f 49/21/64 45/12/65 50/14/66
usemtl Zo_Wea_BatonSG2
f 11/68/67 17/69/68 16/70/69
f 11/68/70 12/71/71 17/69/72
f 12/83/73 18/72/74 17/84/75
f 12/85/76 13/73/77 18/72/78
f 13/73/79 19/74/80 18/72/81
f 13/73/82 14/75/83 19/74/84
f 14/75/85 20/76/86 19/74/87
f 14/75/88 15/77/89 20/76/90
f 15/77/91 16/70/92 20/76/93
f 15/77/94 11/68/95 16/70/96
usemtl Zo_Wea_BatonSG1
f 22/104/97 21/105/98 17/106/99
f 22/104/100 17/106/101 18/107/102
f 23/108/103 18/107/104 19/109/105
f 24/110/106 19/109/107 20/111/108
f 24/110/109 20/111/110 21/105/111
f 21/105/112 20/111/113 16/112/114
f 21/105/115 16/112/116 17/106/117
f 23/108/118 19/109/119 24/110/120
f 23/108/121 22/104/122 18/107/123
usemtl Zo_Wea_BatonSG2
f 6/49/124 7/48/125 46/57/126
f 46/57/127 45/58/128 6/49/129
f 7/65/130 8/51/131 47/59/132
f 47/59/133 46/66/134 7/67/135
f 8/51/136 9/53/137 48/60/138
f 48/60/139 47/59/140 8/51/141
f 9/53/142 10/55/143 49/61/144
f 49/61/145 48/60/146 9/53/147
f 10/55/148 6/49/149 45/58/150
f 45/58/151 49/61/152 10/55/153
f 12/71/154 11/68/155 50/78/156
f 50/78/157 51/79/158 12/71/159
f 13/73/160 12/86/161 51/87/162
f 51/88/163 52/80/164 13/73/165
f 14/75/166 13/73/167 52/80/168
f 52/80/169 53/81/170 14/75/171
f 15/77/172 14/75/173 53/81/174
f 53/81/175 54/82/176 15/77/177
f 11/68/178 15/77/179 54/82/180
f 54/82/181 50/78/182 11/68/183
usemtl Zo_Wea_BatonSG1
f 21/1/184 26/2/185 25/3/186
f 21/1/187 22/4/188 26/2/189
f 22/9/190 27/5/191 26/10/192
f 22/11/193 23/6/194 27/5/195
f 23/6/196 28/7/197 27/5/198
f 23/6/199 24/8/200 28/7/201
f 24/8/202 25/3/203 28/7/204
f 24/8/205 21/1/206 25/3/207
f 37/36/208 42/37/209 41/38/210
f 37/36/211 38/39/212 42/37/213
f 38/39/214 43/40/215 42/37/216
f 38/39/217 39/41/218 43/40/219
f 39/44/220 44/42/221 43/45/222
f 39/46/223 40/43/224 44/42/225
f 40/43/226 41/38/227 44/42/228
f 40/43/229 37/36/230 41/38/231
f 29/25/232 34/26/233 33/27/234
f 29/25/235 30/28/236 34/26/237
f 30/33/238 35/29/239 34/34/240
f 30/35/241 31/30/242 35/29/243
f 31/30/244 36/31/245 35/29/246
f 31/30/247 32/32/248 36/31/249
f 32/32/250 33/27/251 36/31/252
f 32/32/253 29/25/254 33/27/255
f 35/113/256 33/114/257 34/115/258
f 35/113/259 36/116/260 33/114/261
f 25/117/262 26/118/263 38/119/264
f 38/119/265 37/120/266 25/117/267
f 26/118/268 27/121/269 39/122/270
f 39/122/271 38/119/272 26/118/273
f 27/121/274 28/123/275 40/124/276
f 40/124/277 39/122/278 27/121/279
f 28/123/280 25/117/281 37/120/282
f 37/120/283 40/124/284 28/123/285
f 30/125/286 29/126/287 41/127/288
f 41/127/289 42/128/290 30/125/291
f 31/129/292 30/125/293 42/128/294
f 42/128/295 43/130/296 31/129/297
f 32/131/298 31/129/299 43/130/300
f 43/130/301 44/132/302 32/131/303
f 29/126/304 32/131/305 44/132/306
f 44/132/307 41/127/308 29/126/309
f 1/133/310 2/134/311 56/135/312
f 56/135/313 55/136/314 1/133/315
f 3/137/316 1/133/317 55/136/318
f 4/138/319 3/137/320 55/136/321
f 55/136/322 57/139/323 4/138/324
f 2/134/325 5/140/326 58/141/327
f 58/141/328 56/135/329 2/134/330
f 5/140/331 4/138/332 57/139/333
f 57/139/334 58/141/335 5/140/336
f 55/93/337 56/97/338 60/98/339
f 60/99/340 59/89/341 55/93/342
f 57/95/343 55/93/344 59/89/345
f 59/89/346 61/91/347 57/95/348
f 56/94/349 58/96/350 62/92/351
f 62/92/352 60/90/353 56/94/354
f 58/96/355 57/95/356 61/91/357
f 61/91/358 62/92/359 58/96/360
