# This file uses meters as units for non-parametric coordinates.

mtllib ma_roadsign_1.max.fobj.mtl
g skinCluster1Set tweakSet1
v 15.656979 -7.660229 -0.717841
v 5.628702 -7.660229 -14.520580
v -10.597391 -7.660229 -9.248403
v -10.597390 -7.660229 7.812723
v 5.628705 -7.660229 13.084897
v 6.377386 26.860562 -0.717841
v 2.761150 26.860562 -5.695161
v -3.090041 26.860562 -3.793994
v -3.090040 26.860562 2.358313
v 2.761151 26.860562 4.259479
v 4.257529 303.973079 -0.717838
v 2.106078 303.973079 -3.679056
v -1.375041 303.973079 -2.547971
v -1.375041 303.973079 1.112294
v 2.106079 303.973079 2.243380
v 8.680433 314.320159 -0.717838
v 3.472831 314.320159 -7.885487
v -4.953246 314.320159 -5.147689
v -4.953247 314.320159 3.712013
v 3.472832 314.320159 6.449811
v 1.143921 339.272857 -0.717838
v -0.467438 275.515032 -26.687294
v -0.467448 302.648354 -13.529143
v -0.467436 295.399857 -15.155314
v -0.467444 292.528558 -2.002613
v 1.308899 298.033881 -100.633848
v 1.308892 258.520818 -19.600348
v -0.467444 271.760774 -2.462864
v 1.308898 271.954393 -60.546958
v 3.085230 275.515032 -26.687294
v 3.085219 302.648354 -13.529143
v 3.085232 295.399857 -15.155314
v 3.085224 292.528558 -2.002613
v 3.085224 271.760774 -2.462864
vt 0.750000 -1.111300
vt 0.992607 -0.163892
vt 0.750000 -0.163892
vt 0.750000 -1.111300
vt 0.964850 -1.111300
vt 0.992607 -0.163892
vt -0.035150 -1.111300
vt 0.170291 -0.163892
vt -0.007393 -0.163892
vt -0.035150 -1.111300
vt 0.158285 -1.111300
vt 0.170291 -0.163892
vt 0.158285 -1.111300
vt 0.329709 -0.163892
vt 0.170291 -0.163892
vt 0.158285 -1.111300
vt 0.341715 -1.111300
vt 0.329709 -0.163892
vt 0.341715 -1.111300
vt 0.507393 -0.163892
vt 0.329709 -0.163892
vt 0.341715 -1.111300
vt 0.535150 -1.111300
vt 0.507393 -0.163892
vt 0.535150 -1.111300
vt 0.750000 -0.163892
vt 0.507393 -0.163892
vt 0.535150 -1.111300
vt 0.750000 -1.111300
vt 0.750000 -0.163892
vt -0.250000 -0.163892
vt 0.022620 4.371565
vt -0.250000 4.371565
vt -0.250000 -0.163892
vt -0.007393 -0.163892
vt 0.022620 4.371565
vt -0.007393 -0.163892
vt 0.180245 4.371565
vt 0.022620 4.371565
vt -0.007393 -0.163892
vt 0.170291 -0.163892
vt 0.180245 4.371565
vt 0.170291 -0.163892
vt 0.319755 4.371565
vt 0.180245 4.371565
vt 0.170291 -0.163892
vt 0.329709 -0.163892
vt 0.319755 4.371565
vt 0.329709 -0.163892
vt 0.477380 4.371565
vt 0.319755 4.371565
vt 0.329709 -0.163892
vt 0.507393 -0.163892
vt 0.477380 4.371565
vt 0.507393 -0.163892
vt 0.750000 4.371565
vt 0.477380 4.371565
vt 0.507393 -0.163892
vt 0.750000 -0.163892
vt 0.750000 4.371565
vt 0.250000 0.000000
vt 0.851190 0.320547
vt 0.155952 0.320547
vt 0.250000 0.000000
vt 0.719048 -0.002465
vt 0.851190 0.320547
vt 0.250000 0.000000
vt 0.851190 0.320547
vt 0.155952 0.320547
vt 0.250000 0.000000
vt 0.719048 -0.002465
vt 0.851190 0.320547
vt 0.250000 0.000000
vt 0.851190 0.320547
vt 0.155952 0.320547
vt 0.250000 0.000000
vt 0.719048 -0.002465
vt 0.851190 0.320547
vt 0.250000 0.000000
vt 0.851190 0.320547
vt 0.155952 0.320547
vt 0.250000 0.000000
vt 0.719048 -0.002465
vt 0.851190 0.320547
vt 0.250000 0.000000
vt 0.851190 0.320547
vt 0.155952 0.320547
vt 0.250000 0.000000
vt 0.719048 -0.002465
vt 0.851190 0.320547
vt 0.155952 0.320547
vt 0.851190 0.320547
vt 0.522917 0.997843
vt 0.155952 0.320547
vt 0.851190 0.320547
vt 0.522917 0.997843
vt 0.155952 0.320547
vt 0.851190 0.320547
vt 0.522917 0.997843
vt 0.155952 0.320547
vt 0.851190 0.320547
vt 0.522917 0.997843
vt 0.155952 0.320547
vt 0.851190 0.320547
vt 0.522917 0.997843
vt 0.403527 1.000000
vt 0.373324 0.703149
vt 0.368053 1.000000
vt 0.368053 0.000000
vt 0.500000 0.000000
vt 0.500000 0.000000
vt 0.572463 0.000000
vt 0.596328 0.292950
vt 0.596473 1.000000
vt 0.632671 0.730135
vt 0.631947 1.000000
vt 0.631947 0.000000
vt 0.427537 0.000000
vt 0.007426 0.288563
vt 0.253032 0.373641
vt 0.136112 0.824263
vt 0.596328 0.292950
vt 1.002760 0.883953
vt 0.119625 0.988525
vt 0.002760 0.759194
vt 0.181179 -0.011475
vt 0.253032 0.373641
vt 0.007426 0.288563
vt 0.136112 0.824263
vt 1.002760 0.883953
vt 0.119625 0.988525
vt 0.002760 0.759194
vt 0.181179 -0.011475
vt 0.520365 1.000000
vt 0.479635 1.000000
vn 0.965366 0.259502 0.026979
vn 0.329227 0.045650 -0.943147
vn 0.998723 0.045650 0.021665
vn 0.323973 0.259502 -0.909780
vn -0.795249 0.045650 -0.604562
vn -0.765139 0.259502 -0.589254
vn -0.820718 0.045650 0.569507
vn -0.796855 0.259502 0.545601
vn 0.288017 0.045650 0.956536
vn 0.272656 0.259502 0.926454
vn 0.303848 -0.015095 -0.952601
vn 0.999871 -0.015095 -0.005394
vn -0.812083 -0.015095 -0.583346
vn -0.805743 -0.015095 0.592073
vn 0.314107 -0.015095 0.949268
vn 0.294849 0.103931 -0.949875
vn 0.994498 0.103931 -0.013109
vn -0.812271 0.103931 -0.573946
vn -0.796860 0.103931 0.595158
vn 0.319785 0.103931 0.941773
vn -0.000001 1.000000 0.000001
vn 1.000000 -0.000000 0.000000
vn 0.999424 -0.023997 -0.023977
vn 0.999841 0.007269 -0.016258
vn 0.996273 -0.073890 -0.044496
vn 0.999406 -0.018025 -0.029368
vn 0.999776 0.004631 -0.020634
vn 1.000000 -0.000000 0.000001
vn 0.991977 -0.120122 -0.039409
vn 0.000000 -0.988203 -0.153150
vn 0.000000 -0.988203 -0.153150
vn 0.000000 -0.988203 -0.153150
vn 0.000000 -0.988203 -0.153150
vn 0.000000 -0.218905 0.975746
vn 0.000000 -0.218905 0.975746
vn 0.000000 -0.218905 0.975746
vn 0.000000 -0.218905 0.975746
vn 0.000000 0.998600 -0.052902
vn 0.000000 0.998600 -0.052902
vn 0.000000 0.998600 -0.052902
vn 0.000000 0.976991 0.213282
vn 0.000000 0.976991 0.213282
vn 0.000000 0.976991 0.213282
vn 0.000000 0.976991 0.213282
vn 0.000000 0.384894 0.922961
vn 0.000000 0.384894 0.922961
vn 0.000000 0.384894 0.922961
vn -0.999424 -0.023997 -0.023977
vn -1.000000 0.000000 -0.000000
vn -0.999841 0.007269 -0.016258
vn -0.999406 -0.018025 -0.029368
vn -0.996273 -0.073890 -0.044496
vn -0.999776 0.004627 -0.020634
vn -1.000000 0.000000 -0.000001
vn -0.991977 -0.120122 -0.039409
s 1
g Ma_roadsign_poteau_1
usemtl Ma_roadsign_poteau_1SG3
f 1/1/1 7/2/2 6/3/3
f 1/4/1 2/5/4 7/6/2
f 2/7/4 8/8/5 7/9/2
f 2/10/4 3/11/6 8/12/5
f 3/13/6 9/14/7 8/15/5
f 3/16/6 4/17/8 9/18/7
f 4/19/8 10/20/9 9/21/7
f 4/22/8 5/23/10 10/24/9
f 5/25/10 6/26/3 10/27/9
f 5/28/10 1/29/1 6/30/3
f 6/31/3 12/32/11 11/33/12
f 6/34/3 7/35/2 12/36/11
f 7/37/2 13/38/13 12/39/11
f 7/40/2 8/41/5 13/42/13
f 8/43/5 14/44/14 13/45/13
f 8/46/5 9/47/7 14/48/14
f 9/49/7 15/50/15 14/51/14
f 9/52/7 10/53/9 15/54/15
f 10/55/9 11/56/12 15/57/15
f 10/58/9 6/59/3 11/60/12
usemtl Ma_roadsign_poteau_1SG2
f 11/61/12 17/62/16 16/63/17
f 11/64/12 12/65/11 17/66/16
f 12/67/11 18/68/18 17/69/16
f 12/70/11 13/71/13 18/72/18
f 13/73/13 19/74/19 18/75/18
f 13/76/13 14/77/14 19/78/19
f 14/79/14 20/80/20 19/81/19
f 14/82/14 15/83/15 20/84/20
f 15/85/15 16/86/17 20/87/20
f 15/88/15 11/89/12 16/90/17
f 16/91/17 17/92/16 21/93/21
f 17/94/16 18/95/18 21/96/21
f 18/97/18 19/98/19 21/99/21
f 19/100/19 20/101/20 21/102/21
f 20/103/20 16/104/17 21/105/21
s 2
usemtl Ma_roadsign_poteau_1SG
f 34/119/22 30/120/23 32/121/24
f 29/122/25 26/123/26 30/120/23
f 31/124/27 32/121/24 26/123/26
f 26/123/26 32/121/24 30/120/23
f 32/121/24 33/125/28 34/119/22
f 27/126/29 29/122/25 30/120/23
s 3
usemtl Ma_roadsign_poteau_1SG3
f 28/112/30 22/106/31 30/114/32
f 30/114/32 34/118/33 28/112/30
s 4
f 23/107/34 24/108/35 32/116/36
f 32/116/36 31/115/37 23/107/34
s off
f 26/110/38 23/134/39 31/135/40
s 5
f 24/108/41 25/109/42 33/117/43
f 33/117/43 32/116/44 24/108/41
s off
f 27/111/45 30/114/46 22/106/47
s 6
usemtl Ma_roadsign_poteau_1SG1
f 22/127/48 28/128/49 24/129/50
f 26/130/51 29/113/52 22/127/48
f 24/129/50 23/131/53 26/130/51
f 24/129/50 26/130/51 22/127/48
f 25/132/54 24/129/50 28/128/49
f 29/113/52 27/133/55 22/127/48
