# This file uses meters as units for non-parametric coordinates.

mtllib tr_wea_grandbouclier.max.fobj.mtl
g default
v -0.053737 11.634612 1.237501
v -0.053737 41.524825 0.233648
v -0.053737 -6.644893 2.672224
v -0.053737 -0.886593 4.925697
v -0.053737 32.022751 5.053891
v -0.053737 21.455718 7.471493
v -0.053737 10.593283 7.082010
v -0.053737 -43.778414 -7.954525
v -0.053737 -23.175025 2.194814
v -0.053737 -31.204909 -0.366396
v -0.053737 -24.129200 -1.726329
v 8.326393 48.532781 0.261537
v 13.926189 46.256122 -2.114826
v 22.272053 36.226755 -1.352411
v 26.145530 21.551886 -0.945957
v 11.662659 10.825908 2.462539
v 7.472558 41.801366 2.759904
v 17.699441 31.960434 2.342478
v 18.525121 18.192129 3.269923
v 12.343577 24.643535 3.908743
v 12.915295 -17.331261 -2.643571
v 9.840342 -30.794525 -5.481001
v 7.027715 -1.681647 1.958392
v 9.984604 -18.184191 -0.145505
v 23.913822 13.564001 -2.402724
v 19.700494 -25.193924 -2.239988
v 28.605264 0.614208 -1.781459
v 26.196378 -13.189110 -1.858144
v 23.672378 -2.574766 1.193042
v 19.195098 -15.076178 1.864185
v 15.134485 -5.924261 3.638948
v 19.167417 9.557414 0.211390
v 2.351173 46.058491 0.246029
v 2.708096 36.306313 3.637653
v 5.044053 44.702163 2.309712
v 9.770684 46.678579 2.348690
v 1.361090 40.828699 1.149763
v -0.053737 40.639082 4.274483
v -8.433866 48.532781 0.261537
v -14.033662 46.256122 -2.114826
v -22.379526 36.226755 -1.352411
v -26.253003 21.551886 -0.945957
v -11.770132 10.825908 2.462539
v -7.580031 41.801366 2.759904
v -17.806914 31.960434 2.342478
v -18.632594 18.192129 3.269923
v -12.451050 24.643535 3.908743
v -13.022768 -17.331261 -2.643571
v -9.947815 -30.794525 -5.481001
v -7.135189 -1.681647 1.958392
v -10.092077 -18.184191 -0.145505
v -24.021295 13.564001 -2.402724
v -19.807968 -25.193924 -2.239988
v -28.712738 0.614208 -1.781459
v -26.303852 -13.189110 -1.858144
v -23.779851 -2.574766 1.193042
v -19.302571 -15.076178 1.864185
v -15.241958 -5.924261 3.638948
v -19.274890 9.557414 0.211390
v -2.458647 46.058491 0.246029
v -2.763974 36.306313 3.637653
v -5.151527 44.702163 2.309712
v -9.878157 46.678579 2.348690
v -1.468563 40.828699 1.149763
v -2.099073 -8.044332 -0.763488
v 2.286291 -8.044332 -0.763487
v -2.099073 12.601112 0.789398
v 2.286291 12.601112 0.789398
v -2.099073 -5.799416 -15.210974
v 2.286291 -5.799416 -15.210974
v -2.099074 10.356195 -15.210973
v 2.286291 10.356195 -15.210973
vt 0.256343 0.974862
vt 0.117647 0.874510
vt 0.047059 0.705882
vt 0.086275 0.619608
vt 0.500000 0.600185
vt 0.353942 0.999501
vt 0.290196 0.274510
vt 0.500000 0.213145
vt 0.329412 0.149020
vt 0.505882 0.015686
vt 0.000000 0.486275
vt 0.047059 0.341176
vt 0.156863 0.207843
vt 0.458085 0.972723
vt 0.500000 0.923660
vt 0.894118 0.870588
vt 0.749020 0.976471
vt 0.956630 0.707511
vt 0.913725 0.627451
vt 0.646058 0.999501
vt 0.726039 0.286713
vt 0.678431 0.152941
vt 0.996078 0.486275
vt 0.956863 0.337255
vt 0.850980 0.211765
vt 0.541915 0.972723
vt 0.190578 0.820153
vt 0.256343 0.974862
vt 0.117647 0.874510
vt 0.368823 0.926652
vt 0.047059 0.705882
vt 0.176187 0.671151
vt 0.086275 0.619608
vt 0.353942 0.999501
vt 0.290196 0.749020
vt 0.164993 0.577705
vt 0.328769 0.979434
vt 0.295794 0.591433
vt 0.500000 0.588915
vt 0.376577 0.456075
vt 0.500000 0.464679
vt 0.500000 0.706470
vt 0.500000 0.820827
vt 0.475341 0.916126
vt 0.451864 0.867184
vt 0.500000 0.914074
vt 0.500000 0.223471
vt 0.500000 0.402362
vt 0.290196 0.274510
vt 0.329412 0.149020
vt 0.505882 0.015686
vt 0.500000 0.136571
vt 0.325041 0.277483
vt 0.000000 0.486275
vt 0.086475 0.446410
vt 0.047059 0.341176
vt 0.164510 0.311118
vt 0.156863 0.207843
vt 0.235283 0.410161
vt 0.458085 0.972723
vt 0.411150 0.958045
vt 0.500000 0.923660
vt 0.809422 0.820153
vt 0.894118 0.870588
vt 0.749020 0.976471
vt 0.631176 0.926652
vt 0.956630 0.707511
vt 0.823813 0.671151
vt 0.913725 0.627451
vt 0.646058 0.999501
vt 0.721569 0.752941
vt 0.835007 0.577705
vt 0.671231 0.979434
vt 0.704206 0.591433
vt 0.623423 0.456075
vt 0.524659 0.916126
vt 0.547237 0.867184
vt 0.726039 0.286713
vt 0.678431 0.152941
vt 0.682353 0.286275
vt 0.996078 0.486275
vt 0.913525 0.446410
vt 0.956863 0.337255
vt 0.835490 0.311118
vt 0.850980 0.211765
vt 0.764717 0.410161
vt 0.541915 0.972723
vt 0.588850 0.958045
vt 0.992157 0.247059
vt 0.788235 0.188235
vt 0.992157 0.011765
vt 0.788235 0.058824
vt 0.992157 0.011765
vt 0.788235 0.058824
vt 0.992157 0.247059
vt 0.788235 0.188235
vt 0.270588 0.019608
vt 0.125490 0.019608
vt 0.270588 0.074510
vt 0.125490 0.074510
vt 0.392157 0.019608
vt 0.392157 0.074510
vt 0.003922 0.074510
vt 0.003922 0.019608
vn 0.377850 0.365028 0.850873
vn 0.340007 0.185655 0.921915
vn 0.429081 0.283008 0.857786
vn 0.340007 0.185655 0.921915
vn 0.377850 0.365028 0.850873
vn 0.323376 0.297962 0.898135
vn 0.429081 0.283008 0.857786
vn 0.340007 0.185655 0.921915
vn 0.517947 -0.047967 0.854067
vn 0.317050 -0.123322 0.940357
vn 0.517947 -0.047967 0.854067
vn 0.340007 0.185655 0.921915
vn 0.517947 -0.047967 0.854067
vn 0.317050 -0.123322 0.940357
vn 0.585364 -0.259795 0.768021
vn -0.034874 -0.073307 -0.996699
vn -0.000000 0.040447 -0.999182
vn -0.228686 -0.001920 -0.973498
vn -0.228686 -0.001920 -0.973498
vn -0.000000 0.040447 -0.999182
vn -0.219704 0.024102 -0.975269
vn 0.128112 0.042448 0.990851
vn 0.317050 -0.123322 0.940357
vn 0.340007 0.185655 0.921915
vn 0.317050 -0.123322 0.940357
vn 0.420345 -0.275015 0.864683
vn 0.585364 -0.259795 0.768021
vn 0.378887 0.377144 0.845108
vn 0.063692 -0.046152 0.996902
vn 0.718883 0.260030 0.644664
vn 0.340007 0.185655 0.921915
vn 0.323376 0.297962 0.898135
vn 0.128112 0.042448 0.990851
vn 0.317050 -0.123322 0.940357
vn 0.128112 0.042448 0.990851
vn 0.133963 -0.230443 0.963821
vn 0.000000 -0.131841 0.991271
vn 0.365595 -0.139736 0.920225
vn 0.250064 0.061371 0.966282
vn 0.365595 -0.139736 0.920225
vn 0.000000 -0.131841 0.991271
vn 0.355089 -0.224410 0.907497
vn 0.000000 -0.264238 0.964458
vn 0.355089 -0.224410 0.907497
vn 0.000000 -0.131841 0.991271
vn -0.000604 0.205470 0.978663
vn 0.000000 0.073008 0.997331
vn 0.250064 0.061371 0.966282
vn 0.000000 0.073008 0.997331
vn 0.000000 -0.131841 0.991271
vn 0.250064 0.061371 0.966282
vn 0.494200 0.190341 0.848255
vn 0.552121 0.778972 0.297262
vn -0.002440 0.670929 0.741517
vn -0.000000 -0.245918 0.969291
vn 0.183480 -0.049652 0.981769
vn 0.000000 -0.028869 0.999583
vn 0.000000 0.206932 -0.978355
vn -0.065176 0.073389 -0.995171
vn -0.173095 0.275689 -0.945534
vn -0.173095 0.275689 -0.945534
vn 0.000000 0.302154 -0.953259
vn 0.000000 0.206932 -0.978355
vn 0.443812 -0.379672 0.811715
vn 0.000000 -0.402961 0.915217
vn 0.000000 -0.516698 0.856167
vn -0.102758 0.052771 -0.993306
vn -0.000000 0.040447 -0.999182
vn -0.034874 -0.073307 -0.996699
vn -0.000000 0.040447 -0.999182
vn -0.065176 0.073389 -0.995171
vn 0.000000 0.206932 -0.978355
vn 0.183480 -0.049652 0.981769
vn -0.000000 -0.245918 0.969291
vn 0.442829 -0.234276 0.865458
vn 0.443812 -0.379672 0.811715
vn -0.000000 -0.245918 0.969291
vn 0.000000 -0.402961 0.915217
vn -0.000000 -0.245918 0.969291
vn 0.443812 -0.379672 0.811715
vn 0.442829 -0.234276 0.865458
vn -0.000000 0.040447 -0.999182
vn -0.102758 0.052771 -0.993306
vn -0.117442 0.128707 -0.984704
vn 0.443812 -0.379672 0.811715
vn 0.668046 -0.296425 0.682530
vn 0.442829 -0.234276 0.865458
vn 0.398390 0.033536 0.916603
vn 0.469235 0.093239 0.878137
vn 0.362377 0.197521 0.910861
vn 0.469235 0.093239 0.878137
vn 0.398390 0.033536 0.916603
vn 0.511705 -0.181451 0.839782
vn 0.214052 -0.255072 0.942932
vn 0.511705 -0.181451 0.839782
vn 0.398390 0.033536 0.916603
vn 0.511705 -0.181451 0.839782
vn 0.214052 -0.255072 0.942932
vn 0.179418 -0.362084 0.914716
vn 0.073896 -0.016705 -0.997126
vn -0.065176 0.073389 -0.995171
vn -0.117442 0.128707 -0.984704
vn 0.153917 0.100935 0.982915
vn -0.224370 -0.043089 0.973551
vn 0.009132 -0.053688 0.998516
vn -0.144005 -0.284540 0.947787
vn 0.214052 -0.255072 0.942932
vn 0.009132 -0.053688 0.998516
vn 0.009132 -0.053688 0.998516
vn -0.224370 -0.043089 0.973551
vn -0.144005 -0.284540 0.947787
vn 0.398390 0.033536 0.916603
vn 0.307193 0.168167 0.936671
vn 0.009132 -0.053688 0.998516
vn 0.307193 0.168167 0.936671
vn 0.398390 0.033536 0.916603
vn 0.362377 0.197521 0.910861
vn 0.009132 -0.053688 0.998516
vn 0.214052 -0.255072 0.942932
vn 0.398390 0.033536 0.916603
vn 0.214052 -0.255072 0.942932
vn -0.144005 -0.284540 0.947787
vn 0.179418 -0.362084 0.914716
vn -0.117442 0.128707 -0.984704
vn -0.065176 0.073389 -0.995171
vn -0.000000 0.040447 -0.999182
vn -0.492962 -0.463212 -0.736493
vn -0.492962 -0.463212 -0.736493
vn -0.492962 -0.463212 -0.736493
vn 0.060190 -0.003715 -0.998180
vn -0.065176 0.073389 -0.995171
vn 0.073896 -0.016705 -0.997126
vn -0.065176 0.073389 -0.995171
vn 0.060190 -0.003715 -0.998180
vn 0.059108 -0.000232 -0.998252
vn 0.355089 -0.224410 0.907497
vn 0.000000 -0.264238 0.964458
vn 0.000000 -0.364431 0.931230
vn 0.024064 -0.030461 -0.999246
vn -0.219704 0.024102 -0.975269
vn -0.000000 0.040447 -0.999182
vn 0.153917 0.100935 0.982915
vn 0.009132 -0.053688 0.998516
vn 0.307193 0.168167 0.936671
vn 0.317050 -0.123322 0.940357
vn 0.133963 -0.230443 0.963821
vn 0.420345 -0.275015 0.864683
vn -0.279537 0.287021 0.916230
vn 0.063692 -0.046152 0.996902
vn 0.378887 0.377144 0.845108
vn 0.000000 -0.033566 -0.999436
vn 0.024064 -0.030461 -0.999246
vn -0.000000 0.040447 -0.999182
vn 0.024919 0.202560 0.978953
vn -0.087821 0.230927 0.968999
vn -0.292238 0.392674 0.872012
vn 0.250064 0.061371 0.966282
vn -0.087821 0.230927 0.968999
vn 0.024919 0.202560 0.978953
vn 0.024919 0.202560 0.978953
vn -0.000604 0.205470 0.978663
vn 0.250064 0.061371 0.966282
vn 0.378887 0.377144 0.845108
vn 0.718883 0.260030 0.644664
vn 0.042819 0.761438 0.646822
vn -0.419640 0.166131 0.892358
vn 0.063692 -0.046152 0.996902
vn -0.279537 0.287021 0.916230
vn -0.279537 0.287021 0.916230
vn -0.416884 0.394764 0.818760
vn -0.419640 0.166131 0.892358
vn 0.042819 0.761438 0.646822
vn -0.416884 0.394764 0.818760
vn 0.378887 0.377144 0.845108
vn -0.279537 0.287021 0.916230
vn 0.378887 0.377144 0.845108
vn -0.416884 0.394764 0.818760
vn 0.552121 0.778972 0.297262
vn 0.000000 0.976809 0.214115
vn -0.002440 0.670929 0.741517
vn -0.000000 0.260863 0.965376
vn -0.419640 0.166131 0.892358
vn -0.416884 0.394764 0.818760
vn 0.494200 0.190341 0.848255
vn -0.002440 0.670929 0.741517
vn -0.000664 0.090089 0.995934
vn -0.429081 0.283008 0.857786
vn -0.340007 0.185655 0.921915
vn -0.377850 0.365028 0.850873
vn -0.323376 0.297962 0.898135
vn -0.377850 0.365028 0.850873
vn -0.340007 0.185655 0.921915
vn -0.517947 -0.047967 0.854067
vn -0.340007 0.185655 0.921915
vn -0.429081 0.283008 0.857786
vn -0.340007 0.185655 0.921915
vn -0.517947 -0.047967 0.854067
vn -0.317050 -0.123322 0.940357
vn -0.585364 -0.259795 0.768021
vn -0.317050 -0.123322 0.940357
vn -0.517947 -0.047967 0.854067
vn 0.228686 -0.001920 -0.973498
vn -0.000000 0.040447 -0.999182
vn 0.034874 -0.073307 -0.996699
vn 0.219704 0.024102 -0.975269
vn -0.000000 0.040447 -0.999182
vn 0.228686 -0.001920 -0.973498
vn -0.340007 0.185655 0.921915
vn -0.317050 -0.123322 0.940357
vn -0.128112 0.042448 0.990851
vn -0.585364 -0.259795 0.768021
vn -0.420345 -0.275015 0.864683
vn -0.317050 -0.123322 0.940357
vn -0.718883 0.260030 0.644664
vn -0.063692 -0.046152 0.996902
vn -0.378887 0.377144 0.845108
vn -0.128112 0.042448 0.990851
vn -0.323376 0.297962 0.898135
vn -0.340007 0.185655 0.921915
vn -0.133963 -0.230443 0.963821
vn -0.128112 0.042448 0.990851
vn -0.317050 -0.123322 0.940357
vn -0.249984 0.061466 0.966297
vn -0.365595 -0.139736 0.920225
vn 0.000000 -0.131841 0.991271
vn -0.355089 -0.224410 0.907497
vn 0.000000 -0.131841 0.991271
vn -0.365595 -0.139736 0.920225
vn 0.000000 -0.131841 0.991271
vn -0.355089 -0.224410 0.907497
vn 0.000000 -0.264238 0.964458
vn -0.249984 0.061466 0.966297
vn 0.000000 0.073008 0.997331
vn -0.000604 0.205470 0.978663
vn -0.249984 0.061466 0.966297
vn 0.000000 -0.131841 0.991271
vn 0.000000 0.073008 0.997331
vn -0.002440 0.670929 0.741517
vn -0.553946 0.777395 0.297993
vn -0.498764 0.187614 0.846189
vn 0.000000 -0.028869 0.999583
vn -0.183480 -0.049652 0.981769
vn -0.000000 -0.245918 0.969291
vn 0.173095 0.275689 -0.945534
vn 0.065176 0.073389 -0.995171
vn 0.000000 0.206932 -0.978355
vn 0.000000 0.206932 -0.978355
vn 0.000000 0.302154 -0.953259
vn 0.173095 0.275689 -0.945534
vn 0.000000 -0.516698 0.856167
vn 0.000000 -0.402961 0.915217
vn -0.443812 -0.379672 0.811715
vn 0.034874 -0.073307 -0.996699
vn -0.000000 0.040447 -0.999182
vn 0.102758 0.052771 -0.993306
vn 0.000000 0.206932 -0.978355
vn 0.065176 0.073389 -0.995171
vn -0.000000 0.040447 -0.999182
vn -0.442829 -0.234276 0.865458
vn -0.000000 -0.245918 0.969291
vn -0.183480 -0.049652 0.981769
vn 0.000000 -0.402961 0.915217
vn -0.000000 -0.245918 0.969291
vn -0.443812 -0.379672 0.811715
vn -0.442829 -0.234276 0.865458
vn -0.443812 -0.379672 0.811715
vn -0.000000 -0.245918 0.969291
vn 0.117442 0.128707 -0.984704
vn 0.102758 0.052771 -0.993306
vn -0.000000 0.040447 -0.999182
vn -0.442829 -0.234276 0.865458
vn -0.668046 -0.296425 0.682530
vn -0.443812 -0.379672 0.811715
vn -0.362377 0.197521 0.910861
vn -0.469235 0.093239 0.878137
vn -0.398390 0.033536 0.916603
vn -0.511705 -0.181451 0.839782
vn -0.398390 0.033536 0.916603
vn -0.469235 0.093239 0.878137
vn -0.398390 0.033536 0.916603
vn -0.511705 -0.181451 0.839782
vn -0.214052 -0.255072 0.942932
vn -0.179418 -0.362084 0.914716
vn -0.214052 -0.255072 0.942932
vn -0.511705 -0.181451 0.839782
vn 0.117442 0.128707 -0.984704
vn 0.065176 0.073389 -0.995171
vn -0.073896 -0.016705 -0.997126
vn -0.009132 -0.053688 0.998516
vn 0.224370 -0.043089 0.973551
vn -0.153917 0.100935 0.982915
vn -0.009132 -0.053688 0.998516
vn -0.214052 -0.255072 0.942932
vn 0.144005 -0.284540 0.947787
vn 0.144005 -0.284540 0.947787
vn 0.224370 -0.043089 0.973551
vn -0.009132 -0.053688 0.998516
vn -0.009132 -0.053688 0.998516
vn -0.307193 0.168167 0.936671
vn -0.398390 0.033536 0.916603
vn -0.362377 0.197521 0.910861
vn -0.398390 0.033536 0.916603
vn -0.307193 0.168167 0.936671
vn -0.398390 0.033536 0.916603
vn -0.214052 -0.255072 0.942932
vn -0.009132 -0.053688 0.998516
vn -0.179418 -0.362084 0.914716
vn 0.144005 -0.284540 0.947787
vn -0.214052 -0.255072 0.942932
vn -0.000000 0.040447 -0.999182
vn 0.065176 0.073389 -0.995171
vn 0.117442 0.128707 -0.984704
vn 0.492962 -0.463212 -0.736493
vn 0.492962 -0.463212 -0.736493
vn 0.492962 -0.463212 -0.736493
vn -0.073896 -0.016705 -0.997126
vn 0.065176 0.073389 -0.995171
vn -0.060190 -0.003715 -0.998180
vn -0.059108 -0.000232 -0.998252
vn -0.060190 -0.003715 -0.998180
vn 0.065176 0.073389 -0.995171
vn 0.000000 -0.364431 0.931230
vn 0.000000 -0.264238 0.964458
vn -0.355089 -0.224410 0.907497
vn -0.024064 -0.030461 -0.999246
vn 0.000000 -0.033566 -0.999436
vn -0.000000 0.040447 -0.999182
vn -0.307193 0.168167 0.936671
vn -0.009132 -0.053688 0.998516
vn -0.153917 0.100935 0.982915
vn -0.420345 -0.275015 0.864683
vn -0.133963 -0.230443 0.963821
vn -0.317050 -0.123322 0.940357
vn -0.378887 0.377144 0.845108
vn -0.063692 -0.046152 0.996902
vn 0.279537 0.287021 0.916230
vn 0.219704 0.024102 -0.975269
vn -0.024064 -0.030461 -0.999246
vn -0.000000 0.040447 -0.999182
vn 0.292335 0.395307 0.870788
vn 0.087151 0.231165 0.969003
vn -0.024879 0.203776 0.978701
vn -0.024879 0.203776 0.978701
vn -0.249984 0.061466 0.966297
vn -0.000604 0.205470 0.978663
vn -0.249984 0.061466 0.966297
vn -0.024879 0.203776 0.978701
vn 0.087151 0.231165 0.969003
vn -0.042819 0.761438 0.646822
vn -0.718883 0.260030 0.644664
vn -0.378887 0.377144 0.845108
vn 0.279537 0.287021 0.916230
vn -0.063692 -0.046152 0.996902
vn 0.419640 0.166131 0.892358
vn -0.000000 0.260863 0.965376
vn 0.416884 0.394764 0.818760
vn 0.419640 0.166131 0.892358
vn -0.378887 0.377144 0.845108
vn 0.416884 0.394764 0.818760
vn -0.042819 0.761438 0.646822
vn 0.416884 0.394764 0.818760
vn -0.378887 0.377144 0.845108
vn 0.279537 0.287021 0.916230
vn -0.002440 0.670929 0.741517
vn 0.000000 0.976809 0.214115
vn -0.553946 0.777395 0.297993
vn 0.279537 0.287021 0.916230
vn 0.419640 0.166131 0.892358
vn 0.416884 0.394764 0.818760
vn -0.000664 0.090089 0.995934
vn -0.002440 0.670929 0.741517
vn -0.498764 0.187614 0.846189
vn 0.000000 0.000000 -1.000000
vn 0.000000 0.000000 -1.000000
vn 0.000000 0.000000 -1.000000
vn 0.000000 0.000000 -1.000000
vn 0.000000 0.000000 -1.000000
vn 0.000000 0.000000 -1.000000
vn 0.000000 -0.988142 -0.153542
vn 0.000000 -0.988142 -0.153542
vn 0.000000 -0.988142 -0.153542
vn 0.000000 -0.988142 -0.153542
vn 0.000000 -0.988142 -0.153542
vn 0.000000 -0.988142 -0.153542
vn 1.000000 0.000000 -0.000000
vn 1.000000 0.000000 -0.000000
vn 1.000000 0.000000 -0.000000
vn 1.000000 0.000000 -0.000000
vn 1.000000 0.000000 -0.000000
vn 1.000000 0.000000 -0.000000
vn 0.000000 0.990300 -0.138943
vn 0.000000 0.990300 -0.138943
vn 0.000000 0.990300 -0.138943
vn 0.000000 0.990300 -0.138943
vn 0.000000 0.990300 -0.138943
vn 0.000000 0.990300 -0.138943
vn -1.000000 -0.000000 0.000000
vn -1.000000 -0.000000 0.000000
vn -1.000000 -0.000000 0.000000
vn -1.000000 -0.000000 0.000000
vn -1.000000 -0.000000 0.000000
vn -1.000000 -0.000000 0.000000
s off
g Tr_Wea_GrandBouclier
usemtl Tr_Wea_GrandBouclierSG
f 13/28/1 18/27/2 14/29/3
f 18/27/4 13/28/5 17/30/6
f 14/29/7 18/27/8 15/31/9
f 19/32/10 15/31/11 18/27/12
f 15/31/13 19/32/14 25/33/15
f 14/2/16 1/5/17 13/1/18
f 13/1/19 1/5/20 12/6/21
f 20/35/22 19/32/23 18/27/24
f 19/32/25 32/36/26 25/33/27
f 36/37/28 17/30/29 13/28/30
f 18/27/31 17/30/32 20/35/33
f 19/32/34 20/35/35 16/38/36
f 7/39/37 16/38/38 20/35/39
f 16/38/40 7/39/41 23/40/42
f 4/41/43 23/40/44 7/39/45
f 5/43/46 6/42/47 20/35/48
f 6/42/49 7/39/50 20/35/51
f 34/45/52 37/44/53 38/46/54
f 9/47/55 23/40/56 3/48/57
f 11/8/58 21/7/59 22/9/60
f 22/9/61 8/10/62 11/8/63
f 22/50/64 10/52/65 8/51/66
f 15/3/67 1/5/68 14/2/69
f 1/5/70 21/7/71 11/8/72
f 23/40/73 9/47/74 24/53/75
f 22/50/76 9/47/77 10/52/78
f 9/47/79 22/50/80 24/53/81
f 1/5/82 15/3/83 25/4/84
f 22/50/85 21/49/86 24/53/87
f 29/55/88 27/54/89 25/33/90
f 27/54/91 29/55/92 28/56/93
f 30/57/94 28/56/95 29/55/96
f 28/56/97 30/57/98 26/58/99
f 27/11/100 21/7/101 25/4/102
f 16/38/103 23/40/104 31/59/105
f 24/53/106 30/57/107 31/59/108
f 31/59/109 23/40/110 24/53/111
f 29/55/112 32/36/113 31/59/114
f 32/36/115 29/55/116 25/33/117
f 31/59/118 30/57/119 29/55/120
f 30/57/121 24/53/122 26/58/123
f 25/4/124 21/7/125 1/5/126
f 21/49/127 26/58/128 24/53/129
f 28/12/130 21/7/131 27/11/132
f 21/7/133 28/12/134 26/13/135
f 23/40/136 4/41/137 3/48/138
f 33/14/139 12/6/140 1/5/141
f 16/38/142 31/59/143 32/36/144
f 19/32/145 16/38/146 32/36/147
f 35/61/148 17/30/149 36/37/150
f 2/15/151 33/14/152 1/5/153
f 34/45/154 17/30/155 37/44/156
f 20/35/157 17/30/158 34/45/159
f 34/45/160 5/43/161 20/35/162
f 36/37/163 13/28/164 12/34/165
f 37/44/166 17/30/167 35/61/168
f 35/61/169 33/60/170 37/44/171
f 12/34/172 33/60/173 36/37/174
f 35/61/175 36/37/176 33/60/177
f 37/44/178 2/62/179 38/46/180
f 2/62/181 37/44/182 33/60/183
f 34/45/184 38/46/185 5/43/186
f 41/64/187 45/63/188 40/65/189
f 44/66/190 40/65/191 45/63/192
f 42/67/193 45/63/194 41/64/195
f 45/63/196 42/67/197 46/68/198
f 52/69/199 46/68/200 42/67/201
f 40/17/202 1/5/203 41/16/204
f 39/20/205 1/5/206 40/17/207
f 45/63/208 46/68/209 47/71/210
f 52/69/211 59/72/212 46/68/213
f 40/65/214 44/66/215 63/73/216
f 47/71/217 44/66/218 45/63/219
f 43/74/220 47/71/221 46/68/222
f 47/71/223 43/74/224 7/39/225
f 50/75/226 7/39/227 43/74/228
f 7/39/229 50/75/230 4/41/231
f 47/71/232 6/42/233 5/43/234
f 47/71/235 7/39/236 6/42/237
f 38/46/238 64/76/239 61/77/240
f 3/48/241 50/75/242 9/47/243
f 49/22/244 48/21/245 11/8/246
f 11/8/247 8/10/248 49/22/249
f 8/51/250 10/52/251 49/79/252
f 41/16/253 1/5/254 42/18/255
f 11/8/256 48/21/257 1/5/258
f 51/80/259 9/47/260 50/75/261
f 10/52/262 9/47/263 49/79/264
f 51/80/265 49/79/266 9/47/267
f 52/19/268 42/18/269 1/5/270
f 51/80/271 48/78/272 49/79/273
f 52/69/274 54/81/275 56/82/276
f 55/83/277 56/82/278 54/81/279
f 56/82/280 55/83/281 57/84/282
f 53/85/283 57/84/284 55/83/285
f 52/19/286 48/21/287 54/23/288
f 58/86/289 50/75/290 43/74/291
f 58/86/292 57/84/293 51/80/294
f 51/80/295 50/75/296 58/86/297
f 58/86/298 59/72/299 56/82/300
f 52/69/301 56/82/302 59/72/303
f 56/82/304 57/84/305 58/86/306
f 53/85/307 51/80/308 57/84/309
f 1/5/310 48/21/311 52/19/312
f 51/80/313 53/85/314 48/78/315
f 54/23/316 48/21/317 55/24/318
f 53/25/319 55/24/320 48/21/321
f 3/48/322 4/41/323 50/75/324
f 60/26/325 2/15/326 1/5/327
f 59/72/328 58/86/329 43/74/330
f 59/72/331 43/74/332 46/68/333
f 63/73/334 44/66/335 62/88/336
f 39/20/337 60/26/338 1/5/339
f 64/76/340 44/66/341 61/77/342
f 61/77/343 47/71/344 5/43/345
f 47/71/346 61/77/347 44/66/348
f 39/70/349 40/65/350 63/73/351
f 62/88/352 44/66/353 64/76/354
f 2/62/355 60/87/356 64/76/357
f 63/73/358 60/87/359 39/70/360
f 60/87/361 63/73/362 62/88/363
f 38/46/364 2/62/365 64/76/366
f 62/88/367 64/76/368 60/87/369
f 5/43/370 38/46/371 61/77/372
f 72/98/373 70/97/374 69/99/375
f 69/99/376 71/100/377 72/98/378
f 70/97/379 66/101/380 65/102/381
f 65/102/382 69/99/383 70/97/384
f 72/90/385 68/89/386 66/91/387
f 66/91/388 70/92/389 72/90/390
f 71/100/391 67/103/392 68/104/393
f 68/104/394 72/98/395 71/100/396
f 69/94/397 65/93/398 67/95/399
f 67/95/400 71/96/401 69/94/402
