# This file uses meters as units for non-parametric coordinates.

mtllib ju_buissonplateau.max.fobj.mtl
g default
v -30.261397 -0.000000 -0.035843
v 30.261397 -0.000000 -0.035843
v -30.261397 63.429153 -0.035843
v 30.261397 63.429153 -0.035843
v 0.000000 -0.000000 27.992732
v 0.000000 0.000000 -26.130732
v 0.000000 53.854132 -26.130732
v 0.000000 53.854132 27.992732
v -20.001702 0.000000 -20.035472
v 19.994631 -0.000000 19.960857
v -20.001701 45.874155 -20.035470
v 19.994628 45.874155 19.960856
v -16.808714 0.076810 16.767875
v 16.801643 0.000000 -16.842488
v 16.801643 39.821017 -16.842488
v -16.808714 39.897826 16.767875
vt 0.256360 0.753425
vt 0.497065 0.753425
vt 0.497065 0.998043
vt 0.256360 0.998043
vt 0.497065 0.753425
vt 0.256360 0.753425
vt 0.497065 0.998043
vt 0.256360 0.998043
vt 0.256360 0.753425
vt 0.497065 0.753425
vt 0.256360 0.998043
vt 0.497065 0.998043
vt 0.256360 0.753425
vt 0.497065 0.753425
vt 0.497065 0.998043
vt 0.256360 0.998043
vn 0.000000 -0.000000 1.000000
vn 0.000000 -0.000000 1.000000
vn 0.000000 -0.000000 1.000000
vn 0.000000 -0.000000 1.000000
vn 0.000000 -0.000000 1.000000
vn 0.000000 -0.000000 1.000000
vn 1.000000 0.000000 0.000000
vn 1.000000 0.000000 0.000000
vn 1.000000 0.000000 0.000000
vn 1.000000 0.000000 0.000000
vn 1.000000 0.000000 0.000000
vn 1.000000 0.000000 0.000000
vn -0.707107 -0.000000 0.707107
vn -0.707107 -0.000000 0.707107
vn -0.707107 -0.000000 0.707107
vn -0.707107 -0.000000 0.707107
vn -0.707107 -0.000000 0.707107
vn -0.707107 -0.000000 0.707107
vn 0.707107 -0.000000 0.707107
vn 0.707107 -0.000000 0.707107
vn 0.707107 -0.000000 0.707107
vn 0.707107 -0.000000 0.707107
vn 0.707107 -0.000000 0.707107
vn 0.707107 -0.000000 0.707107
s off
g Ju_BuissonPlateau
usemtl Ju_BuissonPlateauSG
f 1/5/1 2/6/2 4/8/3
f 4/8/4 3/7/5 1/5/6
f 5/1/7 6/2/8 7/3/9
f 7/3/10 8/4/11 5/1/12
f 9/9/13 10/10/14 12/12/15
f 12/12/16 11/11/17 9/9/18
f 13/13/19 14/14/20 15/15/21
f 15/15/22 16/16/23 13/13/24
