# This file uses meters as units for non-parametric coordinates.

mtllib ju_champib.max.fobj.mtl
g default
v 0.000000 14.879510 -0.000000
v 3.594576 10.104935 -13.271318
v -8.531158 10.104935 -11.146233
v -13.975424 10.104935 0.000001
v -8.637286 10.104935 11.888207
v 0.000002 10.104935 13.857150
v 11.306357 10.104935 8.214546
v 12.510034 10.104935 -3.688244
v -20.371816 -0.047970 -21.761948
v -20.371813 -0.047968 21.761963
v 20.371816 -0.047968 21.761942
v 20.371813 -0.047970 -21.761964
vt 0.937378 0.937378
vt 0.949119 0.972603
vt 0.913894 0.968689
vt 0.896282 0.937378
vt 0.911937 0.902153
vt 0.937378 0.898239
vt 0.972603 0.913894
vt 0.974560 0.947162
vt 0.876712 0.998043
vt 0.876712 0.876712
vt 1.000000 0.876712
vt 1.000000 0.998043
vn 0.011393 0.999898 -0.008633
vn 0.107116 0.848969 -0.517472
vn -0.261782 0.882520 -0.390677
vn 0.011393 0.999898 -0.008633
vn -0.261782 0.882520 -0.390677
vn -0.586606 0.809861 -0.004278
vn 0.011393 0.999898 -0.008633
vn -0.586606 0.809861 -0.004278
vn -0.280114 0.880829 0.381676
vn 0.011393 0.999898 -0.008633
vn -0.280114 0.880829 0.381676
vn 0.033255 0.830928 0.555386
vn 0.011393 0.999898 -0.008633
vn 0.033255 0.830928 0.555386
vn 0.436557 0.869325 0.231714
vn 0.011393 0.999898 -0.008633
vn 0.436557 0.869325 0.231714
vn 0.544662 0.832066 -0.104924
vn 0.011393 0.999898 -0.008633
vn 0.544662 0.832066 -0.104924
vn 0.107116 0.848969 -0.517472
vn 0.107116 0.848969 -0.517472
vn -0.428435 0.784499 -0.448336
vn -0.261782 0.882520 -0.390677
vn -0.261782 0.882520 -0.390677
vn -0.428435 0.784499 -0.448336
vn -0.586606 0.809861 -0.004278
vn -0.586606 0.809861 -0.004278
vn -0.428435 0.784499 -0.448336
vn -0.443304 0.771909 0.455673
vn -0.586606 0.809861 -0.004278
vn -0.443304 0.771909 0.455673
vn -0.280114 0.880829 0.381676
vn -0.280114 0.880829 0.381676
vn -0.443304 0.771909 0.455673
vn 0.033255 0.830928 0.555386
vn 0.033255 0.830928 0.555386
vn -0.443304 0.771909 0.455673
vn 0.431540 0.790925 0.433834
vn 0.436557 0.869325 0.231714
vn 0.033255 0.830928 0.555386
vn 0.431540 0.790925 0.433834
vn 0.544662 0.832066 -0.104924
vn 0.431540 0.790925 0.433834
vn 0.422338 0.799269 -0.427550
vn 0.436557 0.869325 0.231714
vn 0.431540 0.790925 0.433834
vn 0.544662 0.832066 -0.104924
vn 0.107116 0.848969 -0.517472
vn 0.422338 0.799269 -0.427550
vn -0.428435 0.784499 -0.448336
vn 0.544662 0.832066 -0.104924
vn 0.422338 0.799269 -0.427550
vn 0.107116 0.848969 -0.517472
s off
g Ju_ChampiB
usemtl Ju_ChampiBSG
f 1/1/1 2/2/2 3/3/3
f 1/1/4 3/3/5 4/4/6
f 1/1/7 4/4/8 5/5/9
f 1/1/10 5/5/11 6/6/12
f 1/1/13 6/6/14 7/7/15
f 1/1/16 7/7/17 8/8/18
f 1/1/19 8/8/20 2/2/21
f 2/2/22 9/9/23 3/3/24
f 3/3/25 9/9/26 4/4/27
f 4/4/28 9/9/29 10/10/30
f 4/4/31 10/10/32 5/5/33
f 5/5/34 10/10/35 6/6/36
f 6/6/37 10/10/38 11/11/39
f 7/7/40 6/6/41 11/11/42
f 8/8/43 11/11/44 12/12/45
f 7/7/46 11/11/47 8/8/48
f 2/2/49 12/12/50 9/9/51
f 8/8/52 12/12/53 2/2/54
