# This file uses meters as units for non-parametric coordinates.

mtllib ju_fougereb.max.fobj.mtl
g default
v 31.021866 0.000000 -0.032377
v -31.021866 0.000000 -0.032377
v 31.021866 36.653334 -32.290816
v -31.021866 36.653334 -32.290816
v 31.021866 42.681441 -69.635832
v -31.021866 42.681441 -69.635832
v 31.021866 43.055394 -110.014117
v -31.021866 43.055394 -110.014117
v 16.101247 -0.000000 34.452629
v -14.577100 0.000000 -31.337309
v 49.623132 42.884400 18.113467
v 18.944782 42.884400 -47.676477
v 82.262665 52.443171 2.731484
v 51.584315 52.443171 -63.058460
v 139.243853 47.319460 -22.867194
v 108.565509 47.319460 -88.657135
v -18.760899 -0.000000 22.408730
v 16.222391 0.000000 -19.282715
v 2.915763 32.152048 40.597618
v 37.899053 32.152048 -1.093830
v 25.221086 37.439859 59.314013
v 60.204381 37.439859 17.622566
v 45.187917 23.717600 76.068175
v 80.171210 23.717600 34.376734
v -36.771494 0.000000 -9.819383
v 33.945477 -0.000000 9.129192
v -45.786530 40.026721 23.545259
v 24.930434 40.026721 42.493832
v -59.994006 52.934146 78.653789
v 10.722971 52.934146 97.602367
v -69.364154 49.667338 115.093970
v 1.352817 49.667338 134.042561
v -4.293759 0.000000 -24.164701
v 5.325673 -0.000000 30.389902
v -32.658365 32.726189 -19.163260
v -23.038937 32.726189 35.391337
v -61.845601 38.108429 -14.016771
v -52.226174 38.108429 40.537825
v -92.176807 31.624451 -8.016759
v -82.557374 31.624451 46.537834
v 83.988690 51.633215 -77.613384
v 114.667046 51.633215 -11.823449
v 17.936218 49.033192 69.108987
v -52.780747 49.033192 50.160408
vt 0.373777 0.442270
vt 0.252446 0.442270
vt 0.373777 0.547945
vt 0.252446 0.547945
vt 0.373777 0.657534
vt 0.252446 0.657534
vt 0.373777 0.749511
vt 0.252446 0.749511
vt 0.373777 0.442270
vt 0.252446 0.442270
vt 0.373777 0.547945
vt 0.252446 0.547945
vt 0.373777 0.657534
vt 0.252446 0.657534
vt 0.373777 0.749511
vt 0.252446 0.749511
vt 0.373777 0.442270
vt 0.252446 0.442270
vt 0.373777 0.547945
vt 0.252446 0.547945
vt 0.373777 0.657534
vt 0.252446 0.657534
vt 0.373777 0.749511
vt 0.252446 0.749511
vt 0.373777 0.442270
vt 0.252446 0.442270
vt 0.373777 0.571429
vt 0.252446 0.571429
vt 0.373777 0.639922
vt 0.252446 0.639922
vt 0.373777 0.749511
vt 0.252446 0.749511
vt 0.252446 0.704501
vt 0.373777 0.704501
vt 0.373777 0.442270
vt 0.252446 0.442270
vt 0.373777 0.526419
vt 0.252446 0.526419
vt 0.373777 0.675147
vt 0.252446 0.675147
vt 0.373777 0.749511
vt 0.252446 0.749511
vt 0.252446 0.592955
vt 0.373777 0.592955
vn 0.000000 0.875386 0.483424
vn 0.000000 0.875386 0.483424
vn 0.000000 0.660668 0.750678
vn 0.000000 0.660668 0.750678
vn 0.000000 0.660668 0.750678
vn 0.000000 0.875386 0.483424
vn 0.000000 0.996419 0.084548
vn 0.000000 0.996419 0.084548
vn 0.000000 0.875386 0.483424
vn 0.000000 0.875386 0.483424
vn 0.000000 0.875386 0.483424
vn 0.000000 0.996419 0.084548
vn 0.000000 0.999957 0.009261
vn 0.000000 0.999957 0.009261
vn 0.000000 0.996419 0.084548
vn 0.000000 0.996419 0.084548
vn 0.000000 0.996419 0.084548
vn 0.000000 0.999957 0.009261
vn -0.480285 0.848038 0.223960
vn -0.477995 0.849612 0.222893
vn -0.683940 0.656134 0.318926
vn -0.683940 0.656134 0.318926
vn -0.683940 0.656135 0.318926
vn -0.480285 0.848038 0.223960
vn -0.106359 0.993090 0.049596
vn -0.107191 0.992981 0.049984
vn -0.477995 0.849612 0.222893
vn -0.477995 0.849612 0.222893
vn -0.480285 0.848038 0.223960
vn -0.106359 0.993090 0.049596
vn 0.082713 0.995827 -0.038570
vn 0.081617 0.995937 -0.038059
vn -0.107191 0.992981 0.049984
vn 0.081617 0.995937 -0.038059
vn 0.082713 0.995827 -0.038570
vn 0.143289 0.987423 -0.066817
vn -0.376881 0.870605 -0.316241
vn -0.376881 0.870605 -0.316241
vn -0.575053 0.660668 -0.482527
vn -0.575053 0.660668 -0.482527
vn -0.575053 0.660668 -0.482527
vn -0.376881 0.870605 -0.316241
vn 0.116351 0.988398 0.097630
vn 0.116351 0.988398 0.097630
vn -0.376881 0.870605 -0.316241
vn -0.376881 0.870605 -0.316241
vn -0.376881 0.870605 -0.316241
vn 0.116351 0.988398 0.097630
vn 0.356862 0.884863 0.299443
vn 0.356862 0.884863 0.299443
vn 0.116351 0.988398 0.097630
vn 0.116351 0.988398 0.097630
vn 0.116351 0.988398 0.097630
vn 0.356862 0.884863 0.299443
vn 0.143504 0.832214 -0.535562
vn 0.143381 0.832529 -0.535105
vn 0.195899 0.653539 -0.731103
vn 0.195899 0.653539 -0.731103
vn 0.195899 0.653539 -0.731103
vn 0.143504 0.832214 -0.535562
vn 0.057661 0.974867 -0.215195
vn 0.057389 0.975107 -0.214180
vn 0.143381 0.832529 -0.535105
vn 0.057389 0.975107 -0.214180
vn 0.057661 0.974867 -0.215195
vn 0.006083 0.999724 -0.022703
vn -0.022389 0.996252 0.083556
vn -0.022389 0.996252 0.083556
vn 0.005653 0.999762 -0.021097
vn 0.005653 0.999762 -0.021097
vn 0.006083 0.999724 -0.022703
vn -0.022389 0.996252 0.083556
vn 0.484509 0.870605 -0.085432
vn 0.484509 0.870605 -0.085432
vn 0.739273 0.660668 -0.130354
vn 0.739273 0.660668 -0.130354
vn 0.739273 0.660668 -0.130354
vn 0.484509 0.870605 -0.085432
vn -0.012095 0.999925 0.002133
vn -0.014588 0.999890 0.002572
vn 0.484509 0.870605 -0.085432
vn 0.484509 0.870605 -0.085432
vn 0.484509 0.870605 -0.085432
vn -0.012095 0.999925 0.002133
vn -0.202168 0.978702 0.035648
vn -0.202168 0.978702 0.035648
vn -0.014588 0.999890 0.002572
vn -0.014588 0.999890 0.002572
vn -0.012095 0.999925 0.002133
vn -0.202168 0.978702 0.035648
vn 0.143289 0.987423 -0.066817
vn 0.143289 0.987423 -0.066817
vn 0.081617 0.995937 -0.038059
vn -0.107191 0.992981 0.049984
vn -0.106359 0.993090 0.049596
vn 0.082713 0.995827 -0.038570
vn 0.006083 0.999724 -0.022703
vn 0.005653 0.999762 -0.021097
vn 0.057389 0.975107 -0.214180
vn 0.143381 0.832529 -0.535105
vn 0.143504 0.832214 -0.535562
vn 0.057661 0.974867 -0.215195
s off
g Ju_FougereB
usemtl Ju_FougereBSG
f 3/3/1 4/4/2 2/2/3
f 2/2/4 1/1/5 3/3/6
f 5/5/7 6/6/8 4/4/9
f 4/4/10 3/3/11 5/5/12
f 7/7/13 8/8/14 6/6/15
f 6/6/16 5/5/17 7/7/18
f 11/27/19 12/28/20 10/26/21
f 10/26/22 9/25/23 11/27/24
f 13/29/25 14/30/26 12/28/27
f 12/28/28 11/27/29 13/29/30
f 42/34/31 41/33/32 14/30/33
f 41/33/34 42/34/35 15/31/36
f 19/11/37 20/12/38 18/10/39
f 18/10/40 17/9/41 19/11/42
f 21/13/43 22/14/44 20/12/45
f 20/12/46 19/11/47 21/13/48
f 23/15/49 24/16/50 22/14/51
f 22/14/52 21/13/53 23/15/54
f 27/37/55 28/38/56 26/36/57
f 26/36/58 25/35/59 27/37/60
f 44/44/61 43/43/62 28/38/63
f 43/43/64 44/44/65 29/39/66
f 31/41/67 32/42/68 30/40/69
f 30/40/70 29/39/71 31/41/72
f 35/19/73 36/20/74 34/18/75
f 34/18/76 33/17/77 35/19/78
f 37/21/79 38/22/80 36/20/81
f 36/20/82 35/19/83 37/21/84
f 39/23/85 40/24/86 38/22/87
f 38/22/88 37/21/89 39/23/90
f 15/31/91 16/32/92 41/33/93
f 14/30/94 13/29/95 42/34/96
f 29/39/97 30/40/98 43/43/99
f 28/38/100 27/37/101 44/44/102
