# This file uses meters as units for non-parametric coordinates.

mtllib ju_herbefleurd.max.fobj.mtl
g default
v -22.395000 -0.138888 -0.035843
v 21.395001 -0.138888 -0.035843
v -22.395000 94.303411 -0.035841
v 21.395002 94.303411 -0.035841
v -13.295126 -0.093651 -12.830971
v 12.295128 -0.093654 12.759284
v 12.295128 77.957839 12.759287
v -13.295127 77.957845 -12.830968
vt 0.381605 0.001957
vt 0.497065 0.001957
vt 0.381605 0.246575
vt 0.497065 0.246575
vt 0.381605 0.001957
vt 0.497065 0.001957
vt 0.497065 0.246575
vt 0.381605 0.246575
vn 0.000000 -0.000000 1.000000
vn 0.000000 -0.000000 1.000000
vn 0.000000 -0.000000 1.000000
vn 0.000000 -0.000000 1.000000
vn 0.000000 -0.000000 1.000000
vn 0.000000 -0.000000 1.000000
vn -0.707107 -0.000000 0.707107
vn -0.707107 -0.000000 0.707107
vn -0.707107 -0.000000 0.707107
vn -0.707107 -0.000000 0.707107
vn -0.707107 -0.000000 0.707107
vn -0.707107 -0.000000 0.707107
s off
g Ju_HerbeFleurD
usemtl Ju_HerbeFleurDSG
f 1/1/1 2/2/2 4/4/3
f 4/4/4 3/3/5 1/1/6
f 5/5/7 6/6/8 7/7/9
f 7/7/10 8/8/11 5/5/12
