# This file uses meters as units for non-parametric coordinates.

mtllib ju_herbehautea.max.fobj.mtl
g default
v -30.261397 -0.000000 -0.035843
v 30.261397 -0.000000 -0.035843
v -30.261397 200.963664 -0.035837
v 30.261397 200.963664 -0.035837
v 8.992790 -0.001186 27.562908
v -17.245546 -0.001186 -15.932878
v 2.908888 197.185183 31.232957
v -23.329455 197.185183 -12.262834
vt 0.998043 0.001957
vt 0.876712 0.001957
vt 0.998043 0.497065
vt 0.876712 0.497065
vt 0.876712 0.001957
vt 0.998043 0.001957
vt 0.876712 0.497065
vt 0.998043 0.497065
vt 0.876712 0.001957
vt 0.998043 0.001957
vt 0.876712 0.497065
vt 0.998043 0.497065
vn 0.000000 -0.000000 1.000000
vn 0.000000 -0.000000 1.000000
vn 0.000000 -0.000000 1.000000
vn 0.000000 -0.000000 1.000000
vn 0.000000 -0.000000 1.000000
vn 0.000000 -0.000000 1.000000
vn -0.855712 -0.036009 0.516198
vn -0.855712 -0.036009 0.516198
vn -0.855712 -0.036009 0.516198
vn -0.855712 -0.036009 0.516198
vn -0.855712 -0.036009 0.516198
vn -0.855712 -0.036009 0.516198
s off
g Ju_HerbeHauteA
usemtl Ju_HerbeHauteASG
f 1/1/1 2/2/2 4/4/3
f 4/4/4 3/3/5 1/1/6
f 5/9/7 8/12/8 6/10/9
f 8/12/10 5/9/11 7/11/12
