# This file uses meters as units for non-parametric coordinates.

mtllib ju_palma.max.fobj.mtl
g default
v -40.473187 -0.017431 -65.174228
v 41.580766 -0.017431 76.947439
v -88.886487 126.339006 -37.222832
v -6.832534 126.339006 104.898858
v -178.062415 166.305459 14.262888
v -96.008456 166.305459 156.384587
v -248.369312 166.814041 54.854584
v -166.315365 166.814041 196.976256
v -133.474445 155.465841 -11.479980
v -51.420498 155.465853 130.641723
v -59.010905 -0.015511 44.833773
v 44.246680 -0.015511 -58.423775
v -23.836569 112.420297 80.008155
v 79.421037 112.420297 -23.249403
v 40.953600 141.778529 144.798350
v 144.211209 141.778529 41.540781
v 92.034614 125.226367 195.879376
v 195.292199 125.226367 92.621821
v 8.558507 136.540031 112.403250
v 111.816132 136.540043 9.145692
v -11.380556 -0.013945 57.716805
v -11.380534 -0.013945 -73.569554
v 33.341718 150.152957 57.716835
v 33.341748 150.152957 -73.569548
v 115.718889 192.046630 57.716835
v 115.718925 192.046630 -73.569566
v 180.665612 192.453504 57.716841
v 180.665648 192.453504 -73.569554
v 74.530292 181.760311 57.716841
v 74.530339 181.760311 -73.569554
v 43.229708 -0.013106 14.237157
v -72.718418 -0.013106 -27.964541
v 57.605600 94.991732 -25.260192
v -58.342540 94.991732 -67.461908
v 84.085560 125.041699 -98.013216
v -31.862587 125.041699 -140.214932
v 104.962528 125.424087 -155.372190
v -10.985593 125.424087 -197.573900
v 70.845580 116.891611 -61.636698
v -45.102561 116.891623 -103.838420
v 36.820868 -0.012276 -24.893118
v -63.264811 -0.012276 32.891357
v 17.136788 138.183653 -58.986998
v -82.948911 138.183653 -1.202522
v -19.120768 168.046236 -121.786940
v -119.206464 168.046236 -64.002466
v -47.706470 150.881541 -171.298838
v -147.792149 150.881541 -113.514364
v -0.991983 161.452901 -90.386963
v -101.077688 161.452901 -32.602495
vt 0.843444 0.502935
vt 0.688845 0.502935
vt 0.843444 0.587084
vt 0.688845 0.587084
vt 0.843444 0.677104
vt 0.688845 0.677104
vt 0.843444 0.749511
vt 0.688845 0.749511
vt 0.843444 0.502935
vt 0.688845 0.502935
vt 0.843444 0.587084
vt 0.688845 0.587084
vt 0.843444 0.677104
vt 0.688845 0.677104
vt 0.843444 0.749511
vt 0.688845 0.749511
vt 0.843444 0.502935
vt 0.688845 0.502935
vt 0.843444 0.587084
vt 0.688845 0.587084
vt 0.843444 0.677104
vt 0.688845 0.677104
vt 0.843444 0.749511
vt 0.688845 0.749511
vt 0.688845 0.632094
vt 0.843444 0.632094
vt 0.688845 0.632094
vt 0.843444 0.632094
vt 0.843444 0.632094
vt 0.688845 0.632094
vt 0.843444 0.587084
vt 0.690802 0.587084
vt 0.690802 0.502935
vt 0.843444 0.502935
vt 0.843444 0.632094
vt 0.690802 0.632094
vt 0.843444 0.677104
vt 0.843444 0.749511
vt 0.690802 0.749511
vt 0.690802 0.677104
vt 0.843444 0.502935
vt 0.688845 0.502935
vt 0.843444 0.587084
vt 0.688845 0.587084
vt 0.843444 0.677104
vt 0.688845 0.677104
vt 0.843444 0.749511
vt 0.688845 0.749511
vt 0.688845 0.632094
vt 0.843444 0.632094
vt 0.843444 0.502935
vt 0.688845 0.502935
vt 0.843444 0.587084
vt 0.688845 0.587084
vt 0.843444 0.677104
vt 0.688845 0.677104
vt 0.843444 0.749511
vt 0.688845 0.749511
vt 0.843444 0.502935
vt 0.688845 0.502935
vt 0.843444 0.587084
vt 0.688845 0.587084
vt 0.843444 0.677104
vt 0.688845 0.677104
vt 0.843444 0.749511
vt 0.688845 0.749511
vt 0.843444 0.502935
vt 0.688845 0.502935
vt 0.843444 0.587084
vt 0.688845 0.587084
vt 0.843444 0.677104
vt 0.688845 0.677104
vt 0.843444 0.749511
vt 0.688845 0.749511
vt 0.688845 0.632094
vt 0.843444 0.632094
vt 0.688845 0.632094
vt 0.843444 0.632094
vt 0.843444 0.632094
vt 0.688845 0.632094
vt 0.843444 0.587084
vt 0.690802 0.587084
vt 0.690802 0.502935
vt 0.843444 0.502935
vt 0.843444 0.632094
vt 0.690802 0.632094
vt 0.843444 0.677104
vt 0.843444 0.749511
vt 0.690802 0.749511
vt 0.690802 0.677104
vt 0.843444 0.502935
vt 0.688845 0.502935
vt 0.843444 0.587084
vt 0.688845 0.587084
vt 0.843444 0.677104
vt 0.688845 0.677104
vt 0.843444 0.749511
vt 0.688845 0.749511
vt 0.688845 0.632094
vt 0.843444 0.632094
vt 0.843444 0.502935
vt 0.688845 0.502935
vt 0.843444 0.587084
vt 0.688845 0.587084
vt 0.843444 0.677104
vt 0.688845 0.677104
vt 0.843444 0.749511
vt 0.688845 0.749511
vt 0.843444 0.502935
vt 0.688845 0.502935
vt 0.843444 0.587084
vt 0.688845 0.587084
vt 0.843444 0.677104
vt 0.688845 0.677104
vt 0.843444 0.749511
vt 0.688845 0.749511
vt 0.843444 0.502935
vt 0.688845 0.502935
vt 0.843444 0.587084
vt 0.688845 0.587084
vt 0.843444 0.677104
vt 0.688845 0.677104
vt 0.843444 0.749511
vt 0.688845 0.749511
vt 0.688845 0.632094
vt 0.843444 0.632094
vt 0.688845 0.632094
vt 0.843444 0.632094
vt 0.843444 0.632094
vt 0.688845 0.632094
vt 0.843444 0.587084
vt 0.690802 0.587084
vt 0.690802 0.502935
vt 0.843444 0.502935
vt 0.843444 0.632094
vt 0.690802 0.632094
vt 0.843444 0.677104
vt 0.843444 0.749511
vt 0.690802 0.749511
vt 0.690802 0.677104
vt 0.843444 0.502935
vt 0.688845 0.502935
vt 0.843444 0.587084
vt 0.688845 0.587084
vt 0.843444 0.677104
vt 0.688845 0.677104
vt 0.843444 0.749511
vt 0.688845 0.749511
vt 0.688845 0.632094
vt 0.843444 0.632094
vt 0.843444 0.502935
vt 0.688845 0.502935
vt 0.843444 0.587084
vt 0.688845 0.587084
vt 0.843444 0.677104
vt 0.688845 0.677104
vt 0.843444 0.749511
vt 0.688845 0.749511
vt 0.843444 0.502935
vt 0.688845 0.502935
vt 0.843444 0.587084
vt 0.688845 0.587084
vt 0.843444 0.677104
vt 0.688845 0.677104
vt 0.843444 0.749511
vt 0.688845 0.749511
vt 0.843444 0.502935
vt 0.688845 0.502935
vt 0.843444 0.587084
vt 0.688845 0.587084
vt 0.843444 0.677104
vt 0.688845 0.677104
vt 0.843444 0.749511
vt 0.688845 0.749511
vt 0.688845 0.632094
vt 0.843444 0.632094
vt 0.688845 0.632094
vt 0.843444 0.632094
vt 0.843444 0.632094
vt 0.688845 0.632094
vt 0.843444 0.587084
vt 0.690802 0.587084
vt 0.690802 0.502935
vt 0.843444 0.502935
vt 0.843444 0.632094
vt 0.690802 0.632094
vt 0.843444 0.677104
vt 0.843444 0.749511
vt 0.690802 0.749511
vt 0.690802 0.677104
vt 0.843444 0.502935
vt 0.688845 0.502935
vt 0.843444 0.587084
vt 0.688845 0.587084
vt 0.843444 0.677104
vt 0.688845 0.677104
vt 0.843444 0.749511
vt 0.688845 0.749511
vt 0.688845 0.632094
vt 0.843444 0.632094
vt 0.843444 0.502935
vt 0.688845 0.502935
vt 0.843444 0.587084
vt 0.688845 0.587084
vt 0.843444 0.677104
vt 0.688845 0.677104
vt 0.843444 0.749511
vt 0.688845 0.749511
vt 0.843444 0.502935
vt 0.688845 0.502935
vt 0.843444 0.587084
vt 0.688845 0.587084
vt 0.843444 0.677104
vt 0.688845 0.677104
vt 0.843444 0.749511
vt 0.688845 0.749511
vt 0.843444 0.502935
vt 0.688845 0.502935
vt 0.843444 0.587084
vt 0.688845 0.587084
vt 0.843444 0.677104
vt 0.688845 0.677104
vt 0.843444 0.749511
vt 0.688845 0.749511
vt 0.688845 0.632094
vt 0.843444 0.632094
vt 0.688845 0.632094
vt 0.843444 0.632094
vt 0.843444 0.632094
vt 0.688845 0.632094
vt 0.843444 0.587084
vt 0.690802 0.587084
vt 0.690802 0.502935
vt 0.843444 0.502935
vt 0.843444 0.632094
vt 0.690802 0.632094
vt 0.843444 0.677104
vt 0.843444 0.749511
vt 0.690802 0.749511
vt 0.690802 0.677104
vt 0.843444 0.502935
vt 0.688845 0.502935
vt 0.843444 0.587084
vt 0.688845 0.587084
vt 0.843444 0.677104
vt 0.688845 0.677104
vt 0.843444 0.749511
vt 0.688845 0.749511
vt 0.688845 0.632094
vt 0.843444 0.632094
vn 0.641720 0.671512 -0.370497
vn 0.641720 0.671511 -0.370497
vn 0.791977 0.404593 -0.457248
vn 0.791977 0.404593 -0.457248
vn 0.791977 0.404593 -0.457248
vn 0.641720 0.671512 -0.370497
vn 0.306028 0.935484 -0.176685
vn 0.306028 0.935484 -0.176685
vn 0.641720 0.671511 -0.370497
vn 0.306028 0.935484 -0.176685
vn 0.306028 0.935484 -0.176685
vn 0.092389 0.994293 -0.053341
vn 0.005425 0.999980 -0.003132
vn 0.005425 0.999980 -0.003132
vn 0.092389 0.994293 -0.053341
vn 0.092389 0.994293 -0.053341
vn 0.092389 0.994293 -0.053341
vn 0.005425 0.999980 -0.003132
vn 0.641720 0.671511 -0.370497
vn 0.641720 0.671512 -0.370497
vn 0.306028 0.935484 -0.176685
vn 0.092389 0.994293 -0.053341
vn 0.092389 0.994293 -0.053341
vn 0.306028 0.935484 -0.176685
vn -0.516724 0.682636 -0.516725
vn -0.516724 0.682636 -0.516725
vn -0.646647 0.404593 -0.646647
vn -0.646647 0.404593 -0.646647
vn -0.646647 0.404593 -0.646647
vn -0.516724 0.682636 -0.516725
vn -0.208442 0.955565 -0.208442
vn -0.208442 0.955565 -0.208442
vn -0.516724 0.682636 -0.516725
vn -0.208442 0.955565 -0.208442
vn -0.208442 0.955565 -0.208442
vn 0.039363 0.998449 0.039363
vn 0.157926 0.974740 0.157926
vn 0.157926 0.974740 0.157926
vn 0.039363 0.998449 0.039363
vn 0.039363 0.998449 0.039363
vn 0.039363 0.998449 0.039363
vn 0.157926 0.974740 0.157926
vn -0.516724 0.682636 -0.516725
vn -0.516724 0.682636 -0.516725
vn -0.208442 0.955565 -0.208442
vn 0.039363 0.998449 0.039363
vn 0.039363 0.998449 0.039363
vn -0.208442 0.955565 -0.208442
vn -0.823718 0.566999 -0.000000
vn -0.823718 0.566999 -0.000000
vn -0.958400 0.285428 -0.000000
vn -0.958400 0.285428 -0.000000
vn -0.958400 0.285428 -0.000000
vn -0.823718 0.566999 -0.000000
vn -0.434634 0.900607 -0.000000
vn -0.434634 0.900607 -0.000000
vn -0.823718 0.566999 -0.000000
vn -0.434634 0.900607 -0.000000
vn -0.434634 0.900607 -0.000000
vn -0.125169 0.992135 -0.000000
vn -0.006265 0.999980 -0.000000
vn -0.006265 0.999980 -0.000000
vn -0.125169 0.992135 -0.000000
vn -0.125169 0.992135 -0.000000
vn -0.125169 0.992135 -0.000000
vn -0.006265 0.999980 -0.000000
vn -0.823718 0.566999 -0.000000
vn -0.823718 0.566999 -0.000000
vn -0.434634 0.900607 -0.000000
vn -0.125169 0.992135 -0.000000
vn -0.125169 0.992135 -0.000000
vn -0.434634 0.900607 -0.000000
vn -0.253435 0.671511 0.696307
vn -0.253435 0.671511 0.696307
vn -0.312777 0.404593 0.859346
vn -0.312777 0.404593 0.859346
vn -0.312777 0.404593 0.859346
vn -0.253435 0.671511 0.696307
vn -0.120860 0.935484 0.332059
vn -0.120860 0.935484 0.332059
vn -0.253435 0.671511 0.696307
vn -0.120860 0.935484 0.332059
vn -0.120860 0.935484 0.332059
vn -0.036487 0.994293 0.100248
vn -0.002143 0.999980 0.005887
vn -0.002143 0.999980 0.005887
vn -0.036487 0.994293 0.100248
vn -0.036487 0.994293 0.100248
vn -0.036487 0.994293 0.100248
vn -0.002143 0.999980 0.005887
vn -0.253435 0.671511 0.696307
vn -0.253435 0.671511 0.696307
vn -0.120860 0.935484 0.332059
vn -0.036487 0.994293 0.100248
vn -0.036487 0.994293 0.100248
vn -0.120860 0.935484 0.332059
vn 0.401384 0.596291 0.695218
vn 0.401384 0.596291 0.695218
vn 0.480869 0.273972 0.832889
vn 0.480869 0.273972 0.832889
vn 0.480869 0.273972 0.832889
vn 0.401384 0.596291 0.695218
vn 0.183242 0.930424 0.317384
vn 0.183242 0.930425 0.317384
vn 0.401384 0.596291 0.695218
vn 0.183242 0.930425 0.317384
vn 0.183242 0.930424 0.317384
vn -0.027932 0.998438 -0.048380
vn -0.143776 0.957765 -0.249027
vn -0.143776 0.957765 -0.249027
vn -0.027932 0.998438 -0.048381
vn -0.027932 0.998438 -0.048381
vn -0.027932 0.998438 -0.048380
vn -0.143776 0.957765 -0.249027
vn 0.401384 0.596291 0.695218
vn 0.401384 0.596291 0.695218
vn 0.183242 0.930424 0.317384
vn -0.027932 0.998438 -0.048380
vn -0.027932 0.998438 -0.048381
vn 0.183242 0.930425 0.317384
s off
g Ju_PalmA
usemtl Ju_PalmASG
f 3/31/1 4/32/2 2/33/3
f 2/33/4 1/34/5 3/31/6
f 9/35/7 10/36/8 4/32/9
f 10/36/10 9/35/11 5/37/12
f 7/38/13 8/39/14 6/40/15
f 6/40/16 5/37/17 7/38/18
f 4/32/19 3/31/20 9/35/21
f 5/37/22 6/40/23 10/36/24
f 13/81/25 14/82/26 12/83/27
f 12/83/28 11/84/29 13/81/30
f 19/85/31 20/86/32 14/82/33
f 20/86/34 19/85/35 15/87/36
f 17/88/37 18/89/38 16/90/39
f 16/90/40 15/87/41 17/88/42
f 14/82/43 13/81/44 19/85/45
f 15/87/46 16/90/47 20/86/48
f 23/131/49 24/132/50 22/133/51
f 22/133/52 21/134/53 23/131/54
f 29/135/55 30/136/56 24/132/57
f 30/136/58 29/135/59 25/137/60
f 27/138/61 28/139/62 26/140/63
f 26/140/64 25/137/65 27/138/66
f 24/132/67 23/131/68 29/135/69
f 25/137/70 26/140/71 30/136/72
f 33/181/73 34/182/74 32/183/75
f 32/183/76 31/184/77 33/181/78
f 39/185/79 40/186/80 34/182/81
f 40/186/82 39/185/83 35/187/84
f 37/188/85 38/189/86 36/190/87
f 36/190/88 35/187/89 37/188/90
f 34/182/91 33/181/92 39/185/93
f 35/187/94 36/190/95 40/186/96
f 43/231/97 44/232/98 42/233/99
f 42/233/100 41/234/101 43/231/102
f 49/235/103 50/236/104 44/232/105
f 50/236/106 49/235/107 45/237/108
f 47/238/109 48/239/110 46/240/111
f 46/240/112 45/237/113 47/238/114
f 44/232/115 43/231/116 49/235/117
f 45/237/118 46/240/119 50/236/120
