# This file uses meters as units for non-parametric coordinates.

mtllib ju_tuberculea.max.fobj.mtl
g default
v 0.000000 25.000000 0.000000
v 3.594576 20.225425 -13.271318
v -8.531158 20.225425 -11.146232
v -13.975424 20.225425 0.000001
v -8.637286 20.225425 11.888207
v 0.000002 20.225425 13.857150
v 11.306357 20.225425 8.214547
v 12.510034 20.225425 -3.688244
v -0.000001 10.072521 -21.420193
v -12.590474 10.072521 -17.329298
v -20.371816 10.072521 -6.619202
v -20.371813 10.072521 6.619205
v -12.590471 10.072521 17.329302
v 0.000003 10.072521 21.420193
v 12.590474 10.072521 17.329298
v 20.371816 10.072521 6.619199
v 20.371813 10.072521 -6.619208
v 12.590471 10.072521 -17.329302
v -0.000001 -0.893155 -23.776412
v -13.975425 -0.893155 -19.235519
v -22.612712 -0.893155 -7.347313
v -22.612710 -0.893155 7.347318
v -13.975422 -0.893155 19.235525
v 0.000003 -0.893155 23.776412
v 13.975427 -0.893155 19.235519
v 22.612713 -0.893155 7.347312
v 22.612710 -0.893155 -7.347319
v 13.975421 -0.893155 -19.235522
v -42.449787 21.334572 -36.367354
v -55.805057 21.334572 -11.702993
v -54.101312 21.334572 17.099160
v -36.164224 21.334572 41.825077
v 49.264574 21.334572 -23.747268
v 29.735965 21.334572 -46.115950
v 0.606805 21.334572 -55.741376
v -26.515970 21.334572 -46.675855
v 10.894385 21.334569 59.956312
v 36.984569 21.334569 45.941368
v 53.765416 21.334569 21.108982
v 54.201245 21.334569 -6.634721
vt 0.561644 0.939335
vt 0.569472 0.966732
vt 0.544031 0.960861
vt 0.530333 0.939335
vt 0.544031 0.913894
vt 0.561644 0.908023
vt 0.585127 0.921722
vt 0.589041 0.945205
vt 0.561644 0.984344
vt 0.534247 0.974560
vt 0.516634 0.951076
vt 0.516634 0.923679
vt 0.534247 0.902153
vt 0.561644 0.892368
vt 0.590998 0.902153
vt 0.606654 0.923679
vt 0.606654 0.951076
vt 0.590998 0.974560
vt 0.561644 1.000000
vt 0.524462 0.988258
vt 0.500978 0.958904
vt 0.500978 0.917808
vt 0.524462 0.888454
vt 0.561644 0.876712
vt 0.600783 0.888454
vt 0.624266 0.917808
vt 0.624266 0.958904
vt 0.600783 0.988258
vt 0.626223 0.872798
vt 0.587084 0.872798
vt 0.587084 0.814090
vt 0.626223 0.814090
vt 0.538160 0.872798
vt 0.538160 0.814090
vt 0.500978 0.872798
vt 0.500978 0.814090
vt 0.626223 0.872798
vt 0.587084 0.872798
vt 0.587084 0.814090
vt 0.626223 0.814090
vt 0.538160 0.872798
vt 0.538160 0.814090
vt 0.500978 0.872798
vt 0.500978 0.814090
vt 0.626223 0.872798
vt 0.587084 0.872798
vt 0.587084 0.814090
vt 0.626223 0.814090
vt 0.538160 0.872798
vt 0.538160 0.814090
vt 0.500978 0.872798
vt 0.500978 0.814090
vn 0.011393 0.999898 -0.008633
vn 0.168887 0.792643 -0.585828
vn -0.359547 0.777692 -0.515674
vn 0.011393 0.999898 -0.008633
vn -0.359547 0.777692 -0.515674
vn -0.618571 0.785611 0.013581
vn 0.011393 0.999898 -0.008633
vn -0.618571 0.785611 0.013581
vn -0.428830 0.758193 0.491170
vn 0.011393 0.999898 -0.008633
vn -0.428830 0.758193 0.491170
vn 0.056701 0.787353 0.613890
vn 0.011393 0.999898 -0.008633
vn 0.056701 0.787353 0.613890
vn 0.508694 0.790373 0.341382
vn 0.011393 0.999898 -0.008633
vn 0.508694 0.790373 0.341382
vn 0.585618 0.791940 -0.172864
vn 0.011393 0.999898 -0.008633
vn 0.585618 0.791940 -0.172864
vn 0.168887 0.792643 -0.585828
vn 0.168887 0.792643 -0.585828
vn -0.012601 0.829862 -0.557826
vn -0.358204 0.786105 -0.503714
vn 0.168887 0.792643 -0.585828
vn -0.358204 0.786105 -0.503714
vn -0.359547 0.777692 -0.515674
vn -0.359547 0.777692 -0.515674
vn -0.358204 0.786105 -0.503714
vn -0.548629 0.816006 -0.182043
vn -0.359547 0.777692 -0.515674
vn -0.548629 0.816006 -0.182043
vn -0.618571 0.785611 0.013581
vn -0.618571 0.785611 0.013581
vn -0.548629 0.816006 -0.182043
vn -0.528761 0.828432 0.184695
vn -0.618571 0.785611 0.013581
vn -0.528761 0.828432 0.184695
vn -0.442359 0.638001 0.630296
vn -0.618571 0.785611 0.013581
vn -0.442359 0.638001 0.630296
vn -0.428830 0.758193 0.491170
vn -0.428830 0.758193 0.491170
vn -0.442359 0.638001 0.630296
vn -0.016646 0.616691 0.787029
vn -0.428830 0.758193 0.491170
vn -0.016646 0.616691 0.787029
vn 0.056701 0.787353 0.613890
vn 0.056701 0.787353 0.613890
vn -0.016646 0.616691 0.787029
vn 0.332829 0.814361 0.475437
vn 0.056701 0.787353 0.613890
vn 0.332829 0.814361 0.475437
vn 0.508694 0.790373 0.341382
vn 0.508694 0.790373 0.341382
vn 0.332829 0.814361 0.475437
vn 0.536785 0.827681 0.163724
vn 0.508694 0.790373 0.341382
vn 0.536785 0.827681 0.163724
vn 0.572340 0.799908 -0.180485
vn 0.508694 0.790373 0.341382
vn 0.572340 0.799908 -0.180485
vn 0.585618 0.791940 -0.172864
vn 0.585618 0.791940 -0.172864
vn 0.572340 0.799908 -0.180485
vn 0.337031 0.828603 -0.447020
vn 0.585618 0.791940 -0.172864
vn 0.337031 0.828603 -0.447020
vn 0.168887 0.792643 -0.585828
vn 0.168887 0.792643 -0.585828
vn 0.337031 0.828603 -0.447020
vn -0.012601 0.829862 -0.557826
vn -0.012601 0.829862 -0.557826
vn -0.000000 0.210077 -0.977685
vn -0.574669 0.210077 -0.790964
vn -0.012601 0.829862 -0.557826
vn -0.574669 0.210077 -0.790964
vn -0.358204 0.786105 -0.503714
vn -0.358204 0.786105 -0.503714
vn -0.574669 0.210077 -0.790964
vn -0.929833 0.210077 -0.302121
vn -0.358204 0.786105 -0.503714
vn -0.929833 0.210077 -0.302121
vn -0.548629 0.816006 -0.182043
vn -0.548629 0.816006 -0.182043
vn -0.929833 0.210077 -0.302121
vn -0.929833 0.210077 0.302121
vn -0.548629 0.816006 -0.182043
vn -0.929833 0.210077 0.302121
vn -0.528761 0.828432 0.184695
vn -0.528761 0.828432 0.184695
vn -0.929833 0.210077 0.302121
vn -0.574669 0.210077 0.790964
vn -0.528761 0.828432 0.184695
vn -0.574669 0.210077 0.790964
vn -0.442359 0.638001 0.630296
vn -0.442359 0.638001 0.630296
vn -0.574669 0.210077 0.790964
vn 0.000000 0.210077 0.977685
vn -0.442359 0.638001 0.630296
vn 0.000000 0.210077 0.977685
vn -0.016646 0.616691 0.787029
vn -0.016646 0.616691 0.787029
vn 0.000000 0.210077 0.977685
vn 0.574669 0.210077 0.790964
vn -0.016646 0.616691 0.787029
vn 0.574669 0.210077 0.790964
vn 0.332829 0.814361 0.475437
vn 0.332829 0.814361 0.475437
vn 0.574669 0.210077 0.790964
vn 0.929834 0.210077 0.302121
vn 0.332829 0.814361 0.475437
vn 0.929834 0.210077 0.302121
vn 0.536785 0.827681 0.163724
vn 0.536785 0.827681 0.163724
vn 0.929834 0.210077 0.302121
vn 0.929833 0.210077 -0.302121
vn 0.536785 0.827681 0.163724
vn 0.929833 0.210077 -0.302121
vn 0.572340 0.799908 -0.180485
vn 0.572340 0.799908 -0.180485
vn 0.929833 0.210077 -0.302121
vn 0.574669 0.210077 -0.790964
vn 0.572340 0.799908 -0.180485
vn 0.574669 0.210077 -0.790964
vn 0.337031 0.828603 -0.447020
vn 0.337031 0.828603 -0.447020
vn 0.574669 0.210077 -0.790964
vn -0.000000 0.210077 -0.977685
vn 0.337031 0.828603 -0.447020
vn -0.000000 0.210077 -0.977685
vn -0.012601 0.829862 -0.557826
vn 0.271781 0.949350 0.157699
vn 0.296435 0.952887 0.064288
vn -0.548629 0.816006 -0.182043
vn -0.548629 0.816006 -0.182043
vn -0.358204 0.786105 -0.503714
vn 0.271781 0.949350 0.157699
vn 0.296435 0.952887 0.064288
vn 0.286778 0.952691 -0.100691
vn -0.528761 0.828432 0.184695
vn -0.528761 0.828432 0.184695
vn -0.548629 0.816006 -0.182043
vn 0.296435 0.952887 0.064288
vn 0.286778 0.952691 -0.100691
vn 0.258172 0.947771 -0.187288
vn -0.442359 0.638001 0.630296
vn -0.442359 0.638001 0.630296
vn -0.528761 0.828432 0.184695
vn 0.286778 0.952691 -0.100691
vn -0.252916 0.944100 0.211445
vn -0.174440 0.947878 0.266642
vn 0.337031 0.828603 -0.447020
vn 0.337031 0.828603 -0.447020
vn 0.572340 0.799908 -0.180485
vn -0.252916 0.944100 0.211445
vn -0.174440 0.947878 0.266642
vn -0.000597 0.950038 0.312133
vn -0.012601 0.829862 -0.557826
vn -0.012601 0.829862 -0.557826
vn 0.337031 0.828603 -0.447020
vn -0.174440 0.947878 0.266642
vn -0.000597 0.950038 0.312133
vn 0.104519 0.944082 0.312705
vn -0.358204 0.786105 -0.503714
vn -0.358204 0.786105 -0.503714
vn -0.012601 0.829862 -0.557826
vn -0.000597 0.950038 0.312133
vn -0.126406 0.957817 -0.258085
vn -0.191879 0.957554 -0.215109
vn 0.332829 0.814361 0.475437
vn 0.332829 0.814361 0.475437
vn -0.016646 0.616691 0.787029
vn -0.126406 0.957817 -0.258085
vn -0.191879 0.957554 -0.215109
vn -0.281238 0.955158 -0.092622
vn 0.536785 0.827681 0.163724
vn 0.536785 0.827681 0.163724
vn 0.332829 0.814361 0.475437
vn -0.191879 0.957554 -0.215109
vn -0.281238 0.955158 -0.092622
vn -0.315862 0.948792 -0.004962
vn 0.572340 0.799908 -0.180485
vn 0.572340 0.799908 -0.180485
vn 0.536785 0.827681 0.163724
vn -0.281238 0.955158 -0.092622
s off
g Ju_TuberculeA
usemtl Ju_TuberculeASG
f 1/1/1 2/2/2 3/3/3
f 1/1/4 3/3/5 4/4/6
f 1/1/7 4/4/8 5/5/9
f 1/1/10 5/5/11 6/6/12
f 1/1/13 6/6/14 7/7/15
f 1/1/16 7/7/17 8/8/18
f 1/1/19 8/8/20 2/2/21
f 2/2/22 9/9/23 10/10/24
f 2/2/25 10/10/26 3/3/27
f 3/3/28 10/10/29 11/11/30
f 3/3/31 11/11/32 4/4/33
f 4/4/34 11/11/35 12/12/36
f 4/4/37 12/12/38 13/13/39
f 4/4/40 13/13/41 5/5/42
f 5/5/43 13/13/44 14/14/45
f 5/5/46 14/14/47 6/6/48
f 6/6/49 14/14/50 15/15/51
f 6/6/52 15/15/53 7/7/54
f 7/7/55 15/15/56 16/16/57
f 7/7/58 16/16/59 17/17/60
f 7/7/61 17/17/62 8/8/63
f 8/8/64 17/17/65 18/18/66
f 8/8/67 18/18/68 2/2/69
f 2/2/70 18/18/71 9/9/72
f 9/9/73 19/19/74 20/20/75
f 9/9/76 20/20/77 10/10/78
f 10/10/79 20/20/80 21/21/81
f 10/10/82 21/21/83 11/11/84
f 11/11/85 21/21/86 22/22/87
f 11/11/88 22/22/89 12/12/90
f 12/12/91 22/22/92 23/23/93
f 12/12/94 23/23/95 13/13/96
f 13/13/97 23/23/98 24/24/99
f 13/13/100 24/24/101 14/14/102
f 14/14/103 24/24/104 25/25/105
f 14/14/106 25/25/107 15/15/108
f 15/15/109 25/25/110 26/26/111
f 15/15/112 26/26/113 16/16/114
f 16/16/115 26/26/116 27/27/117
f 16/16/118 27/27/119 17/17/120
f 17/17/121 27/27/122 28/28/123
f 17/17/124 28/28/125 18/18/126
f 18/18/127 28/28/128 19/19/129
f 18/18/130 19/19/131 9/9/132
f 29/29/133 30/30/134 11/31/135
f 11/31/136 10/32/137 29/29/138
f 30/30/139 31/33/140 12/34/141
f 12/34/142 11/31/143 30/30/144
f 31/33/145 32/35/146 13/36/147
f 13/36/148 12/34/149 31/33/150
f 33/37/151 34/38/152 18/39/153
f 18/39/154 17/40/155 33/37/156
f 34/38/157 35/41/158 9/42/159
f 9/42/160 18/39/161 34/38/162
f 35/41/163 36/43/164 10/44/165
f 10/44/166 9/42/167 35/41/168
f 37/45/169 38/46/170 15/47/171
f 15/47/172 14/48/173 37/45/174
f 38/46/175 39/49/176 16/50/177
f 16/50/178 15/47/179 38/46/180
f 39/49/181 40/51/182 17/52/183
f 17/52/184 16/50/185 39/49/186
