# This file uses meters as units for non-parametric coordinates.

mtllib ju_vegeta.max.fobj.mtl
g default
v -26.145694 9.588141 28.000000
v 26.145694 9.588141 28.000000
v -26.145694 9.588142 -28.000000
v 26.145694 9.588142 -28.000000
v 0.000000 1.212163 -0.000000
vt 0.003914 0.252446
vt 0.183953 0.252446
vt 0.003922 0.435294
vt 0.184314 0.435294
vt 0.090196 0.337255
vn 0.149680 0.976908 0.152467
vn 0.149680 0.976908 -0.152467
vn 0.000000 1.000000 0.000000
vn -0.149680 0.976908 -0.152467
vn 0.000000 1.000000 0.000000
vn 0.149680 0.976908 -0.152467
vn -0.149680 0.976908 -0.152467
vn -0.149680 0.976908 0.152467
vn 0.000000 1.000000 0.000000
vn 0.149680 0.976908 0.152467
vn 0.000000 1.000000 0.000000
vn -0.149680 0.976908 0.152467
s off
g Ju_VegetA
usemtl Ju_VegetASG
f 3/3/1 1/1/2 5/5/3
f 2/2/4 5/5/5 1/1/6
f 2/2/7 4/4/8 5/5/9
f 3/3/10 5/5/11 4/4/12
