# This file uses meters as units for non-parametric coordinates.

mtllib fy_braisebburn.max.fobj.mtl
g default
v -16.782288 -0.000000 7.539866
v 19.532041 -0.000000 9.799080
v -20.901683 0.000000 -9.454824
v 19.532041 0.000000 -12.573609
v -12.738815 8.288120 5.733344
v 15.488568 11.908413 7.992558
v -16.858210 8.288120 -7.648301
v 15.488568 11.908413 -10.767087
vt 0.168540 0.293309
vt 0.170497 0.228729
vt 0.235076 0.293309
vt 0.215507 0.205246
vt 0.184196 0.293309
vt 0.186153 0.228729
vt 0.215507 0.293309
vt 0.215507 0.228729
vt 0.184196 0.312878
vt 0.186153 0.205246
vt 0.217464 0.312878
vt 0.235076 0.228729
vt 0.184196 0.293309
vt 0.186153 0.228729
vt 0.215507 0.293309
vt 0.215507 0.228729
vt 0.186153 0.293309
vt 0.186153 0.224815
vt 0.215507 0.293309
vt 0.215507 0.224815
vn -0.633646 -0.423694 0.647284
vn -0.772600 -0.385562 -0.504413
vn 0.634632 -0.447028 -0.630403
vn 0.634632 -0.447028 -0.630403
vn 0.644400 -0.449179 0.618860
vn -0.633646 -0.423694 0.647284
vn -0.421046 0.720732 0.550696
vn 0.413549 0.722721 0.553761
vn 0.403494 0.716680 -0.568825
vn 0.403494 0.716680 -0.568825
vn -0.560412 0.715622 -0.416921
vn -0.421046 0.720732 0.550696
vn -0.633646 -0.423694 0.647284
vn 0.644400 -0.449179 0.618860
vn 0.413549 0.722721 0.553761
vn 0.413549 0.722721 0.553761
vn -0.421046 0.720732 0.550696
vn -0.633646 -0.423694 0.647284
vn 0.644400 -0.449179 0.618860
vn 0.634632 -0.447028 -0.630403
vn 0.403494 0.716680 -0.568825
vn 0.403494 0.716680 -0.568825
vn 0.413549 0.722721 0.553761
vn 0.644400 -0.449179 0.618860
vn 0.634632 -0.447028 -0.630403
vn -0.772600 -0.385562 -0.504413
vn -0.560412 0.715622 -0.416921
vn -0.560412 0.715622 -0.416921
vn 0.403494 0.716680 -0.568825
vn 0.634632 -0.447028 -0.630403
vn -0.772600 -0.385562 -0.504413
vn -0.633646 -0.423694 0.647284
vn -0.421046 0.720732 0.550696
vn -0.421046 0.720732 0.550696
vn -0.560412 0.715622 -0.416921
vn -0.772600 -0.385562 -0.504413
s off
g Fy_BraiseBBurn
usemtl Fy_BraiseBBurnSG
f 1/17/1 3/19/2 4/20/3
f 4/20/4 2/18/5 1/17/6
f 5/13/7 6/14/8 8/16/9
f 8/16/10 7/15/11 5/13/12
f 1/1/13 2/2/14 6/6/15
f 6/6/16 5/5/17 1/1/18
f 2/10/19 4/4/20 8/8/21
f 8/8/22 6/6/23 2/10/24
f 4/12/25 3/3/26 7/7/27
f 7/7/28 8/8/29 4/12/30
f 3/11/31 1/9/32 5/5/33
f 5/5/34 7/7/35 3/11/36
