# This file uses meters as units for non-parametric coordinates.

mtllib fy_braiseb.max.fobj.mtl
g default
v -16.782288 -0.000000 7.539866
v 19.532041 -0.000000 9.799080
v -20.901683 0.000000 -9.454824
v 19.532041 0.000000 -12.573609
v -12.738815 8.288120 5.733344
v 15.488568 11.908413 7.992558
v -16.858210 8.288120 -7.648301
v 15.488568 11.908413 -10.767087
vt 0.025440 0.352250
vt 0.027397 0.287671
vt 0.091977 0.352250
vt 0.072407 0.264188
vt 0.041096 0.352250
vt 0.043053 0.287671
vt 0.072407 0.352250
vt 0.072407 0.287671
vt 0.041096 0.371820
vt 0.043053 0.264188
vt 0.074364 0.371820
vt 0.091977 0.287671
vt 0.041096 0.352250
vt 0.043053 0.287671
vt 0.072407 0.352250
vt 0.072407 0.287671
vt 0.043053 0.352250
vt 0.043053 0.283757
vt 0.072407 0.352250
vt 0.072407 0.283757
vn 0.000000 -1.000000 -0.000000
vn 0.000000 -1.000000 -0.000000
vn 0.000000 -1.000000 -0.000000
vn 0.000000 -1.000000 -0.000000
vn 0.000000 -1.000000 -0.000000
vn 0.000000 -1.000000 -0.000000
vn -0.113985 0.993218 0.022922
vn -0.127213 0.991876 0.000000
vn -0.121630 0.992528 0.009694
vn -0.121630 0.992528 0.009694
vn -0.107999 0.993595 0.033246
vn -0.113985 0.993218 0.022922
vn -0.095397 0.221627 0.970454
vn -0.061572 0.129232 0.989701
vn -0.068101 0.147036 0.986784
vn -0.068101 0.147036 0.986784
vn -0.110420 0.262793 0.958513
vn -0.095397 0.221627 0.970454
vn 0.946903 0.321519 0.000000
vn 0.946903 0.321519 0.000000
vn 0.946903 0.321519 0.000000
vn 0.946903 0.321519 0.000000
vn 0.946903 0.321519 0.000000
vn 0.946903 0.321519 0.000000
vn -0.101872 0.138156 -0.985157
vn -0.074523 0.246946 -0.966159
vn -0.079944 0.225937 -0.970856
vn -0.079944 0.225937 -0.970856
vn -0.107900 0.113198 -0.987696
vn -0.101872 0.138156 -0.985157
vn -0.877582 0.410518 0.247638
vn -0.860310 0.465167 0.208533
vn -0.869392 0.438352 0.228047
vn -0.869392 0.438352 0.228047
vn -0.886725 0.373103 0.272969
vn -0.877582 0.410518 0.247638
s off
g Fy_BraiseB
usemtl Fy_BraiseBSG
f 1/17/1 3/19/2 4/20/3
f 4/20/4 2/18/5 1/17/6
f 5/13/7 6/14/8 8/16/9
f 8/16/10 7/15/11 5/13/12
f 1/1/13 2/2/14 6/6/15
f 6/6/16 5/5/17 1/1/18
f 2/10/19 4/4/20 8/8/21
f 8/8/22 6/6/23 2/10/24
f 4/12/25 3/3/26 7/7/27
f 7/7/28 8/8/29 4/12/30
f 3/11/31 1/9/32 5/5/33
f 5/5/34 7/7/35 3/11/36
