# This file uses meters as units for non-parametric coordinates.

mtllib fy_caillouxa.max.fobj.mtl
g default
v -19.821773 -0.101020 19.828933
v 19.822915 -0.101020 19.828933
v -19.821773 -0.101020 -19.815752
v 19.822915 -0.101020 -19.815752
v -0.007661 9.513343 -0.087800
vt 0.001957 0.628180
vt 0.121331 0.628180
vt 0.001957 0.749511
vt 0.121331 0.749511
vt 0.062622 0.690802
vn -0.230061 0.945656 -0.229797
vn -0.228795 0.946130 0.229107
vn -0.000137 0.999999 -0.001569
vn 0.228735 0.946171 0.228997
vn -0.000137 0.999999 -0.001569
vn -0.228795 0.946130 0.229107
vn 0.228735 0.946171 0.228997
vn 0.230001 0.945698 -0.229686
vn -0.000137 0.999999 -0.001569
vn -0.230061 0.945656 -0.229797
vn -0.000137 0.999999 -0.001569
vn 0.230001 0.945698 -0.229686
s off
g Fy_CaillouxA
usemtl Fy_CaillouxASG
f 3/3/1 1/1/2 5/5/3
f 2/2/4 5/5/5 1/1/6
f 2/2/7 4/4/8 5/5/9
f 3/3/10 5/5/11 4/4/12
