# This file uses meters as units for non-parametric coordinates.

mtllib fy_desertroncec.max.fobj.mtl
g default
v -45.724854 24.035282 45.741457
v 45.727518 24.035282 45.741457
v -45.724854 24.035282 -45.710915
v 45.727518 24.035282 -45.710915
v -0.010691 -0.033566 -0.122535
vt 0.659491 0.755382
vt 0.904110 0.755382
vt 0.659491 1.000000
vt 0.904110 1.000000
vt 0.782779 0.878669
vn 0.247098 0.937002 0.246920
vn 0.246250 0.937346 -0.246462
vn 0.000091 0.999999 0.001047
vn -0.246210 0.937376 -0.246388
vn 0.000091 0.999999 0.001047
vn 0.246250 0.937346 -0.246462
vn -0.246210 0.937376 -0.246388
vn -0.247058 0.937032 0.246846
vn 0.000091 0.999999 0.001047
vn 0.247098 0.937002 0.246920
vn 0.000091 0.999999 0.001047
vn -0.247058 0.937032 0.246846
s off
g Fy_DesertRonceC
usemtl Fy_DesertRonceCSG
f 3/3/1 1/1/2 5/5/3
f 2/2/4 5/5/5 1/1/6
f 2/2/7 4/4/8 5/5/9
f 3/3/10 5/5/11 4/4/12
