# This file uses meters as units for non-parametric coordinates.

mtllib fy_herbeseche.max.fobj.mtl
g default
v -30.261397 -0.000000 -0.035843
v 30.261397 -0.000000 -0.035843
v -30.261397 30.000001 -0.035843
v 30.261397 30.000001 -0.035843
vt 0.409002 0.878669
vt 0.655577 0.878669
vt 0.409002 1.000000
vt 0.655577 1.000000
vn 0.000000 -0.000000 1.000000
vn 0.000000 -0.000000 1.000000
vn 0.000000 -0.000000 1.000000
vn 0.000000 -0.000000 1.000000
vn 0.000000 -0.000000 1.000000
vn 0.000000 -0.000000 1.000000
s off
g Fy_HerbeSeche
usemtl Fy_HerbeSecheSG
f 1/1/1 2/2/2 4/4/3
f 4/4/4 3/3/5 1/1/6
