# This file uses meters as units for non-parametric coordinates.

mtllib fy_herbetouffe.max.fobj.mtl
g default
v -22.712724 -0.000000 0.000004
v 1.026523 -0.000000 23.739254
v 1.026517 59.173650 23.739254
v -22.712728 59.173650 0.000004
v 24.765764 -0.000000 0.000003
v 24.765760 59.173650 0.000003
v 1.026522 0.000000 -23.739236
v 1.026516 59.173650 -23.739236
v -15.759660 0.000000 -16.786168
v -15.759660 -0.000000 16.786196
v -15.759665 44.397163 16.786193
v -15.759665 44.397163 -16.786168
v 17.812699 -0.000000 16.786187
v 17.812695 44.397163 16.786186
v 17.812695 0.000000 -16.786165
v 17.812690 44.397163 -16.786168
vt 0.409002 0.876712
vt 0.653620 0.876712
vt 0.409002 1.000000
vt 0.653620 1.000000
vt 0.409002 0.876712
vt 0.653620 0.876712
vt 0.409002 1.000000
vt 0.653620 1.000000
vt 0.409002 0.878669
vt 0.653620 0.998043
vt 0.409002 0.998043
vt 0.532290 0.878669
vt 0.653620 0.878669
vt 0.532290 0.998043
vt 0.532290 0.878669
vt 0.532290 0.998043
vt 0.653620 0.878669
vt 0.653620 0.998043
vt 0.409002 0.878669
vt 0.409002 0.998043
vt 0.409002 0.878669
vt 0.532290 0.878669
vt 0.653620 0.878669
vt 0.653620 0.998043
vt 0.532290 0.998043
vt 0.409002 0.878669
vt 0.532290 0.878669
vt 0.532290 0.998043
vt 0.409002 0.998043
vt 0.653620 0.878669
vt 0.653620 0.998043
vt 0.409002 0.878669
vt 0.409002 0.998043
vt 0.409002 0.878669
vn -0.707107 -0.000000 0.707107
vn -0.707107 -0.000000 0.707107
vn -0.707107 -0.000000 0.707107
vn -0.707107 -0.000000 0.707107
vn -0.707107 -0.000000 0.707107
vn -0.707107 -0.000000 0.707107
vn 0.707107 0.000000 0.707107
vn 0.707107 0.000000 0.707107
vn 0.707107 0.000000 0.707107
vn 0.707107 0.000000 0.707107
vn 0.707107 0.000000 0.707107
vn 0.707107 0.000000 0.707107
vn 0.707107 0.000000 -0.707107
vn 0.707107 0.000000 -0.707107
vn 0.707107 0.000000 -0.707107
vn 0.707107 0.000000 -0.707107
vn 0.707107 0.000000 -0.707107
vn 0.707107 0.000000 -0.707107
vn -0.707107 -0.000000 -0.707107
vn -0.707107 -0.000000 -0.707107
vn -0.707107 -0.000000 -0.707107
vn -0.707107 -0.000000 -0.707107
vn -0.707107 -0.000000 -0.707107
vn -0.707107 -0.000000 -0.707107
vn -0.707107 -0.000000 -0.707107
vn -0.707107 -0.000000 0.707107
vn -0.707107 -0.000000 0.707107
vn -0.707107 -0.000000 0.707107
vn -0.707107 -0.000000 -0.707107
vn -0.707107 -0.000000 -0.707107
vn -0.707107 -0.000000 0.707107
vn 0.707107 0.000000 0.707107
vn 0.707107 0.000000 0.707107
vn 0.707107 0.000000 0.707107
vn -0.707107 -0.000000 0.707107
vn -0.707107 -0.000000 0.707107
vn 0.707107 0.000000 0.707107
vn 0.707107 0.000000 -0.707107
vn 0.707107 0.000000 -0.707107
vn 0.707107 0.000000 -0.707107
vn 0.707107 0.000000 0.707107
vn 0.707107 0.000000 0.707107
vn 0.707107 0.000000 -0.707107
vn -0.707107 -0.000000 -0.707107
vn -0.707107 -0.000000 -0.707107
vn -0.707107 -0.000000 -0.707107
vn 0.707107 0.000000 -0.707107
vn 0.707107 0.000000 -0.707107
s off
g Fy_HerbeTouffe
usemtl Fy_HerbeTouffeSG
f 1/12/1 2/13/2 3/10/3
f 3/10/4 4/14/5 1/12/6
f 2/9/7 5/15/8 6/16/9
f 6/16/10 3/11/11 2/9/12
f 5/15/13 7/17/14 8/18/15
f 8/18/16 6/16/17 5/15/18
f 7/19/19 1/12/20 4/14/21
f 4/14/22 8/20/23 7/21/24
f 9/22/25 10/23/26 11/24/27
f 11/24/28 12/25/29 9/22/30
f 10/26/31 13/27/32 14/28/33
f 14/28/34 11/29/35 10/26/36
f 13/27/37 15/30/38 16/31/39
f 16/31/40 14/28/41 13/27/42
f 15/32/43 9/22/44 12/25/45
f 12/25/46 16/33/47 15/34/48
