# This file uses meters as units for non-parametric coordinates.

mtllib bonus_objet.max.fobj.mtl
g default
v -37.362692 37.272020 6.471071
v 37.196973 37.272020 6.471071
v -37.362692 41.235719 -8.321653
v 37.196973 41.235719 -8.321653
v -35.587463 42.288635 6.439441
v 35.421744 42.288635 6.439441
v -35.587463 45.564420 -5.785952
v 35.421744 45.564420 -5.785952
v -20.690884 43.043316 -7.455535
v -21.912627 46.505309 -3.980392
v -21.912628 40.231777 6.885680
v -20.690879 35.491223 5.625076
v -20.690884 47.018173 -14.340189
v -22.983851 51.900592 -5.871903
v -22.983852 41.291324 12.503885
v -20.690882 31.438957 12.643806
v -27.729180 41.224043 -8.213806
v -26.628512 45.467504 -5.753104
v -26.628512 42.220084 6.366426
v -27.729180 37.314791 6.375722
v -27.729180 43.281581 -15.892638
v -25.663444 50.189388 -8.976563
v -25.663444 44.697625 11.518966
v -27.729180 35.217183 14.204097
v 27.420598 41.224044 -8.213800
v 27.420598 43.281581 -15.892634
v 25.354862 50.189390 -8.976562
v 26.319930 45.467505 -5.753100
v 25.354862 44.697627 11.518968
v 26.319924 42.220085 6.366430
v 27.420601 35.217187 14.204103
v 27.420604 37.314794 6.375725
v 18.340068 41.224045 -8.213803
v 19.440736 45.467504 -5.753101
v 20.405804 50.189389 -8.976560
v 18.340068 43.281583 -15.892635
v 19.440736 42.220085 6.366429
v 20.405802 44.697627 11.518970
v 18.340066 37.314793 6.375725
v 18.340063 35.217184 14.204101
v -55.849180 24.924766 59.871435
v 55.832753 24.924764 59.871435
v -55.849180 57.009773 -59.871447
v 55.832753 57.009771 -59.871447
v -64.225319 0.007972 -68.852163
v -59.402499 -0.031391 63.699078
v 64.208898 0.007966 -68.852163
v 59.386077 -0.031391 63.699072
v -47.331062 27.371929 50.738507
v -47.331062 54.562609 -50.738517
v 47.314644 54.562606 -50.738511
v 47.314644 27.371928 50.738507
v -45.506659 26.181707 48.782435
v -45.506659 52.324128 -48.782429
v 45.490238 52.324128 -48.782432
v 45.490238 26.181707 48.782435
v 0.850031 52.324128 -48.782429
v 0.892967 26.181707 48.782435
vt 0.745672 0.321094
vt 0.195821 0.321094
vt 0.195821 0.321094
vt 0.745672 0.321094
vt 0.745672 0.627657
vt 0.195821 0.627657
vt 0.195821 0.627657
vt 0.745672 0.627657
vt 0.904743 0.736242
vt 0.728073 0.736242
vt 0.999914 0.736242
vt 0.935154 0.824844
vt 1.000000 0.836311
vt 0.907627 0.223217
vt 0.740732 0.273089
vt 0.726083 0.223217
vt 0.998709 0.223217
vt 0.935837 0.743512
vt 1.000000 0.737405
vt 0.904743 0.736242
vt 0.999914 0.736242
vt 0.941342 0.837803
vt 0.889436 0.794067
vt 0.631049 0.736242
vt 0.728073 0.736242
vt 0.907627 0.223217
vt 0.892978 0.273089
vt 0.942654 0.311973
vt 0.998709 0.223217
vt 0.726083 0.223217
vt 0.633228 0.223217
vt 0.521078 0.028684
vt 0.514177 0.974994
vt 0.520044 0.974994
vt 0.515211 0.010304
vt 0.986953 0.997676
vt 0.748892 -0.010635
vt 1.003355 -0.021171
vt 0.775985 1.031227
vt 0.253750 0.319506
vt 0.221216 0.702391
vt 0.665391 0.681724
vt 0.663863 0.316842
vt 0.218545 0.339331
vt 0.181760 0.704417
vt 0.668747 0.683692
vt 0.665494 0.313356
vt 0.832995 0.163236
vt 0.205024 0.603615
vt 0.997369 -0.041339
vt 0.502329 0.000000
vt 0.502329 1.000000
vt 0.000000 1.000000
vt 0.000000 0.000000
vt 0.000000 1.000000
vt 0.000000 0.000000
vt 0.502329 0.000000
vt 0.501994 1.000000
vt 0.502640 0.122778
vt 0.502640 0.890301
vt 0.613846 0.889427
vt 0.611431 0.122965
vt 1.000000 0.728487
vt 0.935154 0.717019
vt 0.935837 0.635687
vt 1.000000 0.629580
vt 0.694488 0.716464
vt 0.633282 0.724852
vt 0.633210 0.628244
vt 0.693743 0.635878
vt 0.694487 0.824288
vt 0.633282 0.832676
vt 0.633210 0.736069
vt 0.693743 0.743702
vt 0.935535 0.717227
vt 0.694351 0.717219
vt 0.694279 0.636641
vt 0.935168 0.636641
vt 0.935535 0.825052
vt 0.694351 0.825043
vt 0.694279 0.744466
vt 0.935168 0.744466
vt 0.691474 0.837803
vt 0.743380 0.794067
vt 0.941342 0.837803
vt 0.889436 0.794067
vt 0.691474 0.837803
vt 0.743380 0.794067
vt 0.740732 0.273089
vt 0.691056 0.311973
vt 0.892978 0.273089
vt 0.942654 0.311973
vt 0.633228 0.223217
vt 0.617241 0.120818
vt 0.617375 0.884921
vt 0.500000 0.884845
vt 0.500000 0.120320
vt 0.615493 0.131707
vt 0.617216 0.889125
vt 0.500000 0.890761
vt 0.500000 0.131224
vt 0.616521 0.115926
vt 0.611134 0.889216
vt 0.505338 0.886951
vt 0.504854 0.113763
vt 0.691056 0.311973
vt 0.634026 0.191323
vt 0.973031 0.130760
vt 0.642538 0.131015
vt 0.976387 0.132729
vt 0.182373 0.316004
vt 0.220163 0.316667
vt 0.192678 0.750751
vt 0.271141 0.634682
vt 0.765368 -0.017408
vt 0.788972 1.004328
vt 0.509675 0.974890
vt 0.505035 0.021486
vt 0.999260 1.043979
vt 0.515339 0.974890
vt 0.517202 0.018905
vt 0.600868 -0.005400
vt 0.600868 1.228288
vt 0.300239 1.228288
vt 0.300239 -0.005400
vt 0.157269 0.319507
vt 0.160495 0.770835
vt 0.039324 0.772615
vt 0.039324 0.317726
vt 1.010204 0.957163
vt 1.010204 0.029931
vt 0.749477 0.026572
vt 0.749477 0.965917
vt 0.631049 0.736242
vn 0.000000 0.965926 0.258819
vn 0.000000 0.965926 0.258819
vn 0.000000 0.965926 0.258819
vn 0.000000 0.965926 0.258819
vn 0.000000 0.965926 0.258819
vn 0.000000 0.965926 0.258819
vn -0.000000 0.006305 0.999980
vn -0.000000 0.006305 0.999980
vn -0.000000 0.006305 0.999980
vn -0.000000 0.006305 0.999980
vn 0.000000 0.006305 0.999980
vn -0.000000 0.006305 0.999980
vn 0.938783 0.332769 0.089165
vn 0.938783 0.332769 0.089165
vn 0.938783 0.332769 0.089165
vn 0.938783 0.332769 0.089165
vn 0.938783 0.332769 0.089165
vn 0.938783 0.332769 0.089165
vn -0.000000 0.505450 -0.862856
vn -0.000000 0.505450 -0.862856
vn -0.000000 0.505450 -0.862856
vn -0.000000 0.505450 -0.862856
vn 0.000000 0.505450 -0.862856
vn -0.000000 0.505450 -0.862856
vn -0.938783 0.332769 0.089165
vn -0.938783 0.332769 0.089165
vn -0.938783 0.332769 0.089165
vn -0.938783 0.332769 0.089165
vn -0.938783 0.332769 0.089165
vn -0.938783 0.332769 0.089165
vn 0.965760 0.227826 0.124107
vn 0.965196 0.226490 0.130764
vn 0.964216 0.231979 0.128353
vn 0.964216 0.231979 0.128353
vn 0.963810 0.235299 0.125322
vn 0.965760 0.227826 0.124107
vn 0.963810 0.235299 0.125322
vn 0.964216 0.231979 0.128353
vn 0.962863 0.230823 0.140058
vn 0.962863 0.230823 0.140058
vn 0.963226 0.231458 0.136464
vn 0.963810 0.235299 0.125322
vn 0.963226 0.231458 0.136464
vn 0.962863 0.230823 0.140058
vn 0.965898 0.221750 0.133676
vn 0.965898 0.221750 0.133676
vn 0.968296 0.216338 0.124903
vn 0.963226 0.231458 0.136464
vn -0.971944 0.228645 0.055197
vn -0.970321 0.235579 0.054585
vn -0.970670 0.233320 0.057975
vn -0.970670 0.233320 0.057975
vn -0.971475 0.229063 0.061377
vn -0.971944 0.228645 0.055197
vn -0.970321 0.235579 0.054585
vn -0.969842 0.234849 0.065219
vn -0.969547 0.235118 0.068542
vn -0.969547 0.235118 0.068542
vn -0.970670 0.233320 0.057975
vn -0.970321 0.235579 0.054585
vn -0.969842 0.234849 0.065219
vn -0.974038 0.218669 0.058592
vn -0.972050 0.225581 0.065047
vn -0.972050 0.225581 0.065047
vn -0.969547 0.235118 0.068542
vn -0.969842 0.234849 0.065219
vn 0.199714 0.156957 0.967202
vn -0.214320 0.177737 0.960456
vn 0.645759 0.573883 0.503640
vn 0.645759 0.573883 0.503640
vn 0.311170 0.195602 0.930007
vn 0.199714 0.156957 0.967202
vn -0.214320 0.177737 0.960456
vn -0.640856 0.766685 0.038701
vn 0.216196 0.804132 -0.553742
vn 0.216196 0.804132 -0.553742
vn 0.645759 0.573883 0.503640
vn -0.214320 0.177737 0.960456
vn -0.640856 0.766685 0.038701
vn -0.300513 0.788811 -0.536162
vn -0.185435 0.786693 -0.588836
vn -0.185435 0.786693 -0.588836
vn 0.216196 0.804132 -0.553742
vn -0.640856 0.766685 0.038701
vn 0.971944 0.228645 0.055197
vn 0.971475 0.229063 0.061377
vn 0.970670 0.233320 0.057975
vn 0.970670 0.233320 0.057975
vn 0.970321 0.235579 0.054585
vn 0.971944 0.228645 0.055197
vn 0.970321 0.235579 0.054585
vn 0.970670 0.233320 0.057975
vn 0.969547 0.235118 0.068541
vn 0.969547 0.235118 0.068541
vn 0.969842 0.234848 0.065219
vn 0.970321 0.235579 0.054585
vn 0.969842 0.234848 0.065219
vn 0.969547 0.235118 0.068541
vn 0.972050 0.225582 0.065047
vn 0.972050 0.225582 0.065047
vn 0.974038 0.218672 0.058593
vn 0.969842 0.234848 0.065219
vn -0.971944 0.228645 0.055197
vn -0.970321 0.235579 0.054585
vn -0.970670 0.233320 0.057975
vn -0.970670 0.233320 0.057975
vn -0.971475 0.229063 0.061377
vn -0.971944 0.228645 0.055197
vn -0.970321 0.235579 0.054585
vn -0.969842 0.234848 0.065219
vn -0.969547 0.235118 0.068541
vn -0.969547 0.235118 0.068541
vn -0.970670 0.233320 0.057975
vn -0.970321 0.235579 0.054585
vn -0.969842 0.234848 0.065219
vn -0.974038 0.218670 0.058592
vn -0.972050 0.225581 0.065047
vn -0.972050 0.225581 0.065047
vn -0.969547 0.235118 0.068541
vn -0.969842 0.234848 0.065219
vn -0.000000 0.272509 0.962153
vn 0.000000 0.687079 0.726583
vn 0.000000 0.687078 0.726583
vn 0.000000 0.687078 0.726583
vn -0.000000 0.272509 0.962153
vn -0.000000 0.272509 0.962153
vn 0.000000 0.687079 0.726583
vn -0.000000 0.956115 -0.292992
vn -0.000000 0.956115 -0.292992
vn -0.000000 0.956115 -0.292992
vn 0.000000 0.687078 0.726583
vn 0.000000 0.687079 0.726583
vn -0.000000 0.956115 -0.292992
vn 0.000000 0.707529 -0.706684
vn 0.000000 0.707529 -0.706684
vn 0.000000 0.707529 -0.706684
vn -0.000000 0.956115 -0.292992
vn -0.000000 0.956115 -0.292992
vn -0.701040 0.210986 -0.681195
vn -0.678263 0.204809 0.705700
vn -0.547413 0.576733 0.606397
vn -0.547413 0.576733 0.606397
vn -0.527022 0.722348 -0.447729
vn -0.701040 0.210986 -0.681195
vn 0.700778 0.210372 -0.681656
vn -0.701040 0.210986 -0.681195
vn -0.527022 0.722348 -0.447729
vn -0.527022 0.722348 -0.447729
vn 0.526649 0.722472 -0.447969
vn 0.700778 0.210372 -0.681656
vn 0.677724 0.203466 0.706606
vn 0.700778 0.210372 -0.681656
vn 0.526649 0.722472 -0.447969
vn 0.526649 0.722472 -0.447969
vn 0.546345 0.576979 0.607126
vn 0.677724 0.203466 0.706606
vn -0.678263 0.204809 0.705700
vn 0.677724 0.203466 0.706606
vn 0.546345 0.576979 0.607126
vn 0.546345 0.576979 0.607126
vn -0.547413 0.576733 0.606397
vn -0.678263 0.204809 0.705700
vn 0.109398 0.982040 0.153716
vn 0.085177 0.934551 0.345484
vn -0.527022 0.722348 -0.447729
vn -0.527022 0.722348 -0.447729
vn -0.547413 0.576733 0.606397
vn 0.109398 0.982040 0.153716
vn 0.085177 0.934551 0.345484
vn -0.085177 0.934551 0.345484
vn 0.526649 0.722472 -0.447969
vn 0.526649 0.722472 -0.447969
vn -0.527022 0.722348 -0.447729
vn 0.085177 0.934551 0.345484
vn -0.085177 0.934551 0.345484
vn -0.109398 0.982040 0.153716
vn 0.546345 0.576979 0.607126
vn 0.546345 0.576979 0.607126
vn 0.526649 0.722472 -0.447969
vn -0.085177 0.934551 0.345484
vn -0.109398 0.982040 0.153716
vn 0.109398 0.982040 0.153716
vn -0.547413 0.576733 0.606397
vn -0.547413 0.576733 0.606397
vn 0.546345 0.576979 0.607126
vn -0.109398 0.982040 0.153716
vn 0.277752 0.958285 -0.067407
vn 0.290745 0.844023 0.450658
vn 0.085177 0.934551 0.345484
vn 0.085177 0.934551 0.345484
vn 0.109398 0.982040 0.153716
vn 0.277752 0.958285 -0.067407
vn 0.290745 0.844023 0.450658
vn 0.000000 0.848734 0.528821
vn -0.085177 0.934551 0.345484
vn -0.085177 0.934551 0.345484
vn 0.085177 0.934551 0.345484
vn 0.290745 0.844023 0.450658
vn -0.290745 0.844023 0.450659
vn -0.277752 0.958285 -0.067407
vn -0.109398 0.982040 0.153716
vn -0.109398 0.982040 0.153716
vn -0.085177 0.934551 0.345484
vn -0.290745 0.844023 0.450659
vn -0.277752 0.958285 -0.067407
vn 0.000000 0.989876 -0.141933
vn 0.109398 0.982040 0.153716
vn 0.109398 0.982040 0.153716
vn -0.109398 0.982040 0.153716
vn -0.277752 0.958285 -0.067407
vn 0.000000 0.989876 -0.141933
vn 0.000000 0.848734 0.528821
vn 0.290745 0.844023 0.450658
vn 0.000000 0.989876 -0.141933
vn -0.277752 0.958285 -0.067407
vn 0.000000 0.848734 0.528821
vn -0.277752 0.958285 -0.067407
vn -0.290745 0.844023 0.450659
vn 0.000000 0.848734 0.528821
vn 0.000000 0.848734 0.528821
vn -0.290745 0.844023 0.450659
vn -0.085177 0.934551 0.345484
vn 0.277752 0.958285 -0.067407
vn 0.000000 0.989876 -0.141933
vn 0.290745 0.844023 0.450658
vn 0.000000 0.989876 -0.141933
vn 0.277752 0.958285 -0.067407
vn 0.109398 0.982040 0.153716
s off
g Gen_bt_upgrade_objet
usemtl Gen_bt_upgrade_objetSG1
f 5/122/1 6/123/2 8/124/3
f 8/124/4 7/125/5 5/122/6
f 1/126/7 2/127/8 6/128/9
f 6/128/10 5/129/11 1/126/12
usemtl Gen_bt_upgrade_objetSG2
f 2/2/13 4/4/14 8/8/15
f 8/8/16 6/6/17 2/2/18
usemtl Gen_bt_upgrade_objetSG1
f 4/130/19 3/131/20 7/132/21
f 7/132/22 8/133/23 4/130/24
usemtl Gen_bt_upgrade_objetSG2
f 3/3/25 1/1/26 5/5/27
f 5/5/28 7/7/29 3/3/30
usemtl Gen_bt_upgrade_objetSG
f 9/9/31 13/11/32 14/85/33
f 14/85/34 10/86/35 9/9/36
f 10/86/37 14/85/38 15/87/39
f 15/87/40 11/88/41 10/86/42
f 11/88/43 15/87/44 16/134/45
f 16/134/46 12/10/47 11/88/48
f 17/14/49 18/91/50 22/92/51
f 22/92/52 21/17/53 17/14/54
f 18/91/55 19/15/56 23/106/57
f 23/106/58 22/92/59 18/91/60
f 19/15/61 20/16/62 24/93/63
f 24/93/64 23/106/65 19/15/66
f 16/13/67 15/12/68 23/18/69
f 23/18/70 24/19/71 16/13/72
f 15/79/73 14/80/74 22/81/75
f 22/81/76 23/82/77 15/79/78
f 14/71/79 13/72/80 21/73/81
f 21/73/82 22/74/83 14/71/84
f 25/20/85 26/21/86 27/22/87
f 27/22/88 28/23/89 25/20/90
f 28/23/91 27/22/92 29/83/93
f 29/83/94 30/84/95 28/23/96
f 30/84/97 29/83/98 31/24/99
f 31/24/100 32/25/101 30/84/102
f 33/26/103 34/27/104 35/28/105
f 35/28/106 36/29/107 33/26/108
f 34/27/109 37/89/110 38/90/111
f 38/90/112 35/28/113 34/27/114
f 37/89/115 39/30/116 40/31/117
f 40/31/118 38/90/119 37/89/120
f 31/63/121 29/64/122 38/65/123
f 38/65/124 40/66/125 31/63/126
f 29/75/127 27/76/128 35/77/129
f 35/77/130 38/78/131 29/75/132
f 27/67/133 26/68/134 36/69/135
f 36/69/136 35/70/137 27/67/138
f 45/36/139 46/37/140 41/32/141
f 41/32/142 43/34/143 45/36/144
f 47/50/145 45/119/146 43/120/147
f 43/120/148 44/121/149 47/50/150
f 48/39/151 47/38/152 44/35/153
f 44/35/154 42/33/155 48/39/156
f 46/115/157 48/116/158 42/117/159
f 42/117/160 41/118/161 46/115/162
f 49/98/163 50/99/164 43/100/165
f 43/100/166 41/101/167 49/98/168
f 50/102/169 51/103/170 44/104/171
f 44/104/172 43/105/173 50/102/174
f 51/59/175 52/60/176 42/61/177
f 42/61/178 44/62/179 51/59/180
f 52/94/181 49/95/182 41/96/183
f 41/96/184 42/97/185 52/94/186
f 53/111/187 54/45/188 50/41/189
f 50/41/190 49/112/191 53/111/192
f 54/107/193 57/48/194 51/108/195
f 51/108/196 50/109/197 54/107/198
f 55/46/199 56/47/200 52/43/201
f 52/43/202 51/42/203 55/46/204
f 56/113/205 58/49/206 49/40/207
f 49/40/208 52/114/209 56/113/210
f 58/57/211 57/58/212 54/53/213
f 58/51/214 56/54/215 57/52/216
f 56/54/217 55/55/218 57/52/219
f 57/48/220 55/110/221 51/108/222
f 53/56/223 58/57/224 54/53/225
f 58/49/226 53/44/227 49/40/228
