# This file uses meters as units for non-parametric coordinates.

mtllib pr_bibu.max.fobj.mtl
g default
v -46.066251 0.414726 -0.000001
v -46.066257 29.032560 -0.000002
v 46.519813 0.414726 0.000000
v 46.519819 29.032560 -0.000000
vt 0.000000 0.501117
vt 0.000000 0.629121
vt 0.365774 0.501117
vt 0.365774 0.629121
vn 0.000000 -0.000000 -1.000000
vn 0.000000 -0.000000 -1.000000
vn 0.000000 -0.000000 -1.000000
vn 0.000000 -0.000000 -1.000000
vn 0.000000 -0.000000 -1.000000
vn 0.000000 -0.000000 -1.000000
s off
g Pr_Bibu
usemtl Pr_BibuSG
f 3/3/1 1/1/2 4/4/3
f 2/2/4 4/4/5 1/1/6
