# This file uses meters as units for non-parametric coordinates.

mtllib tr_tr_boisflot_a.max.fobj.mtl
g default
v -195.639431 -19.579868 49.493761
v -198.138142 -19.579865 -47.615488
v 0.295234 -19.952808 53.047494
v 146.303427 -18.671690 -52.256264
v -194.611967 13.550132 49.493764
v -83.017623 15.452315 45.484472
v -200.687003 13.550127 -47.615488
v -83.017606 15.452307 -38.549148
v -195.272470 -3.014864 62.133561
v -82.120252 1.326944 53.887824
v -198.153710 -1.196288 -59.022876
v -0.261076 -1.205654 -55.063297
v 143.002880 19.561516 57.735966
v 144.704616 22.811316 -1.107587
v 144.292629 19.561487 -52.256258
v 85.670179 21.011454 -38.976588
v 85.670167 21.011464 45.897342
v 146.127081 -21.921490 -1.107574
v 143.771577 -18.671666 57.735972
v 84.780818 0.911467 54.384730
v 142.513514 0.419314 68.324218
v 144.844890 2.036606 -62.844499
v 64.287859 30.734448 22.477249
v 64.287865 30.734445 -15.388962
v 37.000981 25.380190 -38.465633
v -37.063169 25.380190 -38.465633
v -64.350033 25.380190 -15.388953
v -64.350021 25.380193 22.477254
v -37.063143 25.380199 45.275722
v 37.000996 25.380199 45.832134
v -0.031084 37.602638 3.544138
v 0.381517 15.452306 -47.948347
v 0.204310 15.657212 54.073892
v 0.204322 -0.497331 62.170772
v -44.662160 20.152974 59.315447
v -47.542721 -9.345155 67.394213
v -94.568270 1.649789 68.981681
v -92.609757 -11.036561 75.820367
v -82.997018 17.872380 93.099032
v -79.115397 1.800583 100.982152
v -89.586025 15.114406 79.633955
v -85.697478 -8.337276 90.153883
v -139.856184 -10.069408 99.083785
v -139.855969 1.254873 92.009429
v -134.257472 1.241593 116.928301
v -137.098944 -7.045217 109.590374
v -134.254074 12.577231 109.872113
v -137.097132 9.493539 99.270300
v -185.781240 -13.574310 110.542093
v -185.742295 -0.120746 99.657593
v -185.736501 0.049894 127.566717
v -185.768759 -9.886773 121.510611
v -185.697579 13.517295 116.699014
v -185.711908 9.761895 105.627130
v -200.950408 16.200533 5.319761
v -199.120331 -22.230266 -0.332210
v -69.706666 -18.998383 50.307051
v -70.709515 -16.393174 -38.048868
v -81.322855 -1.270939 -52.946712
v 84.445900 -16.772904 51.780431
v 84.027070 -15.137653 -37.785979
v 85.675102 -0.880791 -50.116302
v -70.158815 -16.901116 9.356263
v 84.242296 -16.900675 9.355725
v -70.158684 -100.415529 9.240167
v 84.242427 -78.772338 9.239626
v 146.127081 -45.318513 -1.107574
v -199.120331 -53.551556 -0.332209
vt 0.037182 0.454902
vt 0.347920 0.475029
vt 0.019569 0.847059
vt 0.348337 0.831373
vt 0.035225 0.343482
vt 0.359735 0.372549
vt 0.029354 0.952190
vt 0.581213 0.952190
vt 0.980431 0.411765
vt 0.986301 0.639216
vt 0.984344 0.858824
vt 0.821918 0.835294
vt 0.821918 0.439216
vt 0.818004 0.336008
vt 0.980431 0.293306
vt 0.986301 0.967876
vt 0.759296 0.545098
vt 0.761252 0.721569
vt 0.684932 0.831373
vt 0.477495 0.831373
vt 0.401174 0.721569
vt 0.401174 0.545098
vt 0.477495 0.439216
vt 0.684932 0.435294
vt 0.581213 0.635294
vt 0.581213 0.874510
vt 0.581850 0.376459
vt 0.583170 0.297228
vt 0.455734 0.373423
vt 0.311155 0.326294
vt 0.347978 0.213741
vt 0.360078 0.154641
vt 0.329457 0.277385
vt 0.191781 0.243357
vt 0.203523 0.077247
vt 0.203899 0.134461
vt 0.195907 0.184572
vt 0.062622 0.215906
vt 0.062622 0.040915
vt 0.062622 0.101961
vt 0.062622 0.156863
vt 0.019569 0.650980
vt 0.352250 0.952998
vt 0.819961 0.952190
vt 0.035225 0.343482
vt 0.354207 0.474510
vt 0.359735 0.372549
vt 0.037182 0.454902
vt 0.019569 0.847059
vt 0.352250 0.952998
vt 0.352250 0.839216
vt 0.581213 0.952190
vt 0.019569 0.650980
vt 0.813193 0.618205
vt 0.816047 0.843137
vt 0.818004 0.336008
vt 0.980431 0.411765
vt 0.980431 0.293306
vt 0.816047 0.423529
vt 0.583170 0.297228
vt 0.984344 0.858824
vt 0.819961 0.952190
vt 0.986301 0.967876
vt 0.581213 0.384314
vt 0.440313 0.329412
vt 0.324853 0.290196
vt 0.311155 0.325485
vt 0.360078 0.154641
vt 0.346380 0.223529
vt 0.197652 0.200000
vt 0.191781 0.243357
vt 0.203523 0.077247
vt 0.205479 0.141176
vt 0.062622 0.040915
vt 0.062622 0.101961
vt 0.062622 0.156863
vt 0.062622 0.215906
vt 0.352250 0.623529
vt 0.986301 0.639216
vt 0.029354 0.952190
vt 0.802566 0.139626
vt 0.786258 0.221325
vt 0.796043 0.041586
vt 0.632964 0.221325
vt 0.605241 0.123286
vt 0.632964 0.041586
vt 0.720433 0.040657
vt 0.620372 0.207091
vt 0.622179 0.053468
vt 0.598695 0.114917
vt 0.788369 0.207091
vt 0.806433 0.117710
vt 0.801014 0.047882
vt 0.716112 0.047882
vt 0.944397 0.136129
vt 0.861370 0.136129
vt 0.884618 0.058065
vt 0.919489 0.058065
vt 0.921149 0.227771
vt 0.886278 0.224377
vt 1.120981 0.002384
vt 2.461297 0.004650
vt 2.461296 0.999501
vt 1.120980 0.999496
vt 2.998502 0.004006
vt 2.998502 0.939493
vt 0.001498 0.000499
vt 0.001498 0.935804
vn -0.008958 0.999957 0.002562
vn 0.001690 0.884438 0.466654
vn -0.525198 0.721275 0.451586
vn 0.016017 -0.005868 0.999855
vn -0.280940 -0.813469 0.509256
vn -0.883806 -0.047920 0.465394
vn -0.280940 -0.813469 0.509256
vn 0.016017 -0.005868 0.999855
vn 0.001182 -0.891005 0.453992
vn -0.467634 0.762857 -0.446507
vn -0.295639 -0.146496 -0.944000
vn 0.016341 0.889285 -0.457061
vn 0.042923 -0.858615 -0.510821
vn -0.295639 -0.146496 -0.944000
vn -0.292849 -0.907909 -0.299902
vn -0.525198 0.721275 0.451586
vn -0.467634 0.762857 -0.446507
vn -0.008958 0.999957 0.002562
vn -0.883806 -0.047920 0.465394
vn -0.525198 0.721275 0.451586
vn 0.016017 -0.005868 0.999855
vn 0.001690 0.884438 0.466654
vn 0.016017 -0.005868 0.999855
vn -0.525198 0.721275 0.451586
vn -0.003872 -0.202232 -0.979330
vn -0.292849 -0.907909 -0.299902
vn -0.295639 -0.146496 -0.944000
vn -0.295639 -0.146496 -0.944000
vn -0.467634 0.762857 -0.446507
vn -0.003872 -0.202232 -0.979330
vn 0.373436 0.757953 0.534839
vn -0.005053 0.999976 -0.004744
vn 0.374140 0.776968 -0.506301
vn -0.014464 -0.887764 0.460072
vn -0.280940 -0.813469 0.509256
vn 0.001182 -0.891005 0.453992
vn -0.116316 0.811563 0.572570
vn 0.373436 0.757953 0.534839
vn 0.354569 0.098678 0.929808
vn 0.354569 0.098678 0.929808
vn -0.234788 -0.012838 0.971962
vn -0.116316 0.811563 0.572570
vn -0.123375 0.809842 -0.573528
vn -0.211268 0.021527 -0.977191
vn 0.258672 -0.128097 -0.957434
vn 0.407689 -0.831348 0.377691
vn -0.292849 -0.907909 -0.299902
vn 0.313674 -0.871155 -0.377753
vn 0.374140 0.776968 -0.506301
vn -0.005053 0.999976 -0.004744
vn -0.123375 0.809842 -0.573528
vn 0.354569 0.098678 0.929808
vn -0.133742 -0.824906 0.549221
vn -0.234788 -0.012838 0.971962
vn 0.314255 -0.730073 0.606826
vn 0.354569 0.098678 0.929808
vn 0.203094 -0.026792 0.978793
vn 0.209652 0.969894 0.123905
vn 0.209076 0.969971 -0.124270
vn -0.027910 0.999610 -0.000027
vn 0.209076 0.969971 -0.124270
vn 0.038231 0.829098 -0.557795
vn -0.027910 0.999610 -0.000027
vn 0.038231 0.829098 -0.557795
vn -0.111862 0.809690 -0.576098
vn -0.027910 0.999610 -0.000027
vn -0.111862 0.809690 -0.576098
vn -0.297156 0.950806 -0.087561
vn -0.027910 0.999610 -0.000027
vn -0.297156 0.950806 -0.087561
vn -0.296856 0.950810 0.088523
vn -0.027910 0.999610 -0.000027
vn -0.296856 0.950810 0.088523
vn -0.055505 0.949794 0.307912
vn -0.027910 0.999610 -0.000027
vn -0.055505 0.949794 0.307912
vn 0.039654 0.808472 0.587197
vn -0.027910 0.999610 -0.000027
vn 0.039654 0.808472 0.587197
vn 0.209652 0.969894 0.123905
vn -0.027910 0.999610 -0.000027
vn -0.296856 0.950810 0.088523
vn -0.467634 0.762857 -0.446507
vn -0.525198 0.721275 0.451586
vn -0.055505 0.949794 0.307912
vn -0.296856 0.950810 0.088523
vn -0.525198 0.721275 0.451586
vn -0.297156 0.950806 -0.087561
vn -0.111862 0.809690 -0.576098
vn -0.467634 0.762857 -0.446507
vn 0.373436 0.757953 0.534839
vn 0.209076 0.969971 -0.124270
vn 0.209652 0.969894 0.123905
vn 0.209076 0.969971 -0.124270
vn 0.373436 0.757953 0.534839
vn 0.374140 0.776968 -0.506301
vn 0.209652 0.969894 0.123905
vn 0.039654 0.808472 0.587197
vn 0.373436 0.757953 0.534839
vn 0.038231 0.829098 -0.557795
vn 0.209076 0.969971 -0.124270
vn 0.374140 0.776968 -0.506301
vn -0.296856 0.950810 0.088523
vn -0.297156 0.950806 -0.087561
vn -0.467634 0.762857 -0.446507
vn 0.373436 0.757953 0.534839
vn -0.116316 0.811563 0.572570
vn -0.005053 0.999976 -0.004744
vn -0.143565 -0.820615 -0.553155
vn 0.258672 -0.128097 -0.957434
vn -0.211268 0.021527 -0.977191
vn -0.467634 0.762857 -0.446507
vn -0.009508 0.528358 -0.848969
vn -0.003872 -0.202232 -0.979330
vn -0.009508 0.528358 -0.848969
vn 0.374140 0.776968 -0.506301
vn -0.003872 -0.202232 -0.979330
vn -0.003872 -0.202232 -0.979330
vn 0.374140 0.776968 -0.506301
vn 0.258672 -0.128097 -0.957434
vn -0.111862 0.809690 -0.576098
vn 0.038231 0.829098 -0.557795
vn -0.009508 0.528358 -0.848969
vn -0.111862 0.809690 -0.576098
vn -0.009508 0.528358 -0.848969
vn -0.467634 0.762857 -0.446507
vn 0.038231 0.829098 -0.557795
vn 0.374140 0.776968 -0.506301
vn -0.009508 0.528358 -0.848969
vn 0.314255 -0.730073 0.606826
vn 0.203094 -0.026792 0.978793
vn 0.037723 -0.872590 0.486995
vn 0.203094 -0.026792 0.978793
vn 0.005447 -0.981417 0.191812
vn 0.037723 -0.872590 0.486995
vn 0.373436 0.757953 0.534839
vn 0.119011 0.600686 0.790577
vn 0.203094 -0.026792 0.978793
vn 0.354569 0.098678 0.929808
vn 0.373436 0.757953 0.534839
vn 0.203094 -0.026792 0.978793
vn 0.039654 0.808472 0.587197
vn -0.055505 0.949794 0.307912
vn 0.119011 0.600686 0.790577
vn 0.373436 0.757953 0.534839
vn 0.039654 0.808472 0.587197
vn 0.119011 0.600686 0.790577
vn -0.055505 0.949794 0.307912
vn -0.049725 0.976021 0.211923
vn 0.119011 0.600686 0.790577
vn -0.055505 0.949794 0.307912
vn -0.525198 0.721275 0.451586
vn -0.049725 0.976021 0.211923
vn 0.005447 -0.981417 0.191812
vn -0.883806 -0.047920 0.465394
vn 0.037723 -0.872590 0.486995
vn -0.639253 0.128024 -0.758265
vn -0.292605 0.882057 -0.369266
vn -0.883806 -0.047920 0.465394
vn -0.883806 -0.047920 0.465394
vn -0.209633 -0.917929 -0.336838
vn -0.639253 0.128024 -0.758265
vn 0.005447 -0.981417 0.191812
vn 0.203094 -0.026792 0.978793
vn 0.365285 -0.187999 0.911715
vn 0.365285 -0.187999 0.911715
vn 0.159313 -0.904154 0.396390
vn 0.005447 -0.981417 0.191812
vn 0.203094 -0.026792 0.978793
vn 0.119011 0.600686 0.790577
vn 0.110480 0.886195 0.449947
vn 0.110480 0.886195 0.449947
vn 0.365285 -0.187999 0.911715
vn 0.203094 -0.026792 0.978793
vn 0.110480 0.886195 0.449947
vn -0.049725 0.976021 0.211923
vn -0.292605 0.882057 -0.369266
vn -0.049725 0.976021 0.211923
vn 0.110480 0.886195 0.449947
vn 0.119011 0.600686 0.790577
vn -0.292605 0.882057 -0.369266
vn -0.049725 0.976021 0.211923
vn -0.883806 -0.047920 0.465394
vn -0.525198 0.721275 0.451586
vn -0.883806 -0.047920 0.465394
vn -0.049725 0.976021 0.211923
vn -0.209633 -0.917929 -0.336838
vn 0.005447 -0.981417 0.191812
vn 0.159313 -0.904154 0.396390
vn 0.005447 -0.981417 0.191812
vn -0.209633 -0.917929 -0.336838
vn -0.883806 -0.047920 0.465394
vn -0.411839 -0.878898 -0.240680
vn -0.591153 0.144256 -0.793554
vn -0.639253 0.128024 -0.758265
vn -0.639253 0.128024 -0.758265
vn -0.209633 -0.917929 -0.336838
vn -0.411839 -0.878898 -0.240680
vn -0.110789 -0.053280 0.992415
vn -0.247439 -0.772371 0.584993
vn 0.159313 -0.904154 0.396390
vn 0.159313 -0.904154 0.396390
vn 0.365285 -0.187999 0.911715
vn -0.110789 -0.053280 0.992415
vn -0.252281 0.867298 0.429126
vn -0.110789 -0.053280 0.992415
vn 0.365285 -0.187999 0.911715
vn 0.365285 -0.187999 0.911715
vn 0.110480 0.886195 0.449947
vn -0.252281 0.867298 0.429126
vn -0.499706 0.799677 -0.332883
vn -0.252281 0.867298 0.429126
vn 0.110480 0.886195 0.449947
vn 0.110480 0.886195 0.449947
vn -0.292605 0.882057 -0.369266
vn -0.499706 0.799677 -0.332883
vn -0.591153 0.144256 -0.793554
vn -0.499706 0.799677 -0.332883
vn -0.292605 0.882057 -0.369266
vn -0.292605 0.882057 -0.369266
vn -0.639253 0.128024 -0.758265
vn -0.591153 0.144256 -0.793554
vn -0.247439 -0.772371 0.584993
vn -0.411839 -0.878898 -0.240680
vn -0.209633 -0.917929 -0.336838
vn -0.209633 -0.917929 -0.336838
vn 0.159313 -0.904154 0.396390
vn -0.247439 -0.772371 0.584993
vn -0.110789 -0.053280 0.992415
vn -0.591153 0.144256 -0.793554
vn -0.411839 -0.878898 -0.240680
vn -0.110789 -0.053280 0.992415
vn -0.411839 -0.878898 -0.240680
vn -0.247439 -0.772371 0.584993
vn -0.252281 0.867298 0.429126
vn -0.499706 0.799677 -0.332883
vn -0.110789 -0.053280 0.992415
vn -0.499706 0.799677 -0.332883
vn -0.591153 0.144256 -0.793554
vn -0.110789 -0.053280 0.992415
vn 0.212115 0.029022 0.976814
vn 0.205327 -0.749283 0.629615
vn -0.247439 -0.772371 0.584993
vn -0.247439 -0.772371 0.584993
vn -0.110789 -0.053280 0.992415
vn 0.212115 0.029022 0.976814
vn 0.205327 -0.749283 0.629615
vn 0.027546 -0.981436 -0.189801
vn -0.411839 -0.878898 -0.240680
vn -0.411839 -0.878898 -0.240680
vn -0.247439 -0.772371 0.584993
vn 0.205327 -0.749283 0.629615
vn -0.179279 -0.072215 -0.981144
vn -0.093680 0.799335 -0.593539
vn -0.591153 0.144256 -0.793554
vn -0.499706 0.799677 -0.332883
vn -0.591153 0.144256 -0.793554
vn -0.093680 0.799335 -0.593539
vn 0.027546 -0.981436 -0.189801
vn -0.179279 -0.072215 -0.981144
vn -0.411839 -0.878898 -0.240680
vn -0.591153 0.144256 -0.793554
vn -0.411839 -0.878898 -0.240680
vn -0.179279 -0.072215 -0.981144
vn -0.093680 0.799335 -0.593539
vn 0.054583 0.944888 0.322811
vn -0.499706 0.799677 -0.332883
vn -0.252281 0.867298 0.429126
vn -0.499706 0.799677 -0.332883
vn 0.054583 0.944888 0.322811
vn 0.054583 0.944888 0.322811
vn 0.212115 0.029022 0.976814
vn -0.252281 0.867298 0.429126
vn -0.110789 -0.053280 0.992415
vn -0.252281 0.867298 0.429126
vn 0.212115 0.029022 0.976814
vn 0.016341 0.889285 -0.457061
vn -0.008958 0.999957 0.002562
vn -0.467634 0.762857 -0.446507
vn 0.037723 -0.872590 0.486995
vn -0.346540 -0.874595 0.339108
vn 0.407689 -0.831348 0.377691
vn -0.280940 -0.813469 0.509256
vn 0.037723 -0.872590 0.486995
vn -0.883806 -0.047920 0.465394
vn -0.346540 -0.874595 0.339108
vn 0.037723 -0.872590 0.486995
vn -0.280940 -0.813469 0.509256
vn -0.014464 -0.887764 0.460072
vn -0.346540 -0.874595 0.339108
vn -0.280940 -0.813469 0.509256
vn 0.042923 -0.858615 -0.510821
vn -0.292849 -0.907909 -0.299902
vn -0.014464 -0.887764 0.460072
vn -0.292849 -0.907909 -0.299902
vn -0.003872 -0.202232 -0.979330
vn 0.313674 -0.871155 -0.377753
vn 0.019179 -0.889705 0.456132
vn 0.407689 -0.831348 0.377691
vn 0.313674 -0.871155 -0.377753
vn -0.295639 -0.146496 -0.944000
vn 0.042923 -0.858615 -0.510821
vn 0.051812 0.082899 -0.995210
vn -0.295639 -0.146496 -0.944000
vn 0.051812 0.082899 -0.995210
vn 0.016341 0.889285 -0.457061
vn -0.883806 -0.047920 0.465394
vn -0.525198 0.721275 0.451586
vn -0.280940 -0.813469 0.509256
vn -0.467634 0.762857 -0.446507
vn -0.295639 -0.146496 -0.944000
vn -0.292849 -0.907909 -0.299902
vn 0.314255 -0.730073 0.606826
vn 0.019179 -0.889705 0.456132
vn -0.133742 -0.824906 0.549221
vn -0.133742 -0.824906 0.549221
vn 0.354569 0.098678 0.929808
vn 0.314255 -0.730073 0.606826
vn 0.313674 -0.871155 -0.377753
vn -0.003872 -0.202232 -0.979330
vn 0.258672 -0.128097 -0.957434
vn 0.019179 -0.889705 0.456132
vn 0.313674 -0.871155 -0.377753
vn -0.143565 -0.820615 -0.553155
vn -0.346540 -0.874595 0.339108
vn -0.467634 0.762857 -0.446507
vn -0.292849 -0.907909 -0.299902
vn -0.346540 -0.874595 0.339108
vn -0.280940 -0.813469 0.509256
vn -0.525198 0.721275 0.451586
vn 0.258672 -0.128097 -0.957434
vn 0.374140 0.776968 -0.506301
vn -0.123375 0.809842 -0.573528
vn 0.313674 -0.871155 -0.377753
vn 0.258672 -0.128097 -0.957434
vn -0.143565 -0.820615 -0.553155
vn 0.374140 0.776968 -0.506301
vn 0.313674 -0.871155 -0.377753
vn 0.258672 -0.128097 -0.957434
vn 0.373436 0.757953 0.534839
vn 0.354569 0.098678 0.929808
vn 0.314255 -0.730073 0.606826
vn 0.407689 -0.831348 0.377691
vn 0.373436 0.757953 0.534839
vn 0.314255 -0.730073 0.606826
vn 0.313674 -0.871155 -0.377753
vn 0.374140 0.776968 -0.506301
vn 0.407689 -0.831348 0.377691
vn -0.014464 -0.887764 0.460072
vn -0.292849 -0.907909 -0.299902
vn -0.346540 -0.874595 0.339108
vn -0.292849 -0.907909 -0.299902
vn 0.407689 -0.831348 0.377691
vn -0.346540 -0.874595 0.339108
vn 0.019179 -0.889705 0.456132
vn 0.314255 -0.730073 0.606826
vn 0.407689 -0.831348 0.377691
vn 0.037723 -0.872590 0.486995
vn 0.407689 -0.831348 0.377691
vn 0.314255 -0.730073 0.606826
vn -0.034417 -0.001352 0.999407
vn 0.064634 -0.001872 0.997907
vn 0.407689 -0.831348 0.377691
vn 0.407689 -0.831348 0.377691
vn -0.346540 -0.874595 0.339108
vn -0.034417 -0.001352 0.999407
vn -0.467634 0.762857 -0.446507
vn -0.346540 -0.874595 0.339108
vn -0.525198 0.721275 0.451586
vn 0.407689 -0.831348 0.377691
vn 0.374140 0.776968 -0.506301
vn 0.373436 0.757953 0.534839
vn 0.064634 -0.001872 0.997907
vn 0.166344 -0.000822 0.986067
vn 0.407689 -0.831348 0.377691
vn 0.019179 -0.889705 0.456132
vn 0.407689 -0.831348 0.377691
vn 0.166344 -0.000822 0.986067
vn -0.074023 0.000000 0.997257
vn -0.034417 -0.001352 0.999407
vn -0.014464 -0.887764 0.460072
vn -0.346540 -0.874595 0.339108
vn -0.014464 -0.887764 0.460072
vn -0.034417 -0.001352 0.999407
s off
g TR_TR_Boisflot_A_1
usemtl TR_TR_Boisflot_A_1SG
f 55/42/1 5/1/2 6/2/3
usemtl TR_TR_Boisflot_A_1SG1
f 9/45/4 57/46/5 10/47/6
f 57/46/7 9/45/8 1/48/9
usemtl TR_TR_Boisflot_A_1SG
f 8/4/10 59/43/11 7/3/12
usemtl TR_TR_Boisflot_A_1SG1
f 2/49/13 59/50/14 58/51/15
usemtl TR_TR_Boisflot_A_1SG
f 6/2/16 8/4/17 55/42/18
f 10/6/19 6/2/20 9/5/21
f 5/1/22 9/5/23 6/2/24
usemtl TR_TR_Boisflot_A_1SG1
f 12/52/25 58/51/26 59/50/27
usemtl TR_TR_Boisflot_A_1SG
f 59/43/28 8/4/29 12/8/30
f 17/13/31 14/10/32 16/12/33
usemtl TR_TR_Boisflot_A_1SG1
f 56/53/34 57/46/35 1/48/36
usemtl TR_TR_Boisflot_A_1SG
f 13/9/37 17/13/38 20/14/39
f 20/14/40 21/15/41 13/9/42
f 15/11/43 22/16/44 62/44/45
usemtl TR_TR_Boisflot_A_1SG1
f 64/54/46 58/51/47 61/55/48
usemtl TR_TR_Boisflot_A_1SG
f 16/12/49 14/10/50 15/11/51
usemtl TR_TR_Boisflot_A_1SG1
f 20/56/52 19/57/53 21/58/54
f 60/59/55 20/56/56 34/60/57
usemtl TR_TR_Boisflot_A_1SG
f 23/17/58 24/18/59 31/25/60
f 24/18/61 25/19/62 31/25/63
f 25/19/64 26/20/65 31/25/66
f 26/20/67 27/21/68 31/25/69
f 27/21/70 28/22/71 31/25/72
f 28/22/73 29/23/74 31/25/75
f 29/23/76 30/24/77 31/25/78
f 30/24/79 23/17/80 31/25/81
f 28/22/82 8/4/83 6/2/84
f 29/23/85 28/22/86 6/2/87
f 27/21/88 26/20/89 8/4/90
f 17/13/91 24/18/92 23/17/93
f 24/18/94 17/13/95 16/12/96
f 23/17/97 30/24/98 17/13/99
f 25/19/100 24/18/101 16/12/102
f 28/22/103 27/21/104 8/4/105
f 17/13/106 13/9/107 14/10/108
usemtl TR_TR_Boisflot_A_1SG1
f 4/61/109 62/62/110 22/63/111
usemtl TR_TR_Boisflot_A_1SG
f 8/4/112 32/26/113 12/8/114
f 32/26/115 16/12/116 12/8/117
f 12/8/118 16/12/119 62/44/120
f 26/20/121 25/19/122 32/26/123
f 26/20/124 32/26/125 8/4/126
f 25/19/127 16/12/128 32/26/129
usemtl TR_TR_Boisflot_A_1SG1
f 60/59/130 34/60/131 3/64/132
f 34/60/133 36/65/134 3/64/135
usemtl TR_TR_Boisflot_A_1SG
f 17/13/136 33/27/137 34/28/138
f 20/14/139 17/13/140 34/28/141
f 30/24/142 29/23/143 33/27/144
f 17/13/145 30/24/146 33/27/147
f 29/23/148 35/29/149 33/27/150
f 29/23/151 6/2/152 35/29/153
usemtl TR_TR_Boisflot_A_1SG1
f 36/65/154 10/47/155 3/64/156
usemtl TR_TR_Boisflot_A_1SG
f 37/30/157 41/33/158 10/6/159
usemtl TR_TR_Boisflot_A_1SG1
f 10/47/160 38/66/161 37/67/162
f 36/65/163 34/60/164 40/68/165
f 40/68/166 42/69/167 36/65/168
usemtl TR_TR_Boisflot_A_1SG
f 34/28/169 33/27/170 39/31/171
f 39/31/172 40/32/173 34/28/174
f 39/31/175 35/29/176 41/33/177
f 35/29/178 39/31/179 33/27/180
f 41/33/181 35/29/182 10/6/183
f 6/2/184 10/6/185 35/29/186
usemtl TR_TR_Boisflot_A_1SG1
f 38/66/187 36/65/188 42/69/189
f 36/65/190 38/66/191 10/47/192
f 43/70/193 44/71/194 37/67/195
f 37/67/196 38/66/197 43/70/198
f 45/72/199 46/73/200 42/69/201
f 42/69/202 40/68/203 45/72/204
usemtl TR_TR_Boisflot_A_1SG
f 47/36/205 45/35/206 40/32/207
f 40/32/208 39/31/209 47/36/210
f 48/37/211 47/36/212 39/31/213
f 39/31/214 41/33/215 48/37/216
f 44/34/217 48/37/218 41/33/219
f 41/33/220 37/30/221 44/34/222
usemtl TR_TR_Boisflot_A_1SG1
f 46/73/223 43/70/224 38/66/225
f 38/66/226 42/69/227 46/73/228
f 45/95/229 44/96/230 43/97/231
f 45/95/232 43/97/233 46/98/234
f 47/99/235 48/100/236 45/95/237
f 48/100/238 44/96/239 45/95/240
f 51/74/241 52/75/242 46/73/243
f 46/73/244 45/72/245 51/74/246
f 52/75/247 49/76/248 43/70/249
f 43/70/250 46/73/251 52/75/252
usemtl TR_TR_Boisflot_A_1SG
f 50/38/253 54/41/254 44/34/255
f 48/37/256 44/34/257 54/41/258
usemtl TR_TR_Boisflot_A_1SG1
f 49/76/259 50/77/260 43/70/261
f 44/71/262 43/70/263 50/77/264
usemtl TR_TR_Boisflot_A_1SG
f 54/41/265 53/40/266 48/37/267
f 47/36/268 48/37/269 53/40/270
f 53/40/271 51/39/272 47/36/273
f 45/35/274 47/36/275 51/39/276
f 7/3/277 55/42/278 8/4/279
usemtl TR_TR_Boisflot_A_1SG1
f 3/64/280 63/78/281 64/54/282
f 57/46/283 3/64/284 10/47/285
f 63/78/286 3/64/287 57/46/288
f 56/53/289 63/78/290 57/46/291
f 2/49/292 58/51/293 56/53/294
f 58/51/295 12/52/296 61/55/297
f 18/79/298 64/54/299 61/55/300
f 59/50/301 2/49/302 11/80/303
usemtl TR_TR_Boisflot_A_1SG
f 59/43/304 11/7/305 7/3/306
usemtl TR_TR_Boisflot_A_1SG1
f 10/81/307 6/82/308 57/83/309
f 8/84/310 59/85/311 58/86/312
f 60/59/313 18/79/314 19/57/315
f 19/57/316 20/56/317 60/59/318
f 61/55/319 12/52/320 62/62/321
f 18/79/322 61/55/323 4/61/324
f 63/87/325 8/84/326 58/86/327
f 63/87/328 57/83/329 6/82/330
usemtl TR_TR_Boisflot_A_1SG
f 62/44/331 16/12/332 15/11/333
usemtl TR_TR_Boisflot_A_1SG1
f 61/55/334 62/62/335 4/61/336
f 16/88/337 61/89/338 62/90/339
f 17/91/340 20/92/341 60/93/342
f 64/94/343 17/91/344 60/93/345
f 61/89/346 16/88/347 64/94/348
f 56/53/349 58/51/350 63/78/351
f 58/51/352 64/54/353 63/78/354
f 18/79/355 60/59/356 64/54/357
f 3/64/358 64/54/359 60/59/360
usemtl TR_TR_Boisflot_A_1SG2
f 65/101/361 66/102/362 64/103/363
f 64/103/364 63/104/365 65/101/366
usemtl TR_TR_Boisflot_A_1SG1
f 8/84/367 63/87/368 6/82/369
f 64/94/370 16/88/371 17/91/372
usemtl TR_TR_Boisflot_A_1SG2
f 66/102/373 67/105/374 64/103/375
f 18/106/376 64/103/377 67/105/378
f 68/107/379 65/101/380 56/108/381
f 63/104/382 56/108/383 65/101/384
g default
v -199.965572 -100.587380 0.000046
v 148.362350 -100.587428 0.000046
v -199.965572 39.333937 -0.000052
v 148.362350 39.333984 -0.000052
v 0.000046 39.333981 -63.513645
v -0.000002 -21.414784 -63.513495
v 0.000001 39.333988 129.390458
v -0.000046 -21.414786 129.390500
vt 0.000500 0.999501
vt 0.000500 0.000499
vt 0.999500 0.999501
vt 0.999500 0.000499
vt 0.000500 0.999501
vt 0.000500 0.000500
vt 0.999500 0.999500
vt 0.999500 0.000500
vn -0.000000 0.000001 1.000000
vn -0.000000 0.000001 1.000000
vn 0.000000 0.000001 1.000000
vn 0.000000 0.000001 1.000000
vn 0.000000 0.000001 1.000000
vn -0.000000 0.000001 1.000000
vn -1.000000 0.000001 -0.000000
vn -1.000000 0.000001 -0.000000
vn -1.000000 0.000001 -0.000000
vn -1.000000 0.000001 -0.000000
vn -1.000000 0.000001 -0.000000
vn -1.000000 0.000001 -0.000000
s off
g TR_TR_boisflot_A_1_X
usemtl TR_TR_boisflot_A_1_XSG
f 71/113/385 69/114/386 72/115/387
f 70/116/388 72/115/389 69/114/390
usemtl TR_TR_boisflot_A_1_XSG1
f 73/109/391 74/110/392 75/111/393
f 76/112/394 75/111/395 74/110/396
