# This file uses meters as units for non-parametric coordinates.

mtllib tr_anemone.max.fobj.mtl
g default
v 11.965403 30.094603 0.000000
v -6.276077 27.266502 0.000000
v -0.840305 0.030410 -0.273132
v -6.257690 27.266502 -1.103002
v -1.701179 0.030410 -4.109634
v 8.900696 30.094600 -11.250657
v -1.443378 27.266502 -7.376569
v 1.121265 0.030410 -10.876181
v 9.045568 30.094600 -22.300826
v -7.938243 27.266502 -1.808936
v -5.358880 0.030410 -6.575016
v -0.547861 30.094603 -18.486281
v 2.786025 27.266502 -2.695773
v 6.712346 0.030410 -4.217231
v 20.114918 30.094600 -8.393225
v -1.562667 27.266502 1.758924
v 2.315801 0.030416 4.173802
v 13.488623 30.094603 12.064757
v -6.712098 27.266502 3.154022
v -3.281669 0.030416 6.588567
v 4.265897 30.094603 17.722315
v -7.734175 27.266502 0.488998
v -8.723025 0.030416 5.132210
v -12.792803 30.094603 18.015033
v -8.753957 27.266502 0.283656
v -11.944984 0.030416 3.522309
v -22.051422 30.094603 12.770809
v -5.918029 27.266502 -1.149193
v -10.858129 0.030413 -0.559826
v -23.990737 30.094600 1.326461
v -7.894979 27.266502 -1.962462
v -11.651413 0.030410 -4.969779
v -22.764118 30.094600 -12.529406
v -7.751425 27.273399 -7.702293
v -9.480606 0.032508 -11.598702
v -15.877344 30.085605 -24.036631
v 5.186286 19.766912 -10.411369
v -1.544253 17.965575 -0.940580
v 0.319570 0.617746 -3.863554
v -2.110136 17.965575 -1.357099
v -1.989938 0.617746 -4.832147
v -1.785720 19.766912 -12.971346
v -3.590974 17.965575 -6.171392
v -4.461665 0.617744 -8.794175
v -7.469401 19.766909 -17.123730
v -3.096721 17.965575 -0.745041
v -4.619516 0.617746 -3.842755
v -9.028605 19.766910 -10.735474
v 0.399764 17.965575 -6.640187
v 1.058528 0.617746 -9.240062
v 3.835528 19.766910 -17.739351
v 1.108064 17.965575 -2.738745
v 3.792876 0.617747 -3.861391
v 12.012203 19.766912 -6.750689
v -0.067596 17.965575 0.449535
v 2.981305 0.617746 -0.064268
v 11.546649 19.766912 0.125119
v -1.828363 17.965575 -0.003125
v 0.217490 0.617747 2.223477
v 5.404496 19.766912 9.089825
v -2.311243 17.965575 0.450571
v -1.807158 0.617747 3.302281
v -0.734394 19.766912 11.961849
v -2.008793 17.965575 -1.550491
v -3.525545 0.617747 1.231817
v -7.391727 19.766912 8.746112
v -3.160467 17.965575 -0.824150
v -6.107844 0.617746 0.016547
v -14.132965 19.766910 2.996879
v -6.087561 17.969966 -3.016501
v -8.748549 0.619079 -3.556381
v -17.566390 19.761181 -4.824472
vt 0.513992 0.056470
vt 0.462093 0.109661
vt 0.542091 0.191981
vt 0.462093 0.109661
vt 0.542091 0.191981
vt 0.513992 0.056470
vt 0.462093 0.109661
vt 0.542091 0.191981
vt 0.513992 0.056470
vt 0.462093 0.109661
vt 0.542091 0.191981
vt 0.513992 0.056470
vt 0.462093 0.109661
vt 0.542091 0.191981
vt 0.513992 0.056470
vt 0.462093 0.109661
vt 0.542091 0.191981
vt 0.513992 0.056470
vt 0.462093 0.109661
vt 0.542091 0.191981
vt 0.513992 0.056470
vt 0.462093 0.109661
vt 0.542091 0.191981
vt 0.513992 0.056470
vt 0.462093 0.109661
vt 0.542091 0.191981
vt 0.513992 0.056470
vt 0.462093 0.109661
vt 0.542091 0.191981
vt 0.513992 0.056470
vt 0.462093 0.109661
vt 0.542091 0.191981
vt 0.513992 0.056470
vt 0.462093 0.109661
vt 0.542091 0.191981
vt 0.513992 0.056470
vt 0.513992 0.056470
vt 0.462093 0.109661
vt 0.542091 0.191981
vt 0.462093 0.109661
vt 0.542091 0.191981
vt 0.513992 0.056470
vt 0.462093 0.109661
vt 0.542091 0.191981
vt 0.513992 0.056470
vt 0.462093 0.109661
vt 0.542091 0.191981
vt 0.513992 0.056470
vt 0.462093 0.109661
vt 0.542091 0.191981
vt 0.513992 0.056470
vt 0.462093 0.109661
vt 0.542091 0.191981
vt 0.513992 0.056470
vt 0.462093 0.109661
vt 0.542091 0.191981
vt 0.513992 0.056470
vt 0.462093 0.109661
vt 0.542091 0.191981
vt 0.513992 0.056470
vt 0.462093 0.109661
vt 0.542091 0.191981
vt 0.513992 0.056470
vt 0.462093 0.109661
vt 0.542091 0.191981
vt 0.513992 0.056470
vt 0.462093 0.109661
vt 0.542091 0.191981
vt 0.513992 0.056470
vt 0.462093 0.109661
vt 0.542091 0.191981
vt 0.513992 0.056470
vn 0.001508 -0.009727 0.999952
vn 0.001508 -0.009727 0.999952
vn 0.001508 -0.009727 0.999952
vn 0.556129 0.001293 0.831095
vn 0.556129 0.001293 0.831095
vn 0.556129 0.001293 0.831095
vn 0.817871 0.003080 0.575393
vn 0.817871 0.003080 0.575393
vn 0.817871 0.003080 0.575393
vn 0.913190 0.015217 0.407250
vn 0.913190 0.015217 0.407250
vn 0.913190 0.015217 0.407250
vn 0.313482 -0.007853 0.949562
vn 0.313482 -0.007853 0.949562
vn 0.313482 -0.007853 0.949562
vn -0.564043 -0.007109 0.825715
vn -0.564043 -0.007109 0.825715
vn -0.564043 -0.007109 0.825715
vn -0.796157 -0.024034 0.604613
vn -0.796157 -0.024034 0.604613
vn -0.796157 -0.024034 0.604613
vn -0.961226 -0.012068 -0.275496
vn -0.961226 -0.012068 -0.275496
vn -0.961226 -0.012068 -0.275496
vn -0.685247 -0.006316 -0.728283
vn -0.685247 -0.006316 -0.728283
vn -0.685247 -0.006316 -0.728283
vn -0.135240 0.003090 -0.990808
vn -0.135240 0.003090 -0.990808
vn -0.135240 0.003090 -0.990808
vn 0.580496 0.009839 -0.814204
vn 0.580496 0.009839 -0.814204
vn 0.580496 0.009839 -0.814204
vn 0.895770 0.006713 -0.444467
vn 0.895770 0.006713 -0.444467
vn 0.895770 0.006713 -0.444467
vn 0.815962 -0.009727 0.578024
vn 0.815962 -0.009727 0.578024
vn 0.815962 -0.009727 0.578024
vn 0.999604 0.001293 0.028122
vn 0.999604 0.001293 0.028122
vn 0.999604 0.001293 0.028122
vn 0.942796 0.003080 -0.333355
vn 0.942796 0.003080 -0.333355
vn 0.942796 0.003080 -0.333355
vn 0.860955 0.015217 -0.508454
vn 0.860955 0.015217 -0.508454
vn 0.860955 0.015217 -0.508454
vn 0.955608 -0.007853 0.294536
vn 0.955608 -0.007853 0.294535
vn 0.955608 -0.007853 0.294536
vn 0.346324 -0.007109 0.938088
vn 0.346324 -0.007109 0.938088
vn 0.346324 -0.007109 0.938088
vn 0.031638 -0.024034 0.999210
vn 0.031638 -0.024034 0.999210
vn 0.031638 -0.024034 0.999210
vn -0.781385 -0.012068 0.623932
vn -0.781385 -0.012068 0.623932
vn -0.781385 -0.012068 0.623932
vn -0.990595 -0.006316 0.136683
vn -0.990595 -0.006316 0.136683
vn -0.990595 -0.006316 0.136683
vn -0.885977 0.003090 -0.463718
vn -0.885977 0.003090 -0.463718
vn -0.885977 0.003090 -0.463718
vn -0.327410 0.009839 -0.944831
vn -0.327410 0.009839 -0.944831
vn -0.327410 0.009839 -0.944831
vn 0.156605 0.006713 -0.987638
vn 0.156605 0.006713 -0.987638
vn 0.156605 0.006713 -0.987638
s off
g TR_Anemone
usemtl TR_AnemoneSG
f 2/2/1 3/3/2 1/1/3
f 4/4/4 5/5/5 6/6/6
f 7/7/7 8/8/8 9/9/9
f 10/10/10 11/11/11 12/12/12
f 13/13/13 14/14/14 15/15/15
f 16/16/16 17/17/17 18/18/18
f 19/19/19 20/20/20 21/21/21
f 22/22/22 23/23/23 24/24/24
f 25/25/25 26/26/26 27/27/27
f 28/28/28 29/29/29 30/30/30
f 31/31/31 32/32/32 33/33/33
f 34/34/34 35/35/35 36/36/36
f 38/38/37 39/39/38 37/37/39
f 40/40/40 41/41/41 42/42/42
f 43/43/43 44/44/44 45/45/45
f 46/46/46 47/47/47 48/48/48
f 49/49/49 50/50/50 51/51/51
f 52/52/52 53/53/53 54/54/54
f 55/55/55 56/56/56 57/57/57
f 58/58/58 59/59/59 60/60/60
f 61/61/61 62/62/62 63/63/63
f 64/64/64 65/65/65 66/66/66
f 67/67/67 68/68/68 69/69/69
f 70/70/70 71/71/71 72/72/72
