# This file uses meters as units for non-parametric coordinates.

mtllib tr_alga_a.max.fobj.mtl
g default
v -11.312256 135.620534 3.433931
v -17.402892 -0.179505 0.133955
v 12.652683 -0.180536 -2.290044
v -17.044377 33.473849 -5.245028
v 11.743500 90.319669 6.156241
v 12.945062 45.423147 -1.101234
v -16.570486 85.452491 -5.428116
v -16.523355 61.809719 -5.229163
v 12.565853 22.895326 -1.646991
v 3.693695 17.445026 0.453411
v -7.492810 37.481508 10.460234
v 6.266747 45.952860 3.326545
v -7.624533 17.097113 10.679813
v -5.666475 0.014192 12.591481
v 3.306271 0.013670 0.191128
v -2.384814 68.948215 11.328440
v 5.705833 32.761183 -1.324993
v 6.945501 26.564002 -12.349037
v 2.079182 -0.024751 -12.385013
v 5.263676 -0.426757 -1.851567
v 6.645100 49.347401 -9.666457
vt 0.015654 1.000000
vt 0.000000 0.437216
vt 0.115990 0.437716
vt 0.000115 0.566103
vt 0.116352 0.844203
vt 0.116153 0.621211
vt 0.000315 0.791076
vt 0.000224 0.688745
vt 0.116073 0.530566
vt 0.105320 0.587426
vt 0.116352 0.844203
vt 0.000115 0.566103
vt 0.000000 0.437216
vt 0.115990 0.437716
vt 0.015654 1.000000
vt -0.000880 0.755229
vt 0.116352 0.844203
vt -0.000880 0.755229
vt 0.000000 0.437216
vt 0.115990 0.437716
vt 0.015654 1.000000
vn -0.176227 -0.069567 0.981888
vn -0.234872 -0.065818 0.969795
vn -0.050695 0.038393 0.997976
vn -0.323790 -0.107357 0.940018
vn -0.234872 -0.065818 0.969795
vn -0.176227 -0.069567 0.981888
vn -0.234872 -0.065818 0.969795
vn -0.098041 0.063376 0.993162
vn -0.050695 0.038393 0.997976
vn -0.050695 0.038393 0.997976
vn -0.002937 0.080744 0.996731
vn 0.080358 -0.027464 0.996388
vn -0.357007 -0.126078 0.925554
vn -0.370970 -0.049114 0.927345
vn -0.323790 -0.107357 0.940018
vn -0.370970 -0.049114 0.927345
vn -0.234872 -0.065818 0.969795
vn -0.323790 -0.107357 0.940018
vn -0.050695 0.038393 0.997976
vn -0.098041 0.063376 0.993162
vn -0.002937 0.080744 0.996731
vn 0.512631 -0.116268 0.850700
vn 0.550746 -0.095177 0.829228
vn 0.677038 0.009757 0.735884
vn 0.550746 -0.095177 0.829228
vn 0.666753 0.082166 0.740735
vn 0.677038 0.009757 0.735884
vn 0.677038 0.009757 0.735884
vn 0.748344 0.058263 0.660747
vn 0.809862 -0.026817 0.586007
vn 0.508380 -0.106104 0.854571
vn 0.550746 -0.095177 0.829228
vn 0.512631 -0.116268 0.850700
vn 0.677038 0.009757 0.735884
vn 0.666753 0.082166 0.740735
vn 0.748344 0.058263 0.660747
vn -0.993339 0.005995 -0.115072
vn -0.997370 0.030873 -0.065567
vn -0.971559 0.135946 0.193885
vn -0.993733 0.000059 -0.111780
vn -0.997370 0.030873 -0.065567
vn -0.993339 0.005995 -0.115072
vn -0.971559 0.135946 0.193885
vn -0.997370 0.030873 -0.065567
vn -0.941135 0.171854 0.291085
s off
g TR_Alga_A
usemtl TR_Alga_ASG
f 6/6/1 8/8/2 9/9/3
f 5/5/4 8/8/5 6/6/6
f 8/8/7 4/4/8 9/9/9
f 9/9/10 2/2/11 3/3/12
f 1/1/13 7/7/14 5/5/15
f 7/7/16 8/8/17 5/5/18
f 9/9/19 4/4/20 2/2/21
f 12/11/22 11/16/23 10/10/24
f 11/16/25 13/12/26 10/10/27
f 10/10/28 14/13/29 15/14/30
f 16/15/31 11/16/32 12/11/33
f 10/10/34 13/12/35 14/13/36
f 17/17/37 18/18/38 20/20/39
f 21/21/40 18/18/41 17/17/42
f 20/20/43 18/18/44 19/19/45
