# This file uses meters as units for non-parametric coordinates.

mtllib tr_branch_c.max.fobj.mtl
g default
v 4.694451 -0.585043 1.083955
v 10.916433 37.243313 -3.327069
v 12.363505 98.109251 -4.852707
v 8.525614 150.544679 -0.292777
v 6.318524 205.089724 -2.515674
v -0.280686 209.769237 -4.553159
v -5.253643 203.753912 -7.640729
v -12.210614 151.349461 0.092690
v -1.886816 93.046898 -1.592498
v -0.751419 35.644352 4.184889
v -2.778932 -0.594807 9.502723
v -3.102007 -0.608206 2.142233
v 2.356504 36.420184 -3.984762
v 8.630759 97.234821 -8.076177
v 2.960229 150.980020 -9.499089
v 2.065286 206.441104 -9.001255
v -6.681904 150.846589 -9.312064
v 1.811397 95.073646 -6.567478
v 4.569840 -0.608206 8.951266
v 8.012426 36.420184 4.620015
v 10.518464 97.234815 -0.478039
v 2.418604 151.199532 8.709629
v -1.798923 206.020057 0.967162
v -6.803694 150.895941 9.011041
v 3.819375 95.073640 1.067333
vt 0.806725 0.965373
vt 0.802905 0.892720
vt 0.806791 0.842383
vt 0.796949 0.786964
vt 0.764389 0.697536
vt 0.749942 0.679845
vt 0.744553 0.708010
vt 0.764460 0.797735
vt 0.786192 0.846522
vt 0.788241 0.895252
vt 0.800759 0.965524
vt 0.802726 0.965154
vt 0.795438 0.894020
vt 0.799083 0.841453
vt 0.784613 0.789998
vt 0.754642 0.701489
vt 0.774514 0.794164
vt 0.792627 0.844330
vt 0.806725 0.965373
vt 0.802905 0.892720
vt 0.806791 0.842383
vt 0.796949 0.786964
vt 0.764389 0.697536
vt 0.744553 0.708010
vt 0.764460 0.797735
vt 0.786192 0.846522
vt 0.788241 0.895252
vt 0.800759 0.965524
vt 0.802726 0.965154
vt 0.795438 0.894020
vt 0.799083 0.841453
vt 0.784613 0.789998
vt 0.754642 0.701489
vt 0.774514 0.794164
vt 0.792627 0.844330
vt 0.807241 0.927405
vt 0.806791 0.842383
vt 0.790998 0.765966
vt 0.763851 0.699151
vt 0.800936 0.609869
vt 0.793667 0.574682
vt 0.753671 0.563394
vt 0.721305 0.598418
vt 0.740861 0.625362
vt 0.744553 0.708010
vt 0.760124 0.779429
vt 0.786192 0.846522
vt 0.792576 0.929936
vt 0.799774 0.928704
vt 0.794236 0.844146
vt 0.753565 0.705258
vt 0.786721 0.608388
vt 0.782376 0.585563
vt 0.757734 0.576969
vt 0.738465 0.600730
vt 0.756603 0.622704
vt 0.775564 0.770473
vt 0.763296 0.601364
vt 0.807723 0.928850
vt 0.806791 0.842383
vt 0.792613 0.768659
vt 0.764389 0.697536
vt 0.800936 0.609869
vt 0.793667 0.574682
vt 0.753671 0.563394
vt 0.721305 0.598418
vt 0.740861 0.625362
vt 0.744553 0.708010
vt 0.760124 0.779429
vt 0.782338 0.846522
vt 0.793058 0.931381
vt 0.800255 0.930150
vt 0.775942 0.772174
vt 0.754642 0.701489
vt 0.786721 0.608388
vt 0.782376 0.585563
vt 0.757734 0.576969
vt 0.738465 0.600730
vt 0.756603 0.622704
vt 0.795036 0.842403
vt 0.763296 0.601364
vn -0.506719 -0.066060 -0.859577
vn -0.512549 -0.070486 -0.855760
vn 0.264573 -0.023594 -0.964077
vn 0.264573 -0.023594 -0.964077
vn -0.512549 -0.070486 -0.855760
vn 0.462659 0.019804 -0.886315
vn -0.512549 -0.070486 -0.855760
vn -0.522745 -0.047457 -0.851167
vn 0.462659 0.019804 -0.886315
vn -0.522745 -0.047457 -0.851167
vn 0.330449 0.474714 -0.815751
vn 0.462659 0.019804 -0.886315
vn -0.639602 0.146519 0.754614
vn -0.826326 0.110796 0.552186
vn -0.807726 -0.037065 -0.588392
vn -0.506719 -0.066060 -0.859577
vn -0.807726 -0.037065 -0.588392
vn -0.826326 0.110796 0.552186
vn 0.840615 -0.125047 -0.527000
vn 0.666319 -0.181215 -0.723312
vn -0.506719 -0.066060 -0.859577
vn -0.807726 -0.037065 -0.588392
vn -0.506719 -0.066060 -0.859577
vn 0.666319 -0.181215 -0.723312
vn 0.973723 0.027090 -0.226117
vn 0.840615 -0.125047 -0.527000
vn 0.264573 -0.023594 -0.964077
vn -0.506719 -0.066060 -0.859577
vn 0.264573 -0.023594 -0.964077
vn 0.840615 -0.125047 -0.527000
vn -0.826326 0.110796 0.552186
vn -0.969446 -0.077409 0.232770
vn -0.506719 -0.066060 -0.859577
vn -0.512549 -0.070486 -0.855760
vn -0.506719 -0.066060 -0.859577
vn -0.969446 -0.077409 0.232770
vn 0.995068 0.079418 0.059427
vn 0.973723 0.027090 -0.226117
vn 0.462659 0.019804 -0.886315
vn 0.264573 -0.023594 -0.964077
vn 0.462659 0.019804 -0.886315
vn 0.973723 0.027090 -0.226117
vn -0.969446 -0.077409 0.232770
vn -0.998556 -0.034298 0.041342
vn -0.512549 -0.070486 -0.855760
vn -0.522745 -0.047457 -0.851167
vn -0.512549 -0.070486 -0.855760
vn -0.998556 -0.034298 0.041342
vn -0.998556 -0.034298 0.041342
vn -0.814625 0.335491 -0.473108
vn -0.522745 -0.047457 -0.851167
vn 0.330449 0.474714 -0.815751
vn -0.522745 -0.047457 -0.851167
vn -0.814625 0.335491 -0.473108
vn 0.883724 0.387801 0.261997
vn 0.995068 0.079418 0.059427
vn 0.330449 0.474714 -0.815751
vn 0.462659 0.019804 -0.886315
vn 0.330449 0.474714 -0.815751
vn 0.995068 0.079418 0.059427
vn 0.330449 0.474714 -0.815751
vn -0.116374 0.992993 -0.020550
vn 0.883724 0.387801 0.261997
vn -0.814625 0.335491 -0.473108
vn -0.116374 0.992993 -0.020550
vn 0.330449 0.474714 -0.815751
vn -0.107485 -0.035831 0.993561
vn 0.568800 0.021854 0.822185
vn 0.680679 -0.005680 0.732560
vn -0.107485 -0.035831 0.993561
vn 0.680679 -0.005680 0.732560
vn 0.463957 0.043082 0.884810
vn -0.495139 -0.017414 0.868639
vn -0.107485 -0.035831 0.993561
vn 0.463957 0.043082 0.884810
vn -0.324670 0.497177 0.804614
vn -0.495139 -0.017414 0.868639
vn 0.463957 0.043082 0.884810
vn -0.826326 0.110796 0.552186
vn -0.639602 0.146519 0.754614
vn 0.675691 0.043535 0.735899
vn 0.675691 0.043535 0.735899
vn 0.568800 0.021854 0.822185
vn -0.826326 0.110796 0.552186
vn 0.666319 -0.181215 -0.723312
vn 0.840615 -0.125047 -0.527000
vn 0.568800 0.021854 0.822185
vn 0.568800 0.021854 0.822185
vn 0.675691 0.043535 0.735899
vn 0.666319 -0.181215 -0.723312
vn 0.840615 -0.125047 -0.527000
vn 0.973723 0.027090 -0.226117
vn 0.680679 -0.005680 0.732560
vn 0.680679 -0.005680 0.732560
vn 0.568800 0.021854 0.822185
vn 0.840615 -0.125047 -0.527000
vn -0.969446 -0.077409 0.232770
vn -0.826326 0.110796 0.552186
vn 0.568800 0.021854 0.822185
vn 0.568800 0.021854 0.822185
vn -0.107485 -0.035831 0.993561
vn -0.969446 -0.077409 0.232770
vn 0.973723 0.027090 -0.226117
vn 0.995068 0.079418 0.059427
vn 0.463957 0.043082 0.884810
vn 0.463957 0.043082 0.884810
vn 0.680679 -0.005680 0.732560
vn 0.973723 0.027090 -0.226117
vn -0.998556 -0.034298 0.041342
vn -0.969446 -0.077409 0.232770
vn -0.107485 -0.035831 0.993561
vn -0.107485 -0.035831 0.993561
vn -0.495139 -0.017414 0.868639
vn -0.998556 -0.034298 0.041342
vn -0.814625 0.335491 -0.473108
vn -0.998556 -0.034298 0.041342
vn -0.495139 -0.017414 0.868639
vn -0.495139 -0.017414 0.868639
vn -0.324670 0.497177 0.804614
vn -0.814625 0.335491 -0.473108
vn 0.995068 0.079418 0.059427
vn 0.883724 0.387801 0.261997
vn -0.324670 0.497177 0.804614
vn -0.324670 0.497177 0.804614
vn 0.463957 0.043082 0.884810
vn 0.995068 0.079418 0.059427
vn -0.116374 0.992993 -0.020550
vn -0.324670 0.497177 0.804614
vn 0.883724 0.387801 0.261997
vn -0.116374 0.992993 -0.020550
vn -0.814625 0.335491 -0.473108
vn -0.324670 0.497177 0.804614
s off
g TR_Branch_C
usemtl TR_Branch_CSG
f 13/13/1 18/18/2 14/14/3
f 14/14/4 18/18/5 15/15/6
f 18/18/7 17/17/8 15/15/9
f 17/17/10 16/16/11 15/15/12
f 11/11/13 10/10/14 12/12/15
f 13/13/16 12/12/17 10/10/18
f 2/2/19 1/1/20 13/13/21
f 12/12/22 13/13/23 1/1/24
f 3/3/25 2/2/26 14/14/27
f 13/13/28 14/14/29 2/2/30
f 10/10/31 9/9/32 13/13/33
f 18/18/34 13/13/35 9/9/36
f 4/4/37 3/3/38 15/15/39
f 14/14/40 15/15/41 3/3/42
f 9/9/43 8/8/44 18/18/45
f 17/17/46 18/18/47 8/8/48
f 8/8/49 7/7/50 17/17/51
f 16/16/52 17/17/53 7/7/54
f 5/5/55 4/4/56 16/16/57
f 15/15/58 16/16/59 4/4/60
f 16/16/61 6/6/62 5/5/63
f 7/7/64 6/6/65 16/16/66
f 25/35/67 20/30/68 21/31/69
f 25/35/70 21/31/71 22/32/72
f 24/34/73 25/35/74 22/32/75
f 23/33/76 24/34/77 22/32/78
f 10/27/79 11/28/80 19/29/81
f 19/29/82 20/30/83 10/27/84
f 1/19/85 2/20/86 20/30/87
f 20/30/88 19/29/89 1/19/90
f 2/20/91 3/21/92 21/31/93
f 21/31/94 20/30/95 2/20/96
f 9/26/97 10/27/98 20/30/99
f 20/30/100 25/35/101 9/26/102
f 3/21/103 4/22/104 22/32/105
f 22/32/106 21/31/107 3/21/108
f 8/25/109 9/26/110 25/35/111
f 25/35/112 24/34/113 8/25/114
f 7/24/115 8/25/116 24/34/117
f 24/34/118 23/33/119 7/24/120
f 4/22/121 5/23/122 23/33/123
f 23/33/124 22/32/125 4/22/126
f 6/6/127 23/33/128 5/23/129
f 6/6/130 7/24/131 23/33/132
