# This file uses meters as units for non-parametric coordinates.

mtllib tr_crabeye.max.fobj.mtl
g default
v 25.760078 100.714612 14.043319
v -27.022856 100.714612 -11.359393
v -29.477680 -0.934753 0.000007
v 29.099929 -0.934753 0.000007
v 28.217515 21.091551 7.135197
v -27.710238 69.748855 -9.819128
vt 0.244701 0.432071
vt 0.152721 0.432071
vt 0.152721 0.260750
vt 0.244701 0.260750
vt 0.244701 0.297873
vt 0.152721 0.379881
vn -0.337686 0.023046 0.940977
vn -0.163055 -0.100410 0.981494
vn -0.384573 -0.046380 0.921928
vn -0.337686 0.023046 0.940977
vn -0.134955 0.032698 0.990312
vn -0.163055 -0.100410 0.981494
vn -0.134955 0.032698 0.990312
vn 0.000000 -0.308173 0.951330
vn -0.163055 -0.100410 0.981494
vn -0.433018 0.054366 0.899744
vn -0.337686 0.023046 0.940977
vn -0.384573 -0.046380 0.921928
s off
g TR_Crabeye
usemtl TR_CrabeyeSG
f 6/6/1 5/5/2 1/1/3
f 6/6/4 3/3/5 5/5/6
f 3/3/7 4/4/8 5/5/9
f 2/2/10 6/6/11 1/1/12
