# This file uses meters as units for non-parametric coordinates.

mtllib tr_cucumber.max.fobj.mtl
g default
v 15.958558 56.983203 -9.921305
v 5.814485 58.754086 -9.998044
v 0.678063 59.652376 -1.005446
v 5.667499 58.779776 8.074685
v 15.811373 57.008892 8.173478
v 20.957501 56.110603 -0.830070
v 14.567806 39.428660 -24.744268
v -10.212500 42.389756 -20.832857
v -19.273075 43.473980 2.866111
v -3.586369 41.597116 22.701032
v 21.218905 38.636020 18.839484
v 30.309314 37.551793 -4.906419
v 10.083115 26.802394 -30.333668
v -18.783695 29.103598 -22.147281
v -26.186252 29.694068 7.092345
v -4.737099 27.983335 28.184885
v 24.155407 25.682130 20.030515
v 31.572595 25.091660 -9.247582
v 3.660357 11.506005 -29.754090
v -22.635067 12.384785 -18.053930
v -25.665373 12.486067 10.592624
v -2.401550 11.708566 27.547622
v 23.900470 10.829785 15.852711
v 27.572882 10.707088 -13.285182
v 0.111365 -0.038535 -23.450686
v -19.207984 -0.040670 -12.287646
v -19.200176 -0.040670 10.024928
v 0.126983 -0.038535 21.174452
v 19.446333 -0.036396 10.011398
v 19.438516 -0.036396 -12.301174
v -0.398493 50.558513 16.622633
v -2.494290 51.193160 -16.986060
v -9.862857 53.207976 0.171156
v 18.416086 48.860073 14.649634
v 26.632923 47.520962 -2.145064
v 16.441065 49.030566 -17.829728
v -21.491276 -0.040670 -1.113154
v -9.803532 -0.039516 18.099244
v 9.782404 -0.037584 18.286483
v 21.792419 -0.036396 -2.236918
v 10.393351 -0.037521 -20.219570
v -11.537653 -0.039689 -19.384690
v 28.675452 63.355190 -0.318510
v 20.893742 65.498441 -14.449838
v 4.078223 68.427306 -15.733209
v -5.072860 69.099671 -0.325538
v 4.055324 68.256700 15.103242
v 20.871480 65.328449 13.826840
v 12.293152 66.718417 -0.891973
vt 0.253566 0.428002
vt 0.324416 0.427869
vt 0.253566 0.346336
vt 0.324416 0.345583
vt 0.253579 0.286079
vt 0.324396 0.287162
vt 0.253579 0.211744
vt 0.324416 0.215895
vt 0.253580 0.161517
vt 0.324411 0.160433
vt 0.325359 0.160433
vt 0.324396 0.394217
vt 0.253580 0.392794
vt 0.255581 0.381535
vt 0.324384 0.392794
vt 0.255605 0.344327
vt 0.324390 0.348503
vt 0.324377 0.283912
vt 0.255603 0.284359
vt 0.324392 0.213911
vt 0.324408 0.161250
vt 0.255607 0.214812
vt 0.255603 0.161250
vt 0.324711 0.160433
vt 0.322383 0.380214
vt 0.322319 0.340900
vt 0.255077 0.340347
vt 0.255070 0.386909
vt 0.322323 0.284843
vt 0.255091 0.280654
vt 0.322319 0.214880
vt 0.255066 0.213652
vt 0.322767 0.162830
vt 0.255072 0.160663
vt 0.323536 0.160663
vt 0.291818 0.160433
vt 0.293579 0.162830
vt 0.288629 0.161249
vt 0.152474 0.432029
vt 0.246731 0.433815
vt 0.152998 0.257687
vt 0.247186 0.259842
vt 0.289386 0.483856
vt 0.253439 0.427283
vt 0.287045 0.488862
vt 0.255114 0.426863
vt 0.289318 0.484460
vt 0.324387 0.424046
vt 0.253444 0.429385
vt 0.288688 0.485747
vt 0.255077 0.427578
vt 0.322542 0.424387
vt 0.288347 0.484278
vt 0.289178 0.485624
vt 0.151553 0.430414
vt 0.156858 0.263709
vt 0.247854 0.266307
vt 0.244231 0.433031
vt 0.154067 0.435993
vt 0.247572 0.429243
vt 0.157477 0.265137
vt 0.249193 0.265377
vt 0.241889 0.432073
vt 0.153895 0.429243
vt 0.155297 0.264412
vt 0.245588 0.263966
vt 0.241889 0.431204
vt 0.153895 0.428072
vt 0.243409 0.265136
vt 0.156713 0.266219
vt 0.241391 0.261624
vt 0.155383 0.264300
vt 0.244059 0.431186
vt 0.155238 0.429243
vt 0.324622 0.346667
vt 0.324443 0.391388
vt 0.252479 0.381535
vt 0.252479 0.345411
vt 0.252479 0.283276
vt 0.252479 0.213728
vt 0.324756 0.286098
vt 0.324711 0.214721
vt 0.252479 0.160433
vt 0.290329 0.160433
vt 0.325359 0.387680
vt 0.252500 0.387716
vt 0.252492 0.346667
vt 0.252492 0.286079
vt 0.325359 0.346998
vt 0.252445 0.213728
vt 0.325359 0.285748
vt 0.325359 0.214721
vt 0.253001 0.160433
vt 0.285181 0.160433
vt 0.321437 0.425798
vt 0.254590 0.426554
vt 0.250640 0.386909
vt 0.251507 0.339264
vt 0.323536 0.386323
vt 0.253082 0.279570
vt 0.323536 0.341887
vt 0.254496 0.213652
vt 0.323536 0.280451
vt 0.323536 0.211620
vt 0.255269 0.160663
vt 0.292258 0.160663
vt 0.324521 0.427541
vt 0.325359 0.428002
vt 0.255077 0.427578
vt 0.322542 0.424387
vn -0.311957 0.697697 -0.644905
vn 0.462009 0.539834 -0.703653
vn 0.392867 0.365116 -0.844006
vn 0.074464 0.985694 -0.151206
vn 0.462009 0.539834 -0.703653
vn -0.311957 0.697697 -0.644905
vn -0.798638 0.589351 0.121830
vn -0.485432 0.529462 -0.695720
vn -0.688807 0.227773 -0.688232
vn -0.311957 0.697697 -0.644905
vn -0.485432 0.529462 -0.695720
vn -0.631716 0.774274 0.037860
vn -0.248143 0.681179 0.688782
vn -0.631716 0.774274 0.037860
vn -0.798638 0.589351 0.121830
vn -0.007073 0.999967 -0.004009
vn -0.631716 0.774274 0.037860
vn 0.080108 0.983089 0.164678
vn 0.518735 0.530279 0.670610
vn -0.277453 0.488609 0.827213
vn 0.606866 0.322252 0.726545
vn 0.080108 0.983089 0.164678
vn -0.248143 0.681179 0.688782
vn 0.271964 0.948717 0.161155
vn 0.895794 0.443465 -0.029858
vn 0.606866 0.322252 0.726545
vn 0.959574 0.252956 -0.123418
vn 0.370742 0.928307 0.028209
vn 0.518735 0.530279 0.670610
vn 0.895794 0.443465 -0.029858
vn 0.293069 0.944909 -0.145802
vn 0.370742 0.928307 0.028209
vn 0.895794 0.443465 -0.029858
vn 0.895794 0.443465 -0.029858
vn 0.959574 0.252956 -0.123418
vn 0.462009 0.539834 -0.703653
vn -0.485432 0.529462 -0.695720
vn 0.246637 0.093383 -0.964598
vn -0.688807 0.227773 -0.688232
vn 0.392867 0.365116 -0.844006
vn 0.246637 0.093383 -0.964598
vn -0.485432 0.529462 -0.695720
vn -0.798638 0.589351 0.121830
vn -0.688807 0.227773 -0.688232
vn -0.929439 0.261899 0.259908
vn -0.007073 0.999967 -0.004009
vn -0.311957 0.697697 -0.644905
vn -0.631716 0.774274 0.037860
vn -0.277453 0.488609 0.827213
vn -0.929439 0.261899 0.259908
vn -0.242477 0.157682 0.957257
vn -0.798638 0.589351 0.121830
vn -0.929439 0.261899 0.259908
vn -0.277453 0.488609 0.827213
vn 0.606866 0.322252 0.726545
vn -0.242477 0.157682 0.957257
vn 0.712427 0.010946 0.701661
vn -0.277453 0.488609 0.827213
vn -0.242477 0.157682 0.957257
vn 0.606866 0.322252 0.726545
vn 0.959574 0.252956 -0.123418
vn 0.712427 0.010946 0.701661
vn 0.964948 -0.006791 -0.262352
vn 0.606866 0.322252 0.726545
vn 0.712427 0.010946 0.701661
vn 0.959574 0.252956 -0.123418
vn 0.392867 0.365116 -0.844006
vn 0.964948 -0.006791 -0.262352
vn 0.246637 0.093383 -0.964598
vn 0.959574 0.252956 -0.123418
vn 0.964948 -0.006791 -0.262352
vn 0.392867 0.365116 -0.844006
vn -0.688807 0.227773 -0.688232
vn 0.056355 -0.252353 -0.965993
vn -0.810530 -0.167668 -0.561185
vn -0.688807 0.227773 -0.688232
vn 0.246637 0.093383 -0.964598
vn 0.056355 -0.252353 -0.965993
vn -0.688807 0.227773 -0.688232
vn -0.810530 -0.167668 -0.561185
vn -0.929439 0.261899 0.259908
vn -0.929439 0.261899 0.259908
vn -0.810530 -0.167668 -0.561185
vn -0.899069 -0.165268 0.405414
vn -0.242477 0.157682 0.957257
vn -0.899069 -0.165268 0.405414
vn -0.110634 -0.241454 0.964085
vn -0.929439 0.261899 0.259908
vn -0.899069 -0.165268 0.405414
vn -0.242477 0.157682 0.957257
vn -0.242477 0.157682 0.957257
vn -0.110634 -0.241454 0.964085
vn 0.712427 0.010946 0.701661
vn 0.712427 0.010946 0.701661
vn -0.110634 -0.241454 0.964085
vn 0.763520 -0.331375 0.554281
vn 0.964948 -0.006791 -0.262352
vn 0.763520 -0.331375 0.554281
vn 0.850705 -0.329884 -0.409241
vn 0.964948 -0.006791 -0.262352
vn 0.712427 0.010946 0.701661
vn 0.763520 -0.331375 0.554281
vn 0.964948 -0.006791 -0.262352
vn 0.850705 -0.329884 -0.409241
vn 0.246637 0.093383 -0.964598
vn 0.246637 0.093383 -0.964598
vn 0.850705 -0.329884 -0.409241
vn 0.056355 -0.252353 -0.965993
vn -0.810530 -0.167668 -0.561185
vn -0.449925 -0.352638 -0.820496
vn -0.816177 -0.412753 -0.404339
vn 0.056355 -0.252353 -0.965993
vn -0.069634 -0.461488 -0.884410
vn -0.449925 -0.352638 -0.820496
vn -0.899069 -0.165268 0.405414
vn -0.946108 -0.321245 -0.041001
vn -0.761426 -0.415530 0.497560
vn -0.810530 -0.167668 -0.561185
vn -0.816177 -0.412753 -0.404339
vn -0.946108 -0.321245 -0.041001
vn -0.110634 -0.241454 0.964085
vn -0.499174 -0.354526 0.790656
vn 0.030426 -0.471582 0.881297
vn -0.899069 -0.165268 0.405414
vn -0.761426 -0.415530 0.497560
vn -0.499174 -0.354526 0.790656
vn 0.763520 -0.331375 0.554281
vn 0.399074 -0.394510 0.827709
vn 0.760705 -0.520385 0.387980
vn -0.110634 -0.241454 0.964085
vn 0.030426 -0.471582 0.881297
vn 0.399074 -0.394510 0.827709
vn 0.850705 -0.329884 -0.409241
vn 0.885989 -0.461830 0.041686
vn 0.683991 -0.560630 -0.466744
vn 0.763520 -0.331375 0.554281
vn 0.760705 -0.520385 0.387980
vn 0.885989 -0.461830 0.041686
vn 0.056355 -0.252353 -0.965993
vn 0.462219 -0.426509 -0.777460
vn -0.069634 -0.461488 -0.884410
vn 0.850705 -0.329884 -0.409241
vn 0.683991 -0.560630 -0.466744
vn 0.462219 -0.426509 -0.777460
vn 0.080108 0.983089 0.164678
vn -0.631716 0.774274 0.037860
vn -0.248143 0.681179 0.688782
vn -0.248143 0.681179 0.688782
vn -0.277453 0.488609 0.827213
vn 0.518735 0.530279 0.670610
vn 0.074464 0.985694 -0.151206
vn -0.311957 0.697697 -0.644905
vn -0.007073 0.999967 -0.004009
vn 0.293069 0.944909 -0.145802
vn 0.462009 0.539834 -0.703653
vn 0.074464 0.985694 -0.151206
vn -0.631716 0.774274 0.037860
vn -0.485432 0.529462 -0.695720
vn -0.798638 0.589351 0.121830
vn -0.248143 0.681179 0.688782
vn -0.798638 0.589351 0.121830
vn -0.277453 0.488609 0.827213
vn 0.895794 0.443465 -0.029858
vn 0.518735 0.530279 0.670610
vn 0.606866 0.322252 0.726545
vn 0.271964 0.948717 0.161155
vn -0.248143 0.681179 0.688782
vn 0.518735 0.530279 0.670610
vn 0.293069 0.944909 -0.145802
vn 0.895794 0.443465 -0.029858
vn 0.462009 0.539834 -0.703653
vn 0.271964 0.948717 0.161155
vn 0.518735 0.530279 0.670610
vn 0.370742 0.928307 0.028209
vn 0.462009 0.539834 -0.703653
vn 0.959574 0.252956 -0.123418
vn 0.392867 0.365116 -0.844006
vn -0.311957 0.697697 -0.644905
vn 0.392867 0.365116 -0.844006
vn -0.485432 0.529462 -0.695720
vn -0.899069 -0.165268 0.405414
vn -0.810530 -0.167668 -0.561185
vn -0.946108 -0.321245 -0.041001
vn -0.110634 -0.241454 0.964085
vn -0.899069 -0.165268 0.405414
vn -0.499174 -0.354526 0.790656
vn 0.763520 -0.331375 0.554281
vn -0.110634 -0.241454 0.964085
vn 0.399074 -0.394510 0.827709
vn 0.850705 -0.329884 -0.409241
vn 0.763520 -0.331375 0.554281
vn 0.885989 -0.461830 0.041686
vn 0.056355 -0.252353 -0.965993
vn 0.850705 -0.329884 -0.409241
vn 0.462219 -0.426509 -0.777460
vn -0.810530 -0.167668 -0.561185
vn 0.056355 -0.252353 -0.965993
vn -0.449925 -0.352638 -0.820496
vn 0.080108 0.983089 0.164678
vn -0.007073 0.999967 -0.004009
vn 0.439676 0.590728 -0.676554
vn -0.686892 0.726753 -0.003135
vn 0.370742 0.928307 0.028209
vn 0.271964 0.948717 0.161155
vn 0.080108 0.983089 0.164678
vn 0.439676 0.590728 -0.676554
vn -0.290408 0.667611 -0.685535
vn -0.686892 0.726753 -0.003135
vn -0.336593 0.608266 0.718831
vn 0.370742 0.928307 0.028209
vn -0.336593 0.608266 0.718831
vn 0.455298 0.513116 0.727610
vn 0.074464 0.985694 -0.151206
vn 0.455298 0.513116 0.727610
vn 0.858519 0.512580 -0.014371
vn 0.074464 0.985694 -0.151206
vn 0.074464 0.985694 -0.151206
vn 0.858519 0.512580 -0.014371
vn -0.007073 0.999967 -0.004009
vn -0.007073 0.999967 -0.004009
vn 0.858519 0.512580 -0.014371
vn 0.439676 0.590728 -0.676554
vn 0.271964 0.948717 0.161155
vn 0.080108 0.983089 0.164678
vn -0.290408 0.667611 -0.685535
vn -0.686892 0.726753 -0.003135
vn 0.271964 0.948717 0.161155
vn -0.290408 0.667611 -0.685535
vn 0.370742 0.928307 0.028209
vn -0.336593 0.608266 0.718831
vn 0.293069 0.944909 -0.145802
vn -0.336593 0.608266 0.718831
vn 0.074464 0.985694 -0.151206
vn 0.293069 0.944909 -0.145802
vn -0.007073 0.999967 -0.004009
vn 0.080108 0.983089 0.164678
vn 0.168514 0.985698 0.001356
vn 0.271964 0.948717 0.161155
vn 0.370742 0.928307 0.028209
vn 0.168514 0.985698 0.001356
vn 0.074464 0.985694 -0.151206
vn -0.007073 0.999967 -0.004009
vn 0.168514 0.985698 0.001356
vn 0.080108 0.983089 0.164678
vn 0.271964 0.948717 0.161155
vn 0.168514 0.985698 0.001356
vn 0.370742 0.928307 0.028209
vn 0.293069 0.944909 -0.145802
vn 0.168514 0.985698 0.001356
vn 0.293069 0.944909 -0.145802
vn 0.074464 0.985694 -0.151206
vn 0.168514 0.985698 0.001356
s off
g TR_cucumber
usemtl TR_cucumberSG
f 32/14/1 36/15/2 7/17/3
f 2/46/4 36/15/5 32/14/6
f 9/75/7 8/78/8 14/79/9
f 32/77/10 8/78/11 33/76/12
f 31/12/13 33/13/14 9/3/15
f 3/1/16 33/13/17 4/2/18
f 34/85/19 10/87/20 11/89/21
f 4/44/22 31/86/23 5/108/24
f 35/28/25 11/26/26 12/27/27
f 6/51/28 34/25/29 35/28/30
f 1/95/31 6/96/32 35/97/33
f 35/97/34 12/98/35 36/99/36
f 8/16/37 13/18/38 14/19/39
f 7/17/40 13/18/41 8/16/42
f 9/75/43 14/79/44 15/81/45
f 3/107/46 32/77/47 33/76/48
f 10/4/49 15/5/50 16/6/51
f 9/3/52 15/5/53 10/4/54
f 11/89/55 16/88/56 17/91/57
f 10/87/58 16/88/59 11/89/60
f 12/27/61 17/29/62 18/30/63
f 11/26/64 17/29/65 12/27/66
f 7/101/67 18/100/68 13/103/69
f 12/98/70 18/100/71 7/101/72
f 14/19/73 19/20/74 20/22/75
f 14/19/76 13/18/77 19/20/78
f 14/79/79 20/80/80 15/81/81
f 15/81/82 20/80/83 21/82/84
f 16/6/85 21/7/86 22/8/87
f 15/5/88 21/7/89 16/6/90
f 16/88/91 22/90/92 17/91/93
f 17/91/94 22/90/95 23/92/96
f 18/30/97 23/31/98 24/32/99
f 18/30/100 17/29/101 23/31/102
f 18/100/103 24/102/104 13/103/105
f 13/103/106 24/102/107 19/104/108
f 20/22/109 42/38/110 26/23/111
f 19/20/112 25/21/113 42/38/114
f 21/82/115 37/84/116 27/24/117
f 20/80/118 26/83/119 37/84/120
f 22/8/121 38/36/122 28/10/123
f 21/7/124 27/9/125 38/36/126
f 23/92/127 39/94/128 29/11/129
f 22/90/130 28/93/131 39/94/132
f 24/32/133 40/37/134 30/34/135
f 23/31/136 29/33/137 40/37/138
f 19/104/139 41/106/140 25/35/141
f 24/102/142 30/105/143 41/106/144
f 4/2/145 33/13/146 31/12/147
f 31/86/148 10/87/149 34/85/150
f 2/49/151 32/77/152 3/107/153
f 1/48/154 36/15/155 2/46/156
f 33/76/157 8/78/158 9/75/159
f 31/12/160 9/3/161 10/4/162
f 35/28/163 34/25/164 11/26/165
f 5/108/166 31/86/167 34/85/168
f 1/95/169 35/97/170 36/99/171
f 5/52/172 34/25/173 6/51/174
f 36/99/175 12/98/176 7/101/177
f 32/14/178 7/17/179 8/16/180
f 21/82/181 20/80/182 37/84/183
f 22/8/184 21/7/185 38/36/186
f 23/92/187 22/90/188 39/94/189
f 24/32/190 23/31/191 40/37/192
f 19/104/193 24/102/194 41/106/195
f 20/22/196 19/20/197 42/38/198
f 4/71/199 3/72/200 47/73/201
f 43/55/202 6/56/203 5/57/204
f 4/41/205 47/39/206 48/40/207
f 43/59/208 44/60/209 6/61/210
f 44/63/211 45/64/212 2/65/213
f 45/67/214 46/68/215 2/69/216
f 2/69/217 46/68/218 3/70/219
f 3/72/220 46/74/221 47/73/222
f 5/42/223 4/41/224 48/40/225
f 43/55/226 5/57/227 48/58/228
f 6/61/229 44/60/230 1/62/231
f 44/63/232 2/65/233 1/66/234
f 3/1/235 4/2/236 49/43/237
f 5/109/238 6/110/239 49/53/240
f 2/49/241 3/107/242 49/50/243
f 4/44/244 5/108/245 49/45/246
f 6/96/247 1/95/248 49/54/249
f 1/48/250 2/46/251 49/47/252
