# This file uses meters as units for non-parametric coordinates.

mtllib tr_corail_b.max.fobj.mtl
g default
v 53.571421 98.468810 -9.266058
v -51.732707 98.468816 9.266040
v -51.732707 0.857449 -9.266035
v 53.571421 0.857455 9.266063
v -3.560856 1.729858 48.250881
v 12.308460 1.729852 -43.721250
v -2.775211 94.347012 -43.721259
v 11.522794 94.347012 48.250872
v 53.571421 24.892461 4.702867
v -51.732707 32.112890 -3.332011
v 53.571421 70.311314 -3.920183
v 8.550447 24.804911 -43.721253
v 2.553914 39.275974 48.250878
v 0.907135 71.736580 -43.721256
vt 0.715265 0.209511
vt 0.547245 0.209511
vt 0.547245 0.000000
vt 0.715265 0.000000
vt 0.546442 0.000000
vt 0.714143 0.000000
vt 0.715172 0.211459
vt 0.547471 0.211459
vt 0.715265 0.051588
vt 0.547245 0.067086
vt 0.715265 0.149075
vt 0.714400 0.052684
vt 0.546859 0.085724
vt 0.714921 0.159836
vn 0.090406 -0.124618 0.988078
vn 0.062887 0.114791 0.991397
vn 0.170370 0.183797 0.968087
vn -0.022072 -0.137691 0.990229
vn -0.100404 -0.133153 0.985997
vn -0.112397 0.151411 0.982060
vn 0.989971 -0.111398 -0.086879
vn 0.992756 0.101715 -0.063952
vn 0.975579 0.158883 -0.151664
vn 0.993724 -0.110469 0.017564
vn 0.988595 -0.110339 0.102500
vn 0.987649 0.119548 0.101279
vn -0.100404 -0.133153 0.985997
vn -0.170370 0.183797 0.968087
vn -0.112397 0.151411 0.982060
vn 0.090406 -0.124618 0.988078
vn -0.022072 -0.137691 0.990229
vn 0.062887 0.114791 0.991397
vn -0.022072 -0.137691 0.990229
vn -0.112397 0.151411 0.982060
vn 0.062887 0.114791 0.991397
vn 0.988595 -0.110339 0.102500
vn 0.972988 0.158461 0.167884
vn 0.987649 0.119548 0.101279
vn 0.989971 -0.111398 -0.086879
vn 0.993724 -0.110469 0.017564
vn 0.992756 0.101715 -0.063952
vn 0.993724 -0.110469 0.017564
vn 0.987649 0.119548 0.101279
vn 0.992756 0.101715 -0.063952
s off
g TR_Corail_B
usemtl TR_Corail_BSG
f 2/2/1 11/11/2 1/1/3
f 10/10/4 3/3/5 9/9/6
f 8/8/7 14/14/8 7/7/9
f 13/13/10 5/5/11 12/12/12
f 3/3/13 4/4/14 9/9/15
f 2/2/16 10/10/17 11/11/18
f 10/10/19 9/9/20 11/11/21
f 5/5/22 6/6/23 12/12/24
f 8/8/25 13/13/26 14/14/27
f 13/13/28 12/12/29 14/14/30
