# This file uses meters as units for non-parametric coordinates.

mtllib tr_flower_d.max.fobj.mtl
g default
v -2.328668 22.668135 -2.759897
v 4.315941 23.341492 -1.732847
v 0.122277 22.961077 3.381192
v -2.839945 41.547155 -6.459037
v 3.352064 43.264475 -4.684942
v 4.903159 43.732184 1.283293
v 0.353813 42.541614 5.644667
v -5.945864 40.758193 4.036844
v -7.593639 40.228173 -2.103863
v -5.957977 59.802973 -10.082373
v 3.360438 63.944340 -6.068199
v 4.422008 64.438498 3.534154
v -3.111525 59.969258 9.168730
v -13.247854 56.600308 5.379195
v -14.578883 55.982089 -4.550721
v -9.144129 71.369207 -16.818707
v 5.496240 78.774619 -8.427636
v 5.440731 78.493929 8.010883
v -9.255134 70.807827 16.057528
v -23.894778 63.402784 7.666060
v -23.839281 63.683474 -8.771666
v 1.159405 -2.182883 1.563195
v 2.981375 -2.226089 -1.217960
v -0.346463 -2.189292 -1.402748
v 7.204575 79.526925 -0.175174
v -1.710249 74.723816 13.878052
v -16.577783 67.073524 13.846184
v -25.648317 62.639356 -1.377640
v -16.955969 67.314100 -14.527088
v -0.310615 75.867426 -13.722557
v 10.890371 35.828701 28.694963
v -5.790957 35.439691 25.739372
v -7.001961 -0.324330 4.608797
v 9.661781 -1.459863 1.429256
v -4.291872 13.676307 2.769741
v 13.265295 24.796376 6.096626
v -4.300599 33.083725 14.717130
v 0.552924 21.532038 -16.194566
v 16.350932 37.262115 -3.311599
v 19.963500 42.230117 -27.968618
v 10.473919 -3.460076 6.349451
v 9.275997 11.715238 4.472898
v -3.710531 -0.485851 -8.486293
v 26.661032 44.905281 -8.593582
vt 0.586035 0.340625
vt 0.585936 0.515004
vt 0.667961 0.340575
vt 0.667803 0.374332
vt 0.667516 0.422691
vt 0.585936 0.374135
vt 0.667258 0.474167
vt 0.585936 0.422498
vt 0.585936 0.474194
vt 0.667117 0.515004
vt 0.623423 0.515004
vt 0.707801 0.429416
vt 0.671801 0.429416
vt 0.671801 0.339243
vt 0.707801 0.339243
vt 0.671801 0.361188
vt 0.707801 0.382335
vt 0.671801 0.405476
vt 0.707801 0.382335
vt 0.671801 0.405476
vt 0.707801 0.429416
vt 0.671801 0.339243
vt 0.671801 0.361188
vt 0.707801 0.339243
vt 0.671801 0.429416
vt 0.586035 0.340625
vt 0.667961 0.340575
vt 0.585936 0.374135
vt 0.667803 0.374332
vt 0.585936 0.374135
vt 0.585936 0.422498
vt 0.585936 0.374135
vt 0.667516 0.422691
vt 0.585936 0.422498
vt 0.667516 0.422691
vt 0.585936 0.374135
vt 0.585936 0.374135
vt 0.667516 0.422691
vt 0.585936 0.422498
vt 0.667803 0.374332
vt 0.585936 0.422498
vt 0.667516 0.422691
vt 0.585936 0.374135
vt 0.585936 0.422498
vt 0.667803 0.374332
vt 0.667516 0.422691
vt 0.585936 0.422498
vt 0.585936 0.422498
vt 0.585936 0.474194
vt 0.585936 0.422498
vt 0.667258 0.474167
vt 0.585936 0.474194
vt 0.667516 0.422691
vt 0.667258 0.474167
vt 0.585936 0.422498
vt 0.667516 0.422691
vt 0.667258 0.474167
vt 0.585936 0.422498
vt 0.585936 0.422498
vt 0.667258 0.474167
vt 0.585936 0.474194
vt 0.667516 0.422691
vt 0.585936 0.474194
vt 0.667258 0.474167
vt 0.667516 0.422691
vt 0.585936 0.422498
vt 0.585936 0.474194
vt 0.667516 0.422691
vt 0.667258 0.474167
vt 0.667258 0.474167
vt 0.585936 0.474194
vt 0.623423 0.515004
vt 0.585936 0.515004
vt 0.623423 0.515004
vt 0.585936 0.474194
vt 0.623423 0.515004
vt 0.585936 0.515004
vt 0.667258 0.474167
vt 0.667117 0.515004
vt 0.623423 0.515004
vt 0.585936 0.474194
vt 0.623423 0.515004
vt 0.585936 0.515004
vt 0.667258 0.474167
vt 0.667117 0.515004
vt 0.623423 0.515004
vt 0.667258 0.474167
vt 0.623423 0.515004
vt 0.667117 0.515004
vt 0.585936 0.474194
vt 0.585936 0.515004
vt 0.623423 0.515004
vt 0.623423 0.515004
vt 0.667258 0.474167
vt 0.667117 0.515004
vt 0.623423 0.515004
vt 0.586035 0.340625
vt 0.585936 0.374135
vt 0.667961 0.340575
vt 0.586035 0.340625
vt 0.585936 0.374135
vt 0.585936 0.474194
vt 0.623423 0.515004
vt 0.585936 0.474194
vt 0.667258 0.474167
vt 0.623423 0.515004
vt 0.585936 0.474194
vt 0.667258 0.474167
vt 0.623423 0.515004
vt 0.667258 0.474167
vt 0.585936 0.474194
vt 0.623423 0.515004
vt 0.667258 0.474167
vt 0.623423 0.515004
vn 0.891985 -0.077929 -0.445298
vn -0.824778 -0.115081 -0.553622
vn -0.733866 -0.274089 -0.621543
vn -0.036546 -0.096503 0.994662
vn 0.891985 -0.077929 -0.445298
vn 0.928739 -0.150785 -0.338684
vn -0.824778 -0.115081 -0.553622
vn -0.103070 -0.222437 0.969483
vn -0.733866 -0.274089 -0.621543
vn 0.928739 -0.150785 -0.338684
vn -0.141485 -0.219782 -0.965235
vn 0.724901 -0.071028 -0.685182
vn -0.733866 -0.274089 -0.621543
vn -0.141485 -0.219782 -0.965235
vn 0.928739 -0.150785 -0.338684
vn 0.928739 -0.150785 -0.338684
vn 0.724901 -0.071028 -0.685182
vn 0.960993 -0.043244 0.273171
vn -0.103070 -0.222437 0.969483
vn 0.960993 -0.043244 0.273171
vn 0.308839 -0.137563 0.941113
vn 0.928739 -0.150785 -0.338684
vn 0.960993 -0.043244 0.273171
vn -0.103070 -0.222437 0.969483
vn -0.103070 -0.222437 0.969483
vn 0.308839 -0.137563 0.941113
vn -0.628828 -0.301409 0.716748
vn -0.733866 -0.274089 -0.621543
vn -0.628828 -0.301409 0.716748
vn -0.891455 -0.364924 -0.268585
vn -0.103070 -0.222437 0.969483
vn -0.628828 -0.301409 0.716748
vn -0.733866 -0.274089 -0.621543
vn -0.733866 -0.274089 -0.621543
vn -0.891455 -0.364924 -0.268585
vn -0.141485 -0.219782 -0.965235
vn 0.724901 -0.071028 -0.685182
vn 0.118046 -0.372492 -0.920497
vn 0.830417 -0.172161 -0.529876
vn 0.724901 -0.071028 -0.685182
vn -0.141485 -0.219782 -0.965235
vn 0.118046 -0.372492 -0.920497
vn 0.724901 -0.071028 -0.685182
vn 0.830417 -0.172161 -0.529876
vn 0.960993 -0.043244 0.273171
vn 0.960993 -0.043244 0.273171
vn 0.830417 -0.172161 -0.529876
vn 0.925138 -0.151464 0.348108
vn 0.308839 -0.137563 0.941113
vn 0.925138 -0.151464 0.348108
vn 0.295565 -0.315089 0.901865
vn 0.960993 -0.043244 0.273171
vn 0.925138 -0.151464 0.348108
vn 0.308839 -0.137563 0.941113
vn 0.308839 -0.137563 0.941113
vn 0.295565 -0.315089 0.901865
vn -0.628828 -0.301409 0.716748
vn -0.628828 -0.301409 0.716748
vn 0.295565 -0.315089 0.901865
vn -0.495306 -0.633950 0.593952
vn -0.891455 -0.364924 -0.268585
vn -0.495306 -0.633950 0.593952
vn -0.601791 -0.678548 -0.421212
vn -0.891455 -0.364924 -0.268585
vn -0.628828 -0.301409 0.716748
vn -0.495306 -0.633950 0.593952
vn -0.891455 -0.364924 -0.268585
vn -0.601791 -0.678548 -0.421212
vn -0.141485 -0.219782 -0.965235
vn -0.141485 -0.219782 -0.965235
vn -0.601791 -0.678548 -0.421212
vn 0.118046 -0.372492 -0.920497
vn 0.830417 -0.172161 -0.529876
vn 0.593382 -0.289035 -0.751237
vn 0.888786 -0.194058 -0.415211
vn 0.118046 -0.372492 -0.920497
vn 0.268596 -0.428465 -0.862713
vn 0.593382 -0.289035 -0.751237
vn 0.925138 -0.151464 0.348108
vn 0.986502 -0.163359 -0.011299
vn 0.871604 -0.205000 0.445288
vn 0.830417 -0.172161 -0.529876
vn 0.888786 -0.194058 -0.415211
vn 0.986502 -0.163359 -0.011299
vn 0.295565 -0.315089 0.901865
vn 0.587583 -0.290568 0.755193
vn 0.213327 -0.435064 0.874763
vn 0.925138 -0.151464 0.348108
vn 0.871604 -0.205000 0.445288
vn 0.587583 -0.290568 0.755193
vn -0.495306 -0.633950 0.593952
vn -0.113067 -0.612161 0.782607
vn -0.416263 -0.798014 0.435773
vn 0.295565 -0.315089 0.901865
vn 0.213327 -0.435064 0.874763
vn -0.113067 -0.612161 0.782607
vn -0.601791 -0.678548 -0.421212
vn -0.529978 -0.847847 -0.016695
vn -0.401986 -0.761792 -0.508016
vn -0.495306 -0.633950 0.593952
vn -0.416263 -0.798014 0.435773
vn -0.529978 -0.847847 -0.016695
vn 0.118046 -0.372492 -0.920497
vn -0.119954 -0.608617 -0.784345
vn 0.268596 -0.428465 -0.862713
vn -0.601791 -0.678548 -0.421212
vn -0.401986 -0.761792 -0.508016
vn -0.119954 -0.608617 -0.784345
vn -0.036546 -0.096503 0.994662
vn 0.928739 -0.150785 -0.338684
vn -0.103070 -0.222437 0.969483
vn -0.824778 -0.115081 -0.553622
vn -0.036546 -0.096503 0.994662
vn -0.103070 -0.222437 0.969483
vn 0.891985 -0.077929 -0.445298
vn -0.733866 -0.274089 -0.621543
vn 0.928739 -0.150785 -0.338684
vn 0.925138 -0.151464 0.348108
vn 0.830417 -0.172161 -0.529876
vn 0.986502 -0.163359 -0.011299
vn 0.295565 -0.315089 0.901865
vn 0.925138 -0.151464 0.348108
vn 0.587583 -0.290568 0.755193
vn -0.495306 -0.633950 0.593952
vn 0.295565 -0.315089 0.901865
vn -0.113067 -0.612161 0.782607
vn -0.601791 -0.678548 -0.421212
vn -0.495306 -0.633950 0.593952
vn -0.529978 -0.847847 -0.016695
vn 0.118046 -0.372492 -0.920497
vn -0.601791 -0.678548 -0.421212
vn -0.119954 -0.608617 -0.784345
vn 0.830417 -0.172161 -0.529876
vn 0.118046 -0.372492 -0.920497
vn 0.593382 -0.289035 -0.751237
vn 0.029190 0.577462 -0.815895
vn 0.041494 0.855421 -0.516269
vn 0.141255 0.931080 -0.336360
vn -0.192629 -0.091052 -0.977038
vn -0.073300 0.205145 -0.975983
vn -0.045688 0.046255 -0.997884
vn -0.073300 0.205145 -0.975983
vn 0.041494 0.855421 -0.516269
vn 0.029190 0.577462 -0.815895
vn -0.045688 0.046255 -0.997884
vn -0.073300 0.205145 -0.975983
vn 0.029190 0.577462 -0.815895
vn 0.041494 0.855421 -0.516269
vn 0.013901 0.978198 -0.207207
vn 0.141255 0.931080 -0.336360
vn -0.798328 0.472647 0.373199
vn -0.722191 0.662939 0.197361
vn -0.663959 0.745888 0.053006
vn -0.719581 0.028992 0.693803
vn -0.779851 0.241150 0.577650
vn -0.783521 0.214595 0.583133
vn -0.779851 0.241150 0.577650
vn -0.722191 0.662939 0.197361
vn -0.798328 0.472647 0.373199
vn -0.783521 0.214595 0.583133
vn -0.779851 0.241150 0.577650
vn -0.798328 0.472647 0.373199
vn -0.722191 0.662939 0.197361
vn -0.565933 0.820326 0.082366
vn -0.663959 0.745888 0.053006
s off
g TR_Flower_D
usemtl TR_Flower_DSG
f 23/3/1 24/1/2 1/6/3
f 22/26/4 23/3/5 2/4/6
f 24/27/7 3/28/8 1/29/9
f 2/4/10 4/8/11 5/5/12
f 1/6/13 4/8/14 2/4/15
f 2/30/16 5/5/17 6/31/18
f 3/32/19 6/33/20 7/34/21
f 2/4/22 6/35/23 3/36/24
f 3/37/25 7/38/26 8/39/27
f 1/40/28 8/41/29 9/42/30
f 3/43/31 8/44/32 1/45/33
f 1/6/34 9/46/35 4/8/36
f 5/5/37 10/9/38 11/7/39
f 5/5/40 4/8/41 10/9/42
f 5/5/43 11/7/44 6/47/45
f 6/48/46 11/7/47 12/49/48
f 7/50/49 12/51/50 13/52/51
f 6/53/52 12/54/53 7/55/54
f 7/56/55 13/57/56 8/58/57
f 8/59/58 13/60/59 14/61/60
f 9/62/61 14/63/62 15/64/63
f 9/65/64 8/66/65 14/67/66
f 9/68/67 15/69/68 4/8/69
f 4/8/70 15/70/71 10/9/72
f 11/7/73 30/11/74 17/10/75
f 10/9/76 16/2/77 30/11/78
f 12/71/79 25/72/80 18/73/81
f 11/7/82 17/10/83 25/74/84
f 13/75/85 26/76/86 19/77/87
f 12/78/88 18/79/89 26/80/90
f 14/81/91 27/82/92 20/83/93
f 13/84/94 19/85/95 27/86/96
f 15/87/97 28/88/98 21/89/99
f 14/90/100 20/91/101 28/92/102
f 10/9/103 29/93/104 16/2/105
f 15/94/106 21/95/107 29/96/108
f 22/97/109 2/4/110 3/98/111
f 24/99/112 22/100/113 3/101/114
f 23/3/115 1/6/116 2/4/117
f 12/102/118 11/7/119 25/103/120
f 13/104/121 12/105/122 26/106/123
f 14/107/124 13/108/125 27/109/126
f 15/110/127 14/111/128 28/112/129
f 10/9/130 15/113/131 29/114/132
f 11/7/133 10/9/134 30/11/135
f 36/17/136 37/18/137 31/12/138
f 33/14/139 35/16/140 34/15/141
f 35/16/142 37/18/143 36/17/144
f 34/15/145 35/16/146 36/17/147
f 37/18/148 32/13/149 31/12/150
f 38/19/151 39/20/152 40/21/153
f 41/22/154 42/23/155 43/24/156
f 42/23/157 39/20/158 38/19/159
f 43/24/160 42/23/161 38/19/162
f 39/20/163 44/25/164 40/21/165
