# This file uses meters as units for non-parametric coordinates.

mtllib tr_flower_c.max.fobj.mtl
g default
v 5.218549 5.608595 20.363089
v 9.056101 9.066173 7.892617
v -7.253335 7.521637 13.974246
v 12.160191 6.275328 -0.571804
v 3.172161 7.642790 -7.195176
v 3.662089 8.278287 7.345050
v -15.690741 9.747687 -3.983714
v -0.784911 10.906691 1.888097
v -6.429913 8.517214 -17.982940
v -16.471763 6.169451 12.811436
v -3.253481 7.922440 11.639100
v -15.100096 8.141422 -1.006485
v 11.344276 6.783401 -6.553973
v 12.691769 7.426205 -19.969091
v -1.638117 10.739642 -10.532720
v 6.476374 7.976475 2.078951
v 7.254772 7.575778 -3.587333
v 4.450201 -0.610501 -0.544841
v 9.921810 8.146256 -11.377876
v 4.815154 8.161024 -13.984621
v 5.873624 -0.581794 -9.540389
v -9.234507 10.039435 -2.874424
v -7.091321 10.413120 -8.916221
v -6.624508 -0.661213 -4.886817
v -10.221562 7.667031 10.608100
v -14.369801 8.145375 5.729629
v -10.443883 -0.682704 6.138662
v 0.749126 7.878461 15.164569
v 5.963913 7.381643 12.833822
v 2.587590 -0.622930 12.325531
vt 0.531438 0.325467
vt 0.580287 0.407237
vt 0.473207 0.408888
vt 0.531438 0.325467
vt 0.580287 0.407237
vt 0.473207 0.408888
vt 0.531438 0.325467
vt 0.580287 0.407237
vt 0.473207 0.408888
vt 0.531438 0.325467
vt 0.580287 0.407237
vt 0.473207 0.408888
vt 0.531438 0.325467
vt 0.580287 0.407237
vt 0.473207 0.408888
vt 0.531438 0.325467
vt 0.580287 0.407237
vt 0.473207 0.408888
vt 0.531438 0.325467
vt 0.580287 0.407237
vt 0.473207 0.408888
vt 0.531438 0.325467
vt 0.580287 0.407237
vt 0.473207 0.408888
vt 0.531438 0.325467
vt 0.580287 0.407237
vt 0.473207 0.408888
vt 0.531438 0.325467
vt 0.580287 0.407237
vt 0.473207 0.408888
vt 0.531438 0.325467
vt 0.580287 0.407237
vt 0.473207 0.408888
vt 0.531438 0.325467
vt 0.580287 0.407237
vt 0.473207 0.408888
vt 0.531438 0.325467
vt 0.580287 0.407237
vt 0.473207 0.408888
vt 0.673935 0.212951
vt 0.765658 0.212547
vt 0.764506 0.338092
vt 0.673935 0.212951
vt 0.765658 0.212547
vt 0.764506 0.338092
vt 0.673935 0.212951
vt 0.765658 0.212547
vt 0.764506 0.338092
vt 0.673935 0.212951
vt 0.765658 0.212547
vt 0.764506 0.338092
vt 0.673935 0.212951
vt 0.765658 0.212547
vt 0.764506 0.338092
vt 0.673935 0.212951
vt 0.765658 0.212547
vt 0.764506 0.338092
vt 0.673935 0.212951
vt 0.765658 0.212547
vt 0.764506 0.338092
vt 0.673935 0.212951
vt 0.765658 0.212547
vt 0.764506 0.338092
vt 0.673935 0.212951
vt 0.765658 0.212547
vt 0.764506 0.338092
vt 0.673935 0.212951
vt 0.765658 0.212547
vt 0.764506 0.338092
vt 0.673935 0.212951
vt 0.765658 0.212547
vt 0.764506 0.338092
vt 0.673935 0.212951
vt 0.765658 0.212547
vt 0.764506 0.338092
vt 0.673935 0.212951
vt 0.765658 0.212547
vt 0.764506 0.338092
vn 0.009447 0.962851 0.269868
vn 0.009447 0.962851 0.269868
vn 0.009447 0.962851 0.269868
vn 0.185530 0.981409 -0.049145
vn 0.185530 0.981409 -0.049145
vn 0.185530 0.981409 -0.049145
vn -0.033988 0.993373 -0.109797
vn -0.033988 0.993373 -0.109797
vn -0.033988 0.993373 -0.109797
vn -0.119151 0.984503 0.128672
vn -0.119151 0.984503 0.128672
vn -0.119151 0.984503 0.128672
vn 0.270146 0.960037 0.073137
vn 0.270146 0.960037 0.073137
vn 0.270146 0.960037 0.073137
vn -0.951092 0.270179 -0.149761
vn -0.951092 0.270179 -0.149761
vn -0.951092 0.270179 -0.149761
vn -0.421567 0.369834 0.827952
vn -0.421567 0.369834 0.827952
vn -0.421567 0.369834 0.827952
vn -0.926754 -0.162332 -0.338785
vn -0.926754 -0.162332 -0.338785
vn -0.926754 -0.162332 -0.338785
vn -0.740738 -0.301599 0.600288
vn -0.740738 -0.301599 0.600288
vn -0.740738 -0.301599 0.600288
vn -0.380895 0.217723 -0.898619
vn -0.380895 0.217723 -0.898619
vn -0.380895 0.217723 -0.898619
s off
g TR_Flower_C
usemtl TR_Flower_CSG
f 1/1/1 2/2/2 3/3/3
f 4/4/4 5/5/5 6/6/6
f 7/19/7 8/20/8 9/21/9
f 10/25/10 11/26/11 12/27/12
f 13/31/13 14/32/14 15/33/15
f 16/43/16 17/44/17 18/45/18
f 19/49/19 20/50/20 21/51/21
f 22/61/22 23/62/23 24/63/24
f 25/67/25 26/68/26 27/69/27
f 28/73/28 29/74/29 30/75/30
