# This file uses meters as units for non-parametric coordinates.

mtllib tr_lichen_c.max.fobj.mtl
g default
v -50.505054 0.000000 -0.711203
v 50.505054 0.000000 -0.711203
v -50.505054 168.354061 -0.711214
v 50.505054 168.354061 -0.711214
vt 0.852250 1.000000
vt 1.000000 1.000000
vt 0.852250 0.763636
vt 1.000000 0.763636
vn 0.000000 0.000000 1.000000
vn 0.000000 0.000000 1.000000
vn 0.000000 0.000000 1.000000
vn 0.000000 0.000000 1.000000
vn 0.000000 0.000000 1.000000
vn 0.000000 0.000000 1.000000
s off
g TR_Lichen_C
usemtl TR_Lichen_CSG
f 1/1/1 2/2/2 4/4/3
f 4/4/4 3/3/5 1/1/6
