# This file uses meters as units for non-parametric coordinates.

mtllib tr_mushroom_b.max.fobj.mtl
g default
v 2.099652 2.948911 -11.003212
v -4.523385 3.690885 -10.998181
v -0.902930 3.726760 -5.328551
v 0.713039 3.047188 -8.792417
v -3.165857 3.583153 -8.832427
v -0.817560 0.587183 -8.592019
v 4.400235 1.018263 -9.501897
v 2.204888 1.760237 -6.141487
v 6.281603 1.796112 -6.096024
v -5.464030 3.892122 -11.035196
v -12.124631 4.909810 -4.858009
v -3.197448 4.959016 -2.526173
v -5.123946 4.081363 -7.370683
v -9.064870 4.816490 -3.796137
v -6.477556 0.354552 -5.742618
v -16.890379 4.703632 -2.210484
v -13.811440 5.944194 8.426412
v -6.382433 6.004176 -0.018275
v -13.124287 4.974518 -0.334857
v -11.390061 5.870638 5.914740
v -12.092692 0.223682 2.030980
v -6.436011 3.919811 10.416220
v 2.597403 4.937500 11.374677
v -1.513921 4.986706 3.114585
v -4.169079 4.081363 8.569670
v 1.115234 4.816491 9.189594
v -2.052396 0.354551 8.519453
v 7.409984 4.954283 13.858980
v 15.332367 6.206040 5.979753
v 4.258521 6.266563 3.496551
v 6.969112 5.191354 10.370794
v 11.660063 6.095562 5.807614
v 8.563154 0.389082 8.311389
v 15.297778 3.914970 -1.072940
v 9.320905 4.932658 -7.913864
v 6.725258 4.981864 0.940214
v 12.165326 4.081363 -0.383138
v 8.709268 4.816492 -4.428375
v 10.578133 0.354551 -1.784450
v 4.042061 3.913492 4.751768
v 4.811123 4.931180 -4.299740
v -3.361056 4.980386 -0.016331
v 1.778035 4.081363 3.093701
v 2.287157 4.816492 -2.202435
v 1.683500 0.354552 0.978540
v 7.894601 1.018262 1.549546
v 5.699255 1.760237 4.909953
v 9.775970 1.796112 4.955418
v 3.238345 1.018262 5.983923
v 1.042997 1.760237 9.344333
v 5.119713 1.796112 9.389796
v -9.362977 1.018262 2.845273
v -11.558327 1.760237 6.205684
v -7.481611 1.796111 6.251148
v -3.909566 1.018261 0.294974
v -6.104918 1.760237 3.655386
v -2.028204 1.796112 3.700850
v 16.152541 3.531592 0.261625
v 16.277409 4.439120 -5.001972
v 19.611108 0.468749 -1.855614
v 9.868871 3.531592 -10.019685
v 5.426325 4.439120 -12.845430
v 9.842413 0.468749 -14.074765
v 2.287916 3.531592 -13.461228
v -2.976812 4.439120 -13.521784
v 0.128581 0.468749 -16.893671
v -13.001715 3.531592 -9.109710
v -14.919313 4.439120 -4.206257
v -16.975844 0.468748 -8.303053
v -12.445603 3.531591 8.427480
v -7.641680 4.439120 10.582319
v -11.834045 0.468747 12.436271
v -0.007020 3.531591 13.158911
v 5.212520 4.439120 12.467945
v 2.619807 0.468747 16.248278
vt 0.613271 0.558425
vt 0.562493 0.559027
vt 0.584669 0.515823
vt 0.669441 0.517687
vt 0.668353 0.556910
vt 0.632198 0.517939
vt 0.631810 0.519833
vt 0.616954 0.557892
vt 0.591621 0.518093
vt 0.613271 0.558425
vt 0.562493 0.559027
vt 0.584669 0.515823
vt 0.669441 0.517687
vt 0.668353 0.556910
vt 0.632198 0.517939
vt 0.613271 0.558425
vt 0.562493 0.559027
vt 0.584669 0.515823
vt 0.669441 0.517687
vt 0.668353 0.556910
vt 0.632198 0.517939
vt 0.613271 0.558425
vt 0.562493 0.559027
vt 0.584669 0.515823
vt 0.669441 0.517687
vt 0.668353 0.556910
vt 0.632198 0.517939
vt 0.613271 0.558425
vt 0.562493 0.559027
vt 0.584669 0.515823
vt 0.669441 0.517687
vt 0.668353 0.556910
vt 0.632198 0.517939
vt 0.613271 0.558425
vt 0.562493 0.559027
vt 0.584669 0.515823
vt 0.669441 0.517687
vt 0.668353 0.556910
vt 0.632198 0.517939
vt 0.613271 0.558425
vt 0.562493 0.559027
vt 0.584669 0.515823
vt 0.669441 0.517687
vt 0.668353 0.556910
vt 0.632198 0.517939
vt 0.631810 0.519833
vt 0.616954 0.557892
vt 0.591621 0.518093
vt 0.631810 0.519833
vt 0.616954 0.557892
vt 0.591621 0.518093
vt 0.631810 0.519833
vt 0.616954 0.557892
vt 0.591621 0.518093
vt 0.631810 0.519833
vt 0.616954 0.557892
vt 0.591621 0.518093
vt 0.631769 0.525142
vt 0.618502 0.554485
vt 0.666368 0.556867
vt 0.631769 0.525142
vt 0.618502 0.554485
vt 0.666368 0.556867
vt 0.631769 0.525142
vt 0.618502 0.554485
vt 0.666368 0.556867
vt 0.631769 0.525142
vt 0.618502 0.554485
vt 0.666368 0.556867
vt 0.631769 0.525142
vt 0.618502 0.554485
vt 0.666368 0.556867
vt 0.631769 0.525142
vt 0.618502 0.554485
vt 0.666368 0.556867
vn 0.110943 0.990830 -0.077115
vn 0.110943 0.990830 -0.077115
vn 0.110943 0.990830 -0.077115
vn 0.000864 0.080659 0.996741
vn 0.000864 0.080659 0.996741
vn 0.000864 0.080659 0.996741
vn -0.006138 0.975610 -0.219424
vn -0.006138 0.975610 -0.219424
vn -0.006138 0.975610 -0.219424
vn 0.029008 0.990830 -0.131961
vn 0.029008 0.990830 -0.131961
vn 0.029008 0.990830 -0.131961
vn 0.677514 0.073617 0.731817
vn 0.677514 0.073617 0.731817
vn 0.677514 0.073617 0.731817
vn -0.104857 0.990830 -0.085207
vn -0.104857 0.990830 -0.085207
vn -0.104857 0.990830 -0.085207
vn 0.958526 0.070634 -0.276114
vn 0.958526 0.070634 -0.276114
vn 0.958526 0.070634 -0.276114
vn -0.118510 0.990830 0.064889
vn -0.118510 0.990830 0.064889
vn -0.118510 0.990830 0.064889
vn 0.106090 0.073617 -0.991628
vn 0.106090 0.073617 -0.991628
vn 0.106091 0.073617 -0.991628
vn -0.024385 0.990830 0.132893
vn -0.024385 0.990830 0.132893
vn -0.024385 0.990830 0.132893
vn -0.702492 0.070518 -0.708189
vn -0.702492 0.070518 -0.708189
vn -0.702492 0.070518 -0.708189
vn 0.131042 0.990830 0.032910
vn 0.131042 0.990830 0.032910
vn 0.131042 0.990830 0.032910
vn -0.751594 0.073618 0.655505
vn -0.751594 0.073618 0.655505
vn -0.751594 0.073618 0.655505
vn 0.067356 0.990830 0.117125
vn 0.067356 0.990830 0.117125
vn 0.067356 0.990830 0.117125
vn -0.993632 0.073617 -0.085300
vn -0.993632 0.073617 -0.085300
vn -0.993632 0.073617 -0.085300
vn -0.006138 0.975610 -0.219424
vn -0.006138 0.975610 -0.219424
vn -0.006138 0.975610 -0.219424
vn -0.006138 0.975610 -0.219424
vn -0.006138 0.975610 -0.219424
vn -0.006138 0.975610 -0.219424
vn -0.006138 0.975610 -0.219424
vn -0.006138 0.975610 -0.219424
vn -0.006138 0.975610 -0.219424
vn -0.006138 0.975610 -0.219424
vn -0.006138 0.975610 -0.219424
vn -0.006138 0.975610 -0.219424
vn -0.702431 -0.698425 -0.137083
vn -0.702432 -0.698425 -0.137083
vn -0.702432 -0.698425 -0.137084
vn -0.480209 -0.698425 0.530661
vn -0.480210 -0.698425 0.530661
vn -0.480210 -0.698425 0.530661
vn -0.128492 -0.698425 0.704054
vn -0.128492 -0.698425 0.704054
vn -0.128492 -0.698425 0.704054
vn 0.613185 -0.698425 0.369063
vn 0.613184 -0.698425 0.369063
vn 0.613185 -0.698425 0.369063
vn 0.398576 -0.698425 -0.594424
vn 0.398576 -0.698425 -0.594424
vn 0.398576 -0.698425 -0.594424
vn 0.026760 -0.698425 -0.715183
vn 0.026760 -0.698425 -0.715183
vn 0.026760 -0.698425 -0.715182
s off
g TR_Mushroom_B
usemtl TR_Mushroom_BSG
f 1/1/1 2/2/2 3/3/3
f 4/4/4 5/5/5 6/6/6
f 7/7/7 8/8/8 9/9/9
f 10/10/10 11/11/11 12/12/12
f 13/13/13 14/14/14 15/15/15
f 16/16/16 17/17/17 18/18/18
f 19/19/19 20/20/20 21/21/21
f 22/22/22 23/23/23 24/24/24
f 25/25/25 26/26/26 27/27/27
f 28/28/28 29/29/29 30/30/30
f 31/31/31 32/32/32 33/33/33
f 34/34/34 35/35/35 36/36/36
f 37/37/37 38/38/38 39/39/39
f 40/40/40 41/41/41 42/42/42
f 43/43/43 44/44/44 45/45/45
f 46/46/46 47/47/47 48/48/48
f 49/49/49 50/50/50 51/51/51
f 52/52/52 53/53/53 54/54/54
f 55/55/55 56/56/56 57/57/57
f 58/58/58 59/59/59 60/60/60
f 61/61/61 62/62/62 63/63/63
f 64/64/64 65/65/65 66/66/66
f 67/67/67 68/68/68 69/69/69
f 70/70/70 71/71/71 72/72/72
f 73/73/73 74/74/74 75/75/75
