# This file uses meters as units for non-parametric coordinates.

mtllib tr_oursin.max.fobj.mtl
g default
v 5.582563 11.242606 -0.000000
v -5.839252 11.242606 -0.000000
v -5.839252 -0.130395 0.000001
v 5.582563 -0.130395 0.000001
v -2.791835 -0.130395 5.051760
v 2.535147 -0.130395 -5.051759
v 2.535146 11.242605 -5.051759
v -2.791836 11.242605 5.051759
v 3.565412 -0.130394 4.355528
v -3.822101 -0.130395 -4.355527
v -3.822101 11.242605 -4.355527
v 3.565412 11.242605 4.355528
vt 0.439499 1.000272
vt 0.286921 1.000000
vt 0.286421 0.844752
vt 0.438999 0.845024
vt 0.286421 0.844752
vt 0.438999 0.845024
vt 0.439499 1.000272
vt 0.286921 1.000000
vt 0.286421 0.844752
vt 0.438999 0.845024
vt 0.439499 1.000272
vt 0.286921 1.000000
vn 0.000000 0.000000 1.000000
vn 0.000000 0.000000 1.000000
vn 0.000000 0.000000 1.000000
vn 0.000000 0.000000 1.000000
vn 0.000000 0.000000 1.000000
vn 0.000000 0.000000 1.000000
vn 0.884581 0.000000 0.466387
vn 0.884581 0.000000 0.466387
vn 0.884581 0.000000 0.466387
vn 0.884581 0.000000 0.466387
vn 0.884581 0.000000 0.466387
vn 0.884581 0.000000 0.466387
vn 0.762668 0.000000 -0.646790
vn 0.762668 0.000000 -0.646790
vn 0.762668 0.000000 -0.646790
vn 0.762668 0.000000 -0.646790
vn 0.762668 0.000000 -0.646790
vn 0.762668 0.000000 -0.646790
s off
g TR_Oursin
usemtl TR_OursinSG
f 3/3/1 4/4/2 1/1/3
f 3/3/4 1/1/5 2/2/6
f 5/5/7 6/6/8 7/7/9
f 5/5/10 7/7/11 8/8/12
f 9/9/13 10/10/14 11/11/15
f 9/9/16 11/11/17 12/12/18
