# This file uses meters as units for non-parametric coordinates.

mtllib tr_polype.max.fobj.mtl
g default
v 3.676104 17.810631 -6.285960
v -2.679780 19.847140 -6.251512
v -5.243389 20.725954 0.563963
v -0.567971 19.535726 5.997299
v 5.191315 17.459664 4.314895
v 6.949723 16.632284 -1.189549
v 3.058946 -0.133981 -10.027730
v -6.635217 -0.131892 -7.320568
v -9.139860 -0.131269 2.503047
v -1.912727 -0.132748 9.513833
v 7.881124 -0.134854 6.907051
v 10.494727 -0.135496 -3.034491
v -16.021863 29.522189 0.867565
v -10.478991 27.473748 -14.767618
v 1.446366 15.088248 -0.453277
v -3.692676 24.586152 18.337055
v -14.936242 28.320488 7.492606
v 12.850568 24.985431 -13.289659
v 20.838782 20.225106 -1.094965
v -5.702294 29.196769 -16.317032
v 7.565806 22.456293 -18.202893
v 13.870223 21.418586 16.158475
v 0.614059 26.807329 20.795377
v 15.390082 21.249315 12.938547
v 21.397460 19.121674 -0.603377
vt 0.521397 1.000000
vt 0.454025 0.846774
vt 0.521397 0.846774
vt 0.454025 1.000000
vt 0.391066 0.512306
vt 0.310682 0.493003
vt 0.390684 0.405913
vt 0.343522 0.395634
vt 0.382926 0.286061
vt 0.391424 0.404480
vt 0.344249 0.393258
vt 0.383665 0.286661
vt 0.391073 0.512734
vt 0.311791 0.493113
vt 0.389641 0.404497
vt 0.344981 0.395628
vt 0.384618 0.285326
vt 0.389733 0.511426
vt 0.310962 0.492742
vt 0.389537 0.405842
vt 0.344852 0.393926
vt 0.384517 0.286407
vt 0.389705 0.510766
vt 0.312256 0.492269
vt 0.389032 0.405404
vt 0.345729 0.393432
vt 0.382334 0.286283
vt 0.390435 0.510143
vt 0.311562 0.492045
vt 0.390565 0.404185
vt 0.345314 0.393840
vt 0.383293 0.282258
vt 0.390293 0.513756
vt 0.309569 0.492931
vt 0.521397 1.000000
vt 0.521397 0.846774
vt 0.454025 1.000000
vt 0.521397 0.846774
vt 0.454025 0.846774
vt 0.521397 0.846774
vt 0.454025 1.000000
vt 0.521397 1.000000
vt 0.454025 0.846774
vt 0.521397 0.846774
vt 0.454025 1.000000
vt 0.454025 0.846774
vt 0.521397 1.000000
vt 0.454025 1.000000
vt 0.521397 0.846774
vt 0.454025 0.846774
vt 0.521397 1.000000
vt 0.521397 0.846774
vt 0.454025 1.000000
vt 0.521397 1.000000
vt 0.454025 0.846774
vt 0.454025 1.000000
vt 0.454025 0.846774
vt 0.521397 1.000000
vn 0.164036 0.986134 0.025152
vn 0.204583 0.978827 0.006605
vn -0.717064 0.156164 -0.679287
vn 0.204583 0.978827 0.006605
vn 0.242805 0.141696 -0.959671
vn -0.717064 0.156164 -0.679287
vn 0.276713 0.960897 -0.010366
vn 0.242805 0.141696 -0.959671
vn 0.204583 0.978827 0.006605
vn 0.164036 0.986134 0.025152
vn -0.717064 0.156164 -0.679287
vn -0.942932 0.192107 0.271983
vn 0.230372 0.971571 0.054583
vn -0.942932 0.192107 0.271983
vn -0.245959 0.198021 0.948837
vn 0.164036 0.986134 0.025152
vn -0.942932 0.192107 0.271983
vn 0.230372 0.971571 0.054583
vn 0.302743 0.952719 0.025953
vn -0.245959 0.198021 0.948837
vn 0.692407 0.203902 0.692096
vn 0.230372 0.971571 0.054583
vn -0.245959 0.198021 0.948837
vn 0.302743 0.952719 0.025953
vn 0.265736 0.962887 0.047259
vn 0.692407 0.203902 0.692096
vn 0.948238 0.184197 -0.258682
vn 0.302743 0.952719 0.025953
vn 0.692407 0.203902 0.692096
vn 0.265736 0.962887 0.047259
vn 0.276713 0.960897 -0.010366
vn 0.948238 0.184197 -0.258682
vn 0.242805 0.141696 -0.959671
vn 0.265736 0.962887 0.047259
vn 0.948238 0.184197 -0.258682
vn 0.276713 0.960897 -0.010366
vn 0.623988 0.772158 0.120047
vn 0.625491 0.770029 0.125759
vn 0.204583 0.978827 0.006605
vn 0.164036 0.986134 0.025152
vn 0.204583 0.978827 0.006605
vn 0.625491 0.770029 0.125759
vn 0.204583 0.978827 0.006605
vn 0.164036 0.986134 0.025152
vn 0.200031 0.979637 -0.017284
vn 0.276713 0.960897 -0.010366
vn 0.204583 0.978827 0.006605
vn 0.200031 0.979637 -0.017284
vn 0.164036 0.986134 0.025152
vn 0.230372 0.971571 0.054583
vn 0.200031 0.979637 -0.017284
vn 0.230372 0.971571 0.054583
vn 0.302743 0.952719 0.025953
vn 0.200031 0.979637 -0.017284
vn 0.302743 0.952719 0.025953
vn 0.265736 0.962887 0.047259
vn 0.200031 0.979637 -0.017284
vn 0.265736 0.962887 0.047259
vn 0.276713 0.960897 -0.010366
vn 0.200031 0.979637 -0.017284
vn 0.495930 0.838597 -0.225408
vn 0.490768 0.841575 -0.225604
vn 0.164036 0.986134 0.025152
vn 0.230372 0.971571 0.054583
vn 0.164036 0.986134 0.025152
vn 0.490768 0.841575 -0.225604
vn -0.223050 0.849684 0.477793
vn -0.258407 0.849322 0.460301
vn 0.265736 0.962887 0.047259
vn 0.276713 0.960897 -0.010366
vn 0.265736 0.962887 0.047259
vn -0.258407 0.849322 0.460301
vn 0.454679 0.769545 0.448405
vn 0.394457 0.768603 0.503640
vn 0.276713 0.960897 -0.010366
vn 0.204583 0.978827 0.006605
vn 0.276713 0.960897 -0.010366
vn 0.394457 0.768603 0.503640
vn 0.199283 0.873101 -0.444950
vn 0.197086 0.875005 -0.442181
vn 0.230372 0.971571 0.054583
vn 0.302743 0.952719 0.025953
vn 0.230372 0.971571 0.054583
vn 0.197086 0.875005 -0.442181
vn -0.164021 0.962401 -0.216522
vn -0.156900 0.962606 -0.220843
vn 0.265736 0.962887 0.047259
vn 0.265736 0.962887 0.047259
vn 0.302743 0.952719 0.025953
vn -0.164021 0.962401 -0.216522
s off
g TR_Polype
usemtl TR_PolypeSG
f 3/1/1 2/4/2 8/2/3
f 2/4/4 7/3/5 8/2/6
f 1/35/7 7/3/8 2/4/9
f 3/1/10 8/2/11 9/36/12
f 4/37/13 9/38/14 10/39/15
f 3/1/16 9/40/17 4/41/18
f 5/42/19 10/43/20 11/44/21
f 4/45/22 10/46/23 5/47/24
f 6/48/25 11/49/26 12/50/27
f 5/51/28 11/52/29 6/53/30
f 1/54/31 12/55/32 7/3/33
f 6/56/34 12/57/35 1/58/36
f 14/5/37 13/6/38 2/7/39
f 3/8/40 2/7/41 13/6/42
f 2/7/43 3/8/44 15/9/45
f 1/10/46 2/11/47 15/12/48
f 3/30/49 4/31/50 15/32/51
f 4/25/52 5/26/53 15/27/54
f 5/20/55 6/21/56 15/22/57
f 6/15/58 1/16/59 15/17/60
f 17/33/61 16/34/62 3/30/63
f 4/31/64 3/30/65 16/34/66
f 19/18/67 18/19/68 6/15/69
f 1/16/70 6/15/71 18/19/72
f 21/13/73 20/14/74 1/10/75
f 2/11/76 1/10/77 20/14/78
f 23/28/79 22/29/80 4/25/81
f 5/26/82 4/25/83 22/29/84
f 24/23/85 25/24/86 6/21/87
f 6/21/88 5/20/89 24/23/90
