# This file uses meters as units for non-parametric coordinates.

mtllib tr_palm.max.fobj.mtl
g default
v 187.196493 -1.441060 -1.543539
v -76.501691 86.211312 -7.027521
v -133.877957 -1.991641 0.000004
v -7.715822 62.093484 -12.801408
v 84.247351 36.322176 9.890089
v -34.971577 -1.833457 -19.828904
v 78.141344 -1.652550 9.890095
vt 0.311830 0.825637
vt 0.209861 0.577324
vt 0.311280 0.512984
vt 0.236314 0.640492
vt 0.272799 0.727932
vt 0.311505 0.612561
vt 0.311550 0.722505
vn 0.196403 -0.049739 0.979261
vn -0.013562 -0.052060 0.998552
vn 0.128797 -0.082928 0.988198
vn 0.128797 -0.082928 0.988198
vn -0.013562 -0.052060 0.998552
vn -0.115636 -0.054585 0.991791
vn -0.085684 0.005933 0.996305
vn 0.104289 -0.016769 0.994406
vn -0.080282 0.012909 0.996689
vn -0.115636 -0.054585 0.991791
vn -0.013562 -0.052060 0.998552
vn -0.085684 0.005933 0.996305
vn -0.115636 -0.054585 0.991791
vn -0.085684 0.005933 0.996305
vn -0.080282 0.012909 0.996689
s off
g TR_Palm
usemtl TR_PalmSG
f 3/3/1 6/6/2 2/2/3
f 2/2/4 6/6/5 4/4/6
f 7/7/7 1/1/8 5/5/9
f 4/4/10 6/6/11 7/7/12
f 4/4/13 7/7/14 5/5/15
