# This file uses meters as units for non-parametric coordinates.

mtllib tr_rozo_b.max.fobj.mtl
g default
v 2.926584 172.255874 -0.000012
v -4.483793 172.255874 -0.000012
v -4.483793 -0.290173 0.000019
v 2.926584 -0.290173 0.000019
v 2.926584 136.582863 -0.000005
v -4.483793 134.811854 -0.000005
v 2.909802 101.125789 -1.569030
v -4.377823 100.187099 1.363309
v -4.387586 65.783828 1.821718
v 2.829729 65.448844 -1.820207
v -4.465389 31.877869 1.565304
v 2.819641 30.792582 -1.361050
vt 0.200265 1.000000
vt 0.168528 1.000000
vt 0.170009 0.438005
vt 0.199763 0.437329
vt 0.200161 0.883671
vt 0.168849 0.878042
vt 0.200058 0.768166
vt 0.169147 0.765149
vt 0.169442 0.653079
vt 0.199954 0.651837
vt 0.169733 0.542658
vt 0.199854 0.538808
vn -0.005396 0.022579 0.999731
vn 0.022250 0.011453 0.999687
vn -0.000000 0.000000 1.000000
vn 0.376756 -0.015440 0.926184
vn 0.057706 0.030137 0.997879
vn 0.344712 -0.012571 0.938624
vn 0.351561 -0.007304 0.936137
vn 0.380756 -0.017724 0.924506
vn 0.022250 0.011453 0.999687
vn 0.000000 0.000000 1.000000
vn -0.005396 0.022579 0.999731
vn -0.000000 0.000000 1.000000
vn 0.444869 -0.006174 0.895575
vn 0.444761 -0.006087 0.895629
vn 0.380756 -0.017724 0.924506
vn -0.005396 0.022579 0.999731
vn 0.351561 -0.007304 0.936137
vn 0.022250 0.011453 0.999687
vn 0.351561 -0.007304 0.936137
vn 0.444869 -0.006174 0.895575
vn 0.380756 -0.017724 0.924506
vn 0.376756 -0.015440 0.926184
vn 0.344712 -0.012571 0.938624
vn 0.444761 -0.006087 0.895629
vn 0.444869 -0.006174 0.895575
vn 0.376756 -0.015440 0.926184
vn 0.444761 -0.006087 0.895629
vn 0.057706 0.030137 0.997879
vn 0.000000 0.043747 0.999043
vn 0.344712 -0.012571 0.938624
s off
g TR_Rozo_B
usemtl TR_Rozo_BSG
f 6/6/1 5/5/2 1/1/3
f 11/11/4 3/3/5 12/12/6
f 8/8/7 7/7/8 5/5/9
f 2/2/10 6/6/11 1/1/12
f 9/9/13 10/10/14 7/7/15
f 6/6/16 8/8/17 5/5/18
f 8/8/19 9/9/20 7/7/21
f 11/11/22 12/12/23 10/10/24
f 9/9/25 11/11/26 10/10/27
f 3/3/28 4/4/29 12/12/30
