# This file uses meters as units for non-parametric coordinates.

mtllib tr_rozopousse.max.fobj.mtl
g default
v 0.389595 -2.249046 -0.003750
v 9.043217 43.070792 -0.003748
v -5.879743 50.470072 -0.003749
v 1.501934 -4.304359 -4.657633
v 5.157461 22.354377 -1.115180
v -1.146405 26.706894 -7.224052
v -1.960468 -3.627192 4.274149
v -6.197874 34.494805 -1.644596
v 1.109428 40.718903 8.562134
vt 0.391341 0.520962
vt 0.554880 0.560194
vt 0.580686 0.519016
vt 0.391341 0.520962
vt 0.554880 0.560194
vt 0.580686 0.519016
vt 0.391341 0.520962
vt 0.554880 0.560194
vt 0.580686 0.519016
vn -0.000000 -0.000000 1.000000
vn -0.000000 -0.000000 1.000000
vn -0.000000 -0.000000 1.000000
vn -0.695913 -0.000000 0.718126
vn -0.695913 -0.000000 0.718126
vn -0.695913 -0.000000 0.718126
vn 0.813101 -0.000000 -0.582123
vn 0.813101 -0.000000 -0.582123
vn 0.813101 -0.000000 -0.582123
s off
g TR_Rozopousse
usemtl TR_RozopousseSG
f 1/1/1 2/2/2 3/3/3
f 4/4/4 5/5/5 6/6/6
f 7/7/7 8/8/8 9/9/9
