# This file uses meters as units for non-parametric coordinates.

mtllib tr_swampplant_b.max.fobj.mtl
g default
v 14.729182 32.112500 1.765092
v -14.393832 32.112500 -1.772179
v -15.006669 1.508734 -0.006578
v 15.944298 1.508734 0.011339
v 0.233752 1.670972 11.418513
v 0.350831 1.670960 -11.649422
v 1.719708 24.509582 -11.501494
v -1.172659 24.509582 11.077427
vt 0.701876 0.747022
vt 0.558000 0.746956
vt 0.557647 0.560452
vt 0.701991 0.561422
vt 0.559171 0.559253
vt 0.701212 0.559253
vt 0.699251 0.745343
vt 0.558185 0.745343
vn -0.059007 -0.000456 0.998258
vn -0.000578 -0.057234 0.998361
vn -0.060343 0.000847 0.998177
vn -0.120359 0.059580 0.990941
vn -0.059007 -0.000456 0.998258
vn -0.060343 0.000847 0.998177
vn 0.997820 0.001302 0.065988
vn 0.998194 -0.059861 0.005066
vn 0.997827 0.001187 0.065875
vn 0.989933 0.062854 0.126811
vn 0.997820 0.001302 0.065988
vn 0.997827 0.001187 0.065875
s off
g TR_Swampplant_B
usemtl TR_Swampplant_BSG
f 3/3/1 4/4/2 1/1/3
f 2/2/4 3/3/5 1/1/6
f 5/5/7 6/6/8 7/7/9
f 8/8/10 5/5/11 7/7/12
