# This file uses meters as units for non-parametric coordinates.

mtllib fy_wea_epee1m.max.fobj.mtl
g default
v -9.176724 10.958865 0.016384
v -1.918946 79.524297 0.016389
v 6.095482 7.772768 0.002033
v 3.286042 86.642081 0.016390
v 3.286037 15.147276 0.757642
v -2.070377 7.181251 1.996171
v -2.060944 15.114006 0.016384
v -2.079967 30.864701 0.016387
v -3.275170 41.198933 0.016387
v 3.286038 56.166327 0.772988
v -5.360770 59.826219 0.016388
v -4.816948 70.298123 0.016389
v -4.617300 51.371765 0.016387
v 3.635992 7.613992 2.515629
v -1.653484 20.221998 0.016385
v -3.235893 12.363861 0.016383
v -6.089709 8.082443 0.918362
v -5.433972 10.984051 0.016384
v 3.286037 15.147276 -0.753575
v 3.635992 7.613993 -2.511563
v -2.070377 7.181248 -1.963402
v -6.089709 8.082441 -0.885595
v 3.286038 56.166345 -0.740216
v -2.701301 6.595442 0.016385
v -0.133643 6.029740 1.918497
v -0.133643 6.029740 -1.885728
v 2.369889 6.595439 -1.159186
v 2.369889 6.595439 1.191955
v 6.877198 4.659921 -2.647007
v 3.373152 12.250620 -2.230424
v 3.881022 5.065427 -3.308040
v 2.471765 8.626405 -3.499184
v 5.842019 10.397941 -2.647007
v 7.831055 10.129082 0.002033
v 8.796031 6.249887 0.002033
v 3.265038 15.611547 0.002033
v 6.877198 4.659921 2.651072
v 3.881022 5.065426 3.312105
v 2.471765 8.626404 3.503250
v 3.373152 12.250620 2.234491
v 5.842019 10.397941 2.651073
v 5.771571 13.410524 0.002033
v -1.903342 -14.390200 0.016384
v -1.615330 -13.252052 -2.285173
v -3.930352 -12.487891 0.016384
v -1.615330 -13.252053 2.317941
v 0.547132 -14.020503 1.438824
v 0.547132 -14.020502 -1.406056
v -0.227384 -6.703684 -1.493229
v -1.950230 -6.534538 0.016384
v -0.227384 -6.703684 1.525998
v 1.339584 -6.873775 0.949377
v 1.339584 -6.873774 -0.916608
v 0.253253 -0.060013 -1.342267
v -1.593652 -0.004581 0.016384
v 0.253253 -0.060013 1.375037
v 1.614305 -0.115755 0.856077
v 1.614305 -0.115755 -0.823309
vt 0.082826 0.055487
vt 1.000000 0.925581
vt 0.101381 1.000000
vt 0.606889 1.000000
vt 0.101435 0.819534
vt 0.605992 0.819714
vt 0.100521 0.911628
vt 0.179591 0.304967
vt 0.135123 0.225451
vt 0.165615 0.418292
vt 0.238366 0.326305
vt 0.287168 0.219894
vt 0.292207 0.386461
vt 0.346800 0.319656
vt 0.349973 0.140123
vt 0.403469 0.219737
vt 0.299410 0.049734
vt 0.239497 0.079154
vt 0.161816 0.008868
vt 0.178288 0.130725
vt 1.000000 0.744948
vt 0.000000 0.748209
vt 0.000000 1.000000
vt 0.350895 0.751269
vt 0.348854 1.000000
vt 0.670210 0.744022
vt 0.666128 1.000000
vt 1.000000 1.000000
vt 0.000000 0.000000
vt 0.349855 0.420505
vt 0.319889 0.000000
vt 0.000000 0.431766
vt 0.669918 0.398920
vt 0.638712 0.000000
vt 1.000000 0.351752
vt 1.000000 0.000000
vt 0.497532 0.566229
vt 0.505935 0.000000
vt 1.000000 0.457784
vt 0.000000 0.450257
vt 0.193863 1.000000
vt 0.826001 0.940984
vt 0.177196 0.678165
vt 0.188586 0.208618
vt 0.347511 0.108517
vt 0.000446 0.548531
vt 0.957150 0.129124
vt 0.147162 0.046856
vt 0.147162 0.046856
vt 0.702264 0.053102
vt 0.957150 0.129124
vt 0.426796 0.426595
vt 0.828006 0.523470
vt 0.145535 0.999501
vt 0.506756 0.873195
vt 0.177196 0.678165
vt 0.347511 0.108517
vt 0.188586 0.208618
vt 0.702264 0.053102
vt 0.595861 0.426595
vt 0.999500 0.125807
vt 0.092880 0.796278
vt 0.022938 0.685228
vt 0.130775 0.455065
vt 0.105662 0.374457
vt 0.004581 0.483512
vt 0.019042 0.232315
vt 0.082826 0.055487
vt 0.093277 0.289369
vt 0.173392 0.491744
vt 0.265607 0.514730
vt 0.416149 0.436344
vt 0.607893 0.796459
vt 0.547176 0.393038
vt 0.648715 0.339721
vt 0.779419 0.382122
vt 0.900166 0.536319
vt 0.990884 0.846112
vt 0.022938 0.685228
vt 0.091876 0.795550
vt 0.130775 0.455065
vt 0.173392 0.491744
vt 0.265607 0.514730
vt 0.606889 0.796129
vt 0.900166 0.536319
vt 0.779419 0.382122
vt 0.990884 0.846112
vt 0.648715 0.339721
vt 0.547176 0.393038
vt 0.416149 0.436344
vt 0.105662 0.374457
vt 0.004581 0.483512
vt 0.093277 0.289369
vt 0.019042 0.232315
vt 0.349855 0.420505
vt 0.000000 0.431766
vt 0.349855 0.420505
vt 0.000000 0.431766
vt 0.349855 0.420505
vt 0.000000 0.431766
vt 0.000000 0.748209
vt 0.350895 0.751269
vt 0.000000 0.748209
vt 0.669918 0.398920
vt 0.349855 0.420505
vt 0.669918 0.398920
vt 0.349855 0.420505
vt 0.669918 0.398920
vt 0.349855 0.420505
vt 0.350895 0.751269
vt 0.670210 0.744022
vt 0.350895 0.751269
vt 1.000000 0.351752
vt 0.669918 0.398920
vt 1.000000 0.351752
vt 0.669918 0.398920
vt 1.000000 0.351752
vt 0.669918 0.398920
vt 0.670210 0.744022
vt 1.000000 0.744948
vt 0.670210 0.744022
vn -0.144651 0.114254 -0.982864
vn -0.155371 0.249763 -0.955760
vn -0.182795 0.098823 -0.978172
vn -0.137806 -0.001388 -0.990458
vn -0.090415 -0.010705 -0.995847
vn -0.085588 -0.000859 -0.996330
vn -0.085588 -0.000859 -0.996330
vn -0.087187 -0.000044 -0.996192
vn -0.065198 0.016035 -0.997744
vn -0.038820 0.023708 -0.998965
vn -0.085588 -0.000859 -0.996330
vn -0.065198 0.016035 -0.997744
vn -0.085588 -0.000859 -0.996330
vn -0.089085 -0.010320 -0.995971
vn -0.087187 -0.000044 -0.996192
vn -0.217661 0.224252 -0.949913
vn -0.155371 0.249763 -0.955760
vn -0.141538 0.327794 -0.934087
vn -0.182795 0.098823 -0.978172
vn -0.155774 -0.001751 -0.987791
vn -0.144651 0.114254 -0.982864
vn -0.155774 -0.001751 -0.987791
vn -0.137806 -0.001388 -0.990458
vn -0.144651 0.114254 -0.982864
vn -0.085588 -0.000859 -0.996330
vn -0.090415 -0.010705 -0.995847
vn -0.089085 -0.010320 -0.995971
vn 0.515290 0.091705 -0.852095
vn 0.219784 0.034648 -0.974933
vn 0.176486 0.130465 -0.975619
vn -0.182795 0.098823 -0.978172
vn -0.155371 0.249763 -0.955760
vn -0.217661 0.224252 -0.949913
vn -0.109753 0.317584 -0.941857
vn -0.002000 0.297255 -0.954796
vn -0.119658 0.311543 -0.942668
vn -0.141538 0.327794 -0.934087
vn -0.119658 0.311543 -0.942668
vn -0.217661 0.224252 -0.949913
vn -0.141538 0.327794 -0.934087
vn -0.109753 0.317584 -0.941857
vn -0.119658 0.311543 -0.942668
vn -0.033920 0.024805 -0.999117
vn -0.085588 -0.000859 -0.996330
vn -0.038820 0.023708 -0.998965
vn 1.000000 -0.000006 0.000000
vn 1.000000 -0.000000 0.000000
vn 1.000000 -0.000000 0.000000
vn -0.137806 -0.001388 -0.990458
vn -0.085588 -0.000859 -0.996330
vn -0.144651 0.114254 -0.982864
vn 1.000000 -0.000000 0.000000
vn 1.000000 -0.000006 0.000000
vn 0.999624 -0.001020 0.027403
vn -0.150913 0.250221 0.956355
vn -0.178322 0.098419 0.979038
vn -0.215444 0.223927 0.950495
vn -0.134682 -0.001926 0.990887
vn -0.085369 -0.000905 0.996349
vn -0.090414 -0.010705 0.995847
vn -0.085369 -0.000905 0.996349
vn -0.065197 0.016035 0.997744
vn -0.087186 -0.000045 0.996192
vn -0.038819 0.023708 0.998965
vn -0.065197 0.016035 0.997744
vn -0.085369 -0.000905 0.996349
vn -0.085369 -0.000905 0.996349
vn -0.087186 -0.000045 0.996192
vn -0.089085 -0.010320 0.995971
vn -0.139596 0.114273 0.983593
vn -0.178322 0.098419 0.979038
vn -0.150913 0.250221 0.956355
vn -0.178322 0.098419 0.979038
vn -0.139596 0.114273 0.983593
vn -0.150103 -0.001691 0.988669
vn -0.150103 -0.001691 0.988669
vn -0.139596 0.114273 0.983593
vn -0.134682 -0.001926 0.990887
vn -0.085369 -0.000905 0.996349
vn -0.089085 -0.010320 0.995971
vn -0.090414 -0.010705 0.995847
vn -0.150913 0.250221 0.956355
vn -0.215444 0.223927 0.950495
vn -0.138713 0.328499 0.934263
vn -0.109753 0.317584 0.941857
vn -0.119659 0.311544 0.942668
vn -0.002000 0.297255 0.954796
vn -0.138713 0.328499 0.934263
vn -0.215444 0.223927 0.950495
vn -0.119659 0.311544 0.942668
vn -0.138713 0.328499 0.934263
vn -0.119659 0.311544 0.942668
vn -0.109753 0.317584 0.941857
vn -0.033920 0.024804 0.999117
vn -0.038819 0.023708 0.998965
vn -0.085369 -0.000905 0.996349
vn -0.134682 -0.001926 0.990887
vn -0.139596 0.114273 0.983593
vn -0.085369 -0.000905 0.996349
vn 0.326328 -0.909652 0.256988
vn 0.360682 -0.932689 -0.000335
vn 0.320705 -0.836989 0.443393
vn -0.120368 -0.470557 0.874121
vn 0.326328 -0.909652 0.256988
vn 0.320705 -0.836989 0.443393
vn -0.380509 -0.924777 0.000001
vn -0.120368 -0.470557 0.874121
vn -0.361247 -0.772304 0.522539
vn -0.515323 -0.854881 0.060175
vn -0.380509 -0.924777 0.000001
vn -0.361247 -0.772304 0.522539
vn -0.515323 -0.854881 -0.060172
vn -0.380509 -0.924777 0.000001
vn -0.515323 -0.854881 0.060175
vn -0.681711 -0.731621 0.000001
vn -0.515323 -0.854881 -0.060172
vn -0.515323 -0.854881 0.060175
vn -0.515323 -0.854881 -0.060172
vn -0.361603 -0.772669 -0.521753
vn -0.380509 -0.924777 0.000001
vn -0.361603 -0.772669 -0.521753
vn -0.122656 -0.476777 -0.870425
vn -0.380509 -0.924777 0.000001
vn -0.120368 -0.470557 0.874121
vn 0.320705 -0.836989 0.443393
vn -0.361247 -0.772304 0.522539
vn -0.361603 -0.772669 -0.521753
vn 0.317800 -0.839672 -0.440402
vn -0.122656 -0.476777 -0.870425
vn -0.122656 -0.476777 -0.870425
vn 0.317800 -0.839672 -0.440402
vn 0.325173 -0.911145 -0.253136
vn 0.317800 -0.839672 -0.440402
vn 0.360682 -0.932689 -0.000335
vn 0.325173 -0.911145 -0.253136
vn 0.325173 -0.911145 -0.253136
vn 0.360682 -0.932689 -0.000335
vn 0.326328 -0.909652 0.256988
vn -0.706188 -0.133853 0.695256
vn -0.753382 -0.199142 0.626704
vn -0.986878 -0.064909 0.147847
vn -0.706188 -0.133853 0.695256
vn -0.746775 -0.262740 0.610978
vn -0.753382 -0.199142 0.626704
vn -0.408997 -0.560851 0.719839
vn -0.434537 -0.510785 0.741806
vn -0.244682 -0.310579 0.918516
vn -0.434537 -0.510785 0.741806
vn -0.408997 -0.560851 0.719839
vn -0.588500 -0.808498 -0.000000
vn -0.996447 -0.060066 0.059034
vn -0.986878 -0.064909 0.147847
vn -0.753382 -0.199142 0.626704
vn 0.515290 0.091705 -0.852095
vn 0.176486 0.130465 -0.975619
vn 0.478726 0.326579 -0.814965
vn 0.478726 0.326579 -0.814965
vn 0.176486 0.130465 -0.975619
vn 0.312625 0.471057 -0.824846
vn 1.000000 -0.000006 0.000000
vn 1.000000 -0.000529 0.000580
vn 0.999624 -0.001020 0.027403
vn 0.312625 0.471057 -0.824846
vn 0.728209 0.685355 0.000000
vn 0.478726 0.326579 -0.814965
vn 0.728209 0.685355 0.000000
vn 0.312625 0.471057 -0.824846
vn 0.581229 0.586325 -0.564265
vn 0.980031 0.198845 -0.000000
vn 0.515290 0.091705 -0.852095
vn 0.478726 0.326579 -0.814965
vn 0.478726 0.326579 -0.814965
vn 0.931249 0.364383 0.000000
vn 0.980031 0.198845 -0.000000
vn 1.000000 -0.000006 0.000000
vn 0.999614 0.000010 -0.027774
vn 1.000000 -0.000529 0.000580
vn 0.478726 0.326579 -0.814965
vn 0.728209 0.685355 0.000000
vn 0.931249 0.364383 0.000000
vn 0.515290 0.091705 0.852095
vn 0.176486 0.130465 0.975619
vn 0.219784 0.034648 0.974933
vn -0.706189 -0.133853 -0.695256
vn -0.986878 -0.064909 -0.147848
vn -0.753382 -0.199142 -0.626704
vn -0.706189 -0.133853 -0.695256
vn -0.753382 -0.199142 -0.626704
vn -0.746775 -0.262740 -0.610978
vn -0.408997 -0.560851 -0.719839
vn -0.244682 -0.310579 -0.918516
vn -0.434537 -0.510785 -0.741806
vn -0.434537 -0.510785 -0.741806
vn -0.588500 -0.808498 -0.000000
vn -0.408997 -0.560851 -0.719839
vn -0.996447 -0.060066 -0.059035
vn -0.753382 -0.199142 -0.626704
vn -0.986878 -0.064909 -0.147848
vn 0.515290 0.091705 0.852095
vn 0.478726 0.326579 0.814965
vn 0.176486 0.130465 0.975619
vn 0.478726 0.326579 0.814965
vn 0.312625 0.471057 0.824846
vn 0.176486 0.130465 0.975619
vn 0.728209 0.685355 0.000000
vn 0.478726 0.326579 0.814965
vn 0.931249 0.364383 0.000000
vn 0.478726 0.326579 0.814965
vn 0.728209 0.685355 0.000000
vn 0.312625 0.471057 0.824846
vn 0.980031 0.198845 -0.000000
vn 0.478726 0.326579 0.814965
vn 0.515290 0.091705 0.852095
vn 0.478726 0.326579 0.814965
vn 0.980031 0.198845 -0.000000
vn 0.931249 0.364383 0.000000
vn 0.581229 0.586325 0.564265
vn 0.312625 0.471057 0.824846
vn 0.728209 0.685355 0.000000
vn 0.581229 0.586325 -0.564265
vn 0.659829 0.751416 -0.000000
vn 0.728209 0.685355 0.000000
vn 0.581229 0.586325 0.564265
vn 0.728209 0.685355 0.000000
vn 0.659829 0.751416 -0.000000
vn -0.491198 -0.871048 -0.000000
vn -0.408997 -0.560851 -0.719839
vn -0.588500 -0.808498 -0.000000
vn -0.491198 -0.871048 -0.000000
vn -0.588500 -0.808498 -0.000000
vn -0.408997 -0.560851 0.719839
vn -0.368378 -0.929676 -0.000000
vn -0.684322 -0.729180 -0.000000
vn -0.360286 -0.817487 -0.449343
vn -0.368378 -0.929676 -0.000000
vn -0.360286 -0.817487 0.449343
vn -0.684322 -0.729180 -0.000000
vn -0.368378 -0.929676 -0.000000
vn 0.013339 -0.973114 0.229937
vn -0.360286 -0.817487 0.449343
vn -0.368378 -0.929676 -0.000000
vn 0.013339 -0.973114 -0.229937
vn 0.013339 -0.973114 0.229937
vn -0.368378 -0.929676 -0.000000
vn -0.360286 -0.817487 -0.449343
vn 0.013339 -0.973114 -0.229937
vn -0.106014 0.137671 -0.984788
vn -0.978593 0.205693 0.006751
vn -0.148166 0.082118 -0.985547
vn -0.106014 0.137671 -0.984788
vn -0.947195 0.320645 0.002810
vn -0.978593 0.205693 0.006751
vn -0.947195 0.320645 0.002810
vn -0.155347 0.090949 0.983664
vn -0.978593 0.205693 0.006751
vn -0.947195 0.320645 0.002810
vn -0.111809 0.137399 0.984185
vn -0.155347 0.090949 0.983664
vn -0.111809 0.137399 0.984185
vn 0.829334 -0.037224 0.557512
vn -0.155347 0.090949 0.983664
vn -0.111809 0.137399 0.984185
vn 0.844502 -0.057173 0.532491
vn 0.829334 -0.037224 0.557512
vn 0.844502 -0.057173 0.532491
vn 0.828082 -0.040817 -0.559120
vn 0.829334 -0.037224 0.557512
vn 0.844502 -0.057173 0.532491
vn 0.843798 -0.052457 -0.534091
vn 0.828082 -0.040817 -0.559120
vn 0.843798 -0.052457 -0.534091
vn -0.148166 0.082118 -0.985547
vn 0.828082 -0.040817 -0.559120
vn 0.843798 -0.052457 -0.534091
vn -0.106014 0.137671 -0.984788
vn -0.148166 0.082118 -0.985547
vn -0.148166 0.082118 -0.985547
vn -0.998505 -0.054593 0.002638
vn -0.118862 -0.030269 -0.992449
vn -0.148166 0.082118 -0.985547
vn -0.978593 0.205693 0.006751
vn -0.998505 -0.054593 0.002638
vn -0.978593 0.205693 0.006751
vn -0.125786 -0.045229 0.991026
vn -0.998505 -0.054593 0.002638
vn -0.978593 0.205693 0.006751
vn -0.155347 0.090949 0.983664
vn -0.125786 -0.045229 0.991026
vn -0.155347 0.090949 0.983664
vn 0.821306 -0.074477 0.565606
vn -0.125786 -0.045229 0.991026
vn -0.155347 0.090949 0.983664
vn 0.829334 -0.037224 0.557512
vn 0.821306 -0.074477 0.565606
vn 0.829334 -0.037224 0.557512
vn 0.819749 -0.067630 -0.568715
vn 0.821306 -0.074477 0.565606
vn 0.829334 -0.037224 0.557512
vn 0.828082 -0.040817 -0.559120
vn 0.819749 -0.067630 -0.568715
vn 0.828082 -0.040817 -0.559120
vn -0.118862 -0.030269 -0.992449
vn 0.819749 -0.067630 -0.568715
vn 0.828082 -0.040817 -0.559120
vn -0.148166 0.082118 -0.985547
vn -0.118862 -0.030269 -0.992449
vn -0.118862 -0.030269 -0.992449
vn -0.985503 -0.169649 -0.001527
vn -0.178367 -0.105668 -0.978274
vn -0.118862 -0.030269 -0.992449
vn -0.998505 -0.054593 0.002638
vn -0.985503 -0.169649 -0.001527
vn -0.998505 -0.054593 0.002638
vn -0.181397 -0.095663 0.978746
vn -0.985503 -0.169649 -0.001527
vn -0.998505 -0.054593 0.002638
vn -0.125786 -0.045229 0.991026
vn -0.181397 -0.095663 0.978746
vn -0.125786 -0.045229 0.991026
vn 0.838689 -0.114521 0.532434
vn -0.181397 -0.095663 0.978746
vn -0.125786 -0.045229 0.991026
vn 0.821306 -0.074477 0.565606
vn 0.838689 -0.114521 0.532434
vn 0.821306 -0.074477 0.565606
vn 0.836491 -0.120926 -0.534472
vn 0.838689 -0.114521 0.532434
vn 0.821306 -0.074477 0.565606
vn 0.819749 -0.067630 -0.568715
vn 0.836491 -0.120926 -0.534472
vn 0.819749 -0.067630 -0.568715
vn -0.178367 -0.105668 -0.978274
vn 0.836491 -0.120926 -0.534472
vn 0.819749 -0.067630 -0.568715
vn -0.118862 -0.030269 -0.992449
vn -0.178367 -0.105668 -0.978274
s off
g FY_Wea_Epee1M
usemtl FY_Wea_Epee1MSG
f 19/62/1 20/63/2 7/64/3
f 8/71/4 9/72/5 23/73/6
f 23/73/7 11/75/8 12/76/9
f 2/77/10 23/73/11 12/76/12
f 23/73/13 13/74/14 11/75/15
f 16/65/16 20/63/17 21/66/18
f 7/64/19 15/70/20 19/62/21
f 15/70/22 8/71/23 19/62/24
f 23/73/25 9/72/26 13/74/27
usemtl FY_Wea_Epee1MSG1
f 29/43/28 31/44/29 32/45/30
usemtl FY_Wea_Epee1MSG
f 7/64/31 20/63/32 16/65/33
f 22/67/34 1/68/35 18/69/36
f 21/66/37 18/69/38 16/65/39
f 21/66/40 22/67/41 18/69/42
f 4/78/43 23/73/44 2/77/45
f 10/4/46 23/6/47 4/2/48
f 8/71/49 23/73/50 19/62/51
f 23/6/52 10/4/53 19/5/54
f 14/79/55 7/81/56 16/91/57
f 8/83/58 10/84/59 9/90/60
f 10/84/61 12/86/62 11/88/63
f 2/85/64 12/86/65 10/84/66
f 10/84/67 11/88/68 13/89/69
f 5/80/70 7/81/71 14/79/72
f 7/81/73 5/80/74 15/82/75
f 15/82/76 5/80/77 8/83/78
f 10/84/79 13/89/80 9/90/81
f 14/79/82 16/91/83 6/92/84
f 17/94/85 18/93/86 1/1/87
f 6/92/88 16/91/89 18/93/90
f 6/92/91 18/93/92 17/94/93
f 4/87/94 2/85/95 10/84/96
f 8/83/97 5/80/98 10/84/99
f 28/8/100 3/9/101 14/10/102
f 25/11/103 28/8/104 14/10/105
f 24/12/106 25/11/107 6/13/108
f 17/14/109 24/12/110 6/13/111
f 22/15/112 24/12/113 17/14/114
f 1/16/115 22/15/116 17/14/117
f 22/15/118 21/17/119 24/12/120
f 21/17/121 26/18/122 24/12/123
f 25/11/124 14/10/125 6/13/126
f 21/17/127 20/19/128 26/18/129
f 26/18/130 20/19/131 27/20/132
f 20/19/133 3/9/134 27/20/135
f 27/20/136 3/9/137 28/8/138
usemtl FY_Wea_Epee1MSG1
f 32/45/139 20/49/140 30/50/141
f 32/45/142 31/44/143 20/49/144
f 29/43/145 20/49/146 31/44/147
f 20/49/148 29/43/149 3/46/150
f 19/51/151 30/50/152 20/49/153
f 29/43/154 32/45/155 33/52/156
f 33/52/157 32/45/158 30/50/159
usemtl FY_Wea_Epee1MSG
f 10/4/160 36/7/161 19/5/162
usemtl FY_Wea_Epee1MSG1
f 30/50/163 42/53/164 33/52/165
f 42/53/166 30/50/167 19/51/168
f 35/54/169 29/43/170 33/52/171
f 33/52/172 34/55/173 35/54/174
usemtl FY_Wea_Epee1MSG
f 10/4/175 5/3/176 36/7/177
usemtl FY_Wea_Epee1MSG1
f 33/52/178 42/53/179 34/55/180
f 37/56/181 39/57/182 38/58/183
f 39/57/184 40/59/185 14/48/186
f 39/57/187 14/48/188 38/58/189
f 37/56/190 38/58/191 14/48/192
f 14/48/193 3/46/194 37/56/195
f 5/47/196 14/48/197 40/59/198
f 37/56/199 41/60/200 39/57/201
f 41/60/202 40/59/203 39/57/204
f 42/53/205 41/60/206 34/55/207
f 41/60/208 42/53/209 40/59/210
f 35/54/211 41/60/212 37/56/213
f 41/60/214 35/54/215 34/55/216
f 5/47/217 40/59/218 42/53/219
f 19/51/220 36/61/221 42/53/222
f 5/47/223 42/53/224 36/61/225
f 35/54/226 37/56/227 3/46/228
f 35/54/229 3/46/230 29/43/231
usemtl FY_Wea_Epee1MSG3
f 43/37/232 45/38/233 44/39/234
f 43/37/235 46/40/236 45/38/237
f 43/37/238 47/41/239 46/40/240
f 43/37/241 48/42/242 47/41/243
f 43/37/244 44/39/245 48/42/246
usemtl FY_Wea_Epee1MSG4
f 44/32/247 50/31/248 49/30/249
f 44/32/250 45/29/251 50/31/252
f 45/29/253 51/95/254 50/31/255
f 45/29/256 46/96/257 51/97/258
f 46/98/259 52/24/260 51/99/261
f 46/100/262 47/22/263 52/24/264
f 47/22/265 53/25/266 52/24/267
f 47/22/268 48/23/269 53/25/270
f 48/101/271 49/30/272 53/102/273
f 48/103/274 44/32/275 49/30/276
f 49/30/277 55/34/278 54/33/279
f 49/30/280 50/31/281 55/34/282
f 50/31/283 56/104/284 55/34/285
f 50/31/286 51/105/287 56/106/288
f 51/107/289 57/26/290 56/108/291
f 51/109/292 52/24/293 57/26/294
f 52/24/295 58/27/296 57/26/297
f 52/24/298 53/25/299 58/27/300
f 53/110/301 54/33/302 58/111/303
f 53/112/304 49/30/305 54/33/306
f 54/33/307 24/36/308 26/35/309
f 54/33/310 55/34/311 24/36/312
f 55/34/313 25/113/314 24/36/315
f 55/34/316 56/114/317 25/115/318
f 56/116/319 28/21/320 25/117/321
f 56/118/322 57/26/323 28/21/324
f 57/26/325 27/28/326 28/21/327
f 57/26/328 58/27/329 27/28/330
f 58/119/331 26/35/332 27/120/333
f 58/121/334 54/33/335 26/35/336
