# This file uses meters as units for non-parametric coordinates.

mtllib fy_wea_lance2m.max.fobj.mtl
g default
v 1.551212 113.878882 -0.952081
v -0.310461 113.878321 -1.375140
v -0.310461 113.878322 1.373769
v -1.912711 113.878894 -0.000686
v 1.551212 113.878894 0.950709
v -0.183824 -6.706965 -1.301343
v -1.624822 -6.705164 -0.000637
v -0.183824 -6.706952 1.300070
v 1.561508 -6.708765 0.803244
v 1.561507 -6.708753 -0.804518
v -0.193086 -7.813108 -1.330729
v -1.666639 -7.811593 -0.000636
v -0.193086 -7.813119 1.329456
v 1.591677 -7.814622 0.821406
v 1.591677 -7.814634 -0.822679
v -0.556587 -27.382136 -2.070145
v -3.307869 -27.380443 -0.000624
v -0.556587 -27.382183 2.068898
v 2.775757 -27.383852 1.278411
v 2.775757 -27.383876 -1.279658
v 0.226094 -28.054595 -0.000623
v -0.370467 -7.256519 -1.893554
v -2.467551 -7.254290 -0.000637
v -0.370467 -7.256531 1.892282
v 2.169514 -7.258797 1.169251
v 2.169514 -7.258784 -1.170524
v -2.391692 126.273048 -0.000688
v -0.415238 126.056111 -1.698903
v -0.415238 126.056111 1.697528
v 1.890977 126.273036 1.175582
v 1.890977 126.273036 -1.176959
v -6.145583 130.346656 -0.000690
v -2.926376 127.020562 1.351997
v 2.673536 127.020562 1.351997
v -4.151227 142.061222 -0.000692
v -4.136032 129.898191 0.573332
v -5.007162 134.541595 -0.000690
v 2.673536 127.020549 -1.353374
v -2.926376 127.020550 -1.353374
v -4.136032 129.898191 -0.574711
v -0.606878 140.584862 -1.021438
v -0.126420 127.020549 -2.273484
v -0.606878 140.584862 1.020055
v -0.126419 127.020562 2.272107
v -3.242380 135.111892 -0.840309
v -0.306449 130.570186 1.896770
v -3.242379 135.111892 0.838928
v -0.306449 130.570185 -1.898147
v -2.437700 141.512394 -0.362129
v -2.437699 141.512406 0.360745
v 3.523133 129.898190 -0.574712
v 5.532684 130.346656 -0.000690
v 3.640832 135.265398 -0.000691
v 2.441601 142.036128 -0.000693
v 1.812095 135.112762 -0.840310
v 0.878562 141.284645 -0.362129
v 3.523132 129.898190 0.573331
v 0.878562 141.284645 0.360745
v 1.812094 135.112774 0.838928
v 0.045496 150.580442 -0.740364
v 0.045496 150.580442 0.738978
v -2.279393 151.437545 -0.000694
v 2.233992 150.591457 -0.000694
v 2.762570 159.259891 -0.484298
v 2.762570 159.259903 0.482909
v 1.640539 160.643721 -0.000695
v 4.091930 158.778226 -0.000695
v 6.284735 164.748883 -0.215201
v 6.284735 164.748883 0.213810
v 6.085368 165.815317 -0.000696
v 7.179214 164.563393 -0.000696
v 11.390059 169.631600 -0.000697
vt 0.017018 0.242086
vt 0.017066 0.464778
vt 0.017021 0.240995
vt 0.017126 0.756304
vt 0.017072 0.552820
vt 0.064025 0.000500
vt 0.000500 0.238925
vt 0.000500 0.761075
vt 0.318734 0.171104
vt 0.054274 0.126540
vt 0.155236 0.097884
vt 0.000499 0.761075
vt 0.000499 0.238925
vt 0.054274 0.126540
vt 0.286634 0.474300
vt 0.000499 0.500000
vt 0.286634 0.474300
vt 0.000500 0.500000
vt 0.167635 0.248850
vt 0.068886 0.500000
vt 0.167635 0.248850
vt 0.068886 0.500000
vt 0.306801 0.317685
vt 0.306801 0.317685
vt 0.054274 0.873460
vt 0.064025 0.999501
vt 0.170973 0.837665
vt 0.318188 0.735078
vt 0.167654 0.681228
vt 0.301849 0.601370
vt 0.054274 0.873460
vt 0.301849 0.601370
vt 0.167654 0.681228
vt 0.485819 0.475615
vt 0.485820 0.475615
vt 0.485888 0.265817
vt 0.499040 0.652880
vt 0.685358 0.473190
vt 0.685358 0.473190
vt 0.705395 0.347945
vt 0.685493 0.592943
vt 0.837951 0.473614
vt 0.837951 0.473614
vt 0.850108 0.400812
vt 0.850964 0.535967
vt 0.999501 0.488086
vt 0.029484 0.000000
vt 0.000000 0.000000
vt 0.027518 1.000000
vt 0.000000 1.000000
vt 1.000000 0.444131
vt 1.000000 0.687269
vt 0.000000 0.653192
vt 0.000000 0.392866
vt 1.000000 0.233034
vt 0.000000 0.183805
vt 1.000000 1.000000
vt 0.000000 1.000000
vt 1.000000 0.878245
vt 0.000000 0.824181
vt 0.998955 0.002242
vt 0.000000 0.000000
vt 1.000000 0.000000
vt 0.629295 1.000000
vt 0.443944 -3.000000
vt 0.629295 -3.000000
vt 0.443944 1.000000
vt 0.233288 -3.000000
vt 0.233288 1.000000
vt 1.000000 -3.000000
vt 1.000000 1.000000
vt 0.811452 -3.000000
vt 0.811452 1.000000
vt 0.000000 -3.000000
vt 0.000000 1.000000
vt 0.000000 -3.000000
vt 0.960155 0.452291
vt 0.960045 0.000000
vt 1.000000 0.000000
vt 1.000000 0.455804
vt 0.960155 0.452291
vt 1.000000 0.455804
vt 0.960068 1.000000
vt 1.000000 1.000000
vt 0.960068 1.000000
vt 1.000000 1.000000
vt 0.919823 0.453809
vt 0.919823 0.000000
vt 0.919823 0.453809
vt 0.919823 1.000000
vt 0.919823 1.000000
vt 0.471703 0.999458
vt 0.250000 0.999415
vt 0.250002 0.000500
vt 0.501916 0.000537
vt 0.028297 0.999458
vt -0.001917 0.000537
vt 0.800515 0.999500
vt 0.804619 0.000574
vt 0.699485 0.999501
vt 0.695378 0.000574
vt -0.001917 0.000537
vt -0.001917 0.000537
vt -0.199485 0.999500
vt -0.195381 0.000574
vt -0.195381 0.000574
vt 0.500000 0.000500
vt 1.000000 0.465321
vt 0.500000 0.580817
vt 0.000000 0.455549
vt 0.191292 1.000000
vt 0.834767 1.000000
vt 0.054274 0.126540
vt 0.000499 0.238925
vt 0.000499 0.238925
vt 0.000499 0.238925
vt 0.000499 0.238925
vt 0.054274 0.126540
vt 0.000499 0.761075
vt 0.054274 0.873460
vt 0.000499 0.761075
vt 0.054274 0.873460
vn -0.225762 -0.001083 -0.974182
vn -0.999785 -0.020746 -0.000037
vn -0.240196 -0.014483 -0.970617
vn -0.225762 -0.001083 -0.974182
vn -0.999998 -0.002061 0.000140
vn -0.999785 -0.020746 -0.000037
vn -0.999998 -0.002061 0.000140
vn -0.240249 -0.014459 0.970604
vn -0.999785 -0.020746 -0.000037
vn -0.999998 -0.002061 0.000140
vn -0.226162 -0.001316 0.974089
vn -0.240249 -0.014459 0.970604
vn -0.226162 -0.001316 0.974089
vn 0.781014 -0.016564 0.624293
vn -0.240249 -0.014459 0.970604
vn -0.226162 -0.001316 0.974089
vn 0.798436 -0.000668 0.602079
vn 0.781014 -0.016564 0.624293
vn 0.798436 -0.000668 0.602079
vn 0.780956 -0.016892 -0.624358
vn 0.781014 -0.016564 0.624293
vn 0.798436 -0.000668 0.602079
vn 0.798272 -0.000140 -0.602297
vn 0.780956 -0.016892 -0.624358
vn 0.798272 -0.000140 -0.602297
vn -0.240196 -0.014483 -0.970617
vn 0.780956 -0.016892 -0.624358
vn 0.798272 -0.000140 -0.602297
vn -0.225762 -0.001083 -0.974182
vn -0.240196 -0.014483 -0.970617
vn -0.209634 0.045504 -0.976721
vn -0.997055 0.076638 -0.002693
vn -0.997308 0.073149 -0.005191
vn -0.997308 0.073149 -0.005191
vn -0.226017 0.044936 -0.973086
vn -0.209634 0.045504 -0.976721
vn -0.997055 0.076638 -0.002693
vn -0.205625 0.042934 0.977689
vn -0.218621 0.048802 0.974589
vn -0.218621 0.048802 0.974589
vn -0.997308 0.073149 -0.005191
vn -0.997055 0.076638 -0.002693
vn -0.205625 0.042934 0.977689
vn 0.787555 0.061971 0.613120
vn 0.790812 0.057690 0.609334
vn 0.790812 0.057690 0.609334
vn -0.218621 0.048802 0.974589
vn -0.205625 0.042934 0.977689
vn 0.787555 0.061971 0.613120
vn 0.788469 0.059516 -0.612189
vn 0.792136 0.062109 -0.607176
vn 0.792136 0.062109 -0.607176
vn 0.790812 0.057690 0.609334
vn 0.787555 0.061971 0.613120
vn 0.788469 0.059516 -0.612189
vn -0.209634 0.045504 -0.976721
vn -0.226017 0.044936 -0.973086
vn -0.226017 0.044936 -0.973086
vn 0.792136 0.062109 -0.607176
vn 0.788469 0.059516 -0.612189
vn -0.187385 -0.982287 -0.000012
vn -0.068797 -0.956154 -0.284669
vn 0.004397 -0.999990 -0.000006
vn -0.068790 -0.956160 0.284652
vn -0.187385 -0.982287 -0.000012
vn 0.004397 -0.999990 -0.000006
vn 0.188468 -0.972830 0.134468
vn -0.068790 -0.956160 0.284652
vn 0.004397 -0.999990 -0.000006
vn 0.188462 -0.972832 -0.134463
vn 0.188468 -0.972830 0.134468
vn 0.004397 -0.999990 -0.000006
vn -0.068797 -0.956154 -0.284669
vn 0.188462 -0.972832 -0.134463
vn 0.004397 -0.999990 -0.000006
vn -0.239225 0.013100 -0.970876
vn -0.999932 0.011677 0.000011
vn -0.545912 0.837843 0.000068
vn -0.545912 0.837843 0.000068
vn -0.132499 0.747041 -0.651440
vn -0.239225 0.013100 -0.970876
vn -0.999932 0.011677 0.000011
vn -0.239227 0.013119 0.970875
vn -0.132507 0.746994 0.651493
vn -0.132507 0.746994 0.651493
vn -0.545912 0.837843 0.000068
vn -0.999932 0.011677 0.000011
vn -0.239227 0.013119 0.970875
vn 0.811015 0.011727 0.584907
vn 0.470733 0.786429 0.399925
vn 0.470733 0.786429 0.399925
vn -0.132507 0.746994 0.651493
vn -0.239227 0.013119 0.970875
vn 0.811015 0.011727 0.584907
vn 0.811021 0.011725 -0.584899
vn 0.470752 0.786450 -0.399861
vn 0.470752 0.786450 -0.399861
vn 0.470733 0.786429 0.399925
vn 0.811015 0.011727 0.584907
vn 0.811021 0.011725 -0.584899
vn -0.239225 0.013100 -0.970876
vn -0.132499 0.747041 -0.651440
vn -0.132499 0.747041 -0.651440
vn 0.470752 0.786450 -0.399861
vn 0.811021 0.011725 -0.584899
vn -0.138926 -0.725680 -0.673861
vn -0.571163 -0.820837 -0.000014
vn -0.999932 0.011677 0.000011
vn -0.999932 0.011677 0.000011
vn -0.239225 0.013100 -0.970876
vn -0.138926 -0.725680 -0.673861
vn -0.571163 -0.820837 -0.000014
vn -0.138930 -0.725690 0.673849
vn -0.239227 0.013119 0.970875
vn -0.239227 0.013119 0.970875
vn -0.999932 0.011677 0.000011
vn -0.571163 -0.820837 -0.000014
vn -0.138930 -0.725690 0.673849
vn 0.489092 -0.767639 0.414149
vn 0.811015 0.011727 0.584907
vn 0.811015 0.011727 0.584907
vn -0.239227 0.013119 0.970875
vn -0.138930 -0.725690 0.673849
vn 0.489092 -0.767639 0.414149
vn 0.489096 -0.767622 -0.414176
vn 0.811021 0.011725 -0.584899
vn 0.811021 0.011725 -0.584899
vn 0.811015 0.011727 0.584907
vn 0.489092 -0.767639 0.414149
vn 0.489096 -0.767622 -0.414176
vn -0.138926 -0.725680 -0.673861
vn -0.239225 0.013100 -0.970876
vn -0.239225 0.013100 -0.970876
vn 0.811021 0.011725 -0.584899
vn 0.489096 -0.767622 -0.414176
vn -0.999241 -0.038955 -0.000142
vn -0.240418 -0.027761 -0.970272
vn -0.240196 -0.014483 -0.970617
vn -0.240196 -0.014483 -0.970617
vn -0.999785 -0.020746 -0.000037
vn -0.999241 -0.038955 -0.000142
vn -0.240188 -0.027612 0.970334
vn -0.999241 -0.038955 -0.000142
vn -0.999785 -0.020746 -0.000037
vn -0.999785 -0.020746 -0.000037
vn -0.240249 -0.014459 0.970604
vn -0.240188 -0.027612 0.970334
vn 0.797058 -0.032903 0.603006
vn -0.240188 -0.027612 0.970334
vn -0.240249 -0.014459 0.970604
vn -0.240249 -0.014459 0.970604
vn 0.781014 -0.016564 0.624293
vn 0.797058 -0.032903 0.603006
vn 0.797093 -0.032791 -0.602966
vn 0.797058 -0.032903 0.603006
vn 0.781014 -0.016564 0.624293
vn 0.781014 -0.016564 0.624293
vn 0.780956 -0.016892 -0.624358
vn 0.797093 -0.032791 -0.602966
vn -0.240418 -0.027761 -0.970272
vn 0.797093 -0.032791 -0.602966
vn 0.780956 -0.016892 -0.624358
vn 0.780956 -0.016892 -0.624358
vn -0.240196 -0.014483 -0.970617
vn -0.240418 -0.027761 -0.970272
vn -0.319333 0.056940 -0.945930
vn -0.259422 0.070402 -0.963195
vn -0.414784 0.042723 -0.908916
vn -0.210245 0.060596 -0.975769
vn -0.338452 0.055889 -0.939323
vn -0.414784 0.042723 -0.908916
vn -0.338452 0.055889 -0.939323
vn 0.028869 0.083405 -0.996098
vn 0.005481 0.076910 -0.997023
vn -0.319334 0.056941 0.945930
vn -0.414784 0.042723 0.908916
vn -0.259422 0.070402 0.963195
vn -0.246313 0.070623 0.966614
vn -0.338452 0.055890 0.939322
vn 0.028869 0.083406 0.996097
vn -0.309749 0.124849 0.942586
vn 0.011785 0.124207 0.992186
vn -0.319334 0.056941 0.945930
vn -0.109030 -0.590924 -0.799325
vn 0.025929 -0.508067 -0.860927
vn 0.265330 -0.496395 -0.826554
vn -0.704430 -0.709774 0.000001
vn -0.718479 -0.654838 -0.234467
vn -0.718480 -0.654835 0.234472
vn -0.704430 -0.709774 0.000000
vn -0.704430 -0.709774 0.000001
vn -0.718480 -0.654835 0.234472
vn -0.718479 -0.654838 -0.234467
vn 0.025929 -0.508067 -0.860927
vn -0.109030 -0.590924 -0.799325
vn -0.109031 -0.590919 0.799329
vn 0.025929 -0.508060 0.860931
vn -0.718480 -0.654835 0.234472
vn -0.718480 -0.654835 0.234472
vn -0.718479 -0.654838 -0.234467
vn -0.602994 -0.797746 0.000003
vn 0.025929 -0.508060 0.860931
vn 0.265331 -0.496389 0.826557
vn 0.809276 -0.431469 0.398633
vn -0.319333 0.056940 -0.945930
vn 0.011785 0.124206 -0.992187
vn -0.309749 0.124848 -0.942586
vn -0.414784 0.042723 0.908916
vn -0.338452 0.055890 0.939322
vn -0.210246 0.060596 0.975769
vn -0.319334 0.056941 0.945930
vn -0.338452 0.055890 0.939322
vn -0.414784 0.042723 0.908916
vn -0.602994 -0.797746 0.000003
vn -0.109031 -0.590919 0.799329
vn -0.718480 -0.654835 0.234472
vn 0.025929 -0.508067 -0.860927
vn 0.809276 -0.431472 -0.398629
vn 0.265330 -0.496395 -0.826554
vn -0.109031 -0.590919 0.799329
vn 0.265331 -0.496389 0.826557
vn 0.025929 -0.508060 0.860931
vn -0.718479 -0.654838 -0.234467
vn -0.109030 -0.590924 -0.799325
vn -0.602994 -0.797746 0.000003
vn -0.217809 -0.975991 -0.000000
vn -0.704430 -0.709774 0.000001
vn -0.704430 -0.709774 0.000000
vn 0.690730 -0.723113 -0.000000
vn 0.690730 -0.723113 -0.000000
vn 0.690730 -0.723113 -0.000000
vn 0.690735 -0.723108 0.000003
vn 0.690735 -0.723108 0.000003
vn 0.690735 -0.723108 0.000003
vn -0.414784 0.042723 -0.908916
vn -0.338452 0.055889 -0.939323
vn -0.319333 0.056940 -0.945930
vn -0.338452 0.055890 0.939322
vn -0.319334 0.056941 0.945930
vn 0.005481 0.076910 0.997023
vn -0.319334 0.056941 0.945930
vn 0.011785 0.124207 0.992186
vn 0.005481 0.076910 0.997023
vn -0.319333 0.056940 -0.945930
vn -0.338452 0.055889 -0.939323
vn 0.005481 0.076910 -0.997023
vn -0.319333 0.056940 -0.945930
vn 0.005481 0.076910 -0.997023
vn 0.011785 0.124206 -0.992187
vn -0.338452 0.055890 0.939322
vn 0.005481 0.076910 0.997023
vn 0.028869 0.083406 0.996097
vn -0.210245 0.060596 -0.975769
vn -0.246313 0.070623 -0.966614
vn -0.338452 0.055889 -0.939323
vn -0.338452 0.055889 -0.939323
vn -0.246313 0.070623 -0.966614
vn 0.028869 0.083405 -0.996098
vn -0.338452 0.055890 0.939322
vn -0.246313 0.070623 0.966614
vn -0.210246 0.060596 0.975769
vn 0.314231 0.100398 -0.944023
vn 0.391882 0.082521 -0.916307
vn 0.253201 0.097386 -0.962499
vn 0.225982 0.041573 -0.973244
vn 0.391882 0.082521 -0.916307
vn 0.343181 0.085440 -0.935375
vn 0.296300 0.056841 -0.953402
vn 0.343181 0.085440 -0.935375
vn 0.028869 0.083405 -0.996098
vn 0.314231 0.100398 0.944023
vn 0.253201 0.097387 0.962499
vn 0.391882 0.082521 0.916307
vn 0.343182 0.085440 0.935375
vn 0.028869 0.083406 0.996097
vn 0.005481 0.076910 0.997023
vn 0.308032 0.162699 0.937361
vn 0.314231 0.100398 0.944023
vn 0.011785 0.124207 0.992186
vn 0.751553 -0.659672 0.000001
vn 0.809276 -0.431469 0.398633
vn 0.809276 -0.431472 -0.398629
vn 0.751554 -0.659672 0.000001
vn 0.809276 -0.431469 0.398633
vn 0.751553 -0.659672 0.000001
vn 0.314231 0.100398 -0.944023
vn 0.308032 0.162697 -0.937361
vn 0.011785 0.124206 -0.992187
vn 0.391882 0.082521 0.916307
vn 0.225983 0.041574 0.973244
vn 0.343182 0.085440 0.935375
vn 0.314231 0.100398 0.944023
vn 0.391882 0.082521 0.916307
vn 0.343182 0.085440 0.935375
vn 0.217809 -0.975991 0.000000
vn 0.751554 -0.659672 0.000001
vn 0.751553 -0.659672 0.000001
vn 0.391882 0.082521 -0.916307
vn 0.314231 0.100398 -0.944023
vn 0.343181 0.085440 -0.935375
vn 0.343182 0.085440 0.935375
vn 0.005481 0.076910 0.997023
vn 0.314231 0.100398 0.944023
vn 0.314231 0.100398 0.944023
vn 0.005481 0.076910 0.997023
vn 0.011785 0.124207 0.992186
vn 0.314231 0.100398 -0.944023
vn 0.005481 0.076910 -0.997023
vn 0.343181 0.085440 -0.935375
vn 0.314231 0.100398 -0.944023
vn 0.011785 0.124206 -0.992187
vn 0.005481 0.076910 -0.997023
vn 0.343182 0.085440 0.935375
vn 0.296301 0.056842 0.953402
vn 0.028869 0.083406 0.996097
vn 0.225982 0.041573 -0.973244
vn 0.343181 0.085440 -0.935375
vn 0.296300 0.056841 -0.953402
vn 0.343181 0.085440 -0.935375
vn 0.005481 0.076910 -0.997023
vn 0.028869 0.083405 -0.996098
vn 0.343182 0.085440 0.935375
vn 0.225983 0.041574 0.973244
vn 0.296301 0.056842 0.953402
vn 0.028869 0.083405 -0.996098
vn -0.246313 0.070623 -0.966614
vn 0.000792 0.022827 -0.999739
vn -0.246313 0.070623 0.966614
vn 0.028869 0.083406 0.996097
vn 0.000792 0.022827 0.999739
vn -0.271033 0.076682 -0.959511
vn 0.000792 0.022827 -0.999739
vn -0.246313 0.070623 -0.966614
vn -0.246313 0.070623 -0.966614
vn -0.210245 0.060596 -0.975769
vn -0.271033 0.076682 -0.959511
vn -0.246313 0.070623 0.966614
vn -0.271033 0.076682 0.959511
vn -0.210246 0.060596 0.975769
vn -0.271033 0.076682 0.959511
vn -0.246313 0.070623 0.966614
vn 0.000792 0.022827 0.999739
vn 0.296300 0.056841 -0.953402
vn 0.028869 0.083405 -0.996098
vn 0.000792 0.022827 -0.999739
vn 0.028869 0.083406 0.996097
vn 0.296301 0.056842 0.953402
vn 0.000792 0.022827 0.999739
vn 0.296300 0.056841 -0.953402
vn 0.315083 -0.042088 -0.948130
vn 0.225982 0.041573 -0.973244
vn 0.315083 -0.042088 -0.948130
vn 0.296300 0.056841 -0.953402
vn 0.000792 0.022827 -0.999739
vn 0.315084 -0.042088 0.948130
vn 0.000792 0.022827 0.999739
vn 0.296301 0.056842 0.953402
vn 0.296301 0.056842 0.953402
vn 0.225983 0.041574 0.973244
vn 0.315084 -0.042088 0.948130
vn -0.271033 0.076682 -0.959511
vn 0.006840 0.025238 -0.999658
vn 0.000792 0.022827 -0.999739
vn 0.006840 0.025238 -0.999658
vn -0.271033 0.076682 -0.959511
vn -0.228422 0.150908 -0.961795
vn 0.006839 0.025238 0.999658
vn -0.228423 0.150908 0.961795
vn -0.271033 0.076682 0.959511
vn -0.271033 0.076682 0.959511
vn 0.000792 0.022827 0.999739
vn 0.006839 0.025238 0.999658
vn 0.006840 0.025238 -0.999658
vn 0.303173 -0.113254 -0.946182
vn 0.315083 -0.042088 -0.948130
vn 0.315083 -0.042088 -0.948130
vn 0.000792 0.022827 -0.999739
vn 0.006840 0.025238 -0.999658
vn 0.315084 -0.042088 0.948130
vn 0.006839 0.025238 0.999658
vn 0.000792 0.022827 0.999739
vn 0.006839 0.025238 0.999658
vn 0.315084 -0.042088 0.948130
vn 0.303173 -0.113254 0.946182
vn -0.143436 0.170734 -0.974821
vn 0.009955 0.036451 -0.999286
vn 0.006840 0.025238 -0.999658
vn 0.006840 0.025238 -0.999658
vn -0.228422 0.150908 -0.961795
vn -0.143436 0.170734 -0.974821
vn 0.006839 0.025238 0.999658
vn -0.143436 0.170735 0.974821
vn -0.228423 0.150908 0.961795
vn -0.143436 0.170735 0.974821
vn 0.006839 0.025238 0.999658
vn 0.009956 0.036451 0.999286
vn 0.006840 0.025238 -0.999658
vn 0.209161 -0.139721 -0.967848
vn 0.303173 -0.113254 -0.946182
vn 0.209161 -0.139721 -0.967848
vn 0.006840 0.025238 -0.999658
vn 0.009955 0.036451 -0.999286
vn 0.209161 -0.139721 0.967848
vn 0.009956 0.036451 0.999286
vn 0.006839 0.025238 0.999658
vn 0.006839 0.025238 0.999658
vn 0.303173 -0.113254 0.946182
vn 0.209161 -0.139721 0.967848
vn 0.009955 0.036451 -0.999286
vn -0.143436 0.170734 -0.974821
vn 0.022109 0.020794 -0.999539
vn -0.143436 0.170735 0.974821
vn 0.009956 0.036451 0.999286
vn 0.022109 0.020794 0.999539
vn 0.209161 -0.139721 -0.967848
vn 0.009955 0.036451 -0.999286
vn 0.022109 0.020794 -0.999539
vn 0.009956 0.036451 0.999286
vn 0.209161 -0.139721 0.967848
vn 0.022109 0.020794 0.999539
s off
g FY_Wea_lance2m
usemtl FY_Wea_lance2mSG2
f 6/64/1 4/65/2 2/66/3
f 6/64/4 7/67/5 4/65/6
f 7/67/7 3/68/8 4/65/9
f 7/67/10 8/69/11 3/68/12
f 8/69/13 5/74/14 3/68/15
f 8/69/16 9/75/17 5/76/18
f 9/71/19 1/72/20 5/70/21
f 9/71/22 10/73/23 1/72/24
f 10/73/25 2/66/26 1/72/27
f 10/73/28 6/64/29 2/66/30
f 16/92/31 17/93/32 12/94/33
f 12/94/34 11/95/35 16/92/36
f 17/93/37 18/96/38 13/102/39
f 13/103/40 12/94/41 17/93/42
f 18/96/43 19/104/44 14/105/45
f 14/106/46 13/97/47 18/96/48
f 19/98/49 20/100/50 15/101/51
f 15/101/52 14/99/53 19/98/54
f 20/100/55 16/92/56 11/95/57
f 11/95/58 15/101/59 20/100/60
usemtl FY_Wea_lance2mSG3
f 17/107/61 16/108/62 21/109/63
f 18/110/64 17/107/65 21/109/66
f 19/111/67 18/110/68 21/109/69
f 20/112/70 19/111/71 21/109/72
f 16/108/73 20/112/74 21/109/75
usemtl FY_Wea_lance2mSG1
f 22/77/76 23/78/77 7/79/78
f 7/79/79 6/80/80 22/77/81
f 23/78/82 24/81/83 8/82/84
f 8/82/85 7/79/86 23/78/87
f 24/81/88 25/83/89 9/84/90
f 9/84/91 8/82/92 24/81/93
f 25/83/94 26/85/95 10/86/96
f 10/86/97 9/84/98 25/83/99
f 26/85/100 22/77/101 6/80/102
f 6/80/103 10/86/104 26/85/105
f 11/87/106 12/88/107 23/78/108
f 23/78/109 22/77/110 11/87/111
f 12/88/112 13/89/113 24/81/114
f 24/81/115 23/78/116 12/88/117
f 13/89/118 14/90/119 25/83/120
f 25/83/121 24/81/122 13/89/123
f 14/90/124 15/91/125 26/85/126
f 26/85/127 25/83/128 14/90/129
f 15/91/130 11/87/131 22/77/132
f 22/77/133 26/85/134 15/91/135
f 27/51/136 28/52/137 2/53/138
f 2/53/139 4/54/140 27/51/141
f 29/55/142 27/51/143 4/54/144
f 4/54/145 3/56/146 29/55/147
f 30/61/148 29/55/149 3/56/150
f 3/56/151 5/62/152 30/63/153
f 31/59/154 30/57/155 5/58/156
f 5/58/157 1/60/158 31/59/159
f 28/52/160 31/59/161 1/60/162
f 1/60/163 2/53/164 28/52/165
usemtl FY_Wea_lance2mSG
f 40/14/166 32/6/167 37/11/168
f 35/9/169 45/19/170 37/11/171
f 45/19/172 41/15/173 48/22/174
f 36/10/175 37/11/176 32/6/177
f 50/24/178 47/21/179 43/17/180
f 33/7/181 44/18/182 36/10/183
f 28/2/184 42/16/185 31/5/186
f 40/47/187 39/48/188 33/13/189
f 36/113/190 40/47/191 33/13/192
f 39/114/193 42/16/194 28/2/195
f 29/3/196 44/18/197 33/7/198
f 33/7/199 39/115/200 27/1/201
f 44/18/202 30/4/203 34/8/204
f 40/14/205 42/16/206 39/116/207
f 37/11/208 47/21/209 35/9/210
f 36/10/211 47/21/212 37/11/213
f 27/1/214 29/3/215 33/7/216
f 42/16/217 38/12/218 31/5/219
f 29/3/220 30/4/221 44/18/222
f 39/117/223 28/2/224 27/1/225
f 32/6/226 40/47/227 36/118/228
f 30/4/229 31/5/230 38/12/231
f 30/4/232 38/12/233 34/8/234
f 37/11/235 45/19/236 40/14/237
f 47/21/238 36/10/239 46/20/240
f 36/10/241 44/18/242 46/20/243
f 40/14/244 45/19/245 48/22/246
f 40/14/247 48/22/248 42/16/249
f 47/21/250 46/20/251 43/17/252
f 35/9/253 49/23/254 45/19/255
f 45/19/256 49/23/257 41/15/258
f 47/21/259 50/24/260 35/9/261
f 51/25/262 53/27/263 52/26/264
f 54/28/265 53/27/266 55/29/267
f 56/30/268 55/29/269 41/15/270
f 57/31/271 52/26/272 53/27/273
f 59/33/274 43/17/275 46/20/276
f 34/8/277 57/31/278 44/18/279
f 51/49/280 34/119/281 38/50/282
f 57/120/283 34/121/284 51/49/285
f 51/25/286 38/12/287 42/16/288
f 53/27/289 54/28/290 59/33/291
f 57/31/292 53/27/293 59/33/294
f 52/26/295 57/122/296 51/49/297
f 53/27/298 51/25/299 55/29/300
f 59/33/301 46/20/302 57/31/303
f 57/31/304 46/20/305 44/18/306
f 51/25/307 48/22/308 55/29/309
f 51/25/310 42/16/311 48/22/312
f 59/33/313 58/32/314 43/17/315
f 54/28/316 55/29/317 56/30/318
f 55/29/319 48/22/320 41/15/321
f 59/33/322 54/28/323 58/32/324
f 41/15/325 49/23/326 60/34/327
f 50/24/328 43/17/329 61/35/330
f 62/36/331 60/34/332 49/23/333
f 49/23/334 35/9/335 62/36/336
f 50/24/337 62/36/338 35/9/339
f 62/36/340 50/24/341 61/35/342
f 56/30/343 41/15/344 60/34/345
f 43/17/346 58/32/347 61/35/348
f 56/30/349 63/37/350 54/28/351
f 63/37/352 56/30/353 60/34/354
f 63/37/355 61/35/356 58/32/357
f 58/32/358 54/28/359 63/37/360
f 62/36/361 64/38/362 60/34/363
f 64/38/364 62/36/365 66/40/366
f 65/39/367 66/40/368 62/36/369
f 62/36/370 61/35/371 65/39/372
f 64/38/373 67/41/374 63/37/375
f 63/37/376 60/34/377 64/38/378
f 63/37/379 65/39/380 61/35/381
f 65/39/382 63/37/383 67/41/384
f 70/44/385 68/42/386 64/38/387
f 64/38/388 66/40/389 70/44/390
f 65/39/391 70/44/392 66/40/393
f 70/44/394 65/39/395 69/43/396
f 64/38/397 71/45/398 67/41/399
f 71/45/400 64/38/401 68/42/402
f 71/45/403 69/43/404 65/39/405
f 65/39/406 67/41/407 71/45/408
f 68/42/409 70/44/410 72/46/411
f 70/44/412 69/43/413 72/46/414
f 71/45/415 68/42/416 72/46/417
f 69/43/418 71/45/419 72/46/420
