# This file uses meters as units for non-parametric coordinates.

mtllib ge_acc_caravan_objet.max.fobj.mtl
g default
v 4.339537 8.462327 1.452941
v 0.000000 8.942353 4.450662
v 0.000000 -3.535920 -2.467701
v -1.413089 11.104901 1.037246
v 3.404313 7.189051 3.698461
v 0.000000 9.158693 -3.161984
v 5.540084 8.796994 0.602793
v 2.811036 -0.662372 1.832654
v 2.312638 0.818599 3.230274
v 4.049769 -2.024185 -0.001600
v 0.000000 -3.922872 1.832655
v 0.000001 -1.054521 3.771131
v 0.000000 -6.646498 -0.538762
v -2.811035 -0.662371 1.832655
v -2.312637 0.818599 3.230274
v -4.049768 -2.024185 -0.001600
v -4.339536 8.462328 1.452941
v -3.404311 7.189051 3.698462
v -5.540084 8.796994 0.602794
v 1.413090 11.104901 1.037246
v -0.882299 14.154867 0.464817
v -0.455426 14.922773 -1.097457
v 0.455028 14.922789 -1.097451
v 0.882298 14.154867 0.464817
vt 0.500000 0.000500
vt 0.500000 0.150963
vt 0.147196 0.292936
vt 0.253395 0.331085
vt 0.013983 0.853655
vt 0.500000 0.861685
vt 0.500000 0.309421
vt 0.297118 0.412899
vt 0.119304 0.835167
vt 0.201349 0.764826
vt 0.376033 0.981152
vt 0.013983 0.853655
vt 0.147197 0.292936
vt 0.500000 0.000500
vt 0.253395 0.331085
vt 0.500000 0.150963
vt 0.297119 0.412899
vt 0.500000 0.309421
vt 0.500000 0.861685
vt 0.201349 0.764826
vt 0.119304 0.835167
vt 0.376033 0.981152
vt 0.623967 0.981152
vt 0.500000 0.272089
vt 0.500000 0.093385
vt 0.933396 0.340525
vt 0.500000 0.873637
vt 0.986017 0.853655
vt 0.500000 0.093385
vt 0.986017 0.853655
vt 0.623967 0.981152
vt 0.500000 0.272089
vt 0.933397 0.340526
vt 0.500000 0.873637
vt 0.703587 0.043714
vt 0.987145 0.044438
vt 0.693858 0.181874
vt 0.796584 0.005260
vt 0.893501 0.004522
vt 0.843903 0.272623
vt 0.994703 0.182942
vt 0.099886 0.005251
vt 0.185368 0.005581
vt 0.141586 0.270764
vt 0.009282 0.174301
vt 0.059571 0.056814
vt 0.225248 0.057453
vt 0.274629 0.175324
vn 0.000002 0.302800 -0.953054
vn 0.597061 0.722705 0.348159
vn 0.921013 0.389369 0.011311
vn 0.597061 0.722705 0.348159
vn 0.614644 0.315859 0.722804
vn 0.921013 0.389369 0.011311
vn 0.614644 0.315859 0.722804
vn 0.654123 0.151969 0.740965
vn 0.673200 -0.343005 0.655095
vn 0.673200 -0.343005 0.655095
vn 0.654123 0.151969 0.740965
vn 0.608538 -0.240592 0.756172
vn -0.000000 -0.318911 -0.947785
vn 0.000002 0.302800 -0.953054
vn 0.911324 -0.404031 -0.079045
vn 0.921013 0.389369 0.011311
vn 0.673200 -0.343005 0.655095
vn 0.911324 -0.404031 -0.079045
vn 0.921013 0.389369 0.011311
vn 0.614644 0.315859 0.722804
vn 0.673200 -0.343005 0.655095
vn 0.673200 -0.343005 0.655095
vn 0.000459 -0.413073 0.910698
vn 0.000053 -0.628569 0.777754
vn 0.673200 -0.343005 0.655095
vn 0.608538 -0.240592 0.756172
vn 0.000459 -0.413073 0.910698
vn -0.000000 -0.318911 -0.947785
vn 0.911324 -0.404031 -0.079045
vn -0.000000 -0.997022 -0.077121
vn 0.911324 -0.404031 -0.079045
vn 0.673200 -0.343005 0.655095
vn -0.000000 -0.997022 -0.077121
vn -0.000000 -0.997022 -0.077121
vn 0.673200 -0.343005 0.655095
vn 0.000053 -0.628569 0.777754
vn 0.000053 -0.628569 0.777754
vn -0.608616 -0.240261 0.756214
vn -0.673589 -0.342946 0.654726
vn 0.000053 -0.628569 0.777754
vn 0.000459 -0.413073 0.910698
vn -0.608616 -0.240261 0.756214
vn -0.000000 -0.318911 -0.947785
vn -0.000000 -0.997022 -0.077121
vn -0.911324 -0.404031 -0.079045
vn -0.000000 -0.997022 -0.077121
vn -0.673589 -0.342946 0.654726
vn -0.911324 -0.404031 -0.079045
vn -0.000000 -0.997022 -0.077121
vn 0.000053 -0.628569 0.777754
vn -0.673589 -0.342946 0.654726
vn -0.673589 -0.342946 0.654726
vn -0.654122 0.151969 0.740965
vn -0.614644 0.315859 0.722804
vn -0.673589 -0.342946 0.654726
vn -0.608616 -0.240261 0.756214
vn -0.654122 0.151969 0.740965
vn 0.000002 0.302800 -0.953054
vn -0.911324 -0.404031 -0.079045
vn -0.921013 0.389369 0.011311
vn -0.911324 -0.404031 -0.079045
vn -0.673589 -0.342946 0.654726
vn -0.921013 0.389369 0.011311
vn -0.921013 0.389369 0.011311
vn -0.673589 -0.342946 0.654726
vn -0.614644 0.315859 0.722804
vn -0.597070 0.722686 0.348183
vn -0.654122 0.151969 0.740965
vn -0.000000 0.465649 0.884970
vn 0.000002 0.302800 -0.953054
vn -0.921013 0.389369 0.011311
vn -0.597070 0.722686 0.348183
vn -0.921013 0.389369 0.011311
vn -0.614644 0.315859 0.722804
vn -0.597070 0.722686 0.348183
vn -0.000000 0.465649 0.884970
vn -0.654122 0.151969 0.740965
vn 0.000459 -0.413073 0.910698
vn 0.654123 0.151969 0.740965
vn -0.000000 0.465649 0.884970
vn 0.000459 -0.413073 0.910698
vn 0.608538 -0.240592 0.756172
vn 0.654123 0.151969 0.740965
vn 0.000459 -0.413073 0.910698
vn 0.000459 -0.413073 0.910698
vn -0.654122 0.151969 0.740965
vn -0.608616 -0.240261 0.756214
vn 0.654123 0.151969 0.740965
vn 0.597061 0.722705 0.348159
vn -0.000000 0.465649 0.884970
vn 0.654123 0.151969 0.740965
vn 0.614644 0.315859 0.722804
vn 0.597061 0.722705 0.348159
vn 0.496109 0.789288 -0.361801
vn -0.496176 0.789253 -0.361787
vn 0.642243 0.535882 0.548046
vn -0.642157 0.535881 0.548149
vn 0.642243 0.535882 0.548046
vn -0.496176 0.789253 -0.361787
vn -0.614644 0.315859 0.722804
vn -0.654122 0.151969 0.740965
vn -0.597070 0.722686 0.348183
vn 0.597061 0.722705 0.348159
vn -0.597070 0.722686 0.348183
vn -0.000000 0.465649 0.884970
vn 0.496109 0.789288 -0.361801
vn 0.642243 0.535882 0.548046
vn 0.597061 0.722705 0.348159
vn -0.496176 0.789253 -0.361787
vn -0.597070 0.722686 0.348183
vn -0.642157 0.535881 0.548149
vn -0.597070 0.722686 0.348183
vn 0.597061 0.722705 0.348159
vn 0.642243 0.535882 0.548046
vn 0.642243 0.535882 0.548046
vn -0.642157 0.535881 0.548149
vn -0.597070 0.722686 0.348183
vn 0.000002 0.302800 -0.953054
vn -0.496176 0.789253 -0.361787
vn 0.496109 0.789288 -0.361801
vn 0.597061 0.722705 0.348159
vn 0.000002 0.302800 -0.953054
vn 0.496109 0.789288 -0.361801
vn 0.911324 -0.404031 -0.079045
vn 0.000002 0.302800 -0.953054
vn 0.921013 0.389369 0.011311
vn -0.000000 -0.318911 -0.947785
vn -0.911324 -0.404031 -0.079045
vn 0.000002 0.302800 -0.953054
vn -0.496176 0.789253 -0.361787
vn 0.000002 0.302800 -0.953054
vn -0.597070 0.722686 0.348183
s off
g GE_acc_caravan_objet
usemtl GE_acc_caravan_objetSG
f 6/27/1 20/23/2 7/28/3
f 20/22/4 1/21/5 7/12/6
f 1/21/7 5/20/8 8/15/9
f 8/15/10 5/20/11 9/17/12
f 3/24/13 6/27/14 10/26/15
f 7/12/16 8/15/17 10/13/18
f 7/12/19 1/21/20 8/15/21
f 8/15/22 12/18/23 11/16/24
f 8/15/25 9/17/26 12/18/27
f 3/24/28 10/26/29 13/25/30
f 10/13/31 8/15/32 13/14/33
f 13/14/34 8/15/35 11/16/36
f 11/2/37 15/8/38 14/4/39
f 11/2/40 12/7/41 15/8/42
f 3/32/43 13/29/44 16/33/45
f 13/1/46 14/4/47 16/3/48
f 13/1/49 11/2/50 14/4/51
f 14/4/52 18/10/53 17/9/54
f 14/4/55 15/8/56 18/10/57
f 6/34/58 16/33/59 19/30/60
f 16/3/61 14/4/62 19/5/63
f 19/5/64 14/4/65 17/9/66
f 4/11/67 18/10/68 2/6/69
f 6/34/70 19/30/71 4/31/72
f 19/5/73 17/9/74 4/11/75
f 2/6/76 18/10/77 12/7/78
f 5/20/79 2/19/80 12/18/81
f 9/17/82 5/20/83 12/18/84
f 12/7/85 18/10/86 15/8/87
f 5/20/88 20/22/89 2/19/90
f 5/20/91 1/21/92 20/22/93
f 23/42/94 22/43/95 24/46/96
f 21/47/97 24/46/98 22/43/99
f 17/9/100 18/10/101 4/11/102
f 20/45/103 4/48/104 2/44/105
f 23/38/106 24/35/107 20/37/108
f 22/39/109 4/41/110 21/36/111
f 4/48/112 20/45/113 24/46/114
f 24/46/115 21/47/116 4/48/117
f 6/40/118 22/39/119 23/38/120
f 20/37/121 6/40/122 23/38/123
f 10/26/124 6/27/125 7/28/126
f 3/32/127 16/33/128 6/34/129
f 22/39/130 6/40/131 4/41/132
