# This file uses meters as units for non-parametric coordinates.

mtllib ge_kmec_stick_a.max.fobj.mtl
g default
v -2.035486 -28.870377 -0.976173
v -1.381582 -28.870377 1.646492
v 1.314788 -28.870377 1.835041
v 2.327332 -28.870377 -0.671095
v 0.256749 -28.870377 -2.408521
v -2.035483 -24.303940 -0.976173
v -1.381580 -24.303943 1.646492
v 1.314790 -24.303943 1.835040
v 2.327335 -24.303943 -0.671096
v 0.256751 -24.303943 -2.408521
v -2.025351 3.079986 -0.988234
v -1.365249 3.079988 1.627046
v 1.324923 3.079984 1.822980
v 2.327440 3.079980 -0.671206
v 0.256857 3.079982 -2.408632
vt 0.259843 0.003922
vt 0.401575 0.003922
vt 0.401575 0.176471
vt 0.259843 0.176471
vt 0.118110 0.003922
vt 0.118110 0.176471
vt 0.645669 0.003922
vt 0.645669 0.176471
vt 0.527559 0.003922
vt 0.527559 0.176471
vt 0.000000 0.003922
vt 0.000000 0.176471
vt 0.000000 0.003922
vt 0.826772 0.607843
vt 0.740157 0.415686
vt 0.669291 0.533333
vt 0.929134 0.415686
vt 1.000000 0.537255
vt 0.401575 0.154731
vt 0.259843 0.154731
vt 0.118110 0.154731
vt 0.645669 0.154731
vt 0.527559 0.154731
vt 0.118110 0.765700
vt 0.645669 0.765700
vt 0.259843 0.765700
vt 0.527559 0.765700
vt 0.401575 0.765700
vt 0.000000 0.154731
vt 0.000000 0.765700
vt 0.000000 0.154731
vt 0.997955 0.538120
vt 0.837893 0.614142
vt 0.671704 0.538120
vt 0.735183 0.415114
vt 0.937540 0.415114
vn 0.000002 1.000000 -0.000001
vn 0.000001 1.000000 -0.000001
vn 0.000002 1.000000 -0.000001
vn 0.000002 1.000000 -0.000001
vn 0.000001 1.000000 -0.000001
vn 0.000001 1.000000 -0.000001
vn 0.000001 1.000000 -0.000001
vn 0.000001 1.000000 -0.000001
vn 0.000001 1.000000 -0.000001
vn -0.927184 0.000001 -0.374606
vn -0.642788 0.000000 0.766044
vn -0.927184 0.000001 -0.374607
vn -0.642788 0.000000 0.766044
vn -0.927184 0.000001 -0.374607
vn -0.642788 0.000000 0.766044
vn -0.642788 0.000000 0.766044
vn 0.529919 -0.000000 0.848048
vn -0.642788 0.000000 0.766044
vn 0.529919 -0.000000 0.848048
vn -0.642788 0.000000 0.766044
vn 0.529919 -0.000000 0.848048
vn 0.529919 -0.000000 0.848048
vn 0.970296 -0.000001 -0.241922
vn 0.529919 -0.000000 0.848048
vn 0.970296 -0.000001 -0.241922
vn 0.529919 -0.000000 0.848048
vn 0.970296 -0.000001 -0.241922
vn 0.970296 -0.000001 -0.241922
vn 0.069756 -0.000000 -0.997564
vn 0.970296 -0.000001 -0.241922
vn 0.069756 -0.000000 -0.997564
vn 0.970296 -0.000001 -0.241922
vn 0.069756 -0.000000 -0.997564
vn 0.069756 -0.000000 -0.997564
vn -0.927184 0.000001 -0.374606
vn 0.069756 -0.000000 -0.997564
vn -0.927184 0.000001 -0.374607
vn 0.069756 -0.000000 -0.997564
vn -0.927184 0.000001 -0.374606
vn 0.529669 0.000343 0.848204
vn 0.970283 -0.000107 -0.241975
vn 0.529579 0.000280 0.848260
vn 0.970078 -0.000005 -0.242793
vn 0.529579 0.000280 0.848260
vn 0.970283 -0.000107 -0.241975
vn -0.642718 0.000762 0.766102
vn 0.529669 0.000343 0.848204
vn -0.642718 0.000762 0.766103
vn 0.529579 0.000280 0.848260
vn -0.642718 0.000762 0.766103
vn 0.529669 0.000343 0.848204
vn 0.970283 -0.000107 -0.241975
vn 0.069755 -0.000004 -0.997564
vn 0.970078 -0.000005 -0.242793
vn 0.070596 -0.000107 -0.997505
vn 0.970078 -0.000005 -0.242793
vn 0.069755 -0.000004 -0.997564
vn -0.927240 0.000280 -0.374468
vn -0.642718 0.000762 0.766102
vn -0.927279 0.000344 -0.374371
vn -0.642718 0.000762 0.766103
vn -0.927279 0.000344 -0.374371
vn -0.642718 0.000762 0.766102
vn 0.069755 -0.000004 -0.997564
vn -0.927240 0.000280 -0.374468
vn 0.070596 -0.000107 -0.997505
vn -0.927279 0.000344 -0.374371
vn 0.070596 -0.000107 -0.997505
vn -0.927240 0.000280 -0.374468
vn -0.000000 -1.000000 -0.000000
vn -0.000000 -1.000000 -0.000000
vn -0.000000 -1.000000 -0.000000
vn -0.000000 -1.000000 -0.000000
vn -0.000000 -1.000000 -0.000000
vn -0.000000 -1.000000 -0.000000
vn -0.000000 -1.000000 -0.000000
vn -0.000000 -1.000000 -0.000000
vn -0.000000 -1.000000 -0.000000
s off
g GE_Kmec_stick_A
usemtl GE_Kmec_stick_ASG
f 14/15/1 12/14/2 13/16/3
f 14/15/4 15/17/5 12/14/6
f 11/18/7 12/14/8 15/17/9
f 1/2/10 2/1/11 6/3/12
f 7/4/13 6/3/14 2/1/15
f 2/1/16 3/5/17 7/4/18
f 8/6/19 7/4/20 3/5/21
f 3/5/22 4/11/23 8/6/24
f 9/12/25 8/6/26 4/13/27
f 4/7/28 5/9/29 9/8/30
f 10/10/31 9/8/32 5/9/33
f 5/9/34 1/2/35 10/10/36
f 6/3/37 10/10/38 1/2/39
f 8/21/40 9/29/41 13/24/42
f 14/30/43 13/24/44 9/31/45
f 7/20/46 8/21/47 12/26/48
f 13/24/49 12/26/50 8/21/51
f 9/22/52 10/23/53 14/25/54
f 15/27/55 14/25/56 10/23/57
f 6/19/58 7/20/59 11/28/60
f 12/26/61 11/28/62 7/20/63
f 10/23/64 6/19/65 15/27/66
f 11/28/67 15/27/68 6/19/69
f 3/32/70 2/33/71 1/34/72
f 3/32/73 1/34/74 5/35/75
f 3/32/76 5/35/77 4/36/78
