# This file uses meters as units for non-parametric coordinates.

mtllib ge_kbij_marteau_a.max.fobj.mtl
g default
v 10.433445 24.166100 -0.064525
v 3.732453 22.984535 2.284511
v 3.379196 24.987954 1.109993
v 3.379196 24.987952 -1.239044
v 3.732453 22.984535 -2.413562
v 4.085709 20.981115 -1.239043
v 4.085709 20.981115 1.109993
v 3.108276 22.874476 2.881870
v 2.665186 25.387364 1.408672
v 2.665186 25.387364 -1.537724
v 3.108274 22.874474 -3.010922
v 3.551365 20.361586 -1.537723
v 3.551365 20.361587 1.408673
v -2.931575 21.809486 4.732208
v -3.652926 25.900469 2.333841
v -3.652926 25.900469 -2.462892
v -2.931578 21.809486 -4.861258
v -2.210225 17.718504 -2.462892
v -2.210226 17.718505 2.333841
v -3.691379 21.675513 3.759704
v -4.266482 24.937078 1.847590
v -4.266482 24.937078 -1.976641
v -3.691379 21.675511 -3.888757
v -3.116278 18.413947 -1.976641
v -3.116278 18.413947 1.847590
v -10.367309 20.498365 4.754004
v -11.091938 24.607939 2.344739
v -11.091938 24.607939 -2.473792
v -10.367309 20.498365 -4.883057
v -9.642681 16.388792 -2.473791
v -9.642681 16.388793 2.344740
v -10.367309 20.498365 -0.064526
v -0.309638 -13.552410 -0.204468
v 1.092384 -12.703542 -0.204468
v 0.123611 -12.703542 -1.537871
v -1.443899 -12.703542 -1.028556
v -1.443898 -12.703542 0.619620
v 0.123611 -12.703542 1.128935
v 1.667214 -11.120346 -0.204468
v 0.301243 -11.120346 -2.084566
v -1.908945 -11.120346 -1.366433
v -1.908945 -11.120346 0.957497
v 0.301243 -11.120346 1.675630
v 1.092385 13.942759 -0.204467
v 0.123611 13.942759 -1.537870
v -1.443898 13.942759 -1.028556
v -1.443897 13.942759 0.619621
v 0.123612 13.942759 1.128936
v 0.650653 14.612730 -0.204468
v -0.012891 14.612730 -1.117757
v -1.086527 14.612730 -0.768912
v -1.086527 14.612730 0.359977
v -0.012892 14.612730 0.708822
v 1.203059 19.483809 -0.204468
v 0.157812 18.996403 -1.791852
v -1.533434 18.207762 -1.185525
v -1.533433 18.207762 0.776590
v 0.157812 18.996403 1.382917
vt 0.500000 -0.099765
vt 0.000000 -0.066645
vt 0.221140 -0.066645
vt 0.411339 -0.066645
vt 0.588661 -0.066645
vt 0.778860 -0.066645
vt 0.000000 -0.004874
vt 0.214850 -0.004874
vt 0.408285 -0.004874
vt 0.591715 -0.004874
vt 0.785150 -0.004875
vt 0.999999 0.972997
vt 0.221140 0.972997
vt 0.411340 0.972997
vt 0.588661 0.972997
vt 0.778860 0.972997
vt 0.999999 0.999136
vt 0.231271 0.999136
vt 0.415815 0.999136
vt 0.584186 0.999136
vt 0.768729 0.999136
vt -0.221140 -0.066645
vt -0.221140 -0.066645
vt -0.214850 -0.004875
vt -0.221140 -0.066645
vt -0.000001 0.972997
vt -0.214850 -0.004875
vt -0.000001 0.972997
vt -0.000001 0.972997
vt -0.000001 0.999136
vt -0.000001 0.972997
vt 0.904022 0.000490
vt 0.378246 0.321332
vt 0.766755 0.305265
vt 0.000500 0.321332
vt 0.233245 0.305265
vt 0.378247 0.289198
vt 0.534009 0.289198
vt 0.614680 0.642917
vt 0.250250 0.979510
vt 0.477926 0.946553
vt 0.301785 0.669074
vt 0.044647 0.979510
vt 0.006410 0.669074
vt 0.522074 0.946553
vt 0.385320 0.642917
vt 0.250250 0.913595
vt 0.301786 0.616760
vt 0.000500 0.913595
vt 0.235770 0.616760
vt 0.904022 0.000490
vt 0.999500 0.321332
vt 0.766755 0.305265
vt 0.500000 0.000490
vt 0.621753 0.321332
vt 0.095978 0.000490
vt 0.233245 0.305265
vt 0.095978 0.000490
vt 0.465991 0.289198
vt 0.500000 0.000490
vt 0.621753 0.289198
vt 0.614680 0.642917
vt 0.955353 0.979510
vt 0.477926 0.946553
vt 0.614680 0.642917
vt 0.993590 0.669074
vt 0.955353 0.979510
vt 0.301785 0.669074
vt 0.749750 0.979510
vt 0.698214 0.669074
vt 0.749750 0.979510
vt 0.006410 0.669074
vt 0.522074 0.946553
vt 0.385320 0.642917
vt 0.522074 0.946553
vt 0.385320 0.642917
vt 0.999500 0.913595
vt 0.764230 0.616760
vt 0.999500 0.913595
vt 0.301786 0.616760
vt 0.749750 0.913595
vt 0.698214 0.616760
vt 0.749750 0.913595
vt 0.235770 0.616760
vt 0.477926 0.946553
vt 0.420000 0.240000
vt 0.808500 0.240000
vt 0.614250 0.462000
vt 0.225750 0.462000
vt 0.031500 0.240000
vt 0.225750 0.018000
vt 0.614250 0.018000
vt 0.348090 0.070210
vt 0.442611 0.247413
vt 0.323800 0.148295
vt 0.449862 0.149233
vt 0.557389 0.247413
vt 0.550138 0.149233
vt 0.676200 0.148295
vt 0.651910 0.070210
vt 0.841930 0.049177
vt 0.786758 -0.008813
vt 0.158070 0.049177
vt 0.213242 -0.008813
vt 0.406282 1.065244
vt 0.237720 0.903880
vt 0.593718 1.065244
vt 0.762280 0.903880
vt 0.919537 0.742516
vt 0.080463 0.742516
vt 0.397771 1.127580
vt 0.225116 0.998931
vt 0.602229 1.127580
vt 0.774884 0.998931
vt 0.925149 0.870283
vt 0.074851 0.870283
vt -0.213242 -0.008813
vt -0.158070 0.049177
vt -0.213242 -0.008813
vt -0.158070 0.049177
vt -0.080463 0.742516
vt -0.158070 0.049177
vt -0.080463 0.742516
vt -0.074851 0.870283
vt -0.080463 0.742516
vt 0.500000 -0.016208
vt 0.701838 0.462933
vt 0.500000 0.516208
vt 0.702973 -0.016208
vt 0.930423 0.376734
vt 0.937772 -0.016208
vt 0.069577 0.376734
vt 0.062228 -0.016208
vt 0.298162 0.462933
vt 0.297027 -0.016208
vt -0.062228 -0.016208
vt -0.069577 0.376734
vt -0.062228 -0.016208
vn 0.198908 0.521511 0.829736
vn 0.198908 0.521511 0.829736
vn 0.198908 0.521511 0.829736
vn 0.115722 0.993282 -0.000000
vn 0.115722 0.993282 -0.000000
vn 0.115722 0.993282 -0.000000
vn 0.198908 0.521511 -0.829736
vn 0.198908 0.521511 -0.829736
vn 0.198908 0.521511 -0.829736
vn 0.365280 -0.422030 -0.829736
vn 0.694413 -0.499678 -0.517796
vn 0.612697 -0.036246 -0.789486
vn 0.448465 -0.893800 0.000000
vn 0.448465 -0.893800 0.000000
vn 0.448465 -0.893800 0.000000
vn 0.365279 -0.422030 0.829736
vn 0.365279 -0.422030 0.829736
vn 0.365279 -0.422030 0.829736
vn 0.675454 0.119101 0.727720
vn 0.331433 0.834067 0.441005
vn 0.464073 0.081829 0.882009
vn 0.675454 0.119101 0.727720
vn 0.566017 0.739751 0.363860
vn 0.331433 0.834067 0.441005
vn 0.566017 0.739751 0.363860
vn 0.331433 0.834067 -0.441005
vn 0.331433 0.834067 0.441005
vn 0.566017 0.739751 0.363860
vn 0.566017 0.739750 -0.363860
vn 0.331433 0.834067 -0.441005
vn 0.566017 0.739750 -0.363860
vn 0.464073 0.081828 -0.882010
vn 0.331433 0.834067 -0.441005
vn 0.566017 0.739750 -0.363860
vn 0.612697 -0.036246 -0.789486
vn 0.464073 0.081828 -0.882010
vn 0.612697 -0.036246 -0.789486
vn 0.596712 -0.670410 -0.441005
vn 0.464073 0.081828 -0.882010
vn 0.612697 -0.036246 -0.789486
vn 0.694413 -0.499678 -0.517796
vn 0.596712 -0.670410 -0.441005
vn 0.694413 -0.499678 -0.517796
vn 0.596712 -0.670410 0.441005
vn 0.596712 -0.670410 -0.441005
vn 0.694413 -0.499678 -0.517796
vn 0.784891 -0.501550 0.363860
vn 0.596712 -0.670410 0.441005
vn 0.784891 -0.501550 0.363860
vn 0.464073 0.081829 0.882009
vn 0.596712 -0.670410 0.441005
vn 0.784891 -0.501550 0.363860
vn 0.675454 0.119101 0.727720
vn 0.464073 0.081829 0.882009
vn 0.464073 0.081829 0.882009
vn -0.399138 0.779293 0.483106
vn -0.253835 -0.044758 0.966211
vn 0.464073 0.081829 0.882009
vn 0.331433 0.834067 0.441005
vn -0.399138 0.779293 0.483106
vn 0.331433 0.834067 0.441005
vn -0.399138 0.779293 -0.483106
vn -0.399138 0.779293 0.483106
vn 0.331433 0.834067 0.441005
vn 0.331433 0.834067 -0.441005
vn -0.399138 0.779293 -0.483106
vn 0.331433 0.834067 -0.441005
vn -0.253836 -0.044758 -0.966211
vn -0.399138 0.779293 -0.483106
vn 0.331433 0.834067 -0.441005
vn 0.464073 0.081828 -0.882010
vn -0.253836 -0.044758 -0.966211
vn 0.464073 0.081828 -0.882010
vn -0.108532 -0.868809 -0.483106
vn -0.253836 -0.044758 -0.966211
vn 0.464073 0.081828 -0.882010
vn 0.596712 -0.670410 -0.441005
vn -0.108532 -0.868809 -0.483106
vn 0.596712 -0.670410 -0.441005
vn -0.108533 -0.868809 0.483106
vn -0.108532 -0.868809 -0.483106
vn 0.596712 -0.670410 -0.441005
vn 0.596712 -0.670410 0.441005
vn -0.108533 -0.868809 0.483106
vn 0.596712 -0.670410 0.441005
vn -0.253835 -0.044758 0.966211
vn -0.108533 -0.868809 0.483106
vn 0.596712 -0.670410 0.441005
vn 0.464073 0.081829 0.882009
vn -0.253835 -0.044758 0.966211
vn -0.253835 -0.044758 0.966211
vn -0.864970 0.394028 0.310754
vn -0.771506 -0.136037 0.621508
vn -0.253835 -0.044758 0.966211
vn -0.399138 0.779293 0.483106
vn -0.864970 0.394028 0.310754
vn -0.399138 0.779293 0.483106
vn -0.864970 0.394028 -0.310754
vn -0.864970 0.394028 0.310754
vn -0.399138 0.779293 0.483106
vn -0.399138 0.779293 -0.483106
vn -0.864970 0.394028 -0.310754
vn -0.399138 0.779293 -0.483106
vn -0.771506 -0.136037 -0.621508
vn -0.864970 0.394028 -0.310754
vn -0.399138 0.779293 -0.483106
vn -0.253836 -0.044758 -0.966211
vn -0.771506 -0.136037 -0.621508
vn -0.253836 -0.044758 -0.966211
vn -0.678040 -0.666103 -0.310754
vn -0.771506 -0.136037 -0.621508
vn -0.253836 -0.044758 -0.966211
vn -0.108532 -0.868809 -0.483106
vn -0.678040 -0.666103 -0.310754
vn -0.108532 -0.868809 -0.483106
vn -0.678041 -0.666102 0.310754
vn -0.678040 -0.666103 -0.310754
vn -0.108532 -0.868809 -0.483106
vn -0.108533 -0.868809 0.483106
vn -0.678041 -0.666102 0.310754
vn -0.108533 -0.868809 0.483106
vn -0.771506 -0.136037 0.621508
vn -0.678041 -0.666102 0.310754
vn -0.108533 -0.868809 0.483106
vn -0.253835 -0.044758 0.966211
vn -0.771506 -0.136037 0.621508
vn 0.037966 0.510360 0.859122
vn -0.829948 0.165899 0.532601
vn -0.829948 0.165899 0.532601
vn 0.037966 0.510360 0.859122
vn 0.037966 0.510360 0.859122
vn -0.829948 0.165899 0.532601
vn -0.048166 0.998839 -0.000000
vn -0.048166 0.998839 -0.000000
vn -0.048166 0.998839 -0.000000
vn -0.048166 0.998839 -0.000000
vn -0.048166 0.998839 -0.000000
vn -0.048166 0.998839 -0.000000
vn 0.037966 0.510361 -0.859122
vn -0.829948 0.165899 -0.532601
vn -0.829948 0.165899 -0.532601
vn 0.037966 0.510361 -0.859122
vn 0.037966 0.510361 -0.859122
vn -0.829948 0.165899 -0.532601
vn 0.210230 -0.466597 -0.859122
vn 0.210230 -0.466597 -0.859122
vn 0.210230 -0.466597 -0.859122
vn 0.210230 -0.466597 -0.859122
vn 0.210230 -0.466597 -0.859122
vn 0.210230 -0.466597 -0.859122
vn 0.296362 -0.955076 0.000000
vn -0.669759 -0.742578 0.000000
vn -0.669759 -0.742578 0.000000
vn 0.296362 -0.955076 0.000000
vn 0.296362 -0.955076 0.000000
vn -0.669759 -0.742578 0.000000
vn 0.210230 -0.466597 0.859122
vn 0.210230 -0.466597 0.859122
vn 0.210230 -0.466597 0.859122
vn 0.210230 -0.466597 0.859122
vn 0.210230 -0.466597 0.859122
vn 0.210230 -0.466597 0.859122
vn -0.984808 -0.173648 -0.000000
vn -0.829948 0.165899 0.532601
vn -0.829948 0.165899 0.532601
vn -0.984808 -0.173648 -0.000000
vn -0.829948 0.165899 0.532601
vn -0.829948 0.165899 -0.532601
vn -0.984808 -0.173648 -0.000000
vn -0.829948 0.165899 -0.532601
vn -0.829948 0.165899 -0.532601
vn -0.984808 -0.173648 -0.000000
vn -0.829948 0.165899 -0.532601
vn -0.669759 -0.742578 0.000000
vn -0.984808 -0.173648 -0.000000
vn -0.669759 -0.742578 0.000000
vn -0.669759 -0.742578 0.000000
vn -0.984808 -0.173648 -0.000000
vn -0.669759 -0.742578 0.000000
vn -0.829948 0.165899 0.532601
vn 0.000000 -1.000000 0.000000
vn 0.252022 -0.578672 -0.775644
vn 0.815560 -0.578672 -0.000000
vn 0.000000 -1.000000 0.000000
vn -0.659802 -0.578672 -0.479374
vn 0.252022 -0.578672 -0.775644
vn 0.000000 -1.000000 0.000000
vn -0.659802 -0.578672 0.479374
vn -0.659802 -0.578672 -0.479374
vn 0.000000 -1.000000 0.000000
vn 0.252022 -0.578672 0.775644
vn -0.659802 -0.578672 0.479374
vn 0.000000 -1.000000 0.000000
vn 0.815560 -0.578672 -0.000000
vn 0.252022 -0.578672 0.775644
vn 0.815560 -0.578672 -0.000000
vn 0.305431 -0.151902 -0.940020
vn 0.988396 -0.151902 -0.000000
vn 0.815560 -0.578672 -0.000000
vn 0.252022 -0.578672 -0.775644
vn 0.305431 -0.151902 -0.940020
vn 0.252022 -0.578672 -0.775644
vn -0.799629 -0.151902 -0.580964
vn 0.305431 -0.151902 -0.940020
vn 0.252022 -0.578672 -0.775644
vn -0.659802 -0.578672 -0.479374
vn -0.799629 -0.151902 -0.580964
vn -0.659802 -0.578672 -0.479374
vn -0.799629 -0.151902 0.580965
vn -0.799629 -0.151902 -0.580964
vn -0.659802 -0.578672 -0.479374
vn -0.659802 -0.578672 0.479374
vn -0.799629 -0.151902 0.580965
vn -0.659802 -0.578672 0.479374
vn 0.305431 -0.151902 0.940020
vn -0.799629 -0.151902 0.580965
vn -0.659802 -0.578672 0.479374
vn 0.252022 -0.578672 0.775644
vn 0.305431 -0.151902 0.940020
vn 0.252022 -0.578672 0.775644
vn 0.988396 -0.151902 -0.000000
vn 0.305431 -0.151902 0.940020
vn 0.252022 -0.578672 0.775644
vn 0.815560 -0.578672 -0.000000
vn 0.988396 -0.151902 -0.000000
vn 0.988396 -0.151902 -0.000000
vn 0.297333 0.272383 -0.915096
vn 0.962189 0.272383 -0.000000
vn 0.988396 -0.151902 -0.000000
vn 0.305431 -0.151902 -0.940020
vn 0.297333 0.272383 -0.915096
vn 0.305431 -0.151902 -0.940020
vn -0.778427 0.272383 -0.565560
vn 0.297333 0.272383 -0.915096
vn 0.305431 -0.151902 -0.940020
vn -0.799629 -0.151902 -0.580964
vn -0.778427 0.272383 -0.565560
vn -0.799629 -0.151902 -0.580964
vn -0.778427 0.272383 0.565561
vn -0.778427 0.272383 -0.565560
vn -0.799629 -0.151902 -0.580964
vn -0.799629 -0.151902 0.580965
vn -0.778427 0.272383 0.565561
vn -0.799629 -0.151902 0.580965
vn 0.297333 0.272383 0.915096
vn -0.778427 0.272383 0.565561
vn -0.799629 -0.151902 0.580965
vn 0.305431 -0.151902 0.940020
vn 0.297333 0.272383 0.915096
vn 0.305431 -0.151902 0.940020
vn 0.962189 0.272383 -0.000000
vn 0.297333 0.272383 0.915096
vn 0.305431 -0.151902 0.940020
vn 0.988396 -0.151902 -0.000000
vn 0.962189 0.272383 -0.000000
vn 0.962189 0.272383 -0.000000
vn 0.257988 0.550453 -0.794005
vn 0.834866 0.550453 -0.000000
vn 0.962189 0.272383 -0.000000
vn 0.297333 0.272383 -0.915096
vn 0.257988 0.550453 -0.794005
vn 0.297333 0.272383 -0.915096
vn -0.675420 0.550454 -0.490722
vn 0.257988 0.550453 -0.794005
vn 0.297333 0.272383 -0.915096
vn -0.778427 0.272383 -0.565560
vn -0.675420 0.550454 -0.490722
vn -0.778427 0.272383 -0.565560
vn -0.675420 0.550454 0.490722
vn -0.675420 0.550454 -0.490722
vn -0.778427 0.272383 -0.565560
vn -0.778427 0.272383 0.565561
vn -0.675420 0.550454 0.490722
vn -0.778427 0.272383 0.565561
vn 0.257987 0.550454 0.794004
vn -0.675420 0.550454 0.490722
vn -0.778427 0.272383 0.565561
vn 0.297333 0.272383 0.915096
vn 0.257987 0.550454 0.794004
vn 0.297333 0.272383 0.915096
vn 0.834866 0.550453 -0.000000
vn 0.257987 0.550454 0.794004
vn 0.297333 0.272383 0.915096
vn 0.962189 0.272383 -0.000000
vn 0.834866 0.550453 -0.000000
vn 0.991953 -0.126244 0.009605
vn 0.502151 -0.139059 -0.853526
vn 0.992648 -0.120977 0.003926
vn 0.991953 -0.126244 0.009605
vn 0.313246 -0.162379 -0.935687
vn 0.502151 -0.139059 -0.853526
vn 0.313246 -0.162379 -0.935687
vn -0.729235 -0.162168 -0.664769
vn 0.502151 -0.139059 -0.853526
vn 0.313246 -0.162379 -0.935687
vn -0.802611 -0.166164 -0.572891
vn -0.729235 -0.162168 -0.664769
vn -0.802611 -0.166164 -0.572891
vn -0.725380 -0.167544 0.667647
vn -0.729235 -0.162168 -0.664769
vn -0.802611 -0.166164 -0.572891
vn -0.800743 -0.159868 0.577280
vn -0.725380 -0.167544 0.667647
vn -0.800743 -0.159868 0.577280
vn 0.508198 -0.153291 0.847488
vn -0.725380 -0.167544 0.667647
vn -0.800743 -0.159868 0.577280
vn 0.319143 -0.142167 0.936983
vn 0.508198 -0.153291 0.847488
vn 0.319143 -0.142167 0.936983
vn 0.992648 -0.120977 0.003926
vn 0.508198 -0.153291 0.847488
vn 0.319143 -0.142167 0.936983
vn 0.991953 -0.126244 0.009605
vn 0.992648 -0.120977 0.003926
s off
g GE_Kbij_Marteau_A
usemtl GE_Kbij_Marteau_ASG1
f 1/51/1 3/52/2 2/53/3
f 1/54/4 4/55/5 3/33/6
f 1/56/7 5/57/8 4/35/9
f 1/58/10 6/59/11 5/36/12
f 1/60/13 7/61/14 6/37/15
f 1/32/16 2/34/17 7/38/18
usemtl GE_Kbij_Marteau_ASG2
f 2/93/19 9/94/20 8/95/21
f 2/93/22 3/96/23 9/94/24
f 3/96/25 10/97/26 9/94/27
f 3/96/28 4/98/29 10/97/30
f 4/98/31 11/99/32 10/97/33
f 4/98/34 5/100/35 11/99/36
f 5/100/37 12/101/38 11/99/39
f 5/100/40 6/102/41 12/101/42
f 6/117/43 13/103/44 12/118/45
f 6/119/46 7/104/47 13/103/48
f 7/104/49 8/95/50 13/103/51
f 7/104/52 2/93/53 8/95/54
f 8/95/55 15/105/56 14/106/57
f 8/95/58 9/94/59 15/105/60
f 9/94/61 16/107/62 15/105/63
f 9/94/64 10/97/65 16/107/66
f 10/97/67 17/108/68 16/107/69
f 10/97/70 11/99/71 17/108/72
f 11/99/73 18/109/74 17/108/75
f 11/99/76 12/101/77 18/109/78
f 12/120/79 19/110/80 18/121/81
f 12/122/82 13/103/83 19/110/84
f 13/103/85 14/106/86 19/110/87
f 13/103/88 8/95/89 14/106/90
f 14/106/91 21/111/92 20/112/93
f 14/106/94 15/105/95 21/111/96
f 15/105/97 22/113/98 21/111/99
f 15/105/100 16/107/101 22/113/102
f 16/107/103 23/114/104 22/113/105
f 16/107/106 17/108/107 23/114/108
f 17/108/109 24/115/110 23/114/111
f 17/108/112 18/109/113 24/115/114
f 18/123/115 25/116/116 24/124/117
f 18/125/118 19/110/119 25/116/120
f 19/110/121 20/112/122 25/116/123
f 19/110/124 14/106/125 20/112/126
usemtl GE_Kbij_Marteau_ASG1
f 20/62/127 27/63/128 26/64/129
f 20/65/130 21/66/131 27/67/132
f 21/68/133 28/69/134 27/40/135
f 21/42/136 22/70/137 28/71/138
f 22/72/139 29/73/140 28/43/141
f 22/44/142 23/74/143 29/75/144
f 23/76/145 30/77/146 29/45/147
f 23/46/148 24/78/149 30/79/150
f 24/80/151 31/81/152 30/47/153
f 24/48/154 25/82/155 31/83/156
f 25/84/157 26/85/158 31/49/159
f 25/50/160 20/39/161 26/41/162
f 32/86/163 26/87/164 27/88/165
f 32/86/166 27/88/167 28/89/168
f 32/86/169 28/89/170 29/90/171
f 32/86/172 29/90/173 30/91/174
f 32/86/175 30/91/176 31/92/177
f 32/86/178 31/92/179 26/87/180
usemtl GE_Kbij_Marteau_ASG
f 33/1/181 35/3/182 34/2/183
f 33/1/184 36/4/185 35/3/186
f 33/1/187 37/5/188 36/4/189
f 33/1/190 38/6/191 37/5/192
f 33/1/193 34/2/194 38/22/195
f 34/2/196 40/8/197 39/7/198
f 34/2/199 35/3/200 40/8/201
f 35/3/202 41/9/203 40/8/204
f 35/3/205 36/4/206 41/9/207
f 36/4/208 42/10/209 41/9/210
f 36/4/211 37/5/212 42/10/213
f 37/5/214 43/11/215 42/10/216
f 37/5/217 38/6/218 43/11/219
f 38/23/220 39/7/221 43/24/222
f 38/25/223 34/2/224 39/7/225
f 39/7/226 45/13/227 44/26/228
f 39/7/229 40/8/230 45/13/231
f 40/8/232 46/14/233 45/13/234
f 40/8/235 41/9/236 46/14/237
f 41/9/238 47/15/239 46/14/240
f 41/9/241 42/10/242 47/15/243
f 42/10/244 48/16/245 47/15/246
f 42/10/247 43/11/248 48/16/249
f 43/11/250 44/12/251 48/16/252
f 43/27/253 39/7/254 44/28/255
f 44/29/256 50/18/257 49/30/258
f 44/31/259 45/13/260 50/18/261
f 45/13/262 51/19/263 50/18/264
f 45/13/265 46/14/266 51/19/267
f 46/14/268 52/20/269 51/19/270
f 46/14/271 47/15/272 52/20/273
f 47/15/274 53/21/275 52/20/276
f 47/15/277 48/16/278 53/21/279
f 48/16/280 49/17/281 53/21/282
f 48/16/283 44/12/284 49/17/285
usemtl GE_Kbij_Marteau_ASG2
f 49/126/286 55/127/287 54/128/288
f 49/126/289 50/129/290 55/127/291
f 50/129/292 56/130/293 55/127/294
f 50/129/295 51/131/296 56/130/297
f 51/136/298 57/132/299 56/137/300
f 51/138/301 52/133/302 57/132/303
f 52/133/304 58/134/305 57/132/306
f 52/133/307 53/135/308 58/134/309
f 53/135/310 54/128/311 58/134/312
f 53/135/313 49/126/314 54/128/315
