# This file uses meters as units for non-parametric coordinates.

mtllib ge_kcui_louche_a.max.fobj.mtl
g default
v -0.312113 10.227720 -1.624080
v -1.810727 10.301016 -0.123673
v 1.186501 10.154425 -0.123674
v -0.312113 10.227723 1.376732
v -10.218920 27.349088 -0.731513
v -10.733272 27.025181 -0.123671
v -9.704568 27.672991 -0.123671
v -10.218920 27.349085 0.484171
v -0.337605 11.015546 -0.731516
v -0.944721 11.045240 -0.123674
v -0.337605 11.015546 0.484168
v 0.269511 10.985854 -0.123674
v -4.591822 20.343995 -0.731515
v -5.154606 20.114328 -0.123672
v -4.591823 20.343995 0.484170
v -4.029039 20.573662 -0.123673
v -11.895373 33.115110 -0.168301
v -7.563591 31.724325 -6.933195
v -5.772653 37.302443 -3.550747
v -5.772653 37.302443 3.214148
v -7.563591 31.724328 6.596594
v -9.354529 26.146209 3.214145
v -9.354529 26.146212 -3.550750
v -10.645147 32.713705 -5.035131
v -9.356702 36.726740 -2.601714
v -9.356703 36.726740 2.265116
v -10.645147 32.713708 4.698530
v -11.933592 28.700674 2.265114
v -11.933593 28.700674 -2.601718
v -12.466016 33.298323 -0.168300
v 0.100792 -6.381930 -1.624082
v -1.397820 -6.308633 -0.123674
v 1.599406 -6.455225 -0.123676
v 0.100793 -6.381926 1.376732
vt 0.250000 0.000000
vt 0.000000 0.000000
vt 0.500000 0.000000
vt -0.250000 0.000000
vt 0.000000 0.000000
vt 0.000000 0.000000
vt 0.000000 0.000000
vt 0.000000 0.000000
vt 0.750000 1.000000
vt 0.500000 1.000000
vt 1.000000 1.000000
vt 0.750000 0.250000
vt 0.500000 0.250000
vt 0.250000 0.250000
vt 1.000000 0.250000
vt 0.500000 0.500000
vt 1.000000 0.583489
vt 0.000000 0.583490
vt 1.000000 0.583489
vt 0.000000 0.000000
vt 0.000000 0.000000
vt 1.000000 0.000000
vt 0.000000 0.000000
vt 0.000000 0.000000
vt 1.000000 0.000000
vt 0.500000 0.500000
vt 0.250000 1.500000
vt 0.000000 1.500000
vt 0.500000 1.500000
vt -0.250000 1.500000
vt 0.750000 0.000000
vt 0.750000 1.500000
vt 0.750000 1.500000
vt 0.250000 1.000000
vt 0.500000 0.250000
vt 0.000000 1.000000
vt 0.250000 0.250000
vt 0.500000 1.000000
vt 0.250000 0.250000
vt 0.250000 1.000000
vt 0.000000 0.250000
vt 1.000000 0.250000
vt 0.750000 0.250000
vt 0.750000 -0.500000
vt 1.000000 -0.500000
vt 0.250000 0.250000
vt 0.000000 0.250000
vt 0.000000 -0.500000
vt 0.250000 -0.500000
vt 0.500000 0.250000
vt 0.250000 -0.500000
vt 0.500000 -0.500000
vt 0.750000 0.250000
vt 0.500000 0.250000
vt 0.500000 -0.500000
vt 0.750000 -0.500000
vt 1.115556 1.250000
vt 0.648889 1.250000
vt 0.750000 1.000000
vt 1.000000 1.000000
vt 1.365556 1.250000
vt 0.898889 1.250000
vt 1.000000 1.000000
vt 1.250000 1.000000
vt 0.615556 1.250000
vt 0.148889 1.250000
vt 0.250000 1.000000
vt 0.500000 1.000000
vt 0.865556 1.250000
vt 0.398889 1.250000
vt 0.500000 1.000000
vt 0.750000 1.000000
vt 0.000000 1.000000
vt 1.000000 1.500000
vt 0.000000 1.500000
vt 1.000000 1.000000
vt 0.500000 0.500000
vt 0.000000 -0.221223
vt 1.000000 -0.221223
vt 0.500000 0.500000
vt 0.000000 -0.221223
vt 1.000000 -0.221223
vt 0.500000 0.500000
vt 0.000000 -0.221223
vt 1.000000 -0.221223
vt 0.500000 0.500000
vt 0.000000 -0.221223
vt 1.000000 -0.221223
vt 0.500000 0.500000
vt 0.000000 -0.221223
vt 1.000000 -0.221223
vt 0.000000 -0.221223
vt 1.000000 -0.221223
vt 0.000000 0.583490
vt 0.000000 0.000000
vt 1.000000 0.000000
vt 1.000000 0.583489
vt 0.000000 0.583490
vt 0.000000 0.000000
vt 1.000000 0.000000
vt 1.000000 0.583489
vt 0.000000 0.583490
vt 0.000000 0.000000
vt 1.000000 0.000000
vt 1.000000 0.583489
vt 0.000000 0.583490
vt 0.000000 0.000000
vt 1.000000 0.000000
vt 1.000000 0.583489
vt 0.000000 0.583490
vt 0.000000 0.000000
vt 1.000000 0.000000
vt 0.500000 0.500000
vt 1.000000 0.000000
vt 0.000000 0.000000
vt 0.500000 0.500000
vt 1.000000 0.000000
vt 0.500000 0.500000
vt 1.000000 0.000000
vt 0.000000 0.000000
vt 0.500000 0.500000
vt 1.000000 0.000000
vt 0.000000 0.000000
vt 0.500000 0.500000
vt 1.000000 0.000000
vn -0.048851 -0.998806 0.000001
vn -0.048851 -0.998806 0.000001
vn -0.048851 -0.998806 0.000001
vn -0.048850 -0.998806 0.000001
vn -0.048850 -0.998806 0.000001
vn -0.048850 -0.998806 0.000001
vn -0.532876 0.846193 0.000001
vn -0.532876 0.846194 0.000001
vn -0.532876 0.846193 0.000001
vn -0.532876 0.846193 0.000001
vn -0.532876 0.846193 0.000001
vn -0.532876 0.846193 0.000001
vn -0.536948 0.624813 -0.566829
vn -0.536948 0.624813 -0.566830
vn -0.536948 0.624813 -0.566829
vn -0.536949 0.624812 -0.566829
vn -0.536949 0.624812 -0.566829
vn -0.536949 0.624812 -0.566829
vn 0.211333 0.093394 -0.972942
vn -0.908385 -0.418130 0.002190
vn -0.844721 -0.535205 0.001041
vn -0.844721 -0.535205 0.001041
vn 0.045327 0.036578 -0.998302
vn 0.211333 0.093394 -0.972942
vn 0.045327 0.036578 -0.998302
vn -0.844721 -0.535205 0.001041
vn -0.778820 -0.627247 0.000498
vn -0.778820 -0.627247 0.000498
vn -0.039442 -0.033026 -0.998676
vn 0.045327 0.036578 -0.998302
vn -0.536948 0.624814 0.566828
vn -0.536948 0.624814 0.566828
vn -0.536948 0.624814 0.566828
vn -0.536948 0.624813 0.566829
vn -0.536948 0.624813 0.566829
vn -0.536948 0.624813 0.566829
vn -0.908385 -0.418130 0.002190
vn 0.208648 0.090710 0.973775
vn 0.043688 0.035379 0.998419
vn 0.043688 0.035379 0.998419
vn -0.844721 -0.535205 0.001041
vn -0.908385 -0.418130 0.002190
vn -0.844721 -0.535205 0.001041
vn 0.043688 0.035379 0.998419
vn -0.040190 -0.033814 0.998620
vn -0.040190 -0.033814 0.998620
vn -0.778820 -0.627247 0.000498
vn -0.844721 -0.535205 0.001041
vn 0.567113 0.625473 0.535879
vn 0.567113 0.625473 0.535879
vn 0.567113 0.625473 0.535879
vn 0.567111 0.625475 0.535880
vn 0.567111 0.625475 0.535880
vn 0.567111 0.625475 0.535880
vn 0.208648 0.090710 0.973775
vn 0.911257 0.411836 -0.001106
vn 0.856912 0.515462 -0.001001
vn 0.856912 0.515462 -0.001001
vn 0.043688 0.035379 0.998419
vn 0.208648 0.090710 0.973775
vn 0.043688 0.035379 0.998419
vn 0.856912 0.515462 -0.001001
vn 0.780391 0.625292 -0.000568
vn 0.780391 0.625292 -0.000568
vn -0.040190 -0.033814 0.998620
vn 0.043688 0.035379 0.998419
vn 0.567112 0.625473 -0.535881
vn 0.567112 0.625473 -0.535881
vn 0.567112 0.625473 -0.535881
vn 0.567112 0.625473 -0.535881
vn 0.567112 0.625473 -0.535881
vn 0.567112 0.625473 -0.535881
vn 0.911257 0.411836 -0.001106
vn 0.211333 0.093394 -0.972942
vn 0.045327 0.036578 -0.998302
vn 0.045327 0.036578 -0.998302
vn 0.856912 0.515462 -0.001001
vn 0.911257 0.411836 -0.001106
vn 0.856912 0.515462 -0.001001
vn 0.045327 0.036578 -0.998302
vn -0.039442 -0.033026 -0.998676
vn -0.039442 -0.033026 -0.998676
vn 0.780391 0.625292 -0.000568
vn 0.856912 0.515462 -0.001001
vn 0.707849 0.017597 -0.706145
vn 0.707849 0.017597 -0.706145
vn 0.707849 0.017597 -0.706145
vn 0.707849 0.017597 -0.706144
vn 0.707849 0.017597 -0.706144
vn 0.707849 0.017597 -0.706144
vn 0.707849 0.017597 0.706144
vn 0.707849 0.017597 0.706144
vn 0.707849 0.017597 0.706144
vn 0.707850 0.017597 0.706144
vn 0.707850 0.017597 0.706144
vn 0.707850 0.017597 0.706144
vn -0.707849 -0.017597 0.706144
vn -0.707849 -0.017597 0.706144
vn -0.707849 -0.017597 0.706144
vn -0.707849 -0.017597 0.706144
vn -0.707849 -0.017597 0.706144
vn -0.707849 -0.017597 0.706144
vn -0.707850 -0.017597 -0.706144
vn -0.707850 -0.017597 -0.706144
vn -0.707850 -0.017597 -0.706144
vn -0.707850 -0.017597 -0.706143
vn -0.707850 -0.017597 -0.706143
vn -0.707850 -0.017597 -0.706143
vn 0.952129 -0.305695 0.000000
vn 0.790076 -0.253666 0.558062
vn 0.642335 -0.713826 0.279031
vn 0.952129 -0.305695 0.000000
vn 0.642335 -0.713826 0.279031
vn 0.642335 -0.713826 -0.279031
vn 0.952129 -0.305695 0.000000
vn 0.642335 -0.713826 -0.279031
vn 0.790076 -0.253666 -0.558062
vn 0.952129 -0.305695 0.000000
vn 0.790076 -0.253666 -0.558062
vn 0.937817 0.206495 -0.279031
vn 0.952129 -0.305695 0.000000
vn 0.937817 0.206495 -0.279031
vn 0.937817 0.206495 0.279031
vn 0.952129 -0.305695 0.000000
vn 0.937817 0.206495 0.279031
vn 0.790076 -0.253666 0.558062
vn -0.481664 0.154645 -0.862604
vn -0.676513 0.217205 -0.703670
vn -0.490224 0.797429 -0.351835
vn -0.481664 0.154645 -0.862604
vn -0.490224 0.797429 -0.351835
vn -0.253298 0.865921 -0.431302
vn -0.253298 0.865921 -0.431302
vn -0.490224 0.797429 -0.351835
vn -0.490224 0.797429 0.351835
vn -0.253298 0.865921 -0.431302
vn -0.490224 0.797429 0.351835
vn -0.253298 0.865921 0.431302
vn -0.253298 0.865921 0.431302
vn -0.490224 0.797429 0.351835
vn -0.676513 0.217205 0.703670
vn -0.253298 0.865921 0.431302
vn -0.676513 0.217205 0.703670
vn -0.481664 0.154645 0.862604
vn -0.481664 0.154645 0.862604
vn -0.676513 0.217205 0.703670
vn -0.862803 -0.363019 0.351835
vn -0.481664 0.154645 0.862604
vn -0.862803 -0.363019 0.351835
vn -0.710029 -0.556630 0.431302
vn -0.710029 -0.556630 0.431302
vn -0.862803 -0.363019 0.351835
vn -0.862803 -0.363019 -0.351835
vn -0.710029 -0.556630 0.431302
vn -0.862803 -0.363019 -0.351835
vn -0.710029 -0.556630 -0.431302
vn -0.710029 -0.556630 -0.431302
vn -0.862803 -0.363019 -0.351835
vn -0.676513 0.217205 -0.703670
vn -0.710029 -0.556630 -0.431302
vn -0.676513 0.217205 -0.703670
vn -0.481664 0.154645 -0.862604
vn -0.952129 0.305695 -0.000000
vn -0.490224 0.797429 -0.351835
vn -0.676513 0.217205 -0.703670
vn -0.952129 0.305695 -0.000000
vn -0.490224 0.797429 0.351835
vn -0.490224 0.797429 -0.351835
vn -0.952129 0.305695 -0.000000
vn -0.676513 0.217205 0.703670
vn -0.490224 0.797429 0.351835
vn -0.952129 0.305695 -0.000000
vn -0.862803 -0.363019 0.351835
vn -0.676513 0.217205 0.703670
vn -0.952129 0.305695 -0.000000
vn -0.862803 -0.363019 -0.351835
vn -0.862803 -0.363019 0.351835
vn -0.952129 0.305695 -0.000000
vn -0.676513 0.217205 -0.703670
vn -0.862803 -0.363019 -0.351835
s off
g GE_Kcui_Louche_A
usemtl GE_Kcui_Louche_ASG3
f 31/75/1 33/73/2 34/76/3
f 34/76/4 32/74/5 31/75/6
usemtl GE_Kcui_Louche_ASG
f 5/5/7 6/6/8 8/8/9
f 8/8/10 7/7/11 5/5/12
usemtl GE_Kcui_Louche_ASG3
f 1/69/13 2/70/14 10/71/15
f 10/71/16 9/72/17 1/69/18
f 9/9/19 10/10/20 14/13/21
f 14/13/22 13/12/23 9/9/24
f 13/53/25 14/54/26 6/55/27
f 6/55/28 5/56/29 13/53/30
f 2/65/31 4/66/32 11/67/33
f 11/67/34 10/68/35 2/65/36
f 10/38/37 11/34/38 15/39/39
f 15/39/40 14/35/41 10/38/42
f 14/50/43 15/14/44 8/51/45
f 8/51/46 6/52/47 14/50/48
f 4/61/49 3/62/50 12/63/51
f 12/63/52 11/64/53 4/61/54
f 11/40/55 12/36/56 16/41/57
f 16/41/58 15/37/59 11/40/60
f 15/46/61 16/47/62 7/48/63
f 7/48/64 8/49/65 15/46/66
f 3/57/67 1/58/68 9/59/69
f 9/59/70 12/60/71 3/57/72
f 12/11/73 9/9/74 13/12/75
f 13/12/76 16/15/77 12/11/78
f 16/42/79 13/43/80 5/44/81
f 5/44/82 7/45/83 16/42/84
usemtl GE_Kcui_Louche_ASG2
f 1/1/85 3/3/86 33/29/87
f 33/29/88 31/27/89 1/1/90
f 3/3/91 4/31/92 34/32/93
f 34/33/94 33/29/95 3/3/96
f 4/4/97 2/2/98 32/28/99
f 32/28/100 34/30/101 4/4/102
f 2/2/103 1/1/104 31/27/105
f 31/27/106 32/28/107 2/2/108
usemtl GE_Kcui_Louche_ASG3
f 17/77/109 18/78/110 19/79/111
f 17/80/112 19/81/113 20/82/114
f 17/83/115 20/84/116 21/85/117
f 17/86/118 21/87/119 22/88/120
f 17/89/121 22/90/122 23/91/123
f 17/16/124 23/92/125 18/93/126
f 18/102/127 24/103/128 25/104/129
f 18/102/130 25/104/131 19/105/132
f 19/106/133 25/107/134 26/108/135
f 19/106/136 26/108/137 20/109/138
f 20/110/139 26/111/140 27/112/141
f 20/110/142 27/112/143 21/17/144
f 21/94/145 27/95/146 28/96/147
f 21/94/148 28/96/149 22/97/150
f 22/18/151 28/24/152 29/25/153
f 22/18/154 29/25/155 23/19/156
f 23/98/157 29/99/158 24/100/159
f 23/98/160 24/100/161 18/101/162
f 30/124/163 25/125/164 24/20/165
f 30/26/166 26/22/167 25/21/168
f 30/113/169 27/114/170 26/115/171
f 30/116/172 28/117/173 27/23/174
f 30/118/175 29/119/176 28/120/177
f 30/121/178 24/122/179 29/123/180
