# This file uses meters as units for non-parametric coordinates.

mtllib ge_kmar_roulette_a.max.fobj.mtl
g default
v -0.223378 10.673078 0.967097
v -0.926963 11.076196 0.653801
v -0.926964 11.076196 -1.015432
v -0.223378 10.673078 -1.325779
v 0.472277 11.076196 -1.015432
v 0.472277 11.076196 0.653800
v -1.216222 10.673078 0.393878
v -1.216222 10.673078 -0.752560
v 0.769466 10.673078 -0.752560
v 0.769466 10.673078 0.393878
v -0.223378 10.332688 1.723746
v -1.871499 10.332689 0.772203
v -1.871499 10.332689 -1.130884
v -0.223378 10.332689 -2.082428
v 1.424743 10.332689 -1.130884
v 1.424743 10.332689 0.772203
v -0.223378 -7.540871 2.085329
v -2.184642 -7.540871 0.952992
v -2.184642 -7.540871 -1.311681
v -0.223378 -7.540870 -2.444018
v 1.737887 -7.540871 -1.311681
v 1.737887 -7.540871 0.952992
v -0.223378 -9.113569 1.661853
v -1.817902 -9.113569 0.741254
v -1.817902 -9.113569 -1.099944
v -0.223378 -9.113569 -2.020542
v 1.371146 -9.113569 -1.099943
v 1.371146 -9.113569 0.741254
v -0.223378 -10.106519 -0.179345
v 0.472277 17.465073 1.544351
v -0.227343 17.465073 2.052655
v -0.926963 17.465073 1.544352
v -0.659732 17.465075 0.721899
v 0.205046 17.465075 0.721899
v 0.472277 13.735272 1.544350
v -0.227343 13.735272 2.052654
v -0.926963 13.735272 1.544351
v -0.659732 13.735272 0.721898
v 0.205046 13.735272 0.721898
v 0.472277 12.338989 1.411067
v -0.227343 11.925896 1.876105
v -0.926963 12.338989 1.411067
v -0.659732 13.007387 0.658618
v 0.205046 13.007387 0.658618
v -0.659732 11.990962 0.139946
v 0.205046 11.990960 0.139946
v -0.926964 17.465073 -1.905980
v -0.227343 17.465073 -2.414284
v 0.472277 17.465073 -1.905980
v 0.205046 17.465075 -1.083527
v -0.659733 17.465075 -1.083527
v -0.926964 13.735272 -1.905981
v -0.227343 13.735272 -2.414285
v 0.472277 13.735272 -1.905981
v 0.205046 13.735272 -1.083528
v -0.659733 13.735272 -1.083528
v -0.926963 12.338989 -1.772698
v -0.227343 11.925897 -2.237736
v 0.472277 12.338989 -1.772698
v 0.205045 13.007387 -1.020249
v -0.659732 13.007387 -1.020249
v 0.205045 11.990962 -0.501577
v -0.659732 11.990960 -0.501577
v -0.223312 17.295043 -0.971522
v -5.302093 17.295040 -0.179685
v -3.814552 13.703802 -0.179686
v -0.223312 12.216261 -0.179686
v 3.367929 13.703802 -0.179686
v 4.855469 17.295040 -0.179685
v 3.367928 20.886279 -0.179684
v -0.223313 22.373818 -0.179683
v -3.814553 20.886279 -0.179684
v -0.223312 17.295043 0.612152
vt 0.084677 0.370690
vt 0.370968 0.375000
vt 0.084677 0.370690
vt 0.370968 0.375000
vt 0.000000 0.500000
vt 0.500000 0.500000
vt 0.500000 0.500000
vt 0.000000 0.500000
vt 0.500000 0.500000
vt 0.500000 0.500000
vt 0.416176 -0.001020
vt 0.750000 0.274269
vt 0.624668 0.282845
vt 0.750000 -0.009596
vt 0.875332 0.282845
vt 0.083824 -0.001020
vt 0.118989 0.296722
vt 0.205457 0.012857
vt 0.381011 0.296722
vt 0.294543 0.012857
vt 0.750000 0.414954
vt 0.647511 0.391361
vt 0.852489 0.391361
vt 0.088838 0.353187
vt 0.411161 0.353187
vt 0.749242 0.525640
vt 0.563498 0.500246
vt 0.936502 0.500246
vt 0.157856 0.439296
vt 0.342144 0.439296
vt -0.250000 -0.009596
vt -0.124668 0.282845
vt -0.124668 0.282845
vt -0.124668 0.282845
vt -0.147511 0.391361
vt -0.124668 0.282845
vt -0.063498 0.500246
vt -0.147511 0.391361
vt -0.147511 0.391361
vt 0.061987 -0.001527
vt 0.250000 0.285758
vt 0.118268 0.288522
vt 0.250000 -0.004291
vt 0.381732 0.288522
vt 0.438013 -0.001527
vt 0.633086 0.292994
vt 0.673905 0.002946
vt 0.866914 0.292994
vt 0.826095 0.002946
vt 0.250000 0.427424
vt 0.112060 0.397829
vt 0.387940 0.397829
vt 0.635824 0.349943
vt 0.864176 0.349943
vt 0.254393 0.529809
vt 0.932098 0.500148
vt 0.567902 0.500148
vt 0.690684 0.431806
vt 0.809316 0.431806
vt -0.173905 0.002946
vt -0.133086 0.292994
vt -0.173905 0.002946
vt -0.133086 0.292994
vt -0.135824 0.349943
vt -0.133086 0.292994
vt -0.067902 0.500148
vt -0.135824 0.349943
vt -0.067902 0.500148
vt 0.140516 -0.070118
vt 0.314920 -0.024995
vt 0.281232 0.012441
vt 0.281232 0.177559
vt 0.314920 0.215419
vt 0.140516 0.260118
vt 0.926525 0.215419
vt 0.968260 0.177559
vt 0.968260 0.012441
vt 0.926525 -0.024994
vt 0.541424 0.141411
vt 0.541424 0.049014
vt 0.724745 0.141411
vt 0.724745 0.049014
vt -0.073475 0.215419
vt -0.031740 0.177559
vt -0.073475 -0.024994
vt -0.031740 0.012441
vt 0.617916 0.529735
vt 0.617916 0.000265
vt 0.000499 0.101385
vt 0.000500 0.428616
vt 0.999500 0.265000
vt 0.298025 0.000190
vt 0.298026 0.379810
vt 0.779610 0.307309
vt 0.779610 0.072691
vt 0.000390 0.190000
vt 0.750000 -0.222161
vt 0.906416 0.869840
vt 0.750000 0.869840
vt 0.906416 -0.222161
vt 0.093583 0.869840
vt 0.093584 -0.222161
vt 0.250000 0.869840
vt 0.250000 -0.222161
vt 0.406416 0.869840
vt 0.406416 -0.222161
vt 0.593583 0.869840
vt 0.593583 -0.222161
vt 0.906416 0.965926
vt 0.750000 0.965926
vt 0.093584 0.965926
vt 0.250000 0.965926
vt 0.406416 0.965926
vt 0.593584 0.965926
vt 0.500000 1.026591
vt -0.093584 -0.222161
vt -0.093584 0.869840
vt -0.093584 -0.222161
vt -0.093584 0.869840
vt -0.093584 0.965926
vt -0.093584 0.869840
vt -0.093584 0.965926
vt 0.370968 0.375000
vt 0.084677 0.370690
vt 0.000000 0.500000
vt 0.500000 0.500000
vt 0.370968 0.375000
vt 0.084677 0.370690
vt 0.000000 0.500000
vt 0.370968 0.375000
vt 0.084677 0.370690
vt 0.000000 0.500000
vt 0.500000 0.500000
vt 0.370968 0.375000
vt 0.084677 0.370690
vt 0.000000 0.500000
vt 0.500000 0.500000
vt 0.853200 0.853200
vt 0.500000 0.999501
vt 0.999500 0.500000
vt 0.853200 0.146800
vt 0.500000 0.000500
vt 0.146800 0.146800
vt 0.000499 0.500000
vt 0.146800 0.853200
vt 0.500000 0.500000
vn 0.000452 0.812008 0.583646
vn -0.748837 0.116673 0.652404
vn -0.579354 0.775158 0.251949
vn -0.748837 0.116673 0.652404
vn -0.579838 0.774897 -0.251640
vn -0.579354 0.775158 0.251949
vn -0.748837 0.116673 0.652404
vn -0.748816 0.111251 -0.653374
vn -0.579838 0.774897 -0.251640
vn -0.748816 0.111251 -0.653374
vn 0.000454 0.811354 -0.584555
vn -0.579838 0.774897 -0.251640
vn 0.000454 0.811354 -0.584555
vn 0.745928 0.123085 -0.654554
vn 0.575355 0.778707 -0.250165
vn 0.745928 0.123085 -0.654554
vn 0.574878 0.778961 0.250467
vn 0.575355 0.778707 -0.250165
vn 0.745928 0.123085 -0.654554
vn 0.745902 0.128510 0.653540
vn 0.574878 0.778961 0.250467
vn 0.745902 0.128510 0.653540
vn 0.000452 0.812008 0.583646
vn 0.574878 0.778961 0.250467
vn 0.000452 0.812008 0.583646
vn -0.757469 0.484755 0.437325
vn -0.000000 0.484754 0.874650
vn 0.000452 0.812008 0.583646
vn -0.579354 0.775158 0.251949
vn -0.757469 0.484755 0.437325
vn -0.579354 0.775158 0.251949
vn -0.757469 0.484755 -0.437325
vn -0.757469 0.484755 0.437325
vn -0.579354 0.775158 0.251949
vn -0.579838 0.774897 -0.251640
vn -0.757469 0.484755 -0.437325
vn -0.579838 0.774897 -0.251640
vn 0.000000 0.484755 -0.874650
vn -0.757469 0.484755 -0.437325
vn -0.579838 0.774897 -0.251640
vn 0.000454 0.811354 -0.584555
vn 0.000000 0.484755 -0.874650
vn 0.000454 0.811354 -0.584555
vn 0.757469 0.484755 -0.437325
vn 0.000000 0.484755 -0.874650
vn 0.000454 0.811354 -0.584555
vn 0.575355 0.778707 -0.250165
vn 0.757469 0.484755 -0.437325
vn 0.575355 0.778707 -0.250165
vn 0.757469 0.484755 0.437325
vn 0.757469 0.484755 -0.437325
vn 0.575355 0.778707 -0.250165
vn 0.574878 0.778961 0.250467
vn 0.757469 0.484755 0.437325
vn 0.574878 0.778961 0.250467
vn -0.000000 0.484754 0.874650
vn 0.757469 0.484755 0.437325
vn 0.574878 0.778961 0.250467
vn 0.000452 0.812008 0.583646
vn -0.000000 0.484754 0.874650
vn -0.000000 0.484754 0.874650
vn -0.860176 -0.116028 0.496623
vn -0.000000 -0.116028 0.993246
vn -0.000000 0.484754 0.874650
vn -0.757469 0.484755 0.437325
vn -0.860176 -0.116028 0.496623
vn -0.757469 0.484755 0.437325
vn -0.860176 -0.116028 -0.496623
vn -0.860176 -0.116028 0.496623
vn -0.757469 0.484755 0.437325
vn -0.757469 0.484755 -0.437325
vn -0.860176 -0.116028 -0.496623
vn -0.757469 0.484755 -0.437325
vn 0.000000 -0.116028 -0.993246
vn -0.860176 -0.116028 -0.496623
vn -0.757469 0.484755 -0.437325
vn 0.000000 0.484755 -0.874650
vn 0.000000 -0.116028 -0.993246
vn 0.000000 0.484755 -0.874650
vn 0.860176 -0.116028 -0.496623
vn 0.000000 -0.116028 -0.993246
vn 0.000000 0.484755 -0.874650
vn 0.757469 0.484755 -0.437325
vn 0.860176 -0.116028 -0.496623
vn 0.757469 0.484755 -0.437325
vn 0.860176 -0.116028 0.496623
vn 0.860176 -0.116028 -0.496623
vn 0.757469 0.484755 -0.437325
vn 0.757469 0.484755 0.437325
vn 0.860176 -0.116028 0.496623
vn 0.757469 0.484755 0.437325
vn -0.000000 -0.116028 0.993246
vn 0.860176 -0.116028 0.496623
vn 0.757469 0.484755 0.437325
vn -0.000000 0.484754 0.874650
vn -0.000000 -0.116028 0.993246
vn -0.000000 -0.116028 0.993246
vn -0.714403 -0.565248 0.412461
vn -0.000000 -0.565248 0.824921
vn -0.000000 -0.116028 0.993246
vn -0.860176 -0.116028 0.496623
vn -0.714403 -0.565248 0.412461
vn -0.860176 -0.116028 0.496623
vn -0.714403 -0.565247 -0.412461
vn -0.714403 -0.565248 0.412461
vn -0.860176 -0.116028 0.496623
vn -0.860176 -0.116028 -0.496623
vn -0.714403 -0.565247 -0.412461
vn -0.860176 -0.116028 -0.496623
vn 0.000000 -0.565247 -0.824921
vn -0.714403 -0.565247 -0.412461
vn -0.860176 -0.116028 -0.496623
vn 0.000000 -0.116028 -0.993246
vn 0.000000 -0.565247 -0.824921
vn 0.000000 -0.116028 -0.993246
vn 0.714403 -0.565247 -0.412461
vn 0.000000 -0.565247 -0.824921
vn 0.000000 -0.116028 -0.993246
vn 0.860176 -0.116028 -0.496623
vn 0.714403 -0.565247 -0.412461
vn 0.860176 -0.116028 -0.496623
vn 0.714403 -0.565248 0.412461
vn 0.714403 -0.565247 -0.412461
vn 0.860176 -0.116028 -0.496623
vn 0.860176 -0.116028 0.496623
vn 0.714403 -0.565248 0.412461
vn 0.860176 -0.116028 0.496623
vn -0.000000 -0.565248 0.824921
vn 0.714403 -0.565248 0.412461
vn 0.860176 -0.116028 0.496623
vn -0.000000 -0.116028 0.993246
vn -0.000000 -0.565248 0.824921
vn -0.000000 -0.565248 0.824921
vn -0.714403 -0.565248 0.412461
vn 0.000000 -1.000000 -0.000000
vn -0.714403 -0.565248 0.412461
vn -0.714403 -0.565247 -0.412461
vn 0.000000 -1.000000 -0.000000
vn -0.714403 -0.565247 -0.412461
vn 0.000000 -0.565247 -0.824921
vn 0.000000 -1.000000 -0.000000
vn 0.000000 -0.565247 -0.824921
vn 0.714403 -0.565247 -0.412461
vn 0.000000 -1.000000 -0.000000
vn 0.714403 -0.565247 -0.412461
vn 0.714403 -0.565248 0.412461
vn 0.000000 -1.000000 -0.000000
vn 0.714403 -0.565248 0.412461
vn -0.000000 -0.565248 0.824921
vn 0.000000 -1.000000 -0.000000
vn 0.763900 0.595694 0.248206
vn 0.000226 -0.047429 0.998875
vn 0.945604 -0.016568 0.324897
vn 0.763900 0.595694 0.248206
vn 0.000000 0.595694 0.803211
vn 0.000226 -0.047429 0.998875
vn 0.000000 0.595694 0.803211
vn -0.945780 -0.016470 0.324390
vn 0.000226 -0.047429 0.998875
vn 0.000000 0.595694 0.803211
vn -0.763899 0.595694 0.248207
vn -0.945780 -0.016470 0.324390
vn -0.763899 0.595694 0.248207
vn -0.595502 0.035051 -0.802589
vn -0.945780 -0.016470 0.324390
vn -0.763899 0.595694 0.248207
vn -0.472116 0.595695 -0.649811
vn -0.595502 0.035051 -0.802589
vn -0.472116 0.595695 -0.649811
vn 0.595171 0.035634 -0.802809
vn -0.595502 0.035051 -0.802589
vn -0.472116 0.595695 -0.649811
vn 0.472116 0.595695 -0.649811
vn 0.595171 0.035634 -0.802809
vn 0.472116 0.595695 -0.649811
vn 0.945604 -0.016568 0.324897
vn 0.595171 0.035634 -0.802809
vn 0.472116 0.595695 -0.649811
vn 0.763900 0.595694 0.248206
vn 0.945604 -0.016568 0.324897
vn 0.945604 -0.016568 0.324897
vn 0.011778 -0.372881 0.927804
vn 0.925920 -0.103002 0.363405
vn 0.945604 -0.016568 0.324897
vn 0.000226 -0.047429 0.998875
vn 0.011778 -0.372881 0.927804
vn 0.000226 -0.047429 0.998875
vn -0.929398 -0.090229 0.357881
vn 0.011778 -0.372881 0.927804
vn 0.000226 -0.047429 0.998875
vn -0.945780 -0.016470 0.324390
vn -0.929398 -0.090229 0.357881
vn -0.945780 -0.016470 0.324390
vn -0.633532 0.202430 -0.746766
vn -0.929398 -0.090229 0.357881
vn -0.945780 -0.016470 0.324390
vn -0.595502 0.035051 -0.802589
vn -0.633532 0.202430 -0.746766
vn -0.595502 0.035051 -0.802589
vn 0.631897 0.204982 -0.747455
vn -0.633532 0.202430 -0.746766
vn -0.595502 0.035051 -0.802589
vn 0.595171 0.035634 -0.802809
vn 0.631897 0.204982 -0.747455
vn 0.595171 0.035634 -0.802809
vn 0.925920 -0.103002 0.363405
vn 0.631897 0.204982 -0.747455
vn 0.595171 0.035634 -0.802809
vn 0.945604 -0.016568 0.324897
vn 0.925920 -0.103002 0.363405
vn 0.011778 -0.372881 0.927804
vn 0.019887 -0.564646 0.825094
vn 0.925920 -0.103002 0.363405
vn 0.945834 -0.096591 0.309949
vn 0.925920 -0.103002 0.363405
vn 0.019887 -0.564646 0.825094
vn -0.954228 -0.106573 0.279448
vn 0.019887 -0.564646 0.825094
vn 0.011778 -0.372881 0.927804
vn 0.011778 -0.372881 0.927804
vn -0.929398 -0.090229 0.357881
vn -0.954228 -0.106573 0.279448
vn -0.738541 0.576608 -0.349400
vn -0.954228 -0.106573 0.279448
vn -0.929398 -0.090229 0.357881
vn -0.929398 -0.090229 0.357881
vn -0.633532 0.202430 -0.746766
vn -0.738541 0.576608 -0.349400
vn 0.735743 0.575254 -0.357443
vn -0.738541 0.576608 -0.349400
vn -0.633532 0.202430 -0.746766
vn -0.633532 0.202430 -0.746766
vn 0.631897 0.204982 -0.747455
vn 0.735743 0.575254 -0.357443
vn 0.945834 -0.096591 0.309949
vn 0.735743 0.575254 -0.357443
vn 0.631897 0.204982 -0.747455
vn 0.631897 0.204982 -0.747455
vn 0.925920 -0.103002 0.363405
vn 0.945834 -0.096591 0.309949
vn -0.763899 0.595694 -0.248206
vn -0.000226 -0.047429 -0.998875
vn -0.945604 -0.016568 -0.324897
vn -0.763899 0.595694 -0.248206
vn 0.000000 0.595694 -0.803211
vn -0.000226 -0.047429 -0.998875
vn 0.000000 0.595694 -0.803211
vn 0.945780 -0.016470 -0.324390
vn -0.000226 -0.047429 -0.998875
vn 0.000000 0.595694 -0.803211
vn 0.763899 0.595694 -0.248206
vn 0.945780 -0.016470 -0.324390
vn 0.763899 0.595694 -0.248206
vn 0.595502 0.035050 0.802589
vn 0.945780 -0.016470 -0.324390
vn 0.763899 0.595694 -0.248206
vn 0.472116 0.595695 0.649811
vn 0.595502 0.035050 0.802589
vn 0.472116 0.595695 0.649811
vn -0.595171 0.035634 0.802809
vn 0.595502 0.035050 0.802589
vn 0.472116 0.595695 0.649811
vn -0.472116 0.595695 0.649811
vn -0.595171 0.035634 0.802809
vn -0.472116 0.595695 0.649811
vn -0.945604 -0.016568 -0.324897
vn -0.595171 0.035634 0.802809
vn -0.472116 0.595695 0.649811
vn -0.763899 0.595694 -0.248206
vn -0.945604 -0.016568 -0.324897
vn -0.945604 -0.016568 -0.324897
vn -0.012709 -0.374084 -0.927308
vn -0.925786 -0.103988 -0.363466
vn -0.945604 -0.016568 -0.324897
vn -0.000226 -0.047429 -0.998875
vn -0.012709 -0.374084 -0.927308
vn -0.000226 -0.047429 -0.998875
vn 0.929397 -0.090229 -0.357882
vn -0.012709 -0.374084 -0.927308
vn -0.000226 -0.047429 -0.998875
vn 0.945780 -0.016470 -0.324390
vn 0.929397 -0.090229 -0.357882
vn 0.945780 -0.016470 -0.324390
vn 0.633532 0.202430 0.746766
vn 0.929397 -0.090229 -0.357882
vn 0.945780 -0.016470 -0.324390
vn 0.595502 0.035050 0.802589
vn 0.633532 0.202430 0.746766
vn 0.595502 0.035050 0.802589
vn -0.631898 0.204981 0.747454
vn 0.633532 0.202430 0.746766
vn 0.595502 0.035050 0.802589
vn -0.595171 0.035634 0.802809
vn -0.631898 0.204981 0.747454
vn -0.595171 0.035634 0.802809
vn -0.925786 -0.103988 -0.363466
vn -0.631898 0.204981 0.747454
vn -0.595171 0.035634 0.802809
vn -0.945604 -0.016568 -0.324897
vn -0.925786 -0.103988 -0.363466
vn -0.012709 -0.374084 -0.927308
vn -0.014664 -0.564653 -0.825198
vn -0.925786 -0.103988 -0.363466
vn -0.944714 -0.098122 -0.312870
vn -0.925786 -0.103988 -0.363466
vn -0.014664 -0.564653 -0.825198
vn 0.954229 -0.106098 -0.279626
vn -0.014664 -0.564653 -0.825198
vn -0.012709 -0.374084 -0.927308
vn -0.012709 -0.374084 -0.927308
vn 0.929397 -0.090229 -0.357882
vn 0.954229 -0.106098 -0.279626
vn 0.738541 0.576608 0.349401
vn 0.954229 -0.106098 -0.279626
vn 0.929397 -0.090229 -0.357882
vn 0.929397 -0.090229 -0.357882
vn 0.633532 0.202430 0.746766
vn 0.738541 0.576608 0.349401
vn -0.735743 0.575253 0.357443
vn 0.738541 0.576608 0.349401
vn 0.633532 0.202430 0.746766
vn 0.633532 0.202430 0.746766
vn -0.631898 0.204981 0.747454
vn -0.735743 0.575253 0.357443
vn -0.944714 -0.098122 -0.312870
vn -0.735743 0.575253 0.357443
vn -0.631898 0.204981 0.747454
vn -0.631898 0.204981 0.747454
vn -0.925786 -0.103988 -0.363466
vn -0.944714 -0.098122 -0.312870
vn -0.735743 0.575253 0.357443
vn -0.944714 -0.098122 -0.312870
vn -0.954228 -0.106573 0.279448
vn -0.954228 -0.106573 0.279448
vn -0.738541 0.576608 -0.349400
vn -0.735743 0.575253 0.357443
vn 0.738541 0.576608 0.349401
vn -0.735743 0.575253 0.357443
vn -0.738541 0.576608 -0.349400
vn -0.738541 0.576608 -0.349400
vn 0.735743 0.575254 -0.357443
vn 0.738541 0.576608 0.349401
vn 0.954229 -0.106098 -0.279626
vn 0.738541 0.576608 0.349401
vn 0.735743 0.575254 -0.357443
vn 0.735743 0.575254 -0.357443
vn 0.945834 -0.096591 0.309949
vn 0.954229 -0.106098 -0.279626
vn 0.763899 0.595694 -0.248206
vn -0.763899 0.595694 -0.248206
vn -0.472116 0.595695 0.649811
vn -0.472116 0.595695 0.649811
vn 0.472116 0.595695 0.649811
vn 0.763899 0.595694 -0.248206
vn -0.763899 0.595694 -0.248206
vn 0.763899 0.595694 -0.248206
vn 0.000000 0.595694 -0.803211
vn -0.763899 0.595694 0.248207
vn 0.763900 0.595694 0.248206
vn 0.472116 0.595695 -0.649811
vn 0.472116 0.595695 -0.649811
vn -0.472116 0.595695 -0.649811
vn -0.763899 0.595694 0.248207
vn 0.763900 0.595694 0.248206
vn -0.763899 0.595694 0.248207
vn 0.000000 0.595694 0.803211
vn -0.153737 -0.063680 -0.986058
vn -0.153737 -0.063680 -0.986058
vn -0.153737 -0.063680 -0.986058
vn -0.063680 -0.153737 -0.986058
vn -0.063680 -0.153737 -0.986058
vn -0.063680 -0.153737 -0.986058
vn 0.063680 -0.153737 -0.986058
vn 0.063680 -0.153737 -0.986058
vn 0.063680 -0.153737 -0.986058
vn 0.153737 -0.063680 -0.986058
vn 0.153737 -0.063680 -0.986058
vn 0.153737 -0.063680 -0.986058
vn 0.153737 0.063680 -0.986058
vn 0.153737 0.063680 -0.986058
vn 0.153737 0.063680 -0.986058
vn 0.063680 0.153738 -0.986058
vn 0.063680 0.153738 -0.986058
vn 0.063680 0.153738 -0.986058
vn -0.063680 0.153738 -0.986058
vn -0.063680 0.153738 -0.986058
vn -0.063680 0.153738 -0.986058
vn -0.153737 0.063680 -0.986058
vn -0.153737 0.063680 -0.986058
vn -0.153737 0.063680 -0.986058
vn -0.153737 -0.063680 0.986058
vn -0.153737 -0.063680 0.986058
vn -0.153737 -0.063680 0.986058
vn -0.063680 -0.153737 0.986058
vn -0.063680 -0.153737 0.986058
vn -0.063680 -0.153737 0.986058
vn 0.063680 -0.153737 0.986058
vn 0.063680 -0.153737 0.986058
vn 0.063680 -0.153737 0.986058
vn 0.153737 -0.063680 0.986058
vn 0.153737 -0.063680 0.986058
vn 0.153737 -0.063680 0.986058
vn 0.153737 0.063680 0.986058
vn 0.153737 0.063680 0.986058
vn 0.153737 0.063680 0.986058
vn 0.063680 0.153737 0.986058
vn 0.063680 0.153737 0.986058
vn 0.063680 0.153737 0.986058
vn -0.063680 0.153737 0.986058
vn -0.063680 0.153737 0.986058
vn -0.063680 0.153737 0.986058
vn -0.153737 0.063680 0.986058
vn -0.153737 0.063680 0.986058
vn -0.153737 0.063680 0.986058
s off
g GE_Kmar_roulette_A
usemtl GE_Kmar_roulette_ASG
f 1/69/1 2/70/2 7/71/3
f 2/70/4 8/72/5 7/71/6
f 2/70/7 3/73/8 8/72/9
f 3/73/10 4/74/11 8/72/12
f 4/74/13 5/83/14 9/84/15
f 5/75/16 10/77/17 9/76/18
f 5/75/19 6/78/20 10/77/21
f 6/85/22 1/69/23 10/86/24
f 1/123/25 12/125/26 11/126/27
f 1/123/28 7/124/29 12/125/30
f 7/127/31 13/129/32 12/6/33
f 7/127/34 8/128/35 13/129/36
f 8/2/37 14/8/38 13/7/39
f 8/2/40 4/3/41 14/8/42
f 4/130/43 15/132/44 14/133/45
f 4/130/46 9/131/47 15/132/48
f 9/134/49 16/136/50 15/9/51
f 9/134/52 10/135/53 16/136/54
f 10/4/55 11/5/56 16/10/57
f 10/4/58 1/1/59 11/5/60
f 11/97/61 18/98/62 17/99/63
f 11/97/64 12/100/65 18/98/66
f 12/116/67 19/101/68 18/117/69
f 12/118/70 13/102/71 19/101/72
f 13/102/73 20/103/74 19/101/75
f 13/102/76 14/104/77 20/103/78
f 14/104/79 21/105/80 20/103/81
f 14/104/82 15/106/83 21/105/84
f 15/106/85 22/107/86 21/105/87
f 15/106/88 16/108/89 22/107/90
f 16/108/91 17/99/92 22/107/93
f 16/108/94 11/97/95 17/99/96
f 17/99/97 24/109/98 23/110/99
f 17/99/100 18/98/101 24/109/102
f 18/119/103 25/111/104 24/120/105
f 18/121/106 19/101/107 25/111/108
f 19/101/109 26/112/110 25/111/111
f 19/101/112 20/103/113 26/112/114
f 20/103/115 27/113/116 26/112/117
f 20/103/118 21/105/119 27/113/120
f 21/105/121 28/114/122 27/113/123
f 21/105/124 22/107/125 28/114/126
f 22/107/127 23/110/128 28/114/129
f 22/107/130 17/99/131 23/110/132
f 23/110/133 24/109/134 29/115/135
f 24/122/136 25/111/137 29/115/138
f 25/111/139 26/112/140 29/115/141
f 26/112/142 27/113/143 29/115/144
f 27/113/145 28/114/146 29/115/147
f 28/114/148 23/110/149 29/115/150
f 30/11/151 36/12/152 35/13/153
f 30/11/154 31/14/155 36/12/156
f 31/14/157 37/15/158 36/12/159
f 31/31/160 32/16/161 37/32/162
f 32/16/163 38/17/164 37/33/165
f 32/16/166 33/18/167 38/17/168
f 33/18/169 39/19/170 38/17/171
f 33/18/172 34/20/173 39/19/174
f 34/20/175 35/13/176 39/19/177
f 34/20/178 30/11/179 35/13/180
f 35/13/181 41/21/182 40/22/183
f 35/13/184 36/12/185 41/21/186
f 36/12/187 42/23/188 41/21/189
f 36/12/190 37/15/191 42/23/192
f 37/34/193 43/24/194 42/35/195
f 37/36/196 38/17/197 43/24/198
f 38/17/199 44/25/200 43/24/201
f 38/17/202 39/19/203 44/25/204
f 39/19/205 40/22/206 44/25/207
f 39/19/208 35/13/209 40/22/210
f 41/21/211 1/26/212 40/22/213
f 6/27/214 40/22/215 1/26/216
f 2/28/217 1/26/218 41/21/219
f 41/21/220 42/23/221 2/28/222
f 45/29/223 2/37/224 42/38/225
f 42/39/226 43/24/227 45/29/228
f 46/30/229 45/29/230 43/24/231
f 43/24/232 44/25/233 46/30/234
f 6/27/235 46/30/236 44/25/237
f 44/25/238 40/22/239 6/27/240
f 47/40/241 53/41/242 52/42/243
f 47/40/244 48/43/245 53/41/246
f 48/43/247 54/44/248 53/41/249
f 48/43/250 49/45/251 54/44/252
f 49/45/253 55/46/254 54/44/255
f 49/45/256 50/47/257 55/46/258
f 50/47/259 56/48/260 55/46/261
f 50/47/262 51/49/263 56/48/264
f 51/60/265 52/42/266 56/61/267
f 51/62/268 47/40/269 52/42/270
f 52/42/271 58/50/272 57/51/273
f 52/42/274 53/41/275 58/50/276
f 53/41/277 59/52/278 58/50/279
f 53/41/280 54/44/281 59/52/282
f 54/44/283 60/53/284 59/52/285
f 54/44/286 55/46/287 60/53/288
f 55/46/289 61/54/290 60/53/291
f 55/46/292 56/48/293 61/54/294
f 56/63/295 57/51/296 61/64/297
f 56/65/298 52/42/299 57/51/300
f 58/50/301 4/55/302 57/51/303
f 3/66/304 57/51/305 4/55/306
f 5/57/307 4/55/308 58/50/309
f 58/50/310 59/52/311 5/57/312
f 62/58/313 5/57/314 59/52/315
f 59/52/316 60/53/317 62/58/318
f 63/59/319 62/58/320 60/53/321
f 60/53/322 61/54/323 63/59/324
f 3/56/325 63/59/326 61/54/327
f 61/67/328 57/51/329 3/68/330
f 63/79/331 3/73/332 2/70/333
f 2/70/334 45/80/335 63/79/336
f 62/81/337 63/79/338 45/80/339
f 45/80/340 46/82/341 62/81/342
f 5/75/343 62/81/344 46/82/345
f 46/82/346 6/78/347 5/75/348
f 49/92/349 47/93/350 51/94/351
f 51/94/352 50/95/353 49/92/354
f 47/93/355 49/92/356 48/96/357
f 32/87/358 30/88/359 34/89/360
f 34/89/361 33/90/362 32/87/363
f 30/88/364 32/87/365 31/91/366
usemtl GE_Kmar_roulette_ASG2
f 64/137/367 66/138/368 65/139/369
f 64/137/370 67/140/371 66/138/372
f 64/137/373 68/141/374 67/140/375
f 64/137/376 69/142/377 68/141/378
f 64/137/379 70/143/380 69/142/381
f 64/137/382 71/144/383 70/143/384
f 64/137/385 72/145/386 71/144/387
f 64/137/388 65/139/389 72/145/390
f 65/139/391 66/138/392 73/146/393
f 66/138/394 67/140/395 73/146/396
f 67/140/397 68/141/398 73/146/399
f 68/141/400 69/142/401 73/146/402
f 69/142/403 70/143/404 73/146/405
f 70/143/406 71/144/407 73/146/408
f 71/144/409 72/145/410 73/146/411
f 72/145/412 65/139/413 73/146/414
