# This file uses meters as units for non-parametric coordinates.

mtllib ge_kwj_ciseau_a.max.fobj.mtl
g default
v -1.404147 33.424585 -0.307978
v -1.616949 30.579470 -0.277270
v -1.819824 25.567962 -0.338466
v -2.103493 19.329385 -0.386120
v -2.396497 12.909505 -0.474151
v -2.714411 7.801196 -0.531929
v -0.736822 33.728946 -0.307977
v -1.293013 7.991211 -0.291118
v -1.316619 7.723512 -0.358531
v 0.050165 33.728945 -0.307977
v 0.930293 30.579477 -0.277269
v 1.081644 25.567959 -0.338465
v 1.416837 19.329386 -0.386120
v 1.709842 12.909508 -0.474150
v 0.607264 7.991214 -0.294735
v 0.629634 7.723511 -0.362735
v 0.717491 33.443187 -0.307977
v 2.027755 7.801199 -0.537642
v -1.404148 34.822398 0.555723
v -1.616949 30.579472 0.526018
v -1.819824 25.567959 0.587925
v -2.103493 19.329385 0.636586
v -2.396498 12.909506 0.725473
v -2.714411 7.801196 0.783511
v -0.736822 35.126756 0.555723
v -1.293013 7.991210 0.541644
v -1.316619 7.723511 0.609535
v 0.050165 35.126758 0.555723
v 0.930293 30.579476 0.526019
v 1.081644 25.567959 0.587925
v 1.416837 19.329387 0.636586
v 1.709842 12.909507 0.725474
v 0.607263 7.991213 0.541645
v 0.629634 7.723511 0.609536
v 0.717491 34.822397 0.555723
v 2.027755 7.801198 0.783512
v 1.405713 7.449710 0.048913
v 0.587644 7.449709 1.947607
v -1.048492 7.449710 1.947607
v -1.866561 7.449712 0.048912
v -1.048492 7.449712 -1.849781
v 0.587645 7.449710 -1.849781
v 1.840271 -9.673689 0.048909
v 0.804923 -9.673695 2.451896
v -1.265772 -9.673690 2.451896
v -2.301119 -9.673690 0.048909
v -1.265771 -9.673689 -2.354078
v 0.804924 -9.673694 -2.354078
v 1.335437 -10.937279 0.048909
v 0.552506 -10.937280 1.866050
v -1.013355 -10.937277 1.866050
v -1.796286 -10.937280 0.048908
v -1.013354 -10.937279 -1.768232
v 0.552507 -10.937279 -1.768231
v 0.394786 -11.480485 0.048909
v 0.082181 -11.480485 0.774448
v -0.543029 -11.480485 0.774448
v -0.855634 -11.480485 0.048908
v -0.543029 -11.480485 -0.676631
v 0.082181 -11.480484 -0.676631
vt 1.000000 1.000000
vt 1.000000 0.825330
vt 1.000000 0.573365
vt 1.000000 0.346255
vt 1.000000 0.157022
vt 1.000000 0.000000
vt 0.661800 0.074194
vt 0.961071 0.012704
vt 0.750000 1.000000
vt 0.750000 0.825330
vt 0.750000 0.573365
vt 0.750000 0.346255
vt 0.750000 0.157022
vt 0.750000 0.000000
vt 0.956205 0.003226
vt 0.812326 0.079413
vt 0.158151 0.003226
vt 0.000000 0.821563
vt 0.000000 0.000000
vt 0.748768 0.000000
vt 0.750000 1.000000
vt 0.000000 1.000000
vt 0.000000 0.833589
vt 0.250000 1.000000
vt 0.750000 0.657721
vt 0.750000 0.833589
vt 0.000000 0.657721
vt 0.750000 0.420904
vt 0.000000 0.421883
vt 0.750000 0.174670
vt 0.000000 0.174670
vt 0.524479 0.006954
vt 0.224433 0.006954
vt 0.500000 1.000000
vt 0.750000 1.000000
vt 1.000000 0.000000
vt 0.750000 0.000000
vt 0.750000 0.174670
vt 1.000000 0.426635
vt 1.000000 0.174670
vt 0.750000 0.426635
vt 1.000000 0.653745
vt 0.750000 0.653745
vt 1.000000 0.842978
vt 0.750000 0.842978
vt 1.000000 1.000000
vt 0.000000 1.000000
vt 0.752053 0.000000
vt 0.000000 0.000000
vt 0.750000 1.000000
vt 0.250000 1.000000
vt 0.750000 0.870996
vt 0.000000 0.872879
vt 0.750000 0.690891
vt 0.000000 0.683358
vt 0.750000 0.435211
vt 0.000000 0.437095
vt 0.750000 0.195138
vt 0.000000 0.193254
vt 0.540900 0.000000
vt 0.209100 0.000000
vt 0.438430 1.000000
vt 1.000000 1.000000
vt 0.000000 1.000000
vt 0.314533 1.000000
vt 0.685467 0.821563
vt 0.314533 0.821563
vt 0.685467 1.000000
vt 1.000000 0.821563
vt 0.991150 0.469027
vt 0.747787 -0.119469
vt 1.000000 -0.119469
vt 1.000000 -0.119469
vt 0.738937 0.469027
vt 1.000000 -0.119469
vt 0.738937 0.469027
vt 0.991150 0.469027
vt 0.747787 -0.119469
vt 1.000000 -0.119469
vt 1.000000 -0.119469
vt 0.738937 0.469027
vt 0.991150 0.469027
vt 0.747787 -0.119469
vt 0.991150 0.469027
vt 0.747787 -0.119469
vt 0.991150 0.469027
vt 0.747787 -0.119469
vt 0.991150 0.469027
vt 0.747787 -0.119469
vt 1.000000 -0.119469
vt 0.738937 0.469027
vt 0.233577 0.087097
vt 0.209246 0.003226
vt 0.542579 0.003226
vt 0.523114 0.083871
vt 0.226277 0.151613
vt 0.542579 -0.001613
vt 0.508516 0.154839
vt 0.204380 -0.001613
vt 0.019465 0.074194
vt 0.014599 -0.003226
vt 0.109489 0.064516
vt 0.794503 0.011393
vt 0.941606 0.079032
vt 0.705596 0.001613
vt 0.939172 0.070968
vt 0.961071 0.001613
vt 0.729927 0.069355
vt 0.917274 0.072581
vt 0.605839 0.003226
vt 0.163489 -0.010485
vt 0.998712 -0.010485
vt 0.828267 -0.010486
vt 0.663489 -0.010486
vt 0.498711 -0.010486
vt 0.328267 -0.010486
vt 0.163489 0.820782
vt 0.998711 0.820783
vt 0.828267 0.820782
vt 0.663489 0.820782
vt 0.498711 0.820782
vt 0.328267 0.820783
vt 0.163489 0.941251
vt 0.998711 0.941251
vt 0.828267 0.941251
vt 0.663489 0.941251
vt 0.498711 0.941251
vt 0.328267 0.941251
vt 0.163489 0.993040
vt 0.998712 0.993040
vt 0.828267 0.993040
vt 0.663489 0.993040
vt 0.498711 0.993040
vt 0.328267 0.993040
vt -0.001289 0.820783
vt -0.001288 -0.010485
vt -0.001289 0.820783
vt -0.001289 0.941251
vt -0.001289 0.820783
vt -0.001289 0.941251
vt -0.001288 0.993040
vt -0.001289 0.941251
vt -0.001288 0.993040
vt 0.338585 0.461151
vt 0.500603 0.218122
vt 0.500603 0.542160
vt 0.338585 0.299132
vt 0.662622 0.461150
vt 0.662622 0.299132
vn 0.005096 -0.011174 -0.999925
vn 0.001635 -0.010206 -0.999947
vn 0.000325 0.001546 -0.999999
vn 0.049262 0.069515 -0.996364
vn 0.166939 0.000763 -0.985967
vn 0.014965 -0.009017 -0.999847
vn 0.001635 -0.010206 -0.999947
vn -0.001548 -0.010182 -0.999947
vn -0.000303 0.001515 -0.999999
vn -0.000303 0.001515 -0.999999
vn 0.000325 0.001546 -0.999999
vn 0.001635 -0.010206 -0.999947
vn 0.000325 0.001546 -0.999999
vn -0.000303 0.001515 -0.999999
vn 0.000000 0.009864 -0.999951
vn 0.000000 0.009864 -0.999951
vn 0.000000 0.009862 -0.999951
vn 0.000325 0.001546 -0.999999
vn 0.000000 0.009862 -0.999951
vn 0.000000 0.009864 -0.999951
vn 0.000000 0.010771 -0.999942
vn 0.000000 0.010771 -0.999942
vn 0.000000 0.010763 -0.999942
vn 0.000000 0.009862 -0.999951
vn 0.000000 0.010763 -0.999942
vn 0.000000 0.010771 -0.999942
vn -0.015282 -0.008807 -0.999844
vn -0.015282 -0.008807 -0.999844
vn 0.014965 -0.009017 -0.999847
vn 0.000000 0.010763 -0.999942
vn 0.014965 -0.009017 -0.999847
vn -0.015282 -0.008807 -0.999844
vn -0.052157 0.070393 -0.996155
vn -0.052157 0.070393 -0.996155
vn 0.049262 0.069515 -0.996364
vn 0.014965 -0.009017 -0.999847
vn 0.049262 0.069515 -0.996364
vn -0.052157 0.070393 -0.996155
vn -0.001869 0.245891 -0.969296
vn -0.001548 -0.010182 -0.999947
vn -0.004742 -0.011075 -0.999927
vn -0.000303 0.001515 -0.999999
vn -0.168325 0.001776 -0.985730
vn -0.052157 0.070393 -0.996155
vn -0.015282 -0.008807 -0.999844
vn 0.000147 0.003155 0.999995
vn 0.001146 -0.006754 0.999977
vn 0.003267 -0.007165 0.999969
vn 0.015228 -0.009215 0.999842
vn 0.209750 -0.699673 0.682980
vn -0.257434 -0.235881 0.937064
vn 0.001146 -0.006754 0.999977
vn 0.000147 0.003155 0.999995
vn -0.000148 0.003124 0.999995
vn -0.000148 0.003124 0.999995
vn -0.001146 -0.006754 0.999977
vn 0.001146 -0.006754 0.999977
vn 0.000147 0.003155 0.999995
vn -0.000000 0.010014 0.999950
vn -0.000000 0.010016 0.999950
vn -0.000000 0.010016 0.999950
vn -0.000148 0.003124 0.999995
vn 0.000147 0.003155 0.999995
vn -0.000000 0.010014 0.999950
vn -0.000000 0.010910 0.999940
vn -0.000000 0.010918 0.999940
vn -0.000000 0.010918 0.999940
vn -0.000000 0.010016 0.999950
vn -0.000000 0.010014 0.999950
vn -0.000000 0.010910 0.999940
vn 0.015228 -0.009215 0.999842
vn -0.015229 -0.009218 0.999842
vn -0.015229 -0.009218 0.999842
vn -0.000000 0.010918 0.999940
vn -0.000000 0.010910 0.999940
vn 0.015228 -0.009215 0.999842
vn -0.257434 -0.235881 0.937064
vn 0.257601 -0.237785 0.936536
vn 0.257601 -0.237785 0.936536
vn -0.015229 -0.009218 0.999842
vn 0.015228 -0.009215 0.999842
vn -0.655606 0.239431 0.716138
vn 0.655106 0.236708 0.717500
vn -0.257434 -0.235881 0.937064
vn -0.000148 0.003124 0.999995
vn -0.003268 -0.007165 0.999969
vn -0.001146 -0.006754 0.999977
vn -0.015229 -0.009218 0.999842
vn 0.257601 -0.237785 0.936536
vn -0.209878 -0.699653 0.682962
vn -0.995914 0.053074 -0.073060
vn -0.998344 0.057519 -0.000000
vn -0.998442 0.055289 -0.007560
vn -0.998442 0.055289 -0.007560
vn -0.995375 0.050495 -0.081721
vn -0.995914 0.053074 -0.073060
vn -0.998344 0.057519 -0.000000
vn -0.999077 0.042952 -0.000000
vn -0.999077 0.042952 -0.000000
vn -0.999077 0.042952 -0.000000
vn -0.998442 0.055289 -0.007560
vn -0.998344 0.057519 -0.000000
vn -0.999077 0.042952 -0.000000
vn -0.998964 0.045509 -0.000000
vn -0.998964 0.045509 -0.000000
vn -0.998964 0.045509 -0.000000
vn -0.999077 0.042952 -0.000000
vn -0.999077 0.042952 -0.000000
vn -0.998964 0.045509 -0.000000
vn -0.998545 0.053921 -0.000000
vn -0.998545 0.053922 -0.000000
vn -0.998545 0.053922 -0.000000
vn -0.998964 0.045509 -0.000000
vn -0.998964 0.045509 -0.000000
vn -0.998545 0.053921 -0.000000
vn -0.998069 0.062114 -0.000000
vn -0.998069 0.062114 -0.000000
vn -0.998069 0.062114 -0.000000
vn -0.998545 0.053922 -0.000000
vn -0.998545 0.053921 -0.000000
vn 0.998069 0.062114 0.000000
vn 0.998545 0.053924 0.000000
vn 0.998545 0.053922 0.000000
vn 0.998545 0.053922 0.000000
vn 0.998069 0.062114 0.000000
vn 0.998069 0.062114 0.000000
vn 0.998545 0.053924 0.000000
vn 0.998769 0.049595 0.000000
vn 0.998769 0.049595 0.000000
vn 0.998769 0.049595 0.000000
vn 0.998545 0.053922 0.000000
vn 0.998545 0.053924 0.000000
vn 0.998769 0.049595 0.000000
vn 0.999118 0.041996 0.000000
vn 0.999118 0.041997 0.000000
vn 0.999118 0.041997 0.000000
vn 0.998769 0.049595 0.000000
vn 0.998769 0.049595 0.000000
vn 0.999118 0.041996 0.000000
vn 0.999106 0.041607 -0.007513
vn 0.999195 0.040124 0.000000
vn 0.999195 0.040124 0.000000
vn 0.999118 0.041997 0.000000
vn 0.999118 0.041996 0.000000
vn 0.999106 0.041607 -0.007513
vn 0.990658 0.072377 -0.115575
vn 0.994922 0.064989 -0.076858
vn 0.994922 0.064989 -0.076858
vn 0.999195 0.040124 0.000000
vn 0.999106 0.041607 -0.007513
vn 0.224049 0.513691 -0.828205
vn 0.121296 0.521764 -0.844423
vn 0.101089 0.524502 -0.845387
vn 0.101089 0.524502 -0.845387
vn 0.235273 0.515849 -0.823739
vn 0.224049 0.513691 -0.828205
vn 0.121296 0.521764 -0.844423
vn -0.129460 0.521222 -0.843545
vn -0.102137 0.522896 -0.846255
vn -0.102137 0.522896 -0.846255
vn 0.101089 0.524502 -0.845387
vn 0.121296 0.521764 -0.844423
vn -0.129460 0.521222 -0.843545
vn -0.233134 0.511161 -0.827262
vn -0.233134 0.511161 -0.827262
vn -0.233134 0.511161 -0.827262
vn -0.102137 0.522896 -0.846255
vn -0.129460 0.521222 -0.843545
vn 0.996527 0.083276 0.000000
vn 0.709343 -0.704863 0.000000
vn 0.257601 -0.237785 0.936536
vn 0.709343 -0.704863 0.000000
vn -0.132586 -0.991172 -0.000000
vn -0.209878 -0.699653 0.682962
vn -0.209878 -0.699653 0.682962
vn 0.257601 -0.237785 0.936536
vn 0.709343 -0.704863 0.000000
vn 0.132503 -0.991183 -0.000000
vn -0.710943 -0.703250 -0.000000
vn -0.257434 -0.235881 0.937064
vn -0.257434 -0.235881 0.937064
vn 0.209750 -0.699673 0.682980
vn 0.132503 -0.991183 -0.000000
vn -0.655606 0.239431 0.716138
vn -0.257434 -0.235881 0.937064
vn -0.710943 -0.703250 -0.000000
vn 0.655106 0.236708 0.717500
vn 0.257601 -0.237785 0.936536
vn -0.257434 -0.235881 0.937064
vn 0.655106 0.236708 0.717500
vn 0.996527 0.083276 0.000000
vn 0.257601 -0.237785 0.936536
vn -0.996135 0.087840 -0.000000
vn -0.655606 0.239431 0.716138
vn -0.710943 -0.703250 -0.000000
vn -0.001869 0.245891 -0.969296
vn -0.002095 0.244372 -0.969679
vn 0.049262 0.069515 -0.996364
vn 0.281338 0.946397 0.158688
vn 0.446937 0.547285 0.707620
vn 0.861545 0.507672 -0.002998
vn 0.281338 0.946397 0.158688
vn -0.443253 0.543798 0.712608
vn 0.446937 0.547285 0.707620
vn 0.281338 0.946397 0.158688
vn -0.433610 0.875390 0.213717
vn -0.443253 0.543798 0.712608
vn -0.433610 0.875390 0.213717
vn -0.892045 0.451923 -0.004650
vn -0.443253 0.543798 0.712608
vn -0.433610 0.875390 0.213717
vn -0.387054 0.904118 -0.180995
vn -0.892045 0.451923 -0.004650
vn -0.387054 0.904118 -0.180995
vn -0.442799 0.551399 -0.707028
vn -0.892045 0.451923 -0.004650
vn -0.387054 0.904118 -0.180995
vn 0.445768 0.554126 -0.703019
vn -0.442799 0.551399 -0.707028
vn -0.387054 0.904118 -0.180995
vn 0.260118 0.955556 -0.138750
vn 0.445768 0.554126 -0.703019
vn 0.260118 0.955556 -0.138750
vn 0.861545 0.507672 -0.002998
vn 0.445768 0.554126 -0.703019
vn 0.260118 0.955556 -0.138750
vn 0.281338 0.946397 0.158688
vn 0.861545 0.507672 -0.002998
vn 0.861545 0.507672 -0.002998
vn 0.529809 -0.197974 0.824687
vn 0.985751 -0.168213 0.000000
vn 0.861545 0.507672 -0.002998
vn 0.446937 0.547285 0.707620
vn 0.529809 -0.197974 0.824687
vn 0.446937 0.547285 0.707620
vn -0.529810 -0.197973 0.824687
vn 0.529809 -0.197974 0.824687
vn 0.446937 0.547285 0.707620
vn -0.443253 0.543798 0.712608
vn -0.529810 -0.197973 0.824687
vn -0.443253 0.543798 0.712608
vn -0.985751 -0.168213 -0.000000
vn -0.529810 -0.197973 0.824687
vn -0.443253 0.543798 0.712608
vn -0.892045 0.451923 -0.004650
vn -0.985751 -0.168213 -0.000000
vn -0.892045 0.451923 -0.004650
vn -0.529809 -0.197973 -0.824687
vn -0.985751 -0.168213 -0.000000
vn -0.892045 0.451923 -0.004650
vn -0.442799 0.551399 -0.707028
vn -0.529809 -0.197973 -0.824687
vn -0.442799 0.551399 -0.707028
vn 0.529809 -0.197974 -0.824687
vn -0.529809 -0.197973 -0.824687
vn -0.442799 0.551399 -0.707028
vn 0.445768 0.554126 -0.703019
vn 0.529809 -0.197974 -0.824687
vn 0.445768 0.554126 -0.703019
vn 0.985751 -0.168213 0.000000
vn 0.529809 -0.197974 -0.824687
vn 0.445768 0.554126 -0.703019
vn 0.861545 0.507672 -0.002998
vn 0.985751 -0.168213 0.000000
vn 0.985751 -0.168213 0.000000
vn 0.423825 -0.661478 0.618723
vn 0.787682 -0.616082 0.000000
vn 0.985751 -0.168213 0.000000
vn 0.529809 -0.197974 0.824687
vn 0.423825 -0.661478 0.618723
vn 0.529809 -0.197974 0.824687
vn -0.423826 -0.661477 0.618724
vn 0.423825 -0.661478 0.618723
vn 0.529809 -0.197974 0.824687
vn -0.529810 -0.197973 0.824687
vn -0.423826 -0.661477 0.618724
vn -0.529810 -0.197973 0.824687
vn -0.787682 -0.616082 -0.000000
vn -0.423826 -0.661477 0.618724
vn -0.529810 -0.197973 0.824687
vn -0.985751 -0.168213 -0.000000
vn -0.787682 -0.616082 -0.000000
vn -0.985751 -0.168213 -0.000000
vn -0.423826 -0.661477 -0.618724
vn -0.787682 -0.616082 -0.000000
vn -0.985751 -0.168213 -0.000000
vn -0.529809 -0.197973 -0.824687
vn -0.423826 -0.661477 -0.618724
vn -0.529809 -0.197973 -0.824687
vn 0.423826 -0.661478 -0.618723
vn -0.423826 -0.661477 -0.618724
vn -0.529809 -0.197973 -0.824687
vn 0.529809 -0.197974 -0.824687
vn 0.423826 -0.661478 -0.618723
vn 0.529809 -0.197974 -0.824687
vn 0.787682 -0.616082 0.000000
vn 0.423826 -0.661478 -0.618723
vn 0.529809 -0.197974 -0.824687
vn 0.985751 -0.168213 0.000000
vn 0.787682 -0.616082 0.000000
vn 0.787682 -0.616082 0.000000
vn 0.186857 -0.955672 0.227544
vn 0.318962 -0.947767 -0.000000
vn 0.787682 -0.616082 0.000000
vn 0.423825 -0.661478 0.618723
vn 0.186857 -0.955672 0.227544
vn 0.423825 -0.661478 0.618723
vn -0.186858 -0.955671 0.227545
vn 0.186857 -0.955672 0.227544
vn 0.423825 -0.661478 0.618723
vn -0.423826 -0.661477 0.618724
vn -0.186858 -0.955671 0.227545
vn -0.423826 -0.661477 0.618724
vn -0.318962 -0.947767 0.000000
vn -0.186858 -0.955671 0.227545
vn -0.423826 -0.661477 0.618724
vn -0.787682 -0.616082 -0.000000
vn -0.318962 -0.947767 0.000000
vn -0.787682 -0.616082 -0.000000
vn -0.186857 -0.955671 -0.227545
vn -0.318962 -0.947767 0.000000
vn -0.787682 -0.616082 -0.000000
vn -0.423826 -0.661477 -0.618724
vn -0.186857 -0.955671 -0.227545
vn -0.423826 -0.661477 -0.618724
vn 0.186857 -0.955671 -0.227545
vn -0.186857 -0.955671 -0.227545
vn -0.423826 -0.661477 -0.618724
vn 0.423826 -0.661478 -0.618723
vn 0.186857 -0.955671 -0.227545
vn 0.423826 -0.661478 -0.618723
vn 0.318962 -0.947767 -0.000000
vn 0.186857 -0.955671 -0.227545
vn 0.423826 -0.661478 -0.618723
vn 0.787682 -0.616082 0.000000
vn 0.318962 -0.947767 -0.000000
vn -0.318962 -0.947767 0.000000
vn 0.318962 -0.947767 -0.000000
vn 0.186857 -0.955672 0.227544
vn 0.186857 -0.955672 0.227544
vn -0.186858 -0.955671 0.227545
vn -0.318962 -0.947767 0.000000
vn -0.186857 -0.955671 -0.227545
vn 0.186857 -0.955671 -0.227545
vn 0.318962 -0.947767 -0.000000
vn 0.318962 -0.947767 -0.000000
vn -0.318962 -0.947767 0.000000
vn -0.186857 -0.955671 -0.227545
s off
g GE_KWJ_ciseau_A
usemtl GE_KWJ_ciseau_ASG1
f 1/47/1 7/51/2 2/53/3
f 8/61/4 6/49/5 5/59/6
f 7/51/7 10/62/8 11/52/9
f 11/52/10 2/53/11 7/51/12
f 2/53/13 11/52/14 12/54/15
f 12/54/16 3/55/17 2/53/18
f 3/55/19 12/54/20 13/56/21
f 13/56/22 4/57/23 3/55/24
f 4/57/25 13/56/26 14/58/27
f 14/58/28 5/59/29 4/57/30
f 5/59/31 14/58/32 15/60/33
f 15/60/34 8/61/35 5/59/36
f 8/98/37 15/96/38 16/99/39
f 10/62/40 17/50/41 11/52/42
f 18/48/43 15/60/44 14/58/45
f 20/23/46 25/24/47 19/22/48
f 23/31/49 24/19/50 26/33/51
f 25/24/52 20/23/53 29/26/54
f 29/26/55 28/34/56 25/24/57
f 20/23/58 21/27/59 30/25/60
f 30/25/61 29/26/62 20/23/63
f 21/27/64 22/29/65 31/28/66
f 31/28/67 30/25/68 21/27/69
f 22/29/70 23/31/71 32/30/72
f 32/30/73 31/28/74 22/29/75
f 23/31/76 26/33/77 33/32/78
f 33/32/79 32/30/80 23/31/81
f 27/92/82 34/93/83 26/95/84
f 29/26/85 35/21/86 28/34/87
f 32/30/88 33/32/89 36/20/90
f 1/1/91 2/2/92 20/10/93
f 20/10/94 19/9/95 1/1/96
f 2/2/97 3/3/98 21/11/99
f 21/11/100 20/10/101 2/2/102
f 3/3/103 4/4/104 22/12/105
f 22/12/106 21/11/107 3/3/108
f 4/4/109 5/5/110 23/13/111
f 23/13/112 22/12/113 4/4/114
f 5/5/115 6/6/116 24/14/117
f 24/14/118 23/13/119 5/5/120
f 18/37/121 14/38/122 32/40/123
f 32/40/124 36/36/125 18/37/126
f 14/38/127 13/41/128 31/39/129
f 31/39/130 32/40/131 14/38/132
f 13/41/133 12/43/134 30/42/135
f 30/42/136 31/39/137 13/41/138
f 12/43/139 11/45/140 29/44/141
f 29/44/142 30/42/143 12/43/144
f 11/45/145 17/35/146 35/46/147
f 35/46/148 29/44/149 11/45/150
f 17/64/151 10/65/152 28/67/153
f 28/67/154 35/18/155 17/64/156
f 10/65/157 7/68/158 25/66/159
f 25/66/160 28/67/161 10/65/162
f 7/68/163 1/63/164 19/69/165
f 19/69/166 25/66/167 7/68/168
f 16/101/169 15/100/170 33/102/171
f 15/103/172 18/8/173 36/104/174
f 36/104/175 33/16/176 15/103/177
f 6/107/178 8/105/179 26/108/180
f 26/108/181 24/106/182 6/107/183
f 27/109/184 26/15/185 8/110/186
f 34/93/187 33/94/188 26/95/189
f 34/17/190 16/101/191 33/102/192
f 9/7/193 27/109/194 8/110/195
f 16/99/196 9/97/197 8/98/198
usemtl GE_KWJ_ciseau_ASG
f 34/70/199 38/71/200 37/72/201
f 34/84/202 39/85/203 38/74/204
f 34/84/205 27/73/206 39/85/207
f 27/86/208 40/87/209 39/76/210
f 27/86/211 9/75/212 40/87/213
f 9/77/214 41/78/215 40/79/216
f 9/88/217 42/89/218 41/81/219
f 9/88/220 16/80/221 42/89/222
f 16/90/223 37/91/224 42/83/225
f 16/90/226 34/82/227 37/91/228
f 37/111/229 44/135/230 43/117/231
f 37/111/232 38/136/233 44/137/234
f 38/112/235 45/119/236 44/118/237
f 38/112/238 39/113/239 45/119/240
f 39/113/241 46/120/242 45/119/243
f 39/113/244 40/114/245 46/120/246
f 40/114/247 47/121/248 46/120/249
f 40/114/250 41/115/251 47/121/252
f 41/115/253 48/122/254 47/121/255
f 41/115/256 42/116/257 48/122/258
f 42/116/259 43/117/260 48/122/261
f 42/116/262 37/111/263 43/117/264
f 43/117/265 50/138/266 49/123/267
f 43/117/268 44/139/269 50/140/270
f 44/118/271 51/125/272 50/124/273
f 44/118/274 45/119/275 51/125/276
f 45/119/277 52/126/278 51/125/279
f 45/119/280 46/120/281 52/126/282
f 46/120/283 53/127/284 52/126/285
f 46/120/286 47/121/287 53/127/288
f 47/121/289 54/128/290 53/127/291
f 47/121/292 48/122/293 54/128/294
f 48/122/295 49/123/296 54/128/297
f 48/122/298 43/117/299 49/123/300
f 49/123/301 56/141/302 55/129/303
f 49/123/304 50/142/305 56/143/306
f 50/124/307 57/131/308 56/130/309
f 50/124/310 51/125/311 57/131/312
f 51/125/313 58/132/314 57/131/315
f 51/125/316 52/126/317 58/132/318
f 52/126/319 59/133/320 58/132/321
f 52/126/322 53/127/323 59/133/324
f 53/127/325 60/134/326 59/133/327
f 53/127/328 54/128/329 60/134/330
f 54/128/331 55/129/332 60/134/333
f 54/128/334 49/123/335 55/129/336
f 58/145/337 55/146/338 56/148/339
f 56/148/340 57/149/341 58/145/342
f 59/147/343 60/144/344 55/146/345
f 55/146/346 58/145/347 59/147/348
