# This file uses meters as units for non-parametric coordinates.

mtllib ge_kcou_aiguille_a.max.fobj.mtl
g default
v 0.356151 25.783905 0.000004
v 0.021222 19.209550 0.000002
v 0.252652 19.209552 -0.538164
v 0.627113 19.209550 -0.332603
v 0.627113 19.209550 0.332607
v 0.252652 19.209550 0.538168
v -0.027088 -7.454458 -0.000003
v 0.237720 -7.358080 -0.387870
v 0.666188 -7.202131 -0.239718
v 0.666187 -7.202128 0.239712
v 0.237719 -7.358077 0.387865
v 0.842337 -9.009263 -0.000003
v 1.119859 -8.960337 -0.387871
v 1.568897 -8.881158 -0.239719
v 1.568896 -8.881155 0.239712
v 1.119858 -8.960333 0.387864
v 0.899764 -10.132268 -0.000004
v 1.143812 -10.273171 -0.387871
v 1.538689 -10.501152 -0.239719
v 1.538690 -10.501149 0.239711
v 1.143813 -10.273167 0.387863
v 0.488169 -10.472399 -0.000004
v 0.488170 -10.754201 -0.387872
v 0.488170 -11.210164 -0.239720
v 0.488170 -11.210164 0.239711
v 0.488169 -10.754201 0.387863
v -0.166099 -10.174578 -0.387872
v 0.077948 -10.033679 -0.000004
v -0.560975 -10.402563 -0.239719
v -0.560975 -10.402563 0.239711
v -0.166099 -10.174578 0.387863
v -0.184497 -9.081471 -0.387871
v 0.087702 -9.154406 -0.000004
v -0.624926 -8.963457 -0.239719
v -0.624926 -8.963457 0.239711
v -0.184497 -9.081471 0.387863
v 0.262217 -7.785738 -0.387871
v 0.403118 -8.029783 -0.000004
v 0.034235 -7.390857 -0.239719
v 0.034235 -7.390857 0.239712
v 0.262217 -7.785737 0.387864
vt 0.750000 0.000500
vt 0.938405 0.178036
vt 0.750000 0.178036
vt 0.069455 0.178036
vt 0.430545 0.178036
vt 0.561595 0.178036
vt 0.913524 0.895477
vt 0.750000 0.898080
vt 0.108367 0.891266
vt 0.391633 0.891266
vt 0.586476 0.895477
vt 0.164145 0.938745
vt 0.250000 0.940067
vt 0.215757 0.936607
vt 0.284243 0.936607
vt 0.335856 0.938745
vt 0.166669 0.974198
vt 0.250000 0.970393
vt 0.214818 0.980354
vt 0.285182 0.980354
vt 0.333331 0.974197
vt 0.006637 0.987187
vt 0.250001 0.979578
vt 0.010730 0.999500
vt 0.489270 0.999500
vt 0.493363 0.987187
vt 0.836927 0.971535
vt 0.750000 0.967730
vt 0.786292 0.977692
vt 0.713708 0.977692
vt 0.663073 0.971535
vt 0.834933 0.942016
vt 0.750000 0.943986
vt 0.784243 0.938830
vt 0.715757 0.938830
vt 0.665067 0.942016
vt 0.921095 0.907026
vt 0.750000 0.913616
vt 0.829737 0.896363
vt 0.670263 0.896363
vt 0.578905 0.907026
vt -0.250000 0.000500
vt -0.061595 0.178036
vt -0.250000 0.000500
vt -0.061595 0.178036
vt -0.086476 0.895477
vt -0.061595 0.178036
vt -0.250000 0.898080
vt -0.250000 0.898080
vt -0.086476 0.895477
vt -0.086476 0.895477
vt -0.086476 0.895477
vt -0.163073 0.971535
vt -0.163073 0.971535
vt -0.213708 0.977692
vt -0.163073 0.971535
vt -0.213708 0.977692
vt -0.286292 0.977692
vt -0.213708 0.977692
vt -0.286292 0.977692
vn 0.000017 1.000000 0.000001
vn -0.322524 0.038883 -0.945762
vn -0.999680 0.025281 -0.000542
vn 0.000017 1.000000 0.000001
vn 0.858088 0.030093 -0.512621
vn -0.322524 0.038883 -0.945762
vn 0.000017 1.000000 0.000001
vn 0.857873 0.029268 0.513028
vn 0.858088 0.030093 -0.512621
vn 0.000017 1.000000 0.000001
vn -0.321566 0.039069 0.946081
vn 0.857873 0.029268 0.513028
vn 0.000017 1.000000 0.000001
vn -0.999680 0.025281 -0.000542
vn -0.321566 0.039069 0.946081
vn -0.999680 0.025281 -0.000542
vn -0.379654 -0.090745 -0.920667
vn -0.965933 -0.258793 0.000256
vn -0.999680 0.025281 -0.000542
vn -0.322524 0.038883 -0.945762
vn -0.379654 -0.090745 -0.920667
vn -0.322524 0.038883 -0.945762
vn 0.751765 0.183223 -0.633466
vn -0.379654 -0.090745 -0.920667
vn -0.322524 0.038883 -0.945762
vn 0.858088 0.030093 -0.512621
vn 0.751765 0.183223 -0.633466
vn 0.858088 0.030093 -0.512621
vn 0.751206 0.185223 0.633547
vn 0.751765 0.183223 -0.633466
vn 0.858088 0.030093 -0.512621
vn 0.857873 0.029268 0.513028
vn 0.751206 0.185223 0.633547
vn 0.857873 0.029268 0.513028
vn -0.379318 -0.092833 0.920598
vn 0.751206 0.185223 0.633547
vn 0.857873 0.029268 0.513028
vn -0.321566 0.039069 0.946081
vn -0.379318 -0.092833 0.920598
vn -0.321566 0.039069 0.946081
vn -0.965933 -0.258793 0.000256
vn -0.379318 -0.092833 0.920598
vn -0.321566 0.039069 0.946081
vn -0.999680 0.025281 -0.000542
vn -0.965933 -0.258793 0.000256
vn -0.965933 -0.258793 0.000256
vn -0.213339 -0.055274 -0.975413
vn -0.960426 -0.278481 0.005437
vn -0.965933 -0.258793 0.000256
vn -0.379654 -0.090745 -0.920667
vn -0.213339 -0.055274 -0.975413
vn -0.379654 -0.090745 -0.920667
vn 0.814046 0.196088 -0.546698
vn -0.213339 -0.055274 -0.975413
vn -0.379654 -0.090745 -0.920667
vn 0.751765 0.183223 -0.633466
vn 0.814046 0.196088 -0.546698
vn 0.751765 0.183223 -0.633466
vn 0.814815 0.197933 0.544884
vn 0.814046 0.196088 -0.546698
vn 0.751765 0.183223 -0.633466
vn 0.751206 0.185223 0.633547
vn 0.814815 0.197933 0.544884
vn 0.751206 0.185223 0.633547
vn -0.219862 -0.058373 0.973783
vn 0.814815 0.197933 0.544884
vn 0.751206 0.185223 0.633547
vn -0.379318 -0.092833 0.920598
vn -0.219862 -0.058373 0.973783
vn -0.379318 -0.092833 0.920598
vn -0.960426 -0.278481 0.005437
vn -0.219862 -0.058373 0.973783
vn -0.379318 -0.092833 0.920598
vn -0.965933 -0.258793 0.000256
vn -0.960426 -0.278481 0.005437
vn -0.960426 -0.278481 0.005437
vn -0.113514 0.057645 -0.991863
vn -0.916556 0.399585 0.016041
vn -0.960426 -0.278481 0.005437
vn -0.213339 -0.055274 -0.975413
vn -0.113514 0.057645 -0.991863
vn -0.213339 -0.055274 -0.975413
vn 0.751571 -0.407546 -0.518698
vn -0.113514 0.057645 -0.991863
vn -0.213339 -0.055274 -0.975413
vn 0.814046 0.196088 -0.546698
vn 0.751571 -0.407546 -0.518698
vn 0.814046 0.196088 -0.546698
vn 0.752943 -0.408433 0.516003
vn 0.751571 -0.407546 -0.518698
vn 0.814046 0.196088 -0.546698
vn 0.814815 0.197933 0.544884
vn 0.752943 -0.408433 0.516003
vn 0.814815 0.197933 0.544884
vn -0.126313 0.062271 0.990034
vn 0.752943 -0.408433 0.516003
vn 0.814815 0.197933 0.544884
vn -0.219862 -0.058373 0.973783
vn -0.126313 0.062271 0.990034
vn -0.219862 -0.058373 0.973783
vn -0.916556 0.399585 0.016041
vn -0.126313 0.062271 0.990034
vn -0.219862 -0.058373 0.973783
vn -0.960426 -0.278481 0.005437
vn -0.916556 0.399585 0.016041
vn -0.916556 0.399585 0.016041
vn 0.001365 0.052936 -0.998597
vn 0.079264 0.996782 -0.011937
vn -0.916556 0.399585 0.016041
vn -0.113514 0.057645 -0.991863
vn 0.001365 0.052936 -0.998597
vn -0.113514 0.057645 -0.991863
vn -0.024395 -0.863895 -0.503080
vn 0.001365 0.052936 -0.998597
vn -0.113514 0.057645 -0.991863
vn 0.751571 -0.407546 -0.518698
vn -0.024395 -0.863895 -0.503080
vn 0.751571 -0.407546 -0.518698
vn -0.028161 -0.863211 0.504057
vn -0.024395 -0.863895 -0.503080
vn 0.751571 -0.407546 -0.518698
vn 0.752943 -0.408433 0.516003
vn -0.028161 -0.863211 0.504057
vn 0.752943 -0.408433 0.516003
vn -0.012291 0.047752 0.998784
vn -0.028161 -0.863211 0.504057
vn 0.752943 -0.408433 0.516003
vn -0.126313 0.062271 0.990034
vn -0.012291 0.047752 0.998784
vn -0.126313 0.062271 0.990034
vn 0.079264 0.996782 -0.011937
vn -0.012291 0.047752 0.998784
vn -0.126313 0.062271 0.990034
vn -0.916556 0.399585 0.016041
vn 0.079264 0.996782 -0.011937
vn 0.153877 0.070236 -0.985591
vn 0.932327 0.361122 -0.018891
vn 0.079264 0.996782 -0.011937
vn 0.079264 0.996782 -0.011937
vn 0.001365 0.052936 -0.998597
vn 0.153877 0.070236 -0.985591
vn -0.758520 -0.392632 -0.520084
vn 0.153877 0.070236 -0.985591
vn 0.001365 0.052936 -0.998597
vn 0.001365 0.052936 -0.998597
vn -0.024395 -0.863895 -0.503080
vn -0.758520 -0.392632 -0.520084
vn -0.755829 -0.393263 0.523514
vn -0.758520 -0.392632 -0.520084
vn -0.024395 -0.863895 -0.503080
vn -0.024395 -0.863895 -0.503080
vn -0.028161 -0.863211 0.504057
vn -0.755829 -0.393263 0.523514
vn 0.137166 0.063991 0.988479
vn -0.755829 -0.393263 0.523514
vn -0.028161 -0.863211 0.504057
vn -0.028161 -0.863211 0.504057
vn -0.012291 0.047752 0.998784
vn 0.137166 0.063991 0.988479
vn 0.932327 0.361122 -0.018891
vn 0.137166 0.063991 0.988479
vn -0.012291 0.047752 0.998784
vn -0.012291 0.047752 0.998784
vn 0.079264 0.996782 -0.011937
vn 0.932327 0.361122 -0.018891
vn 0.244578 -0.042156 -0.968713
vn 0.989939 -0.141463 0.002955
vn 0.932327 0.361122 -0.018891
vn 0.932327 0.361122 -0.018891
vn 0.153877 0.070236 -0.985591
vn 0.244578 -0.042156 -0.968713
vn -0.821337 0.149543 -0.550493
vn 0.244578 -0.042156 -0.968713
vn 0.153877 0.070236 -0.985591
vn 0.153877 0.070236 -0.985591
vn -0.758520 -0.392632 -0.520084
vn -0.821337 0.149543 -0.550493
vn -0.823516 0.144124 0.548679
vn -0.821337 0.149543 -0.550493
vn -0.758520 -0.392632 -0.520084
vn -0.758520 -0.392632 -0.520084
vn -0.755829 -0.393263 0.523514
vn -0.823516 0.144124 0.548679
vn 0.250932 -0.038559 0.967237
vn -0.823516 0.144124 0.548679
vn -0.755829 -0.393263 0.523514
vn -0.755829 -0.393263 0.523514
vn 0.137166 0.063991 0.988479
vn 0.250932 -0.038559 0.967237
vn 0.989939 -0.141463 0.002955
vn 0.250932 -0.038559 0.967237
vn 0.137166 0.063991 0.988479
vn 0.137166 0.063991 0.988479
vn 0.932327 0.361122 -0.018891
vn 0.989939 -0.141463 0.002955
vn 0.051948 -0.000555 -0.998650
vn 0.955927 -0.292648 0.023695
vn 0.989939 -0.141463 0.002955
vn 0.989939 -0.141463 0.002955
vn 0.244578 -0.042156 -0.968713
vn 0.051948 -0.000555 -0.998650
vn -0.840452 0.343409 -0.419180
vn 0.051948 -0.000555 -0.998650
vn 0.244578 -0.042156 -0.968713
vn 0.244578 -0.042156 -0.968713
vn -0.821337 0.149543 -0.550493
vn -0.840452 0.343409 -0.419180
vn -0.838320 0.351384 0.416832
vn -0.840452 0.343409 -0.419180
vn -0.821337 0.149543 -0.550493
vn -0.821337 0.149543 -0.550493
vn -0.823516 0.144124 0.548679
vn -0.838320 0.351384 0.416832
vn 0.078817 -0.008491 0.996853
vn -0.838320 0.351384 0.416832
vn -0.823516 0.144124 0.548679
vn -0.823516 0.144124 0.548679
vn 0.250932 -0.038559 0.967237
vn 0.078817 -0.008491 0.996853
vn 0.955927 -0.292648 0.023695
vn 0.078817 -0.008491 0.996853
vn 0.250932 -0.038559 0.967237
vn 0.250932 -0.038559 0.967237
vn 0.989939 -0.141463 0.002955
vn 0.955927 -0.292648 0.023695
s off
g GE_Kcou_aiguille_A
usemtl GE_Kcou_aiguille_ASG
f 1/1/1 3/2/2 2/3/3
f 1/42/4 4/4/5 3/43/6
f 1/44/7 5/5/8 4/4/9
f 1/1/10 6/6/11 5/5/12
f 1/1/13 2/3/14 6/6/15
f 2/3/16 8/7/17 7/8/18
f 2/3/19 3/2/20 8/7/21
f 3/45/22 9/9/23 8/46/24
f 3/47/25 4/4/26 9/9/27
f 4/4/28 10/10/29 9/9/30
f 4/4/31 5/5/32 10/10/33
f 5/5/34 11/11/35 10/10/36
f 5/5/37 6/6/38 11/11/39
f 6/6/40 7/8/41 11/11/42
f 6/6/43 2/3/44 7/8/45
f 7/48/46 13/12/47 12/13/48
f 7/49/49 8/50/50 13/12/51
f 8/51/52 14/14/53 13/12/54
f 8/52/55 9/9/56 14/14/57
f 9/9/58 15/15/59 14/14/60
f 9/9/61 10/10/62 15/15/63
f 10/10/64 16/16/65 15/15/66
f 10/10/67 11/11/68 16/16/69
f 11/11/70 12/13/71 16/16/72
f 11/11/73 7/8/74 12/13/75
f 12/13/76 18/17/77 17/18/78
f 12/13/79 13/12/80 18/17/81
f 13/12/82 19/19/83 18/17/84
f 13/12/85 14/14/86 19/19/87
f 14/14/88 20/20/89 19/19/90
f 14/14/91 15/15/92 20/20/93
f 15/15/94 21/21/95 20/20/96
f 15/15/97 16/16/98 21/21/99
f 16/16/100 17/18/101 21/21/102
f 16/16/103 12/13/104 17/18/105
f 17/18/106 23/22/107 22/23/108
f 17/18/109 18/17/110 23/22/111
f 18/17/112 24/24/113 23/22/114
f 18/17/115 19/19/116 24/24/117
f 19/19/118 25/25/119 24/24/120
f 19/19/121 20/20/122 25/25/123
f 20/20/124 26/26/125 25/25/126
f 20/20/127 21/21/128 26/26/129
f 21/21/130 22/23/131 26/26/132
f 21/21/133 17/18/134 22/23/135
f 27/53/136 28/28/137 22/23/138
f 22/23/139 23/22/140 27/54/141
f 29/55/142 27/56/143 23/22/144
f 23/22/145 24/24/146 29/57/147
f 30/58/148 29/59/149 24/24/150
f 24/24/151 25/25/152 30/60/153
f 31/31/154 30/30/155 25/25/156
f 25/25/157 26/26/158 31/31/159
f 28/28/160 31/31/161 26/26/162
f 26/26/163 22/23/164 28/28/165
f 32/32/166 33/33/167 28/28/168
f 28/28/169 27/27/170 32/32/171
f 34/34/172 32/32/173 27/27/174
f 27/27/175 29/29/176 34/34/177
f 35/35/178 34/34/179 29/29/180
f 29/29/181 30/30/182 35/35/183
f 36/36/184 35/35/185 30/30/186
f 30/30/187 31/31/188 36/36/189
f 33/33/190 36/36/191 31/31/192
f 31/31/193 28/28/194 33/33/195
f 37/37/196 38/38/197 33/33/198
f 33/33/199 32/32/200 37/37/201
f 39/39/202 37/37/203 32/32/204
f 32/32/205 34/34/206 39/39/207
f 40/40/208 39/39/209 34/34/210
f 34/34/211 35/35/212 40/40/213
f 41/41/214 40/40/215 35/35/216
f 35/35/217 36/36/218 41/41/219
f 38/38/220 41/41/221 36/36/222
f 36/36/223 33/33/224 38/38/225
