# This file uses meters as units for non-parametric coordinates.

mtllib ge_kcou_etoffe_a.max.fobj.mtl
g default
v 3.365160 13.877717 23.266702
v 2.282003 14.305742 21.427327
v 0.858573 13.877717 16.036454
v 0.100640 12.035535 10.197241
v -1.685552 12.287934 5.468117
v -4.798767 14.305742 0.999543
v -5.283082 13.324703 -2.957581
v 4.775598 10.080918 20.802085
v 3.549289 10.121116 17.317702
v 2.377499 9.791522 13.506635
v 1.113119 9.162269 9.074489
v -0.417800 9.498146 5.070208
v -2.271141 10.100084 0.498526
v -3.752535 10.087343 -3.791723
v 5.798827 5.180243 18.801129
v 4.626656 5.407200 15.573048
v 3.647751 5.565487 12.861929
v 2.060155 5.177040 8.014213
v 1.035491 5.193325 5.068654
v -0.005204 5.291620 2.131602
v -1.020955 5.193325 -0.864282
v 6.629443 -0.075041 19.203632
v 5.255845 0.188296 15.241073
v 4.549440 1.089467 13.203583
v 2.775435 2.063813 8.086379
v 1.633861 0.793945 4.792521
v 0.741194 0.239676 2.217012
v -0.206913 0.188294 -0.518212
v 7.097593 -3.500182 21.244768
v 5.284098 -3.640906 16.063085
v 4.140016 -3.527731 12.688900
v 2.976008 -1.317702 8.665435
v 1.530368 -3.381593 4.494138
v 0.191619 -4.998323 1.554759
v -1.342181 -5.120713 -1.325646
v 6.845434 -8.078203 23.392738
v 4.871288 -7.999937 17.554427
v 3.748852 -7.747903 14.111221
v 2.861350 -4.229826 9.137433
v 1.206747 -6.869217 5.626562
v -1.256465 -8.608492 1.911179
v -3.843188 -8.148402 -2.844682
v 2.866913 -14.377184 23.535441
v 1.986363 -13.490289 17.964490
v 0.037036 -12.710707 12.150450
v 2.541994 -5.995893 9.147320
v -0.631839 -12.393959 10.264837
v -5.100743 -12.759292 3.727024
v -3.663146 -10.093713 1.339381
vt 0.097552 0.180355
vt 0.038129 0.032634
vt 0.223719 0.179113
vt 0.110565 0.000500
vt 0.223719 0.179113
vt 0.038129 0.032634
vt 0.223719 0.179113
vt 0.110565 0.000500
vt 0.359531 0.189231
vt 0.299439 0.032634
vt 0.359531 0.189231
vt 0.110565 0.000500
vt 0.359531 0.189231
vt 0.299439 0.032634
vt 0.516221 0.208190
vt 0.493785 0.115544
vt 0.516221 0.208190
vt 0.299439 0.032634
vt 0.516221 0.208190
vt 0.493785 0.115544
vt 0.662771 0.198121
vt 0.666620 0.106156
vt 0.662771 0.198121
vt 0.493785 0.115544
vt 0.662771 0.198121
vt 0.666620 0.106156
vt 0.831451 0.179763
vt 0.848838 0.000500
vt 0.831451 0.179763
vt 0.666620 0.106156
vt 0.831451 0.179763
vt 0.848838 0.000500
vt 0.986430 0.180157
vt 0.980032 0.062455
vt 0.986430 0.180157
vt 0.848838 0.000500
vt 0.148198 0.327307
vt 0.097552 0.180355
vt 0.265505 0.320148
vt 0.223719 0.179113
vt 0.265505 0.320148
vt 0.097552 0.180355
vt 0.265505 0.320148
vt 0.223719 0.179113
vt 0.363962 0.315210
vt 0.359531 0.189231
vt 0.363962 0.315210
vt 0.223719 0.179113
vt 0.363962 0.315210
vt 0.359531 0.189231
vt 0.538040 0.327409
vt 0.516221 0.208190
vt 0.538040 0.327409
vt 0.359531 0.189231
vt 0.538040 0.327409
vt 0.516221 0.208190
vt 0.644538 0.326892
vt 0.662771 0.198121
vt 0.644538 0.326892
vt 0.516221 0.208190
vt 0.644538 0.326892
vt 0.662771 0.198121
vt 0.750958 0.323781
vt 0.831451 0.179763
vt 0.750958 0.323781
vt 0.662771 0.198121
vt 0.750958 0.323781
vt 0.831451 0.179763
vt 0.858958 0.326892
vt 0.986430 0.180157
vt 0.858958 0.326892
vt 0.831451 0.179763
vt 0.124854 0.481733
vt 0.148198 0.327307
vt 0.268064 0.474021
vt 0.265505 0.320148
vt 0.268064 0.474021
vt 0.148198 0.327307
vt 0.268064 0.474021
vt 0.265505 0.320148
vt 0.341703 0.447629
vt 0.363962 0.315210
vt 0.341703 0.447629
vt 0.265505 0.320148
vt 0.341703 0.447629
vt 0.363962 0.315210
vt 0.526645 0.419095
vt 0.538040 0.327409
vt 0.526645 0.419095
vt 0.363962 0.315210
vt 0.526645 0.419095
vt 0.538040 0.327409
vt 0.645685 0.456284
vt 0.644538 0.326892
vt 0.645685 0.456284
vt 0.538040 0.327409
vt 0.645685 0.456284
vt 0.644538 0.326892
vt 0.738765 0.472516
vt 0.750958 0.323781
vt 0.738765 0.472516
vt 0.644538 0.326892
vt 0.738765 0.472516
vt 0.750958 0.323781
vt 0.837617 0.474021
vt 0.858958 0.326892
vt 0.837617 0.474021
vt 0.750958 0.323781
vt 0.053769 0.576464
vt 0.124854 0.481733
vt 0.241380 0.580618
vt 0.268064 0.474021
vt 0.241380 0.580618
vt 0.124854 0.481733
vt 0.241380 0.580618
vt 0.268064 0.474021
vt 0.362744 0.577055
vt 0.341703 0.447629
vt 0.362744 0.577055
vt 0.268064 0.474021
vt 0.362744 0.577055
vt 0.341703 0.447629
vt 0.505719 0.518125
vt 0.526645 0.419095
vt 0.505719 0.518125
vt 0.341703 0.447629
vt 0.505719 0.518125
vt 0.526645 0.419095
vt 0.656469 0.578567
vt 0.645685 0.456284
vt 0.656469 0.578567
vt 0.526645 0.419095
vt 0.656469 0.578567
vt 0.645685 0.456284
vt 0.767144 0.619466
vt 0.738765 0.472516
vt 0.767144 0.619466
vt 0.645685 0.456284
vt 0.767144 0.619466
vt 0.738765 0.472516
vt 0.874216 0.622941
vt 0.837617 0.474021
vt 0.874216 0.622941
vt 0.738765 0.472516
vt 0.000500 0.722733
vt 0.053769 0.576464
vt 0.210237 0.719975
vt 0.241380 0.580618
vt 0.210237 0.719975
vt 0.053769 0.576464
vt 0.210237 0.719975
vt 0.241380 0.580618
vt 0.332909 0.712009
vt 0.362744 0.577055
vt 0.332909 0.712009
vt 0.241380 0.580618
vt 0.332909 0.712009
vt 0.362744 0.577055
vt 0.492109 0.597158
vt 0.505719 0.518125
vt 0.492109 0.597158
vt 0.362744 0.577055
vt 0.492109 0.597158
vt 0.505719 0.518125
vt 0.631414 0.683658
vt 0.656469 0.578567
vt 0.631414 0.683658
vt 0.505719 0.518125
vt 0.631414 0.683658
vt 0.656469 0.578567
vt 0.792112 0.744691
vt 0.767144 0.619466
vt 0.792112 0.744691
vt 0.656469 0.578567
vt 0.792112 0.744691
vt 0.767144 0.619466
vt 0.999500 0.730872
vt 0.874216 0.622941
vt 0.999500 0.730872
vt 0.767144 0.619466
vt 0.093941 0.999501
vt 0.000500 0.722733
vt 0.270394 0.923365
vt 0.210237 0.719975
vt 0.270394 0.923365
vt 0.000500 0.722733
vt 0.270394 0.923365
vt 0.210237 0.719975
vt 0.478077 0.892905
vt 0.332909 0.712009
vt 0.478077 0.892905
vt 0.210237 0.719975
vt 0.478077 0.892905
vt 0.332909 0.712009
vt 0.499343 0.653096
vt 0.492109 0.597158
vt 0.499343 0.653096
vt 0.332909 0.712009
vt 0.499343 0.653096
vt 0.492109 0.597158
vt 0.546162 0.882053
vt 0.631414 0.683658
vt 0.546162 0.882053
vt 0.492109 0.597158
vt 0.546162 0.882053
vt 0.631414 0.683658
vt 0.832636 0.933228
vt 0.792112 0.744691
vt 0.832636 0.933228
vt 0.631414 0.683658
vt 0.832636 0.933228
vt 0.792112 0.744691
vt 0.850968 0.799230
vt 0.999500 0.730872
vt 0.850968 0.799230
vt 0.792112 0.744691
vt 0.499343 0.653096
vt 0.631414 0.683658
vt 0.546162 0.882053
vt 0.792112 0.744691
vt 0.631414 0.683658
vt 0.767144 0.619466
vt 0.792112 0.744691
vt 0.874216 0.622941
vn -0.856947 -0.422308 0.295461
vn -0.788380 -0.530885 0.310835
vn -0.852535 -0.426423 0.302237
vn -0.787389 -0.533964 0.308059
vn -0.852535 -0.426423 0.302237
vn -0.788380 -0.530885 0.310835
vn -0.852535 -0.426423 0.302237
vn -0.787389 -0.533964 0.308059
vn -0.862242 -0.407146 0.301281
vn -0.842454 -0.468903 0.265331
vn -0.862242 -0.407146 0.301281
vn -0.787389 -0.533964 0.308059
vn -0.862242 -0.407146 0.301281
vn -0.842454 -0.468903 0.265331
vn -0.884405 -0.359679 0.297420
vn -0.871985 -0.412428 0.263715
vn -0.884405 -0.359679 0.297420
vn -0.842454 -0.468903 0.265331
vn -0.884405 -0.359679 0.297420
vn -0.871985 -0.412428 0.263715
vn -0.878282 -0.367000 0.306484
vn -0.838686 -0.453087 0.302189
vn -0.878282 -0.367000 0.306484
vn -0.871985 -0.412428 0.263715
vn -0.878282 -0.367000 0.306484
vn -0.838686 -0.453087 0.302189
vn -0.856858 -0.414089 0.307122
vn -0.815423 -0.504570 0.283715
vn -0.856858 -0.414089 0.307122
vn -0.838686 -0.453087 0.302189
vn -0.856858 -0.414089 0.307122
vn -0.815423 -0.504570 0.283715
vn -0.859997 -0.427460 0.278716
vn -0.858841 -0.462679 0.219820
vn -0.859997 -0.427460 0.278716
vn -0.815423 -0.504570 0.283715
vn -0.922257 -0.222367 0.316221
vn -0.856947 -0.422308 0.295461
vn -0.920460 -0.231833 0.314653
vn -0.852535 -0.426423 0.302237
vn -0.920460 -0.231833 0.314653
vn -0.856947 -0.422308 0.295461
vn -0.920460 -0.231833 0.314653
vn -0.852535 -0.426423 0.302237
vn -0.916359 -0.248794 0.313670
vn -0.862242 -0.407146 0.301281
vn -0.916359 -0.248794 0.313670
vn -0.852535 -0.426423 0.302237
vn -0.916359 -0.248794 0.313670
vn -0.862242 -0.407146 0.301281
vn -0.914229 -0.242736 0.324446
vn -0.884405 -0.359679 0.297420
vn -0.914229 -0.242736 0.324446
vn -0.862242 -0.407146 0.301281
vn -0.914229 -0.242736 0.324446
vn -0.884405 -0.359679 0.297420
vn -0.920253 -0.222301 0.322052
vn -0.878282 -0.367000 0.306484
vn -0.920253 -0.222301 0.322052
vn -0.884405 -0.359679 0.297420
vn -0.920253 -0.222301 0.322052
vn -0.878282 -0.367000 0.306484
vn -0.920141 -0.224113 0.321113
vn -0.856858 -0.414089 0.307122
vn -0.920141 -0.224113 0.321113
vn -0.878282 -0.367000 0.306484
vn -0.920141 -0.224113 0.321113
vn -0.856858 -0.414089 0.307122
vn -0.917090 -0.240417 0.318033
vn -0.859997 -0.427460 0.278716
vn -0.917090 -0.240417 0.318033
vn -0.856858 -0.414089 0.307122
vn -0.945327 -0.008619 0.326010
vn -0.922257 -0.222367 0.316221
vn -0.946745 -0.026741 0.320874
vn -0.920460 -0.231833 0.314653
vn -0.946745 -0.026741 0.320874
vn -0.922257 -0.222367 0.316221
vn -0.946745 -0.026741 0.320874
vn -0.920460 -0.231833 0.314653
vn -0.948996 -0.064096 0.308704
vn -0.916359 -0.248794 0.313670
vn -0.948996 -0.064096 0.308704
vn -0.920460 -0.231833 0.314653
vn -0.948996 -0.064096 0.308704
vn -0.916359 -0.248794 0.313670
vn -0.933090 -0.113624 0.341222
vn -0.914229 -0.242736 0.324446
vn -0.933090 -0.113624 0.341222
vn -0.916359 -0.248794 0.313670
vn -0.933090 -0.113624 0.341222
vn -0.914229 -0.242736 0.324446
vn -0.935528 -0.068044 0.346638
vn -0.920253 -0.222301 0.322052
vn -0.935528 -0.068044 0.346638
vn -0.914229 -0.242736 0.324446
vn -0.935528 -0.068044 0.346638
vn -0.920253 -0.222301 0.322052
vn -0.940412 -0.021414 0.339363
vn -0.920141 -0.224113 0.321113
vn -0.940412 -0.021414 0.339363
vn -0.920253 -0.222301 0.322052
vn -0.940412 -0.021414 0.339363
vn -0.920141 -0.224113 0.321113
vn -0.945095 0.014841 0.326457
vn -0.917090 -0.240417 0.318033
vn -0.945095 0.014841 0.326457
vn -0.920141 -0.224113 0.321113
vn -0.934577 0.151467 0.321905
vn -0.945327 -0.008619 0.326010
vn -0.937090 0.131435 0.323400
vn -0.946745 -0.026741 0.320874
vn -0.937090 0.131435 0.323400
vn -0.945327 -0.008619 0.326010
vn -0.937090 0.131435 0.323400
vn -0.946745 -0.026741 0.320874
vn -0.941328 0.121466 0.314877
vn -0.948996 -0.064096 0.308704
vn -0.941328 0.121466 0.314877
vn -0.946745 -0.026741 0.320874
vn -0.941328 0.121466 0.314877
vn -0.948996 -0.064096 0.308704
vn -0.946288 0.047187 0.319862
vn -0.933090 -0.113624 0.341222
vn -0.946288 0.047187 0.319862
vn -0.948996 -0.064096 0.308704
vn -0.946288 0.047187 0.319862
vn -0.933090 -0.113624 0.341222
vn -0.938043 0.086159 0.335636
vn -0.935528 -0.068044 0.346638
vn -0.938043 0.086159 0.335636
vn -0.933090 -0.113624 0.341222
vn -0.938043 0.086159 0.335636
vn -0.935528 -0.068044 0.346638
vn -0.888900 0.200202 0.412038
vn -0.940412 -0.021414 0.339363
vn -0.888900 0.200202 0.412038
vn -0.935528 -0.068044 0.346638
vn -0.888900 0.200202 0.412038
vn -0.940412 -0.021414 0.339363
vn -0.850812 0.279905 0.444716
vn -0.945095 0.014841 0.326457
vn -0.850812 0.279905 0.444716
vn -0.940412 -0.021414 0.339363
vn -0.886472 0.363600 0.286292
vn -0.934577 0.151467 0.321905
vn -0.886878 0.338919 0.313977
vn -0.937090 0.131435 0.323400
vn -0.886878 0.338919 0.313977
vn -0.934577 0.151467 0.321905
vn -0.886878 0.338919 0.313977
vn -0.937090 0.131435 0.323400
vn -0.878058 0.352589 0.323567
vn -0.941328 0.121466 0.314877
vn -0.878058 0.352589 0.323567
vn -0.937090 0.131435 0.323400
vn -0.878058 0.352589 0.323567
vn -0.941328 0.121466 0.314877
vn -0.936194 0.129115 0.326911
vn -0.946288 0.047187 0.319862
vn -0.936194 0.129115 0.326911
vn -0.941328 0.121466 0.314877
vn -0.936194 0.129115 0.326911
vn -0.946288 0.047187 0.319862
vn -0.887594 0.351965 0.297150
vn -0.938043 0.086159 0.335636
vn -0.887594 0.351965 0.297150
vn -0.946288 0.047187 0.319862
vn -0.887594 0.351965 0.297150
vn -0.938043 0.086159 0.335636
vn -0.888900 0.200202 0.412038
vn -0.888900 0.200202 0.412038
vn -0.727962 0.559575 0.396166
vn -0.887594 0.351965 0.297150
vn -0.727962 0.559575 0.396166
vn -0.888900 0.200202 0.412038
vn -0.850812 0.279905 0.444716
vn -0.850812 0.279905 0.444716
vn -0.712094 0.546927 0.440220
vn -0.727962 0.559575 0.396166
vn -0.823732 0.525124 0.213800
vn -0.886472 0.363600 0.286292
vn -0.828053 0.479944 0.289796
vn -0.886878 0.338919 0.313977
vn -0.828053 0.479944 0.289796
vn -0.886472 0.363600 0.286292
vn -0.828053 0.479944 0.289796
vn -0.886878 0.338919 0.313977
vn -0.816916 0.466567 0.339063
vn -0.878058 0.352589 0.323567
vn -0.816916 0.466567 0.339063
vn -0.886878 0.338919 0.313977
vn -0.816916 0.466567 0.339063
vn -0.878058 0.352589 0.323567
vn -0.911657 0.286765 0.294360
vn -0.936194 0.129115 0.326911
vn -0.911657 0.286765 0.294360
vn -0.878058 0.352589 0.323567
vn -0.911657 0.286765 0.294360
vn -0.936194 0.129115 0.326911
vn -0.887594 0.351965 0.297150
vn -0.887594 0.351965 0.297150
vn -0.749025 0.588596 0.304165
vn -0.911657 0.286765 0.294360
vn -0.749025 0.588596 0.304165
vn -0.887594 0.351965 0.297150
vn -0.727962 0.559575 0.396166
vn -0.727962 0.559575 0.396166
vn -0.584898 0.711818 0.388857
vn -0.749025 0.588596 0.304165
vn -0.584898 0.711818 0.388857
vn -0.727962 0.559575 0.396166
vn -0.546558 0.722933 0.422660
vn -0.712094 0.546927 0.440220
vn -0.546558 0.722933 0.422660
vn -0.727962 0.559575 0.396166
s off
g GE_Kcou_etoffe_A
usemtl GE_Kcou_etoffe_ASG1
f 8/1/1 1/2/2 9/3/3
f 2/4/4 9/5/5 1/6/6
f 9/7/7 2/8/8 10/9/9
f 3/10/10 10/11/11 2/12/12
f 10/13/13 3/14/14 11/15/15
f 4/16/16 11/17/17 3/18/18
f 11/19/19 4/20/20 12/21/21
f 5/22/22 12/23/23 4/24/24
f 12/25/25 5/26/26 13/27/27
f 6/28/28 13/29/29 5/30/30
f 13/31/31 6/32/32 14/33/33
f 7/34/34 14/35/35 6/36/36
f 15/37/37 8/38/38 16/39/39
f 9/40/40 16/41/41 8/42/42
f 16/43/43 9/44/44 17/45/45
f 10/46/46 17/47/47 9/48/48
f 17/49/49 10/50/50 18/51/51
f 11/52/52 18/53/53 10/54/54
f 18/55/55 11/56/56 19/57/57
f 12/58/58 19/59/59 11/60/60
f 19/61/61 12/62/62 20/63/63
f 13/64/64 20/65/65 12/66/66
f 20/67/67 13/68/68 21/69/69
f 14/70/70 21/71/71 13/72/72
f 22/73/73 15/74/74 23/75/75
f 16/76/76 23/77/77 15/78/78
f 23/79/79 16/80/80 24/81/81
f 17/82/82 24/83/83 16/84/84
f 24/85/85 17/86/86 25/87/87
f 18/88/88 25/89/89 17/90/90
f 25/91/91 18/92/92 26/93/93
f 19/94/94 26/95/95 18/96/96
f 26/97/97 19/98/98 27/99/99
f 20/100/100 27/101/101 19/102/102
f 27/103/103 20/104/104 28/105/105
f 21/106/106 28/107/107 20/108/108
f 29/109/109 22/110/110 30/111/111
f 23/112/112 30/113/113 22/114/114
f 30/115/115 23/116/116 31/117/117
f 24/118/118 31/119/119 23/120/120
f 31/121/121 24/122/122 32/123/123
f 25/124/124 32/125/125 24/126/126
f 32/127/127 25/128/128 33/129/129
f 26/130/130 33/131/131 25/132/132
f 33/133/133 26/134/134 34/135/135
f 27/136/136 34/137/137 26/138/138
f 34/139/139 27/140/140 35/141/141
f 28/142/142 35/143/143 27/144/144
f 36/145/145 29/146/146 37/147/147
f 30/148/148 37/149/149 29/150/150
f 37/151/151 30/152/152 38/153/153
f 31/154/154 38/155/155 30/156/156
f 38/157/157 31/158/158 39/159/159
f 32/160/160 39/161/161 31/162/162
f 39/163/163 32/164/164 40/165/165
f 33/166/166 40/167/167 32/168/168
f 40/169/169 33/170/170 34/222/171
f 34/172/172 41/173/173 40/221/174
f 41/175/175 34/176/176 35/224/177
f 35/178/178 42/179/179 41/223/180
f 43/181/181 36/182/182 44/183/183
f 37/184/184 44/185/185 36/186/186
f 44/187/187 37/188/188 45/189/189
f 38/190/190 45/191/191 37/192/192
f 45/193/193 38/194/194 46/195/195
f 39/196/196 46/197/197 38/198/198
f 46/199/199 39/200/200 40/218/201
f 40/202/202 47/203/203 46/217/204
f 47/205/205 40/206/206 41/220/207
f 41/208/208 48/209/209 47/219/210
f 48/211/211 41/212/212 49/213/213
f 42/214/214 49/215/215 41/216/216
