# This file uses meters as units for non-parametric coordinates.

mtllib ge_kmec_grip_a.max.fobj.mtl
g default
v 0.558155 17.335059 -0.944352
v -0.474439 17.779883 -0.455937
v -1.237442 17.786743 -2.096086
v -0.230773 17.352839 -2.573826
v 1.743057 23.657278 -1.605226
v 0.706338 24.410568 -1.112580
v 0.088759 24.412841 -2.444525
v 1.099567 23.678019 -2.926146
v 2.464201 24.783248 -1.938255
v 1.437908 25.586933 -1.450202
v 0.820329 25.589205 -2.782146
v 1.820710 24.803990 -3.259176
v 3.997551 26.666900 -2.340635
v 3.481440 27.453828 -2.093799
v 2.627313 27.463050 -3.930962
v 3.113116 26.683859 -4.165271
v 4.850223 29.598099 -1.955117
v 4.206566 29.341094 -1.653184
v 2.692005 29.222574 -4.716669
v 3.354202 29.551024 -5.067515
v 2.899855 31.226254 0.465458
v 0.137907 31.253283 -5.359807
v -0.978207 -8.970821 -0.214289
v -2.207167 -8.773181 0.364965
v -3.061121 -8.762973 -1.472274
v -1.862975 -8.955762 -2.038780
v -1.348824 5.505904 -0.000640
v -2.153596 5.516473 -1.732097
v -1.024253 5.445003 -2.263848
v -0.191648 5.432646 -0.546877
v 1.887769 17.259177 -1.541417
v 2.979747 17.576397 -2.055966
v 2.184854 17.584523 -3.717431
v 1.119023 17.275097 -3.216817
v 1.588837 23.230808 -1.226446
v 2.698825 23.848188 -1.747700
v 1.825209 23.854872 -3.575688
v 0.741747 23.252631 -3.068665
v 0.556709 23.981784 -0.734747
v 2.784358 25.205271 -1.779250
v 1.910742 25.211956 -3.607237
v -0.290382 24.003607 -2.576966
v 0.620385 25.312478 -0.756410
v 1.725469 25.981220 -1.275018
v 0.851854 25.987905 -3.103005
v -0.226705 25.334301 -2.598629
v -0.487211 26.950819 -0.223439
v 0.109192 27.667315 -0.501807
v -0.765457 27.677836 -2.329281
v -1.332322 26.965288 -2.066640
v -0.413875 29.931922 0.559720
v 0.259653 29.476987 0.239085
v -1.178562 29.352506 -2.919578
v -1.894287 29.882715 -2.619820
v 2.834546 31.230390 0.496290
v 0.094817 31.256009 -5.339464
v 0.565308 -9.046612 -0.971789
v 1.805926 -9.005318 -1.558389
v 0.931212 -8.993796 -3.385828
v -0.279678 -9.034070 -2.815061
v 2.551403 5.273762 -1.885770
v 1.719507 5.285675 -3.623985
v 0.580708 5.357791 -3.085188
v 1.383640 5.347695 -1.334204
vt 1.000000 0.000000
vt 0.289580 0.000000
vt 0.517937 0.000000
vt 0.752679 0.000000
vt 0.000000 0.000000
vt 1.000449 0.329800
vt 1.000736 0.698731
vt 0.679490 0.698022
vt 0.680583 0.329658
vt 1.000904 0.698854
vt 0.679958 0.698176
vt 1.001918 0.329565
vt 0.679523 0.329571
vt 0.319872 0.697327
vt 0.315068 0.329064
vt 0.320675 0.697431
vt 0.315422 0.328814
vt 0.000000 1.000000
vt 0.000000 0.031030
vt 1.000000 0.525758
vt 1.000000 0.680847
vt 0.734981 0.677703
vt 0.732798 0.526378
vt 0.995795 0.675417
vt 1.000000 0.524716
vt 0.729084 0.523927
vt 0.733890 0.677862
vt 0.406430 0.672553
vt 0.406372 0.526529
vt 0.405219 0.526671
vt 0.409593 0.670444
vt 0.194527 0.597956
vt 0.193075 0.599782
vt 0.659805 0.625877
vt 0.558949 0.628484
vt 0.557450 0.806599
vt 0.662677 0.804136
vt 0.233209 1.000000
vt 0.000000 0.512223
vt 0.517401 1.000000
vt 0.000000 1.000000
vt 1.000000 1.000000
vt 0.000000 1.000000
vt 0.754771 1.000000
vt 1.000000 0.000000
vt 0.553134 0.000000
vt 0.540045 0.511336
vt 0.000000 0.000000
vt 0.574184 1.000000
vt 1.000000 1.000000
vt 1.000000 0.510764
vt 0.536972 0.515349
vt 0.538401 0.000000
vt 0.000000 1.000000
vt 0.000000 0.515199
vt 0.531826 1.000000
vt 1.000000 0.000000
vt 1.000000 0.515008
vt 1.000000 1.000000
vt 0.000000 0.000000
vt 0.506584 0.506781
vt 0.508789 0.000000
vt 1.000000 0.507855
vt 1.000000 0.000000
vt 1.000000 1.000000
vt 0.507967 1.000000
vt 0.355130 0.712211
vt 0.974238 0.711969
vt 0.973563 0.851598
vt 0.353300 0.852082
vt 0.973901 0.987856
vt 0.356622 0.987862
vt 0.355503 0.851159
vt 0.973563 0.988643
vt 0.353300 0.989320
vt 0.973901 0.709924
vt 0.356622 0.714615
vt 0.974887 0.850569
vt 0.647859 0.073892
vt 0.801163 0.010840
vt 0.925902 0.084730
vt 0.646479 0.253283
vt 0.792485 0.021130
vt 0.666187 0.096155
vt 0.666374 0.244059
vt 0.910954 0.091705
vt 0.925947 0.256553
vt 0.784703 0.320879
vt 0.789708 0.309170
vt 0.910999 0.238670
vt 1.000449 0.329800
vt 1.000736 0.698731
vt 0.679490 0.698022
vt 0.680583 0.329658
vt 1.000904 0.698854
vt 0.679958 0.698176
vt 1.001918 0.329565
vt 0.679523 0.329571
vt 0.319872 0.697327
vt 0.315068 0.329064
vt 0.320675 0.697431
vt 0.315422 0.328814
vt 0.000000 1.000000
vt 0.000000 0.031030
vt 1.000000 0.549799
vt 1.000000 0.685886
vt 0.720409 0.686199
vt 0.721531 0.550179
vt 1.000000 0.688066
vt 1.000000 0.549669
vt 0.719520 0.550729
vt 0.721902 0.686815
vt 0.491951 0.687265
vt 0.492888 0.549874
vt 0.490503 0.551866
vt 0.491380 0.683309
vt 0.234445 0.622075
vt 0.232757 0.622052
vt 0.564423 0.603135
vt 0.462135 0.603146
vt 0.567627 0.807255
vt 0.460463 0.807104
vt 0.000000 0.510484
vt 0.000000 0.000000
vt 0.000000 0.459130
vt 0.000000 0.000000
vt 0.000000 1.000000
vt 0.000000 1.000000
vt 0.750007 1.000000
vt 0.503270 0.000000
vt 1.000000 1.000000
vt 1.000000 0.000000
vt 0.749449 0.000000
vt 0.503270 1.000000
vt 0.233338 0.000000
vt 0.000000 0.000000
vt 0.231383 1.000000
vt 0.000000 1.000000
vt 0.502542 1.000000
vt 0.502600 0.503080
vt 0.000000 1.000000
vt 0.502158 0.000000
vt 1.000000 0.000000
vt 1.000000 0.505710
vt 0.000000 0.457212
vt 1.000000 1.000000
vn -0.935841 0.115992 -0.332787
vn -0.347569 0.106618 0.931573
vn -0.960348 0.180739 -0.212287
vn -0.452497 0.167766 0.875843
vn -0.960348 0.180739 -0.212287
vn -0.347569 0.106618 0.931573
vn 0.302554 -0.081991 -0.949599
vn -0.935841 0.115992 -0.332787
vn 0.238485 -0.104853 -0.965469
vn -0.960348 0.180739 -0.212287
vn 0.238485 -0.104853 -0.965469
vn -0.935841 0.115992 -0.332787
vn -0.347569 0.106618 0.931573
vn 0.929680 -0.091703 0.356771
vn -0.452497 0.167766 0.875843
vn 0.897788 -0.123580 0.422734
vn -0.452497 0.167766 0.875843
vn 0.929680 -0.091703 0.356771
vn 0.929680 -0.091703 0.356771
vn 0.302554 -0.081991 -0.949599
vn 0.897788 -0.123580 0.422734
vn 0.238485 -0.104853 -0.965469
vn 0.897788 -0.123580 0.422734
vn 0.302554 -0.081991 -0.949599
vn -0.776357 0.538504 -0.327541
vn -0.238027 0.537826 0.808756
vn -0.917423 0.192261 -0.348384
vn -0.363528 0.168273 0.916260
vn -0.917423 0.192261 -0.348384
vn -0.238027 0.537826 0.808756
vn 0.153669 -0.511048 -0.845705
vn -0.776357 0.538504 -0.327541
vn 0.289330 -0.391483 -0.873516
vn -0.917423 0.192261 -0.348384
vn 0.289330 -0.391483 -0.873516
vn -0.776357 0.538504 -0.327541
vn -0.238027 0.537826 0.808756
vn 0.754184 -0.518181 0.403355
vn -0.363528 0.168273 0.916260
vn 0.852350 -0.415790 0.317202
vn -0.363528 0.168273 0.916260
vn 0.754184 -0.518181 0.403355
vn 0.754184 -0.518181 0.403355
vn 0.153669 -0.511048 -0.845705
vn 0.852350 -0.415790 0.317202
vn 0.289330 -0.391483 -0.873516
vn 0.852350 -0.415790 0.317202
vn 0.153669 -0.511048 -0.845705
vn -0.917423 0.192261 -0.348384
vn -0.363528 0.168273 0.916260
vn -0.674370 -0.586379 -0.448760
vn -0.058490 -0.516129 0.854511
vn -0.674370 -0.586379 -0.448760
vn -0.363528 0.168273 0.916260
vn 0.289330 -0.391483 -0.873516
vn -0.917423 0.192261 -0.348384
vn 0.485011 0.191592 -0.853262
vn -0.674370 -0.586379 -0.448760
vn 0.485011 0.191592 -0.853262
vn -0.917423 0.192261 -0.348384
vn -0.363528 0.168273 0.916260
vn 0.852350 -0.415790 0.317202
vn -0.058490 -0.516129 0.854511
vn 0.956828 0.236482 0.168987
vn -0.058490 -0.516129 0.854511
vn 0.852350 -0.415790 0.317202
vn 0.852350 -0.415790 0.317202
vn 0.289330 -0.391483 -0.873516
vn 0.956828 0.236482 0.168987
vn 0.485011 0.191592 -0.853262
vn 0.956828 0.236482 0.168987
vn 0.289330 -0.391483 -0.873516
vn -0.674370 -0.586379 -0.448760
vn -0.058490 -0.516129 0.854511
vn -0.794228 0.403963 -0.453891
vn -0.189114 0.404791 0.894640
vn -0.794228 0.403963 -0.453891
vn -0.058490 -0.516129 0.854511
vn 0.485011 0.191592 -0.853262
vn -0.674370 -0.586379 -0.448760
vn -0.794228 0.403963 -0.453891
vn -0.058490 -0.516129 0.854511
vn 0.956828 0.236482 0.168987
vn -0.189114 0.404791 0.894640
vn 0.956828 0.236482 0.168987
vn 0.485011 0.191592 -0.853262
vn -0.189114 0.404791 0.894640
vn -0.794228 0.403963 -0.453891
vn -0.189114 0.404791 0.894640
vn 0.485011 0.191592 -0.853262
vn -0.939265 0.056802 -0.338460
vn -0.339868 0.051705 0.939051
vn -0.935841 0.115992 -0.332787
vn 0.330957 -0.040284 -0.942786
vn -0.939265 0.056802 -0.338460
vn 0.302554 -0.081991 -0.949599
vn -0.339868 0.051705 0.939051
vn 0.940830 -0.045897 0.335756
vn -0.347569 0.106618 0.931573
vn 0.940830 -0.045897 0.335756
vn 0.330957 -0.040284 -0.942786
vn 0.929680 -0.091703 0.356771
vn -0.132670 -0.989568 0.056167
vn -0.132670 -0.989568 0.056167
vn -0.132670 -0.989568 0.056167
vn -0.132667 -0.989568 0.056168
vn -0.132667 -0.989568 0.056168
vn -0.132667 -0.989568 0.056168
vn -0.347569 0.106618 0.931573
vn -0.935841 0.115992 -0.332787
vn -0.339868 0.051705 0.939051
vn -0.929296 0.052411 -0.365597
vn -0.339868 0.051705 0.939051
vn -0.939265 0.056802 -0.338460
vn -0.929296 0.052411 -0.365597
vn -0.315119 0.043265 0.948066
vn -0.339868 0.051705 0.939051
vn -0.935841 0.115992 -0.332787
vn 0.302554 -0.081991 -0.949599
vn -0.939265 0.056802 -0.338460
vn 0.356576 -0.035396 -0.933596
vn -0.939265 0.056802 -0.338460
vn 0.330957 -0.040284 -0.942786
vn 0.356576 -0.035396 -0.933596
vn -0.929296 0.052411 -0.365597
vn -0.939265 0.056802 -0.338460
vn 0.929680 -0.091703 0.356771
vn -0.347569 0.106618 0.931573
vn 0.940830 -0.045897 0.335756
vn -0.315119 0.043265 0.948066
vn 0.940830 -0.045897 0.335756
vn -0.339868 0.051705 0.939051
vn -0.315119 0.043265 0.948066
vn 0.950329 -0.044790 0.308008
vn 0.940830 -0.045897 0.335756
vn 0.302554 -0.081991 -0.949599
vn 0.929680 -0.091703 0.356771
vn 0.330957 -0.040284 -0.942786
vn 0.950329 -0.044790 0.308008
vn 0.330957 -0.040284 -0.942786
vn 0.940830 -0.045897 0.335756
vn 0.950329 -0.044790 0.308008
vn 0.356576 -0.035396 -0.933596
vn 0.330957 -0.040284 -0.942786
vn 0.948887 -0.001847 0.315611
vn 0.352319 0.009658 -0.935830
vn 0.314988 -0.000117 -0.949096
vn 0.314988 -0.000117 -0.949096
vn 0.934478 -0.011516 0.355834
vn 0.948887 -0.001847 0.315611
vn 0.352319 0.009658 -0.935830
vn -0.933523 -0.005177 -0.358479
vn -0.791216 -0.284029 -0.541576
vn -0.791216 -0.284029 -0.541576
vn 0.314988 -0.000117 -0.949096
vn 0.352319 0.009658 -0.935830
vn -0.327569 -0.016419 0.944685
vn 0.948887 -0.001847 0.315611
vn 0.934478 -0.011516 0.355834
vn 0.934478 -0.011516 0.355834
vn -0.091208 -0.302187 0.948875
vn -0.327569 -0.016419 0.944685
vn -0.933523 -0.005177 -0.358479
vn -0.327569 -0.016419 0.944685
vn -0.091208 -0.302187 0.948875
vn -0.091208 -0.302187 0.948875
vn -0.791216 -0.284029 -0.541576
vn -0.933523 -0.005177 -0.358479
vn 0.934478 -0.011516 0.355834
vn 0.314988 -0.000117 -0.949096
vn 0.381181 0.354561 -0.853807
vn 0.381181 0.354561 -0.853807
vn 0.903873 0.349054 0.247337
vn 0.934478 -0.011516 0.355834
vn 0.314988 -0.000117 -0.949096
vn -0.791216 -0.284029 -0.541576
vn -0.899244 -0.353477 -0.257708
vn -0.899244 -0.353477 -0.257708
vn 0.381181 0.354561 -0.853807
vn 0.314988 -0.000117 -0.949096
vn -0.091208 -0.302187 0.948875
vn 0.934478 -0.011516 0.355834
vn 0.903873 0.349054 0.247337
vn 0.903873 0.349054 0.247337
vn -0.383266 -0.363285 0.849195
vn -0.091208 -0.302187 0.948875
vn -0.791216 -0.284029 -0.541576
vn -0.091208 -0.302187 0.948875
vn -0.383266 -0.363285 0.849195
vn -0.383266 -0.363285 0.849195
vn -0.899244 -0.353477 -0.257708
vn -0.791216 -0.284029 -0.541576
vn 0.903873 0.349054 0.247337
vn 0.381181 0.354561 -0.853807
vn 0.075380 0.540898 -0.837704
vn 0.075380 0.540898 -0.837704
vn 0.697471 0.535836 0.475829
vn 0.903873 0.349054 0.247337
vn 0.381181 0.354561 -0.853807
vn -0.899244 -0.353477 -0.257708
vn -0.863810 -0.173049 -0.473166
vn -0.863810 -0.173049 -0.473166
vn 0.075380 0.540898 -0.837704
vn 0.381181 0.354561 -0.853807
vn -0.383266 -0.363285 0.849195
vn 0.903873 0.349054 0.247337
vn 0.697471 0.535836 0.475829
vn 0.697471 0.535836 0.475829
vn -0.194590 -0.183732 0.963524
vn -0.383266 -0.363285 0.849195
vn -0.899244 -0.353477 -0.257708
vn -0.383266 -0.363285 0.849195
vn -0.194590 -0.183732 0.963524
vn -0.194590 -0.183732 0.963524
vn -0.863810 -0.173049 -0.473166
vn -0.899244 -0.353477 -0.257708
vn 0.697471 0.535836 0.475829
vn 0.075380 0.540898 -0.837704
vn 0.303723 0.142405 -0.942058
vn 0.303723 0.142405 -0.942058
vn 0.946516 0.112619 0.302365
vn 0.697471 0.535836 0.475829
vn 0.075380 0.540898 -0.837704
vn -0.863810 -0.173049 -0.473166
vn -0.907462 -0.314801 -0.278233
vn -0.907462 -0.314801 -0.278233
vn 0.303723 0.142405 -0.942058
vn 0.075380 0.540898 -0.837704
vn -0.194590 -0.183732 0.963524
vn 0.697471 0.535836 0.475829
vn 0.946516 0.112619 0.302365
vn 0.946516 0.112619 0.302365
vn -0.377051 -0.337908 0.862352
vn -0.194590 -0.183732 0.963524
vn -0.863810 -0.173049 -0.473166
vn -0.194590 -0.183732 0.963524
vn -0.377051 -0.337908 0.862352
vn -0.377051 -0.337908 0.862352
vn -0.907462 -0.314801 -0.278233
vn -0.863810 -0.173049 -0.473166
vn 0.946516 0.112619 0.302365
vn 0.303723 0.142405 -0.942058
vn 0.003521 -0.632932 -0.774200
vn 0.003521 -0.632932 -0.774200
vn 0.646763 -0.547716 0.530759
vn 0.946516 0.112619 0.302365
vn 0.303723 0.142405 -0.942058
vn -0.907462 -0.314801 -0.278233
vn -0.943940 0.283893 -0.168473
vn -0.943940 0.283893 -0.168473
vn 0.003521 -0.632932 -0.774200
vn 0.303723 0.142405 -0.942058
vn -0.377051 -0.337908 0.862352
vn 0.946516 0.112619 0.302365
vn 0.646763 -0.547716 0.530759
vn 0.646763 -0.547716 0.530759
vn -0.456365 0.327261 0.827425
vn -0.377051 -0.337908 0.862352
vn -0.907462 -0.314801 -0.278233
vn -0.377051 -0.337908 0.862352
vn -0.456365 0.327261 0.827425
vn -0.456365 0.327261 0.827425
vn -0.943940 0.283893 -0.168473
vn -0.907462 -0.314801 -0.278233
vn 0.646763 -0.547716 0.530759
vn 0.003521 -0.632932 -0.774200
vn 0.185816 0.354625 -0.916359
vn 0.185816 0.354625 -0.916359
vn 0.842679 0.354158 0.405543
vn 0.646763 -0.547716 0.530759
vn 0.003521 -0.632932 -0.774200
vn -0.943940 0.283893 -0.168473
vn 0.185816 0.354625 -0.916359
vn -0.456365 0.327261 0.827425
vn 0.646763 -0.547716 0.530759
vn 0.842679 0.354158 0.405543
vn -0.943940 0.283893 -0.168473
vn -0.456365 0.327261 0.827425
vn 0.842679 0.354158 0.405543
vn 0.842679 0.354158 0.405543
vn 0.185816 0.354625 -0.916359
vn -0.943940 0.283893 -0.168473
vn -0.776628 -0.566903 -0.274718
vn 0.260573 -0.578797 -0.772720
vn -0.292944 -0.571956 0.766192
vn 0.761370 -0.584614 0.280253
vn -0.292944 -0.571956 0.766192
vn 0.260573 -0.578797 -0.772720
vn 0.942571 -0.034931 0.332175
vn 0.336947 -0.027083 -0.941134
vn 0.352319 0.009658 -0.935830
vn 0.336947 -0.027083 -0.941134
vn -0.937422 0.044075 -0.345394
vn -0.933523 -0.005177 -0.358479
vn -0.339356 0.036824 0.939937
vn 0.942571 -0.034931 0.332175
vn 0.948887 -0.001847 0.315611
vn -0.937422 0.044075 -0.345394
vn -0.339356 0.036824 0.939937
vn -0.327569 -0.016419 0.944685
vn 0.352319 0.009658 -0.935830
vn 0.948887 -0.001847 0.315611
vn 0.942571 -0.034931 0.332175
vn 0.942571 -0.034931 0.332175
vn 0.260573 -0.578797 -0.772720
vn 0.336947 -0.027083 -0.941134
vn 0.761370 -0.584614 0.280253
vn 0.260573 -0.578797 -0.772720
vn 0.942571 -0.034931 0.332175
vn -0.933523 -0.005177 -0.358479
vn 0.352319 0.009658 -0.935830
vn 0.336947 -0.027083 -0.941134
vn 0.336947 -0.027083 -0.941134
vn -0.776628 -0.566903 -0.274718
vn -0.937422 0.044075 -0.345394
vn 0.260573 -0.578797 -0.772720
vn -0.776628 -0.566903 -0.274718
vn 0.336947 -0.027083 -0.941134
vn 0.948887 -0.001847 0.315611
vn -0.327569 -0.016419 0.944685
vn -0.339356 0.036824 0.939937
vn -0.339356 0.036824 0.939937
vn 0.761370 -0.584614 0.280253
vn 0.942571 -0.034931 0.332175
vn -0.292944 -0.571956 0.766192
vn 0.761370 -0.584614 0.280253
vn -0.339356 0.036824 0.939937
vn -0.327569 -0.016419 0.944685
vn -0.933523 -0.005177 -0.358479
vn -0.937422 0.044075 -0.345394
vn -0.937422 0.044075 -0.345394
vn -0.292944 -0.571956 0.766192
vn -0.339356 0.036824 0.939937
vn -0.776628 -0.566903 -0.274718
vn -0.292944 -0.571956 0.766192
vn -0.937422 0.044075 -0.345394
s off
g GE_Kmec_Grip_A
usemtl GE_Kmec_Grip_ASG
f 3/47/1 2/46/2 7/51/3
f 6/45/4 7/51/5 2/46/6
f 4/49/7 3/47/8 8/50/9
f 7/51/10 8/50/11 3/47/12
f 2/53/13 1/52/14 6/57/15
f 5/58/16 6/57/17 1/52/18
f 1/52/19 4/56/20 5/58/21
f 8/59/22 5/58/23 4/56/24
usemtl GE_Kmec_Grip_ASG1
f 11/7/25 10/6/26 15/8/27
f 14/9/28 15/8/29 10/6/30
f 12/21/31 11/20/32 16/22/33
f 15/23/34 16/22/35 11/20/36
f 10/25/37 9/24/38 14/26/39
f 13/27/40 14/26/41 9/24/42
f 9/12/43 12/10/44 13/13/45
f 16/11/46 13/13/47 12/10/48
f 15/8/49 14/9/50 19/14/51
f 18/15/52 19/14/53 14/9/54
f 16/22/55 15/23/56 20/28/57
f 19/29/58 20/28/59 15/23/60
f 14/26/61 13/27/62 18/30/63
f 17/31/64 18/30/65 13/27/66
f 13/13/67 16/11/68 17/17/69
f 20/16/70 17/17/71 16/11/72
f 19/14/73 18/15/74 22/18/75
f 21/19/76 22/18/77 18/15/78
f 20/28/79 19/29/80 22/32/81
f 18/30/82 17/31/83 21/33/84
f 17/17/85 20/16/86 21/19/87
f 22/18/88 21/19/89 20/16/90
usemtl GE_Kmec_Grip_ASG
f 28/39/91 27/48/92 3/47/93
f 29/41/94 28/39/95 4/49/96
f 27/60/97 30/55/98 2/53/99
f 30/55/100 29/54/101 1/52/102
f 25/35/103 26/34/104 24/36/105
f 24/36/106 26/34/107 23/37/108
f 2/46/109 3/47/110 27/48/111
usemtl GE_Kmec_Grip_ASG2
f 25/3/112 27/38/113 28/40/114
f 25/3/115 24/2/116 27/38/117
usemtl GE_Kmec_Grip_ASG
f 3/47/118 4/49/119 28/39/120
usemtl GE_Kmec_Grip_ASG2
f 26/4/121 28/40/122 29/44/123
f 26/4/124 25/3/125 28/40/126
usemtl GE_Kmec_Grip_ASG
f 1/52/127 2/53/128 30/55/129
usemtl GE_Kmec_Grip_ASG2
f 24/2/130 30/43/131 27/38/132
f 24/2/133 23/5/134 30/43/135
usemtl GE_Kmec_Grip_ASG
f 4/56/136 1/52/137 29/54/138
usemtl GE_Kmec_Grip_ASG2
f 23/1/139 29/44/140 30/42/141
f 23/1/142 26/4/143 29/44/144
usemtl GE_Kmec_Grip_ASG
f 32/61/145 33/62/146 37/64/147
f 37/64/148 36/63/149 32/61/150
f 33/139/151 34/140/152 38/144/153
f 38/144/154 37/146/155 33/139/156
f 31/66/157 32/61/158 36/63/159
f 36/63/160 35/65/161 31/66/162
f 34/140/163 31/142/164 35/143/165
f 35/143/166 38/144/167 34/140/168
usemtl GE_Kmec_Grip_ASG1
f 36/67/169 37/68/170 41/69/171
f 41/69/172 40/70/173 36/67/174
f 37/79/175 38/80/176 42/81/177
f 42/81/178 41/82/179 37/79/180
f 35/83/181 36/84/182 40/85/183
f 40/85/184 39/86/185 35/83/186
f 38/71/187 35/72/188 39/73/189
f 39/73/190 42/78/191 38/71/192
f 40/70/193 41/69/194 45/74/195
f 45/74/196 44/75/197 40/70/198
f 41/82/199 42/81/200 46/87/201
f 46/87/202 45/88/203 41/82/204
f 39/86/205 40/85/206 44/89/207
f 44/89/208 43/90/209 39/86/210
f 42/78/211 39/73/212 43/77/213
f 43/77/214 46/76/215 42/78/216
f 44/91/217 45/92/218 49/93/219
f 49/93/220 48/94/221 44/91/222
f 45/105/223 46/106/224 50/107/225
f 50/107/226 49/108/227 45/105/228
f 43/109/229 44/110/230 48/111/231
f 48/111/232 47/112/233 43/109/234
f 46/95/235 43/97/236 47/98/237
f 47/98/238 50/96/239 46/95/240
f 48/94/241 49/93/242 53/99/243
f 53/99/244 52/100/245 48/94/246
f 49/108/247 50/107/248 54/113/249
f 54/113/250 53/114/251 49/108/252
f 47/112/253 48/111/254 52/115/255
f 52/115/256 51/116/257 47/112/258
f 50/96/259 47/98/260 51/102/261
f 51/102/262 54/101/263 50/96/264
f 52/100/265 53/99/266 56/103/267
f 56/103/268 55/104/269 52/100/270
f 53/114/271 54/113/272 56/117/273
f 51/116/274 52/115/275 55/118/276
f 54/101/277 51/102/278 55/104/279
f 55/104/280 56/103/281 54/101/282
usemtl GE_Kmec_Grip_ASG
f 60/119/283 59/120/284 57/121/285
f 58/122/286 57/121/287 59/120/288
f 61/123/289 62/124/290 33/62/291
f 62/141/292 63/125/293 34/140/294
f 64/128/295 61/123/296 32/61/297
f 63/145/298 64/126/299 31/142/300
f 33/62/301 32/61/302 61/123/303
usemtl GE_Kmec_Grip_ASG2
f 61/134/304 59/135/305 62/137/306
f 58/130/307 59/135/308 61/134/309
usemtl GE_Kmec_Grip_ASG
f 34/140/310 33/139/311 62/141/312
usemtl GE_Kmec_Grip_ASG2
f 62/137/313 60/136/314 63/138/315
f 59/135/316 60/136/317 62/137/318
usemtl GE_Kmec_Grip_ASG
f 32/61/319 31/66/320 64/127/321
usemtl GE_Kmec_Grip_ASG2
f 64/129/322 58/130/323 61/134/324
f 57/133/325 58/130/326 64/129/327
usemtl GE_Kmec_Grip_ASG
f 31/142/328 34/140/329 63/145/330
usemtl GE_Kmec_Grip_ASG2
f 63/131/331 57/133/332 64/129/333
f 60/132/334 57/133/335 63/131/336
