# This file uses meters as units for non-parametric coordinates.

mtllib ge_mission_calendar.max.fobj.mtl
g default
v -15.712528 -25.227678 -9.602971
v 15.713750 -25.227678 -9.602971
v -17.787848 -23.544169 -10.835616
v 17.789070 -23.544169 -10.835616
v -17.787848 23.594071 -10.835619
v -15.712528 25.277578 -9.602978
v 15.713750 25.277578 -9.602978
v 17.789070 23.594071 -10.835619
v -15.712528 -25.227672 -1.720039
v 15.713750 -25.227672 -1.720039
v -17.787848 -23.544164 -1.720041
v 17.789070 -23.544164 -1.720041
v -17.787848 23.594072 -1.720042
v 17.789070 23.594072 -1.720042
v -15.712528 25.277584 -1.720045
v 15.713750 25.277584 -1.720045
v -13.893282 -19.649598 -1.720041
v 13.894504 -19.649598 -1.720041
v -13.893282 19.699509 -1.720042
v 13.894504 19.699509 -1.720042
v -13.893282 -19.649598 1.498511
v 13.894504 -19.649598 1.498511
v -13.893282 19.699506 1.488685
v 13.894504 19.699506 1.488685
v -13.893282 -17.676093 10.831570
v 13.894504 -17.676093 10.831570
v -13.893282 0.389399 3.982602
v 13.894504 0.389399 3.982602
v 13.894504 9.862230 2.189774
v 13.894504 -8.354314 6.511652
v -13.893282 -8.354313 6.511652
v -13.893282 9.862230 2.189774
v 13.894504 9.862227 1.802523
v -13.893282 -8.871116 2.732193
v 13.894504 -8.871117 2.732193
v 13.894504 0.389398 2.050928
v -13.893282 -18.832437 4.192858
v -13.893282 9.862227 1.802523
v -13.893282 0.389398 2.050928
v 13.894504 -18.832437 4.192858
vt 0.371405 0.293335
vt 0.628595 0.293334
vt 0.349396 0.300454
vt 0.650604 0.300454
vt 0.349396 0.699546
vt 0.371405 0.706666
vt 0.628595 0.706666
vt 0.650604 0.699546
vt 0.392928 0.327925
vt 0.607072 0.327925
vt 0.378104 0.338492
vt 0.621896 0.338492
vt 0.378104 0.661508
vt 0.621896 0.661508
vt 0.392928 0.672075
vt 0.607072 0.672075
vt 0.389004 0.342824
vt 0.610996 0.342824
vt 0.389004 0.657176
vt 0.610996 0.657176
vt 1.005834 -0.980211
vt 1.641882 -0.980211
vt 0.011902 0.986280
vt 0.637872 0.986280
vt 0.011902 0.017942
vt 0.637872 0.017942
vt 0.011902 0.485988
vt 0.637872 0.485988
vt 0.637872 0.731413
vt 0.637872 0.259453
vt 0.011902 0.259453
vt 0.011902 0.731413
vt 0.839013 1.000000
vt 0.839013 0.000000
vt 0.988798 0.000000
vt 0.988797 1.000000
vt 0.839013 1.000000
vt 0.839013 0.000000
vt 0.988798 0.000000
vt 0.988797 1.000000
vt 0.839013 1.000000
vt 0.839013 0.000000
vt 0.988798 0.000000
vt 0.988797 1.000000
vt 0.839013 1.000000
vt 0.839013 0.000000
vt 0.988798 0.000000
vt 0.988797 1.000000
vt 1.005834 -0.042113
vt 1.641882 -0.042113
vt 0.011902 0.986280
vt 0.637872 0.731413
vt 0.637872 0.986280
vt 0.011902 0.259453
vt 0.637872 0.259453
vt 0.637872 0.485988
vt 0.011902 0.017942
vt 0.011902 0.731413
vt 0.011902 0.485988
vt 0.637872 0.017942
vn -0.249402 -0.892713 -0.375315
vn -0.662542 -0.390855 -0.638960
vn 0.662542 -0.390855 -0.638960
vn 0.662542 -0.390855 -0.638960
vn 0.249402 -0.892713 -0.375316
vn -0.249402 -0.892713 -0.375315
vn 0.249402 0.892713 -0.375317
vn -0.662542 0.390855 -0.638960
vn -0.249402 0.892713 -0.375317
vn 0.662542 0.390855 -0.638960
vn -0.662542 0.390855 -0.638960
vn 0.249402 0.892713 -0.375317
vn -0.662542 0.390855 -0.638960
vn 0.662542 -0.390855 -0.638960
vn -0.662542 -0.390855 -0.638960
vn 0.662542 -0.390855 -0.638960
vn -0.662542 0.390855 -0.638960
vn 0.662542 0.390855 -0.638960
vn 0.000000 0.000001 1.000000
vn 0.000000 0.000001 1.000000
vn 0.000000 0.000001 1.000000
vn 0.000000 0.000001 1.000000
vn 0.000000 0.000001 1.000000
vn 0.000000 0.000001 1.000000
vn 0.000000 0.034423 0.999407
vn 0.000000 0.000250 1.000000
vn 0.316393 0.032654 0.948066
vn 0.707051 0.000177 0.707163
vn 0.316393 0.032654 0.948066
vn 0.000000 0.000250 1.000000
vn 0.000000 0.000002 1.000000
vn 0.000000 0.000002 1.000000
vn 0.000000 0.000002 1.000000
vn 0.000000 0.000002 1.000000
vn 0.000000 0.000002 1.000000
vn 0.000000 0.000002 1.000000
vn -0.249402 -0.892713 -0.375315
vn 0.249402 -0.892713 -0.375316
vn 0.334211 -0.942498 0.000001
vn 0.334211 -0.942498 0.000001
vn -0.334211 -0.942498 0.000001
vn -0.249402 -0.892713 -0.375315
vn 0.249402 -0.892713 -0.375316
vn 0.662542 -0.390855 -0.638960
vn 0.902770 -0.430124 0.000000
vn 0.902770 -0.430124 0.000000
vn 0.334211 -0.942498 0.000001
vn 0.249402 -0.892713 -0.375316
vn 0.662542 -0.390855 -0.638960
vn 0.662542 0.390855 -0.638960
vn 0.902770 0.430124 -0.000000
vn 0.902770 0.430124 -0.000000
vn 0.902770 -0.430124 0.000000
vn 0.662542 -0.390855 -0.638960
vn 0.662542 0.390855 -0.638960
vn 0.249402 0.892713 -0.375317
vn 0.334211 0.942498 -0.000001
vn 0.334211 0.942498 -0.000001
vn 0.902770 0.430124 -0.000000
vn 0.662542 0.390855 -0.638960
vn 0.249402 0.892713 -0.375317
vn -0.249402 0.892713 -0.375317
vn -0.334211 0.942498 -0.000001
vn -0.334211 0.942498 -0.000001
vn 0.334211 0.942498 -0.000001
vn 0.249402 0.892713 -0.375317
vn -0.249402 0.892713 -0.375317
vn -0.662542 0.390855 -0.638960
vn -0.902770 0.430124 -0.000000
vn -0.902770 0.430124 -0.000000
vn -0.334211 0.942498 -0.000001
vn -0.249402 0.892713 -0.375317
vn -0.662542 0.390855 -0.638960
vn -0.662542 -0.390855 -0.638960
vn -0.902770 -0.430124 0.000000
vn -0.902770 -0.430124 0.000000
vn -0.902770 0.430124 -0.000000
vn -0.662542 0.390855 -0.638960
vn -0.662542 -0.390855 -0.638960
vn -0.249402 -0.892713 -0.375315
vn -0.334211 -0.942498 0.000001
vn -0.334211 -0.942498 0.000001
vn -0.902770 -0.430124 0.000000
vn -0.662542 -0.390855 -0.638960
vn 0.000000 0.000000 1.000000
vn -0.000000 0.000000 1.000000
vn -0.000000 -0.316228 0.948683
vn -0.000000 -0.316228 0.948683
vn 0.000000 -0.316228 0.948683
vn 0.000000 0.000000 1.000000
vn -0.000000 0.000000 1.000000
vn 0.000000 0.000000 1.000000
vn 0.000000 0.316228 0.948683
vn 0.000000 0.316228 0.948683
vn -0.000000 -0.316228 0.948683
vn -0.000000 0.000000 1.000000
vn 0.000000 0.000000 1.000000
vn -0.000000 0.000000 1.000000
vn -0.000000 0.316228 0.948683
vn -0.000000 0.316228 0.948683
vn 0.000000 0.316228 0.948683
vn 0.000000 0.000000 1.000000
vn -0.000000 0.000000 1.000000
vn 0.000000 0.000000 1.000000
vn 0.000000 -0.316228 0.948683
vn 0.000000 -0.316228 0.948683
vn -0.000000 0.316228 0.948683
vn -0.000000 0.000000 1.000000
vn 0.000000 -0.316228 0.948683
vn -0.000000 -0.316228 0.948683
vn 0.000000 -1.000000 -0.000000
vn 0.000000 -1.000000 -0.000000
vn 0.000000 -1.000000 -0.000000
vn 0.000000 -0.316228 0.948683
vn 1.000000 0.000000 0.000000
vn 1.000000 0.000000 0.000000
vn 0.316393 0.032654 0.948066
vn 0.316393 0.032654 0.948066
vn 0.707051 0.000177 0.707163
vn 1.000000 0.000000 0.000000
vn 0.000000 0.316228 0.948683
vn -0.000000 0.316228 0.948683
vn 0.000000 1.000000 0.000001
vn 0.000000 1.000000 0.000001
vn 0.000000 1.000000 0.000001
vn 0.000000 0.316228 0.948683
vn -1.000000 0.000000 0.000000
vn -1.000000 0.000000 0.000000
vn -1.000000 0.000000 0.000000
vn -1.000000 0.000000 0.000000
vn -1.000000 0.000000 0.000000
vn -1.000000 0.000000 0.000000
vn 0.000000 0.034423 0.999407
vn 0.000000 0.128740 0.991678
vn 0.316393 0.032654 0.948066
vn 0.000000 0.350176 0.936684
vn 0.000000 0.350176 0.936684
vn 0.000000 0.232165 0.972676
vn 0.000000 0.350176 0.936684
vn 0.000000 0.420467 0.907308
vn 0.000000 0.350176 0.936684
vn 0.000000 0.232165 0.972676
vn 0.000000 0.128740 0.991678
vn 0.000000 0.232165 0.972676
vn 0.000000 0.034423 0.999407
vn 0.000000 0.128740 0.991678
vn 0.000000 0.128740 0.991678
vn 0.000000 0.420467 0.907308
vn 0.000000 0.420467 0.907308
vn 0.000000 0.350176 0.936684
vn 0.000000 0.232165 0.972676
vn 0.000000 0.350176 0.936684
vn 0.000000 0.232165 0.972676
vn 0.000000 0.232165 0.972676
vn 0.000000 0.128740 0.991678
vn 0.000000 0.128740 0.991678
vn 0.000000 0.034423 0.999407
vn 0.000000 0.029050 0.999578
vn 0.316393 0.032654 0.948066
vn 0.000000 0.109296 0.994009
vn 0.000000 0.109296 0.994009
vn 0.000000 0.049805 0.998759
vn 0.000000 0.109296 0.994009
vn 0.000000 0.145082 0.989420
vn 0.000000 0.109296 0.994009
vn 0.000000 0.049805 0.998759
vn 0.000000 0.029050 0.999578
vn 0.000000 0.049805 0.998759
vn 0.000000 0.034423 0.999407
vn 0.000000 0.029050 0.999578
vn 0.000000 0.029050 0.999578
vn 0.000000 0.145082 0.989420
vn 0.000000 0.145082 0.989420
vn 0.000000 0.109296 0.994009
vn 0.000000 0.049805 0.998759
vn 0.000000 0.109296 0.994009
vn 0.000000 0.049805 0.998759
vn 0.000000 0.049805 0.998759
vn 0.000000 0.029050 0.999578
vn 0.000000 0.029050 0.999578
s off
g GE_Mission_Calendar
usemtl GE_Mission_CalendarSG
f 1/1/1 3/3/2 4/4/3
f 4/4/4 2/2/5 1/1/6
f 7/7/7 5/5/8 6/6/9
f 8/8/10 5/5/11 7/7/12
f 5/5/13 4/4/14 3/3/15
f 4/4/16 5/5/17 8/8/18
f 9/9/19 10/10/20 12/12/21
f 12/12/22 11/11/23 9/9/24
usemtl GE_Mission_CalendarSG1
f 23/49/25 21/21/26 24/50/27
f 22/22/28 24/50/29 21/21/30
usemtl GE_Mission_CalendarSG
f 13/13/31 14/14/32 16/16/33
f 16/16/34 15/15/35 13/13/36
f 1/1/37 2/2/38 10/10/39
f 10/10/40 9/9/41 1/1/42
f 2/2/43 4/4/44 12/12/45
f 12/12/46 10/10/47 2/2/48
f 4/4/49 8/8/50 14/14/51
f 14/14/52 12/12/53 4/4/54
f 8/8/55 7/7/56 16/16/57
f 16/16/58 14/14/59 8/8/60
f 7/7/61 6/6/62 15/15/63
f 15/15/64 16/16/65 7/7/66
f 6/6/67 5/5/68 13/13/69
f 13/13/70 15/15/71 6/6/72
f 5/5/73 3/3/74 11/11/75
f 11/11/76 13/13/77 5/5/78
f 3/3/79 1/1/80 9/9/81
f 9/9/82 11/11/83 3/3/84
f 11/11/85 12/12/86 18/18/87
f 18/18/88 17/17/89 11/11/90
f 12/12/91 14/14/92 20/20/93
f 20/20/94 18/18/95 12/12/96
f 14/14/97 13/13/98 19/19/99
f 19/19/100 20/20/101 14/14/102
f 13/13/103 11/11/104 17/17/105
f 17/17/106 19/19/107 13/13/108
usemtl GE_Mission_CalendarSG1
f 17/45/109 18/46/110 22/47/111
f 22/47/112 21/48/113 17/45/114
f 18/33/115 20/34/116 24/35/117
f 24/35/118 22/36/119 18/33/120
f 20/41/121 19/42/122 23/43/123
f 23/43/124 24/44/125 20/41/126
f 19/37/127 17/38/128 21/39/129
f 21/39/130 23/40/131 19/37/132
f 23/23/133 29/29/134 24/24/135
f 31/31/136 30/30/137 28/28/138
f 31/31/139 25/25/140 30/30/141
f 28/28/142 32/32/143 27/27/144
f 23/23/145 32/32/146 29/29/147
f 25/25/148 26/26/149 30/30/150
f 27/27/151 31/31/152 28/28/153
f 28/28/154 29/29/155 32/32/156
f 23/51/157 33/52/158 24/53/159
f 34/54/160 35/55/161 36/56/162
f 34/54/163 37/57/164 35/55/165
f 36/56/166 38/58/167 39/59/168
f 23/51/169 38/58/170 33/52/171
f 37/57/172 40/60/173 35/55/174
f 39/59/175 34/54/176 36/56/177
f 36/56/178 33/52/179 38/58/180
g default
v -15.712528 -26.644940 4.309629
v 15.713750 -26.644940 4.309629
v -17.787848 -25.803301 2.400373
v 17.789070 -25.803301 2.400373
v -17.787848 15.019610 -21.168752
v -15.712528 17.093891 -20.943009
v 15.713750 17.093891 -20.943009
v 17.789070 15.019610 -21.168752
v -15.712528 -22.703469 11.136445
v 15.713750 -22.703469 11.136445
v -17.787848 -21.245510 10.294690
v 17.789070 -21.245510 10.294690
v -17.787848 19.577400 -13.274433
v 17.789070 19.577400 -13.274433
v -15.712528 21.035362 -14.116192
v 15.713750 21.035362 -14.116192
v -13.893282 -17.872717 8.347406
v 13.894504 -17.872717 8.347406
v -13.893282 16.204609 -11.327151
v 13.894504 16.204609 -11.327151
v -13.893282 -16.263441 11.134754
v 13.894504 -16.263441 11.134754
v -13.893282 17.808972 -8.548310
v 13.894504 17.808972 -8.548310
v -13.893282 -9.887803 18.230667
v 13.894504 -9.887803 18.230667
v -13.893282 2.332886 3.266540
v 13.894504 2.332886 3.266540
v 13.894504 9.640185 -3.022511
v 13.894504 -3.974866 9.828619
v -13.893282 -3.974865 9.828618
v -13.893282 9.640185 -3.022511
v 13.894504 9.446556 -3.357879
v -13.893282 -6.312159 6.813913
v 13.894504 -6.312160 6.813913
v 13.894504 1.367048 1.593662
v -13.893282 -14.208582 13.059547
v -13.893282 9.446556 -3.357879
v -13.893282 1.367048 1.593662
v 13.894504 -14.208582 13.059547
vt 0.371405 0.293335
vt 0.628595 0.293334
vt 0.349396 0.300454
vt 0.650604 0.300454
vt 0.349396 0.699546
vt 0.371405 0.706666
vt 0.628595 0.706666
vt 0.650604 0.699546
vt 0.392928 0.327925
vt 0.607072 0.327925
vt 0.378104 0.338492
vt 0.621896 0.338492
vt 0.378104 0.661508
vt 0.621896 0.661508
vt 0.392928 0.672075
vt 0.607072 0.672075
vt 0.389004 0.342824
vt 0.610996 0.342824
vt 0.389004 0.657176
vt 0.610996 0.657176
vt 1.005834 -0.980211
vt 1.641882 -0.980211
vt 0.011902 0.986280
vt 0.637872 0.986280
vt 0.011902 0.017942
vt 0.637872 0.017942
vt 0.011902 0.485988
vt 0.637872 0.485988
vt 0.637872 0.731413
vt 0.637872 0.259453
vt 0.011902 0.259453
vt 0.011902 0.731413
vt 0.839013 1.000000
vt 0.839013 0.000000
vt 0.988798 0.000000
vt 0.988797 1.000000
vt 0.839013 1.000000
vt 0.839013 0.000000
vt 0.988798 0.000000
vt 0.988797 1.000000
vt 0.839013 1.000000
vt 0.839013 0.000000
vt 0.988798 0.000000
vt 0.988797 1.000000
vt 0.839013 1.000000
vt 0.839013 0.000000
vt 0.988798 0.000000
vt 0.988797 1.000000
vt 1.005834 -0.042113
vt 1.641882 -0.042113
vt 0.011902 0.986280
vt 0.637872 0.731413
vt 0.637872 0.986280
vt 0.011902 0.259453
vt 0.637872 0.259453
vt 0.637872 0.485988
vt 0.011902 0.017942
vt 0.011902 0.731413
vt 0.011902 0.485988
vt 0.637872 0.017942
vn -0.249402 -0.960770 0.121324
vn -0.662542 -0.657971 -0.357928
vn 0.662542 -0.657971 -0.357928
vn 0.662542 -0.657971 -0.357928
vn 0.249402 -0.960770 0.121324
vn -0.249402 -0.960770 0.121324
vn 0.249402 0.585454 -0.771390
vn -0.662542 0.019010 -0.748783
vn -0.249402 0.585454 -0.771390
vn 0.662542 0.019010 -0.748783
vn -0.662542 0.019010 -0.748783
vn 0.249402 0.585454 -0.771390
vn -0.662542 0.019010 -0.748783
vn 0.662542 -0.657971 -0.357928
vn -0.662542 -0.657971 -0.357928
vn 0.662542 -0.657971 -0.357928
vn -0.662542 0.019010 -0.748783
vn 0.662542 0.019010 -0.748783
vn 0.000000 0.500001 0.866025
vn 0.000000 0.500001 0.866025
vn 0.000000 0.500001 0.866025
vn 0.000000 0.500001 0.866025
vn 0.000000 0.500001 0.866025
vn 0.000000 0.500001 0.866025
vn 0.000000 0.529515 0.848301
vn 0.000000 0.500216 0.865900
vn 0.316393 0.502312 0.804722
vn 0.707051 0.353734 0.612333
vn 0.316393 0.502312 0.804722
vn 0.000000 0.500216 0.865900
vn 0.000000 0.500002 0.866024
vn 0.000000 0.500002 0.866024
vn 0.000000 0.500002 0.866024
vn 0.000000 0.500002 0.866024
vn 0.000000 0.500002 0.866024
vn 0.000000 0.500002 0.866024
vn -0.249402 -0.960770 0.121324
vn 0.249402 -0.960770 0.121324
vn 0.334211 -0.816227 0.471250
vn 0.334211 -0.816227 0.471250
vn -0.334211 -0.816227 0.471250
vn -0.249402 -0.960770 0.121324
vn 0.249402 -0.960770 0.121324
vn 0.662542 -0.657971 -0.357928
vn 0.902770 -0.372498 0.215062
vn 0.902770 -0.372498 0.215062
vn 0.334211 -0.816227 0.471250
vn 0.249402 -0.960770 0.121324
vn 0.662542 -0.657971 -0.357928
vn 0.662542 0.019010 -0.748783
vn 0.902770 0.372498 -0.215062
vn 0.902770 0.372498 -0.215062
vn 0.902770 -0.372498 0.215062
vn 0.662542 -0.657971 -0.357928
vn 0.662542 0.019010 -0.748783
vn 0.249402 0.585454 -0.771390
vn 0.334211 0.816227 -0.471250
vn 0.334211 0.816227 -0.471250
vn 0.902770 0.372498 -0.215062
vn 0.662542 0.019010 -0.748783
vn 0.249402 0.585454 -0.771390
vn -0.249402 0.585454 -0.771390
vn -0.334211 0.816227 -0.471250
vn -0.334211 0.816227 -0.471250
vn 0.334211 0.816227 -0.471250
vn 0.249402 0.585454 -0.771390
vn -0.249402 0.585454 -0.771390
vn -0.662542 0.019010 -0.748783
vn -0.902770 0.372498 -0.215062
vn -0.902770 0.372498 -0.215062
vn -0.334211 0.816227 -0.471250
vn -0.249402 0.585454 -0.771390
vn -0.662542 0.019010 -0.748783
vn -0.662542 -0.657971 -0.357928
vn -0.902770 -0.372498 0.215062
vn -0.902770 -0.372498 0.215062
vn -0.902770 0.372498 -0.215062
vn -0.662542 0.019010 -0.748783
vn -0.662542 -0.657971 -0.357928
vn -0.249402 -0.960770 0.121324
vn -0.334211 -0.816227 0.471250
vn -0.334211 -0.816227 0.471250
vn -0.902770 -0.372498 0.215062
vn -0.662542 -0.657971 -0.357928
vn 0.000000 0.500000 0.866025
vn -0.000000 0.500000 0.866025
vn -0.000000 0.200481 0.979698
vn -0.000000 0.200481 0.979698
vn 0.000000 0.200480 0.979698
vn 0.000000 0.500000 0.866025
vn -0.000000 0.500000 0.866025
vn 0.000000 0.500000 0.866025
vn -0.000000 0.748203 0.663470
vn -0.000000 0.748203 0.663470
vn -0.000000 0.200481 0.979698
vn -0.000000 0.500000 0.866025
vn 0.000000 0.500000 0.866025
vn 0.000000 0.500000 0.866025
vn 0.000000 0.748203 0.663470
vn 0.000000 0.748203 0.663470
vn -0.000000 0.748203 0.663470
vn 0.000000 0.500000 0.866025
vn 0.000000 0.500000 0.866025
vn 0.000000 0.500000 0.866025
vn 0.000000 0.200480 0.979698
vn 0.000000 0.200480 0.979698
vn 0.000000 0.748203 0.663470
vn 0.000000 0.500000 0.866025
vn 0.000000 0.200480 0.979698
vn -0.000000 0.200481 0.979698
vn 0.000000 -0.866025 0.500000
vn 0.000000 -0.866025 0.500000
vn 0.000000 -0.866025 0.500000
vn 0.000000 0.200480 0.979698
vn 1.000000 0.000000 0.000000
vn 1.000000 0.000000 0.000000
vn 0.316393 0.502312 0.804722
vn 0.316393 0.502312 0.804722
vn 0.707051 0.353734 0.612333
vn 1.000000 0.000000 0.000000
vn -0.000000 0.748203 0.663470
vn 0.000000 0.748203 0.663470
vn 0.000000 0.866026 -0.500000
vn 0.000000 0.866026 -0.500000
vn 0.000000 0.866026 -0.500000
vn -0.000000 0.748203 0.663470
vn -1.000000 0.000000 0.000000
vn -1.000000 0.000000 0.000000
vn -1.000000 0.000000 0.000000
vn -1.000000 0.000000 0.000000
vn -1.000000 0.000000 0.000000
vn -1.000000 0.000000 0.000000
vn 0.000000 0.529515 0.848301
vn 0.000000 0.607331 0.794449
vn 0.316393 0.502312 0.804722
vn 0.000000 0.771603 0.636104
vn 0.000000 0.771603 0.636104
vn 0.000000 0.687399 0.726280
vn 0.000000 0.771603 0.636104
vn 0.000000 0.817789 0.575518
vn 0.000000 0.771603 0.636104
vn 0.000000 0.687399 0.726280
vn 0.000000 0.607331 0.794449
vn 0.000000 0.687399 0.726280
vn 0.000000 0.529515 0.848301
vn 0.000000 0.607331 0.794449
vn 0.000000 0.607331 0.794449
vn 0.000000 0.817789 0.575518
vn 0.000000 0.817789 0.575518
vn 0.000000 0.771603 0.636104
vn 0.000000 0.687399 0.726280
vn 0.000000 0.771603 0.636104
vn 0.000000 0.687399 0.726280
vn 0.000000 0.687399 0.726280
vn 0.000000 0.607331 0.794449
vn 0.000000 0.607331 0.794449
vn 0.000000 0.529515 0.848301
vn 0.000000 0.524947 0.851135
vn 0.316393 0.502312 0.804722
vn -0.000000 0.591658 0.806189
vn -0.000000 0.591658 0.806189
vn -0.000000 0.542512 0.840048
vn -0.000000 0.591658 0.806189
vn -0.000000 0.620355 0.784321
vn -0.000000 0.591658 0.806189
vn -0.000000 0.542512 0.840048
vn 0.000000 0.524947 0.851135
vn 0.000000 0.542512 0.840048
vn 0.000000 0.529515 0.848301
vn 0.000000 0.524947 0.851135
vn 0.000000 0.524947 0.851135
vn -0.000000 0.620355 0.784321
vn 0.000000 0.620355 0.784321
vn -0.000000 0.591658 0.806189
vn 0.000000 0.542512 0.840048
vn -0.000000 0.591658 0.806189
vn -0.000000 0.542512 0.840048
vn -0.000000 0.542512 0.840048
vn 0.000000 0.524947 0.851135
vn 0.000000 0.524947 0.851135
s off
g GE_Mission_Calendar_ncl1_1
usemtl GE_Mission_CalendarSG
f 41/61/181 43/63/182 44/64/183
f 44/64/184 42/62/185 41/61/186
f 47/67/187 45/65/188 46/66/189
f 48/68/190 45/65/191 47/67/192
f 45/65/193 44/64/194 43/63/195
f 44/64/196 45/65/197 48/68/198
f 49/69/199 50/70/200 52/72/201
f 52/72/202 51/71/203 49/69/204
usemtl GE_Mission_CalendarSG1
f 63/109/205 61/81/206 64/110/207
f 62/82/208 64/110/209 61/81/210
usemtl GE_Mission_CalendarSG
f 53/73/211 54/74/212 56/76/213
f 56/76/214 55/75/215 53/73/216
f 41/61/217 42/62/218 50/70/219
f 50/70/220 49/69/221 41/61/222
f 42/62/223 44/64/224 52/72/225
f 52/72/226 50/70/227 42/62/228
f 44/64/229 48/68/230 54/74/231
f 54/74/232 52/72/233 44/64/234
f 48/68/235 47/67/236 56/76/237
f 56/76/238 54/74/239 48/68/240
f 47/67/241 46/66/242 55/75/243
f 55/75/244 56/76/245 47/67/246
f 46/66/247 45/65/248 53/73/249
f 53/73/250 55/75/251 46/66/252
f 45/65/253 43/63/254 51/71/255
f 51/71/256 53/73/257 45/65/258
f 43/63/259 41/61/260 49/69/261
f 49/69/262 51/71/263 43/63/264
f 51/71/265 52/72/266 58/78/267
f 58/78/268 57/77/269 51/71/270
f 52/72/271 54/74/272 60/80/273
f 60/80/274 58/78/275 52/72/276
f 54/74/277 53/73/278 59/79/279
f 59/79/280 60/80/281 54/74/282
f 53/73/283 51/71/284 57/77/285
f 57/77/286 59/79/287 53/73/288
usemtl GE_Mission_CalendarSG1
f 57/105/289 58/106/290 62/107/291
f 62/107/292 61/108/293 57/105/294
f 58/93/295 60/94/296 64/95/297
f 64/95/298 62/96/299 58/93/300
f 60/101/301 59/102/302 63/103/303
f 63/103/304 64/104/305 60/101/306
f 59/97/307 57/98/308 61/99/309
f 61/99/310 63/100/311 59/97/312
f 63/83/313 69/89/314 64/84/315
f 71/91/316 70/90/317 68/88/318
f 71/91/319 65/85/320 70/90/321
f 68/88/322 72/92/323 67/87/324
f 63/83/325 72/92/326 69/89/327
f 65/85/328 66/86/329 70/90/330
f 67/87/331 71/91/332 68/88/333
f 68/88/334 69/89/335 72/92/336
f 63/111/337 73/112/338 64/113/339
f 74/114/340 75/115/341 76/116/342
f 74/114/343 77/117/344 75/115/345
f 76/116/346 78/118/347 79/119/348
f 63/111/349 78/118/350 73/112/351
f 77/117/352 80/120/353 75/115/354
f 79/119/355 74/114/356 76/116/357
f 76/116/358 73/112/359 78/118/360
