# This file uses meters as units for non-parametric coordinates.

mtllib ge_mission_evenement.max.fobj.mtl
g default
v -4.236170 -52.733505 -2.210655
v 4.597555 -52.733505 -2.210655
v -5.400454 -41.333726 -2.765841
v 5.761839 -41.333726 -2.765840
v -4.236170 -52.733505 2.230818
v 4.597555 -52.733505 2.230818
v -5.400454 -41.333729 2.786002
v 5.761839 -41.333729 2.786002
v -5.625319 -27.602378 -3.038077
v 5.625319 -27.602378 -3.038078
v -10.316835 48.719323 -5.571842
v 10.316834 48.719323 -5.571842
v -5.625320 -27.602375 3.038077
v 5.625319 -27.602375 3.038077
v -10.316835 48.719299 5.571825
v 10.316835 48.719299 5.571826
v -7.526278 53.766519 -4.512336
v 7.526281 53.766519 -4.512336
v -7.526278 53.766465 4.512314
v 7.526281 53.766465 4.512314
v -4.565810 -29.721397 -1.978569
v 4.565810 -29.721397 -1.978569
v -4.565810 -29.721394 1.978569
v 4.565810 -29.721394 1.978569
v -4.109176 -40.236142 -1.474563
v 4.470562 -40.236142 -1.474563
v -4.109176 -40.236142 1.494726
v 4.470562 -40.236142 1.494726
v -3.429122 -53.766531 -1.403608
v 3.790507 -53.766531 -1.403608
v -3.429122 -53.766531 1.423770
v 3.790507 -53.766531 1.423770
vt 1.000000 0.000000
vt 0.000000 0.000000
vt 0.000000 0.000000
vt 1.000000 0.000000
vt 1.000000 0.000000
vt 1.000000 0.000000
vt 1.000000 0.000000
vt 0.000000 0.000000
vt 1.000000 0.000000
vt 0.000000 0.000000
vt 1.000000 0.000000
vt 1.000000 0.000000
vt 1.000000 0.000000
vt 1.000000 0.000000
vt 1.000000 0.000000
vt 0.000000 0.000000
vt 1.000000 0.000000
vt 0.000000 0.000000
vt 1.000000 1.000000
vt 0.000000 1.000000
vt 1.000000 1.000000
vt 0.000000 1.000000
vt 1.000000 1.000000
vt 1.000000 1.000000
vt 0.000000 1.000000
vt 1.000000 1.000000
vt 1.000000 1.000000
vt 0.000000 1.000000
vt 1.000000 1.000000
vt 0.000000 1.000000
vt 1.000000 1.000000
vt 1.000000 1.000000
vt 1.000000 1.000000
vt 0.000000 0.000000
vt 0.000000 0.000000
vt 0.000000 1.000000
vt 0.001191 0.016491
vt 0.998809 0.016491
vt 0.998809 0.981723
vt 0.001191 0.981723
vt 0.024406 0.000000
vt 0.975594 0.000000
vt 0.975594 0.998153
vt 0.024406 0.998153
vt 0.024406 0.000000
vt 0.975594 0.000000
vt 0.975594 0.998153
vt 0.024406 0.998153
vt 0.024406 0.000000
vt 0.975594 0.000000
vt 0.975594 0.998153
vt 0.024406 0.998153
vt 0.000000 0.000000
vt 1.000000 0.000000
vt 1.000000 1.000000
vt 0.000000 1.000000
vt 0.000000 0.000000
vt 1.000000 1.000000
vt 0.000000 1.000000
vt 0.000000 0.000000
vt 1.000000 1.000000
vt 0.000000 1.000000
vt 1.000000 1.000000
vt 0.000000 1.000000
vt 0.000000 0.000000
vt 1.000000 0.000000
vt 1.000000 1.000000
vt 0.000000 1.000000
vt 0.000000 0.000000
vt 1.000000 0.000000
vt 1.000000 1.000000
vt 0.000000 1.000000
vt 0.000000 0.000000
vt 0.000000 1.000000
vt 0.000000 0.000000
vt 1.000000 0.000000
vt 0.000000 1.000000
vt 0.000000 0.000000
vt 1.000000 0.000000
vt 1.000000 1.000000
vt 0.000000 1.000000
vt 0.000000 0.000000
vt 1.000000 0.000000
vt 1.000000 1.000000
vt 0.000000 1.000000
vt 1.000000 0.000000
vt 1.000000 1.000000
vt 0.000000 0.000000
vt 1.000000 0.000000
vt 1.000000 1.000000
vt 0.000000 1.000000
vt 0.000000 0.000000
vt 0.000000 1.000000
vt 0.000000 0.000000
vt 1.000000 0.000000
vt 1.000000 1.000000
vt 0.000000 1.000000
vt 0.000000 0.000000
vt 1.000000 0.000000
vt 1.000000 1.000000
vt 0.000000 1.000000
vt 1.000000 0.000000
vt 1.000000 1.000000
vt 0.000000 1.000000
vt 0.000000 0.000000
vt 1.000000 0.000000
vt 1.000000 1.000000
vt 0.000000 1.000000
vt 0.000000 0.000000
vt 0.000000 1.000000
vt 0.000000 0.000000
vt 0.000000 1.000000
vn 0.000000 -0.048644 -0.998816
vn 0.000000 -0.048644 -0.998816
vn 0.000000 -0.048644 -0.998816
vn 0.000000 -0.048644 -0.998816
vn 0.000000 -0.048644 -0.998816
vn 0.000000 -0.048644 -0.998816
vn 0.000000 -0.048644 0.998816
vn 0.000000 -0.048644 0.998816
vn 0.000000 -0.048644 0.998816
vn 0.000000 -0.048644 0.998816
vn 0.000000 -0.048644 0.998816
vn 0.000000 -0.048644 0.998816
vn 0.000000 -1.000000 -0.000000
vn 0.000000 -1.000000 -0.000000
vn 0.000000 -1.000000 -0.000000
vn 0.000000 -1.000000 -0.000000
vn 0.000000 -1.000000 -0.000000
vn 0.000000 -1.000000 -0.000000
vn 0.994825 -0.101604 -0.000000
vn 0.994825 -0.101604 -0.000000
vn 0.994825 -0.101604 -0.000000
vn 0.994825 -0.101604 -0.000000
vn 0.994825 -0.101604 -0.000000
vn 0.994825 -0.101604 -0.000000
vn 0.000000 1.000000 0.000000
vn 0.000000 1.000000 0.000000
vn 0.000000 1.000000 0.000000
vn 0.000000 1.000000 0.000000
vn 0.000000 1.000000 0.000000
vn 0.000000 1.000000 0.000000
vn -0.994825 -0.101604 -0.000000
vn -0.994825 -0.101604 -0.000000
vn -0.994825 -0.101604 -0.000000
vn -0.994825 -0.101604 -0.000000
vn -0.994825 -0.101604 -0.000000
vn -0.994825 -0.101604 -0.000000
vn -0.000000 -0.033180 -0.999449
vn 0.000000 -0.033180 -0.999449
vn 0.000000 -0.033180 -0.999449
vn 0.000000 -0.033180 -0.999449
vn -0.000000 -0.033180 -0.999449
vn -0.000000 -0.033180 -0.999449
vn -0.000000 -0.033180 0.999449
vn 0.000000 -0.033180 0.999449
vn -0.000000 -0.033180 0.999449
vn -0.000000 -0.033180 0.999449
vn -0.000000 -0.033180 0.999449
vn -0.000000 -0.033180 0.999449
vn 0.000000 -1.000000 0.000001
vn 0.000000 -1.000000 0.000001
vn 0.000000 -1.000000 0.000001
vn 0.000000 -1.000000 0.000001
vn 0.000000 -1.000000 0.000001
vn 0.000000 -1.000000 0.000001
vn 0.998116 -0.061354 0.000000
vn 0.998116 -0.061354 -0.000000
vn 0.998116 -0.061354 -0.000000
vn 0.998116 -0.061354 -0.000000
vn 0.998116 -0.061354 0.000000
vn 0.998116 -0.061354 0.000000
vn -0.000000 1.000000 0.000006
vn 0.000000 1.000000 0.000006
vn 0.000000 1.000000 0.000006
vn 0.000000 1.000000 0.000006
vn -0.000000 1.000000 0.000006
vn -0.000000 1.000000 0.000006
vn -0.998116 -0.061354 -0.000000
vn -0.998116 -0.061354 -0.000000
vn -0.998116 -0.061354 -0.000000
vn -0.998116 -0.061354 -0.000000
vn -0.998116 -0.061354 -0.000000
vn -0.998116 -0.061354 -0.000000
vn 0.000000 0.205442 -0.978669
vn 0.000000 0.205442 -0.978669
vn 0.000000 0.205442 -0.978669
vn -0.000000 0.205442 -0.978669
vn -0.000000 0.205442 -0.978669
vn -0.000000 0.205442 -0.978669
vn -0.000000 0.205444 0.978669
vn -0.000000 0.205444 0.978669
vn -0.000000 0.205444 0.978669
vn -0.000000 0.205444 0.978669
vn -0.000000 0.205444 0.978669
vn -0.000000 0.205444 0.978669
vn 0.875145 0.483860 0.000001
vn 0.875145 0.483860 0.000001
vn 0.875145 0.483860 0.000001
vn 0.875144 0.483863 0.000003
vn 0.875144 0.483863 0.000003
vn 0.875144 0.483863 0.000003
vn -0.875144 0.483863 0.000001
vn -0.875144 0.483863 0.000001
vn -0.875144 0.483863 0.000001
vn -0.875145 0.483860 0.000003
vn -0.875145 0.483860 0.000003
vn -0.875145 0.483860 0.000003
vn -0.000000 -0.447213 -0.894427
vn -0.000000 -0.447213 -0.894427
vn -0.000000 -0.447213 -0.894427
vn 0.000000 -0.447213 -0.894427
vn 0.000000 -0.447213 -0.894428
vn 0.000000 -0.447213 -0.894427
vn 0.000000 -0.447213 0.894427
vn 0.000000 -0.447213 0.894427
vn 0.000000 -0.447213 0.894428
vn 0.000000 -0.447213 0.894427
vn 0.000000 -0.447213 0.894428
vn 0.000000 -0.447213 0.894428
vn 0.894427 -0.447213 0.000000
vn 0.894427 -0.447213 0.000000
vn 0.894427 -0.447213 0.000000
vn 0.894427 -0.447213 0.000000
vn 0.894427 -0.447213 0.000000
vn 0.894427 -0.447213 0.000000
vn -0.894427 -0.447213 0.000000
vn -0.894427 -0.447213 0.000000
vn -0.894427 -0.447213 0.000000
vn -0.894427 -0.447214 0.000000
vn -0.894427 -0.447214 0.000000
vn -0.894427 -0.447214 0.000000
vn 0.000000 0.761940 -0.647648
vn 0.000000 0.761940 -0.647648
vn 0.000000 0.761940 -0.647648
vn 0.000000 0.761940 -0.647648
vn 0.000000 0.761940 -0.647648
vn 0.000000 0.761940 -0.647648
vn 0.000000 0.761939 0.647649
vn 0.000000 0.761939 0.647649
vn 0.000000 0.761939 0.647649
vn 0.000000 0.761939 0.647649
vn 0.000000 0.761939 0.647649
vn 0.000000 0.761939 0.647649
vn 0.647648 0.761940 0.000000
vn 0.647648 0.761940 0.000000
vn 0.647648 0.761940 0.000000
vn 0.647649 0.761939 0.000000
vn 0.647649 0.761939 0.000000
vn 0.647649 0.761939 0.000000
vn -0.647649 0.761939 0.000000
vn -0.647649 0.761939 0.000000
vn -0.647649 0.761939 0.000000
vn -0.647648 0.761940 0.000000
vn -0.647648 0.761940 0.000000
vn -0.647648 0.761940 0.000000
vn 0.000000 -0.615642 -0.788026
vn 0.000000 -0.615642 -0.788026
vn 0.000000 -0.615642 -0.788026
vn 0.000000 -0.615642 -0.788026
vn 0.000000 -0.615642 -0.788026
vn 0.000000 -0.615642 -0.788026
vn 0.000000 -0.615642 0.788026
vn 0.000000 -0.615642 0.788026
vn 0.000000 -0.615642 0.788026
vn 0.000000 -0.615642 0.788026
vn 0.000000 -0.615642 0.788026
vn 0.000000 -0.615642 0.788026
vn 0.788026 -0.615643 -0.000000
vn 0.788026 -0.615643 -0.000000
vn 0.788026 -0.615643 -0.000000
vn 0.788025 -0.615643 -0.000000
vn 0.788025 -0.615643 -0.000000
vn 0.788025 -0.615643 -0.000000
vn -0.788026 -0.615642 -0.000000
vn -0.788026 -0.615642 -0.000000
vn -0.788026 -0.615642 -0.000000
vn -0.788026 -0.615642 -0.000000
vn -0.788026 -0.615642 -0.000000
vn -0.788026 -0.615642 -0.000000
s off
g Ge_Mission_Evenement
usemtl Ge_Mission_EvenementSG
f 1/75/1 3/76/2 4/33/3
f 4/33/4 2/77/5 1/75/6
f 5/94/7 6/95/8 8/96/9
f 8/96/10 7/97/11 5/94/12
f 29/78/13 30/79/14 32/80/15
f 32/80/16 31/81/17 29/78/18
f 2/98/19 4/99/20 8/100/21
f 8/100/22 6/101/23 2/98/24
f 26/34/25 25/102/26 27/103/27
f 27/103/28 28/104/29 26/34/30
f 3/82/31 1/83/32 5/84/33
f 5/84/34 7/85/35 3/82/36
f 9/45/37 11/46/38 12/47/39
f 12/47/40 10/48/41 9/45/42
f 13/37/43 14/38/44 16/39/45
f 16/39/46 15/40/47 13/37/48
f 21/65/49 22/66/50 24/67/51
f 24/67/52 23/68/53 21/65/54
f 10/41/55 12/42/56 16/43/57
f 16/43/58 14/44/59 10/41/60
f 18/18/61 17/17/62 19/19/63
f 19/19/64 20/20/65 18/18/66
f 11/49/67 9/50/68 13/51/69
f 13/51/70 15/52/71 11/49/72
f 12/60/73 11/11/74 17/61/75
f 17/61/76 18/62/77 12/60/78
f 15/53/79 16/54/80 20/55/81
f 20/55/82 19/56/83 15/53/84
f 16/16/85 12/12/86 18/63/87
f 18/63/88 20/64/89 16/16/90
f 11/57/91 15/15/92 19/58/93
f 19/58/94 17/59/95 11/57/96
f 9/69/97 10/70/98 22/71/99
f 22/71/100 21/72/101 9/69/102
f 14/111/103 13/13/104 23/23/105
f 23/23/106 24/112/107 14/111/108
f 10/10/109 14/14/110 24/24/111
f 24/24/112 22/22/113 10/10/114
f 13/73/115 9/9/116 21/21/117
f 21/21/118 23/74/119 13/73/120
f 4/35/121 3/86/122 25/87/123
f 25/87/124 26/36/125 4/35/126
f 7/105/127 8/106/128 28/107/129
f 28/107/130 27/108/131 7/105/132
f 8/8/133 4/4/134 26/26/135
f 26/26/136 28/28/137 8/8/138
f 3/3/139 7/7/140 27/27/141
f 27/27/142 25/25/143 3/3/144
f 1/88/145 2/89/146 30/90/147
f 30/90/148 29/91/149 1/88/150
f 6/109/151 5/5/152 31/31/153
f 31/31/154 32/110/155 6/109/156
f 2/2/157 6/6/158 32/32/159
f 32/32/160 30/30/161 2/2/162
f 5/92/163 1/1/164 29/29/165
f 29/29/166 31/93/167 5/92/168
g default
v -4.236170 -46.773890 24.452269
v 4.597555 -46.773890 24.452269
v -5.400454 -37.178981 18.271574
v 5.761839 -37.178981 18.271574
v -4.236170 -44.553155 28.298700
v 4.597555 -44.553155 28.298700
v -5.400454 -34.403062 23.079613
v 5.761839 -34.403062 23.079613
v -5.625319 -25.423399 11.170138
v 5.625319 -25.423402 11.170137
v -10.316835 39.406264 -29.185015
v 10.316834 39.406264 -29.185015
v -5.625320 -22.385320 16.432241
v 5.625319 -22.385320 16.432241
v -10.316835 44.978076 -19.534305
v 10.316835 44.978076 -19.534305
v -7.526278 44.307017 -30.791056
v 7.526280 44.307017 -30.791056
v -7.526278 48.819298 -22.975451
v 7.526280 48.819298 -22.975451
v -4.565810 -26.728773 13.147208
v 4.565810 -26.728773 13.147208
v -4.565810 -24.750198 16.574188
v 4.565810 -24.750198 16.574188
v -4.109176 -35.582805 18.841061
v 4.470562 -35.582805 18.841061
v -4.109176 -34.098163 21.412542
v 4.470562 -34.098163 21.412542
v -3.429122 -47.264990 25.667703
v 3.790507 -47.264990 25.667703
v -3.429122 -45.851302 28.116286
v 3.790507 -45.851302 28.116286
vt 1.000000 0.000000
vt 0.000000 0.000000
vt 0.000000 0.000000
vt 1.000000 0.000000
vt 1.000000 0.000000
vt 1.000000 0.000000
vt 1.000000 0.000000
vt 0.000000 0.000000
vt 1.000000 0.000000
vt 0.000000 0.000000
vt 1.000000 0.000000
vt 1.000000 0.000000
vt 1.000000 0.000000
vt 1.000000 0.000000
vt 1.000000 0.000000
vt 0.000000 0.000000
vt 1.000000 0.000000
vt 0.000000 0.000000
vt 1.000000 1.000000
vt 0.000000 1.000000
vt 1.000000 1.000000
vt 0.000000 1.000000
vt 1.000000 1.000000
vt 1.000000 1.000000
vt 0.000000 1.000000
vt 1.000000 1.000000
vt 1.000000 1.000000
vt 0.000000 1.000000
vt 1.000000 1.000000
vt 0.000000 1.000000
vt 1.000000 1.000000
vt 1.000000 1.000000
vt 1.000000 1.000000
vt 0.000000 0.000000
vt 0.000000 0.000000
vt 0.000000 1.000000
vt 0.001191 0.016491
vt 0.998809 0.016491
vt 0.998809 0.981723
vt 0.001191 0.981723
vt 0.024406 0.000000
vt 0.975594 0.000000
vt 0.975594 0.998153
vt 0.024406 0.998153
vt 0.024406 0.000000
vt 0.975594 0.000000
vt 0.975594 0.998153
vt 0.024406 0.998153
vt 0.024406 0.000000
vt 0.975594 0.000000
vt 0.975594 0.998153
vt 0.024406 0.998153
vt 0.000000 0.000000
vt 1.000000 0.000000
vt 1.000000 1.000000
vt 0.000000 1.000000
vt 0.000000 0.000000
vt 1.000000 1.000000
vt 0.000000 1.000000
vt 0.000000 0.000000
vt 1.000000 1.000000
vt 0.000000 1.000000
vt 1.000000 1.000000
vt 0.000000 1.000000
vt 0.000000 0.000000
vt 1.000000 0.000000
vt 1.000000 1.000000
vt 0.000000 1.000000
vt 0.000000 0.000000
vt 1.000000 0.000000
vt 1.000000 1.000000
vt 0.000000 1.000000
vt 0.000000 0.000000
vt 0.000000 1.000000
vt 0.000000 0.000000
vt 1.000000 0.000000
vt 0.000000 1.000000
vt 0.000000 0.000000
vt 1.000000 0.000000
vt 1.000000 1.000000
vt 0.000000 1.000000
vt 0.000000 0.000000
vt 1.000000 0.000000
vt 1.000000 1.000000
vt 0.000000 1.000000
vt 1.000000 0.000000
vt 1.000000 1.000000
vt 0.000000 0.000000
vt 1.000000 0.000000
vt 1.000000 1.000000
vt 0.000000 1.000000
vt 0.000000 0.000000
vt 0.000000 1.000000
vt 0.000000 0.000000
vt 1.000000 0.000000
vt 1.000000 1.000000
vt 0.000000 1.000000
vt 0.000000 0.000000
vt 1.000000 0.000000
vt 1.000000 1.000000
vt 0.000000 1.000000
vt 1.000000 0.000000
vt 1.000000 1.000000
vt 0.000000 1.000000
vt 0.000000 0.000000
vt 1.000000 0.000000
vt 1.000000 1.000000
vt 0.000000 1.000000
vt 0.000000 0.000000
vt 0.000000 1.000000
vt 0.000000 0.000000
vt 0.000000 1.000000
vn 0.000000 -0.541535 -0.840678
vn 0.000000 -0.541535 -0.840678
vn 0.000000 -0.541535 -0.840678
vn 0.000000 -0.541535 -0.840678
vn 0.000000 -0.541535 -0.840678
vn 0.000000 -0.541535 -0.840678
vn 0.000000 0.457281 0.889322
vn 0.000000 0.457281 0.889322
vn 0.000000 0.457281 0.889322
vn 0.000000 0.457281 0.889322
vn 0.000000 0.457281 0.889322
vn 0.000000 0.457281 0.889322
vn 0.000000 -0.866026 0.500000
vn 0.000000 -0.866026 0.500000
vn 0.000000 -0.866026 0.500000
vn 0.000000 -0.866026 0.500000
vn 0.000000 -0.866026 0.500000
vn 0.000000 -0.866026 0.500000
vn 0.994825 -0.087991 0.050802
vn 0.994825 -0.087991 0.050802
vn 0.994825 -0.087991 0.050802
vn 0.994825 -0.087991 0.050802
vn 0.994825 -0.087991 0.050802
vn 0.994825 -0.087991 0.050802
vn 0.000000 0.866026 -0.499999
vn 0.000000 0.866026 -0.499999
vn 0.000000 0.866026 -0.499999
vn 0.000000 0.866026 -0.499999
vn 0.000000 0.866026 -0.499999
vn 0.000000 0.866026 -0.499999
vn -0.994825 -0.087991 0.050802
vn -0.994825 -0.087991 0.050802
vn -0.994825 -0.087991 0.050802
vn -0.994825 -0.087991 0.050802
vn -0.994825 -0.087991 0.050802
vn -0.994825 -0.087991 0.050802
vn -0.000000 -0.528459 -0.848959
vn 0.000000 -0.528459 -0.848959
vn -0.000000 -0.528459 -0.848958
vn -0.000000 -0.528459 -0.848958
vn -0.000000 -0.528459 -0.848959
vn -0.000000 -0.528459 -0.848959
vn 0.000000 0.470990 0.882139
vn 0.000000 0.470990 0.882139
vn 0.000000 0.470990 0.882139
vn 0.000000 0.470990 0.882139
vn 0.000000 0.470990 0.882139
vn 0.000000 0.470990 0.882139
vn 0.000000 -0.866025 0.500001
vn 0.000000 -0.866025 0.500001
vn 0.000000 -0.866025 0.500001
vn 0.000000 -0.866025 0.500001
vn 0.000000 -0.866025 0.500001
vn 0.000000 -0.866025 0.500001
vn 0.998116 -0.053135 0.030677
vn 0.998116 -0.053135 0.030677
vn 0.998116 -0.053135 0.030677
vn 0.998116 -0.053135 0.030677
vn 0.998116 -0.053135 0.030677
vn 0.998116 -0.053135 0.030677
vn 0.000000 0.866028 -0.499995
vn 0.000000 0.866028 -0.499995
vn 0.000000 0.866028 -0.499995
vn 0.000000 0.866028 -0.499995
vn 0.000000 0.866028 -0.499995
vn 0.000000 0.866028 -0.499995
vn -0.998116 -0.053135 0.030677
vn -0.998116 -0.053135 0.030677
vn -0.998116 -0.053135 0.030677
vn -0.998116 -0.053135 0.030677
vn -0.998116 -0.053135 0.030677
vn -0.998116 -0.053135 0.030677
vn 0.000000 -0.311417 -0.950273
vn 0.000000 -0.311417 -0.950273
vn 0.000000 -0.311417 -0.950273
vn 0.000000 -0.311417 -0.950273
vn 0.000000 -0.311417 -0.950273
vn 0.000000 -0.311417 -0.950273
vn 0.000000 0.667254 0.744830
vn 0.000000 0.667254 0.744830
vn 0.000000 0.667254 0.744830
vn 0.000000 0.667254 0.744830
vn 0.000000 0.667254 0.744830
vn 0.000000 0.667254 0.744830
vn 0.875145 0.419036 -0.241929
vn 0.875145 0.419036 -0.241929
vn 0.875145 0.419036 -0.241929
vn 0.875144 0.419039 -0.241929
vn 0.875144 0.419039 -0.241929
vn 0.875144 0.419039 -0.241929
vn -0.875144 0.419038 -0.241931
vn -0.875144 0.419038 -0.241931
vn -0.875144 0.419038 -0.241931
vn -0.875145 0.419037 -0.241928
vn -0.875145 0.419037 -0.241928
vn -0.875145 0.419037 -0.241928
vn -0.000000 -0.834511 -0.550991
vn -0.000000 -0.834511 -0.550991
vn -0.000000 -0.834511 -0.550991
vn 0.000000 -0.834511 -0.550992
vn 0.000000 -0.834511 -0.550992
vn 0.000000 -0.834511 -0.550992
vn 0.000000 0.059915 0.998203
vn 0.000000 0.059915 0.998203
vn 0.000000 0.059915 0.998203
vn 0.000000 0.059915 0.998204
vn 0.000000 0.059915 0.998203
vn 0.000000 0.059915 0.998203
vn 0.894427 -0.387298 0.223607
vn 0.894427 -0.387298 0.223607
vn 0.894427 -0.387298 0.223607
vn 0.894427 -0.387297 0.223607
vn 0.894427 -0.387297 0.223607
vn 0.894427 -0.387297 0.223607
vn -0.894427 -0.387298 0.223606
vn -0.894427 -0.387298 0.223606
vn -0.894427 -0.387298 0.223606
vn -0.894427 -0.387298 0.223608
vn -0.894427 -0.387298 0.223608
vn -0.894427 -0.387299 0.223608
vn 0.000000 0.336035 -0.941850
vn 0.000000 0.336035 -0.941850
vn 0.000000 0.336035 -0.941850
vn 0.000000 0.336035 -0.941850
vn 0.000000 0.336035 -0.941850
vn 0.000000 0.336035 -0.941850
vn 0.000000 0.983683 0.179911
vn 0.000000 0.983683 0.179911
vn 0.000000 0.983683 0.179911
vn 0.000000 0.983683 0.179911
vn 0.000000 0.983683 0.179911
vn 0.000000 0.983683 0.179911
vn 0.647649 0.659859 -0.380969
vn 0.647649 0.659859 -0.380969
vn 0.647649 0.659859 -0.380969
vn 0.647648 0.659860 -0.380969
vn 0.647648 0.659860 -0.380969
vn 0.647648 0.659860 -0.380969
vn -0.647648 0.659859 -0.380970
vn -0.647648 0.659859 -0.380970
vn -0.647648 0.659859 -0.380970
vn -0.647649 0.659859 -0.380969
vn -0.647649 0.659859 -0.380969
vn -0.647649 0.659859 -0.380969
vn 0.000000 -0.927175 -0.374628
vn 0.000000 -0.927175 -0.374628
vn 0.000000 -0.927175 -0.374628
vn 0.000000 -0.927175 -0.374628
vn 0.000000 -0.927175 -0.374628
vn 0.000000 -0.927175 -0.374628
vn 0.000000 -0.139152 0.990271
vn 0.000000 -0.139152 0.990271
vn 0.000000 -0.139152 0.990271
vn 0.000000 -0.139152 0.990271
vn 0.000000 -0.139152 0.990271
vn 0.000000 -0.139152 0.990271
vn 0.788024 -0.533164 0.307822
vn 0.788024 -0.533163 0.307822
vn 0.788024 -0.533163 0.307822
vn 0.788024 -0.533163 0.307822
vn 0.788024 -0.533163 0.307822
vn 0.788024 -0.533163 0.307822
vn -0.788025 -0.533163 0.307822
vn -0.788025 -0.533163 0.307822
vn -0.788025 -0.533163 0.307822
vn -0.788025 -0.533163 0.307822
vn -0.788025 -0.533163 0.307822
vn -0.788025 -0.533163 0.307822
s off
g Ge_Mission_Evenement_ncl1_1
usemtl Ge_Mission_Evenement_ncl1_1SG
f 33/187/169 35/188/170 36/145/171
f 36/145/172 34/189/173 33/187/174
f 37/206/175 38/207/176 40/208/177
f 40/208/178 39/209/179 37/206/180
f 61/190/181 62/191/182 64/192/183
f 64/192/184 63/193/185 61/190/186
f 34/210/187 36/211/188 40/212/189
f 40/212/190 38/213/191 34/210/192
f 58/146/193 57/214/194 59/215/195
f 59/215/196 60/216/197 58/146/198
f 35/194/199 33/195/200 37/196/201
f 37/196/202 39/197/203 35/194/204
f 41/157/205 43/158/206 44/159/207
f 44/159/208 42/160/209 41/157/210
f 45/149/211 46/150/212 48/151/213
f 48/151/214 47/152/215 45/149/216
f 53/177/217 54/178/218 56/179/219
f 56/179/220 55/180/221 53/177/222
f 42/153/223 44/154/224 48/155/225
f 48/155/226 46/156/227 42/153/228
f 50/130/229 49/129/230 51/131/231
f 51/131/232 52/132/233 50/130/234
f 43/161/235 41/162/236 45/163/237
f 45/163/238 47/164/239 43/161/240
f 44/172/241 43/123/242 49/173/243
f 49/173/244 50/174/245 44/172/246
f 47/165/247 48/166/248 52/167/249
f 52/167/250 51/168/251 47/165/252
f 48/128/253 44/124/254 50/175/255
f 50/175/256 52/176/257 48/128/258
f 43/169/259 47/127/260 51/170/261
f 51/170/262 49/171/263 43/169/264
f 41/181/265 42/182/266 54/183/267
f 54/183/268 53/184/269 41/181/270
f 46/223/271 45/125/272 55/135/273
f 55/135/274 56/224/275 46/223/276
f 42/122/277 46/126/278 56/136/279
f 56/136/280 54/134/281 42/122/282
f 45/185/283 41/121/284 53/133/285
f 53/133/286 55/186/287 45/185/288
f 36/147/289 35/198/290 57/199/291
f 57/199/292 58/148/293 36/147/294
f 39/217/295 40/218/296 60/219/297
f 60/219/298 59/220/299 39/217/300
f 40/120/301 36/116/302 58/138/303
f 58/138/304 60/140/305 40/120/306
f 35/115/307 39/119/308 59/139/309
f 59/139/310 57/137/311 35/115/312
f 33/200/313 34/201/314 62/202/315
f 62/202/316 61/203/317 33/200/318
f 38/221/319 37/117/320 63/143/321
f 63/143/322 64/222/323 38/221/324
f 34/114/325 38/118/326 64/144/327
f 64/144/328 62/142/329 34/114/330
f 37/204/331 33/113/332 61/141/333
f 61/141/334 63/205/335 37/204/336
