# This file uses meters as units for non-parametric coordinates.

mtllib ge_mission_tombe_b.max.fobj.mtl
g default
v -44.003305 -40.243655 -19.911449
v -3.111014 -40.243649 -25.685981
v 41.808835 -40.243652 -19.911429
v -41.767678 6.021300 -18.489143
v -3.104447 6.021298 -25.770396
v 41.653481 6.021300 -19.977331
v -33.625421 50.623071 -17.605607
v -3.135602 50.392801 -25.722349
v 33.369443 50.537109 -17.608668
v -29.994476 80.471009 -15.742146
v -3.114588 80.025834 -20.435046
v 23.131996 82.104266 -15.993655
v -25.838202 117.866814 -10.385734
v -17.097631 141.639471 -11.725348
v -5.090071 143.537605 -12.638168
v 13.023804 124.507356 -11.851341
v 24.329042 107.084668 -10.966836
v -43.970081 -40.243655 17.208139
v -3.114046 -40.243647 25.723392
v 41.775313 -40.243652 17.208165
v -41.852504 6.021303 15.504406
v -3.104947 6.021301 25.087744
v 44.377774 6.021307 17.274357
v -34.117162 50.638169 14.046347
v -3.124496 50.380474 24.145256
v 35.943502 50.542235 15.011398
v -29.756862 81.172901 14.032762
v -3.106441 87.157202 20.117828
v 23.097773 81.317288 13.234044
v -25.682890 119.517982 10.136081
v -16.881895 143.133485 10.278905
v -5.040313 144.387829 10.497916
v 14.909431 121.373522 9.640779
v 24.384962 107.154810 8.277000
v -51.480815 -40.243655 -1.384573
v 48.865256 -40.243652 -1.384549
v 51.467732 6.021303 -1.384680
v 42.988816 50.661457 -1.332336
v 27.845359 82.417381 -1.412103
v 27.572966 107.735240 -1.377439
v 16.622464 128.650606 -0.698601
v -4.976039 152.754116 -0.495640
v -18.831356 152.285969 -0.421564
v -29.080963 120.076931 -0.609259
v -33.412594 82.362610 -1.129934
v -41.404539 50.661457 -1.066951
v -49.253774 6.021303 -1.323473
vt 0.181120 0.000000
vt 0.469844 0.000000
vt 0.802983 0.000000
vt 0.194898 0.227563
vt 0.469908 0.230182
vt 0.822642 0.230182
vt 0.286854 0.426723
vt 0.469606 0.425431
vt 0.763342 0.431479
vt 0.294654 0.596883
vt 0.469810 0.633675
vt 0.724758 0.603432
vt 0.238498 0.772740
vt 0.339276 0.898321
vt 0.474435 0.903737
vt 0.631863 0.825730
vt 0.686111 0.717457
vt 0.181684 0.000000
vt 0.469815 0.000000
vt 0.802519 0.000000
vt 0.197016 0.230182
vt 0.469903 0.230182
vt 0.821362 0.230182
vt 0.284180 0.426808
vt 0.469714 0.425361
vt 0.760294 0.426269
vt 0.294250 0.598204
vt 0.469889 0.631795
vt 0.721646 0.599014
vt 0.239565 0.771530
vt 0.340868 0.899160
vt 0.474003 0.906201
vt 0.630559 0.828114
vt 0.685618 0.717850
vt 0.000000 0.000000
vt 0.974721 0.000000
vt 1.000000 0.230182
vt 0.970559 0.426938
vt 0.857860 0.607809
vt 0.812878 0.749922
vt 0.714448 0.880420
vt 0.451728 1.000000
vt 0.293329 0.999992
vt 0.180539 0.777287
vt 0.176779 0.607501
vt 0.118680 0.424319
vt 0.021633 0.230182
vt 0.974721 0.000000
vt 1.000000 0.230182
vt 0.969407 0.426939
vt 0.858457 0.605189
vt 0.812450 0.747302
vt 0.715794 0.880420
vt 0.451793 1.000000
vt 0.290725 0.997372
vt 0.180781 0.779907
vt 0.176922 0.604882
vt 0.119117 0.426938
vt 0.021633 0.230182
vt 0.000000 0.000000
vn -0.016297 0.009259 -0.999824
vn -0.634841 0.076449 -0.768852
vn -0.028664 -0.000379 -0.999589
vn -0.634841 0.076449 -0.768852
vn -0.016297 0.009259 -0.999824
vn -0.619816 0.054019 -0.782886
vn -0.016297 0.009259 -0.999824
vn -0.028664 -0.000379 -0.999589
vn 0.593482 0.050173 -0.803282
vn 0.593482 0.050173 -0.803282
vn 0.619824 0.000963 -0.784740
vn -0.016297 0.009259 -0.999824
vn -0.634841 0.076449 -0.768852
vn -0.635486 0.142178 -0.758909
vn -0.020162 0.090097 -0.995729
vn -0.020162 0.090097 -0.995729
vn -0.028664 -0.000379 -0.999589
vn -0.634841 0.076449 -0.768852
vn 0.593482 0.050173 -0.803282
vn -0.020162 0.090097 -0.995729
vn 0.582190 0.189774 -0.790595
vn -0.020162 0.090097 -0.995729
vn 0.593482 0.050173 -0.803282
vn -0.028664 -0.000379 -0.999589
vn -0.020162 0.090097 -0.995729
vn -0.677486 0.144651 -0.721172
vn 0.002324 0.152447 -0.988309
vn -0.677486 0.144651 -0.721172
vn -0.020162 0.090097 -0.995729
vn -0.635486 0.142178 -0.758909
vn 0.582190 0.189774 -0.790595
vn -0.020162 0.090097 -0.995729
vn 0.575591 0.212450 -0.789658
vn 0.002324 0.152447 -0.988309
vn 0.575591 0.212450 -0.789658
vn -0.020162 0.090097 -0.995729
vn -0.677486 0.144651 -0.721172
vn -0.798266 0.204410 -0.566558
vn -0.476893 0.394758 -0.785327
vn 0.002324 0.152447 -0.988309
vn -0.476893 0.394758 -0.785327
vn 0.226418 0.529353 -0.817631
vn -0.476893 0.394758 -0.785327
vn 0.002324 0.152447 -0.988309
vn -0.677486 0.144651 -0.721172
vn 0.002324 0.152447 -0.988309
vn 0.226418 0.529353 -0.817631
vn 0.516661 0.375834 -0.769292
vn 0.516661 0.375834 -0.769292
vn 0.697557 0.217301 -0.682784
vn 0.002324 0.152447 -0.988309
vn 0.575591 0.212450 -0.789658
vn 0.002324 0.152447 -0.988309
vn 0.697557 0.217301 -0.682784
vn -0.652390 0.084902 0.753113
vn -0.023591 0.016330 0.999588
vn -0.039610 0.017463 0.999063
vn -0.023591 0.016330 0.999588
vn -0.652390 0.084902 0.753113
vn -0.640247 0.052310 0.766386
vn -0.039610 0.017463 0.999063
vn -0.023591 0.016330 0.999588
vn 0.655176 0.052235 0.753669
vn 0.631213 -0.036615 0.774745
vn 0.655176 0.052235 0.753669
vn -0.023591 0.016330 0.999588
vn -0.652390 0.084902 0.753113
vn -0.039610 0.017463 0.999063
vn -0.029738 0.080273 0.996329
vn -0.029738 0.080273 0.996329
vn -0.661892 0.134485 0.737437
vn -0.652390 0.084902 0.753113
vn -0.029738 0.080273 0.996329
vn 0.655176 0.052235 0.753669
vn 0.632787 0.229726 0.739464
vn 0.655176 0.052235 0.753669
vn -0.029738 0.080273 0.996329
vn -0.039610 0.017463 0.999063
vn -0.696648 0.124332 0.706557
vn -0.029738 0.080273 0.996329
vn 0.026537 0.126745 0.991580
vn -0.029738 0.080273 0.996329
vn -0.696648 0.124332 0.706557
vn -0.661892 0.134485 0.737437
vn 0.026537 0.126745 0.991580
vn -0.029738 0.080273 0.996329
vn 0.616999 0.202346 0.760505
vn 0.632787 0.229726 0.739464
vn 0.616999 0.202346 0.760505
vn -0.029738 0.080273 0.996329
vn -0.434055 0.437178 0.787700
vn -0.731443 0.192015 0.654310
vn -0.696648 0.124332 0.706557
vn -0.434055 0.437178 0.787700
vn 0.026537 0.126745 0.991580
vn 0.263269 0.542366 0.797827
vn 0.026537 0.126745 0.991580
vn -0.434055 0.437178 0.787700
vn -0.696648 0.124332 0.706557
vn 0.026537 0.126745 0.991580
vn 0.616999 0.202346 0.760505
vn 0.730623 0.212669 0.648815
vn 0.538717 0.355664 0.763732
vn 0.263269 0.542366 0.797827
vn 0.026537 0.126745 0.991580
vn 0.730623 0.212669 0.648815
vn 0.538717 0.355664 0.763732
vn 0.026537 0.126745 0.991580
vn 0.999260 -0.034669 -0.016689
vn 0.593482 0.050173 -0.803282
vn 0.996201 0.063641 -0.059445
vn 0.593482 0.050173 -0.803282
vn 0.999260 -0.034669 -0.016689
vn 0.619824 0.000963 -0.784740
vn 0.593482 0.050173 -0.803282
vn 0.582190 0.189774 -0.790595
vn 0.955582 0.290179 -0.051575
vn 0.955582 0.290179 -0.051575
vn 0.996201 0.063641 -0.059445
vn 0.593482 0.050173 -0.803282
vn 0.955582 0.290179 -0.051575
vn 0.575591 0.212450 -0.789658
vn 0.973306 0.229433 0.005939
vn 0.575591 0.212450 -0.789658
vn 0.955582 0.290179 -0.051575
vn 0.582190 0.189774 -0.790595
vn 0.575591 0.212450 -0.789658
vn 0.697557 0.217301 -0.682784
vn 0.969871 0.243546 -0.005891
vn 0.969871 0.243546 -0.005891
vn 0.973306 0.229433 0.005939
vn 0.575591 0.212450 -0.789658
vn 0.999260 -0.034669 -0.016689
vn 0.996201 0.063641 -0.059445
vn 0.655176 0.052235 0.753669
vn 0.655176 0.052235 0.753669
vn 0.631213 -0.036615 0.774745
vn 0.999260 -0.034669 -0.016689
vn 0.655176 0.052235 0.753669
vn 0.955582 0.290179 -0.051575
vn 0.632787 0.229726 0.739464
vn 0.955582 0.290179 -0.051575
vn 0.655176 0.052235 0.753669
vn 0.996201 0.063641 -0.059445
vn 0.955582 0.290179 -0.051575
vn 0.973306 0.229433 0.005939
vn 0.616999 0.202346 0.760505
vn 0.616999 0.202346 0.760505
vn 0.632787 0.229726 0.739464
vn 0.955582 0.290179 -0.051575
vn 0.616999 0.202346 0.760505
vn 0.969871 0.243546 -0.005891
vn 0.730623 0.212669 0.648815
vn 0.969871 0.243546 -0.005891
vn 0.616999 0.202346 0.760505
vn 0.973306 0.229433 0.005939
vn 0.697557 0.217301 -0.682784
vn 0.516661 0.375834 -0.769292
vn 0.802063 0.596819 0.022414
vn 0.802063 0.596819 0.022414
vn 0.969871 0.243546 -0.005891
vn 0.697557 0.217301 -0.682784
vn 0.802063 0.596819 0.022414
vn 0.226418 0.529353 -0.817631
vn 0.344556 0.938766 -0.000422
vn 0.226418 0.529353 -0.817631
vn 0.802063 0.596819 0.022414
vn 0.516661 0.375834 -0.769292
vn 0.226418 0.529353 -0.817631
vn -0.476893 0.394758 -0.785327
vn -0.546990 0.837121 -0.005440
vn -0.546990 0.837121 -0.005440
vn 0.344556 0.938766 -0.000422
vn 0.226418 0.529353 -0.817631
vn -0.546990 0.837121 -0.005440
vn -0.798266 0.204410 -0.566558
vn -0.974042 0.225309 -0.021863
vn -0.798266 0.204410 -0.566558
vn -0.546990 0.837121 -0.005440
vn -0.476893 0.394758 -0.785327
vn 0.730623 0.212669 0.648815
vn 0.802063 0.596819 0.022414
vn 0.538717 0.355664 0.763732
vn 0.802063 0.596819 0.022414
vn 0.730623 0.212669 0.648815
vn 0.969871 0.243546 -0.005891
vn 0.538717 0.355664 0.763732
vn 0.802063 0.596819 0.022414
vn 0.263269 0.542366 0.797827
vn 0.344556 0.938766 -0.000422
vn 0.263269 0.542366 0.797827
vn 0.802063 0.596819 0.022414
vn 0.263269 0.542366 0.797827
vn -0.546990 0.837121 -0.005440
vn -0.434055 0.437178 0.787700
vn -0.546990 0.837121 -0.005440
vn 0.263269 0.542366 0.797827
vn 0.344556 0.938766 -0.000422
vn -0.546990 0.837121 -0.005440
vn -0.974042 0.225309 -0.021863
vn -0.731443 0.192015 0.654310
vn -0.731443 0.192015 0.654310
vn -0.434055 0.437178 0.787700
vn -0.546990 0.837121 -0.005440
vn -0.974042 0.225309 -0.021863
vn -0.677486 0.144651 -0.721172
vn -0.989832 0.142235 -0.001354
vn -0.677486 0.144651 -0.721172
vn -0.974042 0.225309 -0.021863
vn -0.798266 0.204410 -0.566558
vn -0.989832 0.142235 -0.001354
vn -0.635486 0.142178 -0.758909
vn -0.978332 0.206961 0.005727
vn -0.635486 0.142178 -0.758909
vn -0.989832 0.142235 -0.001354
vn -0.677486 0.144651 -0.721172
vn -0.635486 0.142178 -0.758909
vn -0.634841 0.076449 -0.768852
vn -0.993184 0.116553 -0.000827
vn -0.993184 0.116553 -0.000827
vn -0.978332 0.206961 0.005727
vn -0.635486 0.142178 -0.758909
vn -0.634841 0.076449 -0.768852
vn -0.619816 0.054019 -0.782886
vn -0.998608 0.052626 -0.003469
vn -0.998608 0.052626 -0.003469
vn -0.993184 0.116553 -0.000827
vn -0.634841 0.076449 -0.768852
vn -0.731443 0.192015 0.654310
vn -0.974042 0.225309 -0.021863
vn -0.696648 0.124332 0.706557
vn -0.989832 0.142235 -0.001354
vn -0.696648 0.124332 0.706557
vn -0.974042 0.225309 -0.021863
vn -0.989832 0.142235 -0.001354
vn -0.978332 0.206961 0.005727
vn -0.661892 0.134485 0.737437
vn -0.661892 0.134485 0.737437
vn -0.696648 0.124332 0.706557
vn -0.989832 0.142235 -0.001354
vn -0.661892 0.134485 0.737437
vn -0.993184 0.116553 -0.000827
vn -0.652390 0.084902 0.753113
vn -0.993184 0.116553 -0.000827
vn -0.661892 0.134485 0.737437
vn -0.978332 0.206961 0.005727
vn -0.993184 0.116553 -0.000827
vn -0.998608 0.052626 -0.003469
vn -0.640247 0.052310 0.766386
vn -0.640247 0.052310 0.766386
vn -0.652390 0.084902 0.753113
vn -0.993184 0.116553 -0.000827
s off
g GE_Mission_tombe_b
usemtl GE_Mission_tombe_bSG4
f 2/2/1 4/4/2 5/5/3
f 4/4/4 2/2/5 1/1/6
f 2/2/7 5/5/8 6/6/9
f 6/6/10 3/3/11 2/2/12
f 4/4/13 7/7/14 8/8/15
f 8/8/16 5/5/17 4/4/18
f 6/6/19 8/8/20 9/9/21
f 8/8/22 6/6/23 5/5/24
f 8/8/25 10/10/26 11/11/27
f 10/10/28 8/8/29 7/7/30
f 9/9/31 8/8/32 12/12/33
f 11/11/34 12/12/35 8/8/36
f 10/10/37 13/13/38 14/14/39
f 11/11/40 14/14/41 15/15/42
f 14/14/43 11/11/44 10/10/45
f 11/11/46 15/15/47 16/16/48
f 16/16/49 17/17/50 11/11/51
f 12/12/52 11/11/53 17/17/54
f 21/21/55 19/19/56 22/22/57
f 19/19/58 21/21/59 18/18/60
f 22/22/61 19/19/62 23/23/63
f 20/20/64 23/23/65 19/19/66
f 21/21/67 22/22/68 25/25/69
f 25/25/70 24/24/71 21/21/72
f 25/25/73 23/23/74 26/26/75
f 23/23/76 25/25/77 22/22/78
f 27/27/79 25/25/80 28/28/81
f 25/25/82 27/27/83 24/24/84
f 28/28/85 25/25/86 29/29/87
f 26/26/88 29/29/89 25/25/90
f 31/31/91 30/30/92 27/27/93
f 31/31/94 28/28/95 32/32/96
f 28/28/97 31/31/98 27/27/99
f 28/28/100 29/29/101 34/34/102
f 33/33/103 32/32/104 28/28/105
f 34/34/106 33/33/107 28/28/108
f 36/36/109 6/6/110 37/37/111
f 6/6/112 36/36/113 3/3/114
f 6/6/115 9/9/116 38/38/117
f 38/38/118 37/37/119 6/6/120
f 38/38/121 12/12/122 39/39/123
f 12/12/124 38/38/125 9/9/126
f 12/12/127 17/17/128 40/40/129
f 40/40/130 39/39/131 12/12/132
f 36/48/133 37/49/134 23/23/135
f 23/23/136 20/20/137 36/48/138
f 23/23/139 38/50/140 26/26/141
f 38/50/142 23/23/143 37/49/144
f 38/50/145 39/51/146 29/29/147
f 29/29/148 26/26/149 38/50/150
f 29/29/151 40/52/152 34/34/153
f 40/52/154 29/29/155 39/51/156
f 17/17/157 16/16/158 41/41/159
f 41/41/160 40/40/161 17/17/162
f 41/41/163 15/15/164 42/42/165
f 15/15/166 41/41/167 16/16/168
f 15/15/169 14/14/170 43/43/171
f 43/43/172 42/42/173 15/15/174
f 43/43/175 13/13/176 44/44/177
f 13/13/178 43/43/179 14/14/180
f 34/34/181 41/53/182 33/33/183
f 41/53/184 34/34/185 40/52/186
f 33/33/187 41/53/188 32/32/189
f 42/54/190 32/32/191 41/53/192
f 32/32/193 43/55/194 31/31/195
f 43/55/196 32/32/197 42/54/198
f 43/55/199 44/56/200 30/30/201
f 30/30/202 31/31/203 43/55/204
f 44/44/205 10/10/206 45/45/207
f 10/10/208 44/44/209 13/13/210
f 45/45/211 7/7/212 46/46/213
f 7/7/214 45/45/215 10/10/216
f 7/7/217 4/4/218 47/47/219
f 47/47/220 46/46/221 7/7/222
f 4/4/223 1/1/224 35/35/225
f 35/35/226 47/47/227 4/4/228
f 30/30/229 44/56/230 27/27/231
f 45/57/232 27/27/233 44/56/234
f 45/57/235 46/58/236 24/24/237
f 24/24/238 27/27/239 45/57/240
f 24/24/241 47/59/242 21/21/243
f 47/59/244 24/24/245 46/58/246
f 47/59/247 35/60/248 18/18/249
f 18/18/250 21/21/251 47/59/252
