# This file uses meters as units for non-parametric coordinates.

mtllib ge_wea_dague.max.fobj.mtl
g default
v 0.230071 4.938848 -2.100532
v -0.345461 -14.459004 -1.505828
v 3.338769 4.939140 -1.268554
v 1.653244 -14.458795 -0.906804
v 0.230070 4.940311 2.093768
v -0.345461 -14.457953 1.514068
v 3.338769 4.940023 1.261791
v 1.653243 -14.458160 0.915044
v -1.523145 -14.458476 0.012199
v -1.601648 4.939582 0.006855
v -0.175862 -15.128203 -0.988112
v 1.139076 -15.128066 -0.594018
v -0.175862 -15.127511 0.998662
v 1.139076 -15.127648 0.604567
v -0.950653 -15.127857 0.010590
v -0.116994 6.443816 -2.504327
v 3.892696 6.444080 -1.754077
v -0.116994 6.445561 2.494122
v 3.892696 6.445301 1.743872
v -2.162422 6.444693 0.009049
v 0.307743 7.370900 -1.788774
v 2.606800 7.371147 -1.080568
v 0.307743 7.372145 1.781547
v 2.606800 7.371898 1.073342
v -1.309222 7.371524 0.005101
v 0.609851 8.954418 -0.716487
v 2.593492 9.676316 -0.967626
v 0.609851 8.954915 0.711642
v 2.593492 9.676990 0.962277
v -1.127975 7.949811 0.001414
v 0.609782 10.199659 -0.902880
v 3.761962 11.397663 -1.184677
v 0.609782 10.200286 0.896562
v 3.761962 11.398487 1.177524
v -3.451570 7.822804 0.002062
v -3.954684 14.604425 -0.000303
v 3.761815 12.503436 -1.167694
v 3.761815 12.504248 1.159769
v 2.904129 13.268611 -1.167961
v 2.904128 13.269423 1.159502
v -3.618051 21.209982 -0.002607
v 2.726378 25.260207 -0.648898
v 2.726378 25.260654 0.632075
v 3.495278 26.161984 -0.627502
v 3.495278 26.162416 0.610049
v -2.460795 29.410297 -0.005525
v 3.394295 29.418746 -0.541976
v 3.394295 29.419118 0.522309
v -0.527723 35.308707 -0.008551
v 3.640115 35.317218 -0.363864
v 3.640115 35.317463 0.341052
v 4.911121 44.018340 -0.014955
vt 0.480790 0.000500
vt 0.739848 0.000506
vt 0.480790 0.000533
vt 0.739848 0.000527
vt 0.298590 0.000517
vt 0.514832 0.043666
vt 0.738349 0.063345
vt 0.514832 0.043679
vt 0.738349 0.063363
vt 0.319013 0.016281
vt 0.514824 0.077611
vt 0.870012 0.110268
vt 0.514824 0.077628
vt 0.870012 0.110291
vt 0.057190 0.012818
vt 0.000499 0.197684
vt 0.869996 0.140411
vt 0.869996 0.140433
vt 0.773352 0.161270
vt 0.773352 0.161292
vt 0.038431 0.377750
vt 0.753323 0.488158
vt 0.753323 0.488170
vt 0.839963 0.512740
vt 0.839963 0.512752
vt 0.168831 0.601289
vt 0.828584 0.601519
vt 0.828584 0.601529
vt 0.386650 0.762078
vt 0.856283 0.762310
vt 0.856283 0.762317
vt 0.999501 0.999501
vt 0.044559 0.000520
vt 0.955471 0.000500
vt 0.907707 0.063338
vt 0.091530 0.063357
vt 0.999500 0.110262
vt 0.000500 0.110285
vt 0.992318 0.140406
vt 0.008008 0.140428
vt 0.992431 0.161264
vt 0.008121 0.161286
vt 0.772915 0.488155
vt 0.231177 0.488167
vt 0.763866 0.512737
vt 0.240492 0.512749
vt 0.727697 0.601516
vt 0.277599 0.601526
vt 0.652372 0.762308
vt 0.354255 0.762315
vt 0.504815 0.999501
vt 3.000001 0.200000
vt 4.000000 0.200000
vt 4.000000 0.933333
vt 3.000000 0.933333
vt 1.000001 0.200000
vt 1.000000 0.933333
vt 5.000000 0.933333
vt 5.000000 0.200000
vt 2.000001 0.200000
vt 2.000000 0.933333
vt 4.000000 1.000000
vt 3.000000 1.000000
vt 1.000000 1.000000
vt 5.000000 1.000000
vt 2.000000 1.000000
vt 4.000000 0.066667
vt 3.000000 0.066667
vt 5.000000 0.066667
vt 1.000000 0.066667
vt 2.000000 0.066667
vt 2.000000 0.000000
vt 1.000000 0.000000
vt 5.000000 0.000000
vt 4.000000 0.000000
vt 3.000000 0.000000
vt 0.000000 1.000000
vt 0.000000 0.933333
vt 0.000001 0.200000
vt 0.000000 0.066667
vt 0.000000 0.000000
vt 0.514079 0.398316
vt 0.615006 0.066667
vt 0.414928 0.066667
vt 0.349142 0.275353
vt 0.680791 0.275353
vn -0.273925 -0.190991 -0.942596
vn 0.768871 -0.284544 -0.572601
vn 0.747882 -0.354832 -0.561041
vn 0.747882 -0.354832 -0.561041
vn -0.297794 -0.311303 -0.902446
vn -0.273925 -0.190991 -0.942596
vn -0.270914 -0.187916 0.944083
vn -0.294066 -0.312295 0.903325
vn 0.748080 -0.354096 0.561241
vn 0.748080 -0.354096 0.561241
vn 0.768806 -0.283692 0.573111
vn -0.270914 -0.187916 0.944083
vn -0.978593 -0.205801 0.001608
vn -0.951193 -0.308596 0.001108
vn -0.294066 -0.312295 0.903325
vn -0.294066 -0.312295 0.903325
vn -0.270914 -0.187916 0.944083
vn -0.978593 -0.205801 0.001608
vn -0.540568 -0.841299 0.001557
vn 0.410640 -0.849829 -0.330401
vn 0.410710 -0.849278 0.331730
vn 0.410710 -0.849278 0.331730
vn -0.162633 -0.839068 0.519150
vn -0.540568 -0.841299 0.001557
vn 0.747882 -0.354832 -0.561041
vn 0.768871 -0.284544 -0.572601
vn 0.768806 -0.283692 0.573111
vn 0.768806 -0.283692 0.573111
vn 0.748080 -0.354096 0.561241
vn 0.747882 -0.354832 -0.561041
vn -0.273925 -0.190991 -0.942596
vn -0.297794 -0.311303 -0.902446
vn -0.951193 -0.308596 0.001108
vn 0.410640 -0.849829 -0.330401
vn -0.540568 -0.841299 0.001557
vn -0.164499 -0.839672 -0.517582
vn -0.951193 -0.308596 0.001108
vn -0.978593 -0.205801 0.001608
vn -0.273925 -0.190991 -0.942596
vn -0.297794 -0.311303 -0.902446
vn 0.747882 -0.354832 -0.561041
vn 0.410640 -0.849829 -0.330401
vn 0.410640 -0.849829 -0.330401
vn -0.164499 -0.839672 -0.517582
vn -0.297794 -0.311303 -0.902446
vn 0.748080 -0.354096 0.561241
vn -0.294066 -0.312295 0.903325
vn -0.162633 -0.839068 0.519150
vn -0.162633 -0.839068 0.519150
vn 0.410710 -0.849278 0.331730
vn 0.748080 -0.354096 0.561241
vn -0.294066 -0.312295 0.903325
vn -0.951193 -0.308596 0.001108
vn -0.540568 -0.841299 0.001557
vn -0.540568 -0.841299 0.001557
vn -0.162633 -0.839068 0.519150
vn -0.294066 -0.312295 0.903325
vn 0.747882 -0.354832 -0.561041
vn 0.748080 -0.354096 0.561241
vn 0.410710 -0.849278 0.331730
vn 0.410710 -0.849278 0.331730
vn 0.410640 -0.849829 -0.330401
vn 0.747882 -0.354832 -0.561041
vn -0.951193 -0.308596 0.001108
vn -0.297794 -0.311303 -0.902446
vn -0.164499 -0.839672 -0.517582
vn -0.164499 -0.839672 -0.517582
vn -0.540568 -0.841299 0.001557
vn -0.951193 -0.308596 0.001108
vn 0.772888 0.218741 -0.595649
vn -0.273925 -0.190991 -0.942596
vn -0.357689 0.172705 -0.917732
vn -0.273925 -0.190991 -0.942596
vn 0.772888 0.218741 -0.595649
vn 0.768871 -0.284544 -0.572601
vn -0.270914 -0.187916 0.944083
vn 0.768806 -0.283692 0.573111
vn 0.773116 0.219253 0.595164
vn 0.773116 0.219253 0.595164
vn -0.355744 0.173206 0.918393
vn -0.270914 -0.187916 0.944083
vn -0.978593 -0.205801 0.001608
vn -0.270914 -0.187916 0.944083
vn -0.355744 0.173206 0.918393
vn -0.355744 0.173206 0.918393
vn -0.986826 0.161760 0.002940
vn -0.978593 -0.205801 0.001608
vn 0.768806 -0.283692 0.573111
vn 0.768871 -0.284544 -0.572601
vn 0.772888 0.218741 -0.595649
vn 0.772888 0.218741 -0.595649
vn 0.773116 0.219253 0.595164
vn 0.768806 -0.283692 0.573111
vn -0.357689 0.172705 -0.917732
vn -0.978593 -0.205801 0.001608
vn -0.986826 0.161760 0.002940
vn -0.978593 -0.205801 0.001608
vn -0.357689 0.172705 -0.917732
vn -0.273925 -0.190991 -0.942596
vn -0.773119 0.603415 -0.195389
vn -0.355744 0.173206 0.918393
vn -0.183708 0.671985 0.717417
vn -0.355744 0.173206 0.918393
vn -0.773119 0.603415 -0.195389
vn -0.986826 0.161760 0.002940
vn -0.183708 0.671985 0.717417
vn 0.773116 0.219253 0.595164
vn 0.410325 0.834900 0.366845
vn 0.773116 0.219253 0.595164
vn -0.183708 0.671985 0.717417
vn -0.355744 0.173206 0.918393
vn 0.773116 0.219253 0.595164
vn 0.772888 0.218741 -0.595649
vn 0.421347 0.679669 -0.600430
vn 0.421347 0.679669 -0.600430
vn 0.410325 0.834900 0.366845
vn 0.773116 0.219253 0.595164
vn 0.772888 0.218741 -0.595649
vn -0.357689 0.172705 -0.917732
vn -0.237758 0.580263 -0.778952
vn -0.237758 0.580263 -0.778952
vn 0.421347 0.679669 -0.600430
vn 0.772888 0.218741 -0.595649
vn -0.237758 0.580263 -0.778952
vn -0.357689 0.172705 -0.917732
vn -0.773119 0.603415 -0.195389
vn -0.986826 0.161760 0.002940
vn -0.773119 0.603415 -0.195389
vn -0.357689 0.172705 -0.917732
vn -0.569537 0.360705 0.738593
vn -0.330564 0.448124 0.830609
vn -0.281942 0.185542 0.941320
vn -0.281942 0.185542 0.941320
vn -0.217646 -0.283612 0.933913
vn -0.569537 0.360705 0.738593
vn -0.330564 0.448124 0.830609
vn 0.294061 0.047692 0.954596
vn 0.298553 -0.178895 0.937477
vn 0.298553 -0.178895 0.937477
vn -0.281942 0.185542 0.941320
vn -0.330564 0.448124 0.830609
vn 0.999983 0.005773 -0.000002
vn 0.999983 0.005773 -0.000002
vn 0.999983 0.005773 -0.000002
vn 0.999983 0.005773 -0.000002
vn 0.999983 0.005773 -0.000002
vn 0.999983 0.005773 -0.000002
vn 0.049232 0.291455 -0.955317
vn -0.237758 0.580263 -0.778952
vn -0.411645 0.563531 -0.716227
vn -0.237758 0.580263 -0.778952
vn 0.049232 0.291455 -0.955317
vn 0.421347 0.679669 -0.600430
vn -0.237758 0.580263 -0.778952
vn -0.773119 0.603415 -0.195389
vn -0.676169 0.341621 -0.652756
vn -0.676169 0.341621 -0.652756
vn -0.411645 0.563531 -0.716227
vn -0.237758 0.580263 -0.778952
vn -0.160140 -0.138679 0.977304
vn -0.217646 -0.283612 0.933913
vn -0.281942 0.185542 0.941320
vn -0.281942 0.185542 0.941320
vn -0.117612 -0.066336 0.990842
vn -0.160140 -0.138679 0.977304
vn -0.281942 0.185542 0.941320
vn 0.298553 -0.178895 0.937477
vn 0.690122 -0.231432 0.685690
vn 0.690122 -0.231432 0.685690
vn -0.117612 -0.066336 0.990842
vn -0.281942 0.185542 0.941320
vn 0.298553 -0.178895 0.937477
vn 0.827395 -0.561621 0.000196
vn 0.958484 -0.285146 0.000099
vn 0.958484 -0.285146 0.000099
vn 0.690122 -0.231432 0.685690
vn 0.298553 -0.178895 0.937477
vn -0.059386 -0.102251 -0.992984
vn -0.096886 -0.191353 -0.976728
vn -0.128955 -0.060954 -0.989775
vn -0.128955 -0.060954 -0.989775
vn -0.085489 -0.009412 -0.996295
vn -0.059386 -0.102251 -0.992984
vn -0.128955 -0.060954 -0.989775
vn -0.096886 -0.191353 -0.976728
vn -0.161809 -0.140380 -0.976786
vn 0.033611 -0.618920 -0.784734
vn -0.161809 -0.140380 -0.976786
vn -0.096886 -0.191353 -0.976728
vn -0.160140 -0.138679 0.977304
vn -0.117612 -0.066336 0.990842
vn -0.161466 0.020201 0.986672
vn -0.117612 -0.066336 0.990842
vn 0.690122 -0.231432 0.685690
vn 0.696870 0.314066 0.644775
vn 0.696870 0.314066 0.644775
vn 0.140799 0.287660 0.947327
vn -0.117612 -0.066336 0.990842
vn 0.690122 -0.231432 0.685690
vn 0.958484 -0.285146 0.000099
vn 0.913492 0.406856 -0.000142
vn 0.913492 0.406856 -0.000142
vn 0.696870 0.314066 0.644775
vn 0.690122 -0.231432 0.685690
vn -0.117851 0.004347 -0.993022
vn -0.128955 -0.060954 -0.989775
vn -0.162876 0.019629 -0.986451
vn -0.128955 -0.060954 -0.989775
vn -0.065988 -0.024378 -0.997523
vn -0.085489 -0.009412 -0.996295
vn -0.128955 -0.060954 -0.989775
vn -0.161809 -0.140380 -0.976786
vn -0.162876 0.019629 -0.986451
vn -0.161466 0.020201 0.986672
vn -0.117612 -0.066336 0.990842
vn 0.140799 0.287660 0.947327
vn 0.696870 0.314066 0.644775
vn 0.913492 0.406856 -0.000142
vn 0.665717 0.746204 -0.000260
vn 0.665717 0.746204 -0.000260
vn 0.140799 0.287660 0.947327
vn 0.696870 0.314066 0.644775
vn -0.128955 -0.060954 -0.989775
vn -0.117851 0.004347 -0.993022
vn -0.065988 -0.024378 -0.997523
vn -0.161466 0.020201 0.986672
vn 0.140799 0.287660 0.947327
vn 0.201929 -0.209196 0.956798
vn 0.201929 -0.209196 0.956798
vn -0.104905 0.008494 0.994446
vn -0.161466 0.020201 0.986672
vn 0.999890 0.014821 -0.000005
vn 0.999890 0.014821 -0.000005
vn 0.999890 0.014821 -0.000005
vn 0.999890 0.014821 -0.000005
vn 0.999890 0.014821 -0.000005
vn 0.999890 0.014821 -0.000005
vn -0.097510 0.043332 -0.994291
vn -0.162876 0.019629 -0.986451
vn -0.106335 0.007908 -0.994299
vn -0.162876 0.019629 -0.986451
vn -0.097510 0.043332 -0.994291
vn -0.117851 0.004347 -0.993022
vn -0.088583 0.027811 0.995681
vn -0.095029 0.026744 0.995115
vn 0.373927 -0.326592 0.868053
vn 0.201929 -0.209196 0.956798
vn 0.760941 -0.648821 0.000226
vn 0.760941 -0.648821 0.000226
vn 0.760941 -0.648821 0.000226
vn 0.373927 -0.326592 0.868053
vn 0.201929 -0.209196 0.956798
vn -0.106335 0.007908 -0.994299
vn -0.096466 0.026225 -0.994991
vn -0.097510 0.043332 -0.994291
vn -0.095029 0.026744 0.995115
vn 0.201929 -0.209196 0.956798
vn 0.373927 -0.326592 0.868053
vn 0.201929 -0.209196 0.956798
vn -0.095029 0.026744 0.995115
vn -0.104905 0.008494 0.994446
vn 0.999520 0.030992 -0.000011
vn 0.999520 0.030992 -0.000011
vn 0.999989 -0.004666 0.000002
vn 0.999989 -0.004666 0.000002
vn 0.999989 -0.004668 0.000002
vn 0.999520 0.030992 -0.000011
vn -0.090015 0.027188 -0.995569
vn -0.074757 0.053592 -0.995761
vn -0.096466 0.026225 -0.994991
vn -0.097510 0.043332 -0.994291
vn -0.096466 0.026225 -0.994991
vn -0.074757 0.053592 -0.995761
vn -0.085535 0.039369 0.995557
vn -0.088583 0.027811 0.995681
vn -0.083598 0.044043 0.995526
vn -0.088583 0.027811 0.995681
vn -0.085535 0.039369 0.995557
vn -0.095029 0.026744 0.995115
vn 0.999989 -0.004668 0.000002
vn 0.999989 -0.004666 0.000002
vn 0.995754 -0.092055 0.000032
vn 0.995754 -0.092055 0.000032
vn 0.995754 -0.092056 0.000032
vn 0.999989 -0.004668 0.000002
vn -0.090015 0.027188 -0.995569
vn -0.096466 0.026225 -0.994991
vn -0.086919 0.038821 -0.995459
vn -0.086919 0.038821 -0.995459
vn -0.084951 0.043490 -0.995436
vn -0.090015 0.027188 -0.995569
vn -0.085535 0.039369 0.995557
vn -0.083598 0.044043 0.995526
vn -0.083581 0.052925 0.995095
vn 0.995754 -0.092056 0.000032
vn 0.995754 -0.092055 0.000032
vn 0.989499 -0.144542 0.000050
vn -0.086919 0.038821 -0.995459
vn -0.084933 0.052306 -0.995013
vn -0.084951 0.043490 -0.995436
s off
g GE_Wea_dague
usemtl GE_Wea_dagueSG1
f 1/52/1 3/53/2 4/54/3
f 4/54/4 2/55/5 1/52/6
f 5/56/7 6/57/8 8/78/9
f 8/78/10 7/79/11 5/56/12
f 10/60/13 9/61/14 6/57/15
f 6/57/16 5/56/17 10/60/18
f 15/82/19 12/83/20 14/84/21
f 14/84/22 13/85/23 15/82/24
f 4/54/25 3/53/26 7/59/27
f 7/59/28 8/58/29 4/54/30
f 1/52/31 2/55/32 9/61/33
f 12/83/34 15/82/35 11/86/36
f 9/61/37 10/60/38 1/52/39
f 2/55/40 4/54/41 12/62/42
f 12/62/43 11/63/44 2/55/45
f 8/78/46 6/57/47 13/64/48
f 13/64/49 14/77/50 8/78/51
f 6/57/52 9/61/53 15/66/54
f 15/66/55 13/64/56 6/57/57
f 4/54/58 8/58/59 14/65/60
f 14/65/61 12/62/62 4/54/63
f 9/61/64 2/55/65 11/63/66
f 11/63/67 15/66/68 9/61/69
f 17/67/70 1/52/71 16/68/72
f 1/52/73 17/67/74 3/53/75
f 5/56/76 7/79/77 19/80/78
f 19/80/79 18/70/80 5/56/81
f 10/60/82 5/56/83 18/70/84
f 18/70/85 20/71/86 10/60/87
f 7/59/88 3/53/89 17/67/90
f 17/67/91 19/69/92 7/59/93
f 16/68/94 10/60/95 20/71/96
f 10/60/97 16/68/98 1/52/99
f 25/72/100 18/70/101 23/73/102
f 18/70/103 25/72/104 20/71/105
f 23/73/106 19/80/107 24/81/108
f 19/80/109 23/73/110 18/70/111
f 19/69/112 17/67/113 22/75/114
f 22/75/115 24/74/116 19/69/117
f 17/67/118 16/68/119 21/76/120
f 21/76/121 22/75/122 17/67/123
f 21/76/124 16/68/125 25/72/126
f 20/71/127 25/72/128 16/68/129
usemtl GE_Wea_dagueSG
f 25/5/130 23/3/131 28/8/132
f 28/8/133 30/10/134 25/5/135
f 23/3/136 24/4/137 29/9/138
f 29/9/139 28/8/140 23/3/141
f 24/33/142 22/34/143 27/35/144
f 27/35/145 29/36/146 24/33/147
f 27/7/148 21/1/149 26/6/150
f 21/1/151 27/7/152 22/2/153
f 21/1/154 25/5/155 30/10/156
f 30/10/157 26/6/158 21/1/159
f 35/15/160 30/10/161 28/8/162
f 28/8/163 33/13/164 35/15/165
f 28/8/166 29/9/167 34/14/168
f 34/14/169 33/13/170 28/8/171
f 29/36/172 27/35/173 32/37/174
f 32/37/175 34/38/176 29/36/177
f 27/7/178 26/6/179 31/11/180
f 31/11/181 32/12/182 27/7/183
f 31/11/184 26/6/185 35/15/186
f 30/10/187 35/15/188 26/6/189
f 35/15/190 33/13/191 36/16/192
f 33/13/193 34/14/194 38/18/195
f 38/18/196 40/20/197 33/13/198
f 34/38/199 32/37/200 37/39/201
f 37/39/202 38/40/203 34/38/204
f 39/19/205 31/11/206 36/16/207
f 31/11/208 37/17/209 32/12/210
f 31/11/211 35/15/212 36/16/213
f 36/16/214 33/13/215 40/20/216
f 38/40/217 37/39/218 39/41/219
f 39/41/220 40/42/221 38/40/222
f 31/11/223 39/19/224 37/17/225
f 36/16/226 40/20/227 43/23/228
f 43/23/229 41/21/230 36/16/231
f 40/42/232 39/41/233 42/43/234
f 42/43/235 43/44/236 40/42/237
f 42/22/238 36/16/239 41/21/240
f 36/16/241 42/22/242 39/19/243
f 48/28/244 46/26/245 45/25/246
f 43/44/247 42/43/248 44/45/249
f 44/45/250 45/46/251 43/44/252
f 41/21/253 46/26/254 42/22/255
f 46/26/256 43/23/257 45/25/258
f 43/23/259 46/26/260 41/21/261
f 45/46/262 44/45/263 47/47/264
f 47/47/265 48/48/266 45/46/267
f 47/27/268 44/24/269 46/26/270
f 42/22/271 46/26/272 44/24/273
f 49/29/274 48/28/275 51/31/276
f 48/28/277 49/29/278 46/26/279
f 48/48/280 47/47/281 50/49/282
f 50/49/283 51/50/284 48/48/285
f 47/27/286 46/26/287 49/29/288
f 49/29/289 50/30/290 47/27/291
f 49/29/292 51/31/293 52/32/294
f 51/50/295 50/49/296 52/51/297
f 49/29/298 52/32/299 50/30/300
