# This file uses meters as units for non-parametric coordinates.

mtllib fy_acc_tonneauopened_a.max.fobj.mtl
g default
v 0.000000 0.000000 0.000000
v 25.000000 0.000000 0.000000
v 17.677669 0.000000 -17.677669
v -0.000001 0.000000 -25.000000
v -17.677671 0.000000 -17.677668
v -25.000000 -0.000000 0.000002
v -17.677668 -0.000000 17.677671
v 0.000003 -0.000000 25.000000
v 17.677672 -0.000000 17.677666
v 30.250001 26.666668 0.000000
v 21.389981 26.666668 -21.389981
v -0.000001 26.666668 -30.250001
v -21.389982 26.666668 -21.389979
v -30.250001 26.666668 0.000003
v -21.389978 26.666668 21.389982
v 0.000004 26.666668 30.250001
v 21.389985 26.666668 21.389976
v 30.250001 53.333336 0.000000
v 21.389981 53.333336 -21.389981
v -0.000001 53.333336 -30.250001
v -21.389982 53.333336 -21.389979
v -30.250001 53.333336 0.000003
v -21.389978 53.333336 21.389982
v 0.000004 53.333336 30.250001
v 21.389985 53.333336 21.389976
v 25.000000 80.000001 0.000000
v 17.677669 80.000001 -17.677669
v -0.000001 80.000001 -25.000000
v -17.677671 80.000001 -17.677668
v -25.000000 80.000001 0.000002
v -17.677668 80.000001 17.677671
v 0.000003 80.000001 25.000000
v 17.677672 80.000001 17.677666
v 22.499999 75.999999 0.000000
v 15.909901 75.999999 -15.909901
v -0.000001 75.999999 -22.499999
v -15.909903 75.999999 -15.909901
v -22.499999 75.999999 0.000002
v -15.909900 75.999999 15.909903
v 0.000003 75.999999 22.499999
v 15.909904 75.999999 15.909900
vt 0.750000 0.000500
vt 0.875000 0.000500
vt 1.000000 0.000500
vt 0.125000 0.000500
vt 0.250000 0.000500
vt 0.375000 0.000500
vt 0.500000 0.000500
vt 0.625000 0.000500
vt 0.750000 0.333500
vt 0.875000 0.333500
vt 1.000000 0.333500
vt 0.125000 0.333500
vt 0.250000 0.333500
vt 0.375000 0.333500
vt 0.500000 0.333500
vt 0.625000 0.333500
vt 0.750000 0.666500
vt 0.875000 0.666500
vt 1.000000 0.666500
vt 0.125000 0.666500
vt 0.250000 0.666500
vt 0.375000 0.666500
vt 0.500000 0.666500
vt 0.625000 0.666500
vt 0.750000 0.999500
vt 0.875000 0.999500
vt 1.000000 0.999500
vt 0.125000 0.999500
vt 0.250000 0.999500
vt 0.375000 0.999500
vt 0.500000 0.999500
vt 0.625000 0.999500
vt -0.000000 0.000500
vt -0.000000 0.333500
vt -0.000000 0.000500
vt -0.000000 0.333500
vt -0.000000 0.666500
vt -0.000000 0.333500
vt -0.000000 0.666500
vt -0.000000 0.999500
vt -0.000000 0.666500
vt 0.750000 0.279979
vt 0.875000 0.279979
vt 0.875000 0.184003
vt 0.750000 0.184003
vt 1.000000 0.279979
vt 1.000000 0.184003
vt 0.125000 0.279979
vt 0.125000 0.184003
vt 0.250000 0.279979
vt 0.250000 0.184003
vt 0.375000 0.279979
vt 0.375000 0.184003
vt 0.500000 0.279979
vt 0.500000 0.184003
vt 0.625000 0.279979
vt 0.625000 0.184003
vt -0.000000 0.279979
vt -0.000000 0.184003
vt -0.000000 0.279979
vt 0.944967 0.008413
vt 1.038382 0.229807
vt 1.077076 0.008413
vt 0.944967 0.234761
vt 0.851552 0.229807
vt 0.812858 0.008413
vt 0.851552 -0.212980
vt 0.944967 -0.217934
vt 1.038382 -0.212980
vt 0.721748 0.013501
vt 0.567395 0.013501
vt 0.612604 -0.240803
vt 0.721748 -0.241563
vt 0.830891 -0.240803
vt 0.876100 0.013501
vt 0.830891 0.267805
vt 0.721748 0.268565
vt 0.612604 0.267805
vn 0.000000 -1.000000 -0.000000
vn 0.000000 -1.000000 -0.000000
vn 0.000000 -1.000000 -0.000000
vn 0.000000 -1.000000 -0.000000
vn 0.000000 -1.000000 -0.000000
vn 0.000000 -1.000000 -0.000000
vn 0.000000 -1.000000 -0.000000
vn 0.000000 -1.000000 -0.000000
vn 0.000000 -1.000000 -0.000000
vn 0.000000 -1.000000 -0.000000
vn 0.000000 -1.000000 -0.000000
vn 0.000000 -1.000000 -0.000000
vn 0.000000 -1.000000 -0.000000
vn 0.000000 -1.000000 -0.000000
vn 0.000000 -1.000000 -0.000000
vn 0.000000 -1.000000 -0.000000
vn 0.000000 -1.000000 -0.000000
vn 0.000000 -1.000000 -0.000000
vn 0.000000 -1.000000 -0.000000
vn 0.000000 -1.000000 -0.000000
vn 0.000000 -1.000000 -0.000000
vn 0.000000 -1.000000 -0.000000
vn 0.000000 -1.000000 -0.000000
vn 0.000000 -1.000000 -0.000000
vn 0.981166 -0.193167 -0.000000
vn 0.703920 -0.094834 -0.703920
vn 0.995493 -0.094834 -0.000000
vn 0.981166 -0.193167 -0.000000
vn 0.693789 -0.193167 -0.693789
vn 0.703920 -0.094834 -0.703920
vn 0.693789 -0.193167 -0.693789
vn -0.000000 -0.094834 -0.995493
vn 0.703920 -0.094834 -0.703920
vn 0.693789 -0.193167 -0.693789
vn -0.000000 -0.193167 -0.981166
vn -0.000000 -0.094834 -0.995493
vn -0.000000 -0.193167 -0.981166
vn -0.703920 -0.094834 -0.703920
vn -0.000000 -0.094834 -0.995493
vn -0.000000 -0.193167 -0.981166
vn -0.693789 -0.193167 -0.693789
vn -0.703920 -0.094834 -0.703920
vn -0.693789 -0.193167 -0.693789
vn -0.995493 -0.094834 0.000000
vn -0.703920 -0.094834 -0.703920
vn -0.693789 -0.193167 -0.693789
vn -0.981166 -0.193167 0.000000
vn -0.995493 -0.094834 0.000000
vn -0.981166 -0.193167 0.000000
vn -0.703920 -0.094834 0.703920
vn -0.995493 -0.094834 0.000000
vn -0.981166 -0.193167 0.000000
vn -0.693789 -0.193167 0.693789
vn -0.703920 -0.094834 0.703920
vn -0.693789 -0.193167 0.693789
vn 0.000000 -0.094834 0.995493
vn -0.703920 -0.094834 0.703920
vn -0.693789 -0.193167 0.693789
vn 0.000000 -0.193167 0.981166
vn 0.000000 -0.094834 0.995493
vn 0.000000 -0.193167 0.981166
vn 0.703920 -0.094834 0.703920
vn 0.000000 -0.094834 0.995493
vn 0.000000 -0.193167 0.981166
vn 0.693789 -0.193167 0.693789
vn 0.703920 -0.094834 0.703920
vn 0.693789 -0.193167 0.693789
vn 0.995493 -0.094834 -0.000000
vn 0.703920 -0.094834 0.703920
vn 0.693789 -0.193167 0.693789
vn 0.981166 -0.193167 -0.000000
vn 0.995493 -0.094834 -0.000000
vn 0.995493 -0.094834 -0.000000
vn 0.703920 0.094834 -0.703920
vn 0.995493 0.094834 -0.000000
vn 0.995493 -0.094834 -0.000000
vn 0.703920 -0.094834 -0.703920
vn 0.703920 0.094834 -0.703920
vn 0.703920 -0.094834 -0.703920
vn -0.000000 0.094834 -0.995493
vn 0.703920 0.094834 -0.703920
vn 0.703920 -0.094834 -0.703920
vn -0.000000 -0.094834 -0.995493
vn -0.000000 0.094834 -0.995493
vn -0.000000 -0.094834 -0.995493
vn -0.703920 0.094834 -0.703920
vn -0.000000 0.094834 -0.995493
vn -0.000000 -0.094834 -0.995493
vn -0.703920 -0.094834 -0.703920
vn -0.703920 0.094834 -0.703920
vn -0.703920 -0.094834 -0.703920
vn -0.995493 0.094834 0.000000
vn -0.703920 0.094834 -0.703920
vn -0.703920 -0.094834 -0.703920
vn -0.995493 -0.094834 0.000000
vn -0.995493 0.094834 0.000000
vn -0.995493 -0.094834 0.000000
vn -0.703920 0.094834 0.703920
vn -0.995493 0.094834 0.000000
vn -0.995493 -0.094834 0.000000
vn -0.703920 -0.094834 0.703920
vn -0.703920 0.094834 0.703920
vn -0.703920 -0.094834 0.703920
vn 0.000000 0.094834 0.995493
vn -0.703920 0.094834 0.703920
vn -0.703920 -0.094834 0.703920
vn 0.000000 -0.094834 0.995493
vn 0.000000 0.094834 0.995493
vn 0.000000 -0.094834 0.995493
vn 0.703920 0.094834 0.703920
vn 0.000000 0.094834 0.995493
vn 0.000000 -0.094834 0.995493
vn 0.703920 -0.094834 0.703920
vn 0.703920 0.094834 0.703920
vn 0.703920 -0.094834 0.703920
vn 0.995493 0.094834 -0.000000
vn 0.703920 0.094834 0.703920
vn 0.703920 -0.094834 0.703920
vn 0.995493 -0.094834 -0.000000
vn 0.995493 0.094834 -0.000000
vn 0.995493 0.094834 -0.000000
vn 0.693789 0.193167 -0.693789
vn 0.981166 0.193167 -0.000000
vn 0.995493 0.094834 -0.000000
vn 0.703920 0.094834 -0.703920
vn 0.693789 0.193167 -0.693789
vn 0.703920 0.094834 -0.703920
vn -0.000000 0.193167 -0.981166
vn 0.693789 0.193167 -0.693789
vn 0.703920 0.094834 -0.703920
vn -0.000000 0.094834 -0.995493
vn -0.000000 0.193167 -0.981166
vn -0.000000 0.094834 -0.995493
vn -0.693789 0.193167 -0.693789
vn -0.000000 0.193167 -0.981166
vn -0.000000 0.094834 -0.995493
vn -0.703920 0.094834 -0.703920
vn -0.693789 0.193167 -0.693789
vn -0.703920 0.094834 -0.703920
vn -0.981166 0.193167 0.000000
vn -0.693789 0.193167 -0.693789
vn -0.703920 0.094834 -0.703920
vn -0.995493 0.094834 0.000000
vn -0.981166 0.193167 0.000000
vn -0.995493 0.094834 0.000000
vn -0.693789 0.193167 0.693789
vn -0.981166 0.193167 0.000000
vn -0.995493 0.094834 0.000000
vn -0.703920 0.094834 0.703920
vn -0.693789 0.193167 0.693789
vn -0.703920 0.094834 0.703920
vn 0.000000 0.193167 0.981166
vn -0.693789 0.193167 0.693789
vn -0.703920 0.094834 0.703920
vn 0.000000 0.094834 0.995493
vn 0.000000 0.193167 0.981166
vn 0.000000 0.094834 0.995493
vn 0.693789 0.193167 0.693789
vn 0.000000 0.193167 0.981166
vn 0.000000 0.094834 0.995493
vn 0.703920 0.094834 0.703920
vn 0.693789 0.193167 0.693789
vn 0.703920 0.094834 0.703920
vn 0.981166 0.193167 -0.000000
vn 0.693789 0.193167 0.693789
vn 0.703920 0.094834 0.703920
vn 0.995493 0.094834 -0.000000
vn 0.981166 0.193167 -0.000000
vn -0.800077 0.500048 0.331403
vn -0.800077 0.500048 0.331403
vn -0.800077 0.500048 0.331403
vn -0.800077 0.500048 0.331403
vn -0.800077 0.500048 0.331403
vn -0.800077 0.500048 0.331403
vn -0.331403 0.500048 0.800077
vn -0.331403 0.500048 0.800077
vn -0.331403 0.500048 0.800077
vn -0.331403 0.500048 0.800077
vn -0.331403 0.500048 0.800077
vn -0.331403 0.500048 0.800077
vn 0.331403 0.500048 0.800077
vn 0.331403 0.500048 0.800077
vn 0.331403 0.500048 0.800077
vn 0.331403 0.500048 0.800077
vn 0.331403 0.500048 0.800077
vn 0.331403 0.500048 0.800077
vn 0.800077 0.500048 0.331403
vn 0.800077 0.500048 0.331403
vn 0.800077 0.500048 0.331403
vn 0.800077 0.500048 0.331403
vn 0.800077 0.500048 0.331403
vn 0.800077 0.500048 0.331403
vn 0.800077 0.500048 -0.331403
vn 0.800077 0.500048 -0.331403
vn 0.800077 0.500048 -0.331403
vn 0.800077 0.500048 -0.331403
vn 0.800077 0.500048 -0.331403
vn 0.800077 0.500048 -0.331403
vn 0.331403 0.500048 -0.800077
vn 0.331403 0.500048 -0.800077
vn 0.331403 0.500048 -0.800077
vn 0.331403 0.500048 -0.800077
vn 0.331403 0.500048 -0.800077
vn 0.331403 0.500048 -0.800077
vn -0.331403 0.500048 -0.800077
vn -0.331403 0.500048 -0.800077
vn -0.331403 0.500048 -0.800077
vn -0.331403 0.500048 -0.800077
vn -0.331403 0.500048 -0.800077
vn -0.331403 0.500048 -0.800077
vn -0.800077 0.500048 -0.331403
vn -0.800077 0.500048 -0.331403
vn -0.800077 0.500048 -0.331403
vn -0.800077 0.500048 -0.331403
vn -0.800077 0.500048 -0.331403
vn -0.800077 0.500048 -0.331403
s off
g FY_Acc_TonneauOpened_A_1
usemtl FY_Acc_TonneauOpened_A_1SG
f 1/61/1 3/62/2 2/63/3
f 1/61/4 4/64/5 3/62/6
f 1/61/7 5/65/8 4/64/9
f 1/61/10 6/66/11 5/65/12
f 1/61/13 7/67/14 6/66/15
f 1/61/16 8/68/17 7/67/18
f 1/61/19 9/69/20 8/68/21
f 1/61/22 2/63/23 9/69/24
f 2/1/25 11/10/26 10/9/27
f 2/1/28 3/2/29 11/10/30
f 3/2/31 12/11/32 11/10/33
f 3/2/34 4/3/35 12/11/36
f 4/33/37 13/12/38 12/34/39
f 4/35/40 5/4/41 13/12/42
f 5/4/43 14/13/44 13/12/45
f 5/4/46 6/5/47 14/13/48
f 6/5/49 15/14/50 14/13/51
f 6/5/52 7/6/53 15/14/54
f 7/6/55 16/15/56 15/14/57
f 7/6/58 8/7/59 16/15/60
f 8/7/61 17/16/62 16/15/63
f 8/7/64 9/8/65 17/16/66
f 9/8/67 10/9/68 17/16/69
f 9/8/70 2/1/71 10/9/72
f 10/9/73 19/18/74 18/17/75
f 10/9/76 11/10/77 19/18/78
f 11/10/79 20/19/80 19/18/81
f 11/10/82 12/11/83 20/19/84
f 12/36/85 21/20/86 20/37/87
f 12/38/88 13/12/89 21/20/90
f 13/12/91 22/21/92 21/20/93
f 13/12/94 14/13/95 22/21/96
f 14/13/97 23/22/98 22/21/99
f 14/13/100 15/14/101 23/22/102
f 15/14/103 24/23/104 23/22/105
f 15/14/106 16/15/107 24/23/108
f 16/15/109 25/24/110 24/23/111
f 16/15/112 17/16/113 25/24/114
f 17/16/115 18/17/116 25/24/117
f 17/16/118 10/9/119 18/17/120
f 18/17/121 27/26/122 26/25/123
f 18/17/124 19/18/125 27/26/126
f 19/18/127 28/27/128 27/26/129
f 19/18/130 20/19/131 28/27/132
f 20/39/133 29/28/134 28/40/135
f 20/41/136 21/20/137 29/28/138
f 21/20/139 30/29/140 29/28/141
f 21/20/142 22/21/143 30/29/144
f 22/21/145 31/30/146 30/29/147
f 22/21/148 23/22/149 31/30/150
f 23/22/151 32/31/152 31/30/153
f 23/22/154 24/23/155 32/31/156
f 24/23/157 33/32/158 32/31/159
f 24/23/160 25/24/161 33/32/162
f 25/24/163 26/25/164 33/32/165
f 25/24/166 18/17/167 26/25/168
f 26/42/169 27/43/170 35/44/171
f 35/44/172 34/45/173 26/42/174
f 27/43/175 28/46/176 36/47/177
f 36/47/178 35/44/179 27/43/180
f 28/58/181 29/48/182 37/49/183
f 37/49/184 36/59/185 28/60/186
f 29/48/187 30/50/188 38/51/189
f 38/51/190 37/49/191 29/48/192
f 30/50/193 31/52/194 39/53/195
f 39/53/196 38/51/197 30/50/198
f 31/52/199 32/54/200 40/55/201
f 40/55/202 39/53/203 31/52/204
f 32/54/205 33/56/206 41/57/207
f 41/57/208 40/55/209 32/54/210
f 33/56/211 26/42/212 34/45/213
f 34/45/214 41/57/215 33/56/216
