# This file uses meters as units for non-parametric coordinates.

mtllib fy_acc_fireworks_a.max.fobj.mtl
g default
v 0.028228 -4.548158 6.180965
v 6.255650 -4.548158 -0.009161
v 0.028227 -4.548158 -6.199287
v -6.199196 -4.548158 -0.009160
v 4.474137 5.249732 -0.009161
v 0.028227 5.249732 -4.804934
v -4.417683 5.249732 -0.009160
v 0.028228 5.249732 4.786613
v 4.638326 21.034230 -0.009161
v 0.028227 21.034230 -4.853599
v -4.581873 21.034230 -0.009160
v 0.028228 21.034230 4.835278
v 8.478669 32.174079 3.431813
v 3.844925 32.174082 -8.421072
v -3.802851 32.174082 -8.421072
v -8.722272 32.174082 -3.339306
v -3.802849 32.174082 8.627653
v 3.844926 32.174082 8.627652
v 6.262779 43.992431 -0.014290
v 0.166701 43.986864 -6.811579
v -5.934943 43.911301 0.024594
v 0.166702 43.986864 6.782997
v 0.027274 48.388402 -0.011630
v 8.521167 32.174079 -3.045319
v -8.664433 32.174082 3.368253
v 12.284123 35.755141 0.173998
v 13.848173 23.375103 0.227124
v -12.415752 35.755132 0.335099
v -13.978479 23.375100 -0.053722
v 0.440019 35.241096 12.872765
v 0.051198 22.771971 13.350556
v -0.054810 35.323314 -12.979403
v 0.334011 22.854188 -13.457193
vt 1.000000 0.000000
vt 0.249436 0.000000
vt 1.000131 0.203977
vt 0.249090 0.203977
vt 0.492993 0.203977
vt 0.494904 0.000000
vt 0.745336 0.000000
vt 0.743797 0.203977
vt 1.000000 0.519617
vt 0.249064 0.519617
vt 0.493116 0.519617
vt 0.743824 0.519617
vt 1.173265 0.710644
vt 1.049369 0.710644
vt 0.322356 0.710644
vt 0.670654 0.710644
vt 0.551538 0.710644
vt 0.819745 0.710644
vt 1.000000 0.964662
vt 0.249000 0.964662
vt 0.439106 0.710644
vt 0.493675 0.964662
vt 0.495262 0.963418
vt 0.744497 0.964662
vt 0.361589 1.000000
vt 0.940585 0.710644
vt 0.000000 0.000000
vt 0.000131 0.203977
vt 0.000131 0.203977
vt 0.000131 0.203977
vt 0.000000 0.519617
vt 0.000000 0.519617
vt 0.000000 0.519617
vt 0.173265 0.710644
vt 0.173265 0.710644
vt 0.000000 0.964662
vt 0.173265 0.710644
vt 0.000007 0.964838
vt 0.000007 0.964838
vt 0.406970 0.304734
vt 0.366199 0.271145
vt 0.410241 0.227158
vt 0.453345 0.264851
vt 0.796409 0.465207
vt 0.472314 0.983007
vt 0.010132 0.614965
vt 0.791498 0.465207
vt 0.343476 0.007177
vt 0.428340 0.005084
vt 0.980619 0.002630
vt 0.746107 0.366686
vt 0.796409 0.465207
vt 0.472314 0.983007
vt 0.010132 0.614965
vt 0.791498 0.465207
vt 0.428340 0.005084
vt 0.980619 0.002630
vt 0.746107 0.366686
vt 0.343476 0.007177
vt 0.796409 0.465207
vt 0.472314 0.983007
vt 0.010132 0.614965
vt 0.791498 0.465207
vt 0.428340 0.005084
vt 0.980619 0.002630
vt 0.746107 0.366686
vt 0.343476 0.007177
vt 0.796409 0.465207
vt 0.472314 0.983007
vt 0.010132 0.614965
vt 0.791498 0.465207
vt 0.428340 0.005084
vt 0.980619 0.002630
vt 0.746107 0.366686
vt 0.343476 0.007177
vt 0.493675 0.964662
vt 0.744497 0.964662
vt 0.618884 1.000000
vt 0.249000 0.964662
vt 0.122862 1.000000
vt 0.245823 0.963444
vt 0.130820 0.995128
vn 0.983869 0.178893 -0.000000
vn 0.000000 0.164417 -0.986391
vn 0.997283 0.073672 0.000000
vn 0.997283 0.073672 0.000000
vn 0.000000 0.164417 -0.986391
vn 0.000000 0.068482 -0.997652
vn 0.000000 0.164417 -0.986391
vn -0.997283 0.073672 0.000000
vn 0.000000 0.068482 -0.997652
vn 0.000000 0.164417 -0.986391
vn -0.983869 0.178893 0.000000
vn -0.997283 0.073672 0.000000
vn -0.983869 0.178893 0.000000
vn 0.000000 0.164417 0.986391
vn -0.997283 0.073672 0.000000
vn -0.997283 0.073672 0.000000
vn 0.000000 0.164417 0.986391
vn 0.000000 0.068482 0.997652
vn 0.000000 0.164417 0.986391
vn 0.997283 0.073672 0.000000
vn 0.000000 0.068482 0.997652
vn 0.000000 0.164417 0.986391
vn 0.983869 0.178893 -0.000000
vn 0.997283 0.073672 0.000000
vn 0.997283 0.073672 0.000000
vn 0.000000 0.068482 -0.997652
vn 0.999988 -0.004822 0.000000
vn 0.999988 -0.004822 0.000000
vn 0.000000 0.068482 -0.997652
vn 0.000000 -0.003083 -0.999995
vn 0.000000 0.068482 -0.997652
vn -0.999988 -0.004822 0.000000
vn 0.000000 -0.003083 -0.999995
vn 0.000000 0.068482 -0.997652
vn -0.997283 0.073672 0.000000
vn -0.999988 -0.004822 0.000000
vn -0.997283 0.073672 0.000000
vn 0.000000 0.068482 0.997652
vn -0.999988 -0.004822 0.000000
vn -0.999988 -0.004822 0.000000
vn 0.000000 0.068482 0.997652
vn 0.000000 -0.003083 0.999995
vn 0.000000 0.068482 0.997652
vn 0.999988 -0.004822 0.000000
vn 0.000000 -0.003083 0.999995
vn 0.000000 0.068482 0.997652
vn 0.997283 0.073672 0.000000
vn 0.999988 -0.004822 0.000000
vn 0.864183 -0.503155 -0.004821
vn 0.000301 -0.512005 -0.858983
vn 0.571042 -0.131690 -0.810290
vn 0.864662 -0.141117 -0.482126
vn 0.864183 -0.503155 -0.004821
vn 0.571042 -0.131690 -0.810290
vn 0.000301 -0.512005 -0.858983
vn -0.552575 -0.121858 -0.824507
vn 0.571042 -0.131690 -0.810290
vn 0.000301 -0.512005 -0.858983
vn -0.857504 -0.514465 -0.003570
vn -0.552575 -0.121858 -0.824507
vn -0.857504 -0.514465 -0.003570
vn 0.000300 -0.525213 0.850971
vn -0.558986 -0.129299 0.819034
vn -0.851523 -0.141601 0.504834
vn -0.857504 -0.514465 -0.003570
vn -0.558986 -0.129299 0.819034
vn 0.000300 -0.525213 0.850971
vn 0.564749 -0.137304 0.813761
vn -0.558986 -0.129299 0.819034
vn 0.000300 -0.525213 0.850971
vn 0.864183 -0.503155 -0.004821
vn 0.564749 -0.137304 0.813761
vn 0.864662 -0.141117 -0.482126
vn 0.571042 -0.131690 -0.810290
vn 0.797715 0.603019 -0.004312
vn 0.797715 0.603019 -0.004312
vn 0.571042 -0.131690 -0.810290
vn 0.003170 0.635939 -0.771733
vn -0.552575 -0.121858 -0.824507
vn -0.846056 -0.140547 -0.514233
vn -0.795009 0.606597 -0.000573
vn 0.003170 0.635939 -0.771733
vn -0.552575 -0.121858 -0.824507
vn -0.795009 0.606597 -0.000573
vn -0.851523 -0.141601 0.504834
vn -0.558986 -0.129299 0.819034
vn -0.795009 0.606597 -0.000573
vn -0.795009 0.606597 -0.000573
vn -0.558986 -0.129299 0.819034
vn 0.005434 0.640994 0.767526
vn 0.005434 0.640994 0.767526
vn 0.564749 -0.137304 0.813761
vn 0.797715 0.603019 -0.004312
vn 0.003170 0.635939 -0.771733
vn -0.795009 0.606597 -0.000573
vn -0.017628 0.999845 -0.000466
vn -0.795009 0.606597 -0.000573
vn 0.005434 0.640994 0.767526
vn -0.017628 0.999845 -0.000466
vn 0.005434 0.640994 0.767526
vn 0.797715 0.603019 -0.004312
vn -0.017628 0.999845 -0.000466
vn 0.797715 0.603019 -0.004312
vn 0.003170 0.635939 -0.771733
vn -0.017628 0.999845 -0.000466
vn 0.564749 -0.137304 0.813761
vn 0.856767 -0.138079 0.496874
vn 0.797715 0.603019 -0.004312
vn 0.564749 -0.137304 0.813761
vn 0.864183 -0.503155 -0.004821
vn 0.856767 -0.138079 0.496874
vn 0.856767 -0.138079 0.496874
vn 0.864183 -0.503155 -0.004821
vn 0.864662 -0.141117 -0.482126
vn -0.552575 -0.121858 -0.824507
vn -0.857504 -0.514465 -0.003570
vn -0.846056 -0.140547 -0.514233
vn -0.846056 -0.140547 -0.514233
vn -0.857504 -0.514465 -0.003570
vn -0.851523 -0.141601 0.504834
vn 0.142345 -0.119919 -0.982526
vn 0.807321 0.590111 -0.001284
vn 0.912553 0.408925 0.005202
vn 0.807321 0.590111 -0.001284
vn 0.129364 -0.107769 0.985723
vn 0.912553 0.408925 0.005202
vn 0.129364 -0.107769 0.985723
vn 0.142345 -0.119919 -0.982526
vn 0.392624 -0.919692 0.003654
vn 0.142345 -0.119919 -0.982526
vn 0.912553 0.408925 0.005202
vn 0.392624 -0.919692 0.003654
vn 0.912553 0.408925 0.005202
vn 0.129364 -0.107769 0.985723
vn 0.392624 -0.919692 0.003654
vn 0.000000 -1.000000 -0.000000
vn 0.000000 -1.000000 -0.000000
vn 0.000000 -1.000000 -0.000000
vn 0.000000 -1.000000 -0.000000
vn 0.000000 -1.000000 -0.000000
vn 0.000000 -1.000000 -0.000000
vn -0.119284 -0.109628 0.986789
vn -0.782851 0.622196 0.003958
vn -0.902306 0.427468 0.055813
vn -0.782851 0.622196 0.003958
vn -0.195201 -0.072632 -0.978070
vn -0.902306 0.427468 0.055813
vn -0.195201 -0.072632 -0.978070
vn -0.119284 -0.109628 0.986789
vn -0.389282 -0.921008 -0.014264
vn -0.119284 -0.109628 0.986789
vn -0.902306 0.427468 0.055813
vn -0.389282 -0.921008 -0.014264
vn -0.902306 0.427468 0.055813
vn -0.195201 -0.072632 -0.978070
vn -0.389282 -0.921008 -0.014264
vn 0.984284 -0.104006 0.142717
vn -0.000463 0.571418 0.820659
vn 0.058727 0.351154 0.934474
vn -0.000463 0.571418 0.820659
vn -0.968803 -0.067639 0.238424
vn 0.058727 0.351154 0.934474
vn -0.968803 -0.067639 0.238424
vn 0.984284 -0.104006 0.142717
vn -0.008617 -0.949200 0.314556
vn 0.984284 -0.104006 0.142717
vn 0.058727 0.351154 0.934474
vn -0.008617 -0.949200 0.314556
vn 0.058727 0.351154 0.934474
vn -0.968803 -0.067639 0.238424
vn -0.008617 -0.949200 0.314556
vn -0.980662 -0.113836 -0.159194
vn 0.006899 0.579835 -0.814705
vn -0.019031 0.354471 -0.934873
vn 0.006899 0.579835 -0.814705
vn 0.982686 -0.097927 -0.157288
vn -0.019031 0.354471 -0.934873
vn 0.982686 -0.097927 -0.157288
vn -0.980662 -0.113836 -0.159194
vn 0.028387 -0.942503 -0.332989
vn -0.980662 -0.113836 -0.159194
vn -0.019031 0.354471 -0.934873
vn 0.028387 -0.942503 -0.332989
vn -0.019031 0.354471 -0.934873
vn 0.982686 -0.097927 -0.157288
vn 0.028387 -0.942503 -0.332989
s off
g FY_Acc_Fireworks_A_1
usemtl FY_Acc_Fireworks_A_1SG2
f 2/27/1 3/2/2 5/28/3
f 5/29/4 3/2/5 6/4/6
f 3/2/7 7/5/8 6/4/9
f 3/2/10 4/6/11 7/5/12
f 4/6/13 1/7/14 7/5/15
f 7/5/16 1/7/17 8/8/18
f 1/7/19 5/3/20 8/8/21
f 1/7/22 2/1/23 5/3/24
usemtl FY_Acc_Fireworks_A_1SG1
f 5/30/25 6/4/26 9/31/27
f 9/32/28 6/4/29 10/10/30
f 6/4/31 11/11/32 10/10/33
f 6/4/34 7/5/35 11/11/36
f 7/5/37 8/8/38 11/11/39
f 11/11/40 8/8/41 12/12/42
f 8/8/43 9/9/44 12/12/45
f 8/8/46 5/3/47 9/9/48
f 9/33/49 10/10/50 14/34/51
f 24/14/52 9/9/53 14/13/54
f 10/10/55 15/15/56 14/35/57
f 10/10/58 11/11/59 15/15/60
f 11/11/61 12/12/62 17/16/63
f 25/17/64 11/11/65 17/16/66
f 12/12/67 18/18/68 17/16/69
f 12/12/70 9/9/71 18/18/72
f 24/14/73 14/13/74 19/19/75
f 19/36/76 14/37/77 20/20/78
f 15/15/79 16/21/80 21/22/81
f 20/20/82 15/15/83 21/22/84
f 25/17/85 17/16/86 21/23/87
f 21/23/88 17/16/89 22/24/90
f 22/24/91 18/18/92 19/19/93
f 20/20/94 21/22/95 23/25/96
f 21/76/97 22/77/98 23/78/99
f 22/81/100 19/38/101 23/82/102
f 19/39/103 20/79/104 23/80/105
f 18/18/106 13/26/107 19/19/108
f 18/18/109 9/9/110 13/26/111
f 13/26/112 9/9/113 24/14/114
f 15/15/115 11/11/116 16/21/117
f 16/21/118 11/11/119 25/17/120
usemtl FY_Acc_Fireworks_A_1SG
f 24/44/121 19/45/122 26/46/123
f 19/45/124 13/47/125 26/46/126
f 13/49/127 24/50/128 27/51/129
f 24/44/130 26/46/131 27/48/132
f 26/46/133 13/47/134 27/48/135
usemtl FY_Acc_Fireworks_A_1SG1
f 7/41/136 6/40/137 8/42/138
f 6/40/139 5/43/140 8/42/141
usemtl FY_Acc_Fireworks_A_1SG
f 25/52/142 21/53/143 28/54/144
f 21/53/145 16/55/146 28/54/147
f 16/56/148 25/57/149 29/58/150
f 25/52/151 28/54/152 29/59/153
f 28/54/154 16/55/155 29/59/156
f 18/60/157 22/61/158 30/62/159
f 22/61/160 17/63/161 30/62/162
f 17/64/163 18/65/164 31/66/165
f 18/60/166 30/62/167 31/67/168
f 30/62/169 17/63/170 31/67/171
f 15/68/172 20/69/173 32/70/174
f 20/69/175 14/71/176 32/70/177
f 14/72/178 15/73/179 33/74/180
f 15/68/181 32/70/182 33/75/183
f 32/70/184 14/71/185 33/75/186
