# This file uses meters as units for non-parametric coordinates.

mtllib fy_acc_encensoir_a.max.fobj.mtl
g default
v -0.255909 25.927144 18.370734
v -16.205115 25.927144 9.162451
v -0.255910 13.920891 12.790587
v -11.372566 13.920891 6.372386
v -13.180532 43.266702 7.109739
v -0.448708 43.266702 15.060432
v 15.693293 25.927144 9.162454
v 10.860744 13.920891 6.372383
v 12.633605 43.266702 7.858945
v 15.693290 25.927144 -9.254101
v 10.860741 13.920891 -6.464030
v 12.624156 43.266702 -7.528110
v -0.255912 25.927144 -18.462378
v -0.255912 13.920891 -12.882230
v -0.253522 43.266702 -15.017717
v -16.205116 25.927144 -9.254101
v -11.372566 13.920891 -6.464030
v -13.185247 43.266702 -7.660204
v -1.775387 124.595749 0.045874
v 0.453771 124.595749 1.321083
v 0.431176 124.595749 -1.268044
v -1.775388 62.846494 0.045871
v 0.453770 62.846494 1.321079
v 0.431175 62.846494 -1.268048
v -0.318170 65.481961 0.007934
v -0.255912 13.838637 -13.272651
v -11.706066 13.838637 -6.661900
v -11.706066 13.838637 6.559600
v -0.255910 13.838637 13.170347
v 11.194243 13.838637 6.559597
v 11.194241 13.838637 -6.661902
v -0.255911 -0.590229 -0.051151
v -0.255912 25.710142 -18.767281
v -16.464557 25.710142 -9.409215
v -16.464556 25.710142 9.306915
v -0.255909 25.710142 18.664978
v 15.952736 25.710142 9.306911
v 15.952730 25.710142 -9.409219
v -0.252201 43.147308 -15.617027
v -13.698777 43.147308 -7.966588
v -13.693876 43.147302 7.391388
v -0.455158 43.147302 15.658622
v 13.148003 43.147302 8.170426
v 13.138177 43.147302 -7.829235
v -4.126639 6.914425 -0.051151
v 1.679452 6.914425 -3.403299
v 1.679452 6.914425 3.300997
v -11.271886 48.980266 6.056938
v -0.431609 48.980266 12.826408
v 10.707087 48.980266 6.694840
v 10.699041 48.980266 -6.406185
v -0.265422 48.980266 -12.783076
v -11.275901 48.980266 -6.518654
v -0.317717 65.481961 0.006790
v -10.850135 48.980266 5.823140
v -0.426792 48.980266 12.332246
v 10.283492 48.980266 6.436507
v 10.275755 48.980266 -6.160632
v -0.266996 48.980266 -12.292258
v -10.853996 48.980266 -6.268776
vt 0.000000 0.148498
vt 0.000000 0.755969
vt -0.000000 0.415979
vt 1.000000 0.415979
vt 1.000000 0.148619
vt 1.000000 0.756004
vt 0.941769 0.453559
vt 0.501558 0.272176
vt 0.021300 0.451468
vt 0.019056 0.625074
vt 0.447255 0.779847
vt 0.926970 0.627430
vt 0.207217 1.000000
vt 0.000000 0.502159
vt 0.214433 0.000000
vt 0.840206 0.000000
vt 1.000000 0.502658
vt 0.851546 1.000000
vt 0.998321 0.000000
vt 3.000000 0.000000
vt 2.000000 0.000000
vt 0.998320 2.000000
vt 3.000000 2.000000
vt 2.000000 2.000000
vt 0.000000 0.000000
vt 0.000000 2.000000
vt 0.000000 0.000000
vt 0.514216 0.000500
vt 0.345087 0.083656
vt 0.817638 0.083507
vt 0.614113 0.083656
vt 0.310682 0.083656
vt 0.162883 0.000000
vt 0.662541 0.000000
vt 0.333333 0.147454
vt 0.500000 0.147454
vt 0.666667 0.147454
vt 0.830797 0.000000
vt 0.833333 0.147454
vt 1.000000 0.147454
vt 0.166667 0.147454
vt 0.000000 0.000000
vt 0.000000 0.147454
vt 0.000000 0.147454
vt 0.335117 0.000000
vt 0.499155 0.000000
vt 0.500000 0.147454
vt 0.333333 0.147454
vt 0.370993 -0.000761
vt 0.472964 0.083656
vt 0.706032 -0.000761
vt 0.614113 0.083656
vt 2.000000 0.413763
vt 2.002716 0.146180
vt 2.000000 0.146084
vt 1.996967 0.755137
vt 3.002716 0.412616
vt 3.002716 0.146180
vt 3.001138 0.755233
vt 4.003699 0.412616
vt 4.002715 0.146180
vt 4.007084 0.755233
vt 5.002715 0.413832
vt 5.002715 0.146180
vt 5.002715 0.755313
vt 0.999016 0.413763
vt 1.000000 0.146084
vt 0.997600 0.755137
vt 0.000000 0.146084
vt 0.000000 0.413763
vt 0.000000 0.755241
vt 0.504326 1.000000
vt 1.000000 0.753319
vt 1.000000 0.754258
vt 1.000000 0.754314
vt 0.000000 0.753319
vt 0.000000 0.753262
vt 1.000000 0.753262
vt 0.000000 0.754427
vt 1.000000 0.753375
vt 0.509544 1.000000
vt 0.000000 0.753318
vt 1.000000 0.754258
vt 0.504326 1.000000
vt 0.000000 0.754145
vt 0.504326 1.000000
vt 0.000000 0.753206
vt 0.504326 1.000000
vt 2.001919 0.755233
vt 2.000747 0.413828
vt 0.131711 0.818353
vt 0.870549 0.817742
vt 0.870549 0.818436
vt 0.133073 0.817742
vt 0.871911 0.818436
vt 0.870549 0.818478
vt 0.131711 0.818561
vt 0.131711 0.817742
vt 0.870549 0.817784
vt 0.131711 0.817701
vt 0.131711 0.817659
vt 0.870549 0.817701
vt 0.504326 1.000000
vt 0.131711 0.818353
vt 0.870549 0.818436
vt 0.509544 1.000000
vt 0.133073 0.817742
vt 0.871911 0.818436
vt 0.504326 1.000000
vt 0.870549 0.818478
vt 0.131711 0.818561
vt 0.131711 0.817742
vt 0.870549 0.817784
vt 0.504326 1.000000
vt 0.131711 0.817659
vt 0.870549 0.817742
vt 0.504326 1.000000
vt 0.131711 0.817701
vt 0.870549 0.817701
vt 1.000000 0.754258
vt 0.000000 0.754145
vt 1.000000 0.754258
vt 0.000000 0.753318
vt 0.000000 0.754427
vt 1.000000 0.754314
vt 1.000000 0.753375
vt 0.000000 0.753319
vt 1.000000 0.753319
vt 0.000000 0.753206
vt 1.000000 0.753262
vt 0.000000 0.753262
vt -0.000000 0.415979
vt 0.000000 0.148498
vt 0.000000 0.148498
vt -0.000000 0.415979
vt 0.000000 0.755969
vt -0.000000 0.415979
vt -0.000000 0.415979
vt 1.000000 0.415979
vt 1.000000 0.148619
vt 0.000000 0.148498
vt -0.000000 0.415979
vt 1.000000 0.148619
vt 1.000000 0.415979
vt 0.000000 0.755969
vt 1.000000 0.756004
vt -0.000000 0.415979
vt 0.000000 0.755969
vt 1.000000 0.415979
vt -0.000000 0.415979
vt 1.000000 0.415979
vt 1.000000 0.148619
vt 0.000000 0.148498
vt -0.000000 0.415979
vt 1.000000 0.148619
vt 1.000000 0.415979
vt 0.000000 0.755969
vt 1.000000 0.756004
vt -0.000000 0.415979
vt 0.000000 0.755969
vt 1.000000 0.415979
vt -0.000000 0.415979
vt 1.000000 0.415979
vt 1.000000 0.148619
vt 0.000000 0.148498
vt -0.000000 0.415979
vt 1.000000 0.148619
vt 1.000000 0.415979
vt 0.000000 0.755969
vt 1.000000 0.756004
vt -0.000000 0.415979
vt 0.000000 0.755969
vt 1.000000 0.415979
vt -0.000000 0.415979
vt 1.000000 0.415979
vt 1.000000 0.148619
vt 0.000000 0.148498
vt -0.000000 0.415979
vt 1.000000 0.148619
vt 1.000000 0.415979
vt 0.000000 0.755969
vt 1.000000 0.756004
vt -0.000000 0.415979
vt 0.000000 0.755969
vt 1.000000 0.415979
vt 0.999016 0.413763
vt 0.999016 0.413763
vt 1.000000 0.146084
vt 0.997600 0.755137
vt 0.997600 0.755137
vt 0.999016 0.413763
vt 0.999016 0.413763
vt 0.000000 0.413763
vt 1.000000 0.146084
vt 0.000000 0.413763
vt 0.000000 0.146084
vt 1.000000 0.146084
vt 0.000000 0.755241
vt 0.999016 0.413763
vt 0.997600 0.755137
vt 0.000000 0.755241
vt 0.000000 0.413763
vt 0.999016 0.413763
vn 0.860176 0.103764 -0.499330
vn 0.002044 0.108410 -0.994104
vn 0.000000 0.421472 -0.906841
vn 0.785347 0.421472 -0.453421
vn 0.860176 0.103764 -0.499330
vn 0.000000 0.421472 -0.906841
vn 0.002044 0.108410 -0.994104
vn 0.833041 -0.301071 -0.464111
vn 0.025307 -0.297088 -0.954515
vn 0.860176 0.103764 -0.499330
vn 0.833041 -0.301071 -0.464111
vn 0.002044 0.108410 -0.994104
vn 0.002044 0.108410 -0.994104
vn -0.861414 0.110283 -0.495785
vn -0.785348 0.421473 -0.453420
vn 0.000000 0.421472 -0.906841
vn 0.002044 0.108410 -0.994104
vn -0.785348 0.421473 -0.453420
vn -0.861414 0.110283 -0.495785
vn 0.025307 -0.297088 -0.954515
vn -0.818425 -0.300810 -0.489586
vn 0.002044 0.108410 -0.994104
vn 0.025307 -0.297088 -0.954515
vn -0.861414 0.110283 -0.495785
vn -0.861414 0.110283 -0.495785
vn -0.861189 0.107054 0.496883
vn -0.785347 0.421472 0.453421
vn -0.785348 0.421473 -0.453420
vn -0.861414 0.110283 -0.495785
vn -0.785347 0.421472 0.453421
vn -0.861189 0.107054 0.496883
vn -0.818425 -0.300810 -0.489586
vn -0.824793 -0.305105 0.476054
vn -0.861414 0.110283 -0.495785
vn -0.818425 -0.300810 -0.489586
vn -0.861189 0.107054 0.496883
vn -0.861189 0.107054 0.496883
vn -0.000322 0.108587 0.994087
vn -0.000000 0.421473 0.906841
vn -0.785347 0.421472 0.453421
vn -0.861189 0.107054 0.496883
vn -0.000000 0.421473 0.906841
vn -0.000322 0.108587 0.994087
vn -0.824793 -0.305105 0.476054
vn -0.003766 -0.303010 0.952980
vn -0.861189 0.107054 0.496883
vn -0.824793 -0.305105 0.476054
vn -0.000322 0.108587 0.994087
vn 0.861089 0.109060 0.496620
vn 0.860176 0.103764 -0.499330
vn 0.785347 0.421472 -0.453421
vn 0.785347 0.421473 0.453421
vn 0.861089 0.109060 0.496620
vn 0.785347 0.421472 -0.453421
vn 0.860176 0.103764 -0.499330
vn 0.823018 -0.302289 0.480898
vn 0.833041 -0.301071 -0.464111
vn 0.861089 0.109060 0.496620
vn 0.823018 -0.302289 0.480898
vn 0.860176 0.103764 -0.499330
vn -0.000322 0.108587 0.994087
vn 0.861089 0.109060 0.496620
vn 0.785347 0.421473 0.453421
vn -0.000000 0.421473 0.906841
vn -0.000322 0.108587 0.994087
vn 0.785347 0.421473 0.453421
vn 0.861089 0.109060 0.496620
vn -0.003766 -0.303010 0.952980
vn 0.823018 -0.302289 0.480898
vn -0.000322 0.108587 0.994087
vn -0.003766 -0.303010 0.952980
vn 0.861089 0.109060 0.496620
vn 0.000000 1.000000 0.000000
vn 0.000000 1.000000 0.000000
vn 0.000000 1.000000 0.000000
vn 0.000000 1.000000 0.000000
vn 0.000000 1.000000 0.000000
vn 0.000000 1.000000 0.000000
vn 0.000000 1.000000 0.000000
vn 0.000000 1.000000 0.000000
vn 0.000000 1.000000 0.000000
vn 0.000000 1.000000 0.000000
vn 0.000000 1.000000 0.000000
vn 0.000000 1.000000 0.000000
vn -0.511624 0.000000 -0.859209
vn -0.511624 0.000000 -0.859209
vn -0.511624 0.000000 -0.859209
vn -0.511624 0.000000 -0.859209
vn -0.511624 0.000000 -0.859209
vn -0.511624 0.000000 -0.859209
vn 0.999962 -0.000000 -0.008727
vn 0.999962 -0.000000 -0.008727
vn 0.999962 -0.000000 -0.008727
vn 0.999962 -0.000000 -0.008727
vn 0.999962 -0.000000 -0.008727
vn 0.999962 -0.000000 -0.008727
vn -0.496551 -0.000000 0.868008
vn -0.496551 -0.000000 0.868008
vn -0.496551 -0.000000 0.868007
vn -0.496551 -0.000000 0.868007
vn -0.496551 -0.000000 0.868007
vn -0.496551 -0.000000 0.868008
vn -0.002111 -0.116026 0.993244
vn -0.859451 -0.111029 0.499015
vn -0.008890 -0.603879 0.797026
vn -0.859451 -0.111029 0.499015
vn -0.685800 -0.603879 0.406213
vn -0.008890 -0.603879 0.797026
vn -0.834630 0.295317 0.464951
vn -0.002111 -0.116026 0.993244
vn -0.025311 0.290845 0.956435
vn -0.834630 0.295317 0.464951
vn -0.859451 -0.111029 0.499015
vn -0.002111 -0.116026 0.993244
vn -0.003047 0.999995 0.000556
vn -0.754545 0.505305 0.418723
vn -0.024449 0.513269 0.857879
vn 0.000000 -1.000000 0.000000
vn -0.560646 -0.828056 0.000000
vn 0.280323 -0.828056 -0.485534
vn 0.000000 -1.000000 0.000000
vn 0.280323 -0.828056 0.485534
vn -0.560646 -0.828056 0.000000
vn 0.000000 -1.000000 0.000000
vn 0.280323 -0.828056 -0.485534
vn 0.280323 -0.828056 0.485534
vn -0.560646 -0.828056 0.000000
vn 0.280323 -0.828056 0.485534
vn -0.685800 -0.603879 0.406213
vn 0.280323 -0.828056 0.485534
vn -0.008890 -0.603879 0.797026
vn -0.685800 -0.603879 0.406213
vn 0.860702 -0.117946 0.495258
vn -0.002111 -0.116026 0.993244
vn 0.694690 -0.603879 0.390814
vn -0.002111 -0.116026 0.993244
vn -0.008890 -0.603879 0.797026
vn 0.694690 -0.603879 0.390814
vn -0.025311 0.290845 0.956435
vn 0.860702 -0.117946 0.495258
vn 0.820048 0.294587 0.490652
vn -0.025311 0.290845 0.956435
vn -0.002111 -0.116026 0.993244
vn 0.860702 -0.117946 0.495258
vn -0.003047 0.999995 0.000556
vn -0.024449 0.513269 0.857879
vn 0.737972 0.515565 0.435419
vn 0.280323 -0.828056 0.485534
vn 0.694690 -0.603879 0.390814
vn -0.008890 -0.603879 0.797026
vn 0.860470 -0.114468 -0.496477
vn 0.860702 -0.117946 0.495258
vn 0.694690 -0.603879 -0.390814
vn 0.860702 -0.117946 0.495258
vn 0.694690 -0.603879 0.390814
vn 0.694690 -0.603879 -0.390814
vn 0.820048 0.294587 0.490652
vn 0.860470 -0.114468 -0.496477
vn 0.826369 0.299303 -0.477003
vn 0.820048 0.294587 0.490652
vn 0.860702 -0.117946 0.495258
vn 0.860470 -0.114468 -0.496477
vn -0.003047 0.999995 0.000556
vn 0.737972 0.515565 0.435419
vn 0.744568 0.512052 -0.428277
vn 0.280323 -0.828056 0.485534
vn 0.280323 -0.828056 -0.485534
vn 0.694690 -0.603879 0.390814
vn 0.280323 -0.828056 -0.485534
vn 0.694690 -0.603879 -0.390814
vn 0.694690 -0.603879 0.390814
vn 0.000323 -0.116024 -0.993246
vn 0.860470 -0.114468 -0.496477
vn -0.008891 -0.603879 -0.797026
vn 0.860470 -0.114468 -0.496477
vn 0.694690 -0.603879 -0.390814
vn -0.008891 -0.603879 -0.797026
vn 0.826369 0.299303 -0.477003
vn 0.000323 -0.116024 -0.993246
vn 0.003757 0.297297 -0.954778
vn 0.826369 0.299303 -0.477003
vn 0.860470 -0.114468 -0.496477
vn 0.000323 -0.116024 -0.993246
vn -0.003047 0.999995 0.000556
vn 0.744568 0.512052 -0.428277
vn 0.004053 0.513295 -0.858203
vn 0.280323 -0.828056 -0.485534
vn -0.008891 -0.603879 -0.797026
vn 0.694690 -0.603879 -0.390814
vn -0.859451 -0.111029 0.499015
vn -0.860364 -0.116526 -0.496180
vn -0.685800 -0.603879 0.406213
vn -0.860364 -0.116526 -0.496180
vn -0.685800 -0.603879 -0.406213
vn -0.685800 -0.603879 0.406213
vn -0.824560 0.296504 -0.481857
vn -0.859451 -0.111029 0.499015
vn -0.834630 0.295317 0.464951
vn -0.824560 0.296504 -0.481857
vn -0.860364 -0.116526 -0.496180
vn -0.859451 -0.111029 0.499015
vn -0.003047 0.999995 0.000556
vn -0.742957 0.511891 -0.431257
vn -0.754545 0.505305 0.418723
vn -0.560646 -0.828056 0.000000
vn -0.685800 -0.603879 0.406213
vn -0.685800 -0.603879 -0.406213
vn -0.860364 -0.116526 -0.496180
vn 0.000323 -0.116024 -0.993246
vn -0.685800 -0.603879 -0.406213
vn 0.000323 -0.116024 -0.993246
vn -0.008891 -0.603879 -0.797026
vn -0.685800 -0.603879 -0.406213
vn 0.003757 0.297297 -0.954778
vn -0.860364 -0.116526 -0.496180
vn -0.824560 0.296504 -0.481857
vn 0.003757 0.297297 -0.954778
vn 0.000323 -0.116024 -0.993246
vn -0.860364 -0.116526 -0.496180
vn -0.003047 0.999995 0.000556
vn 0.004053 0.513295 -0.858203
vn -0.742957 0.511891 -0.431257
vn 0.280323 -0.828056 -0.485534
vn -0.560646 -0.828056 0.000000
vn -0.008891 -0.603879 -0.797026
vn -0.560646 -0.828056 0.000000
vn -0.685800 -0.603879 -0.406213
vn -0.008891 -0.603879 -0.797026
vn -0.024449 0.513269 0.857879
vn -0.754545 0.505305 0.418723
vn -0.025311 0.290845 0.956435
vn -0.754545 0.505305 0.418723
vn -0.834630 0.295317 0.464951
vn -0.025311 0.290845 0.956435
vn 0.737972 0.515565 0.435419
vn -0.024449 0.513269 0.857879
vn 0.820048 0.294587 0.490652
vn -0.024449 0.513269 0.857879
vn -0.025311 0.290845 0.956435
vn 0.820048 0.294587 0.490652
vn 0.744568 0.512052 -0.428277
vn 0.737972 0.515565 0.435419
vn 0.826369 0.299303 -0.477003
vn 0.737972 0.515565 0.435419
vn 0.820048 0.294587 0.490652
vn 0.826369 0.299303 -0.477003
vn 0.004053 0.513295 -0.858203
vn 0.744568 0.512052 -0.428277
vn 0.003757 0.297297 -0.954778
vn 0.744568 0.512052 -0.428277
vn 0.826369 0.299303 -0.477003
vn 0.003757 0.297297 -0.954778
vn -0.754545 0.505305 0.418723
vn -0.742957 0.511891 -0.431257
vn -0.834630 0.295317 0.464951
vn -0.742957 0.511891 -0.431257
vn -0.824560 0.296504 -0.481857
vn -0.834630 0.295317 0.464951
vn -0.742957 0.511891 -0.431257
vn 0.004053 0.513295 -0.858203
vn -0.824560 0.296504 -0.481857
vn 0.004053 0.513295 -0.858203
vn 0.003757 0.297297 -0.954778
vn -0.824560 0.296504 -0.481857
vn 0.759617 -0.495341 -0.421449
vn 0.003005 -0.999995 -0.000546
vn 0.024606 -0.503448 -0.863675
vn 0.024606 -0.503448 -0.863675
vn 0.003005 -0.999995 -0.000546
vn -0.743027 -0.505715 -0.438364
vn -0.743027 -0.505715 -0.438364
vn 0.003005 -0.999995 -0.000546
vn -0.749633 -0.502035 0.431289
vn -0.749633 -0.502035 0.431289
vn 0.003005 -0.999995 -0.000546
vn -0.004056 -0.503155 0.864187
vn 0.748055 -0.501793 0.434301
vn 0.003005 -0.999995 -0.000546
vn 0.759617 -0.495341 -0.421449
vn -0.004056 -0.503155 0.864187
vn 0.003005 -0.999995 -0.000546
vn 0.748055 -0.501793 0.434301
vn 0.759617 -0.495341 -0.421449
vn 0.024606 -0.503448 -0.863675
vn 0.025307 -0.297088 -0.954515
vn 0.833041 -0.301071 -0.464111
vn 0.759617 -0.495341 -0.421449
vn 0.025307 -0.297088 -0.954515
vn 0.024606 -0.503448 -0.863675
vn -0.743027 -0.505715 -0.438364
vn -0.818425 -0.300810 -0.489586
vn 0.025307 -0.297088 -0.954515
vn 0.024606 -0.503448 -0.863675
vn -0.818425 -0.300810 -0.489586
vn -0.743027 -0.505715 -0.438364
vn -0.749633 -0.502035 0.431289
vn -0.824793 -0.305105 0.476054
vn -0.818425 -0.300810 -0.489586
vn -0.743027 -0.505715 -0.438364
vn -0.824793 -0.305105 0.476054
vn -0.749633 -0.502035 0.431289
vn -0.004056 -0.503155 0.864187
vn -0.003766 -0.303010 0.952980
vn -0.824793 -0.305105 0.476054
vn -0.749633 -0.502035 0.431289
vn -0.003766 -0.303010 0.952980
vn 0.748055 -0.501793 0.434301
vn 0.759617 -0.495341 -0.421449
vn 0.833041 -0.301071 -0.464111
vn 0.823018 -0.302289 0.480898
vn 0.748055 -0.501793 0.434301
vn 0.833041 -0.301071 -0.464111
vn -0.004056 -0.503155 0.864187
vn 0.748055 -0.501793 0.434301
vn 0.823018 -0.302289 0.480898
vn -0.003766 -0.303010 0.952980
vn -0.004056 -0.503155 0.864187
vn 0.823018 -0.302289 0.480898
s off
g FY_Acc_Encensoir_A_1
usemtl FY_Acc_Encensoir_A_1SG
f 2/3/1 1/4/2 3/5/3
f 4/1/4 2/3/5 3/5/6
f 1/4/7 5/2/8 6/6/9
f 2/3/10 5/2/11 1/4/12
f 1/4/13 7/132/14 8/133/15
f 3/5/16 1/4/17 8/134/18
f 7/135/19 6/6/20 9/136/21
f 1/4/22 6/6/23 7/137/24
f 7/138/25 10/139/26 11/140/27
f 8/141/28 7/142/29 11/143/30
f 10/144/31 9/145/32 12/146/33
f 7/147/34 9/148/35 10/149/36
f 10/150/37 13/151/38 14/152/39
f 11/153/40 10/154/41 14/155/42
f 13/156/43 12/157/44 15/158/45
f 10/159/46 12/160/47 13/161/48
f 16/162/49 2/163/50 4/164/51
f 17/165/52 16/166/53 4/167/54
f 2/168/55 18/169/56 5/170/57
f 16/171/58 18/172/59 2/173/60
f 13/174/61 16/175/62 17/176/63
f 14/177/64 13/178/65 17/179/66
f 16/180/67 15/181/68 18/182/69
f 13/183/70 15/184/71 16/185/72
usemtl FY_Acc_Encensoir_A_1SG2
f 14/13/73 17/14/74 4/15/75
f 14/13/76 4/15/77 3/16/78
f 14/13/79 3/16/80 8/17/81
f 14/13/82 8/17/83 11/18/84
usemtl FY_Acc_Encensoir_A_1SG1
f 19/19/85 21/21/86 24/24/87
f 24/24/88 22/22/89 19/19/90
f 21/21/91 20/20/92 23/23/93
f 23/23/94 24/24/95 21/21/96
f 20/25/97 19/19/98 22/22/99
f 22/22/100 23/26/101 20/27/102
usemtl FY_Acc_Encensoir_A_1SG
f 36/66/103 35/70/104 29/67/105
f 35/70/106 28/69/107 29/67/108
f 41/71/109 36/66/110 42/68/111
f 41/71/112 35/70/113 36/66/114
f 25/84/115 48/91/116 49/93/117
f 32/49/118 45/50/119 46/32/120
f 32/28/121 47/31/122 45/29/123
f 32/51/124 46/30/125 47/52/126
f 45/45/127 47/46/128 28/48/129
f 47/46/130 29/47/131 28/48/132
f 37/57/133 36/90/134 30/58/135
f 36/90/136 29/54/137 30/58/138
f 42/89/139 37/57/140 43/59/141
f 42/89/142 36/90/143 37/57/144
f 25/81/145 49/94/146 50/95/147
f 47/34/148 30/37/149 29/36/150
f 38/60/151 37/57/152 31/61/153
f 37/57/154 30/58/155 31/61/156
f 43/59/157 38/60/158 44/62/159
f 43/59/160 37/57/161 38/60/162
f 25/72/163 50/96/164 51/97/165
f 47/34/166 46/38/167 30/37/168
f 46/38/169 31/39/170 30/37/171
f 33/63/172 38/60/173 26/64/174
f 38/60/175 31/61/176 26/64/177
f 44/62/178 33/63/179 39/65/180
f 44/62/181 38/60/182 33/63/183
f 25/72/184 51/98/185 52/99/186
f 46/38/187 26/40/188 31/39/189
f 35/53/190 34/186/191 28/55/192
f 34/187/193 27/188/194 28/55/195
f 40/189/196 35/53/197 41/56/198
f 40/190/199 34/191/200 35/53/201
f 25/86/202 53/101/203 48/92/204
f 45/33/205 28/35/206 27/41/207
f 34/192/208 33/193/209 27/194/210
f 33/195/211 26/196/212 27/197/213
f 39/198/214 34/199/215 40/200/216
f 39/201/217 33/202/218 34/203/219
f 25/88/220 52/100/221 53/102/222
f 46/42/223 45/33/224 26/43/225
f 45/33/226 27/41/227 26/44/228
f 49/93/229 48/91/230 42/74/231
f 48/91/232 41/85/233 42/74/234
f 50/95/235 49/94/236 43/83/237
f 49/94/238 42/82/239 43/83/240
f 51/97/241 50/96/242 44/79/243
f 50/96/244 43/75/245 44/79/246
f 52/99/247 51/98/248 39/80/249
f 51/98/250 44/76/251 39/80/252
f 48/92/253 53/101/254 41/73/255
f 53/101/256 40/87/257 41/73/258
f 53/102/259 52/100/260 40/78/261
f 52/100/262 39/77/263 40/78/264
f 55/104/265 54/103/266 56/105/267
f 56/107/268 54/106/269 57/108/270
f 57/110/271 54/109/272 58/111/273
f 58/112/274 54/109/275 59/113/276
f 60/115/277 54/114/278 55/116/279
f 59/118/280 54/117/281 60/119/282
f 55/104/283 56/105/284 6/120/285
f 5/121/286 55/104/287 6/120/288
f 56/107/289 57/108/290 9/122/291
f 6/123/292 56/107/293 9/122/294
f 57/110/295 58/111/296 12/124/297
f 9/125/298 57/110/299 12/124/300
f 58/112/301 59/113/302 15/126/303
f 12/127/304 58/112/305 15/126/306
f 60/115/307 55/116/308 5/128/309
f 18/129/310 60/115/311 5/128/312
f 59/118/313 60/119/314 18/130/315
f 15/131/316 59/118/317 18/130/318
