# This file uses meters as units for non-parametric coordinates.

mtllib fy_acc_tabouret_c.max.fobj.mtl
g default
v -18.475679 40.554851 -0.473440
v 19.089437 40.864933 -0.473440
v 0.373829 35.194874 -11.005173
v -18.475679 44.216365 -22.243568
v 0.358604 40.948403 -22.243562
v 18.947278 44.238853 -22.550747
v -17.310654 44.821745 -0.473440
v 0.443013 45.428729 -0.473439
v 17.629682 44.454002 -0.473440
v -16.870341 47.952884 -21.653026
v 0.376620 46.985555 -23.340637
v 17.387393 48.278701 -23.187050
v -4.639022 36.236000 -0.473440
v 6.770241 36.236000 -0.473440
v -1.886338 25.920555 -6.050603
v -4.562421 26.262218 -0.473440
v 1.528350 26.262218 -0.473440
v 0.581335 10.499988 7.381208
v 0.635830 10.523687 -8.040831
v -3.074229 10.864256 -0.473440
v 5.121811 10.864256 -0.473440
v 15.390383 6.037788 17.585358
v -14.330117 5.543459 -17.546938
v -13.851191 5.640483 17.348300
v 14.945506 5.962498 -17.914127
v 16.643475 0.096909 18.849377
v -15.454666 -0.306953 -19.093506
v -14.937425 -0.062113 18.593353
v 16.163008 -0.125791 -19.490068
v -18.475677 44.216359 21.296692
v 0.358604 40.948403 21.296683
v 0.373829 35.194874 10.058294
v 18.947278 44.238853 21.603867
v -16.870341 47.952884 20.706148
v 0.376621 46.985555 22.393758
v 17.387392 48.278701 22.240171
v -1.886338 25.920558 5.103722
vt 0.497372 0.000000
vt 0.500949 0.494304
vt 0.486275 0.733333
vt 0.486275 0.972549
vt 0.541176 0.262745
vt 0.545098 0.972549
vt 0.529412 0.733333
vt 0.061753 0.829928
vt 0.939053 0.848475
vt 0.939948 0.109673
vt 0.077590 0.090389
vt 0.486275 0.494118
vt 0.541176 0.270588
vt 0.541176 0.494118
vt 0.951273 0.006337
vt 0.501314 0.219456
vt 0.036900 0.007690
vt 0.000000 0.205383
vt 0.000000 0.467479
vt 1.000000 0.470970
vt 1.000000 0.188907
vt 0.486275 0.058824
vt 0.541176 0.058824
vt 0.486275 0.270588
vt 0.541176 0.494118
vt 0.486275 0.494118
vt 0.486275 0.494118
vt 0.486275 0.262745
vt 0.541176 0.984314
vt 0.541176 0.494118
vt 0.541176 0.733333
vt 0.486275 0.007843
vt 0.541176 0.007843
vt 0.490196 0.729412
vt 0.478431 0.984314
vt 0.541176 0.494118
vt 0.486275 0.494118
vt 0.113725 0.082353
vt 0.815686 0.082353
vt 0.145098 0.007843
vt 0.796078 0.007843
vt 0.878431 0.086275
vt 0.125490 0.082353
vt 0.862745 0.007843
vt 0.137255 0.003922
vt 0.878431 0.086275
vt 0.180392 0.086275
vt 0.200000 0.007843
vt 0.862745 0.007843
vt 0.117647 0.082353
vt 0.827451 0.082353
vt 0.137255 0.003922
vt 0.784314 0.003922
vt 0.490326 1.045219
vt 1.059725 1.086640
vt 1.044457 0.680634
vt 0.758254 0.615249
vt 0.446169 0.312681
vt 1.024448 0.353634
vt 0.482960 0.725248
vt 0.469737 0.501697
vt 0.648229 0.554619
vt 0.495832 0.491577
vt 0.502891 0.610919
vt 0.728939 0.331022
vt 0.522576 0.246977
vt 0.532074 0.407569
vt 0.320479 0.331822
vt 0.041938 -0.008824
vt 0.983080 -0.000959
vt 0.082904 0.559638
vt 1.008121 0.567924
vt -0.109039 0.680635
vt -0.093772 1.086640
vt 0.200227 0.615249
vt -0.145325 0.353634
vt 0.352722 0.554619
vn -0.850608 -0.525800 -0.000000
vn -0.717776 -0.297159 -0.629677
vn -0.015212 -0.681048 -0.732081
vn -0.015212 -0.681048 -0.732081
vn 0.014340 -0.865403 -0.500870
vn -0.850608 -0.525800 -0.000000
vn 0.314222 -0.949349 -0.000000
vn -0.015212 -0.681048 -0.732081
vn 0.117094 -0.724873 -0.678858
vn -0.015212 -0.681048 -0.732081
vn 0.314222 -0.949349 -0.000000
vn 0.014340 -0.865403 -0.500870
vn -0.435557 0.746322 -0.503284
vn 0.005096 0.999987 -0.000000
vn -0.041254 0.634089 -0.772159
vn 0.005096 0.999987 -0.000000
vn -0.435557 0.746322 -0.503284
vn -0.653362 0.757046 0.000000
vn 0.005096 0.999987 -0.000000
vn 0.056623 0.998396 0.000000
vn -0.005466 0.608212 -0.793756
vn -0.005466 0.608212 -0.793756
vn -0.041254 0.634089 -0.772159
vn 0.005096 0.999987 -0.000000
vn 0.117094 -0.724873 -0.678858
vn -0.015212 -0.681048 -0.732081
vn -0.005466 0.608212 -0.793756
vn -0.041254 0.634089 -0.772159
vn -0.005466 0.608212 -0.793756
vn -0.015212 -0.681048 -0.732081
vn -0.015212 -0.681048 -0.732081
vn -0.717776 -0.297159 -0.629677
vn -0.435557 0.746322 -0.503284
vn -0.435557 0.746322 -0.503284
vn -0.041254 0.634089 -0.772159
vn -0.015212 -0.681048 -0.732081
vn -0.435557 0.746322 -0.503284
vn -0.850608 -0.525800 -0.000000
vn -0.653362 0.757046 0.000000
vn -0.850608 -0.525800 -0.000000
vn -0.435557 0.746322 -0.503284
vn -0.717776 -0.297159 -0.629677
vn 0.611547 -0.460450 -0.643425
vn 0.626933 -0.464383 0.625543
vn -0.616326 -0.473534 0.629212
vn -0.621918 -0.465522 -0.629688
vn 0.611547 -0.460450 -0.643425
vn -0.616326 -0.473534 0.629212
vn 0.014340 -0.865403 -0.500870
vn -0.706527 -0.707686 0.000000
vn -0.850608 -0.525800 -0.000000
vn 0.014340 -0.865403 -0.500870
vn 0.314222 -0.949349 -0.000000
vn 0.569446 -0.822029 0.000000
vn -0.197868 -0.177656 -0.963995
vn 0.569446 -0.822029 0.000000
vn 0.988228 -0.152984 -0.000952
vn 0.569446 -0.822029 0.000000
vn -0.197868 -0.177656 -0.963995
vn 0.014340 -0.865403 -0.500870
vn -0.706527 -0.707686 0.000000
vn 0.014340 -0.865403 -0.500870
vn -0.197868 -0.177656 -0.963995
vn -0.197868 -0.177656 -0.963995
vn -0.998761 -0.049740 -0.001421
vn -0.706527 -0.707686 0.000000
vn -0.005610 0.882957 -0.469420
vn 0.988228 -0.152984 -0.000952
vn 0.650383 0.759582 -0.006133
vn 0.988228 -0.152984 -0.000952
vn -0.005610 0.882957 -0.469420
vn -0.197868 -0.177656 -0.963995
vn -0.998761 -0.049740 -0.001421
vn -0.197868 -0.177656 -0.963995
vn -0.005610 0.882957 -0.469420
vn -0.005610 0.882957 -0.469420
vn -0.781191 0.624254 -0.006883
vn -0.998761 -0.049740 -0.001421
vn 0.650383 0.759582 -0.006133
vn -0.010635 0.893086 0.449760
vn 0.558801 0.612809 0.558754
vn 0.558801 0.612809 0.558754
vn 0.555397 0.618676 -0.555675
vn 0.650383 0.759582 -0.006133
vn -0.010635 0.893086 0.449760
vn -0.781191 0.624254 -0.006883
vn -0.569414 0.603307 0.558381
vn -0.569414 0.603307 0.558381
vn 0.558801 0.612809 0.558754
vn -0.010635 0.893086 0.449760
vn -0.005610 0.882957 -0.469420
vn 0.650383 0.759582 -0.006133
vn 0.555397 0.618676 -0.555675
vn 0.555397 0.618676 -0.555675
vn -0.581836 0.611667 -0.536032
vn -0.005610 0.882957 -0.469420
vn -0.781191 0.624254 -0.006883
vn -0.005610 0.882957 -0.469420
vn -0.581836 0.611667 -0.536032
vn -0.581836 0.611667 -0.536032
vn -0.569414 0.603307 0.558381
vn -0.781191 0.624254 -0.006883
vn 0.555397 0.618676 -0.555675
vn 0.558801 0.612809 0.558754
vn 0.626933 -0.464383 0.625543
vn 0.626933 -0.464383 0.625543
vn 0.611547 -0.460450 -0.643425
vn 0.555397 0.618676 -0.555675
vn 0.558801 0.612809 0.558754
vn -0.569414 0.603307 0.558381
vn -0.616326 -0.473534 0.629212
vn -0.616326 -0.473534 0.629212
vn 0.626933 -0.464383 0.625543
vn 0.558801 0.612809 0.558754
vn -0.581836 0.611667 -0.536032
vn 0.555397 0.618676 -0.555675
vn 0.611547 -0.460450 -0.643425
vn 0.611547 -0.460450 -0.643425
vn -0.621918 -0.465522 -0.629688
vn -0.581836 0.611667 -0.536032
vn -0.569414 0.603307 0.558381
vn -0.581836 0.611667 -0.536032
vn -0.621918 -0.465522 -0.629688
vn -0.621918 -0.465522 -0.629688
vn -0.616326 -0.473534 0.629212
vn -0.569414 0.603307 0.558381
vn -0.850608 -0.525800 -0.000000
vn -0.015212 -0.681048 0.732081
vn -0.717776 -0.297160 0.629678
vn -0.015212 -0.681048 0.732081
vn -0.850608 -0.525800 -0.000000
vn 0.014340 -0.865404 0.500870
vn 0.314222 -0.949349 -0.000000
vn 0.117094 -0.724873 0.678858
vn -0.015212 -0.681048 0.732081
vn -0.015212 -0.681048 0.732081
vn 0.014340 -0.865404 0.500870
vn 0.314222 -0.949349 -0.000000
vn -0.435557 0.746321 0.503284
vn -0.041254 0.634089 0.772159
vn 0.005096 0.999987 -0.000000
vn 0.005096 0.999987 -0.000000
vn -0.653362 0.757046 0.000000
vn -0.435557 0.746321 0.503284
vn 0.005096 0.999987 -0.000000
vn -0.005466 0.608212 0.793756
vn 0.056623 0.998396 0.000000
vn -0.005466 0.608212 0.793756
vn 0.005096 0.999987 -0.000000
vn -0.041254 0.634089 0.772159
vn 0.117094 -0.724873 0.678858
vn -0.005466 0.608212 0.793756
vn -0.015212 -0.681048 0.732081
vn -0.041254 0.634089 0.772159
vn -0.015212 -0.681048 0.732081
vn -0.005466 0.608212 0.793756
vn -0.015212 -0.681048 0.732081
vn -0.435557 0.746321 0.503284
vn -0.717776 -0.297160 0.629678
vn -0.435557 0.746321 0.503284
vn -0.015212 -0.681048 0.732081
vn -0.041254 0.634089 0.772159
vn -0.435557 0.746321 0.503284
vn -0.653362 0.757046 0.000000
vn -0.850608 -0.525800 -0.000000
vn -0.850608 -0.525800 -0.000000
vn -0.717776 -0.297160 0.629678
vn -0.435557 0.746321 0.503284
vn 0.014340 -0.865404 0.500870
vn -0.850608 -0.525800 -0.000000
vn -0.706527 -0.707686 0.000000
vn 0.014340 -0.865404 0.500870
vn 0.569446 -0.822029 0.000000
vn 0.314222 -0.949349 -0.000000
vn -0.197895 -0.167542 0.965799
vn 0.988228 -0.152984 -0.000952
vn 0.569446 -0.822029 0.000000
vn 0.569446 -0.822029 0.000000
vn 0.014340 -0.865404 0.500870
vn -0.197895 -0.167542 0.965799
vn -0.706527 -0.707686 0.000000
vn -0.197895 -0.167542 0.965799
vn 0.014340 -0.865404 0.500870
vn -0.197895 -0.167542 0.965799
vn -0.706527 -0.707686 0.000000
vn -0.998761 -0.049740 -0.001421
vn -0.010635 0.893086 0.449760
vn 0.650383 0.759582 -0.006133
vn 0.988228 -0.152984 -0.000952
vn 0.988228 -0.152984 -0.000952
vn -0.197895 -0.167542 0.965799
vn -0.010635 0.893086 0.449760
vn -0.998761 -0.049740 -0.001421
vn -0.010635 0.893086 0.449760
vn -0.197895 -0.167542 0.965799
vn -0.010635 0.893086 0.449760
vn -0.998761 -0.049740 -0.001421
vn -0.781191 0.624254 -0.006883
vn 0.925083 0.376252 -0.051543
vn 0.925083 0.376252 -0.051543
vn 0.925083 0.376252 -0.051543
vn 0.928846 0.366819 -0.051860
vn 0.928846 0.366819 -0.051860
vn 0.928846 0.366819 -0.051860
vn 0.929030 0.366604 0.050043
vn 0.929030 0.366604 0.050043
vn 0.929030 0.366604 0.050043
vn 0.924988 0.376213 0.053483
vn 0.924988 0.376213 0.053483
vn 0.924988 0.376213 0.053483
s off
g FY_Acc_Tabouret_C_1
usemtl FY_Acc_Tabouret_C_1SG
f 1/54/1 4/55/2 5/56/3
f 5/56/4 3/57/5 1/54/6
f 2/58/7 5/56/8 6/59/9
f 5/56/10 2/58/11 3/57/12
usemtl FY_Acc_Tabouret_C_1SG1
f 10/15/13 8/16/14 11/21/15
f 8/16/16 10/15/17 7/1/18
f 8/16/19 9/2/20 12/20/21
f 12/20/22 11/21/23 8/16/24
usemtl FY_Acc_Tabouret_C_1SG
f 6/27/25 5/28/26 12/30/27
f 11/5/28 12/30/29 5/28/30
f 5/28/31 4/32/32 10/33/33
f 10/33/34 11/5/35 5/28/36
f 10/6/37 1/3/38 7/7/39
f 1/3/40 10/6/41 4/4/42
f 29/8/43 26/9/44 28/10/45
f 27/11/46 29/8/47 28/10/48
f 3/57/49 13/60/50 1/54/51
f 3/57/52 2/58/53 14/61/54
f 15/62/55 14/61/56 17/63/57
f 14/61/58 15/62/59 3/57/60
f 13/60/61 3/57/62 15/62/63
f 15/62/64 16/64/65 13/60/66
f 19/65/67 17/63/68 21/66/69
f 17/63/70 19/65/71 15/62/72
f 16/64/73 15/62/74 19/65/75
f 19/65/76 20/67/77 16/64/78
f 21/66/79 18/68/80 22/69/81
f 22/69/82 25/70/83 21/66/84
f 18/68/85 20/67/86 24/71/87
f 24/71/88 22/69/89 18/68/90
f 19/65/91 21/66/92 25/70/93
f 25/70/94 23/72/95 19/65/96
f 20/67/97 19/65/98 23/72/99
f 23/72/100 24/71/101 20/67/102
usemtl FY_Acc_Tabouret_C_1SG1
f 25/49/103 22/48/104 26/47/105
f 26/47/106 29/46/107 25/49/108
f 22/40/109 24/41/110 28/39/111
f 28/39/112 26/38/113 22/40/114
f 23/53/115 25/52/116 29/50/117
f 29/50/118 27/51/119 23/53/120
f 24/44/121 23/45/122 27/43/123
f 27/43/124 28/42/125 24/44/126
usemtl FY_Acc_Tabouret_C_1SG
f 1/54/127 31/73/128 30/74/129
f 31/73/130 1/54/131 32/75/132
f 2/58/133 33/76/134 31/73/135
f 31/73/136 32/75/137 2/58/138
usemtl FY_Acc_Tabouret_C_1SG1
f 34/17/139 35/18/140 8/16/141
f 8/16/142 7/1/143 34/17/144
f 8/16/145 36/19/146 9/2/147
f 36/19/148 8/16/149 35/18/150
usemtl FY_Acc_Tabouret_C_1SG
f 33/22/151 36/23/152 31/24/153
f 35/13/154 31/24/155 36/23/156
f 31/24/157 34/25/158 30/26/159
f 34/25/160 31/24/161 35/13/162
f 34/14/163 7/7/164 1/3/165
f 1/3/166 30/12/167 34/14/168
f 32/75/169 1/54/170 13/60/171
f 32/75/172 14/61/173 2/58/174
f 37/77/175 17/63/176 14/61/177
f 14/61/178 32/75/179 37/77/180
f 13/60/181 37/77/182 32/75/183
f 37/77/184 13/60/185 16/64/186
f 18/68/187 21/66/188 17/63/189
f 17/63/190 37/77/191 18/68/192
f 16/64/193 18/68/194 37/77/195
f 18/68/196 16/64/197 20/67/198
f 33/29/199 2/31/200 9/34/201
f 33/29/202 9/34/203 36/35/204
f 2/31/205 6/36/206 12/37/207
f 2/31/208 12/37/209 9/34/210
