# This file uses meters as units for non-parametric coordinates.

mtllib fy_acc_tabouret_a.max.fobj.mtl
g default
v -18.475679 40.526271 -0.473440
v 18.214336 42.772087 -0.473440
v 0.373829 35.166296 -11.005173
v -18.475679 44.187784 -22.243568
v 0.145555 40.919822 -22.243562
v 17.483662 44.375399 -22.550747
v -17.310654 44.793165 -0.473440
v 0.002991 45.400152 -0.473439
v 16.541469 46.581268 -0.473440
v -16.870341 47.924307 -21.653026
v -0.037134 46.956977 -23.340637
v 15.216608 48.713613 -23.187050
v -4.639022 36.207423 -0.473440
v 6.770241 36.207423 -0.473440
v 0.621166 25.891975 -6.050603
v -2.054916 26.233637 -0.473440
v 4.035855 26.233637 -0.473440
v 0.581335 10.471410 7.381208
v 0.635830 10.495108 -8.040831
v -3.074229 10.835677 -0.473440
v 5.121811 10.835677 -0.473440
v 15.390383 6.009209 17.585358
v -14.330117 5.514880 -17.546938
v -13.851191 5.611904 17.348300
v 14.945506 5.933919 -17.914127
v 16.643475 0.068330 18.849377
v -15.454666 -0.335532 -19.093506
v -14.937425 -0.090691 18.593353
v 16.163008 -0.154370 -19.490068
v -18.475677 44.187781 21.296692
v 0.145555 40.919822 21.296683
v 0.373829 35.166296 10.058294
v 17.483662 44.375399 21.603867
v -16.870341 47.924307 20.706148
v -0.037134 46.956977 22.393758
v 15.216608 48.713610 22.240171
v 0.621166 25.891978 5.103722
vt 0.504359 0.023270
vt 0.006147 0.019120
vt 0.002164 0.454716
vt 0.259307 0.462198
vt 0.905882 0.235294
vt 0.905882 0.901961
vt 0.913725 0.678431
vt 0.061753 0.829928
vt 0.939053 0.848475
vt 0.939948 0.109673
vt 0.077590 0.090389
vt 0.501399 0.346943
vt 0.998588 0.463015
vt 1.002571 0.027420
vt 0.741347 0.466213
vt 0.905882 0.243137
vt 0.905882 0.462745
vt 0.992157 0.462745
vt 0.905882 0.462745
vt 0.992157 0.235294
vt 0.992157 0.243137
vt 0.905882 0.011765
vt 0.905882 0.003922
vt 0.992157 0.003922
vt 0.992157 0.011765
vt 0.992157 0.866667
vt 0.992157 0.662745
vt 0.921569 0.662745
vt 0.992157 0.462745
vt 0.905882 0.462745
vt 0.002164 0.454716
vt 0.259307 0.462198
vt 0.496695 0.861439
vt 0.001585 0.864020
vt 0.498959 0.613833
vt 0.998588 0.463015
vt 0.741347 0.466213
vt 0.999128 0.862322
vt 0.992157 0.462745
vt 0.909804 0.866667
vt 0.905882 0.462745
vt 0.497372 0.000000
vt 0.500949 0.507299
vt 0.951273 0.006337
vt 0.501314 0.219456
vt 0.036900 0.007690
vt 0.000000 0.205383
vt 0.000000 0.480474
vt 1.000000 0.483965
vt 1.000000 0.188907
vt 0.607843 0.509804
vt 0.607843 0.509804
vt 0.607843 0.992157
vt 0.607843 0.019608
vt 0.725490 0.509804
vt 0.725490 0.509804
vt 0.725490 0.992157
vt 0.725490 0.019608
vt 0.607843 0.992157
vt 0.725490 0.509804
vt 0.607843 0.509804
vt 0.725490 0.992157
vt 0.939948 0.109673
vt 0.603922 0.019608
vt 0.603922 0.509804
vt 0.725490 0.019608
vt 0.725490 0.509804
vt 0.504359 0.023270
vt 0.992157 0.678431
vt 0.504359 0.023270
vt 0.504359 0.023270
vt 0.504359 0.023270
vt 0.504359 0.023270
vt 0.992157 0.901961
vt 0.992157 0.462745
vt 0.651902 0.410133
vt 0.507976 0.137832
vt 0.507976 0.353704
vt 0.779761 0.250593
vt 0.507976 0.306288
vt 0.507976 0.443633
vt 0.703262 0.680841
vt 0.507976 0.608613
vt 0.507976 0.729627
vt 0.305276 0.682063
vt 0.041945 0.541926
vt 0.958055 0.549820
vt 0.048063 0.980665
vt 0.948580 0.989443
vt 0.364050 0.410133
vt 0.236190 0.250594
vn -0.850810 -0.525473 -0.000000
vn -0.718022 -0.296439 -0.629737
vn 0.004897 -0.689572 -0.724201
vn 0.004897 -0.689572 -0.724201
vn 0.036463 -0.857255 -0.513600
vn -0.850810 -0.525473 -0.000000
vn 0.400366 -0.916355 0.000000
vn 0.004897 -0.689572 -0.724201
vn 0.141859 -0.767354 -0.625335
vn 0.004897 -0.689572 -0.724201
vn 0.400366 -0.916355 0.000000
vn 0.036463 -0.857255 -0.513600
vn -0.435301 0.746477 -0.503274
vn -0.040296 0.999188 0.000000
vn -0.054784 0.626335 -0.777627
vn -0.040296 0.999188 0.000000
vn -0.435301 0.746477 -0.503274
vn -0.653683 0.756769 0.000000
vn -0.040296 0.999188 0.000000
vn -0.071235 0.997460 0.000000
vn -0.058849 0.596428 -0.800506
vn -0.058849 0.596428 -0.800506
vn -0.054784 0.626335 -0.777627
vn -0.040296 0.999188 0.000000
vn 0.141859 -0.767354 -0.625335
vn 0.004897 -0.689572 -0.724201
vn -0.058849 0.596428 -0.800506
vn -0.054784 0.626335 -0.777627
vn -0.058849 0.596428 -0.800506
vn 0.004897 -0.689572 -0.724201
vn 0.004897 -0.689572 -0.724201
vn -0.718022 -0.296439 -0.629737
vn -0.435301 0.746477 -0.503274
vn -0.435301 0.746477 -0.503274
vn -0.054784 0.626335 -0.777627
vn 0.004897 -0.689572 -0.724201
vn -0.435301 0.746477 -0.503274
vn -0.850810 -0.525473 -0.000000
vn -0.653683 0.756769 0.000000
vn -0.850810 -0.525473 -0.000000
vn -0.435301 0.746477 -0.503274
vn -0.718022 -0.296439 -0.629737
vn 0.611547 -0.460450 -0.643425
vn 0.626933 -0.464383 0.625543
vn -0.616326 -0.473534 0.629212
vn -0.621918 -0.465522 -0.629688
vn 0.611547 -0.460450 -0.643425
vn -0.616326 -0.473534 0.629212
vn 0.036463 -0.857255 -0.513600
vn -0.629022 -0.777388 0.000000
vn -0.850810 -0.525473 -0.000000
vn 0.036463 -0.857255 -0.513600
vn 0.400366 -0.916355 0.000000
vn 0.717624 -0.696431 0.000000
vn -0.052651 -0.199084 -0.978567
vn 0.717624 -0.696431 0.000000
vn 0.994390 -0.105776 -0.000892
vn 0.717624 -0.696431 0.000000
vn -0.052651 -0.199084 -0.978567
vn 0.036463 -0.857255 -0.513600
vn -0.629022 -0.777388 0.000000
vn 0.036463 -0.857255 -0.513600
vn -0.052651 -0.199084 -0.978567
vn -0.052651 -0.199084 -0.978567
vn -0.994648 -0.103314 -0.001509
vn -0.629022 -0.777388 0.000000
vn -0.023930 0.882186 -0.470293
vn 0.994390 -0.105776 -0.000892
vn 0.702670 0.711485 -0.006642
vn 0.994390 -0.105776 -0.000892
vn -0.023930 0.882186 -0.470293
vn -0.052651 -0.199084 -0.978567
vn -0.994648 -0.103314 -0.001509
vn -0.052651 -0.199084 -0.978567
vn -0.023930 0.882186 -0.470293
vn -0.023930 0.882186 -0.470293
vn -0.728891 0.684603 -0.006084
vn -0.994648 -0.103314 -0.001509
vn 0.702670 0.711485 -0.006642
vn -0.028229 0.892410 0.450342
vn 0.558801 0.612809 0.558754
vn 0.558801 0.612809 0.558754
vn 0.555397 0.618676 -0.555675
vn 0.702670 0.711485 -0.006642
vn -0.028229 0.892410 0.450342
vn -0.728891 0.684603 -0.006084
vn -0.569414 0.603307 0.558381
vn -0.569414 0.603307 0.558381
vn 0.558801 0.612809 0.558754
vn -0.028229 0.892410 0.450342
vn -0.023930 0.882186 -0.470293
vn 0.702670 0.711485 -0.006642
vn 0.555397 0.618676 -0.555675
vn 0.555397 0.618676 -0.555675
vn -0.581836 0.611667 -0.536032
vn -0.023930 0.882186 -0.470293
vn -0.728891 0.684603 -0.006084
vn -0.023930 0.882186 -0.470293
vn -0.581836 0.611667 -0.536032
vn -0.581836 0.611667 -0.536032
vn -0.569414 0.603307 0.558381
vn -0.728891 0.684603 -0.006084
vn 0.555397 0.618676 -0.555675
vn 0.558801 0.612809 0.558754
vn 0.626933 -0.464383 0.625543
vn 0.626933 -0.464383 0.625543
vn 0.611547 -0.460450 -0.643425
vn 0.555397 0.618676 -0.555675
vn 0.558801 0.612809 0.558754
vn -0.569414 0.603307 0.558381
vn -0.616326 -0.473534 0.629212
vn -0.616326 -0.473534 0.629212
vn 0.626933 -0.464383 0.625543
vn 0.558801 0.612809 0.558754
vn -0.581836 0.611667 -0.536032
vn 0.555397 0.618676 -0.555675
vn 0.611547 -0.460450 -0.643425
vn 0.611547 -0.460450 -0.643425
vn -0.621918 -0.465522 -0.629688
vn -0.581836 0.611667 -0.536032
vn -0.569414 0.603307 0.558381
vn -0.581836 0.611667 -0.536032
vn -0.621918 -0.465522 -0.629688
vn -0.621918 -0.465522 -0.629688
vn -0.616326 -0.473534 0.629212
vn -0.569414 0.603307 0.558381
vn -0.850810 -0.525473 -0.000000
vn 0.004897 -0.689572 0.724201
vn -0.718022 -0.296440 0.629737
vn 0.004897 -0.689572 0.724201
vn -0.850810 -0.525473 -0.000000
vn 0.036463 -0.857255 0.513600
vn 0.400366 -0.916355 0.000000
vn 0.141859 -0.767355 0.625334
vn 0.004897 -0.689572 0.724201
vn 0.004897 -0.689572 0.724201
vn 0.036463 -0.857255 0.513600
vn 0.400366 -0.916355 0.000000
vn -0.435301 0.746477 0.503274
vn -0.054784 0.626335 0.777627
vn -0.040296 0.999188 0.000000
vn -0.040296 0.999188 0.000000
vn -0.653683 0.756769 0.000000
vn -0.435301 0.746477 0.503274
vn -0.040296 0.999188 0.000000
vn -0.058849 0.596428 0.800506
vn -0.071235 0.997460 0.000000
vn -0.058849 0.596428 0.800506
vn -0.040296 0.999188 0.000000
vn -0.054784 0.626335 0.777627
vn 0.141859 -0.767355 0.625334
vn -0.058849 0.596428 0.800506
vn 0.004897 -0.689572 0.724201
vn -0.054784 0.626335 0.777627
vn 0.004897 -0.689572 0.724201
vn -0.058849 0.596428 0.800506
vn 0.004897 -0.689572 0.724201
vn -0.435301 0.746477 0.503274
vn -0.718022 -0.296440 0.629737
vn -0.435301 0.746477 0.503274
vn 0.004897 -0.689572 0.724201
vn -0.054784 0.626335 0.777627
vn -0.435301 0.746477 0.503274
vn -0.653683 0.756769 0.000000
vn -0.850810 -0.525473 -0.000000
vn -0.850810 -0.525473 -0.000000
vn -0.718022 -0.296440 0.629737
vn -0.435301 0.746477 0.503274
vn 0.036463 -0.857255 0.513600
vn -0.850810 -0.525473 -0.000000
vn -0.629022 -0.777388 0.000000
vn 0.036463 -0.857255 0.513600
vn 0.717624 -0.696431 0.000000
vn 0.400366 -0.916355 0.000000
vn -0.051970 -0.189011 0.980599
vn 0.994390 -0.105776 -0.000892
vn 0.717624 -0.696431 0.000000
vn 0.717624 -0.696431 0.000000
vn 0.036463 -0.857255 0.513600
vn -0.051970 -0.189011 0.980599
vn -0.629022 -0.777388 0.000000
vn -0.051970 -0.189011 0.980599
vn 0.036463 -0.857255 0.513600
vn -0.051970 -0.189011 0.980599
vn -0.629022 -0.777388 0.000000
vn -0.994648 -0.103314 -0.001509
vn -0.028229 0.892410 0.450342
vn 0.702670 0.711485 -0.006642
vn 0.994390 -0.105776 -0.000892
vn 0.994390 -0.105776 -0.000892
vn -0.051970 -0.189011 0.980599
vn -0.028229 0.892410 0.450342
vn -0.994648 -0.103314 -0.001509
vn -0.028229 0.892410 0.450342
vn -0.051970 -0.189011 0.980599
vn -0.028229 0.892410 0.450342
vn -0.994648 -0.103314 -0.001509
vn -0.728891 0.684603 -0.006084
vn 0.915595 0.402099 0.001101
vn 0.915595 0.402099 0.001101
vn 0.915595 0.402099 0.001101
vn 0.886750 0.462174 0.008335
vn 0.886750 0.462174 0.008335
vn 0.886750 0.462174 0.008335
vn 0.886010 0.463647 0.004348
vn 0.886010 0.463647 0.004348
vn 0.886010 0.463647 0.004348
vn 0.915484 0.402050 -0.015655
vn 0.915484 0.402050 -0.015655
vn 0.915484 0.402050 -0.015655
s off
g FY_Acc_Tabouret_A_1
usemtl FY_Acc_Tabouret_A_1SG
f 1/1/1 4/2/2 5/3/3
f 5/3/4 3/4/5 1/68/6
f 2/33/7 5/31/8 6/34/9
f 5/31/10 2/33/11 3/32/12
usemtl FY_Acc_Tabouret_A_1SG1
f 10/44/13 8/45/14 11/50/15
f 8/45/16 10/44/17 7/42/18
f 8/45/19 9/43/20 12/49/21
f 12/49/22 11/50/23 8/45/24
usemtl FY_Acc_Tabouret_A_1SG
f 6/25/25 5/20/26 12/22/27
f 11/5/28 12/22/29 5/20/30
f 5/20/31 4/29/32 10/30/33
f 10/30/34 11/5/35 5/20/36
f 10/6/37 1/69/38 7/7/39
f 1/69/40 10/6/41 4/74/42
f 29/8/43 26/9/44 28/10/45
f 27/11/46 29/8/47 28/63/48
f 3/4/49 13/12/50 1/70/51
f 3/32/52 2/33/53 14/35/54
f 15/76/55 14/77/56 17/78/57
f 14/77/58 15/76/59 3/79/60
f 13/80/61 3/79/62 15/76/63
f 15/76/64 16/81/65 13/80/66
f 19/82/67 17/78/68 21/83/69
f 17/78/70 19/82/71 15/76/72
f 16/81/73 15/76/74 19/82/75
f 19/82/76 20/84/77 16/81/78
f 21/83/79 18/85/80 22/86/81
f 22/86/82 25/87/83 21/83/84
f 18/85/85 20/84/86 24/88/87
f 24/88/88 22/86/89 18/85/90
f 19/82/91 21/83/92 25/87/93
f 25/87/94 23/89/95 19/82/96
f 20/84/97 19/82/98 23/89/99
f 23/89/100 24/88/101 20/84/102
f 25/60/103 22/62/104 26/59/105
f 26/59/106 29/61/107 25/60/108
f 22/55/109 24/57/110 28/53/111
f 28/53/112 26/52/113 22/55/114
f 23/58/115 25/56/116 29/51/117
f 29/51/118 27/54/119 23/58/120
f 24/66/121 23/67/122 27/65/123
f 27/65/124 28/64/125 24/66/126
f 1/71/127 31/13/128 30/14/129
f 31/13/130 1/72/131 32/15/132
f 2/33/133 33/38/134 31/36/135
f 31/36/136 32/37/137 2/33/138
usemtl FY_Acc_Tabouret_A_1SG1
f 34/46/139 35/47/140 8/45/141
f 8/45/142 7/42/143 34/46/144
f 8/45/145 36/48/146 9/43/147
f 36/48/148 8/45/149 35/47/150
usemtl FY_Acc_Tabouret_A_1SG
f 33/18/151 36/19/152 31/21/153
f 35/16/154 31/21/155 36/19/156
f 31/21/157 34/23/158 30/24/159
f 34/23/160 31/21/161 35/16/162
f 34/17/163 7/7/164 1/69/165
f 1/69/166 30/75/167 34/17/168
f 32/15/169 1/73/170 13/12/171
f 32/37/172 14/35/173 2/33/174
f 37/90/175 17/78/176 14/77/177
f 14/77/178 32/91/179 37/90/180
f 13/80/181 37/90/182 32/91/183
f 37/90/184 13/80/185 16/81/186
f 18/85/187 21/83/188 17/78/189
f 17/78/190 37/90/191 18/85/192
f 16/81/193 18/85/194 37/90/195
f 18/85/196 16/81/197 20/84/198
f 33/26/199 2/27/200 9/28/201
f 33/26/202 9/28/203 36/40/204
f 2/27/205 6/39/206 12/41/207
f 2/27/208 12/41/209 9/28/210
