# This file uses meters as units for non-parametric coordinates.

mtllib fy_acc_fireworks_b.max.fobj.mtl
g default
v 0.028228 -5.639715 6.180965
v 6.255650 -5.639715 -0.009161
v 0.028227 -5.639715 -6.199287
v -6.199196 -5.639715 -0.009160
v 4.474137 -1.757433 -0.009161
v 0.028227 -1.757433 -4.804934
v -4.417683 -1.757433 -0.009160
v 0.028228 -1.757433 4.786613
v 4.638326 26.082443 -0.009161
v 0.028227 26.082443 -4.853599
v -4.581873 26.082443 -0.009160
v 0.028228 26.082443 4.835278
v 8.273347 39.895852 0.182235
v 3.740853 39.895858 -7.374185
v -3.705665 39.895858 -7.374185
v -8.467469 39.895858 0.025416
v -3.705664 39.895858 7.580837
v 3.740854 39.895858 7.580836
v 6.262779 54.550608 -0.014290
v 0.166701 54.543705 -6.811579
v -5.934943 54.450007 0.024594
v 0.166702 54.543705 6.782997
v 0.027274 57.642616 -0.011630
vt 0.752119 0.000500
vt 0.995793 0.000500
vt 0.752944 0.061787
vt 0.994599 0.061787
vt 0.246885 0.061787
vt 0.247794 0.000500
vt 0.504362 0.000500
vt 0.505660 0.061787
vt 0.752842 0.501279
vt 0.994652 0.501279
vt 0.246999 0.501279
vt 0.505602 0.501279
vt 0.904671 0.719343
vt 0.748872 0.719343
vt 0.090816 0.719343
vt 0.409184 0.719343
vt 0.248886 0.719343
vt 0.595329 0.719343
vt 0.752213 0.950689
vt 0.991933 0.950580
vt 0.248386 0.949101
vt 0.508351 0.950580
vt 0.635004 1.000000
vt 0.246885 0.061787
vt -0.005401 0.061787
vt 0.505660 0.061787
vt 0.994599 0.061787
vt 0.752944 0.061787
vt 0.505660 0.061787
vt -0.004207 0.000500
vt -0.005401 0.061787
vt -0.004207 0.000500
vt -0.005401 0.061787
vt -0.005348 0.501279
vt -0.005401 0.061787
vt -0.005348 0.501279
vt -0.095329 0.719343
vt -0.005348 0.501279
vt -0.008067 0.950580
vt -0.008067 0.950580
vt 0.138686 1.000000
vt 0.372263 1.000000
vt -0.008067 0.950580
vt -0.095329 0.719343
vt 0.301961 0.185910
vt 0.450980 0.185910
vt 0.301961 0.365949
vt 0.450980 0.365949
vn 0.908876 0.417067 0.000000
vn -0.000000 0.368077 -0.929795
vn 0.976783 0.214232 0.000000
vn 0.976783 0.214232 0.000000
vn -0.000000 0.368077 -0.929795
vn 0.000000 0.184122 -0.982903
vn -0.000000 0.368077 -0.929795
vn -0.976783 0.214232 0.000000
vn 0.000000 0.184122 -0.982903
vn -0.000000 0.368077 -0.929795
vn -0.908875 0.417068 0.000000
vn -0.976783 0.214232 0.000000
vn -0.908875 0.417068 0.000000
vn 0.000000 0.368077 0.929795
vn -0.976783 0.214232 0.000000
vn -0.976783 0.214232 0.000000
vn 0.000000 0.368077 0.929795
vn 0.000000 0.184122 0.982903
vn 0.000000 0.368077 0.929795
vn 0.976783 0.214232 0.000000
vn 0.000000 0.184122 0.982903
vn 0.000000 0.368077 0.929795
vn 0.908876 0.417067 0.000000
vn 0.976783 0.214232 0.000000
vn 0.976783 0.214232 0.000000
vn 0.000000 0.184122 -0.982903
vn 0.979900 -0.199480 -0.002176
vn 0.979900 -0.199480 -0.002176
vn 0.000000 0.184122 -0.982903
vn 0.000214 -0.214621 -0.976698
vn 0.000000 0.184122 -0.982903
vn -0.979099 -0.203374 -0.001969
vn 0.000214 -0.214621 -0.976698
vn 0.000000 0.184122 -0.982903
vn -0.976783 0.214232 0.000000
vn -0.979099 -0.203374 -0.001969
vn -0.976783 0.214232 0.000000
vn 0.000000 0.184122 0.982903
vn -0.979099 -0.203374 -0.001969
vn -0.979099 -0.203374 -0.001969
vn 0.000000 0.184122 0.982903
vn 0.000216 -0.223171 0.974779
vn 0.000000 0.184122 0.982903
vn 0.979900 -0.199480 -0.002176
vn 0.000216 -0.223171 0.974779
vn 0.000000 0.184122 0.982903
vn 0.976783 0.214232 0.000000
vn 0.979900 -0.199480 -0.002176
vn 0.979900 -0.199480 -0.002176
vn 0.000214 -0.214621 -0.976698
vn 0.506483 -0.062581 -0.859976
vn 0.998345 -0.056884 0.008422
vn 0.979900 -0.199480 -0.002176
vn 0.506483 -0.062581 -0.859976
vn 0.000214 -0.214621 -0.976698
vn -0.499300 -0.056741 -0.864569
vn 0.506483 -0.062581 -0.859976
vn 0.000214 -0.214621 -0.976698
vn -0.979099 -0.203374 -0.001969
vn -0.499300 -0.056741 -0.864569
vn -0.979099 -0.203374 -0.001969
vn 0.000216 -0.223171 0.974779
vn -0.499975 -0.057257 0.864145
vn -0.998865 -0.047467 -0.004036
vn -0.979099 -0.203374 -0.001969
vn -0.499975 -0.057257 0.864145
vn 0.000216 -0.223171 0.974779
vn 0.501641 -0.062063 0.862847
vn -0.499975 -0.057257 0.864145
vn 0.000216 -0.223171 0.974779
vn 0.979900 -0.199480 -0.002176
vn 0.501641 -0.062063 0.862847
vn 0.998345 -0.056884 0.008422
vn 0.506483 -0.062581 -0.859976
vn 0.841384 0.540432 -0.002463
vn 0.841384 0.540432 -0.002463
vn 0.506483 -0.062581 -0.859976
vn 0.001847 0.554247 -0.832350
vn -0.499300 -0.056741 -0.864569
vn -0.998865 -0.047467 -0.004036
vn -0.841163 0.540782 0.000510
vn 0.001847 0.554247 -0.832350
vn -0.499300 -0.056741 -0.864569
vn -0.841163 0.540782 0.000510
vn -0.998865 -0.047467 -0.004036
vn -0.499975 -0.057257 0.864145
vn -0.841163 0.540782 0.000510
vn -0.841163 0.540782 0.000510
vn -0.499975 -0.057257 0.864145
vn 0.003838 0.560593 0.828082
vn 0.003838 0.560593 0.828082
vn 0.501641 -0.062063 0.862847
vn 0.841384 0.540432 -0.002463
vn 0.001847 0.554247 -0.832350
vn -0.841163 0.540782 0.000510
vn -0.018660 0.999826 -0.000445
vn -0.841163 0.540782 0.000510
vn 0.003838 0.560593 0.828082
vn -0.018660 0.999826 -0.000445
vn 0.003838 0.560593 0.828082
vn 0.841384 0.540432 -0.002463
vn -0.018660 0.999826 -0.000445
vn 0.841384 0.540432 -0.002463
vn 0.001847 0.554247 -0.832350
vn -0.018660 0.999826 -0.000445
vn 0.501641 -0.062063 0.862847
vn 0.998345 -0.056884 0.008422
vn 0.841384 0.540432 -0.002463
vn 0.501641 -0.062063 0.862847
vn 0.979900 -0.199480 -0.002176
vn 0.998345 -0.056884 0.008422
vn -0.499300 -0.056741 -0.864569
vn -0.979099 -0.203374 -0.001969
vn -0.998865 -0.047467 -0.004036
vn -0.976783 0.214232 0.000000
vn 0.000000 0.184122 -0.982903
vn 0.000000 0.184122 0.982903
vn 0.000000 0.184122 -0.982903
vn 0.976783 0.214232 0.000000
vn 0.000000 0.184122 0.982903
vn -0.499300 -0.056741 -0.864569
vn 0.001847 0.554247 -0.832350
vn 0.506483 -0.062581 -0.859976
vn 0.501641 -0.062063 0.862847
vn 0.003838 0.560593 0.828082
vn -0.499975 -0.057257 0.864145
vn -0.976783 0.214232 0.000000
vn 0.000000 0.184122 0.982903
vn 0.000000 0.184122 -0.982903
vn 0.000000 0.184122 -0.982903
vn 0.000000 0.184122 0.982903
vn 0.976783 0.214232 0.000000
s off
g FY_Acc_Fireworks_B_1
usemtl FY_Acc_Fireworks_B_1SG1
f 2/1/1 3/2/2 5/3/3
f 5/3/4 3/2/5 6/4/6
f 3/30/7 7/5/8 6/31/9
f 3/32/10 4/6/11 7/5/12
f 4/6/13 1/7/14 7/5/15
f 7/5/16 1/7/17 8/8/18
f 1/7/19 5/3/20 8/8/21
f 1/7/22 2/1/23 5/3/24
usemtl FY_Acc_Fireworks_B_1SG
f 5/3/25 6/4/26 9/9/27
f 9/9/28 6/4/29 10/10/30
f 6/33/31 11/11/32 10/34/33
f 6/35/34 7/5/35 11/11/36
f 7/5/37 8/8/38 11/11/39
f 11/11/40 8/8/41 12/12/42
f 8/8/43 9/9/44 12/12/45
f 8/8/46 5/3/47 9/9/48
f 9/9/49 10/10/50 14/13/51
f 13/14/52 9/9/53 14/13/54
f 10/36/55 15/15/56 14/37/57
f 10/38/58 11/11/59 15/15/60
f 11/11/61 12/12/62 17/16/63
f 16/17/64 11/11/65 17/16/66
f 12/12/67 18/18/68 17/16/69
f 12/12/70 9/9/71 18/18/72
f 13/14/73 14/13/74 19/19/75
f 19/19/76 14/13/77 20/20/78
f 15/15/79 16/17/80 21/21/81
f 20/39/82 15/15/83 21/21/84
f 16/17/85 17/16/86 21/21/87
f 21/21/88 17/16/89 22/22/90
f 22/22/91 18/18/92 19/19/93
f 20/40/94 21/21/95 23/41/96
f 21/21/97 22/22/98 23/42/99
f 22/22/100 19/19/101 23/23/102
f 19/19/103 20/20/104 23/23/105
f 18/18/106 13/14/107 19/19/108
f 18/18/109 9/9/110 13/14/111
f 15/15/112 11/11/113 16/17/114
f 7/45/115 6/46/116 8/47/117
f 6/46/118 5/48/119 8/47/120
f 15/15/121 20/43/122 14/44/123
f 18/18/124 22/22/125 17/16/126
f 7/24/127 8/26/128 6/25/129
f 6/27/130 8/29/131 5/28/132
