# This file uses meters as units for non-parametric coordinates.

mtllib fy_acc_tabouret_b.max.fobj.mtl
g default
v -18.475679 40.526271 -0.473440
v 18.214336 42.772087 -0.473440
v -2.869422 35.166296 -11.005173
v -18.475679 44.187784 -22.243568
v 0.145555 40.919822 -22.243562
v 17.483662 44.375399 -22.550747
v -17.310654 44.793165 -0.473440
v 0.002991 45.400152 -0.473439
v 16.541469 46.581268 -0.473440
v -16.870341 47.924307 -21.653026
v -0.037134 46.956977 -23.340637
v 15.216608 48.713613 -23.187050
v -7.882274 36.207423 -0.473440
v 3.526990 36.207423 -0.473440
v 6.880233 25.891975 -6.050603
v 4.204151 26.233637 -0.473440
v 10.294922 26.233637 -0.473440
v -2.553766 10.471410 7.381208
v -2.499271 10.495108 -8.040831
v -6.209330 10.835677 -0.473440
v 1.986710 10.835677 -0.473440
v 15.390383 6.009209 17.585358
v -14.330117 5.514880 -17.546938
v -13.851191 5.611904 17.348300
v 14.945506 5.933919 -17.914127
v 16.643475 0.068330 18.849377
v -15.454666 -0.335532 -19.093506
v -14.937425 -0.090691 18.593353
v 16.163008 -0.154370 -19.490068
v -18.475677 44.187781 21.296692
v 0.145555 40.919822 21.296683
v -2.869422 35.166296 10.058294
v 17.483662 44.375399 21.603867
v -16.870341 47.924307 20.706148
v -0.037134 46.956977 22.393758
v 15.216608 48.713610 22.240171
v 6.880233 25.891978 5.103722
vt 0.537255 0.737255
vt 0.537255 0.984314
vt 0.470588 0.250980
vt 0.470588 0.984314
vt 0.482353 0.737255
vt 0.061753 0.829928
vt 0.939053 0.848475
vt 0.939948 0.109673
vt 0.077590 0.090389
vt 0.109804 0.505882
vt 0.109804 0.007843
vt 0.109804 0.964706
vt 0.109804 0.505882
vt 0.537255 0.509804
vt 0.466667 0.270588
vt 0.466667 0.509804
vt 0.537255 0.509804
vt 0.466667 0.509804
vt 0.537255 0.250980
vt 0.537255 0.270588
vt 0.470588 0.011765
vt 0.466667 0.015686
vt 0.537255 0.015686
vt 0.537255 0.011765
vt 0.537255 0.941176
vt 0.537255 0.729412
vt 0.482353 0.729412
vt 0.537255 0.509804
vt 0.470588 0.509804
vt 0.537255 0.509804
vt 0.470588 0.941176
vt 0.470588 0.509804
vt 0.497372 0.000000
vt 0.500949 0.507299
vt 0.951273 0.006337
vt 0.501314 0.219456
vt 0.036900 0.007690
vt 0.000000 0.205383
vt 0.000000 0.480474
vt 1.000000 0.483965
vt 1.000000 0.188907
vt 0.007843 0.011765
vt 0.007843 0.505882
vt 0.007843 0.917647
vt 0.007843 0.505882
vt 0.109804 0.505882
vt 0.109804 0.011765
vt 0.109804 0.917647
vt 0.109804 0.505882
vt 0.282353 0.254902
vt 0.494118 0.329412
vt 0.498039 0.188235
vt 0.713726 0.247059
vt 0.996078 0.474510
vt 0.003922 0.474510
vt 0.976471 0.003922
vt 0.035294 0.003922
vt 1.100053 0.691492
vt 0.789634 0.660073
vt 0.516785 0.405266
vt 1.118244 0.441246
vt 0.506472 0.564353
vt 0.654180 0.356217
vt 0.504127 0.302003
vt 0.695647 0.294862
vt 0.491913 0.222065
vt -0.085061 0.691492
vt 0.216312 0.660073
vt -0.083592 0.441247
vt 0.350572 0.356217
vt 0.275840 0.295462
vt 0.939948 0.109673
vt 0.007843 0.964706
vt 0.007843 0.505882
vt 0.061753 0.829928
vt 0.007843 0.007843
vt 0.007843 0.505882
vt 0.500000 0.471796
vt 1.357724 0.525797
vt 1.357724 0.804894
vt 0.914941 0.667047
vt 0.500000 0.594294
vt 0.719735 0.701630
vt 0.500000 0.659633
vt 0.798149 0.309694
vt 0.500000 0.249508
vt -0.357724 0.804894
vt -0.357724 0.525798
vt 0.085059 0.667047
vt 0.280265 0.701630
vt 0.190534 0.308387
vn -0.867801 -0.496912 -0.000000
vn -0.718022 -0.296439 -0.629737
vn 0.015284 -0.693738 -0.720065
vn 0.015284 -0.693738 -0.720065
vn -0.141740 -0.869635 -0.472911
vn -0.867801 -0.496912 -0.000000
vn 0.339367 -0.940654 0.000000
vn 0.015284 -0.693738 -0.720065
vn 0.141859 -0.767354 -0.625335
vn 0.015284 -0.693738 -0.720065
vn 0.339367 -0.940654 0.000000
vn -0.141740 -0.869635 -0.472911
vn -0.435301 0.746477 -0.503274
vn -0.040296 0.999188 0.000000
vn -0.054784 0.626335 -0.777627
vn -0.040296 0.999188 0.000000
vn -0.435301 0.746477 -0.503274
vn -0.653683 0.756769 0.000000
vn -0.040296 0.999188 0.000000
vn -0.071235 0.997460 0.000000
vn -0.058849 0.596428 -0.800506
vn -0.058849 0.596428 -0.800506
vn -0.054784 0.626335 -0.777627
vn -0.040296 0.999188 0.000000
vn 0.141859 -0.767354 -0.625335
vn 0.015284 -0.693738 -0.720065
vn -0.058849 0.596428 -0.800506
vn -0.054784 0.626335 -0.777627
vn -0.058849 0.596428 -0.800506
vn 0.015284 -0.693738 -0.720065
vn 0.015284 -0.693738 -0.720065
vn -0.718022 -0.296439 -0.629737
vn -0.435301 0.746477 -0.503274
vn -0.435301 0.746477 -0.503274
vn -0.054784 0.626335 -0.777627
vn 0.015284 -0.693738 -0.720065
vn -0.435301 0.746477 -0.503274
vn -0.867801 -0.496912 -0.000000
vn -0.653683 0.756769 0.000000
vn -0.867801 -0.496912 -0.000000
vn -0.435301 0.746477 -0.503274
vn -0.718022 -0.296439 -0.629737
vn 0.611547 -0.460450 -0.643425
vn 0.626933 -0.464383 0.625543
vn -0.616326 -0.473534 0.629212
vn -0.621918 -0.465522 -0.629688
vn 0.611547 -0.460450 -0.643425
vn -0.616326 -0.473534 0.629212
vn -0.141740 -0.869635 -0.472911
vn -0.473904 -0.880576 0.000000
vn -0.867801 -0.496912 -0.000000
vn -0.141740 -0.869635 -0.472911
vn 0.339367 -0.940654 0.000000
vn 0.905035 -0.425337 -0.000000
vn 0.347911 -0.041477 -0.936610
vn 0.905035 -0.425337 -0.000000
vn 0.998232 0.059441 -0.000708
vn 0.905035 -0.425337 -0.000000
vn 0.347911 -0.041477 -0.936610
vn -0.141740 -0.869635 -0.472911
vn -0.473904 -0.880576 0.000000
vn -0.141740 -0.869635 -0.472911
vn 0.347911 -0.041477 -0.936610
vn 0.347911 -0.041477 -0.936610
vn -0.978223 -0.207548 -0.001747
vn -0.473904 -0.880576 0.000000
vn -0.099545 0.895053 -0.434707
vn 0.998232 0.059441 -0.000708
vn 0.853900 0.520364 -0.008677
vn 0.998232 0.059441 -0.000708
vn -0.099545 0.895053 -0.434707
vn 0.347911 -0.041477 -0.936610
vn -0.978223 -0.207548 -0.001747
vn 0.347911 -0.041477 -0.936610
vn -0.099545 0.895053 -0.434707
vn -0.099545 0.895053 -0.434707
vn -0.608397 0.793627 -0.003183
vn -0.978223 -0.207548 -0.001747
vn 0.853900 0.520364 -0.008677
vn -0.101754 0.903877 0.415514
vn 0.556686 0.621356 0.551377
vn 0.556686 0.621356 0.551377
vn 0.553123 0.627723 -0.547740
vn 0.853900 0.520364 -0.008677
vn -0.101754 0.903877 0.415514
vn -0.608397 0.793627 -0.003183
vn -0.571737 0.591395 0.568655
vn -0.571737 0.591395 0.568655
vn 0.556686 0.621356 0.551377
vn -0.101754 0.903877 0.415514
vn -0.099545 0.895053 -0.434707
vn 0.853900 0.520364 -0.008677
vn 0.553123 0.627723 -0.547740
vn 0.553123 0.627723 -0.547740
vn -0.584783 0.599421 -0.546556
vn -0.099545 0.895053 -0.434707
vn -0.608397 0.793627 -0.003183
vn -0.099545 0.895053 -0.434707
vn -0.584783 0.599421 -0.546556
vn -0.584783 0.599421 -0.546556
vn -0.571737 0.591395 0.568655
vn -0.608397 0.793627 -0.003183
vn 0.553123 0.627723 -0.547740
vn 0.556686 0.621356 0.551377
vn 0.626933 -0.464383 0.625543
vn 0.626933 -0.464383 0.625543
vn 0.611547 -0.460450 -0.643425
vn 0.553123 0.627723 -0.547740
vn 0.556686 0.621356 0.551377
vn -0.571737 0.591395 0.568655
vn -0.616326 -0.473534 0.629212
vn -0.616326 -0.473534 0.629212
vn 0.626933 -0.464383 0.625543
vn 0.556686 0.621356 0.551377
vn -0.584783 0.599421 -0.546556
vn 0.553123 0.627723 -0.547740
vn 0.611547 -0.460450 -0.643425
vn 0.611547 -0.460450 -0.643425
vn -0.621918 -0.465522 -0.629688
vn -0.584783 0.599421 -0.546556
vn -0.571737 0.591395 0.568655
vn -0.584783 0.599421 -0.546556
vn -0.621918 -0.465522 -0.629688
vn -0.621918 -0.465522 -0.629688
vn -0.616326 -0.473534 0.629212
vn -0.571737 0.591395 0.568655
vn -0.867801 -0.496912 -0.000000
vn 0.015284 -0.693738 0.720065
vn -0.718022 -0.296440 0.629737
vn 0.015284 -0.693738 0.720065
vn -0.867801 -0.496912 -0.000000
vn -0.141740 -0.869635 0.472911
vn 0.339367 -0.940654 0.000000
vn 0.141859 -0.767355 0.625334
vn 0.015284 -0.693738 0.720065
vn 0.015284 -0.693738 0.720065
vn -0.141740 -0.869635 0.472911
vn 0.339367 -0.940654 0.000000
vn -0.435301 0.746477 0.503274
vn -0.054784 0.626335 0.777627
vn -0.040296 0.999188 0.000000
vn -0.040296 0.999188 0.000000
vn -0.653683 0.756769 0.000000
vn -0.435301 0.746477 0.503274
vn -0.040296 0.999188 0.000000
vn -0.058849 0.596428 0.800506
vn -0.071235 0.997460 0.000000
vn -0.058849 0.596428 0.800506
vn -0.040296 0.999188 0.000000
vn -0.054784 0.626335 0.777627
vn 0.141859 -0.767355 0.625334
vn -0.058849 0.596428 0.800506
vn 0.015284 -0.693738 0.720065
vn -0.054784 0.626335 0.777627
vn 0.015284 -0.693738 0.720065
vn -0.058849 0.596428 0.800506
vn 0.015284 -0.693738 0.720065
vn -0.435301 0.746477 0.503274
vn -0.718022 -0.296440 0.629737
vn -0.435301 0.746477 0.503274
vn 0.015284 -0.693738 0.720065
vn -0.054784 0.626335 0.777627
vn -0.435301 0.746477 0.503274
vn -0.653683 0.756769 0.000000
vn -0.867801 -0.496912 -0.000000
vn -0.867801 -0.496912 -0.000000
vn -0.718022 -0.296440 0.629737
vn -0.435301 0.746477 0.503274
vn -0.141740 -0.869635 0.472911
vn -0.867801 -0.496912 -0.000000
vn -0.473904 -0.880576 0.000000
vn -0.141740 -0.869635 0.472911
vn 0.905035 -0.425337 -0.000000
vn 0.339367 -0.940654 0.000000
vn 0.349736 -0.034398 0.936217
vn 0.998232 0.059441 -0.000708
vn 0.905035 -0.425337 -0.000000
vn 0.905035 -0.425337 -0.000000
vn -0.141740 -0.869635 0.472911
vn 0.349736 -0.034398 0.936217
vn -0.473904 -0.880576 0.000000
vn 0.349736 -0.034398 0.936217
vn -0.141740 -0.869635 0.472911
vn 0.349736 -0.034398 0.936217
vn -0.473904 -0.880576 0.000000
vn -0.978223 -0.207548 -0.001747
vn -0.101754 0.903877 0.415514
vn 0.853900 0.520364 -0.008677
vn 0.998232 0.059441 -0.000708
vn 0.998232 0.059441 -0.000708
vn 0.349736 -0.034398 0.936217
vn -0.101754 0.903877 0.415514
vn -0.978223 -0.207548 -0.001747
vn -0.101754 0.903877 0.415514
vn 0.349736 -0.034398 0.936217
vn -0.101754 0.903877 0.415514
vn -0.978223 -0.207548 -0.001747
vn -0.608397 0.793627 -0.003183
vn 0.915595 0.402099 0.001101
vn 0.915595 0.402099 0.001101
vn 0.915595 0.402099 0.001101
vn 0.886750 0.462174 0.008335
vn 0.886750 0.462174 0.008335
vn 0.886750 0.462174 0.008335
vn 0.886010 0.463647 0.004348
vn 0.886010 0.463647 0.004348
vn 0.886010 0.463647 0.004348
vn 0.915484 0.402050 -0.015655
vn 0.915484 0.402050 -0.015655
vn 0.915484 0.402050 -0.015655
s off
g FY_Acc_Tabouret_B_1
usemtl FY_Acc_Tabouret_B_1SG
f 1/78/1 4/79/2 5/80/3
f 5/80/4 3/81/5 1/78/6
f 2/60/7 5/58/8 6/61/9
f 5/58/10 2/60/11 3/59/12
usemtl FY_Acc_Tabouret_B_1SG1
f 10/35/13 8/36/14 11/41/15
f 8/36/16 10/35/17 7/33/18
f 8/36/19 9/34/20 12/40/21
f 12/40/22 11/41/23 8/36/24
usemtl FY_Acc_Tabouret_B_1SG
f 6/24/25 5/19/26 12/21/27
f 11/3/28 12/21/29 5/19/30
f 5/19/31 4/28/32 10/29/33
f 10/29/34 11/3/35 5/19/36
f 10/4/37 1/1/38 7/5/39
f 1/1/40 10/4/41 4/2/42
f 29/6/43 26/7/44 28/8/45
f 27/9/46 29/75/47 28/72/48
f 3/81/49 13/82/50 1/78/51
f 3/59/52 2/60/53 14/62/54
f 15/63/55 14/62/56 17/64/57
f 14/62/58 15/63/59 3/59/60
f 13/82/61 3/81/62 15/83/63
f 15/83/64 16/84/65 13/82/66
f 19/65/67 17/64/68 21/66/69
f 17/64/70 19/65/71 15/63/72
f 16/84/73 15/83/74 19/85/75
f 19/85/76 20/86/77 16/84/78
usemtl FY_Acc_Tabouret_B_1SG1
f 21/51/79 18/53/80 22/54/81
f 22/54/82 25/55/83 21/51/84
f 18/53/85 20/52/86 24/56/87
f 24/56/88 22/54/89 18/53/90
f 19/50/91 21/51/92 25/55/93
f 25/55/94 23/57/95 19/50/96
f 20/52/97 19/50/98 23/57/99
f 23/57/100 24/56/101 20/52/102
usemtl FY_Acc_Tabouret_B_1SG
f 25/11/103 22/10/104 26/77/105
f 26/77/106 29/76/107 25/11/108
f 22/46/109 24/48/110 28/44/111
f 28/44/112 26/43/113 22/46/114
f 23/49/115 25/47/116 29/42/117
f 29/42/118 27/45/119 23/49/120
f 24/12/121 23/13/122 27/74/123
f 27/74/124 28/73/125 24/12/126
f 1/78/127 31/87/128 30/88/129
f 31/87/130 1/78/131 32/89/132
f 2/60/133 33/69/134 31/67/135
f 31/67/136 32/68/137 2/60/138
usemtl FY_Acc_Tabouret_B_1SG1
f 34/37/139 35/38/140 8/36/141
f 8/36/142 7/33/143 34/37/144
f 8/36/145 36/39/146 9/34/147
f 36/39/148 8/36/149 35/38/150
usemtl FY_Acc_Tabouret_B_1SG
f 33/17/151 36/18/152 31/20/153
f 35/15/154 31/20/155 36/18/156
f 31/20/157 34/22/158 30/23/159
f 34/22/160 31/20/161 35/15/162
f 34/16/163 7/5/164 1/1/165
f 1/1/166 30/14/167 34/16/168
f 32/89/169 1/78/170 13/82/171
f 32/68/172 14/62/173 2/60/174
f 37/70/175 17/64/176 14/62/177
f 14/62/178 32/68/179 37/70/180
f 13/82/181 37/90/182 32/89/183
f 37/90/184 13/82/185 16/84/186
f 18/71/187 21/66/188 17/64/189
f 17/64/190 37/70/191 18/71/192
f 16/84/193 18/91/194 37/90/195
f 18/91/196 16/84/197 20/86/198
f 33/25/199 2/26/200 9/27/201
f 33/25/202 9/27/203 36/31/204
f 2/26/205 6/30/206 12/32/207
f 2/26/208 12/32/209 9/27/210
