# This file uses meters as units for non-parametric coordinates.

mtllib fy_acc_applique_a.max.fobj.mtl
g default
v 0.100503 7.674756 -6.597242
v -7.655019 7.674756 -4.077319
v -7.655018 7.674756 4.077321
v 0.100505 7.674756 6.597242
v 0.067695 47.677380 -13.986154
v -16.374013 47.677380 -8.643916
v -16.374011 47.677380 8.643919
v 0.067699 47.677380 13.986153
v 0.098519 47.662592 -9.763919
v -12.782364 47.662589 -6.034433
v -12.782364 47.662589 6.034435
v 0.098520 47.662589 9.763917
v 0.098519 52.674752 -9.763919
v -12.782364 52.674752 -6.034433
v -12.782364 52.674752 6.034435
v 0.098521 52.674752 9.763918
v 0.118592 55.600333 0.000000
v 0.118592 60.806137 4.025958
v 0.118592 60.806137 -3.953121
v 0.118592 53.814942 -3.953121
v 0.118592 53.814942 4.025958
v 0.118592 4.526198 2.642047
v 0.118592 4.526198 -2.642111
v 0.118592 -0.103730 -2.642111
v 0.118592 -0.103730 2.642047
v 0.009521 5.610579 -2.416572
v -3.398978 5.610578 -1.493522
v -3.398978 5.610578 1.493526
v 0.009521 5.610579 2.416574
v 0.118596 3.326839 0.000003
v -4.062731 44.630387 14.496225
v -12.267824 44.630387 11.987675
v -14.101394 37.685323 13.162390
v -3.199523 37.685323 16.495425
v -0.171448 29.405817 21.298349
v -19.297543 29.405817 15.450913
v -5.958019 12.297171 29.964459
v -19.346286 12.297171 25.871253
v -13.082160 15.964052 29.324347
v -11.433274 32.465535 23.931079
v -9.983338 40.734407 19.188555
v -11.698253 32.888153 24.797784
v -7.408176 45.499027 14.130068
v -8.954789 45.010331 15.330748
v -9.565575 45.499024 13.470483
v -8.629765 46.913338 13.766298
v -13.332239 44.630387 -11.484379
v -5.219691 44.630387 -14.277752
v -4.426781 37.685323 -16.305861
v -15.205689 37.685323 -12.594384
v -20.478541 29.405817 -14.700174
v -1.568168 29.405817 -21.211535
v -20.890918 12.297171 -25.112468
v -7.653657 12.297171 -29.670420
v -14.751118 15.964052 -28.782070
v -12.915012 32.465535 -23.449632
v -11.300449 40.734407 -18.760599
v -13.210076 32.888153 -24.306562
v -10.410495 45.499027 -13.154554
v -9.865001 45.010331 -15.035002
v -8.277428 45.499024 -13.889026
v -6.123640 44.998977 -11.558536
v -8.153158 47.677380 -11.315035
v -10.218412 45.119321 -10.285302
v -9.208390 46.913338 -13.578290
v -18.135493 44.630387 4.873266
v -18.285231 44.630387 -3.705425
v -19.969057 37.685323 -5.086248
v -19.770099 37.685323 6.312012
v -23.402224 29.405817 10.676067
v -23.751268 29.405817 -9.320887
v -33.432333 12.297171 7.850685
v -33.676665 12.297171 -6.147184
v -35.025029 15.964052 0.877418
v -29.386194 32.465535 0.778992
v -24.427731 40.734407 0.692443
v -30.292360 32.888153 0.794808
v -18.821056 45.499027 1.578410
v -20.440900 45.010331 0.478523
v -18.860425 45.499024 -0.677222
v -15.988566 45.007208 -1.954606
v -16.374011 47.677380 0.000003
v -16.032878 45.119321 2.282375
v -18.852581 46.913338 0.304199
v -10.070278 45.050511 10.265473
v -8.153156 47.677380 11.315036
v -5.877071 45.119321 11.695890
vt 0.164384 0.884540
vt 0.211350 0.996086
vt 0.097847 0.864971
vt 0.003914 0.931507
vt 0.097847 0.788650
vt 0.003914 0.718200
vt 0.164384 0.767123
vt 0.205479 0.651663
vt 0.144814 0.825832
vt 0.000000 1.000000
vt 1.000000 1.000000
vt 1.000000 0.000000
vt 0.000000 0.000000
vt 0.000499 0.000499
vt 0.999500 0.000499
vt 0.999501 0.999500
vt 0.000500 0.999500
vt 0.156556 0.825832
vt 0.195695 0.945205
vt 0.050881 0.898239
vt 0.050881 0.751468
vt 0.193738 0.706458
vt 0.156556 0.825832
vt 0.050881 0.751468
vt 0.000499 0.000500
vt 0.999501 0.000500
vt 0.999501 0.999500
vt 0.000500 0.999501
vt 0.000499 0.000500
vt 0.999501 0.000499
vt 0.999501 0.999500
vt 0.000500 0.999500
vt 0.000500 0.000501
vt 0.999501 0.999501
vt 0.000500 0.999501
vt 0.999500 0.000500
vt 0.624266 0.684932
vt 0.301370 0.690802
vt 0.324853 0.755382
vt 0.457926 0.784736
vt 0.632094 0.880626
vt 0.992172 0.818004
vt 0.906067 0.667319
vt 0.634051 0.461840
vt 0.459883 0.551859
vt 0.324853 0.581213
vt 0.990215 0.520548
vt 0.311155 0.221135
vt 0.426614 0.225049
vt 0.636008 0.227006
vt 0.283757 0.197652
vt 0.352250 0.996086
vt 0.352250 0.896282
vt 0.992172 0.896282
vt 0.992172 0.996086
vt 0.279843 0.248532
vt 0.311155 0.305284
vt 0.446184 0.330724
vt 0.634051 0.430528
vt 0.990215 0.367906
vt 0.906067 0.219178
vt 0.639922 0.005871
vt 0.452055 0.107632
vt 0.311155 0.129159
vt 0.996086 0.070450
vt 0.301370 0.643836
vt 0.615448 0.996086
vt 0.615448 0.896282
vt 0.624266 0.684932
vt 0.301370 0.690802
vt 0.324853 0.755382
vt 0.457926 0.784736
vt 0.632094 0.880626
vt 0.992172 0.818004
vt 0.906067 0.667319
vt 0.634051 0.461840
vt 0.459883 0.551859
vt 0.324853 0.581213
vt 0.990215 0.520548
vt 0.311155 0.221135
vt 0.426614 0.225049
vt 0.636008 0.227006
vt 0.283757 0.197652
vt 0.352250 0.996086
vt 0.352250 0.896282
vt 0.992172 0.896282
vt 0.992172 0.996086
vt 0.279843 0.248532
vt 0.311155 0.305284
vt 0.446184 0.330724
vt 0.634051 0.430528
vt 0.990215 0.367906
vt 0.906067 0.219178
vt 0.639922 0.005871
vt 0.452055 0.107632
vt 0.311155 0.129159
vt 0.996086 0.070450
vt 0.301370 0.643836
vt 0.615448 0.996086
vt 0.615448 0.896282
vt 0.624266 0.684932
vt 0.301370 0.690802
vt 0.324853 0.755382
vt 0.457926 0.784736
vt 0.632094 0.880626
vt 0.992172 0.818004
vt 0.906067 0.667319
vt 0.634051 0.461840
vt 0.459883 0.551859
vt 0.324853 0.581213
vt 0.990215 0.520548
vt 0.311155 0.221135
vt 0.426614 0.225049
vt 0.636008 0.227006
vt 0.283757 0.197652
vt 0.352250 0.996086
vt 0.352250 0.896282
vt 0.992172 0.896282
vt 0.992172 0.996086
vt 0.279843 0.248532
vt 0.311155 0.305284
vt 0.446184 0.330724
vt 0.634051 0.430528
vt 0.990215 0.367906
vt 0.906067 0.219178
vt 0.639922 0.005871
vt 0.452055 0.107632
vt 0.311155 0.129159
vt 0.996086 0.070450
vt 0.301370 0.643836
vt 0.615448 0.996086
vt 0.615448 0.896282
vt 0.001957 0.620352
vt 0.076321 0.005871
vt 0.201566 0.005871
vt 0.272016 0.620352
vt 0.001957 0.620352
vt 0.076321 0.005871
vt 0.201566 0.005871
vt 0.272016 0.620352
vt 0.001957 0.620352
vt 0.076321 0.005871
vt 0.272016 0.620352
vt 0.201566 0.005871
vt 0.003914 0.716243
vt 0.211350 0.651663
vt 0.191781 0.702544
vt 0.046967 0.749511
vt 0.207436 0.990215
vt 0.191781 0.939335
vt 0.003914 0.923679
vt 0.046967 0.892368
vt 0.992172 0.896282
vt 0.992172 0.996086
vt 0.352250 0.896282
vt 0.352250 0.996086
vt 0.352250 0.896282
vt 0.992172 0.896282
vt 0.352250 0.996086
vt 0.992172 0.896282
vt 0.992172 0.896282
vt 0.992172 0.996086
vt 0.352250 0.896282
vt 0.352250 0.996086
vt 0.352250 0.896282
vt 0.992172 0.896282
vt 0.352250 0.996086
vt 0.992172 0.896282
vt 0.992172 0.896282
vt 0.992172 0.996086
vt 0.352250 0.896282
vt 0.352250 0.996086
vt 0.352250 0.896282
vt 0.992172 0.896282
vt 0.352250 0.996086
vt 0.992172 0.896282
vn 0.001164 0.999992 -0.003907
vn 0.001136 0.999993 -0.003495
vn 0.001140 0.999993 -0.003559
vn -0.125637 0.992076 0.000000
vn -0.234762 0.536151 -0.810820
vn -0.679456 0.533556 -0.503644
vn -0.125637 0.992076 0.000000
vn -0.679456 0.533556 -0.503644
vn -0.679456 0.533556 0.503644
vn -0.125637 0.992076 0.000000
vn -0.679456 0.533556 0.503644
vn -0.234762 0.536151 0.810820
vn -0.159283 -0.817954 -0.552794
vn -0.333903 -0.902613 -0.271659
vn -0.309963 -0.925178 -0.219017
vn -0.309963 -0.925178 -0.219017
vn -0.143180 -0.886181 -0.440662
vn -0.159283 -0.817954 -0.552794
vn -0.333903 -0.902613 -0.271659
vn -0.336218 -0.905051 0.260460
vn -0.314612 -0.923484 0.219536
vn -0.314612 -0.923484 0.219536
vn -0.309963 -0.925178 -0.219017
vn -0.333903 -0.902613 -0.271659
vn -0.336218 -0.905051 0.260460
vn -0.148252 -0.823606 0.547444
vn -0.135889 -0.882565 0.450126
vn -0.135889 -0.882565 0.450126
vn -0.314612 -0.923484 0.219536
vn -0.336218 -0.905051 0.260460
vn -0.333903 -0.902613 -0.271659
vn -0.159283 -0.817954 -0.552794
vn -0.350838 -0.936436 0.000000
vn -0.336218 -0.905051 0.260460
vn -0.333903 -0.902613 -0.271659
vn -0.350838 -0.936436 0.000000
vn -0.148252 -0.823606 0.547444
vn -0.336218 -0.905051 0.260460
vn -0.350838 -0.936436 0.000000
vn -0.278114 0.000000 -0.960548
vn -0.679456 0.533556 -0.503644
vn -0.234762 0.536151 -0.810820
vn -0.278114 0.000000 -0.960548
vn -0.799410 0.000000 -0.600785
vn -0.679456 0.533556 -0.503644
vn -0.799410 0.000000 -0.600785
vn -0.799410 0.000000 0.600785
vn -0.679456 0.533556 0.503644
vn -0.799410 0.000000 -0.600785
vn -0.679456 0.533556 0.503644
vn -0.679456 0.533556 -0.503644
vn -0.799410 0.000000 0.600785
vn -0.278114 -0.000000 0.960548
vn -0.234762 0.536151 0.810820
vn -0.799410 0.000000 0.600785
vn -0.234762 0.536151 0.810820
vn -0.679456 0.533556 0.503644
vn -1.000000 -0.000000 -0.000000
vn -1.000000 0.000000 -0.000000
vn -1.000000 -0.000000 -0.000000
vn -1.000000 -0.000000 -0.000000
vn -1.000000 -0.000000 -0.000000
vn -1.000000 -0.000000 -0.000000
vn -1.000000 -0.000000 -0.000000
vn -1.000000 -0.000000 -0.000000
vn -1.000000 -0.000000 -0.000000
vn -1.000000 -0.000000 -0.000000
vn -1.000000 -0.000000 -0.000000
vn -1.000000 0.000000 -0.000000
vn 0.252604 -0.503367 -0.826324
vn 0.080887 -0.614883 -0.784459
vn -0.224223 -0.508793 -0.831177
vn 0.252604 -0.503367 -0.826324
vn -0.224223 -0.508793 -0.831177
vn -0.466752 -0.392613 -0.792463
vn -0.317056 -0.447462 -0.836213
vn 0.252604 -0.503367 -0.826324
vn -0.466752 -0.392613 -0.792463
vn -0.166006 -0.323719 -0.931476
vn 0.252604 -0.503367 -0.826324
vn -0.317056 -0.447462 -0.836213
vn 0.276660 -0.323403 -0.904914
vn 0.252604 -0.503367 -0.826324
vn -0.166006 -0.323719 -0.931476
vn 0.730456 -0.447462 -0.515957
vn 0.830095 -0.392613 -0.395977
vn 0.252604 -0.503367 -0.826324
vn 0.830095 -0.392613 -0.395977
vn 0.664207 -0.500022 -0.555704
vn 0.252604 -0.503367 -0.826324
vn 0.276660 -0.323403 -0.904914
vn 0.658500 -0.323719 -0.679399
vn 0.252604 -0.503367 -0.826324
vn 0.658500 -0.323719 -0.679399
vn 0.730456 -0.447462 -0.515957
vn 0.252604 -0.503367 -0.826324
vn 0.156137 0.828216 0.538219
vn -0.217074 0.732392 0.645353
vn 0.329141 0.517998 0.789521
vn 0.329141 0.517998 0.789521
vn -0.240030 0.568828 0.786651
vn 0.450304 0.433115 0.780793
vn -0.250685 0.514623 0.819952
vn 0.379492 0.436261 0.815881
vn 0.450304 0.433115 0.780793
vn -0.240030 0.568828 0.786651
vn -0.250685 0.514623 0.819952
vn 0.450304 0.433115 0.780793
vn -0.250685 0.514623 0.819952
vn 0.180525 0.286426 0.940941
vn 0.379492 0.436261 0.815881
vn -0.250685 0.514623 0.819952
vn -0.281567 0.269347 0.920963
vn 0.180525 0.286426 0.940941
vn -0.809933 0.433115 0.395499
vn -0.250685 0.514623 0.819952
vn -0.240030 0.568828 0.786651
vn -0.724866 0.506601 0.466825
vn -0.809933 0.433115 0.395499
vn -0.240030 0.568828 0.786651
vn -0.675830 0.286426 0.679127
vn -0.281567 0.269347 0.920963
vn -0.250685 0.514623 0.819952
vn -0.809933 0.433115 0.395499
vn -0.770848 0.436261 0.464187
vn -0.250685 0.514623 0.819952
vn -0.770848 0.436261 0.464187
vn -0.675830 0.286426 0.679127
vn -0.250685 0.514623 0.819952
vn -0.724866 0.506601 0.466825
vn -0.217074 0.732392 0.645353
vn -0.459997 0.809966 0.363811
vn 0.252604 -0.503367 -0.826324
vn 0.664207 -0.500022 -0.555704
vn 0.385613 -0.610497 -0.691806
vn 0.681483 0.654972 0.326486
vn 0.681483 0.654972 0.326486
vn 0.681483 0.654972 0.326486
vn -0.815838 0.576300 0.047824
vn -0.815838 0.576300 0.047824
vn -0.815838 0.576300 0.047824
vn -0.805158 0.452589 0.383255
vn -0.805158 0.452589 0.383255
vn -0.805158 0.452589 0.383255
vn 0.403711 0.538865 0.739352
vn 0.403711 0.538865 0.739352
vn 0.403711 0.538865 0.739352
vn 0.252604 -0.503367 -0.826324
vn 0.385613 -0.610497 -0.691806
vn 0.080887 -0.614883 -0.784459
vn -0.217074 0.732392 0.645353
vn -0.240030 0.568828 0.786651
vn 0.329141 0.517998 0.789521
vn -0.724866 0.506601 0.466825
vn -0.240030 0.568828 0.786651
vn -0.217074 0.732392 0.645353
vn -0.032745 -0.989098 0.143572
vn -0.032745 -0.989098 0.143572
vn -0.032745 -0.989098 0.143572
vn -0.039629 -0.990771 0.129623
vn -0.039629 -0.990771 0.129623
vn -0.039629 -0.990771 0.129623
vn 0.668020 0.663600 0.336725
vn 0.668020 0.663600 0.336725
vn 0.668020 0.663600 0.336725
vn -0.834822 0.550443 0.009252
vn -0.834822 0.550443 0.009252
vn -0.834822 0.550443 0.009252
vn 0.281340 -0.503368 0.816988
vn 0.395655 -0.614883 0.682185
vn 0.669953 -0.508793 0.540641
vn 0.281340 -0.503368 0.816988
vn 0.669953 -0.508793 0.540641
vn 0.843409 -0.392613 0.366766
vn 0.748018 -0.447462 0.490150
vn 0.281340 -0.503368 0.816988
vn 0.843409 -0.392613 0.366766
vn 0.681810 -0.323719 0.656004
vn 0.281340 -0.503368 0.816988
vn 0.748018 -0.447462 0.490150
vn 0.308072 -0.323403 0.894708
vn 0.281340 -0.503368 0.816988
vn 0.681810 -0.323719 0.656004
vn -0.287680 -0.447462 0.846769
vn -0.438812 -0.392613 0.808269
vn 0.281340 -0.503368 0.816988
vn -0.438812 -0.392613 0.808269
vn -0.210720 -0.500022 0.839985
vn 0.281340 -0.503368 0.816988
vn 0.308072 -0.323403 0.894708
vn -0.133397 -0.323719 0.936702
vn 0.281340 -0.503368 0.816988
vn -0.133397 -0.323719 0.936702
vn -0.287680 -0.447462 0.846769
vn 0.281340 -0.503368 0.816988
vn -0.442675 0.828216 -0.343653
vn -0.203712 0.732392 -0.649695
vn -0.730350 0.517998 -0.445272
vn -0.730350 0.517998 -0.445272
vn -0.268193 0.568828 -0.777500
vn -0.823242 0.433115 -0.366993
vn -0.279147 0.514623 -0.810703
vn -0.786578 0.436261 -0.437002
vn -0.823242 0.433115 -0.366993
vn -0.268193 0.568828 -0.777500
vn -0.279147 0.514623 -0.810703
vn -0.823242 0.433115 -0.366993
vn -0.279147 0.514623 -0.810703
vn -0.699119 0.286426 -0.655128
vn -0.786578 0.436261 -0.437002
vn -0.279147 0.514623 -0.810703
vn -0.313536 0.269347 -0.910575
vn -0.699119 0.286426 -0.655128
vn 0.422781 0.433115 -0.796032
vn -0.279147 0.514623 -0.810703
vn -0.268193 0.568828 -0.777500
vn 0.312036 0.506601 -0.803735
vn 0.422781 0.433115 -0.796032
vn -0.268193 0.568828 -0.777500
vn 0.147577 0.286426 -0.946669
vn -0.313536 0.269347 -0.910575
vn -0.279147 0.514623 -0.810703
vn 0.422781 0.433115 -0.796032
vn 0.350787 0.436261 -0.828628
vn -0.279147 0.514623 -0.810703
vn 0.350787 0.436261 -0.828628
vn 0.147577 0.286426 -0.946669
vn -0.279147 0.514623 -0.810703
vn 0.312036 0.506601 -0.803735
vn -0.203712 0.732392 -0.649695
vn 0.158303 0.809966 -0.564709
vn 0.281340 -0.503368 0.816988
vn -0.210720 -0.500022 0.839985
vn 0.094666 -0.610497 0.786340
vn -0.743235 0.654972 0.136433
vn -0.743235 0.654972 0.136433
vn -0.743235 0.654972 0.136433
vn 0.668193 0.551692 -0.499154
vn 0.668193 0.551692 -0.499154
vn 0.668193 0.551692 -0.499154
vn 0.426115 0.452589 -0.783320
vn 0.426115 0.452589 -0.783319
vn 0.426115 0.452589 -0.783319
vn -0.761189 0.538865 -0.360853
vn -0.761189 0.538865 -0.360853
vn -0.761189 0.538865 -0.360853
vn 0.281340 -0.503368 0.816988
vn 0.094666 -0.610497 0.786340
vn 0.395655 -0.614883 0.682185
vn -0.203712 0.732392 -0.649695
vn -0.268193 0.568828 -0.777500
vn -0.730350 0.517998 -0.445272
vn 0.312036 0.506601 -0.803735
vn -0.268193 0.568828 -0.777500
vn -0.203712 0.732392 -0.649695
vn -0.073675 -0.986880 -0.143663
vn -0.073675 -0.986880 -0.143663
vn -0.073675 -0.986880 -0.143663
vn -0.044130 -0.990771 -0.128160
vn -0.044130 -0.990771 -0.128160
vn -0.044130 -0.990771 -0.128160
vn -0.738362 0.663600 0.120236
vn -0.738362 0.663600 0.120236
vn -0.738362 0.663600 0.120236
vn 0.669947 0.550443 -0.498181
vn 0.669947 0.550443 -0.498181
vn 0.669947 0.550443 -0.498181
vn 0.863940 -0.503368 -0.015107
vn 0.771061 -0.614883 -0.165483
vn 0.721207 -0.508793 -0.470096
vn 0.863940 -0.503368 -0.015107
vn 0.721207 -0.508793 -0.470096
vn 0.609443 -0.392613 -0.688792
vn 0.697310 -0.447462 -0.559943
vn 0.863940 -0.503368 -0.015107
vn 0.609443 -0.392613 -0.688792
vn 0.834588 -0.323719 -0.445723
vn 0.863940 -0.503368 -0.015107
vn 0.697310 -0.447462 -0.559943
vn 0.946117 -0.323403 -0.016514
vn 0.863940 -0.503368 -0.015107
vn 0.834588 -0.323719 -0.445723
vn 0.716427 -0.447462 0.535266
vn 0.633110 -0.392613 0.667104
vn 0.863940 -0.503368 -0.015107
vn 0.633110 -0.392613 0.667104
vn 0.733758 -0.500022 0.459976
vn 0.863940 -0.503368 -0.015107
vn 0.946117 -0.323403 -0.016514
vn 0.849635 -0.323719 0.416325
vn 0.863940 -0.503368 -0.015107
vn 0.849635 -0.323719 0.416325
vn 0.716427 -0.447462 0.535266
vn 0.863940 -0.503368 -0.015107
vn -0.463628 0.828216 0.314814
vn -0.680847 0.732392 -0.007025
vn -0.649169 0.517998 0.557007
vn -0.649169 0.517998 0.557007
vn -0.822323 0.568828 0.014806
vn -0.603427 0.433115 0.669543
vn -0.857286 0.514623 0.014964
vn -0.658680 0.436261 0.613039
vn -0.603427 0.433115 0.669543
vn -0.822323 0.568828 0.014806
vn -0.857286 0.514623 0.014964
vn -0.603427 0.433115 0.669543
vn -0.857286 0.514623 0.014964
vn -0.839103 0.286426 0.462456
vn -0.658680 0.436261 0.613039
vn -0.857286 0.514623 0.014964
vn -0.962896 0.269347 0.016807
vn -0.839103 0.286426 0.462456
vn -0.626425 0.433115 -0.648076
vn -0.857286 0.514623 0.014964
vn -0.822323 0.568828 0.014806
vn -0.667973 0.506601 -0.545132
vn -0.626425 0.433115 -0.648076
vn -0.822323 0.568828 0.014806
vn -0.854732 0.286426 -0.432891
vn -0.962896 0.269347 0.016807
vn -0.857286 0.514623 0.014964
vn -0.626425 0.433115 -0.648076
vn -0.679673 0.436261 -0.589679
vn -0.857286 0.514623 0.014964
vn -0.679673 0.436261 -0.589679
vn -0.854732 0.286426 -0.432891
vn -0.857286 0.514623 0.014964
vn -0.667973 0.506601 -0.545132
vn -0.680847 0.732392 -0.007025
vn -0.488151 0.809966 -0.325060
vn 0.863940 -0.503368 -0.015107
vn 0.733758 -0.500022 0.459976
vn 0.777107 -0.610497 0.152961
vn -0.099917 0.654971 0.749019
vn -0.099917 0.654971 0.749019
vn -0.099917 0.654971 0.749019
vn -0.260888 0.545414 -0.796531
vn -0.260888 0.545414 -0.796531
vn -0.260888 0.545414 -0.796531
vn -0.613304 0.452589 -0.647318
vn -0.613304 0.452589 -0.647318
vn -0.613304 0.452589 -0.647318
vn -0.578412 0.538865 0.612424
vn -0.578412 0.538865 0.612424
vn -0.578412 0.538865 0.612424
vn 0.863940 -0.503368 -0.015107
vn 0.777107 -0.610497 0.152961
vn 0.771061 -0.614883 -0.165483
vn -0.680847 0.732392 -0.007025
vn -0.822323 0.568828 0.014806
vn -0.649169 0.517998 0.557007
vn -0.667973 0.506601 -0.545132
vn -0.822323 0.568828 0.014806
vn -0.680847 0.732392 -0.007025
vn -0.158164 -0.987110 0.024465
vn -0.158164 -0.987110 0.024465
vn -0.158164 -0.987110 0.024465
vn -0.135525 -0.990771 0.002367
vn -0.135525 -0.990771 0.002367
vn -0.135525 -0.990771 0.002367
vn -0.113816 0.663600 0.739379
vn -0.113816 0.663600 0.739379
vn -0.113816 0.663600 0.739379
vn -0.266772 0.550443 -0.791104
vn -0.266772 0.550443 -0.791104
vn -0.266772 0.550443 -0.791104
vn 0.001173 0.999991 -0.004053
vn 0.001164 0.999992 -0.003907
vn 0.001140 0.999993 -0.003559
vn -0.304343 -0.173263 0.936672
vn -0.304343 -0.173263 0.936672
vn -0.304343 -0.173263 0.936672
vn -0.304343 -0.173263 0.936672
vn -0.304343 -0.173263 0.936672
vn -0.304343 -0.173263 0.936672
vn 0.001273 0.999992 0.003917
vn 0.001273 0.999992 0.003917
vn 0.001273 0.999992 0.003917
vn 0.001012 0.999993 0.003495
vn 0.001012 0.999993 0.003495
vn 0.001012 0.999993 0.003495
vn -0.304343 -0.173263 -0.936672
vn -0.304343 -0.173263 -0.936672
vn -0.304343 -0.173263 -0.936672
vn -0.304343 -0.173263 -0.936672
vn -0.304343 -0.173263 -0.936672
vn -0.304343 -0.173263 -0.936672
vn 0.004118 0.999992 -0.000000
vn 0.004118 0.999992 -0.000000
vn 0.004118 0.999992 -0.000000
vn 0.004118 0.999992 -0.000000
vn 0.004118 0.999992 -0.000000
vn 0.004118 0.999992 -0.000000
vn -0.977061 -0.212961 0.000000
vn -0.977061 -0.212961 0.000000
vn -0.977061 -0.212961 0.000000
vn -0.977061 -0.212961 0.000000
vn -0.977061 -0.212961 0.000000
vn -0.977061 -0.212961 0.000000
s off
g FY_Acc_Applique_A_1
usemtl FY_Acc_Applique_A_1SG
f 7/145/1 8/146/2 12/147/3
f 17/18/4 13/19/5 14/20/6
f 17/18/7 14/20/8 15/21/9
f 17/23/10 15/24/11 16/22/12
f 26/1/13 27/3/14 2/4/15
f 2/4/16 1/2/17 26/1/18
f 27/3/19 28/5/20 3/6/21
f 3/6/22 2/4/23 27/3/24
f 28/5/25 29/7/26 4/8/27
f 4/8/28 3/6/29 28/5/30
f 27/3/31 26/1/32 30/9/33
f 28/5/34 27/3/35 30/9/36
f 29/7/37 28/5/38 30/9/39
usemtl FY_Acc_Applique_A_1SG4
f 9/33/40 14/34/41 13/35/42
f 9/33/43 10/36/44 14/34/45
f 10/25/46 11/26/47 15/27/48
f 10/25/49 15/27/50 14/28/51
f 11/29/52 12/30/53 16/31/54
f 11/29/55 16/31/56 15/32/57
usemtl FY_Acc_Applique_A_1SG3
f 20/14/58 21/15/59 18/16/60
f 20/14/61 18/16/62 19/17/63
f 24/10/64 25/11/65 22/12/66
f 24/10/67 22/12/68 23/13/69
usemtl FY_Acc_Applique_A_1SG1
f 40/37/70 43/38/71 31/39/72
f 40/37/73 31/39/74 34/40/75
f 35/41/76 40/37/77 34/40/78
f 37/42/79 40/37/80 35/41/81
f 39/43/82 40/37/83 37/42/84
f 36/44/85 33/45/86 40/37/87
f 33/45/88 32/46/89 40/37/90
f 39/43/91 38/47/92 40/37/93
f 38/47/94 36/44/95 40/37/96
f 43/56/97 44/48/98 31/57/99
f 31/57/100 41/49/101 34/58/102
f 42/50/103 35/59/104 34/58/105
f 41/49/106 42/50/107 34/58/108
f 42/50/109 37/60/110 35/59/111
f 42/50/112 39/61/113 37/60/114
f 33/63/115 42/50/116 41/49/117
f 32/64/118 33/63/119 41/49/120
f 38/65/121 39/61/122 42/50/123
f 33/63/124 36/62/125 42/50/126
f 36/62/127 38/65/128 42/50/129
f 32/64/130 44/48/131 45/51/132
f 40/37/133 32/46/134 45/66/135
usemtl FY_Acc_Applique_A_1SG
f 87/54/136 86/55/137 43/53/138
f 45/52/139 86/153/140 85/154/141
f 46/68/142 45/52/143 44/155/144
f 44/156/145 43/53/146 46/67/147
usemtl FY_Acc_Applique_A_1SG1
f 40/37/148 45/66/149 43/38/150
f 44/48/151 41/49/152 31/57/153
f 32/64/154 41/49/155 44/48/156
usemtl FY_Acc_Applique_A_1SG
f 85/157/157 87/54/158 45/52/159
f 45/158/160 87/159/161 43/53/162
f 46/67/163 43/53/164 86/55/165
f 86/160/166 45/52/167 46/68/168
usemtl FY_Acc_Applique_A_1SG1
f 56/69/169 59/70/170 47/71/171
f 56/69/172 47/71/173 50/72/174
f 51/73/175 56/69/176 50/72/177
f 53/74/178 56/69/179 51/73/180
f 55/75/181 56/69/182 53/74/183
f 52/76/184 49/77/185 56/69/186
f 49/77/187 48/78/188 56/69/189
f 55/75/190 54/79/191 56/69/192
f 54/79/193 52/76/194 56/69/195
f 59/88/196 60/80/197 47/89/198
f 47/89/199 57/81/200 50/90/201
f 58/82/202 51/91/203 50/90/204
f 57/81/205 58/82/206 50/90/207
f 58/82/208 53/92/209 51/91/210
f 58/82/211 55/93/212 53/92/213
f 49/95/214 58/82/215 57/81/216
f 48/96/217 49/95/218 57/81/219
f 54/97/220 55/93/221 58/82/222
f 49/95/223 52/94/224 58/82/225
f 52/94/226 54/97/227 58/82/228
f 48/96/229 60/80/230 61/83/231
f 56/69/232 48/78/233 61/98/234
usemtl FY_Acc_Applique_A_1SG
f 64/86/235 63/87/236 59/85/237
f 61/84/238 63/161/239 62/162/240
f 65/100/241 61/84/242 60/163/243
f 60/164/244 59/85/245 65/99/246
usemtl FY_Acc_Applique_A_1SG1
f 56/69/247 61/98/248 59/70/249
f 60/80/250 57/81/251 47/89/252
f 48/96/253 57/81/254 60/80/255
usemtl FY_Acc_Applique_A_1SG
f 62/165/256 64/86/257 61/84/258
f 61/166/259 64/167/260 59/85/261
f 65/99/262 59/85/263 63/87/264
f 63/168/265 61/84/266 65/100/267
usemtl FY_Acc_Applique_A_1SG1
f 75/101/268 78/102/269 66/103/270
f 75/101/271 66/103/272 69/104/273
f 70/105/274 75/101/275 69/104/276
f 72/106/277 75/101/278 70/105/279
f 74/107/280 75/101/281 72/106/282
f 71/108/283 68/109/284 75/101/285
f 68/109/286 67/110/287 75/101/288
f 74/107/289 73/111/290 75/101/291
f 73/111/292 71/108/293 75/101/294
f 78/120/295 79/112/296 66/121/297
f 66/121/298 76/113/299 69/122/300
f 77/114/301 70/123/302 69/122/303
f 76/113/304 77/114/305 69/122/306
f 77/114/307 72/124/308 70/123/309
f 77/114/310 74/125/311 72/124/312
f 68/127/313 77/114/314 76/113/315
f 67/128/316 68/127/317 76/113/318
f 73/129/319 74/125/320 77/114/321
f 68/127/322 71/126/323 77/114/324
f 71/126/325 73/129/326 77/114/327
f 67/128/328 79/112/329 80/115/330
f 75/101/331 67/110/332 80/130/333
usemtl FY_Acc_Applique_A_1SG
f 83/118/334 82/119/335 78/117/336
f 80/116/337 82/169/338 81/170/339
f 84/132/340 80/116/341 79/171/342
f 79/172/343 78/117/344 84/131/345
usemtl FY_Acc_Applique_A_1SG1
f 75/101/346 80/130/347 78/102/348
f 79/112/349 76/113/350 66/121/351
f 67/128/352 76/113/353 79/112/354
usemtl FY_Acc_Applique_A_1SG
f 81/173/355 83/118/356 80/116/357
f 80/174/358 83/175/359 78/117/360
f 84/131/361 78/117/362 82/119/363
f 82/176/364 80/116/365 84/132/366
f 11/148/367 7/145/368 12/147/369
f 7/133/370 3/134/371 4/135/372
f 7/133/373 4/135/374 8/136/375
f 5/149/376 6/151/377 10/152/378
f 5/149/379 10/152/380 9/150/381
f 5/141/382 1/142/383 2/144/384
f 5/141/385 2/144/386 6/143/387
f 6/151/388 7/145/389 11/148/390
f 6/151/391 11/148/392 10/152/393
f 6/137/394 2/138/395 3/139/396
f 6/137/397 3/139/398 7/140/399
