# This file uses meters as units for non-parametric coordinates.

mtllib tr_s3_trumpet_a.max.fobj.mtl
g default
v -3.059770 163.209379 -7.993259
v -5.127014 165.220952 -12.194403
v -9.500372 166.406941 -14.030331
v -13.785838 165.784132 -12.108264
v -15.707479 164.188266 -7.755122
v -13.640691 162.247050 -3.479186
v -9.380188 161.007357 -1.527807
v -5.036514 161.505806 -3.694109
v 7.926098 186.669445 -1.011936
v 1.718827 190.852404 -14.703615
v -11.711396 193.330467 -20.655945
v -24.891657 191.658735 -14.332807
v -30.668464 188.183188 -0.479207
v -24.155143 185.182703 13.155238
v -11.001087 181.961370 19.411558
v 1.875449 183.557606 12.794508
v 38.586062 212.878227 9.407897
v 32.025087 217.292404 -17.430925
v 11.969596 220.656109 -36.670727
v -15.294327 220.175457 -43.480816
v -42.405632 216.566801 -36.883754
v -61.316764 209.454608 -17.902148
v -67.265701 204.862285 9.071814
v -58.485258 201.908374 35.858610
v -38.506088 197.717428 55.280799
v -13.284275 194.950259 62.443405
v 10.892385 200.697351 55.263257
v 29.936445 208.225369 36.051491
v 93.914014 221.978283 21.215239
v 83.201045 233.118057 -35.264421
v 39.313471 245.035315 -72.986180
v -19.599400 245.278144 -86.360401
v -74.666291 225.695753 -76.178306
v -111.117792 197.839677 -40.198079
v -120.501399 185.973048 16.815248
v -99.959886 181.516850 70.358628
v -58.954889 176.065505 111.978579
v -12.247466 173.971415 126.623654
v 33.241418 189.206064 113.149130
v 74.348480 211.103749 73.843998
v -6.635483 128.299141 -12.305956
v -9.389631 129.994357 -16.529082
v -12.303506 128.749645 -11.998499
v -9.617025 127.130771 -7.500169
v -6.720906 90.871561 -11.604206
v -8.555501 91.279453 -14.932397
v -10.690266 90.928787 -11.650182
v -8.851153 90.528911 -8.310643
v -4.113427 48.493344 -9.239141
v -5.247078 47.208744 -11.527754
v -7.141214 48.486862 -9.238570
v -6.011263 49.808428 -6.947821
v 0.572710 12.062355 -2.341066
v -0.675672 10.509244 -5.093291
v -2.970312 12.065400 -2.341093
v -1.733902 13.701613 0.394882
v 3.227244 -18.936992 6.697698
v 1.279418 -19.097252 1.731031
v -2.387757 -18.936472 6.697711
v -0.458038 -18.776168 11.664364
v -7.506949 230.511451 16.233611
v -23.484667 230.706596 16.637206
v -8.643728 154.902327 -10.938962
v -15.416445 227.785635 22.998497
v -16.421112 234.169078 9.340451
vt 0.541705 0.430540
vt 0.528500 0.402088
vt 0.500049 0.388884
vt 0.471598 0.402088
vt 0.458394 0.430540
vt 0.471598 0.458991
vt 0.500049 0.472195
vt 0.528395 0.460379
vt 0.593108 0.430205
vt 0.567226 0.366612
vt 0.500000 0.338325
vt 0.436406 0.366612
vt 0.406892 0.430205
vt 0.436406 0.493799
vt 0.500000 0.523313
vt 0.563594 0.493799
vt 0.768484 0.457055
vt 0.745605 0.333071
vt 0.646954 0.241651
vt 0.504843 0.202952
vt 0.357889 0.237970
vt 0.261658 0.328163
vt 0.235148 0.455828
vt 0.277397 0.584720
vt 0.372417 0.683503
vt 0.500000 0.727110
vt 0.628794 0.687184
vt 0.729867 0.587174
vt 0.998290 0.487730
vt 0.956793 0.246569
vt 0.769121 0.062512
vt 0.503632 -0.000727
vt 0.234511 0.066193
vt 0.046839 0.250250
vt 0.000500 0.496319
vt 0.095265 0.738707
vt 0.269620 0.923991
vt 0.503632 0.998273
vt 0.726748 0.928899
vt 0.909578 0.739934
vt 0.515440 0.427731
vt 0.500044 0.396922
vt 0.484649 0.427731
vt 0.500044 0.458539
vt 0.509448 0.427253
vt 0.499454 0.406123
vt 0.489610 0.426992
vt 0.499835 0.449578
vt 0.505553 0.426663
vt 0.499482 0.411780
vt 0.501127 0.426612
vt 0.499675 0.424185
vt 0.497973 0.426890
vt 0.499520 0.429546
vt 0.502930 0.426657
vt 0.495871 0.426646
vt 0.499369 0.417852
vt 0.493104 0.426689
vt 0.499760 0.440575
vt 0.499635 0.434429
vt 0.541705 0.430540
vt 0.528500 0.402088
vt 0.500049 0.388884
vt 0.471598 0.402088
vt 0.458394 0.430540
vt 0.471598 0.458991
vt 0.500049 0.472195
vt 0.528395 0.460379
vt 0.593108 0.430205
vt 0.567226 0.366612
vt 0.500000 0.338325
vt 0.436406 0.366612
vt 0.406892 0.430205
vt 0.436406 0.493799
vt 0.500000 0.523313
vt 0.563594 0.493799
vt 0.768484 0.457055
vt 0.745605 0.333071
vt 0.646954 0.241651
vt 0.504843 0.202952
vt 0.357889 0.237970
vt 0.261658 0.328163
vt 0.235148 0.455828
vt 0.277397 0.584720
vt 0.372417 0.683503
vt 0.500000 0.727110
vt 0.628794 0.687184
vt 0.729867 0.587174
vt 0.998290 0.487730
vt 0.956793 0.246569
vt 0.769121 0.062512
vt 0.503632 -0.000727
vt 0.234511 0.066193
vt 0.046839 0.250250
vt 0.000500 0.496319
vt 0.095265 0.738707
vt 0.269620 0.923991
vt 0.503632 0.998273
vt 0.726748 0.928899
vt 0.909578 0.739934
vt 0.515440 0.427731
vt 0.500044 0.396922
vt 0.484649 0.427731
vt 0.500044 0.458539
vt 0.509448 0.427253
vt 0.499454 0.406123
vt 0.489610 0.426992
vt 0.499835 0.449578
vt 0.505553 0.426663
vt 0.499482 0.411780
vt 0.501127 0.426612
vt 0.499675 0.424185
vt 0.497973 0.426890
vt 0.499520 0.429546
vt 0.502930 0.426657
vt 0.495871 0.426646
vt 0.499369 0.417852
vt 0.493104 0.426689
vt 0.499760 0.440575
vt 0.499635 0.434429
vt 0.265723 0.933605
vt 0.192817 0.996591
vt -0.000991 0.710305
vt 0.192817 0.996591
vt -0.000991 0.710305
vt 0.265723 0.933605
vt 0.265723 0.933605
vt 0.192817 0.996591
vt -0.000991 0.710305
vt 0.192817 0.996591
vt -0.000991 0.710305
vt 0.265723 0.933605
vt 0.570859 0.431308
vt 0.548424 0.382968
vt 0.741359 0.434311
vt 0.674266 0.269460
vt 0.500000 0.196133
vt 0.500083 0.360533
vt 0.451743 0.382968
vt 0.335149 0.269460
vt 0.258641 0.434311
vt 0.429308 0.431308
vt 0.451743 0.479649
vt 0.335149 0.599162
vt 0.500000 0.675671
vt 0.500083 0.502084
vt 0.548245 0.482009
vt 0.664851 0.599162
vt 1.008173 0.483865
vt 0.964869 0.249195
vt 0.778147 0.076159
vt 0.509166 0.002912
vt 0.231019 0.069192
vt 0.048879 0.239905
vt -0.001299 0.481543
vt 0.078668 0.725504
vt 0.258517 0.912474
vt 0.500000 0.995010
vt 0.743775 0.919441
vt 0.935080 0.730148
vt 0.517663 0.426144
vt 0.500050 0.390900
vt 0.482438 0.426144
vt 0.500050 0.461388
vt 0.499375 0.401425
vt 0.510809 0.425597
vt 0.488114 0.425299
vt 0.499811 0.451136
vt 0.499407 0.407896
vt 0.506352 0.424923
vt 0.492112 0.424952
vt 0.499726 0.440837
vt 0.192817 0.996591
vt -0.000991 0.710305
vt 0.265723 0.933605
vt 0.192817 0.996591
vt -0.000991 0.710305
vt 0.265723 0.933605
vn -0.321590 0.909256 0.264261
vn -0.065124 0.992891 0.099630
vn -0.793540 0.584468 0.169389
vn -0.321590 0.909256 0.264261
vn -0.793540 0.584468 0.169389
vn -0.544915 0.487700 0.682068
vn 0.021806 0.499146 0.866243
vn -0.321590 0.909256 0.264261
vn -0.544915 0.487700 0.682068
vn -0.076162 0.779458 0.621808
vn -0.321590 0.909256 0.264261
vn 0.021806 0.499146 0.866243
vn 0.152415 0.926832 0.343150
vn -0.076162 0.779458 0.621808
vn 0.021806 0.499146 0.866243
vn 0.152415 0.926832 0.343150
vn 0.021806 0.499146 0.866243
vn 0.468240 0.609119 0.640098
vn 0.641271 0.747897 0.171529
vn 0.152415 0.926832 0.343150
vn 0.468240 0.609119 0.640098
vn 0.130905 0.968259 0.212929
vn 0.152415 0.926832 0.343150
vn 0.641271 0.747897 0.171529
vn -0.082571 0.963673 0.253999
vn 0.130905 0.968259 0.212929
vn 0.641271 0.747897 0.171529
vn -0.082571 0.963673 0.253999
vn 0.641271 0.747897 0.171529
vn 0.490628 0.828324 -0.270486
vn 0.040034 0.883126 -0.467424
vn -0.082571 0.963673 0.253999
vn 0.490628 0.828324 -0.270486
vn -0.026231 0.921301 0.387965
vn -0.082571 0.963673 0.253999
vn 0.040034 0.883126 -0.467424
vn 0.160610 0.927926 0.336388
vn -0.026231 0.921301 0.387965
vn 0.040034 0.883126 -0.467424
vn 0.160610 0.927926 0.336388
vn 0.040034 0.883126 -0.467424
vn -0.570350 0.751204 -0.332255
vn -0.793540 0.584468 0.169389
vn 0.160610 0.927926 0.336388
vn -0.570350 0.751204 -0.332255
vn -0.065124 0.992891 0.099630
vn 0.160610 0.927926 0.336388
vn -0.793540 0.584468 0.169389
vn -0.544915 0.487700 0.682068
vn -0.793540 0.584468 0.169389
vn -0.396303 0.905358 0.152548
vn -0.544915 0.487700 0.682068
vn -0.396303 0.905358 0.152548
vn -0.363323 0.863367 0.350133
vn -0.230287 0.788480 0.570323
vn -0.544915 0.487700 0.682068
vn -0.363323 0.863367 0.350133
vn -0.055464 0.784641 0.617464
vn -0.544915 0.487700 0.682068
vn -0.230287 0.788480 0.570323
vn 0.021806 0.499146 0.866243
vn -0.544915 0.487700 0.682068
vn -0.055464 0.784641 0.617464
vn 0.468240 0.609119 0.640098
vn 0.021806 0.499146 0.866243
vn -0.055464 0.784641 0.617464
vn 0.468240 0.609119 0.640098
vn -0.055464 0.784641 0.617464
vn -0.032764 0.861979 0.505884
vn 0.001032 0.971829 0.235683
vn 0.468240 0.609119 0.640098
vn -0.032764 0.861979 0.505884
vn 0.008404 0.989027 0.147493
vn 0.468240 0.609119 0.640098
vn 0.001032 0.971829 0.235683
vn 0.641271 0.747897 0.171529
vn 0.468240 0.609119 0.640098
vn 0.008404 0.989027 0.147493
vn 0.490628 0.828324 -0.270486
vn 0.641271 0.747897 0.171529
vn 0.008404 0.989027 0.147493
vn 0.490628 0.828324 -0.270486
vn 0.008404 0.989027 0.147493
vn 0.034461 0.991896 0.122292
vn 0.051663 0.992682 0.109150
vn 0.490628 0.828324 -0.270486
vn 0.034461 0.991896 0.122292
vn 0.040034 0.883126 -0.467424
vn 0.490628 0.828324 -0.270486
vn -0.053246 0.995836 0.074003
vn 0.490628 0.828324 -0.270486
vn 0.051663 0.992682 0.109150
vn -0.053246 0.995836 0.074003
vn -0.570350 0.751204 -0.332255
vn 0.040034 0.883126 -0.467424
vn -0.053246 0.995836 0.074003
vn -0.570350 0.751204 -0.332255
vn -0.053246 0.995836 0.074003
vn -0.300829 0.953087 0.033576
vn -0.368234 0.929480 0.021664
vn -0.570350 0.751204 -0.332255
vn -0.300829 0.953087 0.033576
vn -0.396303 0.905358 0.152548
vn -0.570350 0.751204 -0.332255
vn -0.368234 0.929480 0.021664
vn -0.793540 0.584468 0.169389
vn -0.570350 0.751204 -0.332255
vn -0.396303 0.905358 0.152548
vn -0.363323 0.863367 0.350133
vn -0.396303 0.905358 0.152548
vn -0.190343 0.929662 0.315434
vn -0.396303 0.905358 0.152548
vn -0.196192 0.964667 0.175857
vn -0.190343 0.929662 0.315434
vn -0.230287 0.788480 0.570323
vn -0.363323 0.863367 0.350133
vn -0.190343 0.929662 0.315434
vn -0.230287 0.788480 0.570323
vn -0.190343 0.929662 0.315434
vn -0.137561 0.867197 0.478587
vn -0.055464 0.784641 0.617464
vn -0.230287 0.788480 0.570323
vn -0.138357 0.871235 0.470964
vn -0.230287 0.788480 0.570323
vn -0.137561 0.867197 0.478587
vn -0.138357 0.871235 0.470964
vn -0.032764 0.861979 0.505884
vn -0.055464 0.784641 0.617464
vn -0.138357 0.871235 0.470964
vn -0.032764 0.861979 0.505884
vn -0.138357 0.871235 0.470964
vn -0.249701 0.877743 0.408922
vn -0.284117 0.933836 0.217319
vn -0.032764 0.861979 0.505884
vn -0.249701 0.877743 0.408922
vn 0.001032 0.971829 0.235683
vn -0.032764 0.861979 0.505884
vn -0.284117 0.933836 0.217319
vn 0.008404 0.989027 0.147493
vn 0.001032 0.971829 0.235683
vn -0.284117 0.933836 0.217319
vn 0.008404 0.989027 0.147493
vn -0.284117 0.933836 0.217319
vn -0.307352 0.936169 0.170651
vn -0.228785 0.937588 0.261890
vn 0.008404 0.989027 0.147493
vn -0.307352 0.936169 0.170651
vn 0.034461 0.991896 0.122292
vn 0.008404 0.989027 0.147493
vn -0.228785 0.937588 0.261890
vn 0.051663 0.992682 0.109150
vn 0.034461 0.991896 0.122292
vn -0.228785 0.937588 0.261890
vn 0.051663 0.992682 0.109150
vn -0.228785 0.937588 0.261890
vn -0.110409 0.941107 0.319572
vn -0.124091 0.943205 0.308166
vn 0.051663 0.992682 0.109150
vn -0.110409 0.941107 0.319572
vn -0.053246 0.995836 0.074003
vn 0.051663 0.992682 0.109150
vn -0.124091 0.943205 0.308166
vn -0.300829 0.953087 0.033576
vn -0.053246 0.995836 0.074003
vn -0.124091 0.943205 0.308166
vn -0.300829 0.953087 0.033576
vn -0.124091 0.943205 0.308166
vn -0.232224 0.933013 0.274877
vn -0.368234 0.929480 0.021664
vn -0.300829 0.953087 0.033576
vn -0.205885 0.959710 0.191228
vn -0.300829 0.953087 0.033576
vn -0.232224 0.933013 0.274877
vn -0.205885 0.959710 0.191228
vn -0.396303 0.905358 0.152548
vn -0.368234 0.929480 0.021664
vn -0.205885 0.959710 0.191228
vn -0.396303 0.905358 0.152548
vn -0.205885 0.959710 0.191228
vn -0.196192 0.964667 0.175857
vn -0.321590 0.909256 0.264261
vn -0.065124 0.992891 0.099630
vn 0.996681 -0.063513 -0.050921
vn -0.321590 0.909256 0.264261
vn -0.006745 -0.047155 -0.998865
vn -0.076162 0.779458 0.621808
vn -0.006745 -0.047155 -0.998865
vn -0.321590 0.909256 0.264261
vn 0.996681 -0.063513 -0.050921
vn -0.006745 -0.047155 -0.998865
vn -0.994968 -0.081028 -0.058925
vn 0.152415 0.926832 0.343150
vn 0.152415 0.926832 0.343150
vn -0.076162 0.779458 0.621808
vn -0.006745 -0.047155 -0.998865
vn 0.130905 0.968259 0.212929
vn 0.152415 0.926832 0.343150
vn -0.994968 -0.081028 -0.058925
vn -0.082571 0.963673 0.253999
vn 0.130905 0.968259 0.212929
vn -0.994968 -0.081028 -0.058925
vn -0.082571 0.963673 0.253999
vn -0.022822 -0.152549 0.988032
vn -0.026231 0.921301 0.387965
vn -0.022822 -0.152549 0.988032
vn -0.082571 0.963673 0.253999
vn -0.994968 -0.081028 -0.058925
vn 0.160610 0.927926 0.336388
vn -0.026231 0.921301 0.387965
vn -0.022822 -0.152549 0.988032
vn 0.160610 0.927926 0.336388
vn 0.996681 -0.063513 -0.050921
vn -0.065124 0.992891 0.099630
vn 0.996681 -0.063513 -0.050921
vn 0.160610 0.927926 0.336388
vn -0.022822 -0.152549 0.988032
vn 0.999042 0.032104 0.029723
vn 0.028149 -0.055927 -0.998038
vn -0.006745 -0.047155 -0.998865
vn -0.006745 -0.047155 -0.998865
vn 0.996681 -0.063513 -0.050921
vn 0.999042 0.032104 0.029723
vn -0.006745 -0.047155 -0.998865
vn -0.996809 -0.063858 -0.047895
vn -0.994968 -0.081028 -0.058925
vn -0.996809 -0.063858 -0.047895
vn -0.006745 -0.047155 -0.998865
vn 0.028149 -0.055927 -0.998038
vn -0.996809 -0.063858 -0.047895
vn -0.054806 0.006005 0.998479
vn -0.022822 -0.152549 0.988032
vn -0.022822 -0.152549 0.988032
vn -0.994968 -0.081028 -0.058925
vn -0.996809 -0.063858 -0.047895
vn -0.022822 -0.152549 0.988032
vn 0.999042 0.032104 0.029723
vn 0.996681 -0.063513 -0.050921
vn 0.999042 0.032104 0.029723
vn -0.022822 -0.152549 0.988032
vn -0.054806 0.006005 0.998479
vn 0.993096 0.107813 0.046216
vn 0.068746 -0.129674 -0.989171
vn 0.028149 -0.055927 -0.998038
vn 0.028149 -0.055927 -0.998038
vn 0.999042 0.032104 0.029723
vn 0.993096 0.107813 0.046216
vn 0.028149 -0.055927 -0.998038
vn -0.990285 -0.101887 -0.094623
vn -0.996809 -0.063858 -0.047895
vn -0.990285 -0.101887 -0.094623
vn 0.028149 -0.055927 -0.998038
vn 0.068746 -0.129674 -0.989171
vn -0.996809 -0.063858 -0.047895
vn -0.990285 -0.101887 -0.094623
vn -0.054806 0.006005 0.998479
vn -0.102933 0.085559 0.991002
vn -0.054806 0.006005 0.998479
vn -0.990285 -0.101887 -0.094623
vn -0.054806 0.006005 0.998479
vn 0.993096 0.107813 0.046216
vn 0.999042 0.032104 0.029723
vn 0.993096 0.107813 0.046216
vn -0.054806 0.006005 0.998479
vn -0.102933 0.085559 0.991002
vn 0.990141 0.126151 0.060890
vn 0.123171 -0.191939 -0.973647
vn 0.068746 -0.129674 -0.989171
vn 0.068746 -0.129674 -0.989171
vn 0.993096 0.107813 0.046216
vn 0.990141 0.126151 0.060890
vn 0.068746 -0.129674 -0.989171
vn -0.989331 -0.088945 -0.115383
vn -0.990285 -0.101887 -0.094623
vn -0.989331 -0.088945 -0.115383
vn 0.068746 -0.129674 -0.989171
vn 0.123171 -0.191939 -0.973647
vn -0.989331 -0.088945 -0.115383
vn -0.094877 0.247951 0.964116
vn -0.102933 0.085559 0.991002
vn -0.102933 0.085559 0.991002
vn -0.990285 -0.101887 -0.094623
vn -0.989331 -0.088945 -0.115383
vn -0.102933 0.085559 0.991002
vn 0.990141 0.126151 0.060890
vn 0.993096 0.107813 0.046216
vn 0.990141 0.126151 0.060890
vn -0.102933 0.085559 0.991002
vn -0.094877 0.247951 0.964116
vn 0.971671 0.138186 0.191730
vn 0.185220 -0.209094 -0.960194
vn 0.123171 -0.191939 -0.973647
vn 0.123171 -0.191939 -0.973647
vn 0.990141 0.126151 0.060890
vn 0.971671 0.138186 0.191730
vn 0.123171 -0.191939 -0.973647
vn -0.997963 -0.034786 -0.053473
vn -0.989331 -0.088945 -0.115383
vn -0.997963 -0.034786 -0.053473
vn 0.123171 -0.191939 -0.973647
vn 0.185220 -0.209094 -0.960194
vn -0.997963 -0.034786 -0.053473
vn -0.094815 0.323013 0.941633
vn -0.094877 0.247951 0.964116
vn -0.094877 0.247951 0.964116
vn -0.989331 -0.088945 -0.115383
vn -0.997963 -0.034786 -0.053473
vn -0.094877 0.247951 0.964116
vn 0.971671 0.138186 0.191730
vn 0.990141 0.126151 0.060890
vn 0.971671 0.138186 0.191730
vn -0.094877 0.247951 0.964116
vn -0.094815 0.323013 0.941633
vn 0.019631 -0.338401 0.940797
vn 0.710180 -0.178496 0.681017
vn 0.019631 -0.338401 0.940797
vn 0.994289 0.103850 -0.024601
vn 0.710180 -0.178496 0.681017
vn 0.994289 0.103850 -0.024601
s off
g TR_S3_Trumpet_A
usemtl TR_S3_Trumpet_ASG
f 2/2/1 1/1/2 9/9/3
f 2/2/4 9/9/5 10/10/6
f 11/11/7 2/2/8 10/10/9
f 3/3/10 2/2/11 11/11/12
f 4/4/13 3/3/14 11/11/15
f 4/4/16 11/11/17 12/12/18
f 13/13/19 4/4/20 12/12/21
f 5/5/22 4/4/23 13/13/24
f 6/6/25 5/5/26 13/13/27
f 6/6/28 13/13/29 14/14/30
f 15/15/31 6/6/32 14/14/33
f 7/7/34 6/6/35 15/15/36
f 8/8/37 7/7/38 15/15/39
f 8/8/40 15/15/41 16/16/42
f 9/9/43 8/8/44 16/16/45
f 1/1/46 8/8/47 9/9/48
f 10/10/49 9/9/50 17/17/51
f 10/10/52 17/17/53 18/18/54
f 19/19/55 10/10/56 18/18/57
f 20/20/58 10/10/59 19/19/60
f 11/11/61 10/10/62 20/20/63
f 12/12/64 11/11/65 20/20/66
f 12/12/67 20/20/68 21/21/69
f 22/22/70 12/12/71 21/21/72
f 23/23/73 12/12/74 22/22/75
f 13/13/76 12/12/77 23/23/78
f 14/14/79 13/13/80 23/23/81
f 14/14/82 23/23/83 24/24/84
f 25/25/85 14/14/86 24/24/87
f 15/15/88 14/14/89 26/26/90
f 14/14/91 25/25/92 26/26/93
f 16/16/94 15/15/95 26/26/96
f 16/16/97 26/26/98 27/27/99
f 28/28/100 16/16/101 27/27/102
f 17/17/103 16/16/104 28/28/105
f 9/9/106 16/16/107 17/17/108
f 18/18/109 17/17/110 30/30/111
f 17/17/112 29/29/113 30/30/114
f 19/19/115 18/18/116 30/30/117
f 19/19/118 30/30/119 31/31/120
f 20/20/121 19/19/122 32/32/123
f 19/19/124 31/31/125 32/32/126
f 21/21/127 20/20/128 32/32/129
f 21/21/130 32/32/131 33/33/132
f 34/34/133 21/21/134 33/33/135
f 22/22/136 21/21/137 34/34/138
f 23/23/139 22/22/140 34/34/141
f 23/23/142 34/34/143 35/35/144
f 36/36/145 23/23/146 35/35/147
f 24/24/148 23/23/149 36/36/150
f 25/25/151 24/24/152 36/36/153
f 25/25/154 36/36/155 37/37/156
f 38/38/157 25/25/158 37/37/159
f 26/26/160 25/25/161 38/38/162
f 27/27/163 26/26/164 38/38/165
f 27/27/166 38/38/167 39/39/168
f 28/28/169 27/27/170 40/40/171
f 27/27/172 39/39/173 40/40/174
f 17/17/175 28/28/176 40/40/177
f 17/17/178 40/40/179 29/29/180
f 2/2/181 1/1/182 41/41/183
f 2/2/184 42/42/185 3/3/186
f 42/42/187 2/2/188 41/41/189
f 42/42/190 43/43/191 4/4/192
f 4/4/193 3/3/194 42/42/195
f 5/5/196 4/4/197 43/43/198
f 6/6/199 5/5/200 43/43/201
f 6/6/202 44/44/203 7/7/204
f 44/44/205 6/6/206 43/43/207
f 8/8/208 7/7/209 44/44/210
f 8/8/211 41/41/212 1/1/213
f 41/41/214 8/8/215 44/44/216
f 45/45/217 46/46/218 42/42/219
f 42/42/220 41/41/221 45/45/222
f 42/42/223 47/47/224 43/43/225
f 47/47/226 42/42/227 46/46/228
f 47/47/229 48/48/230 44/44/231
f 44/44/232 43/43/233 47/47/234
f 44/44/235 45/45/236 41/41/237
f 45/45/238 44/44/239 48/48/240
f 49/49/241 50/50/242 46/46/243
f 46/46/244 45/45/245 49/49/246
f 46/46/247 51/58/248 47/47/249
f 51/58/250 46/46/251 50/50/252
f 47/47/253 51/58/254 48/48/255
f 52/59/256 48/48/257 51/58/258
f 48/48/259 49/49/260 45/45/261
f 49/49/262 48/48/263 52/59/264
f 53/55/265 54/57/266 50/50/267
f 50/50/268 49/49/269 53/55/270
f 50/50/271 55/56/272 51/58/273
f 55/56/274 50/50/275 54/57/276
f 55/56/277 56/60/278 52/59/279
f 52/59/280 51/58/281 55/56/282
f 52/59/283 53/55/284 49/49/285
f 53/55/286 52/59/287 56/60/288
f 57/51/289 58/52/290 54/57/291
f 54/57/292 53/55/293 57/51/294
f 54/57/295 59/53/296 55/56/297
f 59/53/298 54/57/299 58/52/300
f 59/53/301 60/54/302 56/60/303
f 56/60/304 55/56/305 59/53/306
f 56/60/307 57/51/308 53/55/309
f 57/51/310 56/60/311 60/54/312
f 62/128/313 63/129/314 61/127/315
f 64/130/316 63/131/317 65/132/318
g default
v 95.135200 270.337629 -86.252391
v -125.343168 225.480795 -86.252403
v -113.065255 165.132952 127.110910
v 107.413113 209.989810 127.110910
v 29.610273 212.886810 -27.816987
v -45.404917 192.042434 -29.202777
v -42.833558 176.403248 29.783386
v 32.181633 197.247624 31.169179
v 4.091606 163.181543 -17.628938
v -10.180957 163.181543 -17.628938
v -10.180957 163.181543 -0.836577
v 4.091606 163.181543 -0.836577
v 0.824540 93.502396 -15.336096
v -5.955529 93.502396 -15.336093
v -5.955530 92.895162 -8.342746
v 0.824539 92.895162 -8.342746
v 8.860683 -12.311441 2.163914
v 3.985848 -12.311441 2.122232
v 4.045612 -12.748300 8.260927
v 8.920445 -12.748300 8.302611
vt 1.000000 0.000000
vt 0.000000 0.000000
vt 0.000000 1.000000
vt 1.000000 1.000000
vt 0.648900 0.319855
vt 0.326932 0.313367
vt 0.337968 0.589550
vt 0.659937 0.596038
vt 0.571191 0.364289
vt 0.437879 0.364289
vt 0.430303 0.500000
vt 0.577252 0.500000
vt 0.543532 0.392999
vt 0.468182 0.389731
vt 0.468182 0.461691
vt 0.543939 0.460057
vt 0.524994 0.416113
vt 0.492424 0.409382
vt 0.501297 0.438124
vt 0.523735 0.439953
vn -0.045292 0.993663 0.102871
vn -0.330316 0.934756 0.130853
vn -0.445502 0.894535 0.036549
vn -0.445502 0.894535 0.036549
vn 0.050806 0.998599 0.014768
vn -0.045292 0.993663 0.102871
vn -0.330316 0.934756 0.130853
vn -0.358471 0.826010 0.434978
vn -0.450628 0.757904 0.471715
vn -0.450628 0.757904 0.471715
vn -0.445502 0.894535 0.036549
vn -0.330316 0.934756 0.130853
vn -0.358471 0.826010 0.434978
vn 0.035611 0.885105 0.464027
vn 0.110058 0.849228 0.516429
vn 0.110058 0.849228 0.516429
vn -0.450628 0.757904 0.471715
vn -0.358471 0.826010 0.434978
vn 0.035611 0.885105 0.464027
vn -0.045292 0.993663 0.102871
vn 0.050806 0.998599 0.014768
vn 0.050806 0.998599 0.014768
vn 0.110058 0.849228 0.516429
vn 0.035611 0.885105 0.464027
vn 0.050806 0.998599 0.014768
vn -0.445502 0.894535 0.036549
vn -0.181398 0.977916 0.103802
vn -0.181398 0.977916 0.103802
vn -0.036333 0.975983 0.214793
vn 0.050806 0.998599 0.014768
vn -0.445502 0.894535 0.036549
vn -0.450628 0.757904 0.471715
vn 0.054370 0.887940 0.456735
vn 0.054370 0.887940 0.456735
vn -0.181398 0.977916 0.103802
vn -0.445502 0.894535 0.036549
vn -0.450628 0.757904 0.471715
vn 0.110058 0.849228 0.516429
vn -0.248691 0.883631 0.396672
vn -0.248691 0.883631 0.396672
vn 0.054370 0.887940 0.456735
vn -0.450628 0.757904 0.471715
vn 0.110058 0.849228 0.516429
vn 0.050806 0.998599 0.014768
vn -0.036333 0.975983 0.214793
vn -0.036333 0.975983 0.214793
vn -0.248691 0.883631 0.396672
vn 0.110058 0.849228 0.516429
vn -0.181398 0.977916 0.103802
vn -0.036333 0.975983 0.214793
vn 0.723283 0.032065 0.689807
vn -0.741836 -0.046530 0.668965
vn 0.723283 0.032065 0.689807
vn -0.036333 0.975983 0.214793
vn 0.054370 0.887940 0.456735
vn -0.181398 0.977916 0.103802
vn 0.678874 -0.067202 -0.731173
vn 0.723283 0.032065 0.689807
vn 0.678874 -0.067202 -0.731173
vn -0.181398 0.977916 0.103802
vn -0.248691 0.883631 0.396672
vn 0.054370 0.887940 0.456735
vn -0.689737 -0.120149 -0.714021
vn 0.678874 -0.067202 -0.731173
vn -0.689737 -0.120149 -0.714021
vn 0.054370 0.887940 0.456735
vn -0.036333 0.975983 0.214793
vn -0.248691 0.883631 0.396672
vn -0.741836 -0.046530 0.668965
vn -0.689737 -0.120149 -0.714021
vn -0.741836 -0.046530 0.668965
vn -0.248691 0.883631 0.396672
vn 0.723283 0.032065 0.689807
vn -0.741836 -0.046530 0.668965
vn 0.660917 0.165592 0.731961
vn -0.632923 0.061817 0.771743
vn 0.660917 0.165592 0.731961
vn -0.741836 -0.046530 0.668965
vn 0.678874 -0.067202 -0.731173
vn 0.723283 0.032065 0.689807
vn 0.773531 -0.045265 -0.632139
vn 0.660917 0.165592 0.731961
vn 0.773531 -0.045265 -0.632139
vn 0.723283 0.032065 0.689807
vn -0.689737 -0.120149 -0.714021
vn 0.678874 -0.067202 -0.731173
vn -0.725019 -0.178232 -0.665267
vn 0.773531 -0.045265 -0.632139
vn -0.725019 -0.178232 -0.665267
vn 0.678874 -0.067202 -0.731173
vn -0.741836 -0.046530 0.668965
vn -0.689737 -0.120149 -0.714021
vn -0.632923 0.061817 0.771743
vn -0.725019 -0.178232 -0.665267
vn -0.632923 0.061817 0.771743
vn -0.689737 -0.120149 -0.714021
s off
g TR_S3_Trumpet_A_X
usemtl TR_S3_Trumpet_A_XSG
f 68/181/319 69/182/320 73/186/321
f 73/186/322 72/185/323 68/181/324
f 69/182/325 66/179/326 70/183/327
f 70/183/328 73/186/329 69/182/330
f 66/179/331 67/180/332 71/184/333
f 71/184/334 70/183/335 66/179/336
f 67/180/337 68/181/338 72/185/339
f 72/185/340 71/184/341 67/180/342
f 72/185/343 73/186/344 77/190/345
f 77/190/346 76/189/347 72/185/348
f 73/186/349 70/183/350 74/187/351
f 74/187/352 77/190/353 73/186/354
f 70/183/355 71/184/356 75/188/357
f 75/188/358 74/187/359 70/183/360
f 71/184/361 72/185/362 76/189/363
f 76/189/364 75/188/365 71/184/366
f 77/190/367 76/189/368 81/194/369
f 80/193/370 81/194/371 76/189/372
f 74/187/373 77/190/374 78/191/375
f 81/194/376 78/191/377 77/190/378
f 75/188/379 74/187/380 79/192/381
f 78/191/382 79/192/383 74/187/384
f 76/189/385 75/188/386 80/193/387
f 79/192/388 80/193/389 75/188/390
f 81/194/391 80/193/392 85/198/393
f 84/197/394 85/198/395 80/193/396
f 78/191/397 81/194/398 82/195/399
f 85/198/400 82/195/401 81/194/402
f 79/192/403 78/191/404 83/196/405
f 82/195/406 83/196/407 78/191/408
f 80/193/409 79/192/410 84/197/411
f 83/196/412 84/197/413 79/192/414
