# This file uses meters as units for non-parametric coordinates.

mtllib fy_hof_skel_cheveux.max.fobj.mtl
g default
v -12.775445 151.158277 -10.476320
v -9.754908 149.823522 -11.099958
v -6.786394 160.517338 -1.499793
v -3.765857 159.182584 -2.123431
v -13.172534 149.164752 -8.132907
v -10.151997 147.829998 -8.756545
v -7.183484 158.523814 0.843620
v -4.162947 157.189060 0.219982
vn 0.128004 0.642624 -0.755413
vn 0.128004 0.642624 -0.755413
vn 0.128004 0.642624 -0.755413
vn 0.128004 0.642624 -0.755413
vn -0.128004 -0.642624 0.755413
vn -0.128004 -0.642624 0.755413
vn -0.128004 -0.642624 0.755413
vn -0.128004 -0.642624 0.755413
vn -0.419278 -0.655203 -0.628423
vn -0.419278 -0.655203 -0.628423
vn -0.419278 -0.655203 -0.628423
vn -0.419278 -0.655203 -0.628423
vn 0.898789 -0.397168 -0.185569
vn 0.898789 -0.397168 -0.185569
vn 0.898789 -0.397168 -0.185569
vn 0.898789 -0.397168 -0.185569
vn 0.419278 0.655203 0.628423
vn 0.419278 0.655203 0.628423
vn 0.419278 0.655203 0.628423
vn 0.419278 0.655203 0.628423
vn -0.898789 0.397168 0.185569
vn -0.898789 0.397168 0.185569
vn -0.898789 0.397168 0.185569
vn -0.898789 0.397168 0.185569
s off
g initialShadingGroup cheveux_dr
f 1//1 3//2 4//3 2//4
f 5//5 6//6 8//7 7//8
f 1//9 2//10 6//11 5//12
f 2//13 4//14 8//15 6//16
f 4//17 3//18 7//19 8//20
f 3//21 1//22 5//23 7//24
g default
v 10.019530 149.783843 -11.113578
v 13.052252 151.099322 -10.508394
v 4.142772 159.192076 -2.114264
v 7.175493 160.507555 -1.509079
v 10.416613 147.790318 -8.770165
v 13.449335 149.105797 -8.164981
v 4.539855 157.198551 0.229149
v 7.572577 158.514030 0.834334
vn -0.128002 0.642625 -0.755413
vn -0.128002 0.642625 -0.755413
vn -0.128002 0.642625 -0.755413
vn -0.128002 0.642625 -0.755413
vn 0.128002 -0.642625 0.755413
vn 0.128002 -0.642625 0.755413
vn 0.128002 -0.642625 0.755413
vn 0.128002 -0.642625 0.755413
vn 0.411416 -0.658645 -0.630018
vn 0.411416 -0.658645 -0.630018
vn 0.411416 -0.658645 -0.630018
vn 0.411416 -0.658645 -0.630018
vn 0.902415 0.391433 0.180078
vn 0.902415 0.391433 0.180078
vn 0.902415 0.391433 0.180078
vn 0.902415 0.391433 0.180078
vn -0.411416 0.658645 0.630018
vn -0.411416 0.658645 0.630018
vn -0.411416 0.658645 0.630018
vn -0.411416 0.658645 0.630018
vn -0.902415 -0.391433 -0.180078
vn -0.902415 -0.391433 -0.180078
vn -0.902415 -0.391433 -0.180078
vn -0.902415 -0.391433 -0.180078
s off
g initialShadingGroup cheveux_go
f 9//25 11//26 12//27 10//28
f 13//29 14//30 16//31 15//32
f 9//33 10//34 14//35 13//36
f 10//37 12//38 16//39 14//40
f 12//41 11//42 15//43 16//44
f 11//45 9//46 13//47 15//48
g default
v 42.700729 99.435674 -4.891201
v 46.552091 101.749858 -4.887645
v 31.897365 117.415932 -5.440210
v 35.748727 119.730116 -5.436654
v 42.593889 99.601887 2.654711
v 46.445251 101.916071 2.658268
v 31.790524 117.582145 2.105703
v 35.641887 119.896328 2.109258
vn 0.014154 -0.022019 -0.999657
vn 0.014154 -0.022019 -0.999657
vn 0.014154 -0.022019 -0.999657
vn 0.014154 -0.022019 -0.999657
vn 0.014154 -0.022019 -0.999657
vn 0.014154 -0.022019 -0.999657
vn -0.014154 0.022019 0.999657
vn -0.014154 0.022019 0.999657
vn -0.014154 0.022019 0.999657
vn -0.014154 0.022019 0.999657
vn -0.014154 0.022019 0.999657
vn -0.014154 0.022019 0.999657
vn 0.514852 -0.856879 0.026164
vn 0.514852 -0.856880 0.026164
vn 0.514852 -0.856879 0.026164
vn 0.514852 -0.856879 0.026164
vn 0.514852 -0.856879 0.026164
vn 0.514852 -0.856879 0.026164
vn 0.857162 0.515046 0.000791
vn 0.857162 0.515046 0.000791
vn 0.857162 0.515046 0.000791
vn 0.857162 0.515046 0.000791
vn 0.857162 0.515046 0.000791
vn 0.857162 0.515046 0.000791
vn -0.514852 0.856879 -0.026164
vn -0.514852 0.856880 -0.026164
vn -0.514852 0.856880 -0.026164
vn -0.514852 0.856880 -0.026164
vn -0.514852 0.856880 -0.026164
vn -0.514852 0.856879 -0.026164
vn -0.857162 -0.515046 -0.000791
vn -0.857162 -0.515046 -0.000791
vn -0.857162 -0.515046 -0.000791
vn -0.857162 -0.515046 -0.000791
vn -0.857162 -0.515046 -0.000791
vn -0.857162 -0.515046 -0.000791
s off
g initialShadingGroup Box_bouclier
f 17//49 19//50 20//51
f 20//52 18//53 17//54
f 21//55 22//56 24//57
f 24//58 23//59 21//60
f 17//61 18//62 22//63
f 22//64 21//65 17//66
f 18//67 20//68 24//69
f 24//70 22//71 18//72
f 20//73 19//74 23//75
f 23//76 24//77 20//78
f 19//79 17//80 21//81
f 21//82 23//83 19//84
g default
v 41.617356 92.127555 4.348455
v 38.715464 89.940985 4.356594
v 39.466613 94.981551 4.255207
v 36.564722 92.794982 4.263346
v 41.791227 91.850284 -8.148135
v 38.889335 89.663714 -8.139995
v 39.640484 94.704280 -8.241382
v 36.738593 92.517711 -8.233242
vn -0.013909 0.022180 0.999657
vn -0.013909 0.022180 0.999657
vn -0.013909 0.022180 0.999657
vn -0.013909 0.022180 0.999657
vn -0.013909 0.022180 0.999657
vn -0.013909 0.022180 0.999657
vn 0.013908 -0.022180 -0.999657
vn 0.013908 -0.022180 -0.999657
vn 0.013908 -0.022180 -0.999657
vn 0.013908 -0.022180 -0.999657
vn 0.013908 -0.022180 -0.999657
vn 0.013908 -0.022180 -0.999657
vn 0.601628 -0.798350 0.026084
vn 0.601628 -0.798350 0.026084
vn 0.601628 -0.798350 0.026084
vn 0.601628 -0.798350 0.026084
vn 0.601628 -0.798350 0.026084
vn 0.601628 -0.798350 0.026084
vn -0.798655 -0.601785 0.002240
vn -0.798655 -0.601785 0.002240
vn -0.798655 -0.601785 0.002240
vn -0.798655 -0.601785 0.002240
vn -0.798655 -0.601785 0.002240
vn -0.798655 -0.601785 0.002240
vn -0.601628 0.798350 -0.026084
vn -0.601628 0.798350 -0.026084
vn -0.601628 0.798350 -0.026084
vn -0.601628 0.798350 -0.026084
vn -0.601628 0.798350 -0.026084
vn -0.601628 0.798350 -0.026084
vn 0.798655 0.601785 -0.002240
vn 0.798655 0.601785 -0.002240
vn 0.798655 0.601785 -0.002240
vn 0.798655 0.601785 -0.002240
vn 0.798655 0.601785 -0.002240
vn 0.798655 0.601785 -0.002240
s off
g initialShadingGroup box_arme_gauche
f 25//85 27//86 28//87
f 28//88 26//89 25//90
f 29//91 30//92 32//93
f 32//94 31//95 29//96
f 25//97 26//98 30//99
f 30//100 29//101 25//102
f 26//103 28//104 32//105
f 32//106 30//107 26//108
f 28//109 27//110 31//111
f 31//112 32//113 28//114
f 27//115 25//116 29//117
f 29//118 31//119 27//120
g default
v -42.097630 92.790714 -7.165808
v -39.195745 90.604136 -7.157668
v -39.946879 95.644704 -7.259055
v -37.044994 93.458125 -7.250916
v -41.923756 93.067982 5.330782
v -39.021872 90.881403 5.338921
v -39.773005 95.921971 5.237533
v -36.871121 93.735393 5.245672
vn -0.013909 -0.022180 -0.999657
vn -0.013909 -0.022180 -0.999657
vn -0.013909 -0.022180 -0.999657
vn -0.013909 -0.022180 -0.999657
vn -0.013909 -0.022180 -0.999657
vn -0.013909 -0.022180 -0.999657
vn 0.013909 0.022180 0.999657
vn 0.013909 0.022180 0.999657
vn 0.013909 0.022180 0.999657
vn 0.013909 0.022180 0.999657
vn 0.013909 0.022180 0.999657
vn 0.013909 0.022180 0.999657
vn -0.601631 -0.798348 0.026084
vn -0.601631 -0.798348 0.026084
vn -0.601631 -0.798348 0.026084
vn -0.601631 -0.798348 0.026084
vn -0.601631 -0.798348 0.026084
vn -0.601631 -0.798348 0.026084
vn 0.798653 -0.601788 0.002240
vn 0.798653 -0.601788 0.002240
vn 0.798653 -0.601787 0.002240
vn 0.798653 -0.601787 0.002240
vn 0.798653 -0.601788 0.002240
vn 0.798653 -0.601788 0.002240
vn 0.601631 0.798348 -0.026084
vn 0.601631 0.798348 -0.026084
vn 0.601631 0.798348 -0.026084
vn 0.601631 0.798348 -0.026084
vn 0.601631 0.798348 -0.026084
vn 0.601631 0.798348 -0.026084
vn -0.798653 0.601787 -0.002240
vn -0.798653 0.601787 -0.002240
vn -0.798653 0.601788 -0.002240
vn -0.798653 0.601788 -0.002240
vn -0.798653 0.601787 -0.002240
vn -0.798653 0.601787 -0.002240
s off
g initialShadingGroup box_arme
f 33//121 35//122 36//123
f 36//124 34//125 33//126
f 37//127 38//128 40//129
f 40//130 39//131 37//132
f 33//133 34//134 38//135
f 38//136 37//137 33//138
f 34//139 36//140 40//141
f 40//142 38//143 34//144
f 36//145 35//146 39//147
f 39//148 40//149 36//150
f 35//151 33//152 37//153
f 37//154 39//155 35//156
