# This file uses meters as units for non-parametric coordinates.

mtllib ma_lampadaire_blue.max.fobj.mtl
g default
v -0.008892 624.422937 188.030410
v -8.698142 617.452913 193.232083
v -0.008892 611.480098 198.004699
v 8.852429 617.453008 193.232083
v 19.535232 -11.486232 -11.112100
v -0.008892 230.735283 -5.314362
v 11.986051 230.371743 1.120472
v 0.090982 -11.484745 -25.040132
v -19.258858 -11.486232 -12.366414
v -18.653003 -11.486870 15.231785
v -12.673513 230.394511 16.858220
v -11.831835 230.371743 1.120478
v 18.814925 -11.486870 14.552554
v 12.827716 230.394511 16.858223
v -0.008892 230.058127 24.871540
v 0.090911 -11.488499 25.370431
v -8.405052 369.860106 22.472951
v -0.008892 370.793729 17.978364
v -9.004533 368.219261 33.561477
v 8.559257 369.860106 22.472951
v 9.158736 368.219261 33.561465
v -0.008892 367.138701 39.170927
v -8.698178 483.160930 70.754039
v -0.008892 487.544351 63.242483
v -0.008892 479.527622 77.481079
v 8.852392 483.160930 70.754039
v -0.008892 609.208064 252.811718
v -0.008892 622.609000 268.648839
v -30.706311 644.278007 237.546682
v -0.008892 602.957063 214.252853
v 28.424068 644.593148 237.411714
v -0.008892 659.157663 227.434802
v -0.008892 654.285531 284.494281
v -0.008892 661.285215 255.964541
v -0.008892 646.353917 207.732606
v -0.008892 603.672128 234.713578
v 11.390541 -5.385665 -26.620281
v -22.346527 -5.383061 -15.660638
v -18.354879 -5.385667 18.255061
v 10.408888 36.046823 -32.921410
v -23.868644 33.508425 -16.593391
v -24.249645 35.904636 21.419904
v 5.061770 76.377832 -34.025037
v -27.228833 67.901759 -18.652517
v -27.680940 75.614290 16.045398
v -16.190990 123.475139 -35.386485
v -37.436033 115.732925 -24.907500
v -38.220800 122.821253 -1.479268
v -61.403475 154.162770 -39.594775
v -24.108400 -5.384367 1.834136
v -6.558605 -5.384366 -24.642313
v 24.444572 22.092929 16.937560
v -2.925623 24.695816 29.440859
v 8.681588 -5.384182 25.767002
v 22.828286 -5.383246 15.943626
v 24.183186 24.550064 -13.214701
v 26.028161 -5.384181 -0.517827
v 19.050487 -5.385116 -13.270015
v 29.255902 53.990417 19.885945
v 4.922111 59.842550 32.545874
v 30.509125 59.315371 -6.772500
v 43.708335 81.955343 28.742409
v 27.585303 87.204551 37.288663
v 44.815158 86.761217 10.671788
v 61.764338 97.937643 39.807141
v -6.505788 -5.385117 25.006574
v -20.666220 649.281793 261.646342
v 18.793414 649.439340 261.482430
v -0.008892 569.516473 121.002626
v 8.852409 563.557248 127.095163
v -0.008892 558.498292 132.621205
v -8.698161 563.557248 127.095187
v -0.008892 239.718681 277.936792
v -0.008892 209.159570 106.398475
v -0.008893 701.947933 155.706680
v -0.008892 225.089174 -71.112341
vt 1.076404 1.551624
vt 0.594599 1.563013
vt 0.508258 2.498046
vt 0.794279 0.197405
vt 0.794383 0.226332
vt 0.880675 0.249533
vt 0.791770 0.104850
vt 0.792331 0.138778
vt 0.217209 0.037422
vt 0.245456 0.150766
vt 0.163993 0.032960
vt 0.703616 0.097151
vt 0.706356 0.244886
vt 0.090075 0.162668
vt 0.166489 0.119746
vt 0.879958 0.092718
vt 0.100633 0.034591
vt 0.155697 0.260918
vt 0.793046 0.336227
vt 0.145688 0.999500
vt 1.000000 1.000000
vt 1.000000 0.000000
vt 0.145379 -0.002303
vt 0.303791 -0.002310
vt 0.502644 -0.002314
vt 0.466401 0.997787
vt 0.287671 0.997673
vt 0.790614 -0.002314
vt 0.823164 0.997787
vt 0.644395 0.998917
vt 0.644783 -0.002322
vt 0.000000 1.000000
vt 0.000000 0.000000
vt 0.000000 0.000000
vt 1.143706 1.000000
vt 0.286271 0.998351
vt 0.318955 2.000000
vt 1.143706 2.001175
vt 0.464669 1.000000
vt 0.477038 2.000000
vt 0.822881 0.998454
vt 1.001139 0.998351
vt 1.000000 2.000000
vt 0.790252 2.000073
vt 0.643705 1.000000
vt 0.643705 2.000000
vt 0.143705 1.000000
vt 0.143705 2.000000
vt 0.143705 1.000000
vt 1.144078 2.000757
vt 0.318284 2.000000
vt 0.333333 3.000000
vt 1.146891 3.000000
vt 0.477612 2.000000
vt 0.666667 3.000000
vt 0.789759 2.000000
vt 1.000000 2.000000
vt 1.000000 3.000000
vt 0.644078 2.000000
vt 0.145078 2.000000
vt 0.144079 2.001941
vt 0.151532 3.000003
vt 0.333333 3.000000
vt 0.412732 4.000000
vt 1.151532 4.000000
vt 0.666667 3.000000
vt 0.655169 4.000000
vt 1.000000 3.000000
vt 0.879922 4.000000
vt 0.151532 4.000000
vt 0.000000 3.000000
vt 0.151532 4.000000
vt 0.151544 3.000000
vt 0.666667 3.000000
vt 0.644078 2.000000
vt 0.161093 0.190332
vt 0.165241 0.076353
vt 0.793305 0.168091
vt 0.000000 0.000000
vt 1.000000 0.000000
vt 0.508846 0.970818
vt 0.500521 0.240597
vt 0.034966 0.253349
vt 0.500521 0.000000
vt 0.973359 0.244229
vt 0.500521 0.466975
vt 0.075374 0.510732
vt 0.926740 0.505260
vt 0.505516 0.793749
vt 0.245451 0.791909
vt 0.866147 0.797381
vt 0.750260 0.000000
vt 0.250260 0.000000
vt 0.500521 0.240597
vt 0.034966 0.253349
vt 0.250260 0.000000
vt 0.500521 0.000000
vt 0.973359 0.244229
vt 0.750260 0.000000
vt 1.000000 0.000000
vt 0.500521 0.466975
vt 0.075374 0.510732
vt 0.926740 0.505260
vt 0.505516 0.793749
vt 0.245451 0.791909
vt 0.866147 0.797381
vt 0.508846 0.970818
vt 0.000000 0.000000
vt 0.836861 0.292880
vt 0.200576 0.205842
vt 0.749701 0.290557
vt 0.122886 0.211793
vt 0.151532 3.500002
vt 0.151532 3.500002
vt 0.939961 3.500000
vt 0.660918 3.500000
vt 0.373033 3.500000
vt -0.060039 3.500000
vt 1.151532 3.500002
vt 1.344731 0.125693
vt 0.042144 0.095599
vt 0.697299 0.036969
vt 0.432629 1.244362
vt 0.594599 1.563013
vn -0.010363 0.943502 -0.331205
vn -0.823658 0.333730 0.458488
vn -0.009093 -0.521257 0.853352
vn 0.015162 0.610343 0.791993
vn 0.015162 0.610343 0.791993
vn 0.015162 0.610343 0.791993
vn -0.002277 0.116596 -0.993177
vn 0.836456 0.076085 -0.542727
vn 0.889357 0.054690 -0.453931
vn 0.889357 0.054690 -0.453931
vn 0.020348 0.081160 -0.996493
vn -0.002277 0.116596 -0.993177
vn -0.877330 0.053386 -0.476910
vn -0.856975 0.015400 0.515128
vn -0.895671 -0.002344 0.444712
vn -0.895671 -0.002344 0.444712
vn -0.837579 0.079546 -0.540493
vn -0.877330 0.053386 -0.476910
vn 0.863304 0.018350 0.504351
vn 0.889357 0.054690 -0.453931
vn 0.836456 0.076085 -0.542727
vn 0.836456 0.076085 -0.542727
vn 0.894756 -0.005563 0.446521
vn 0.863304 0.018350 0.504351
vn -0.002712 -0.048564 0.998816
vn 0.863304 0.018350 0.504351
vn 0.894756 -0.005563 0.446521
vn 0.863304 0.018350 0.504351
vn -0.002712 -0.048564 0.998816
vn 0.014154 0.002071 0.999898
vn -0.856975 0.015400 0.515128
vn 0.014154 0.002071 0.999898
vn -0.002712 -0.048564 0.998816
vn -0.002712 -0.048564 0.998816
vn -0.895671 -0.002344 0.444712
vn -0.856975 0.015400 0.515128
vn 0.020348 0.081160 -0.996493
vn -0.877330 0.053386 -0.476910
vn -0.002277 0.116596 -0.993177
vn -0.837579 0.079546 -0.540493
vn -0.002277 0.116596 -0.993177
vn -0.877330 0.053386 -0.476910
vn -0.002277 0.116596 -0.993177
vn -0.837579 0.079546 -0.540493
vn -0.826526 0.164078 -0.538455
vn -0.826526 0.164078 -0.538455
vn -0.008159 0.269188 -0.963053
vn -0.002277 0.116596 -0.993177
vn -0.837579 0.079546 -0.540493
vn -0.895671 -0.002344 0.444712
vn -0.901938 -0.083124 0.423790
vn -0.901938 -0.083124 0.423790
vn -0.826526 0.164078 -0.538455
vn -0.837579 0.079546 -0.540493
vn 0.894756 -0.005563 0.446521
vn 0.836456 0.076085 -0.542727
vn 0.826599 0.156038 -0.540727
vn 0.826599 0.156038 -0.540727
vn 0.900130 -0.083789 0.427487
vn 0.894756 -0.005563 0.446521
vn 0.836456 0.076085 -0.542727
vn -0.002277 0.116596 -0.993177
vn -0.008159 0.269188 -0.963053
vn -0.008159 0.269188 -0.963053
vn 0.826599 0.156038 -0.540727
vn 0.836456 0.076085 -0.542727
vn -0.002712 -0.048564 0.998816
vn 0.894756 -0.005563 0.446521
vn 0.900130 -0.083789 0.427487
vn 0.900130 -0.083789 0.427487
vn -0.004431 -0.215551 0.976483
vn -0.002712 -0.048564 0.998816
vn -0.895671 -0.002344 0.444712
vn -0.002712 -0.048564 0.998816
vn -0.004431 -0.215551 0.976483
vn -0.004431 -0.215551 0.976483
vn -0.901938 -0.083124 0.423790
vn -0.895671 -0.002344 0.444712
vn -0.008159 0.269188 -0.963053
vn -0.826526 0.164078 -0.538455
vn -0.999386 0.027740 -0.021414
vn -0.999386 0.027740 -0.021414
vn -0.007808 0.479821 -0.877332
vn -0.008159 0.269188 -0.963053
vn -0.999386 0.027740 -0.021414
vn -0.901938 -0.083124 0.423790
vn -0.005400 -0.442786 0.896611
vn -0.901938 -0.083124 0.423790
vn -0.999386 0.027740 -0.021414
vn -0.826526 0.164078 -0.538455
vn 0.900130 -0.083789 0.427487
vn 0.826599 0.156038 -0.540727
vn 0.999312 0.033808 -0.015259
vn 0.999312 0.033808 -0.015259
vn -0.005400 -0.442786 0.896611
vn 0.900130 -0.083789 0.427487
vn 0.826599 0.156038 -0.540727
vn -0.008159 0.269188 -0.963053
vn -0.007808 0.479821 -0.877332
vn -0.007808 0.479821 -0.877332
vn 0.999312 0.033808 -0.015259
vn 0.826599 0.156038 -0.540727
vn -0.004431 -0.215551 0.976483
vn 0.900130 -0.083789 0.427487
vn -0.005400 -0.442786 0.896611
vn -0.901938 -0.083124 0.423790
vn -0.004431 -0.215551 0.976483
vn -0.005400 -0.442786 0.896611
vn -0.004901 0.681622 -0.731688
vn -0.999386 0.027740 -0.021414
vn -0.999457 0.021435 -0.025027
vn -0.823658 0.333730 0.458488
vn -0.010363 0.943502 -0.331205
vn -0.004901 0.681622 -0.731688
vn -0.999386 0.027740 -0.021414
vn -0.005400 -0.442786 0.896611
vn -0.004999 -0.681583 0.731724
vn -0.004999 -0.681583 0.731724
vn -0.999457 0.021435 -0.025027
vn -0.999386 0.027740 -0.021414
vn -0.004999 -0.681583 0.731724
vn 0.999449 0.021833 -0.024995
vn 0.999797 -0.016459 0.011613
vn 0.999449 0.021833 -0.024995
vn -0.004999 -0.681583 0.731724
vn -0.005400 -0.442786 0.896611
vn 0.999449 0.021833 -0.024995
vn -0.004901 0.681622 -0.731688
vn -0.010363 0.943502 -0.331205
vn -0.010363 0.943502 -0.331205
vn 0.999797 -0.016459 0.011613
vn 0.999449 0.021833 -0.024995
vn 0.018857 -0.881381 0.472029
vn 0.021216 -0.659341 0.751544
vn -0.796778 -0.561981 0.222085
vn -0.796778 -0.561981 0.222085
vn 0.011376 -0.997874 -0.064178
vn 0.016598 -0.967015 -0.254178
vn -0.688917 0.415710 -0.593783
vn -0.545904 0.792447 -0.272061
vn 0.004897 0.623705 -0.781644
vn 0.618052 -0.761780 0.194174
vn 0.819174 -0.531289 0.216069
vn 0.011376 -0.997874 -0.064178
vn 0.018857 -0.881381 0.472029
vn 0.819174 -0.531289 0.216069
vn 0.021216 -0.659341 0.751544
vn 0.566535 0.780387 -0.264639
vn 0.004897 0.623705 -0.781644
vn 0.014473 0.732156 -0.680983
vn 0.014473 0.732156 -0.680983
vn 0.004897 0.623705 -0.781644
vn -0.545904 0.792447 -0.272061
vn 0.011376 -0.997874 -0.064178
vn -0.796778 -0.561981 0.222085
vn -0.617276 -0.770355 0.159761
vn 0.016598 -0.967015 -0.254178
vn 0.011376 -0.997874 -0.064178
vn 0.819174 -0.531289 0.216069
vn 0.004897 0.623705 -0.781644
vn 0.566535 0.780387 -0.264639
vn 0.686737 0.442966 -0.576345
vn -0.479683 0.871942 0.098087
vn 0.014586 0.996560 0.081578
vn -0.545904 0.792447 -0.272061
vn 0.507396 0.855078 0.106729
vn 0.014586 0.996560 0.081578
vn 0.003256 0.971191 0.238279
vn 0.021216 -0.659341 0.751544
vn 0.764998 -0.401623 0.503465
vn 0.019047 -0.447295 0.894184
vn 0.021216 -0.659341 0.751544
vn -0.735234 -0.432377 0.521997
vn -0.796778 -0.561981 0.222085
vn 0.018857 -0.881381 0.472029
vn 0.019081 -0.988351 0.150992
vn 0.819174 -0.531289 0.216069
vn -0.796778 -0.561981 0.222085
vn 0.019081 -0.988351 0.150992
vn 0.018857 -0.881381 0.472029
vn 0.566535 0.780387 -0.264639
vn 0.011536 0.940954 -0.338337
vn 0.014586 0.996560 0.081578
vn 0.014586 0.996560 0.081578
vn 0.011536 0.940954 -0.338337
vn -0.545904 0.792447 -0.272061
vn 0.011536 0.940954 -0.338337
vn 0.014473 0.732156 -0.680983
vn -0.545904 0.792447 -0.272061
vn 0.566535 0.780387 -0.264639
vn 0.014473 0.732156 -0.680983
vn 0.011536 0.940954 -0.338337
vn -0.796778 -0.561981 0.222085
vn 0.016598 -0.967015 -0.254178
vn 0.019081 -0.988351 0.150992
vn 0.019081 -0.988351 0.150992
vn 0.016598 -0.967015 -0.254178
vn 0.819174 -0.531289 0.216069
vn -0.840493 -0.062821 -0.538169
vn -0.382509 -0.066828 -0.921532
vn -0.340084 -0.072818 -0.937572
vn -0.340084 -0.072818 -0.937572
vn -0.837038 -0.045836 -0.545221
vn -0.840493 -0.062821 -0.538169
vn -0.996917 -0.067269 0.040397
vn -0.840493 -0.062821 -0.538169
vn -0.993903 -0.073479 0.082205
vn -0.993903 -0.073479 0.082205
vn -0.931887 -0.158066 0.326500
vn -0.996917 -0.067269 0.040397
vn -0.829628 -0.168634 -0.532241
vn -0.395247 -0.138600 -0.908058
vn -0.382509 -0.066828 -0.921532
vn -0.382509 -0.066828 -0.921532
vn -0.840493 -0.062821 -0.538169
vn -0.829628 -0.168634 -0.532241
vn -0.989308 -0.144630 0.018755
vn -0.829628 -0.168634 -0.532241
vn -0.996917 -0.067269 0.040397
vn -0.840493 -0.062821 -0.538169
vn -0.996917 -0.067269 0.040397
vn -0.829628 -0.168634 -0.532241
vn -0.761467 -0.416361 -0.496801
vn -0.327762 -0.308997 -0.892801
vn -0.395247 -0.138600 -0.908058
vn -0.395247 -0.138600 -0.908058
vn -0.829628 -0.168634 -0.532241
vn -0.761467 -0.416361 -0.496801
vn -0.943856 -0.323635 0.066302
vn -0.761467 -0.416361 -0.496801
vn -0.989308 -0.144630 0.018755
vn -0.829628 -0.168634 -0.532241
vn -0.989308 -0.144630 0.018755
vn -0.761467 -0.416361 -0.496801
vn -0.327762 -0.308997 -0.892801
vn -0.761467 -0.416361 -0.496801
vn -0.672550 -0.590123 -0.446578
vn -0.761467 -0.416361 -0.496801
vn -0.943856 -0.323635 0.066302
vn -0.672550 -0.590123 -0.446578
vn -0.837038 -0.045836 -0.545221
vn -0.993903 -0.073479 0.082205
vn -0.840493 -0.062821 -0.538169
vn -0.108274 -0.151976 -0.982436
vn -0.340084 -0.072818 -0.937572
vn -0.382509 -0.066828 -0.921532
vn 0.840063 -0.075344 0.537232
vn 0.347825 -0.081502 0.934010
vn 0.299708 -0.060495 0.952111
vn 0.299708 -0.060495 0.952111
vn 0.835368 -0.068869 0.545359
vn 0.840063 -0.075344 0.537232
vn 0.993535 -0.081668 -0.078852
vn 0.840063 -0.075344 0.537232
vn 0.990225 -0.060861 -0.125503
vn 0.990225 -0.060861 -0.125503
vn 0.867619 -0.147885 -0.474728
vn 0.993535 -0.081668 -0.078852
vn 0.784488 -0.359976 0.504971
vn 0.382560 -0.289939 0.877259
vn 0.347825 -0.081502 0.934010
vn 0.347825 -0.081502 0.934010
vn 0.840063 -0.075344 0.537232
vn 0.784488 -0.359976 0.504971
vn 0.953631 -0.300464 -0.017586
vn 0.784488 -0.359976 0.504971
vn 0.993535 -0.081668 -0.078852
vn 0.840063 -0.075344 0.537232
vn 0.993535 -0.081668 -0.078852
vn 0.784488 -0.359976 0.504971
vn 0.613961 -0.677537 0.404964
vn 0.273611 -0.498673 0.822474
vn 0.382560 -0.289939 0.877259
vn 0.382560 -0.289939 0.877259
vn 0.784488 -0.359976 0.504971
vn 0.613961 -0.677537 0.404964
vn 0.849830 -0.519955 -0.086230
vn 0.613961 -0.677537 0.404964
vn 0.953631 -0.300464 -0.017586
vn 0.784488 -0.359976 0.504971
vn 0.953631 -0.300464 -0.017586
vn 0.613961 -0.677537 0.404964
vn 0.273611 -0.498673 0.822474
vn 0.613961 -0.677537 0.404964
vn 0.501652 -0.797984 0.334015
vn 0.613961 -0.677537 0.404964
vn 0.849830 -0.519955 -0.086230
vn 0.501652 -0.797984 0.334015
vn 0.835368 -0.068869 0.545359
vn 0.990225 -0.060861 -0.125503
vn 0.840063 -0.075344 0.537232
vn -0.049507 -0.139888 0.988929
vn 0.299708 -0.060495 0.952111
vn 0.347825 -0.081502 0.934010
vn 0.021216 -0.659341 0.751544
vn 0.019047 -0.447295 0.894184
vn -0.735234 -0.432377 0.521997
vn 0.003256 0.971191 0.238279
vn 0.014586 0.996560 0.081578
vn -0.479683 0.871942 0.098087
vn 0.021216 -0.659341 0.751544
vn 0.819174 -0.531289 0.216069
vn 0.764998 -0.401623 0.503465
vn 0.566535 0.780387 -0.264639
vn 0.014586 0.996560 0.081578
vn 0.507396 0.855078 0.106729
vn 0.999312 0.033808 -0.015259
vn -0.007808 0.479821 -0.877332
vn -0.004901 0.681622 -0.731688
vn -0.999386 0.027740 -0.021414
vn -0.004901 0.681622 -0.731688
vn -0.007808 0.479821 -0.877332
vn -0.005400 -0.442786 0.896611
vn 0.999312 0.033808 -0.015259
vn 0.999449 0.021833 -0.024995
vn -0.004901 0.681622 -0.731688
vn 0.999449 0.021833 -0.024995
vn 0.999312 0.033808 -0.015259
vn 0.999797 -0.016459 0.011613
vn -0.009093 -0.521257 0.853352
vn -0.004999 -0.681583 0.731724
vn -0.999457 0.021435 -0.025027
vn -0.004999 -0.681583 0.731724
vn -0.009093 -0.521257 0.853352
vn -0.009093 -0.521257 0.853352
vn -0.823658 0.333730 0.458488
vn -0.999457 0.021435 -0.025027
vn -0.004901 0.681622 -0.731688
vn -0.999457 0.021435 -0.025027
vn -0.823658 0.333730 0.458488
vn 1.000000 0.000000 -0.000000
vn 1.000000 0.000000 -0.000000
vn 1.000000 0.000000 -0.000000
vn 1.000000 0.000000 0.000000
vn 1.000000 0.000000 -0.000000
vn 1.000000 0.000000 -0.000000
s off
g ma_lampadaire_blue
usemtl ma_lampadaire_blueSG
f 1/1/1 2/2/2 3/3/3
f 3/3/4 4/124/5 1/1/6
f 6/20/7 7/32/8 5/33/9
f 5/34/10 8/23/11 6/20/12
f 9/24/13 10/25/14 11/26/15
f 11/26/16 12/27/17 9/24/18
f 13/28/19 5/22/20 7/21/21
f 7/21/22 14/29/23 13/28/24
f 15/30/25 13/28/26 14/29/27
f 13/28/28 15/30/29 16/31/30
f 10/25/31 16/31/32 15/30/33
f 15/30/34 11/26/35 10/25/36
f 8/23/37 9/24/38 6/20/39
f 12/27/40 6/20/41 9/24/42
f 6/47/43 12/36/44 17/37/45
f 17/37/46 18/48/47 6/49/48
f 12/36/49 11/39/50 19/40/51
f 19/40/52 17/37/53 12/36/54
f 14/41/55 7/42/56 20/43/57
f 20/43/58 21/44/59 14/41/60
f 7/42/61 6/35/62 18/38/63
f 18/38/64 20/43/65 7/42/66
f 15/45/67 14/41/68 21/44/69
f 21/44/70 22/46/71 15/45/72
f 11/39/73 15/45/74 22/46/75
f 22/46/76 19/40/77 11/39/78
f 18/60/79 17/51/80 23/52/81
f 23/52/82 24/73/83 18/61/84
f 23/52/85 19/54/86 25/74/87
f 19/54/88 23/52/89 17/51/90
f 21/56/91 20/57/92 26/58/93
f 26/58/94 25/55/95 21/56/96
f 20/57/97 18/50/98 24/53/99
f 24/53/100 26/58/101 20/57/102
f 22/59/103 21/56/104 25/55/105
f 19/54/106 22/75/107 25/74/108
f 69/114/109 23/63/110 72/117/111
f 2/64/112 1/70/113 69/114/114
f 23/63/115 25/66/116 71/116/117
f 71/116/118 72/117/119 23/63/120
f 71/116/121 70/115/122 4/69/123
f 70/115/124 71/116/125 25/66/126
f 70/118/127 69/113/128 1/72/129
f 1/65/130 4/69/131 70/115/132
usemtl ma_lampadaire_blueSG1
f 27/4/133 28/5/134 29/6/135
f 29/6/136 3/7/137 30/8/138
f 2/9/139 29/10/140 1/11/141
f 4/12/142 31/13/143 3/7/144
f 27/4/145 31/13/146 28/5/147
f 31/14/148 1/11/149 35/77/150
f 35/77/151 1/11/152 29/10/153
f 3/7/154 29/6/155 2/16/156
f 30/8/157 3/7/158 31/13/159
f 1/11/160 31/14/161 4/17/162
f 67/110/163 34/76/164 29/10/165
f 68/112/166 34/76/167 33/18/168
f 28/5/169 68/111/170 33/19/171
f 28/5/172 67/109/173 29/6/174
f 27/4/175 36/78/176 31/13/177
f 29/6/178 36/78/179 27/4/180
f 31/14/181 32/15/182 34/76/183
f 34/76/184 32/15/185 29/10/186
f 32/15/187 35/77/188 29/10/189
f 31/14/190 35/77/191 32/15/192
f 29/6/193 30/8/194 36/78/195
f 36/78/196 30/8/197 31/13/198
usemtl ma_lampadaire_blueSG2
f 41/82/199 40/83/200 51/93/201
f 51/93/202 38/84/203 41/82/204
f 42/85/205 41/82/206 50/92/207
f 50/92/208 39/80/209 42/85/210
f 44/86/211 43/87/212 40/83/213
f 40/83/214 41/82/215 44/86/216
f 45/88/217 44/86/218 42/85/219
f 41/82/220 42/85/221 44/86/222
f 47/89/223 46/90/224 43/87/225
f 43/87/226 44/86/227 47/89/228
f 48/91/229 47/89/230 45/88/231
f 44/86/232 45/88/233 47/89/234
f 46/90/235 47/89/236 49/81/237
f 47/89/238 48/91/239 49/81/240
f 38/84/241 50/92/242 41/82/243
f 37/79/244 51/93/245 40/83/246
f 52/94/247 53/95/248 54/96/249
f 54/96/250 55/97/251 52/94/252
f 56/98/253 52/94/254 57/99/255
f 57/99/256 58/100/257 56/98/258
f 59/101/259 60/102/260 53/95/261
f 53/95/262 52/94/263 59/101/264
f 61/103/265 59/101/266 56/98/267
f 52/94/268 56/98/269 59/101/270
f 62/104/271 63/105/272 60/102/273
f 60/102/274 59/101/275 62/104/276
f 64/106/277 62/104/278 61/103/279
f 59/101/280 61/103/281 62/104/282
f 63/105/283 62/104/284 65/107/285
f 62/104/286 64/106/287 65/107/288
f 55/97/289 57/99/290 52/94/291
f 66/108/292 54/96/293 53/95/294
usemtl ma_lampadaire_blueSG1
f 28/5/295 33/19/296 67/109/297
f 33/18/298 34/76/299 67/110/300
f 28/5/301 31/13/302 68/111/303
f 31/14/304 34/76/305 68/112/306
usemtl ma_lampadaire_blueSG
f 26/71/307 24/62/308 69/113/309
f 23/63/310 69/114/311 24/62/312
f 25/66/313 26/68/314 70/115/315
f 69/119/316 70/115/317 26/68/318
f 4/69/319 3/67/320 71/116/321
f 72/117/322 71/116/323 3/67/324
f 3/67/325 2/64/326 72/117/327
f 69/114/328 72/117/329 2/64/330
usemtl ma_lampadaire_blueSG3
f 76/120/331 75/123/332 74/122/333
f 73/121/334 74/122/335 75/123/336
g default
v 64.308953 -11.795139 -0.619066
v -63.392918 -11.795139 -0.619054
v -4.000837 -11.795139 289.318478
v -4.000837 -11.795139 -40.697777
v -4.000837 662.767839 289.318478
v -4.000837 662.767839 -40.697789
v -63.392925 224.232841 9.596324
v 64.308941 224.232841 9.596312
v -63.392931 368.747663 28.773808
v 64.308941 368.747663 28.773797
v -63.392943 483.958864 70.126331
v 64.308941 483.958864 70.126331
v -63.392949 572.546244 132.635713
v 64.308941 572.546244 132.635713
v -63.392949 656.180596 288.124144
v 64.308929 656.180596 288.124120
v -0.008893 666.896868 281.512082
v 28.914416 638.311815 237.874544
v -0.008893 612.710738 187.268442
v -30.689824 638.311815 237.874544
vt 0.000500 0.000500
vt 0.973382 0.000000
vt 0.006839 0.990204
vt 0.974121 1.000000
vt 0.000500 0.299989
vt 1.000000 0.299490
vt 1.000000 0.000000
vt 0.000000 0.000000
vt 0.000500 0.490589
vt 1.000000 0.490089
vt 0.000500 0.657120
vt 1.000000 0.657120
vt 0.000500 0.839428
vt 1.000000 0.839428
vt 0.000500 0.999501
vt 1.000000 1.000000
vt 0.156007 0.274307
vt 0.255083 0.136414
vt 0.164879 0.024769
vt 0.068762 0.134935
vn 1.000000 0.000000 0.000000
vn 1.000000 0.000000 0.000000
vn 1.000000 0.000000 0.000000
vn 1.000000 0.000000 0.000000
vn 1.000000 0.000000 0.000000
vn 1.000000 0.000000 0.000000
vn -0.000000 0.087481 -0.996166
vn -0.000000 0.087481 -0.996166
vn -0.000000 0.043240 -0.999065
vn -0.000000 0.043240 -0.999065
vn -0.000000 0.043240 -0.999065
vn -0.000000 0.087481 -0.996166
vn -0.000000 0.236021 -0.971748
vn -0.000000 0.236021 -0.971748
vn -0.000000 0.087481 -0.996166
vn -0.000000 0.087481 -0.996166
vn -0.000000 0.087481 -0.996166
vn -0.000000 0.236021 -0.971748
vn -0.000000 0.461379 -0.887203
vn 0.000000 0.461379 -0.887203
vn -0.000000 0.236021 -0.971748
vn -0.000000 0.236021 -0.971748
vn -0.000000 0.236021 -0.971748
vn -0.000000 0.461379 -0.887203
vn 0.000000 0.748567 -0.663060
vn -0.000000 0.748567 -0.663060
vn 0.000000 0.461379 -0.887203
vn 0.000000 0.461379 -0.887203
vn -0.000000 0.461379 -0.887203
vn 0.000000 0.748567 -0.663060
vn -0.000000 0.880684 -0.473704
vn -0.000000 0.880684 -0.473704
vn -0.000000 0.748567 -0.663060
vn -0.000000 0.748567 -0.663060
vn 0.000000 0.748567 -0.663060
vn -0.000000 0.880684 -0.473704
vn 0.000510 0.866922 -0.498444
vn 0.104195 0.862203 -0.495731
vn 0.000447 0.866922 -0.498444
vn 0.000447 0.866922 -0.498444
vn -0.098285 0.862725 -0.496030
vn 0.000510 0.866922 -0.498444
s off
g ma_lampadaire_LOD_blue
usemtl ma_lampadaire_blueSG4
f 79/125/337 80/126/338 82/128/339
f 82/128/340 81/127/341 79/125/342
usemtl ma_lampadaire_blueSG5
f 83/129/343 84/130/344 77/131/345
f 77/131/346 78/132/347 83/129/348
f 85/133/349 86/134/350 84/130/351
f 84/130/352 83/129/353 85/133/354
f 87/135/355 88/136/356 86/134/357
f 86/134/358 85/133/359 87/135/360
f 89/137/361 90/138/362 88/136/363
f 88/136/364 87/135/365 89/137/366
f 91/139/367 92/140/368 90/138/369
f 90/138/370 89/137/371 91/139/372
usemtl ma_lampadaire_blueSG1
f 93/141/373 94/142/374 95/143/375
f 95/143/376 96/144/377 93/141/378
