# This file uses meters as units for non-parametric coordinates.

mtllib fy_acc_banc_a.max.fobj.mtl
g default
v -18.475679 40.526271 -0.911843
v 18.214336 41.306093 -0.911843
v 0.276980 35.166296 -36.298463
v -18.475679 44.187784 -74.059475
v 0.145555 40.919822 -76.197028
v 17.483662 44.323772 -75.091595
v -19.226326 44.793165 -0.911843
v 0.002991 45.400152 -0.911839
v 18.506181 43.911850 -0.911844
v -16.870341 47.924307 -75.633413
v -0.037134 46.956977 -80.758697
v 16.329624 47.987038 -77.229560
v -7.113968 36.207423 -0.911842
v 8.464387 36.207423 -0.911842
v 0.621166 25.891975 -19.651109
v -3.029414 26.233637 -0.911842
v 4.035855 26.233637 -0.911842
v 0.581335 10.471410 25.479773
v 0.635830 10.495108 -26.338276
v -4.048727 10.835677 -0.911843
v 5.121811 10.835677 -0.911843
v 15.390383 6.009210 53.840828
v -14.330117 5.514880 -52.505577
v -13.851191 5.611904 53.123253
v 14.945506 5.933918 -53.617066
v 16.643476 0.068331 57.667053
v -15.454666 -0.335532 -57.187075
v -14.937423 -0.090691 56.892061
v 16.163008 -0.154370 -58.387476
v -18.475677 44.187781 72.235799
v 0.145556 40.919822 74.373358
v 0.276980 35.166296 34.474781
v 17.483662 44.323772 73.267907
v -16.870341 47.924307 73.809731
v -0.037134 46.956977 78.935015
v 16.329624 47.987035 75.405878
v 0.621166 25.891978 17.827421
v 0.601251 18.181694 19.261724
v 0.628498 18.193541 -20.602818
v 0.497498 30.529138 20.524153
v 0.497498 30.529135 -22.347835
v 0.307696 5.724400 -57.304478
v 0.354171 -0.244951 -62.408519
v 0.769597 5.810557 57.762337
v 0.853026 -0.011180 61.863661
vt 0.061753 0.829928
vt 0.939053 0.848475
vt 0.939948 0.109673
vt 0.077590 0.090389
vt 0.495108 0.000000
vt 0.502935 0.494118
vt 0.978474 0.035294
vt 0.501314 0.219456
vt 0.025440 0.039216
vt 0.003914 0.243137
vt 0.045010 0.486275
vt 0.954990 0.486275
vt 1.000000 0.235294
vt 0.939948 0.109673
vt 0.069671 0.460159
vt 0.939500 0.479074
vt 0.069671 0.460159
vt 0.500908 0.926528
vt 0.942159 0.926528
vt 0.955054 0.748932
vt 0.714372 0.747679
vt 0.500908 0.576606
vt 0.948385 0.583574
vt 0.969243 0.535655
vt 0.997166 0.748710
vt 0.960941 0.983892
vt 0.499581 0.988684
vt 0.500908 0.818168
vt 0.500908 0.669594
vt 0.046762 0.748933
vt 0.058330 0.922600
vt 0.287444 0.747679
vt 0.053431 0.583574
vt 0.031246 0.537619
vt 0.005977 0.744782
vt 0.038221 0.979964
vt 0.499581 0.516861
vt 0.668709 0.544384
vt 0.692987 0.625016
vt 0.500000 0.550325
vt 0.500000 0.723751
vt 0.728913 0.276661
vt 0.677277 0.410523
vt 0.500000 0.282583
vt 0.307013 0.625016
vt 0.181416 0.705648
vt 0.318378 0.410317
vt 0.331291 0.544384
vt 0.262398 0.276249
vt 0.818584 0.705647
vt 0.500000 0.546787
vt 0.318083 0.616226
vt 0.340969 0.541264
vt 0.500000 0.708019
vt 0.500000 0.297869
vt 0.332892 0.416814
vt 0.284218 0.292364
vt 0.681917 0.616226
vt 0.800309 0.691189
vt 0.659031 0.541264
vt 0.671203 0.416622
vt 0.723973 0.291981
vt 0.199691 0.691189
vt 0.517386 0.687701
vt 0.304410 0.750598
vt 0.075541 0.563181
vt 0.926852 0.569343
vt 0.517386 0.814736
vt 0.081332 0.937232
vt 0.043895 0.747990
vt 0.722573 0.749843
vt 0.956609 0.754389
vt 0.921339 0.947143
vt 0.044664 0.528097
vt 0.965349 0.534752
vt 0.050918 0.965573
vt 0.010798 0.746835
vt 0.997798 0.753745
vt 0.955662 0.972738
vn -0.768064 -0.640373 0.000000
vn -0.792259 -0.432103 -0.430827
vn -0.007879 -0.873945 -0.485961
vn -0.007879 -0.873945 -0.485961
vn 0.029999 -0.990379 -0.135088
vn -0.768064 -0.640373 0.000000
vn 0.439287 -0.898347 -0.000000
vn -0.007879 -0.873945 -0.485961
vn 0.197668 -0.846034 -0.495129
vn -0.007879 -0.873945 -0.485961
vn 0.439287 -0.898347 -0.000000
vn 0.029999 -0.990379 -0.135088
vn 0.050604 0.998470 0.022302
vn 0.021182 0.999776 0.000000
vn -0.003904 0.999802 0.019496
vn 0.021182 0.999776 0.000000
vn 0.050604 0.998470 0.022302
vn -0.031550 0.999502 0.000000
vn 0.021182 0.999776 0.000000
vn 0.080176 0.996781 0.000000
vn -0.047559 0.998588 0.023674
vn -0.047559 0.998588 0.023674
vn -0.003904 0.999802 0.019496
vn 0.021182 0.999776 0.000000
vn 0.197668 -0.846034 -0.495129
vn -0.007879 -0.873945 -0.485961
vn 0.160892 -0.493337 -0.854829
vn -0.030672 -0.603162 -0.797029
vn 0.160892 -0.493337 -0.854829
vn -0.007879 -0.873945 -0.485961
vn -0.007879 -0.873945 -0.485961
vn -0.792259 -0.432103 -0.430827
vn -0.620321 -0.141532 -0.771473
vn -0.620321 -0.141532 -0.771473
vn -0.030672 -0.603162 -0.797029
vn -0.007879 -0.873945 -0.485961
vn -0.620321 -0.141532 -0.771473
vn -0.768064 -0.640373 0.000000
vn -0.984876 -0.173263 -0.000000
vn -0.768064 -0.640373 0.000000
vn -0.620321 -0.141532 -0.771473
vn -0.792259 -0.432103 -0.430827
vn 0.662111 -0.358551 -0.658066
vn 0.674291 -0.385557 0.629823
vn -0.016705 -0.405991 0.913724
vn -0.681203 -0.370048 -0.631686
vn -0.028252 -0.367858 -0.929453
vn -0.679479 -0.395774 0.617795
vn 0.029999 -0.990379 -0.135088
vn -0.355318 -0.934745 0.000000
vn -0.768064 -0.640373 0.000000
vn 0.029999 -0.990379 -0.135088
vn 0.439287 -0.898347 -0.000000
vn 0.463405 -0.886147 0.000000
vn 0.021766 -0.250486 -0.967875
vn 0.005780 -0.913867 -0.405972
vn 0.986756 -0.162212 -0.000610
vn 0.905394 -0.424572 0.000000
vn 0.986756 -0.162212 -0.000610
vn 0.005780 -0.913867 -0.405972
vn -0.988019 -0.154330 -0.001151
vn 0.005780 -0.913867 -0.405972
vn 0.021766 -0.250486 -0.967875
vn 0.005780 -0.913867 -0.405972
vn -0.988019 -0.154330 -0.001151
vn -0.914000 -0.405713 -0.000000
vn 0.002509 0.597439 -0.801911
vn 0.005517 0.426197 -0.904614
vn 0.996363 0.085193 -0.001647
vn 0.986756 -0.162212 -0.000610
vn 0.996363 0.085193 -0.001647
vn 0.005517 0.426197 -0.904614
vn -0.996526 0.083227 -0.003194
vn 0.005517 0.426197 -0.904614
vn 0.002509 0.597439 -0.801911
vn 0.005517 0.426197 -0.904614
vn -0.996526 0.083227 -0.003194
vn -0.988019 -0.154330 -0.001151
vn 0.389964 0.920827 -0.002259
vn -0.012782 0.997679 0.066879
vn 0.600078 0.724429 0.339278
vn 0.600078 0.724429 0.339278
vn 0.601144 0.732380 -0.319757
vn 0.389964 0.920827 -0.002259
vn -0.012782 0.997679 0.066879
vn -0.415663 0.909519 0.000402
vn -0.621482 0.711674 0.327536
vn -0.621482 0.711674 0.327536
vn -0.023536 0.821142 0.570238
vn -0.012782 0.997679 0.066879
vn -0.007464 0.997446 -0.071031
vn 0.389964 0.920827 -0.002259
vn 0.601144 0.732380 -0.319757
vn 0.601144 0.732380 -0.319757
vn -0.030493 0.846310 -0.531817
vn -0.007464 0.997446 -0.071031
vn -0.415663 0.909519 0.000402
vn -0.007464 0.997446 -0.071031
vn -0.629345 0.718294 -0.296612
vn -0.629345 0.718294 -0.296612
vn -0.621482 0.711674 0.327536
vn -0.415663 0.909519 0.000402
vn 0.601144 0.732380 -0.319757
vn 0.600078 0.724429 0.339278
vn 0.674291 -0.385557 0.629823
vn 0.674291 -0.385557 0.629823
vn 0.662111 -0.358551 -0.658066
vn 0.601144 0.732380 -0.319757
vn -0.023536 0.821142 0.570238
vn -0.621482 0.711674 0.327536
vn -0.679479 -0.395774 0.617795
vn -0.016705 -0.405991 0.913724
vn 0.674291 -0.385557 0.629823
vn 0.600078 0.724429 0.339278
vn -0.030493 0.846310 -0.531817
vn 0.601144 0.732380 -0.319757
vn 0.662111 -0.358551 -0.658066
vn -0.028252 -0.367858 -0.929453
vn -0.681203 -0.370048 -0.631686
vn -0.629345 0.718294 -0.296612
vn -0.621482 0.711674 0.327536
vn -0.629345 0.718294 -0.296612
vn -0.681203 -0.370048 -0.631686
vn -0.681203 -0.370048 -0.631686
vn -0.679479 -0.395774 0.617795
vn -0.621482 0.711674 0.327536
vn -0.768064 -0.640373 0.000000
vn -0.007879 -0.873945 0.485961
vn -0.792259 -0.432103 0.430827
vn -0.007879 -0.873945 0.485961
vn -0.768064 -0.640373 0.000000
vn 0.029999 -0.990379 0.135088
vn 0.439287 -0.898347 -0.000000
vn 0.197669 -0.846035 0.495128
vn -0.007879 -0.873945 0.485961
vn -0.007879 -0.873945 0.485961
vn 0.029999 -0.990379 0.135088
vn 0.439287 -0.898347 -0.000000
vn 0.050604 0.998470 -0.022302
vn -0.003904 0.999802 -0.019496
vn 0.021182 0.999776 0.000000
vn 0.021182 0.999776 0.000000
vn -0.031550 0.999502 0.000000
vn 0.050604 0.998470 -0.022302
vn 0.021182 0.999776 0.000000
vn -0.047559 0.998588 -0.023674
vn 0.080176 0.996781 0.000000
vn -0.047559 0.998588 -0.023674
vn 0.021182 0.999776 0.000000
vn -0.003904 0.999802 -0.019496
vn 0.197669 -0.846035 0.495128
vn 0.160893 -0.493338 0.854828
vn -0.007879 -0.873945 0.485961
vn -0.030672 -0.603161 0.797029
vn -0.007879 -0.873945 0.485961
vn 0.160893 -0.493338 0.854828
vn -0.007879 -0.873945 0.485961
vn -0.620321 -0.141531 0.771473
vn -0.792259 -0.432103 0.430827
vn -0.620321 -0.141531 0.771473
vn -0.007879 -0.873945 0.485961
vn -0.030672 -0.603161 0.797029
vn -0.620321 -0.141531 0.771473
vn -0.984876 -0.173263 -0.000000
vn -0.768064 -0.640373 0.000000
vn -0.768064 -0.640373 0.000000
vn -0.792259 -0.432103 0.430827
vn -0.620321 -0.141531 0.771473
vn 0.029999 -0.990379 0.135088
vn -0.768064 -0.640373 0.000000
vn -0.355318 -0.934745 0.000000
vn 0.029999 -0.990379 0.135088
vn 0.463405 -0.886147 0.000000
vn 0.439287 -0.898347 -0.000000
vn 0.005780 -0.913867 0.405972
vn 0.986756 -0.162212 -0.000610
vn 0.905394 -0.424572 0.000000
vn 0.905394 -0.424572 0.000000
vn -0.004254 -0.948961 0.315365
vn 0.005780 -0.913867 0.405972
vn -0.914000 -0.405713 -0.000000
vn 0.005780 -0.913867 0.405972
vn -0.004254 -0.948961 0.315365
vn 0.023015 -0.218162 0.975641
vn 0.005780 -0.913867 0.405972
vn -0.988019 -0.154330 -0.001151
vn 0.004844 0.465656 0.884953
vn 0.996363 0.085193 -0.001647
vn 0.986756 -0.162212 -0.000610
vn 0.986756 -0.162212 -0.000610
vn 0.023015 -0.218162 0.975641
vn 0.004844 0.465656 0.884953
vn -0.988019 -0.154330 -0.001151
vn 0.004844 0.465656 0.884953
vn 0.023015 -0.218162 0.975641
vn 0.000331 0.627757 0.778410
vn 0.004844 0.465656 0.884953
vn -0.996526 0.083227 -0.003194
vn 0.993203 -0.111239 0.034266
vn 0.993203 -0.111239 0.034266
vn 0.993203 -0.111239 0.034266
vn 0.953301 0.302009 -0.002896
vn 0.953301 0.302009 -0.002896
vn 0.953301 0.302009 -0.002896
vn 0.953301 0.302008 0.002896
vn 0.953301 0.302008 0.002896
vn 0.953301 0.302008 0.002896
vn 0.993203 -0.111239 -0.034266
vn 0.993203 -0.111239 -0.034266
vn 0.993203 -0.111239 -0.034266
vn -0.988019 -0.154330 -0.001151
vn -0.996526 0.083227 -0.003194
vn 0.004844 0.465656 0.884953
vn 0.996363 0.085193 -0.001647
vn 0.004844 0.465656 0.884953
vn 0.000331 0.627757 0.778410
vn -0.988019 -0.154330 -0.001151
vn 0.021766 -0.250486 -0.967875
vn 0.005517 0.426197 -0.904614
vn 0.986756 -0.162212 -0.000610
vn 0.005517 0.426197 -0.904614
vn 0.021766 -0.250486 -0.967875
vn -0.914000 -0.405713 -0.000000
vn -0.988019 -0.154330 -0.001151
vn 0.005780 -0.913867 0.405972
vn 0.986756 -0.162212 -0.000610
vn 0.005780 -0.913867 0.405972
vn 0.023015 -0.218162 0.975641
vn -0.914000 -0.405713 -0.000000
vn -0.004253 -0.948961 -0.315365
vn 0.005780 -0.913867 -0.405972
vn 0.905394 -0.424572 0.000000
vn 0.005780 -0.913867 -0.405972
vn -0.004253 -0.948961 -0.315365
vn -0.028252 -0.367858 -0.929453
vn -0.030493 0.846310 -0.531817
vn 0.662111 -0.358551 -0.658066
vn -0.030493 0.846310 -0.531817
vn -0.629345 0.718294 -0.296612
vn -0.007464 0.997446 -0.071031
vn -0.030493 0.846310 -0.531817
vn -0.028252 -0.367858 -0.929453
vn -0.629345 0.718294 -0.296612
vn -0.028252 -0.367858 -0.929453
vn 0.662111 -0.358551 -0.658066
vn -0.016705 -0.405991 0.913724
vn -0.016705 -0.405991 0.913724
vn -0.023536 0.821142 0.570238
vn -0.679479 -0.395774 0.617795
vn -0.023536 0.821142 0.570238
vn 0.600078 0.724429 0.339278
vn -0.012782 0.997679 0.066879
vn -0.023536 0.821142 0.570238
vn -0.016705 -0.405991 0.913724
vn 0.600078 0.724429 0.339278
vn -0.028252 -0.367858 -0.929453
vn -0.016705 -0.405991 0.913724
vn -0.679479 -0.395774 0.617795
s off
g FY_Acc_Banc_A_1
usemtl FY_Acc_Banc_A_1SG
f 1/18/1 4/19/2 5/20/3
f 5/20/4 3/21/5 1/18/6
f 2/22/7 5/20/8 6/23/9
f 5/20/10 2/22/11 3/21/12
usemtl FY_Acc_Banc_A_1SG1
f 10/7/13 8/8/14 11/13/15
f 8/8/16 10/7/17 7/5/18
f 8/8/19 9/6/20 12/12/21
f 12/12/22 11/13/23 8/8/24
f 6/23/25 5/20/26 12/24/27
f 11/25/28 12/24/29 5/20/30
f 5/20/31 4/19/32 10/26/33
f 10/26/34 11/25/35 5/20/36
f 10/26/37 1/18/38 7/27/39
f 1/18/40 10/26/41 4/19/42
usemtl FY_Acc_Banc_A_1SG
f 29/1/43 26/2/44 45/16/45
f 27/4/46 43/15/47 28/14/48
f 3/21/49 13/28/50 1/18/51
f 3/21/52 2/22/53 14/29/54
f 15/38/55 41/39/56 17/40/57
f 14/41/58 17/40/59 41/39/60
f 16/51/61 41/52/62 15/53/63
f 41/52/64 16/51/65 13/54/66
f 19/42/67 39/43/68 21/44/69
f 17/40/70 21/44/71 39/43/72
f 20/55/73 39/56/74 19/57/75
f 39/56/76 20/55/77 16/51/78
usemtl FY_Acc_Banc_A_1SG1
f 21/64/79 18/65/80 22/66/81
f 22/66/82 25/67/83 21/64/84
f 18/65/85 20/68/86 24/69/87
f 24/69/88 44/70/89 18/65/90
f 19/71/91 21/64/92 25/67/93
f 25/67/94 42/72/95 19/71/96
f 20/68/97 19/71/98 23/73/99
f 23/73/100 24/69/101 20/68/102
f 25/67/103 22/66/104 26/74/105
f 26/74/106 29/75/107 25/67/108
f 44/70/109 24/69/110 28/76/111
f 45/77/112 26/74/113 22/66/114
f 42/72/115 25/67/116 29/75/117
f 43/78/118 27/79/119 23/73/120
f 24/69/121 23/73/122 27/79/123
f 27/79/124 28/76/125 24/69/126
usemtl FY_Acc_Banc_A_1SG
f 1/18/127 31/30/128 30/31/129
f 31/30/130 1/18/131 32/32/132
f 2/22/133 33/33/134 31/30/135
f 31/30/136 32/32/137 2/22/138
usemtl FY_Acc_Banc_A_1SG1
f 34/9/139 35/10/140 8/8/141
f 8/8/142 7/5/143 34/9/144
f 8/8/145 36/11/146 9/6/147
f 36/11/148 8/8/149 35/10/150
f 33/33/151 36/34/152 31/30/153
f 35/35/154 31/30/155 36/34/156
f 31/30/157 34/36/158 30/31/159
f 34/36/160 31/30/161 35/35/162
f 34/36/163 7/27/164 1/18/165
f 1/18/166 30/31/167 34/36/168
usemtl FY_Acc_Banc_A_1SG
f 32/32/169 1/18/170 13/28/171
f 32/32/172 14/29/173 2/22/174
f 40/45/175 17/40/176 14/41/177
f 14/41/178 32/46/179 40/45/180
f 13/54/181 40/58/182 32/59/183
f 37/60/184 40/58/185 16/51/186
f 38/47/187 21/44/188 17/40/189
f 17/40/190 37/48/191 38/47/192
f 16/51/193 38/61/194 37/60/195
f 18/62/196 38/61/197 20/55/198
usemtl FY_Acc_Banc_A_1SG1
f 36/34/199 2/22/200 9/37/201
f 33/33/202 2/22/203 36/34/204
f 2/22/205 6/23/206 12/24/207
f 2/22/208 12/24/209 9/37/210
usemtl FY_Acc_Banc_A_1SG
f 16/51/211 20/55/212 38/61/213
f 21/44/214 38/47/215 18/49/216
f 16/51/217 15/53/218 39/56/219
f 17/40/220 39/43/221 15/38/222
f 13/54/223 16/51/224 40/58/225
f 17/40/226 40/45/227 37/48/228
f 13/54/229 3/63/230 41/52/231
f 14/41/232 41/39/233 3/50/234
usemtl FY_Acc_Banc_A_1SG1
f 43/78/235 42/72/236 29/75/237
f 42/72/238 23/73/239 19/71/240
f 42/72/241 43/78/242 23/73/243
usemtl FY_Acc_Banc_A_1SG
f 43/15/244 29/1/245 45/16/246
usemtl FY_Acc_Banc_A_1SG1
f 45/77/247 44/70/248 28/76/249
f 44/70/250 22/66/251 18/65/252
f 44/70/253 45/77/254 22/66/255
usemtl FY_Acc_Banc_A_1SG
f 43/17/256 45/16/257 28/3/258
