# This file uses meters as units for non-parametric coordinates.

mtllib go_mo_vampignon_lod.max.fobj.mtl
g skinCluster1Set tweakSet1
v 0.287106 283.025676 -8.017778
v 0.287128 296.648127 24.644337
v 0.287098 303.006035 -42.273870
v 0.286942 143.155378 -85.803559
v 0.286983 235.815042 -88.384822
v 0.286998 146.656770 -74.899533
v 0.287098 82.053635 -72.081110
v 0.287209 213.740343 41.610791
v 0.287035 104.390875 -98.730555
v 0.287029 55.263796 -63.556829
v 0.287170 96.333097 -3.270291
v -66.851521 195.214182 -33.820072
v -68.719733 105.532538 -39.256415
v -56.377172 118.977687 -76.724324
v -16.468544 292.075628 -15.879306
v -50.880611 -1.461905 -35.766229
v -53.478783 -1.464158 -78.700110
v -72.471827 -1.444799 -30.677247
v -75.314331 -1.491302 -75.483552
v -20.038971 101.660242 -82.380864
v -29.262838 80.242375 -52.017471
v -59.723693 86.113214 -31.507903
v -40.521199 221.669310 -22.654864
v -45.579123 208.294553 -65.343854
v -49.861360 230.940920 -34.635064
v -46.506414 137.004402 -18.015766
v -65.044069 137.016720 -14.351338
v -67.218637 136.983249 -46.614525
v -53.039628 137.002799 -48.930618
v -35.634130 208.054382 27.186913
v 67.425656 195.214170 -33.820316
v 69.293720 105.532373 -39.256456
v 56.951183 118.977553 -76.724377
v 17.042749 292.075604 -15.879339
v 51.454341 -1.462036 -35.766217
v 54.052490 -1.464301 -78.700086
v 73.045552 -1.445001 -30.677247
v 75.888038 -1.491517 -75.483540
v 20.613013 101.660211 -82.380900
v 29.836789 80.242287 -52.017519
v 60.297650 86.113067 -31.507942
v 41.095296 221.669286 -22.654933
v 46.153247 206.713790 -38.677618
v 50.435442 230.940896 -34.635147
v 47.080302 137.004256 -18.015739
v 65.617961 137.016523 -14.351305
v 67.792517 136.983037 -46.614507
v 53.613502 137.002626 -48.930600
v 36.208493 208.054370 27.186787
vt 0.034307 0.259005
vt 0.117944 0.502051
vt 0.134319 0.234030
vt 0.798822 0.445113
vt 0.812008 0.034993
vt 0.706876 0.397076
vt 0.679005 0.034994
vt 0.659922 0.336450
vt 0.604628 0.035001
vt 0.552380 0.277549
vt 0.889897 0.387616
vt 0.908192 0.033484
vt 0.237033 0.247518
vt 0.273429 0.034994
vt 0.213785 0.034997
vt 0.311530 0.393223
vt 0.358955 0.034993
vt 0.463432 0.375529
vt 0.499420 0.284155
vt 0.398229 0.034994
vt 0.573831 0.642459
vt 0.262396 0.585440
vt 0.820652 0.641423
vt 0.946897 0.488219
vt 0.961124 0.231193
vt 0.134319 0.234030
vt 0.706876 0.397076
vt 0.812008 0.034993
vt 0.798822 0.445113
vt 0.679005 0.034994
vt 0.552380 0.277549
vt 0.604628 0.035001
vt 0.659922 0.336450
vt 0.908192 0.033484
vt 0.889897 0.387616
vt 0.213785 0.034997
vt 0.273429 0.034994
vt 0.237033 0.247518
vt 0.311530 0.393223
vt 0.358955 0.034993
vt 0.398228 0.034994
vt 0.499420 0.284155
vt 0.463432 0.375529
vt 0.966181 0.967241
vt 0.040009 0.967241
vt 0.951031 0.795465
vt 0.849624 0.967241
vt 0.788138 0.671973
vt 0.097036 0.823114
vt 0.330296 0.651407
vt 0.550739 0.664909
vt 0.194021 0.759090
vt 0.186535 0.967241
vt 0.537568 0.778188
vt 0.277555 0.967241
vt 0.541000 0.967241
vt 0.966181 0.967240
vt 0.040009 0.967241
vt 0.951031 0.795465
vt 0.849624 0.967240
vt 0.788138 0.671973
vt 0.097036 0.823114
vt 0.550739 0.664909
vt 0.330296 0.651407
vt 0.186535 0.967241
vt 0.194021 0.759090
vt 0.541000 0.967241
vt 0.277555 0.967241
vt 0.537568 0.778188
vn -0.000000 0.274184 0.961677
vn 0.000001 0.829138 0.559044
vn -0.803612 0.564296 0.189151
vn 0.000000 0.732643 -0.680613
vn -0.626411 0.425708 -0.652979
vn -0.892339 0.058435 -0.447566
vn -0.931583 0.160065 -0.326392
vn -0.894847 0.031723 0.445245
vn -0.489220 -0.190060 0.851200
vn 0.341472 -0.011218 0.939825
vn 0.326852 -0.773420 0.543129
vn -0.123235 0.064663 -0.990269
vn -0.145740 0.011950 -0.989251
vn -0.852653 0.315177 0.416709
vn -0.832823 0.186240 0.521269
vn 0.193793 0.040010 0.980226
vn -0.859763 0.398110 -0.319870
vn -0.959258 0.218004 -0.179717
vn -0.583525 0.072175 -0.808881
vn -0.971135 0.161210 0.175805
vn -0.578168 0.073747 -0.812578
vn -0.000001 0.009610 -0.999954
vn -0.000001 0.244088 -0.969753
vn 0.043749 -0.474610 -0.879108
vn -0.061613 0.190723 -0.979708
vn -0.809835 0.077550 0.581509
vn -0.000000 -0.933366 0.358927
vn -0.598907 -0.294080 -0.744867
vn -0.000003 -0.733488 -0.679702
vn -0.000001 -0.059682 -0.998217
vn 0.000002 0.058022 0.998315
vn 0.000000 -0.488201 0.872731
vn 0.803613 0.564295 0.189150
vn 0.931583 0.160063 -0.326393
vn 0.892340 0.058433 -0.447566
vn 0.626412 0.425708 -0.652978
vn 0.894847 0.031721 0.445244
vn -0.326856 -0.773417 0.543130
vn -0.341472 -0.011217 0.939825
vn 0.362972 -0.248103 0.898163
vn 0.145739 0.011949 -0.989251
vn 0.268797 -0.038047 -0.962445
vn -0.193793 0.040012 0.980226
vn 0.832823 0.186238 0.521269
vn 0.821437 0.358671 0.443392
vn 0.859762 0.398110 -0.319871
vn 0.959259 0.218000 -0.179717
vn 0.205293 0.199976 -0.958052
vn 0.966400 0.150125 0.208645
vn 0.726600 0.082567 -0.682082
vn 0.749544 0.057845 0.659423
s 1
g GO_MO_vampignon_LOD
usemtl GO_MO_vampignon_LODSG1
f 1/47/1 2/44/2 15/46/3
f 2/1/2 3/2/4 15/3/3
f 14/4/5 19/5/6 13/6/7
f 13/6/7 19/5/6 18/7/8
f 22/8/9 16/9/10 21/10/11
f 16/9/10 22/8/9 18/7/8
f 13/6/7 18/7/8 22/8/9
f 19/5/6 20/11/12 17/12/13
f 19/5/6 14/4/5 20/11/12
f 23/13/14 27/14/15 26/15/16
f 27/14/15 23/13/14 25/16/17
f 27/14/15 25/16/17 28/17/18
f 12/18/19 24/19/20 29/20/21
f 28/17/18 12/18/19 29/20/21
f 12/18/19 28/17/18 25/16/17
f 12/18/19 4/21/22 13/6/7
f 14/4/5 13/6/7 4/21/22
f 4/21/22 12/18/19 5/22/23
f 4/21/22 6/23/24 14/4/5
f 25/16/17 23/13/14 15/3/3
f 14/4/5 6/23/25 20/11/12
f 30/54/26 1/47/1 23/48/14
f 7/53/27 20/49/28 10/45/29
f 23/48/14 1/47/1 15/46/3
f 3/2/4 5/22/23 25/16/17
f 12/18/19 25/16/17 5/22/23
f 25/16/17 15/3/3 3/2/4
f 9/24/30 20/11/28 6/23/24
f 9/24/30 10/25/29 20/11/28
f 8/56/31 1/47/1 30/54/26
f 24/51/20 30/54/26 23/48/14
f 21/52/11 20/49/28 7/53/27
f 22/50/9 11/55/32 30/54/26
f 11/55/32 22/50/9 21/52/11
f 24/19/20 12/18/19 22/8/9
f 13/6/7 22/8/9 12/18/19
f 22/50/9 30/54/26 24/51/20
f 21/52/11 7/53/27 11/55/32
f 30/54/26 11/55/32 8/56/31
usemtl GO_MO_vampignon_LODSG
f 34/59/33 2/57/2 1/60/1
f 34/26/33 3/2/4 2/1/2
f 32/27/34 38/28/35 33/29/36
f 37/30/37 38/28/35 32/27/34
f 40/31/38 35/32/39 41/33/40
f 37/30/37 41/33/40 35/32/39
f 41/33/40 37/30/37 32/27/34
f 36/34/41 39/35/42 38/28/35
f 39/35/42 33/29/36 38/28/35
f 45/36/43 46/37/44 42/38/45
f 44/39/46 42/38/45 46/37/44
f 47/40/47 44/39/46 46/37/44
f 48/41/48 43/42/49 31/43/50
f 48/41/48 31/43/50 47/40/47
f 44/39/46 47/40/47 31/43/50
f 32/27/34 4/21/22 31/43/50
f 4/21/22 32/27/34 33/29/36
f 5/22/23 31/43/50 4/21/22
f 33/29/36 6/23/24 4/21/22
f 34/26/33 42/38/45 44/39/46
f 39/35/42 6/23/24 33/29/36
f 42/61/45 1/60/1 49/69/51
f 10/58/29 39/62/42 7/65/27
f 34/59/33 1/60/1 42/61/45
f 44/39/46 5/22/23 3/2/4
f 5/22/23 44/39/46 31/43/50
f 3/2/4 34/26/33 44/39/46
f 6/23/24 39/35/42 9/24/30
f 39/35/42 10/25/29 9/24/30
f 49/69/51 1/60/1 8/67/31
f 42/61/45 49/69/51 43/63/49
f 7/65/27 39/62/42 40/66/38
f 49/69/51 11/68/32 41/64/40
f 40/66/38 41/64/40 11/68/32
f 41/33/40 31/43/50 43/42/49
f 31/43/50 41/33/40 32/27/34
f 43/63/49 49/69/51 41/64/40
f 11/68/32 7/65/27 40/66/38
f 8/67/31 11/68/32 49/69/51
