# This file uses meters as units for non-parametric coordinates.

mtllib go_mo_kitimandib_lod.max.fobj.mtl
g skinCluster1Set tweakSet1
v -10.505201 190.964994 3.155174
v -37.427866 202.345580 -20.658800
v -79.203093 138.053647 -55.994352
v -86.916322 125.464280 -45.415175
v -77.585310 113.545483 -54.588046
v -117.302537 207.226259 -89.113736
v -118.125594 167.842042 -89.829182
v -171.076608 116.177645 -120.079833
v -131.291389 0.612581 -100.992274
v -174.118066 123.062314 -138.039463
v -155.572951 113.109919 -121.918422
v 0.000826 186.061713 152.543313
v 0.000826 148.919683 22.974131
v 0.000795 167.087783 -24.772566
v 0.000960 102.311951 43.004522
v -11.414672 216.038960 22.660441
v 0.000820 216.035509 9.773973
v 0.000903 247.479200 -47.032821
v 0.000940 256.175840 155.872995
v 0.000951 313.556361 30.483932
v 10.506851 190.965006 3.155176
v -10.273558 190.956515 43.664834
v -47.419959 306.514227 40.134681
v -40.081608 288.020051 45.624608
v -54.963183 275.479031 39.895526
v -106.515288 302.581620 91.499126
v -129.808569 295.063674 67.245132
v -123.932135 320.388949 67.376471
v -139.635825 309.898210 184.939140
v -35.772133 135.250650 23.277483
v -19.949895 190.894616 23.256934
v -55.892032 202.275336 22.947255
v -109.483194 125.394025 36.730409
v -110.602510 137.983423 23.685891
v -108.458960 113.475251 23.685825
v -161.084592 207.156086 23.686099
v -162.175262 167.771864 23.685980
v -236.062157 122.992265 24.035478
v -211.489642 113.039774 24.035445
v -221.984088 116.107523 35.594374
v -179.435527 0.542521 23.898206
v -39.164668 202.337158 65.048039
v -82.413697 138.045004 98.563534
v -73.669362 125.455655 108.307737
v -80.701733 113.536841 97.273416
v -122.730529 207.217604 128.944701
v -123.601532 167.833246 129.600841
v -164.200306 116.168824 175.105292
v -137.258124 0.603843 140.157694
v -182.399809 123.053494 174.346286
v -162.775362 113.101104 159.558148
v 37.429482 202.345687 -20.658794
v 79.204631 138.053449 -55.994364
v 86.917818 125.464068 -45.415178
v 77.586776 113.545290 -54.588055
v 117.304289 207.225907 -89.113736
v 118.127263 167.841665 -89.829206
v 171.078134 116.177166 -120.079869
v 131.292510 0.612283 -100.992310
v 174.119627 123.061834 -138.039511
v 155.574453 113.109496 -121.918505
v 47.421849 306.514132 40.134716
v 40.083477 288.019955 45.624632
v 54.965055 275.478876 39.895565
v 106.517172 302.581370 91.499156
v 129.810429 295.063376 67.245156
v 123.934054 320.388663 67.376507
v 139.637733 309.897888 184.939164
v 35.773732 135.250580 23.277519
v 11.416365 216.038936 22.660444
v 19.951536 190.894574 23.256943
v 10.275199 190.956488 43.664834
v 55.893701 202.275175 22.947273
v 109.484470 125.393367 36.730478
v 110.603869 137.982754 23.685962
v 108.460158 113.474602 23.685897
v 161.086440 207.155222 23.686183
v 162.176824 167.770942 23.686067
v 236.063492 122.990918 24.035558
v 211.490977 113.038614 24.035532
v 221.985447 116.106299 35.594467
v 179.436088 0.541425 23.898262
v 39.166328 202.337050 65.048051
v 82.415074 138.044790 98.563570
v 73.670679 125.455447 108.307702
v 80.703062 113.536635 97.273475
v 122.732258 207.217354 128.944570
v 123.603058 167.832956 129.601020
v 164.201760 116.168424 175.105161
v 137.259281 0.603485 140.157634
v 182.401299 123.053101 174.346120
v 162.776816 113.100731 159.558028
vt 0.598364 0.164303
vt 0.365847 0.165391
vt 0.368480 0.209755
vt 0.638314 0.278420
vt 0.369837 0.241940
vt 0.131119 0.161385
vt 0.198416 0.258206
vt 0.159908 0.429376
vt 0.128788 0.735848
vt 0.121640 0.427341
vt 0.193571 0.433776
vt 0.504750 0.589020
vt 0.799993 0.433340
vt 0.729036 0.369828
vt 0.673110 0.308743
vt 0.435774 0.478088
vt 0.614238 0.659665
vt 0.238111 0.862178
vt 0.552599 0.847476
vt 0.630511 0.156568
vt 0.638314 0.278420
vt 0.623881 0.038672
vt 0.321219 0.039058
vt 0.324302 0.089586
vt 0.325891 0.126244
vt 0.046384 0.034494
vt 0.113681 0.144771
vt 0.075173 0.302486
vt 0.109039 0.611198
vt 0.036904 0.300451
vt 0.108836 0.306885
vt 0.512650 0.961593
vt 0.280132 0.960505
vt 0.282765 0.916142
vt 0.284122 0.883957
vt 0.045403 0.964512
vt 0.112701 0.867690
vt 0.074193 0.696520
vt 0.043073 0.390049
vt 0.035924 0.698556
vt 0.107856 0.692121
vt 0.368480 0.209755
vt 0.365847 0.165391
vt 0.598364 0.164303
vt 0.369837 0.241940
vt 0.198416 0.258206
vt 0.131119 0.161385
vt 0.159908 0.429376
vt 0.121640 0.427341
vt 0.128788 0.735848
vt 0.193571 0.433776
vt 0.729036 0.369828
vt 0.799993 0.433340
vt 0.504750 0.589020
vt 0.435774 0.478088
vt 0.673110 0.308743
vt 0.614238 0.659665
vt 0.238111 0.862178
vt 0.630511 0.156568
vt 0.552599 0.847476
vt 0.324302 0.089586
vt 0.321219 0.039058
vt 0.623881 0.038672
vt 0.325891 0.126244
vt 0.113681 0.144771
vt 0.046384 0.034494
vt 0.075173 0.302486
vt 0.036904 0.300451
vt 0.109039 0.611198
vt 0.108836 0.306885
vt 0.282765 0.916142
vt 0.280132 0.960505
vt 0.512650 0.961593
vt 0.284122 0.883957
vt 0.112701 0.867690
vt 0.045403 0.964512
vt 0.074193 0.696520
vt 0.035924 0.698556
vt 0.043072 0.390049
vt 0.107855 0.692121
vt 0.761672 0.510307
vt 0.964166 0.437993
vt 0.726027 0.671794
vt 0.535193 0.961259
vt 0.962440 0.961973
vt 0.854626 0.835138
vt 0.581272 0.699422
vt 0.726027 0.671794
vt 0.761672 0.510307
vt 0.964166 0.437993
vt 0.854626 0.835138
vt 0.962440 0.961973
vt 0.535193 0.961259
vt 0.869927 0.280134
vt 0.792534 0.196947
vt 0.963738 0.034529
vt 0.687063 0.291128
vt 0.638047 0.238737
vt 0.715763 0.115512
vt 0.662173 0.041931
vt 0.792534 0.196947
vt 0.796406 0.412490
vt 0.715763 0.115512
vt 0.638047 0.238737
vt 0.963738 0.034529
vt 0.869927 0.280134
vt 0.687063 0.291128
vt 0.960450 0.395824
vt 0.444460 0.442877
vt 0.649053 0.296032
vt 0.362180 0.366267
vt 0.128654 0.854238
vt 0.246605 0.273945
vt 0.444460 0.442877
vt 0.649053 0.296032
vt 0.246605 0.273945
vt 0.128654 0.854238
vt 0.362180 0.366267
vn -0.634269 0.165071 0.755284
vn -0.404358 0.720812 0.562961
vn -0.576497 -0.327774 0.748476
vn -0.589868 0.093358 0.802085
vn -0.321080 -0.722551 0.612232
vn -0.672586 0.084154 0.735219
vn -0.662484 -0.025556 0.748640
vn -0.840454 -0.023614 0.541367
vn -0.697466 -0.123524 0.705892
vn -0.967203 0.134615 0.215399
vn 0.104290 -0.067623 0.992245
vn 0.725348 -0.174541 0.665887
vn 0.192315 -0.776558 0.599977
vn 0.543915 -0.130141 0.828987
vn 0.509063 0.585897 0.630540
vn 0.440266 0.844330 0.305407
vn 0.018833 -0.959969 0.279472
vn 0.917243 -0.205518 0.341216
vn -0.000002 -0.379220 -0.925307
vn -0.973199 -0.198125 -0.116752
vn 0.000001 0.994680 -0.103013
vn -0.000008 -0.272019 0.962292
vn -0.000001 -0.946738 0.322004
vn -0.872965 -0.484978 0.052232
vn -0.000001 -0.395402 0.918508
vn -0.976763 0.193911 0.091281
vn 0.000000 -0.032105 -0.999484
vn -0.000001 -0.607984 -0.793949
vn -0.489982 -0.063742 0.869399
vn -0.986714 -0.162212 0.009090
vn -0.532636 -0.189801 -0.824787
vn -0.000001 -0.999988 -0.004952
vn 0.532636 -0.189801 -0.824787
vn 0.000001 0.989361 -0.145478
vn 0.016823 0.165067 0.986139
vn 0.064162 0.720811 0.690156
vn 0.055956 -0.327776 0.943097
vn 0.081036 0.093353 0.992330
vn 0.159337 -0.722552 0.672703
vn -0.025260 0.084150 0.996133
vn -0.008830 -0.025560 0.999634
vn -0.279129 -0.023616 0.959963
vn -0.063274 -0.123525 0.990322
vn -0.588640 0.134613 0.797108
vn 0.729684 -0.067626 0.680432
vn 0.606908 0.165068 0.777441
vn 0.466585 0.720812 0.512570
vn 0.612259 -0.327775 0.719515
vn 0.661917 0.093355 0.743741
vn 0.532099 -0.722550 0.441352
vn 0.579315 0.084149 0.810748
vn 0.594544 -0.025561 0.803657
vn 0.354798 -0.023617 0.934645
vn 0.545461 -0.123524 0.828984
vn 0.009599 0.134613 0.990852
vn 0.992246 -0.067624 0.104286
vn 0.576496 -0.327774 0.748476
vn 0.404362 0.720811 0.562959
vn 0.634270 0.165070 0.755284
vn 0.321078 -0.722551 0.612233
vn 0.589869 0.093357 0.802084
vn 0.662483 -0.025559 0.748641
vn 0.672586 0.084151 0.735219
vn 0.840454 -0.023617 0.541368
vn 0.967203 0.134612 0.215400
vn 0.697463 -0.123525 0.705894
vn -0.104294 -0.067623 0.992245
vn -0.543916 -0.130140 0.828987
vn -0.192318 -0.776557 0.599978
vn -0.725348 -0.174539 0.665888
vn -0.440264 0.844331 0.305407
vn -0.509062 0.585897 0.630540
vn -0.018834 -0.959969 0.279472
vn -0.917243 -0.205515 0.341217
vn 0.973199 -0.198120 -0.116753
vn 0.976763 0.193909 0.091281
vn 0.872520 -0.485933 0.050773
vn 0.986714 -0.162213 0.009090
vn 0.494436 -0.073718 0.866082
vn -0.055958 -0.327775 0.943097
vn -0.064157 0.720811 0.690156
vn -0.016823 0.165066 0.986139
vn -0.159342 -0.722551 0.672703
vn -0.081037 0.093353 0.992330
vn 0.008830 -0.025560 0.999634
vn 0.025260 0.084150 0.996133
vn 0.279130 -0.023618 0.959963
vn 0.588643 0.134609 0.797107
vn 0.063281 -0.123528 0.990321
vn -0.729684 -0.067621 0.680433
vn -0.612261 -0.327772 0.719515
vn -0.466586 0.720813 0.512569
vn -0.606908 0.165070 0.777441
vn -0.532099 -0.722549 0.441354
vn -0.661917 0.093357 0.743741
vn -0.594542 -0.025552 0.803659
vn -0.579312 0.084157 0.810750
vn -0.354796 -0.023615 0.934645
vn -0.009598 0.134614 0.990852
vn -0.545456 -0.123524 0.828987
vn -0.992246 -0.067621 0.104286
s 1
g GO_MO_kitimandib_LOD
usemtl GO_MO_kitimandib_LODSG1
f 2/1/1 3/2/2 4/3/3
f 1/4/4 4/3/3 5/5/5
f 6/6/6 7/7/7 4/3/3
f 7/7/7 5/5/5 4/3/3
f 7/7/7 6/6/6 8/8/8
f 9/9/9 8/8/8 10/10/10
f 3/2/2 6/6/6 4/3/3
f 4/3/3 1/4/4 2/1/1
f 11/11/11 7/7/7 8/8/8
f 6/6/6 10/10/10 8/8/8
f 11/11/11 8/8/8 9/9/9
s 4
f 26/12/12 25/13/13 24/14/14
f 26/12/12 23/15/15 28/16/16
f 26/12/12 27/17/17 25/13/13
f 23/15/15 26/12/12 24/14/14
f 27/17/17 26/12/12 29/18/18
f 28/16/16 29/18/18 26/12/12
s 5
f 14/115/19 30/118/20 13/114/21
f 13/114/21 30/118/20 12/117/22
f 30/118/20 14/115/19 15/116/23
f 15/116/23 12/117/22 30/118/20
s 6
f 16/83/24 19/84/25 24/86/26
f 18/82/27 17/81/28 16/83/24
f 22/94/29 16/97/24 31/95/30
f 31/95/30 16/97/24 1/99/31
f 22/94/29 31/95/30 13/96/32
f 31/95/30 1/99/31 13/96/32
f 16/97/24 17/98/28 1/99/31
usemtl GO_MO_kitimandib_LODSG
f 13/105/32 1/100/31 21/103/33
f 21/103/33 1/100/31 17/104/28
usemtl GO_MO_kitimandib_LODSG1
f 24/86/26 20/85/34 18/82/27
s 9
f 32/22/35 34/23/36 33/24/37
f 31/20/38 33/24/37 35/25/39
f 36/26/40 37/27/41 33/24/37
f 37/27/41 35/25/39 33/24/37
f 37/27/41 36/26/40 40/28/42
f 41/29/43 40/28/42 38/30/44
f 34/23/36 36/26/40 33/24/37
f 33/24/37 31/20/38 32/22/35
f 39/31/45 37/27/41 40/28/42
f 36/26/40 38/30/44 40/28/42
f 39/31/45 40/28/42 41/29/43
s 6
f 24/86/26 18/82/27 16/83/24
f 19/84/25 20/85/34 24/86/26
s 12
f 42/32/46 43/33/47 44/34/48
f 22/19/49 44/34/48 45/35/50
f 46/36/51 47/37/52 44/34/48
f 47/37/52 45/35/50 44/34/48
f 47/37/52 46/36/51 48/38/53
f 49/39/54 48/38/53 50/40/55
f 43/33/47 46/36/51 44/34/48
f 44/34/48 22/19/49 42/32/46
f 51/41/56 47/37/52 48/38/53
f 46/36/51 50/40/55 48/38/53
f 51/41/56 48/38/53 49/39/54
s 15
usemtl GO_MO_kitimandib_LODSG
f 54/42/57 53/43/58 52/44/59
f 55/45/60 54/42/57 21/21/61
f 54/42/57 55/45/60 57/46/62
f 56/47/63 54/42/57 57/46/62
f 58/48/64 56/47/63 57/46/62
f 60/49/65 58/48/64 59/50/66
f 54/42/57 56/47/63 53/43/58
f 52/44/59 21/21/61 54/42/57
f 58/48/64 57/46/62 61/51/67
f 58/48/64 60/49/65 56/47/63
f 59/50/66 58/48/64 61/51/67
s 17
f 63/52/68 64/53/69 65/54/70
f 67/55/71 62/56/72 65/54/70
f 64/53/69 66/57/73 65/54/70
f 63/52/68 65/54/70 62/56/72
f 68/58/74 65/54/70 66/57/73
f 65/54/70 68/58/74 67/55/71
s 5
f 13/109/21 69/111/75 14/110/19
f 12/112/22 69/111/75 13/109/21
f 15/113/23 14/110/19 69/111/75
f 69/111/75 12/112/22 15/113/23
s 6
f 63/91/76 19/93/25 70/88/77
f 63/91/76 70/88/77 18/90/27
f 71/101/78 70/107/77 72/106/79
f 21/103/33 70/107/77 71/101/78
f 13/105/32 71/101/78 72/106/79
f 13/105/32 21/103/33 71/101/78
f 70/107/77 16/102/24 22/108/29
f 21/103/33 17/104/28 70/107/77
f 13/105/32 72/106/79 22/108/29
f 72/106/79 70/107/77 22/108/29
f 18/90/27 20/92/34 63/91/76
s 19
f 74/61/80 75/62/81 73/63/82
f 76/64/83 74/61/80 71/59/84
f 74/61/80 76/64/83 78/65/85
f 77/66/86 74/61/80 78/65/85
f 81/67/87 77/66/86 78/65/85
f 79/68/88 81/67/87 82/69/89
f 74/61/80 77/66/86 75/62/81
f 73/63/82 71/59/84 74/61/80
f 81/67/87 78/65/85 80/70/90
f 81/67/87 79/68/88 77/66/86
f 82/69/89 81/67/87 80/70/90
s 6
f 16/87/24 70/88/77 19/93/25
f 70/88/77 17/89/28 18/90/27
f 63/91/76 20/92/34 19/93/25
s 21
f 85/71/91 84/72/92 83/73/93
f 86/74/94 85/71/91 72/60/95
f 85/71/91 86/74/94 88/75/96
f 87/76/97 85/71/91 88/75/96
f 89/77/98 87/76/97 88/75/96
f 91/78/99 89/77/98 90/79/100
f 85/71/91 87/76/97 84/72/92
f 83/73/93 72/60/95 85/71/91
f 89/77/98 88/75/96 92/80/101
f 89/77/98 91/78/99 87/76/97
f 90/79/100 89/77/98 92/80/101
