# This file uses meters as units for non-parametric coordinates.

mtllib go_mo_kazoar_lod.max.fobj.mtl
g skinCluster1Set tweakSet1
v -0.120583 -12.145394 75.489598
v -3.727294 -8.230124 74.188024
v -0.121347 -3.459223 72.680964
v -0.120596 -20.516661 59.039281
v -11.053082 -10.422099 66.797017
v -0.120580 6.492621 55.880447
v -6.339946 -8.071516 41.831489
v -0.120657 3.268817 33.797693
v -0.120648 -5.598903 30.477124
v -0.120564 -1.988949 -63.989983
v -0.120558 -16.533607 85.344087
v -4.910604 -5.828078 85.017794
v -0.120574 -0.962869 80.370782
v -0.120555 -8.131196 90.024436
v -4.515339 -0.440625 90.530979
v -0.120576 8.325899 86.408711
v -0.120545 -8.206832 99.739492
v -0.120573 8.242750 96.068059
v -0.120574 20.136927 91.523045
v -0.120585 21.899453 84.378535
v -8.967429 -13.847958 51.943369
v -48.951620 -2.420415 83.913767
v -146.458523 -11.374685 85.306483
v -33.941146 -17.583934 40.480592
v -89.991084 -25.474326 53.155972
v -10.775320 -16.257264 37.310136
v -13.768286 -13.680474 35.469433
v -17.993273 -33.492572 15.888961
v -28.659557 -25.386911 35.627220
v -17.031624 -41.943992 10.124208
v -18.216104 -21.044980 32.024593
v -5.056321 -1.829472 31.838387
v -29.673028 -37.263002 26.306906
v 3.485996 -8.230125 74.188014
v 10.811902 -10.422107 66.796963
v 6.098683 -8.071501 41.831478
v 4.669458 -5.828073 85.017784
v 4.274206 -0.440620 90.530969
v 8.726184 -13.847975 51.943316
v 48.710499 -2.420404 83.913512
v 146.217513 -11.374604 85.305983
v 33.699923 -17.583964 40.480427
v 89.749925 -25.474263 53.155685
v 10.534055 -16.257223 37.310125
v 13.527008 -13.680431 35.469412
v 17.751950 -33.492529 15.888924
v 28.418289 -25.386861 35.627151
v 16.790288 -41.943952 10.124181
v 17.974824 -21.044932 32.024561
v 4.815017 -1.829467 31.838371
v 29.431736 -37.262946 26.306831
vt 0.410803 0.483375
vt 0.317718 0.138561
vt 0.934986 0.120996
vt 0.959137 0.508820
vt 0.055524 0.470293
vt 0.041401 0.166054
vt 0.934986 0.120996
vt 0.317718 0.138561
vt 0.410803 0.483374
vt 0.959137 0.508820
vt 0.041401 0.166053
vt 0.055524 0.470293
vt 0.272629 0.494548
vt 0.276352 0.643403
vt 0.345853 0.620462
vt 0.378569 0.853897
vt 0.497578 0.927910
vt 0.664674 0.765007
vt 0.692830 0.721725
vt 0.695898 0.672200
vt 0.580613 0.645063
vt 0.966881 0.090434
vt 0.171448 0.487665
vt 0.174516 0.668542
vt 0.306259 0.880023
vt 0.105329 0.507749
vt 0.122673 0.724926
vt 0.231234 0.919302
vt 0.036081 0.574810
vt 0.664331 0.508557
vt 0.483095 0.637504
vt 0.048708 0.815804
vt 0.345853 0.620462
vt 0.276352 0.643403
vt 0.692830 0.721725
vt 0.580613 0.645063
vt 0.174516 0.668542
vt 0.122673 0.724926
vt 0.180527 0.958731
vt 0.046435 0.956658
vt 0.483095 0.637504
vt 0.079838 0.041420
vt 0.065769 0.092134
vt 0.966881 0.090434
vt 0.047345 0.145492
vt 0.065769 0.092134
vt 0.079838 0.041420
vt 0.047345 0.145492
vt 0.640641 0.823481
vt 0.553278 0.951009
vt 0.895565 0.923490
vt 0.641036 0.877717
vt 0.716266 0.748990
vt 0.932886 0.520288
vt 0.959607 0.857790
vt 0.694136 0.512508
vt 0.895565 0.923489
vt 0.553278 0.951009
vt 0.640641 0.823481
vt 0.641036 0.877717
vt 0.716266 0.748990
vt 0.959607 0.857790
vt 0.932886 0.520288
vt 0.694136 0.512508
vn 0.000001 -0.951159 0.308700
vn -0.964391 0.074469 0.253782
vn -0.975406 0.014508 0.219936
vn -0.000023 0.899664 0.436584
vn 0.000017 0.997075 0.076432
vn -0.000002 0.997007 -0.077310
vn -0.976745 0.203497 -0.067519
vn -0.000000 -0.992167 -0.124918
vn -0.954406 -0.196645 -0.224588
vn -0.000098 0.851868 -0.523756
vn 0.000002 -0.961085 0.276254
vn -0.995870 -0.089401 0.015822
vn 0.000014 0.821743 -0.569858
vn 0.000001 -0.921379 0.388665
vn -0.976664 0.140951 0.162051
vn -0.000001 0.874101 -0.485745
vn 0.000002 -0.219641 0.975581
vn 0.000000 -0.997221 0.074505
vn -0.957690 -0.139962 -0.251478
vn 0.117628 -0.863567 0.490322
vn 0.115820 -0.926295 0.358558
vn 0.117300 -0.895368 0.429601
vn -0.146272 0.788806 -0.596984
vn 0.517818 0.568895 -0.638924
vn 0.041830 -0.724901 -0.687581
vn 0.546190 -0.660745 0.514871
vn -0.773765 -0.474671 0.419493
vn 0.085385 -0.848590 0.522116
vn -0.000000 0.684269 0.729230
vn 0.039952 -0.972398 0.229885
vn -0.045305 -0.953234 0.298819
vn 0.610074 -0.571925 0.548372
vn 0.683347 -0.356746 0.637001
vn 0.659820 -0.504005 0.557329
vn 0.573172 -0.601207 0.556798
vn 0.469525 -0.569541 0.674663
vn 0.975400 0.014532 0.219962
vn 0.964394 0.074564 0.253742
vn 0.976745 0.203497 -0.067519
vn 0.954405 -0.196645 -0.224592
vn 0.995870 -0.089401 0.015813
vn 0.976664 0.140952 0.162049
vn 1.000000 0.000001 -0.000000
vn 1.000000 0.000000 -0.000001
vn 1.000000 0.000000 -0.000001
vn 1.000000 -0.000001 -0.000002
vn 0.957688 -0.139963 -0.251482
vn -0.117298 -0.895368 0.429601
vn -0.115818 -0.926295 0.358559
vn -0.117626 -0.863567 0.490323
vn -0.041839 -0.724903 -0.687579
vn -0.517821 0.568894 -0.638921
vn 0.146268 0.788806 -0.596984
vn -0.546186 -0.660747 0.514873
vn 0.773769 -0.474669 0.419489
vn -0.085383 -0.848589 0.522117
vn 0.045306 -0.953234 0.298819
vn -0.039951 -0.972397 0.229885
vn -0.659818 -0.504006 0.557331
vn -0.683344 -0.356747 0.637003
vn -0.610072 -0.571925 0.548374
vn -0.573170 -0.601207 0.556800
vn -0.469523 -0.569541 0.674664
s 1
g GO_MO_kazoar_LOD
usemtl GO_MO_kazoar_LODSG
f 1/13/1 2/14/2 5/15/3
f 5/15/3 2/14/2 3/16/4
f 5/15/3 3/16/4 6/17/5
f 6/17/5 8/18/6 32/19/7
f 9/20/8 7/21/9 32/19/7
f 9/42/8 32/43/7 10/44/10
f 32/43/7 8/45/6 10/44/10
f 1/13/1 11/23/11 2/14/2
f 12/24/12 13/25/13 2/14/2
f 3/16/4 2/14/2 13/25/13
f 11/23/11 14/26/14 12/24/12
f 12/24/12 15/27/15 13/25/13
f 15/27/15 16/28/16 13/25/13
f 17/29/17 12/24/12 14/26/14
f 9/20/8 4/30/18 7/21/9
f 4/30/18 21/31/19 7/21/9
f 6/17/5 32/19/7 7/21/9
s 6
f 25/7/20 24/8/21 22/9/22
s 7
usemtl GO_MO_kazoar_LODSG1
f 27/49/23 7/50/24 28/51/25
f 7/50/24 26/52/26 28/51/25
f 26/52/26 27/49/23 31/53/27
f 28/51/25 31/53/27 27/49/23
f 28/51/25 26/52/26 31/53/27
s 6
usemtl GO_MO_kazoar_LODSG
f 22/9/22 23/10/28 25/7/20
s 1
f 18/32/29 16/28/16 15/27/15
f 18/32/29 15/27/15 17/29/17
f 17/29/17 15/27/15 12/24/12
f 11/23/11 12/24/12 2/14/2
f 4/30/18 5/15/3 21/31/19
f 4/30/18 1/13/1 5/15/3
f 7/21/9 21/31/19 6/17/5
s 6
f 21/11/30 5/12/31 24/8/21
f 22/9/22 24/8/21 5/12/31
s 7
usemtl GO_MO_kazoar_LODSG1
f 27/49/23 26/52/26 7/50/24
s 1
usemtl GO_MO_kazoar_LODSG
f 21/31/19 5/15/3 6/17/5
s 8
usemtl GO_MO_kazoar_LODSG1
f 33/54/32 30/55/33 28/51/34
f 28/51/34 31/53/35 33/54/32
f 33/54/32 31/53/35 29/56/36
s 1
usemtl GO_MO_kazoar_LODSG
f 35/33/37 34/34/38 1/13/1
f 3/16/4 34/34/38 35/33/37
f 6/17/5 3/16/4 35/33/37
f 50/35/39 8/18/6 6/17/5
f 50/35/39 36/36/40 9/20/8
f 10/22/10 50/46/39 9/47/8
f 10/22/10 8/48/6 50/46/39
f 34/34/38 11/23/11 1/13/1
f 34/34/38 13/25/13 37/37/41
f 13/25/13 34/34/38 3/16/4
f 37/37/41 14/26/14 11/23/11
f 13/25/13 38/38/42 37/37/41
f 13/25/13 16/28/16 38/38/42
f 14/26/14 37/37/41 17/29/17
s 10
f 16/28/43 20/39/44 18/32/45
f 19/40/46 18/32/45 20/39/44
s 1
f 36/36/40 4/30/18 9/20/8
f 36/36/40 39/41/47 4/30/18
f 36/36/40 50/35/39 6/17/5
s 11
f 40/1/48 42/2/49 43/3/50
s 12
f 46/57/51 36/58/52 45/59/53
f 46/57/51 44/60/54 36/58/52
f 49/61/55 45/59/53 44/60/54
f 45/59/53 49/61/55 46/57/51
f 49/61/55 44/60/54 46/57/51
s 11
f 43/3/50 41/4/56 40/1/48
s 1
f 38/38/42 16/28/16 18/32/29
f 17/29/17 38/38/42 18/32/29
f 37/37/41 38/38/42 17/29/17
f 34/34/38 37/37/41 11/23/11
f 39/41/47 35/33/37 4/30/18
f 35/33/37 1/13/1 4/30/18
f 6/17/5 39/41/47 36/36/40
s 11
f 42/2/49 35/5/57 39/6/58
f 35/5/57 42/2/49 40/1/48
s 12
f 36/58/52 44/60/54 45/59/53
s 1
f 6/17/5 35/33/37 39/41/47
s 13
f 46/57/59 48/62/60 51/63/61
f 51/63/61 49/61/62 46/57/59
f 47/64/63 49/61/62 51/63/61
g default
v 8.002383 -17.815000 -10.229717
v 84.256835 -29.211275 -4.838417
v 8.207464 -17.845646 -13.195157
v 84.461915 -29.241922 -7.803857
v 8.496695 -14.507471 -10.229713
v 84.751147 -25.903746 -4.838414
v 8.701776 -14.538117 -13.195154
v 84.956228 -25.934393 -7.803854
vn -0.147809 -0.989016 -0.000001
vn -0.147809 -0.989016 -0.000001
vn -0.147809 -0.989016 -0.000001
vn -0.147809 -0.989016 -0.000001
vn 0.147809 0.989016 0.000001
vn 0.147809 0.989016 0.000001
vn 0.147809 0.989016 0.000001
vn 0.147809 0.989016 0.000001
vn -0.068988 0.010309 0.997564
vn -0.068988 0.010309 0.997564
vn -0.068988 0.010309 0.997564
vn -0.068988 0.010309 0.997564
vn 0.986607 -0.147449 0.069755
vn 0.986607 -0.147449 0.069755
vn 0.986607 -0.147449 0.069755
vn 0.986607 -0.147449 0.069755
vn 0.068988 -0.010309 -0.997564
vn 0.068988 -0.010309 -0.997564
vn 0.068988 -0.010309 -0.997564
vn 0.068988 -0.010309 -0.997564
vn -0.986607 0.147449 -0.069755
vn -0.986607 0.147449 -0.069755
vn -0.986607 0.147449 -0.069755
vn -0.986607 0.147449 -0.069755
s off
g initialShadingGroup Box01
f 52//64 54//65 55//66 53//67
f 56//68 57//69 59//70 58//71
f 52//72 53//73 57//74 56//75
f 53//76 55//77 59//78 57//79
f 55//80 54//81 58//82 59//83
f 54//84 52//85 56//86 58//87
g default
v -9.042878 -17.729280 -12.933835
v -85.313259 -28.930420 -7.361998
v -8.856226 -17.527829 -9.973867
v -85.126607 -28.728969 -4.402030
v -9.541808 -14.428094 -13.127047
v -85.812189 -25.629234 -7.555210
v -9.355156 -14.226643 -10.167079
v -85.625537 -25.427784 -4.595242
vn 0.149190 -0.987119 0.057774
vn 0.149190 -0.987119 0.057774
vn 0.149190 -0.987119 0.057774
vn 0.149190 -0.987119 0.057774
vn -0.149190 0.987119 -0.057774
vn -0.149190 0.987119 -0.057774
vn -0.149190 0.987119 -0.057774
vn -0.149190 0.987119 -0.057774
vn -0.062789 -0.067767 -0.995723
vn -0.062789 -0.067767 -0.995723
vn -0.062789 -0.067767 -0.995723
vn -0.062789 -0.067767 -0.995723
vn -0.986813 -0.144924 0.072090
vn -0.986813 -0.144924 0.072090
vn -0.986813 -0.144924 0.072090
vn -0.986813 -0.144924 0.072090
vn 0.062789 0.067767 0.995723
vn 0.062789 0.067767 0.995723
vn 0.062789 0.067767 0.995723
vn 0.062789 0.067767 0.995723
vn 0.986813 0.144924 -0.072090
vn 0.986813 0.144924 -0.072090
vn 0.986813 0.144924 -0.072090
vn 0.986813 0.144924 -0.072090
s off
g initialShadingGroup Box03
f 60//88 62//89 63//90 61//91
f 64//92 65//93 67//94 66//95
f 60//96 61//97 65//98 64//99
f 61//100 63//101 67//102 65//103
f 63//104 62//105 66//106 67//107
f 62//108 60//109 64//110 66//111
g default
v 84.832098 -28.674521 -4.784776
v 152.382852 -60.965234 -23.965190
v 84.071158 -28.560795 -7.656164
v 151.621912 -60.851509 -26.836578
v 86.213434 -25.638805 -5.030607
v 153.764188 -57.929519 -24.211021
v 85.452493 -25.525079 -7.901995
v 153.003248 -57.815793 -27.082409
vn -0.413047 -0.907739 0.073508
vn -0.413047 -0.907739 0.073508
vn -0.413047 -0.907739 0.073508
vn -0.413047 -0.907739 0.073508
vn 0.413047 0.907739 -0.073508
vn 0.413047 0.907739 -0.073508
vn 0.413047 0.907739 -0.073508
vn 0.413047 0.907739 -0.073508
vn 0.255978 -0.038257 0.965925
vn 0.255978 -0.038257 0.965925
vn 0.255978 -0.038257 0.965925
vn 0.255978 -0.038257 0.965925
vn 0.873995 -0.417789 -0.248163
vn 0.873995 -0.417789 -0.248163
vn 0.873995 -0.417789 -0.248163
vn 0.873995 -0.417789 -0.248163
vn -0.255978 0.038257 -0.965925
vn -0.255978 0.038257 -0.965925
vn -0.255978 0.038257 -0.965925
vn -0.255978 0.038257 -0.965925
vn -0.873995 0.417789 0.248163
vn -0.873995 0.417789 0.248163
vn -0.873995 0.417789 0.248163
vn -0.873995 0.417789 0.248163
s off
g initialShadingGroup Box01 Box02
f 68//112 70//113 71//114 69//115
f 72//116 73//117 75//118 74//119
f 68//120 69//121 73//122 72//123
f 69//124 71//125 75//126 73//127
f 71//128 70//129 74//130 75//131
f 70//132 68//133 72//134 74//135
g default
v -85.723705 -28.193745 -7.411647
v -152.253899 -61.291213 -28.671286
v -86.496268 -28.475719 -4.554994
v -153.026462 -61.573186 -25.814633
v -87.187166 -25.188326 -7.510773
v -153.717360 -58.285793 -28.770411
v -87.959730 -25.470299 -4.654120
v -154.489924 -58.567767 -25.913758
vn 0.437604 -0.898679 0.029641
vn 0.437604 -0.898679 0.029641
vn 0.437604 -0.898679 0.029641
vn 0.437604 -0.898679 0.029641
vn -0.437604 0.898679 -0.029641
vn -0.437604 0.898679 -0.029641
vn -0.437604 0.898679 -0.029641
vn -0.437604 0.898679 -0.029641
vn 0.259888 0.094855 -0.960969
vn 0.259888 0.094855 -0.960969
vn 0.259888 0.094855 -0.960969
vn 0.259888 0.094855 -0.960969
vn -0.860791 -0.428227 -0.275065
vn -0.860791 -0.428227 -0.275065
vn -0.860791 -0.428227 -0.275065
vn -0.860791 -0.428227 -0.275065
vn -0.259888 -0.094855 0.960969
vn -0.259888 -0.094855 0.960969
vn -0.259888 -0.094855 0.960969
vn -0.259888 -0.094855 0.960969
vn 0.860791 0.428227 0.275065
vn 0.860791 0.428227 0.275065
vn 0.860791 0.428227 0.275065
vn 0.860791 0.428227 0.275065
s off
g initialShadingGroup Box03 Box04
f 76//136 78//137 79//138 77//139
f 80//140 81//141 83//142 82//143
f 76//144 77//145 81//146 80//147
f 77//148 79//149 83//150 81//151
f 79//152 78//153 82//154 83//155
f 78//156 76//157 80//158 82//159
g default
v 54.534990 4.234891 10.986156
v 87.977603 4.234900 10.986098
v 54.534931 4.234932 -21.645727
v 87.977544 4.234942 -21.645785
v 54.534998 -28.194313 10.986116
v 87.977612 -28.194303 10.986058
v 54.534940 -28.194271 -21.645767
v 87.977553 -28.194262 -21.645825
vn -0.000000 1.000000 0.000001
vn -0.000000 1.000000 0.000001
vn -0.000000 1.000000 0.000001
vn -0.000000 1.000000 0.000001
vn 0.000000 -1.000000 -0.000001
vn 0.000000 -1.000000 -0.000001
vn 0.000000 -1.000000 -0.000001
vn 0.000000 -1.000000 -0.000001
vn 0.000002 -0.000001 1.000000
vn 0.000002 -0.000001 1.000000
vn 0.000002 -0.000001 1.000000
vn 0.000002 -0.000001 1.000000
vn 1.000000 0.000000 -0.000002
vn 1.000000 0.000000 -0.000002
vn 1.000000 0.000000 -0.000002
vn 1.000000 0.000000 -0.000002
vn -0.000002 0.000001 -1.000000
vn -0.000002 0.000001 -1.000000
vn -0.000002 0.000001 -1.000000
vn -0.000002 0.000001 -1.000000
vn -1.000000 -0.000000 0.000002
vn -1.000000 -0.000000 0.000002
vn -1.000000 -0.000000 0.000002
vn -1.000000 -0.000000 0.000002
s off
g initialShadingGroup Box07
f 84//160 85//161 87//162 86//163
f 88//164 90//165 91//166 89//167
f 84//168 88//169 89//170 85//171
f 85//172 89//173 91//174 87//175
f 87//176 91//177 90//178 86//179
f 86//180 90//181 88//182 84//183
g default
v -88.040098 4.234846 10.935668
v -54.597478 4.234857 10.935616
v -88.040150 4.234889 -21.696226
v -54.597530 4.234900 -21.696277
v -88.040087 -28.194364 10.935626
v -54.597466 -28.194352 10.935574
v -88.040139 -28.194321 -21.696267
v -54.597518 -28.194309 -21.696319
vn -0.000000 1.000000 0.000001
vn -0.000000 1.000000 0.000001
vn -0.000000 1.000000 0.000001
vn -0.000000 1.000000 0.000001
vn 0.000000 -1.000000 -0.000001
vn 0.000000 -1.000000 -0.000001
vn 0.000000 -1.000000 -0.000001
vn 0.000000 -1.000000 -0.000001
vn 0.000002 -0.000001 1.000000
vn 0.000002 -0.000001 1.000000
vn 0.000002 -0.000001 1.000000
vn 0.000002 -0.000001 1.000000
vn 1.000000 0.000000 -0.000002
vn 1.000000 0.000000 -0.000002
vn 1.000000 0.000000 -0.000002
vn 1.000000 0.000000 -0.000002
vn -0.000002 0.000001 -1.000000
vn -0.000002 0.000001 -1.000000
vn -0.000002 0.000001 -1.000000
vn -0.000002 0.000001 -1.000000
vn -1.000000 -0.000000 0.000002
vn -1.000000 -0.000000 0.000002
vn -1.000000 -0.000000 0.000002
vn -1.000000 -0.000000 0.000002
s off
g initialShadingGroup Box06
f 92//184 93//185 95//186 94//187
f 96//188 98//189 99//190 97//191
f 92//192 96//193 97//194 93//195
f 93//196 97//197 99//198 95//199
f 95//200 99//201 98//202 94//203
f 94//204 98//205 96//206 92//207
