# This file uses meters as units for non-parametric coordinates.

mtllib tr_mo_sagass_lod.max.fobj.mtl
g default
v -20.367980 182.058495 -101.414254
v 0.000000 179.972927 -378.737652
v 0.000000 178.279428 -61.452505
v 0.000000 137.898177 -188.526142
v 0.000000 197.514901 -115.989229
v -20.675796 196.261792 -35.219979
v -14.630365 184.915392 -2.243161
v -29.807630 206.854736 19.995797
v 0.000000 236.707279 38.944566
v -34.843543 194.647593 115.235460
v 0.000000 171.862158 176.450026
v 0.000000 189.910703 210.865700
v -15.238790 156.595847 128.175604
v 0.000000 148.858774 120.103633
v 0.000000 154.064584 221.275079
v 0.000000 205.624528 -195.978916
v -22.412586 176.828443 102.998722
v 0.000000 167.938155 94.264269
v -49.758673 171.721101 -115.829152
v 0.000000 179.252699 42.207646
v -60.139483 171.219106 -108.753216
v -67.824107 161.069751 -101.374431
v -64.130396 167.127919 -188.511908
v -149.189448 136.917627 -273.958480
v -160.758710 130.250221 -262.113297
v 0.000000 198.906539 -63.747597
v -89.200163 185.810144 102.397120
v -87.779933 191.151425 153.814709
v -89.490753 184.037711 142.066324
v -89.089429 200.317308 110.480797
v -97.212696 191.588698 116.281641
v 0.000000 233.962607 70.379305
v 0.000000 219.922161 -18.672669
v 20.367980 182.058495 -101.414254
v 20.675796 196.261792 -35.219979
v 14.630365 184.915392 -2.243161
v 29.807630 206.854736 19.995797
v 34.843543 194.647593 115.235460
v 15.238790 156.595847 128.175604
v 22.412586 176.828443 102.998722
v 49.758673 171.721101 -115.829152
v 60.139483 171.219106 -108.753216
v 67.824107 161.069751 -101.374431
v 64.130396 167.127919 -188.511908
v 149.189448 136.917627 -273.958480
v 160.758710 130.250221 -262.113297
v 89.200163 185.810144 102.397120
v 87.779933 191.151425 153.814709
v 89.490753 184.037711 142.066324
v 89.089429 200.317308 110.480797
v 97.212696 191.588698 116.281641
vt 0.723693 0.119213
vt 0.769988 0.170036
vt 0.723693 0.119213
vt 0.720349 0.164008
vt 0.698889 0.360185
vt 0.680258 0.345200
vt 0.655648 0.360057
vt 0.733786 0.238127
vt 0.733786 0.238127
vt 0.769988 0.238127
vt 0.720349 0.164008
vt 0.769988 0.326046
vt 0.741759 0.035057
vt 0.742987 0.407689
vt 0.710288 0.528680
vt 0.767137 0.402743
vt 0.739598 0.544137
vt 0.676496 0.225263
vt 0.646541 0.220904
vt 0.705530 0.227332
vt 0.762629 0.524742
vt 0.680258 0.345200
vt 0.698889 0.360185
vt 0.655648 0.360057
vt 0.742987 0.407689
vt 0.710288 0.528680
vt 0.767136 0.402743
vt 0.739598 0.544137
vt 0.676496 0.225263
vt 0.705530 0.227332
vt 0.646541 0.220904
vt 0.762629 0.524742
vt 0.769988 0.170036
vt 0.769988 0.238127
vt 0.816282 0.119213
vt 0.798216 0.035057
vt 0.769988 0.098533
vt 0.769987 0.056410
vt 0.769988 0.326046
vt 0.710703 0.232174
vt 0.670294 0.141172
vt 0.670294 0.141172
vt 0.710703 0.232174
vt 0.670294 0.141172
vt 0.670294 0.141172
vt 0.769987 0.056410
vt 0.741759 0.035057
vt 0.769988 0.098533
vt 0.723693 0.119213
vt 0.708372 0.314834
vt 0.708372 0.314834
vt 0.709927 0.408363
vt 0.708372 0.314834
vt 0.708372 0.314834
vt 0.709927 0.408363
vt 0.143407 0.061994
vt 0.182561 0.061993
vt 0.194780 0.239266
vt 0.129251 0.239266
vt 0.120448 0.178052
vt 0.120410 0.135525
vt 0.120088 0.306559
vt 0.117350 0.380235
vt 0.202542 0.175565
vt 0.162015 0.135787
vt 0.203620 0.135525
vt 0.162932 0.316362
vt 0.205776 0.306559
vt 0.208514 0.380235
vt 0.709927 0.408363
vt 0.708372 0.314834
vt 0.633485 0.075901
vt 0.257420 0.827821
vt 0.202943 0.888978
vt 0.225703 0.981357
vt 0.053901 0.553568
vt 0.890346 0.521560
vt 0.065292 0.133305
vt 0.566408 0.104162
vt 0.566408 0.055686
vt 0.897795 0.556590
vt 0.917761 0.571439
vt 0.917660 0.542207
vt 0.065292 0.187739
vt 0.858379 0.605211
vt 0.883067 0.475868
vt 0.347548 0.472225
vt 0.453195 0.470403
vt 0.972565 0.475868
vt 0.883067 0.212384
vt 0.347548 0.208741
vt 0.453195 0.206920
vt 0.972565 0.212384
vt 0.066072 0.133305
vt 0.065292 0.187739
vt 0.251551 0.068820
vt 0.257420 0.827821
vt 0.101775 0.809063
vt 0.202943 0.888978
vt 0.225703 0.981357
vt 0.055680 0.884350
vt 0.313570 0.104162
vt 0.313570 0.055686
vt 0.261806 0.133305
vt 0.262586 0.187739
vt 0.060298 0.721079
vt 0.121730 0.686473
vt 0.059969 0.614150
vt 0.161110 0.428700
vt 0.060298 0.721079
vt 0.059969 0.614150
vt 0.121730 0.686473
vt 0.053901 0.553568
vt 0.161110 0.428700
vt 0.101775 0.809063
vt 0.055680 0.884350
vt 0.546691 0.716904
vt 0.626770 0.592750
vt 0.572370 0.565736
vt 0.706851 0.716904
vt 0.681171 0.565736
vt 0.620110 0.668086
vt 0.680405 0.565736
vt 0.706806 0.715731
vt 0.546691 0.715731
vt 0.571059 0.565736
vt 0.082702 0.752367
vt 0.536728 0.746875
vt 0.479543 0.759129
vt 0.354889 0.615939
vt 0.458687 0.809247
vt 0.574266 0.805184
vt 0.621454 0.768393
vt 0.653278 0.839531
vt 0.808080 0.676566
vt 0.796529 0.651478
vt 0.941303 0.668358
vt 0.789563 0.799949
vt 0.772052 0.742170
vt 0.926407 0.784590
vt 0.877159 0.726067
vt 0.759554 0.713344
vt 0.303781 0.828505
vt 0.685062 0.750031
vt 0.659419 0.937091
vt 0.648295 0.936329
vt 0.597944 0.904151
vt 0.545109 0.938137
vt 0.565535 0.838484
vt 0.479544 0.759129
vt 0.574266 0.805184
vt 0.653278 0.839531
vt 0.621454 0.768393
vt 0.808080 0.676566
vt 0.789563 0.799949
vt 0.772053 0.742170
vt 0.474348 0.491285
vt 0.650579 0.479327
vt 0.468491 0.512701
vt 0.350900 0.590733
vt 0.174547 0.531922
vt 0.464753 0.538548
vt 0.184426 0.498894
vt 0.503883 0.574984
vt 0.474348 0.491285
vt 0.468491 0.512701
vt 0.650579 0.479327
vt 0.350900 0.590733
vt 0.174547 0.531922
vt 0.464753 0.538548
vt 0.184426 0.498894
vt 0.503883 0.574984
vt 0.897795 0.556590
vt 0.872621 0.520163
vt 0.872621 0.520163
vt 0.897795 0.556590
vt 0.897339 0.605994
vt 0.897339 0.605994
vt 0.858379 0.605211
vt 0.872621 0.520163
vt 0.872621 0.520163
vt 0.897339 0.605994
vt 0.897339 0.605994
vt 0.872621 0.520163
vt 0.262586 0.187739
vt 0.262586 0.133305
vt 0.842404 0.036984
vt 0.945844 0.036984
vt 0.945844 0.140425
vt 0.842404 0.140425
vt 0.842404 0.140425
vt 0.945844 0.036984
vt 0.842404 0.036984
vt 0.945844 0.140425
vt 0.247366 0.206920
vt 0.336864 0.206920
vt 0.336864 0.470404
vt 0.247366 0.470403
vt 0.437046 0.208741
vt 0.437046 0.472225
vt 0.542693 0.206920
vt 0.542693 0.470403
vn -0.999315 -0.000859 -0.036994
vn -0.051591 -0.998090 0.033981
vn -0.931111 0.342112 -0.126459
vn -0.999315 -0.000859 -0.036994
vn -1.000000 0.000000 0.000000
vn -0.051591 -0.998090 0.033981
vn -0.931111 0.342112 -0.126459
vn -0.033866 0.994372 -0.100387
vn -0.999315 -0.000859 -0.036994
vn -0.033866 0.994372 -0.100387
vn -0.931111 0.342112 -0.126459
vn -0.950402 0.276462 -0.142498
vn -0.950402 0.276462 -0.142498
vn -0.697446 -0.715809 0.034453
vn -0.988841 0.109007 -0.101547
vn -0.843180 -0.537212 0.021213
vn 0.000000 -0.950978 -0.309259
vn 0.000000 -0.118483 0.992956
vn -0.887903 -0.431112 0.160533
vn -0.742268 -0.659375 -0.119427
vn -0.000000 -0.931936 0.362622
vn -0.742268 -0.659375 -0.119427
vn -0.843180 -0.537212 0.021213
vn 0.000000 -0.140955 0.990016
vn -0.742268 -0.659375 -0.119427
vn 0.000000 -0.920912 -0.389771
vn 0.000000 -0.950978 -0.309259
vn 0.000000 -0.950978 -0.309259
vn -0.843180 -0.537212 0.021213
vn -0.742268 -0.659375 -0.119427
vn 0.000000 -0.140955 0.990016
vn -0.843180 -0.537212 0.021213
vn 0.000000 -0.118483 0.992956
vn -0.999315 -0.000859 -0.036994
vn -0.033866 0.994372 -0.100387
vn -1.000000 0.000000 0.000000
vn -0.697446 -0.715809 0.034453
vn -0.950402 0.276462 -0.142498
vn -0.931111 0.342112 -0.126459
vn -0.051591 -0.998090 0.033981
vn 0.000000 -0.989257 -0.146190
vn -0.697446 -0.715809 0.034453
vn -0.686530 0.688900 0.232582
vn -0.697446 -0.715809 0.034453
vn -0.455719 0.887259 0.071351
vn -0.291927 0.955821 -0.034421
vn -0.427519 0.902985 0.042958
vn -0.455719 0.887259 0.071351
vn -0.455719 0.887259 0.071351
vn -0.149244 0.977417 -0.149608
vn -0.291927 0.955821 -0.034421
vn -0.455719 0.887259 0.071351
vn -0.463356 0.883562 0.067971
vn -0.686530 0.688900 0.232582
vn -0.463356 0.883562 0.067971
vn -0.455719 0.887259 0.071351
vn -0.427519 0.902985 0.042958
vn -0.931111 0.342112 -0.126459
vn -0.149244 0.977417 -0.149608
vn -0.455719 0.887259 0.071351
vn -0.051591 -0.998090 0.033981
vn -0.697446 -0.715809 0.034453
vn -0.931111 0.342112 -0.126459
vn -0.425952 -0.854736 -0.296633
vn -0.887903 -0.431112 0.160533
vn -0.553464 -0.810482 0.191824
vn -0.553464 -0.810482 0.191824
vn -0.887903 -0.431112 0.160533
vn -0.000000 -0.931936 0.362622
vn -0.995622 0.007072 -0.093203
vn -0.786659 0.561462 -0.256765
vn -0.425952 -0.854736 -0.296633
vn -0.588373 -0.618860 0.520413
vn -0.786659 0.561462 -0.256765
vn -0.995622 0.007072 -0.093203
vn -0.995622 0.007072 -0.093203
vn -0.425952 -0.854736 -0.296633
vn -0.553464 -0.810482 0.191824
vn -0.553464 -0.810482 0.191824
vn -0.588373 -0.618860 0.520413
vn -0.995622 0.007072 -0.093203
vn -0.553464 -0.810482 0.191824
vn -0.000000 -0.931936 0.362622
vn -0.588373 -0.618860 0.520413
vn -0.742268 -0.659375 -0.119427
vn 0.000000 -0.989257 -0.146190
vn 0.000000 -0.920912 -0.389771
vn -0.742268 -0.659375 -0.119427
vn -0.988841 0.109007 -0.101547
vn 0.000000 -0.989257 -0.146190
vn -0.000000 0.991016 0.133742
vn -0.887903 -0.431112 0.160533
vn -0.000000 -0.931936 0.362622
vn 0.000000 -0.140955 0.990016
vn -0.000000 -0.931936 0.362622
vn -0.742268 -0.659375 -0.119427
vn -0.000000 0.991016 0.133742
vn 0.000000 0.998914 -0.046591
vn -0.988841 0.109007 -0.101547
vn -0.000000 0.991016 0.133742
vn -0.988841 0.109007 -0.101547
vn -0.887903 -0.431112 0.160533
vn -0.988841 0.109007 -0.101547
vn -0.742268 -0.659375 -0.119427
vn -0.887903 -0.431112 0.160533
vn -0.988841 0.109007 -0.101547
vn -0.697446 -0.715809 0.034453
vn 0.000000 -0.989257 -0.146190
vn -0.000000 0.941649 -0.336596
vn -0.950402 0.276462 -0.142498
vn -0.988841 0.109007 -0.101547
vn -0.000000 0.941649 -0.336596
vn 0.000000 0.993851 -0.110722
vn -0.950402 0.276462 -0.142498
vn -0.000000 0.941649 -0.336596
vn -0.988841 0.109007 -0.101547
vn 0.000000 0.998914 -0.046591
vn -0.033866 0.994372 -0.100387
vn -0.950402 0.276462 -0.142498
vn 0.000000 0.993851 -0.110722
vn -0.931111 0.342112 -0.126459
vn -0.455719 0.887259 0.071351
vn -0.697446 -0.715809 0.034453
vn -0.999315 -0.000859 -0.036994
vn 0.931111 0.342112 -0.126459
vn -0.051591 -0.998090 0.033981
vn 0.931111 0.342112 -0.126459
vn -0.999315 -0.000859 -0.036994
vn -0.033866 0.994372 -0.100387
vn -0.033866 0.994372 -0.100387
vn 0.950401 0.276462 -0.142498
vn 0.931111 0.342112 -0.126459
vn 0.950401 0.276462 -0.142498
vn 0.988841 0.109007 -0.101547
vn 0.697446 -0.715809 0.034453
vn 0.843180 -0.537212 0.021213
vn 0.000000 -0.118483 0.992956
vn 0.000000 -0.950978 -0.309259
vn 0.887903 -0.431112 0.160533
vn -0.000000 -0.931936 0.362622
vn 0.742268 -0.659375 -0.119427
vn 0.742268 -0.659375 -0.119427
vn 0.000000 -0.140955 0.990016
vn 0.843180 -0.537212 0.021213
vn 0.742268 -0.659375 -0.119427
vn 0.000000 -0.950978 -0.309259
vn 0.000000 -0.920912 -0.389771
vn 0.000000 -0.950978 -0.309259
vn 0.742268 -0.659375 -0.119427
vn 0.843180 -0.537212 0.021213
vn 0.000000 -0.140955 0.990016
vn 0.000000 -0.118483 0.992956
vn 0.843180 -0.537212 0.021213
vn 0.697446 -0.715809 0.034453
vn 0.931111 0.342112 -0.126459
vn 0.950401 0.276462 -0.142498
vn -0.051591 -0.998090 0.033981
vn 0.697446 -0.715809 0.034453
vn 0.000000 -0.989257 -0.146190
vn 0.686529 0.688900 0.232581
vn 0.455719 0.887259 0.071351
vn 0.697446 -0.715809 0.034453
vn 0.291927 0.955821 -0.034421
vn 0.455719 0.887259 0.071351
vn 0.427519 0.902985 0.042957
vn 0.455719 0.887259 0.071351
vn 0.291927 0.955821 -0.034421
vn 0.149244 0.977417 -0.149608
vn 0.455719 0.887259 0.071351
vn 0.686529 0.688900 0.232581
vn 0.463356 0.883562 0.067971
vn 0.463356 0.883562 0.067971
vn 0.427519 0.902985 0.042957
vn 0.455719 0.887259 0.071351
vn 0.931111 0.342112 -0.126459
vn 0.455719 0.887259 0.071351
vn 0.149244 0.977417 -0.149608
vn -0.051591 -0.998090 0.033981
vn 0.931111 0.342112 -0.126459
vn 0.697446 -0.715809 0.034453
vn 0.425952 -0.854736 -0.296633
vn 0.553464 -0.810482 0.191824
vn 0.887903 -0.431112 0.160533
vn 0.553464 -0.810482 0.191824
vn -0.000000 -0.931936 0.362622
vn 0.887903 -0.431112 0.160533
vn 0.995622 0.007072 -0.093203
vn 0.425952 -0.854736 -0.296633
vn 0.786659 0.561462 -0.256765
vn 0.588373 -0.618860 0.520413
vn 0.995622 0.007072 -0.093203
vn 0.786659 0.561462 -0.256765
vn 0.995622 0.007072 -0.093203
vn 0.553464 -0.810482 0.191824
vn 0.425952 -0.854736 -0.296633
vn 0.553464 -0.810482 0.191824
vn 0.995622 0.007072 -0.093203
vn 0.588373 -0.618860 0.520413
vn 0.553464 -0.810482 0.191824
vn 0.588373 -0.618860 0.520413
vn -0.000000 -0.931936 0.362622
vn 0.742268 -0.659375 -0.119427
vn 0.000000 -0.920912 -0.389771
vn 0.000000 -0.989257 -0.146190
vn 0.742268 -0.659375 -0.119427
vn 0.000000 -0.989257 -0.146190
vn 0.988841 0.109007 -0.101547
vn -0.000000 0.991016 0.133742
vn -0.000000 -0.931936 0.362622
vn 0.887903 -0.431112 0.160533
vn 0.000000 -0.140955 0.990016
vn 0.742268 -0.659375 -0.119427
vn -0.000000 -0.931936 0.362622
vn -0.000000 0.991016 0.133742
vn 0.988841 0.109007 -0.101547
vn 0.000000 0.998914 -0.046591
vn -0.000000 0.991016 0.133742
vn 0.887903 -0.431112 0.160533
vn 0.988841 0.109007 -0.101547
vn 0.988841 0.109007 -0.101547
vn 0.887903 -0.431112 0.160533
vn 0.742268 -0.659375 -0.119427
vn 0.988841 0.109007 -0.101547
vn 0.000000 -0.989257 -0.146190
vn 0.697446 -0.715809 0.034453
vn -0.000000 0.941649 -0.336596
vn 0.988841 0.109007 -0.101547
vn 0.950401 0.276462 -0.142498
vn -0.000000 0.941649 -0.336596
vn 0.950401 0.276462 -0.142498
vn 0.000000 0.993851 -0.110722
vn -0.000000 0.941649 -0.336596
vn 0.000000 0.998914 -0.046591
vn 0.988841 0.109007 -0.101547
vn -0.033866 0.994372 -0.100387
vn 0.000000 0.993851 -0.110722
vn 0.950401 0.276462 -0.142498
vn 0.931111 0.342112 -0.126459
vn 0.697446 -0.715809 0.034453
vn 0.455719 0.887259 0.071351
s off
g TR_MO_sagass_selle
usemtl TR_MO_sagass_selleSG
f 2/127/1 3/128/2 1/129/3
f 2/127/4 4/130/5 3/128/6
f 1/129/7 5/131/8 2/127/9
f 5/131/10 1/129/11 6/132/12
f 6/132/13 7/133/14 8/134/15
f 13/135/16 14/136/17 15/137/18
f 10/138/19 17/139/20 12/140/21
f 17/139/22 13/135/23 11/141/24
f 17/139/25 18/142/26 14/136/27
f 14/136/28 13/135/29 17/139/30
f 11/141/31 13/135/32 15/137/33
f 2/127/34 5/131/35 16/143/36
f 7/133/37 6/132/38 1/129/39
f 3/128/40 20/144/41 7/133/42
f 22/157/43 7/158/44 21/159/45
f 23/160/46 24/161/47 21/159/48
f 21/159/49 19/162/50 23/160/51
f 21/159/52 25/163/53 22/157/54
f 25/163/55 21/159/56 24/161/57
f 1/164/58 19/162/59 21/159/60
f 3/128/61 7/133/62 1/129/63
f 27/106/64 10/107/65 29/108/66
f 29/108/67 10/107/68 12/114/69
f 31/74/70 30/75/71 27/73/72
f 28/116/73 30/75/74 31/74/75
f 31/74/76 27/73/77 29/115/78
f 29/115/79 28/116/80 31/74/81
f 29/108/82 12/114/83 28/76/84
f 17/139/85 20/144/86 18/142/87
f 17/139/88 8/134/89 20/144/90
f 32/145/91 10/138/92 12/140/93
f 11/141/94 12/140/95 17/139/96
f 32/145/97 9/146/98 8/134/99
f 32/145/100 8/134/101 10/138/102
f 8/134/103 17/139/104 10/138/105
f 8/134/106 7/133/107 20/144/108
f 33/147/109 6/132/110 8/134/111
f 33/147/112 26/148/113 6/132/114
f 33/147/115 8/134/116 9/146/117
f 5/131/118 6/132/119 26/149/120
f 1/164/121 21/159/122 7/158/123
usemtl TR_MO_sagass_selleSG1
f 2/127/124 34/150/125 3/128/126
f 34/150/127 2/127/128 5/131/129
f 5/131/130 35/151/131 34/150/132
f 35/151/133 37/152/134 36/153/135
f 39/154/136 15/137/137 14/136/138
f 38/155/139 12/140/140 40/156/141
f 40/156/142 11/141/143 39/154/144
f 40/156/145 14/136/146 18/142/147
f 14/136/148 40/156/149 39/154/150
f 11/141/151 15/137/152 39/154/153
f 36/153/154 34/150/155 35/151/156
f 3/128/157 36/153/158 20/144/159
f 43/165/160 42/166/161 36/167/162
f 44/168/163 42/166/164 45/169/165
f 42/166/166 44/168/167 41/170/168
f 42/166/169 43/165/170 46/171/171
f 46/171/172 45/169/173 42/166/174
f 34/172/175 42/166/176 41/170/177
f 3/128/178 34/150/179 36/153/180
f 47/110/181 49/111/182 38/112/183
f 49/111/184 12/109/185 38/112/186
f 51/99/187 47/97/188 50/100/189
f 48/101/190 51/99/191 50/100/192
f 51/99/193 49/98/194 47/97/195
f 49/98/196 51/99/197 48/101/198
f 49/111/199 48/113/200 12/109/201
f 40/156/202 18/142/203 20/144/204
f 40/156/205 20/144/206 37/152/207
f 32/145/208 12/140/209 38/155/210
f 11/141/211 40/156/212 12/140/213
f 32/145/214 37/152/215 9/146/216
f 32/145/217 38/155/218 37/152/219
f 37/152/220 38/155/221 40/156/222
f 37/152/223 20/144/224 36/153/225
f 33/147/226 37/152/227 35/151/228
f 33/147/229 35/151/230 26/148/231
f 33/147/232 9/146/233 37/152/234
f 5/131/235 26/149/236 35/151/237
f 34/172/238 36/167/239 42/166/240
