# This file uses meters as units for non-parametric coordinates.

mtllib tr_mo_kamiforet_lod.max.fobj.mtl
g skinCluster1Set tweakSet1
v -0.001972 18.309093 -4.750140
v -0.001913 57.080223 17.370690
v -4.614800 6.565803 -3.023921
v -0.001975 19.996625 13.914626
v -0.001866 30.000386 14.100457
v -0.001966 13.553521 2.752134
v -0.001915 53.297094 0.965254
v -0.001913 55.471481 -6.058155
v -0.001912 78.159654 12.451576
v -0.001912 69.782852 -19.620778
v -0.001911 89.513049 -8.232679
v -31.688595 33.159444 -2.460595
v -32.888234 35.142243 -2.487479
v -32.090575 33.825824 -1.320246
v -9.314290 40.877240 -3.228108
v -3.958716 54.626554 -3.034268
v -9.940684 49.088244 2.078161
v -10.857101 41.415785 1.198995
v -6.630484 0.043517 -0.474127
v -6.152674 0.043523 1.081380
v -3.777338 5.960923 -0.403917
v -6.626825 5.821812 0.198649
v -7.522075 14.849600 -2.873018
v -5.678634 14.912477 9.498056
v -11.355298 15.026844 2.752139
v -7.998831 30.000402 10.671703
v -8.276298 6.340995 -2.050158
v -8.725127 0.043523 0.104000
v -48.837674 99.803415 -30.894505
v -22.014709 67.976011 -12.584101
v -18.177039 82.111228 -5.651487
v -11.000628 97.470680 -25.685532
v 4.610840 6.565788 -3.023921
v 31.684711 33.159356 -2.460590
v 32.884353 35.142151 -2.487469
v 32.086691 33.825734 -1.320243
v 9.310425 40.877216 -3.228106
v 3.954890 54.626553 -3.034268
v 9.936843 49.088222 2.078163
v 10.853238 41.415755 1.198997
v 6.626505 0.043505 -0.474127
v 6.148695 0.043505 1.081380
v 3.773375 5.960914 -0.403916
v 6.622862 5.821794 0.198650
v 7.518139 14.849582 -2.873018
v 5.674700 14.912495 9.498056
v 11.351362 15.026805 2.752138
v 7.995060 30.000378 10.671612
v 8.272337 6.340972 -2.050158
v 8.721148 0.043499 0.104000
v 48.833853 99.803412 -30.894505
v 22.010885 67.976008 -12.584101
v 18.173216 82.111225 -5.651487
v 10.996806 97.470677 -25.685532
vt 0.230826 0.858175
vt 0.037872 0.610970
vt 0.093584 0.873226
vt 0.380801 0.763868
vt 0.411949 0.696529
vt 0.177352 0.036775
vt 0.130681 0.039278
vt 0.192067 0.133955
vt 0.066088 0.134531
vt 0.309221 0.124646
vt 0.149299 0.254414
vt 0.230826 0.238875
vt 0.316487 0.258953
vt 0.334756 0.481863
vt 0.059504 0.260642
vt 0.230826 0.334066
vt 0.230826 0.481863
vt 0.230826 0.309134
vt 0.396355 0.676640
vt 0.066626 0.134820
vt 0.059854 0.041781
vt 0.230826 0.826050
vt 0.534210 0.365009
vt 0.644183 0.697926
vt 0.796863 0.366772
vt 0.834366 0.706501
vt 0.673106 0.365942
vt 0.964595 0.367898
vt 0.946018 0.486206
vt 0.487450 0.188963
vt 0.701830 0.928681
vt 0.428453 0.666305
vt 0.702508 0.917137
vt 0.423931 0.610970
vt 0.700534 0.951516
vt 0.312282 0.835616
vt 0.380801 0.763868
vt 0.252263 0.127953
vt 0.130802 0.039278
vt 0.262725 0.039278
vt 0.192471 0.134386
vt 0.309221 0.124646
vt 0.149437 0.254414
vt 0.316486 0.258953
vt 0.402147 0.260642
vt 0.334756 0.481863
vt 0.396218 0.676640
vt 0.355685 0.132316
vt 0.362457 0.039278
vt 0.557549 0.042073
vt 0.810877 0.864403
vt 0.946018 0.486206
vt 0.487450 0.188963
vt 0.701830 0.928680
vt 0.428454 0.666305
vt 0.037721 0.610970
vt 0.411949 0.696529
vt 0.191594 0.134474
vt 0.177352 0.036774
vt 0.230826 0.238875
vt 0.230826 0.858175
vt 0.230826 0.309134
vt 0.059505 0.260642
vt 0.066627 0.134820
vt 0.059854 0.041781
vt 0.093585 0.873226
vt 0.644183 0.697926
vt 0.673106 0.365942
vt 0.964595 0.367898
vt 0.834366 0.706501
vt 0.230826 0.238875
vt 0.230826 0.481863
vt 0.230826 0.334066
vt 0.230826 0.826050
vt 0.928150 0.054110
vt 0.796863 0.366772
vt 0.534210 0.365009
vt 0.648642 0.033598
vt 0.964595 0.367898
vt 0.946924 0.830188
vt 0.380014 0.112860
vt 0.312282 0.835616
vt 0.700534 0.951516
vt 0.252263 0.127953
vt 0.262726 0.039278
vt 0.230826 0.238875
vt 0.402147 0.260642
vt 0.424253 0.610970
vt 0.355685 0.132316
vt 0.362458 0.039278
vt 0.648642 0.033598
vt 0.928150 0.054110
vt 0.964595 0.367898
vt 0.702508 0.917137
vt 0.810877 0.864403
vt 0.946924 0.830188
vt 0.557549 0.042073
vt 0.380014 0.112860
vt 0.206061 0.925433
vt 0.103998 0.953856
vt 0.700534 0.951516
vt 0.840384 0.961779
vt 0.717664 0.733315
vt 0.411949 0.696529
vt 0.206061 0.925433
vt 0.701830 0.928681
vt 0.717664 0.733315
vt 0.375038 0.822606
vt 0.268833 0.862901
vt 0.702508 0.917137
vt 0.268833 0.862901
vt 0.701830 0.928681
vt 0.268833 0.862901
vt 0.206061 0.925433
vt 0.717513 0.733323
vt 0.411949 0.696529
vt 0.700534 0.951516
vt 0.103998 0.953856
vt 0.206061 0.925433
vt 0.701830 0.928680
vt 0.206061 0.925433
vt 0.717513 0.733323
vt 0.840385 0.961778
vt 0.702508 0.917137
vt 0.268721 0.862823
vt 0.374774 0.822422
vt 0.701830 0.928680
vt 0.268721 0.862823
vt 0.206061 0.925433
vt 0.268721 0.862823
vt 0.449748 0.281767
vt 0.429551 0.364306
vt 0.534210 0.365009
vt 0.449748 0.281767
vt 0.534210 0.365009
vt 0.648642 0.033598
vt 0.448638 0.574769
vt 0.644183 0.697926
vt 0.461675 0.364522
vt 0.796863 0.366772
vt 0.928150 0.054110
vt 0.534210 0.365009
vt 0.928150 0.054110
vt 0.461675 0.364522
vt 0.644183 0.697926
vt 0.673106 0.365942
vt 0.644183 0.697926
vt 0.964595 0.367898
vt 0.928150 0.054110
vt 0.796863 0.366772
vt 0.534210 0.365009
vt 0.534210 0.365009
vt 0.648642 0.033598
vt 0.928150 0.054110
vt 0.534210 0.365009
vt 0.429551 0.364306
vt 0.449747 0.281768
vt 0.461675 0.364522
vt 0.644183 0.697926
vt 0.448637 0.574768
vt 0.673106 0.365942
vt 0.644183 0.697926
vt 0.461675 0.364522
vt 0.964595 0.367898
vt 0.644183 0.697926
vt 0.449747 0.281768
vn 0.000000 -0.530720 -0.847547
vn -0.253514 -0.083521 -0.963719
vn -0.768822 -0.629565 -0.112075
vn -0.377169 0.601142 0.704537
vn -0.426727 0.470398 -0.772418
vn 0.263748 -0.097541 0.959647
vn 0.253657 -0.437529 -0.862686
vn 0.726894 -0.573714 0.377461
vn 0.442086 -0.056077 -0.895218
vn -0.435977 -0.455469 0.776190
vn -0.444562 -0.097171 -0.890462
vn -0.000001 -0.993386 0.114821
vn -0.399778 -0.483678 0.778610
vn -0.749041 0.115089 0.652451
vn -0.982903 -0.170383 0.069795
vn 0.000000 -0.307554 0.951531
vn 0.000005 0.290900 0.956753
vn -0.000000 -0.156372 -0.987698
vn -0.727333 -0.266729 0.632330
vn -0.793635 -0.243254 -0.557647
vn -0.966848 -0.096827 0.236283
vn 0.000000 0.161881 0.986810
vn 0.000000 -0.326300 0.945266
vn -0.962307 -0.172242 -0.210470
vn 0.000000 0.471184 0.882035
vn -0.714084 0.276753 0.643033
vn 0.000000 -0.015286 -0.999883
vn -0.313584 0.485402 -0.816119
vn 0.000000 0.502503 -0.864575
vn -0.681786 -0.164498 0.712817
vn -0.681786 -0.164498 0.712817
vn -0.681786 -0.164498 0.712817
vn -0.254428 0.809347 0.529361
vn -0.254428 0.809347 0.529361
vn -0.254428 0.809347 0.529361
vn 0.000000 0.876626 0.481172
vn -0.206368 -0.046486 0.977370
vn 0.169276 -0.676178 -0.717028
vn -0.169278 -0.676177 -0.717029
vn 0.253514 -0.083522 -0.963719
vn 0.426728 0.470396 -0.772419
vn 0.768822 -0.629565 -0.112075
vn 0.377171 0.601141 0.704537
vn -0.726896 -0.573712 0.377462
vn -0.253659 -0.437528 -0.862686
vn -0.263746 -0.097540 0.959648
vn -0.442087 -0.056076 -0.895218
vn 0.435975 -0.455470 0.776191
vn 0.444562 -0.097172 -0.890462
vn 0.399777 -0.483678 0.778610
vn 0.982902 -0.170388 0.069792
vn 0.749046 0.115084 0.652446
vn 0.727333 -0.266734 0.632329
vn 0.793634 -0.243256 -0.557648
vn 0.966847 -0.096829 0.236285
vn 0.714084 0.276753 0.643033
vn 0.962307 -0.172242 -0.210470
vn 0.681786 -0.164498 0.712817
vn 0.681786 -0.164498 0.712817
vn 0.681786 -0.164498 0.712817
vn 0.313584 0.485402 -0.816119
vn 0.254428 0.809347 0.529361
vn 0.254428 0.809347 0.529361
vn 0.254428 0.809347 0.529361
vn 0.206367 -0.046488 0.977370
s 1
g TR_MO_kamiforet_LOD
usemtl TR_MO_kamiforet_LODSG
f 8/1/1 15/2/2 16/3/3
f 17/99/4 16/100/3 13/101/5
f 20/6/6 19/7/7 21/8/8
f 3/9/9 21/8/8 19/7/7
f 21/84/8 22/10/10 20/85/6
f 23/11/11 6/12/12 3/9/9
f 21/84/8 6/86/12 24/13/13
f 6/12/12 21/8/8 3/9/9
f 22/10/10 21/84/8 24/13/13
f 26/14/14 25/87/15 24/13/13
f 26/14/14 4/16/16 5/17/17
f 26/14/14 24/13/13 4/16/16
f 1/18/18 15/2/2 8/1/1
f 15/88/2 25/87/15 18/19/19
f 15/2/2 23/11/11 25/15/15
f 18/19/19 26/14/14 17/4/4
f 25/87/15 26/14/14 18/19/19
f 23/11/11 3/9/9 27/20/20
f 27/20/20 25/15/15 23/11/11
f 25/87/15 27/89/20 22/10/10
f 22/10/10 24/13/13 25/87/15
f 27/20/20 3/9/9 19/7/7
f 19/7/7 28/21/21 27/20/20
f 22/10/10 28/90/21 20/85/6
f 28/90/21 22/10/10 27/89/20
f 1/18/18 6/12/12 23/11/11
f 4/16/16 24/13/13 6/86/12
f 17/4/4 26/14/14 5/17/17
f 15/2/2 1/18/18 23/11/11
f 16/102/3 15/103/2 13/104/5
f 17/4/4 5/17/17 7/22/22
f 17/4/4 7/22/22 16/82/3
f 16/131/3 7/132/22 2/133/23
f 16/134/3 2/135/23 30/136/24
f 16/137/3 30/138/24 8/139/1
f 9/140/25 31/141/26 2/142/23
f 30/91/24 2/23/23 31/143/26
f 8/144/1 30/145/24 10/146/27
f 30/147/24 31/26/28 11/148/29
f 10/27/27 30/24/24 11/28/29
s off
f 29/29/30 30/95/31 31/96/32
f 32/30/33 31/97/34 11/98/35
s 1
f 31/92/26 9/25/25 11/93/36
f 17/105/4 13/83/5 14/106/37
f 13/5/5 15/107/2 12/32/38
f 15/108/2 18/109/19 12/110/38
f 12/94/38 18/111/19 14/112/37
f 18/113/19 17/114/4 14/31/37
usemtl TR_MO_kamiforet_LODSG1
f 34/55/39 37/115/40 35/116/41
f 35/117/41 38/118/42 39/119/43
f 43/58/44 41/39/45 42/59/46
f 41/39/45 43/58/44 33/41/47
f 42/40/46 44/42/48 43/38/44
f 33/41/47 6/60/12 45/43/49
f 46/44/50 6/71/12 43/38/44
f 33/41/47 43/58/44 6/60/12
f 46/44/50 43/38/44 44/42/48
f 46/44/50 47/45/51 48/46/52
f 5/72/17 4/73/16 48/46/52
f 4/73/16 46/44/50 48/46/52
f 8/61/1 37/56/40 1/62/18
f 40/47/53 47/45/51 37/34/40
f 47/63/51 45/43/49 37/56/40
f 39/37/43 48/46/52 40/47/53
f 40/47/53 48/46/52 47/45/51
f 49/64/54 33/41/47 45/43/49
f 45/43/49 47/63/51 49/64/54
f 44/42/48 49/48/54 47/45/51
f 47/45/51 46/44/50 44/42/48
f 41/39/45 33/41/47 49/64/54
f 49/64/54 50/65/55 41/39/45
f 42/40/46 50/49/55 44/42/48
f 49/48/54 44/42/48 50/49/55
f 45/43/49 6/60/12 1/62/18
f 6/71/12 46/44/50 4/73/16
f 5/72/17 48/46/52 39/37/43
f 45/43/49 1/62/18 37/56/40
f 37/56/40 8/61/1 38/66/42
f 7/74/22 5/72/17 39/37/43
f 38/36/42 7/74/22 39/37/43
f 53/149/56 9/150/25 2/151/23
f 2/152/23 52/153/57 53/154/56
f 2/155/23 7/156/22 38/157/42
f 8/158/1 52/159/57 38/160/42
s off
f 53/80/58 52/51/59 51/52/60
s 1
f 10/161/27 52/162/57 8/163/1
f 11/164/29 53/70/61 52/165/57
f 11/69/29 52/67/57 10/68/27
f 38/166/42 52/78/57 2/77/23
s off
f 11/81/62 53/50/63 54/53/64
s 1
f 11/79/36 9/76/25 53/75/56
f 36/120/65 35/35/41 39/121/43
f 37/122/40 38/123/42 35/57/41
f 34/124/39 40/125/53 37/126/40
f 36/127/65 40/128/53 34/33/39
f 36/54/65 39/129/43 40/130/53
