# This file uses meters as units for non-parametric coordinates.

mtllib tr_mo_filin_lod.max.fobj.mtl
g skinCluster1Set tweakSet1
v -0.001251 187.270111 43.734035
v -0.001291 100.091919 57.205154
v -0.001155 126.547109 155.369718
v -0.001176 145.855816 128.533085
v -0.001208 137.844121 105.972405
v -0.001210 120.638590 112.488259
v -0.001352 151.897721 -14.504154
v -0.001453 105.629459 -48.914294
v -0.001405 140.719553 -53.610514
v -0.001493 104.826352 -102.733164
v -24.053311 111.106336 42.555550
v -26.138873 121.377695 66.999616
v -37.342725 127.427178 42.956685
v -38.057680 128.000939 56.757365
v -7.047903 130.730190 107.827546
v -11.110849 103.145197 -53.464381
v -38.141118 56.774771 -60.212551
v -44.772793 58.961833 -53.739129
v -37.643651 76.232123 -24.301036
v -29.974274 75.078326 -35.961108
v -40.983142 57.941812 -72.304027
v -35.429395 79.823864 -47.460453
v -42.132683 81.027740 -37.497734
v -23.527917 119.842878 -32.699285
v -11.432943 111.787733 -74.584560
v -47.747911 60.069817 -63.013683
v -61.785246 7.242739 -27.914228
v -59.627761 2.198899 -31.414871
v -64.428688 0.497305 -35.913871
v -67.389066 3.767598 -33.092229
v -11.489223 109.238267 -39.297216
v -52.567918 3.673005 50.548203
v -49.908851 0.421274 44.101699
v -53.489174 0.021100 36.833890
v -56.229754 3.046572 44.006836
v 24.050687 111.106351 42.555495
v 26.136293 121.377751 66.999574
v 37.340118 127.427174 42.956597
v 38.055082 128.000976 56.757294
v 7.045484 130.730182 107.827528
v 11.107897 103.145126 -53.464310
v 38.138174 56.774741 -60.212742
v 44.769870 58.961797 -53.739308
v 37.640749 76.232010 -24.301063
v 29.971381 75.078261 -35.961197
v 40.980168 57.941771 -72.304229
v 35.426478 79.823792 -47.460555
v 42.129793 81.027663 -37.497865
v 23.525086 119.842818 -32.699303
v 11.429943 111.787663 -74.584477
v 47.744961 60.069776 -63.013856
v 61.782335 7.242656 -27.914418
v 59.624832 2.198815 -31.415062
v 64.425747 0.497222 -35.914074
v 67.386131 3.767514 -33.092438
v 11.486375 109.238233 -39.297216
v 52.565234 3.672922 50.548060
v 49.906139 0.421202 44.101563
v 53.486441 0.021017 36.833747
v 56.227045 3.046477 44.006684
vt 0.431432 0.491385
vt 0.208551 0.274203
vt 0.177935 0.491365
vt 0.949463 0.859054
vt 0.955849 0.910776
vt 0.946931 0.963461
vt 0.951823 0.769307
vt 0.388536 0.043089
vt 0.037830 0.251226
vt 0.054293 0.478812
vt 0.358885 0.579421
vt 0.540840 0.590928
vt 0.554342 0.772260
vt 0.364470 0.774016
vt 0.331978 0.679455
vt 0.042747 0.773408
vt 0.322477 0.626896
vt 0.531285 0.641774
vt 0.547746 0.675097
vt 0.945783 0.527795
vt 0.946749 0.746916
vt 0.957583 0.641480
vt 0.959797 0.575909
vt 0.209464 0.780670
vt 0.087281 0.511563
vt 0.094407 0.063170
vt 0.040037 0.851034
vt 0.042680 0.887778
vt 0.042033 0.921993
vt 0.041238 0.962448
vt 0.784039 0.047086
vt 0.686859 0.493941
vt 0.038925 0.607843
vt 0.954931 0.061389
vt 0.950560 0.465099
vt 0.208551 0.274203
vt 0.955849 0.910776
vt 0.949463 0.859054
vt 0.951823 0.769307
vt 0.946931 0.963461
vt 0.554342 0.772260
vt 0.540840 0.590928
vt 0.358885 0.579421
vt 0.364470 0.774016
vt 0.331978 0.679455
vt 0.322477 0.626896
vt 0.042747 0.773408
vt 0.531285 0.641774
vt 0.547746 0.675097
vt 0.946749 0.746916
vt 0.945783 0.527795
vt 0.957583 0.641480
vt 0.959797 0.575909
vt 0.209464 0.780670
vt 0.087281 0.511563
vt 0.042680 0.887778
vt 0.040037 0.851034
vt 0.041238 0.962448
vt 0.042033 0.921993
vt 0.038925 0.607843
vt 0.431432 0.491385
vt 0.177935 0.491365
vt 0.441499 0.256059
vt 0.391942 0.259211
vt 0.325850 0.222832
vt 0.442939 0.166414
vt 0.388536 0.043089
vt 0.037830 0.251226
vt 0.054293 0.478812
vt 0.094407 0.063170
vt 0.736868 0.156152
vt 0.784039 0.047086
vt 0.686859 0.493941
vt 0.713175 0.214400
vt 0.863583 0.170155
vt 0.954931 0.061389
vt 0.950560 0.465099
vt 0.787741 0.122684
vt 0.391942 0.259211
vt 0.441499 0.256059
vt 0.442939 0.166414
vt 0.325850 0.222832
vt 0.736868 0.156152
vt 0.713175 0.214400
vt 0.863583 0.170155
vt 0.787741 0.122684
vt 0.949463 0.859054
vt 0.951823 0.769307
vt 0.040037 0.851034
vt 0.039185 0.795207
vt 0.040037 0.851034
vt 0.040037 0.851034
vt 0.951823 0.769307
vt 0.949463 0.859054
vt 0.040037 0.851034
vt 0.039185 0.795207
vt 0.358885 0.579421
vt 0.540840 0.590928
vt 0.555640 0.525365
vt 0.355756 0.503621
vt 0.945783 0.527795
vt 0.950589 0.477799
vt 0.038925 0.607843
vt 0.331978 0.679455
vt 0.957583 0.641480
vt 0.547746 0.675097
vt 0.042747 0.773408
vt 0.555640 0.525365
vt 0.540840 0.590928
vt 0.358885 0.579421
vt 0.355756 0.503621
vt 0.950589 0.477799
vt 0.945783 0.527795
vt 0.038925 0.607843
vt 0.331978 0.679455
vt 0.547746 0.675097
vt 0.957583 0.641480
vt 0.042747 0.773408
vn -0.000001 0.983763 -0.179474
vn -0.941942 0.097272 0.321377
vn 0.000001 0.876493 0.481415
vn -0.907242 0.277159 -0.316376
vn -0.844823 0.275942 0.458400
vn -0.797782 0.040442 0.601588
vn -0.472850 -0.727650 -0.496930
vn 0.000001 -0.983891 0.178769
vn 0.000003 0.265884 0.964005
vn 0.000001 0.872947 0.487814
vn -0.233583 -0.175155 0.956431
vn -0.373674 0.048784 0.926276
vn 0.946527 -0.322307 0.014312
vn 0.790403 -0.578888 0.200377
vn 0.039045 -0.034266 -0.998650
vn -0.889516 0.166139 -0.425627
vn -0.940374 0.337605 -0.041461
vn -0.888515 0.290954 -0.354806
vn 0.120923 -0.202023 -0.971887
vn -0.008685 0.426509 0.904442
vn 0.891152 -0.442961 -0.098152
vn 0.049340 -0.548784 -0.834506
vn -0.962366 0.230798 -0.143470
vn 0.523011 -0.803545 -0.284211
vn -0.302780 -0.934358 0.187883
vn -0.000000 -0.968171 0.250289
vn -0.020189 -0.037458 -0.999094
vn -0.986184 0.150486 -0.069242
vn -0.088440 -0.162512 0.982735
vn 0.841527 -0.255481 0.475985
vn -0.000003 -0.999482 -0.032191
vn -0.000000 0.922349 -0.386357
vn -0.920072 0.353075 -0.169725
vn -0.000001 0.143950 -0.989585
vn 0.000001 0.907039 -0.421047
vn 0.881284 -0.211766 -0.422486
vn 0.941943 0.097270 0.321375
vn 0.844824 0.275942 0.458398
vn 0.907242 0.277158 -0.316378
vn 0.472849 -0.727650 -0.496930
vn 0.797784 0.040441 0.601585
vn -0.946527 -0.322306 0.014315
vn 0.373672 0.048781 0.926277
vn 0.233587 -0.175156 0.956430
vn -0.790405 -0.578887 0.200375
vn -0.039050 -0.034264 -0.998650
vn 0.940375 0.337603 -0.041463
vn 0.889516 0.166136 -0.425628
vn 0.888514 0.290954 -0.354808
vn -0.120923 -0.202022 -0.971887
vn -0.891153 -0.442959 -0.098150
vn 0.008685 0.426510 0.904441
vn -0.049342 -0.548784 -0.834506
vn 0.962366 0.230797 -0.143473
vn -0.523013 -0.803544 -0.284209
vn 0.302777 -0.934359 0.187882
vn 0.986184 0.150485 -0.069245
vn 0.020188 -0.037457 -0.999094
vn -0.841526 -0.255481 0.475987
vn 0.088442 -0.162512 0.982735
vn 0.920072 0.353073 -0.169728
vn -0.881286 -0.211765 -0.422482
s 1
g TR_MO_filin_LOD
usemtl TR_MO_filin_LODSG1
f 1/61/1 15/2/2 5/62/3
f 1/61/1 13/63/4 14/64/5
f 12/65/6 11/66/7 2/67/8
f 3/68/9 4/69/10 15/2/2
f 4/69/10 5/62/3 15/2/2
f 19/97/11 18/98/12 17/99/13
f 20/100/14 19/97/11 17/99/13
f 17/13/13 22/104/15 20/14/14
f 25/16/16 22/15/15 23/17/17
f 19/11/11 26/18/18 18/12/12
f 22/15/15 21/19/19 26/18/18
f 27/101/20 28/102/21 17/99/13
f 28/21/21 29/105/22 21/106/19
f 30/23/23 27/20/20 18/12/12
f 20/14/14 22/104/15 16/24/24
f 29/22/22 30/23/23 21/19/19
f 31/25/25 19/97/11 20/100/14
f 6/70/26 3/68/9 15/2/2
f 14/5/5 34/27/27 35/28/28
f 12/6/6 32/29/29 33/30/30
f 31/71/25 8/72/31 2/67/8
f 7/73/32 24/74/33 13/63/4
f 1/61/1 14/64/5 12/65/6
f 15/2/2 12/65/6 2/67/8
f 6/70/26 15/2/2 2/67/8
f 11/66/7 13/63/4 24/74/33
f 14/5/5 13/4/4 34/27/27
f 1/61/1 7/73/32 13/63/4
f 25/75/16 10/76/34 8/72/31
f 25/75/16 24/74/33 9/77/35
f 31/71/25 16/78/24 8/72/31
f 11/66/7 24/74/33 31/71/25
f 11/66/7 31/71/25 2/67/8
f 8/72/31 16/78/24 25/75/16
f 1/61/1 12/65/6 15/2/2
f 31/25/25 24/103/33 19/97/11
f 24/33/33 23/17/17 19/11/11
f 25/107/16 16/24/24 22/104/15
f 24/33/33 25/16/16 23/17/17
f 7/73/32 9/77/35 24/74/33
f 9/77/35 10/76/34 25/75/16
f 14/5/5 35/28/28 32/29/29
f 13/87/4 11/88/7 34/89/27
f 11/7/7 33/90/36 34/91/27
f 26/18/18 30/23/23 18/12/12
f 21/19/19 30/23/23 26/18/18
f 18/98/12 27/101/20 17/99/13
f 17/13/13 28/21/21 21/106/19
f 23/17/17 26/18/18 19/11/11
f 22/15/15 26/18/18 23/17/17
f 22/104/15 17/13/13 21/106/19
f 12/6/6 14/5/5 32/29/29
usemtl TR_MO_filin_LODSG
f 5/3/3 40/36/37 1/1/1
f 39/79/38 38/80/39 1/1/1
f 2/8/8 36/81/40 37/82/41
f 40/36/37 4/10/10 3/9/9
f 40/36/37 5/3/3 4/10/10
f 42/108/42 43/109/43 44/110/44
f 42/108/42 44/110/44 45/111/45
f 45/44/45 47/115/46 42/41/42
f 48/46/47 47/45/46 50/47/48
f 43/42/43 51/48/49 44/43/44
f 51/48/49 46/49/50 47/45/46
f 42/108/42 53/112/51 52/113/52
f 46/116/50 54/117/53 53/50/51
f 43/42/43 52/51/52 55/53/54
f 41/54/55 47/115/46 45/44/45
f 46/49/50 55/53/54 54/52/53
f 45/111/45 44/110/44 56/55/56
f 40/36/37 3/9/9 6/26/26
f 60/56/57 59/57/58 39/37/38
f 58/58/59 57/59/60 37/40/41
f 2/8/8 8/31/31 56/83/56
f 38/80/39 49/84/61 7/32/32
f 37/82/41 39/79/38 1/1/1
f 2/8/8 37/82/41 40/36/37
f 2/8/8 40/36/37 6/26/26
f 49/84/61 38/80/39 36/81/40
f 59/57/58 38/38/39 39/37/38
f 38/80/39 7/32/32 1/1/1
f 8/31/31 10/34/34 50/85/48
f 9/35/35 49/84/61 50/85/48
f 8/31/31 41/86/55 56/83/56
f 56/83/56 49/84/61 36/81/40
f 2/8/8 56/83/56 36/81/40
f 50/85/48 41/86/55 8/31/31
f 40/36/37 37/82/41 1/1/1
f 44/110/44 49/114/61 56/55/56
f 44/43/44 48/46/47 49/60/61
f 47/115/46 41/54/55 50/118/48
f 48/46/47 50/47/48 49/60/61
f 49/84/61 9/35/35 7/32/32
f 50/85/48 10/34/34 9/35/35
f 57/59/60 60/56/57 39/37/38
f 59/92/58 36/93/40 38/94/39
f 59/95/58 58/96/62 36/39/40
f 43/42/43 55/53/54 51/48/49
f 51/48/49 55/53/54 46/49/50
f 42/108/42 52/113/52 43/109/43
f 46/116/50 53/50/51 42/41/42
f 44/43/44 51/48/49 48/46/47
f 48/46/47 51/48/49 47/45/46
f 46/116/50 42/41/42 47/115/46
f 57/59/60 39/37/38 37/40/41
