# This file uses meters as units for non-parametric coordinates.

mtllib tr_mo_sagass_selle_lod.max.fobj.mtl
g skinCluster1Set tweakSet1
v -20.368193 -17.616925 -88.772998
v -0.000942 -19.702081 -378.737962
v -0.000145 -21.396047 -61.452539
v -0.000480 -61.777121 -188.526368
v -0.000277 -2.160477 -115.989250
v -20.675784 -3.413730 -35.219982
v -14.630339 -14.760149 10.398144
v -29.807577 7.179192 19.995934
v 0.000048 37.031746 16.513515
v -34.843254 -5.028100 115.235543
v 0.000436 -27.813642 176.450002
v 0.000521 -9.765154 210.865700
v -15.238473 -43.079871 128.175581
v 0.000297 -50.816932 120.103562
v 0.000544 -45.611292 221.275032
v -0.000559 3.778896 -224.241590
v -22.412328 -22.847232 102.998745
v 0.000236 -31.737506 94.264221
v -49.758941 -27.954283 -103.187761
v 0.000107 -20.422888 42.207682
v -60.139734 -28.456283 -96.111800
v -67.824340 -38.605645 -88.733011
v -64.130849 -32.547367 -175.870550
v -149.190259 -62.757611 -261.317074
v -160.759485 -69.425040 -249.471867
v -0.000010 6.856234 -41.321325
v -89.199907 -13.865524 102.397323
v -87.779552 -8.524329 153.814924
v -89.490402 -15.638024 142.066538
v -89.089149 0.641628 110.481024
v -97.212404 -8.086992 116.281879
v 0.000068 37.266809 24.287570
v -30.435780 60.749471 -65.461732
v -0.000041 27.108023 -18.672597
v -30.435804 54.055500 -75.021744
v 0.000063 40.774649 22.365928
v 0.000044 45.770442 14.398938
v 0.000058 45.850897 20.183492
v 0.000085 40.741685 30.930102
v 0.000085 45.661247 30.954635
v -28.530163 19.709098 -46.627697
v -28.530210 24.657771 -65.762703
v -28.530222 5.522771 -70.711381
v -28.530177 0.574098 -51.576370
v 28.529888 24.657765 -65.762846
v 28.529876 5.522765 -70.711524
v 28.529921 0.574092 -51.576513
v 28.529936 19.709092 -46.627843
v -31.829482 37.031749 16.513592
v -31.955829 45.850903 20.183569
v 20.367767 -17.616922 -88.773093
v 20.675808 -3.413667 -35.220030
v 14.630392 -14.760152 10.398066
v 29.807684 7.179186 19.995779
v 34.843832 -5.028105 115.235376
v 15.239108 -43.079874 128.175509
v 22.412844 -22.847235 102.998638
v 49.758437 -27.954306 -103.188093
v 60.139275 -28.456309 -96.112184
v 67.823917 -38.605681 -88.733434
v 64.129889 -32.547352 -175.870919
v 149.188530 -62.757516 -261.317766
v 160.757828 -69.424939 -249.472618
v 89.200419 -13.865537 102.396882
v 87.780315 -8.524342 153.814495
v 89.491105 -15.638038 142.066085
v 89.089710 0.641614 110.480595
v 97.212988 -8.087007 116.281402
v 30.435470 60.749465 -65.461886
v 30.435446 54.055494 -75.021897
v 31.829578 37.031743 16.513431
v 31.955943 45.850897 20.183408
v -1.030184 37.589511 -55.595525
v -11.416931 74.967563 -46.058047
v 11.649703 75.870872 -46.058103
v 0.262415 90.606660 -44.649500
v -13.490786 76.136923 -27.090615
v 14.015698 76.136923 -27.090687
v -11.510330 91.714823 -34.070075
v 12.035210 91.714829 -34.070131
v -8.943698 55.266023 -44.649515
v 9.468513 55.266023 -44.649559
v 0.262451 55.266005 -27.059990
v -15.296459 36.784047 -38.659328
v 15.821303 36.784050 -38.659406
v 7.440931 117.509949 -44.713834
v -6.916104 117.509949 -44.713798
v 0.262462 98.053670 -24.441737
v 0.262460 118.221140 -25.955212
v 0.262444 28.317383 -29.279718
v -1.651885 24.956036 -50.951713
v -58.222234 -6.333559 -55.045217
v -64.219999 -14.859606 -46.507975
v -56.015551 -14.426228 -46.009445
v -45.175725 24.225181 -10.711646
v -46.788523 30.389887 -5.284888
v -50.070679 32.067409 -8.793551
v -28.621924 60.569710 -37.046444
v -25.248605 62.656021 -29.440767
v -21.420683 54.082239 -39.035887
v -33.934557 21.269560 -14.506936
v -28.366402 18.196106 -8.489269
v -27.249330 19.513339 -22.907263
v 9.501567 44.881225 20.581150
v 14.413977 46.115977 21.072114
v 12.206254 38.979772 15.297985
v 28.891379 18.196116 -8.489394
v 56.540322 -14.426227 -46.009716
v 58.746958 -6.333570 -55.045517
v 27.774236 19.513345 -22.907400
v 34.459499 21.269569 -14.507103
v 64.744776 -14.859612 -46.508288
v 21.849062 62.501276 -24.334210
v 25.329030 67.993283 -16.875613
v 17.484970 64.094138 -14.476675
v 0.262472 76.136917 -21.287900
vt 0.723693 0.119213
vt 0.769988 0.170036
vt 0.723693 0.119213
vt 0.720349 0.164008
vt 0.698889 0.360185
vt 0.680258 0.345200
vt 0.655648 0.360057
vt 0.733786 0.238127
vt 0.733786 0.238127
vt 0.769988 0.238127
vt 0.720349 0.164008
vt 0.769988 0.326046
vt 0.741759 0.035057
vt 0.742987 0.407689
vt 0.710288 0.528680
vt 0.767137 0.402743
vt 0.739598 0.544137
vt 0.676496 0.225263
vt 0.646541 0.220904
vt 0.705530 0.227332
vt 0.762629 0.524742
vt 0.680258 0.345200
vt 0.698889 0.360185
vt 0.655648 0.360057
vt 0.742987 0.407689
vt 0.710288 0.528680
vt 0.767136 0.402743
vt 0.739598 0.544137
vt 0.676496 0.225263
vt 0.705530 0.227332
vt 0.646541 0.220904
vt 0.762629 0.524742
vt 0.769988 0.170036
vt 0.769988 0.238127
vt 0.816282 0.119213
vt 0.798216 0.035057
vt 0.769988 0.098533
vt 0.769987 0.056410
vt 0.769988 0.326046
vt 0.710703 0.232174
vt 0.670294 0.141172
vt 0.670294 0.141172
vt 0.710703 0.232174
vt 0.670294 0.141172
vt 0.670294 0.141172
vt 0.769987 0.056410
vt 0.741759 0.035057
vt 0.769988 0.098533
vt 0.723693 0.119213
vt 0.708372 0.314834
vt 0.708372 0.314834
vt 0.709927 0.408363
vt 0.708372 0.314834
vt 0.708372 0.314834
vt 0.709927 0.408363
vt 0.143407 0.061994
vt 0.182561 0.061993
vt 0.194780 0.239266
vt 0.129251 0.239266
vt 0.120448 0.178052
vt 0.120410 0.135525
vt 0.120088 0.306559
vt 0.117350 0.380235
vt 0.202542 0.175565
vt 0.162015 0.135787
vt 0.203620 0.135525
vt 0.162932 0.316362
vt 0.205776 0.306559
vt 0.208514 0.380235
vt 0.709927 0.408363
vt 0.708372 0.314834
vt 0.633485 0.075901
vt 0.257420 0.827821
vt 0.202943 0.888978
vt 0.225703 0.981357
vt 0.053901 0.553568
vt 0.890346 0.521560
vt 0.065292 0.133305
vt 0.566408 0.104162
vt 0.566408 0.055686
vt 0.897795 0.556590
vt 0.917761 0.571439
vt 0.917660 0.542207
vt 0.065292 0.187739
vt 0.858379 0.605211
vt 0.883067 0.475868
vt 0.347548 0.472225
vt 0.453195 0.470403
vt 0.972565 0.475868
vt 0.883067 0.212384
vt 0.347548 0.208741
vt 0.453195 0.206920
vt 0.972565 0.212384
vt 0.066072 0.133305
vt 0.065292 0.187739
vt 0.251551 0.068820
vt 0.257420 0.827821
vt 0.101775 0.809063
vt 0.202943 0.888978
vt 0.225703 0.981357
vt 0.055680 0.884350
vt 0.313570 0.104162
vt 0.313570 0.055686
vt 0.261806 0.133305
vt 0.262586 0.187739
vt 0.060298 0.721079
vt 0.121730 0.686473
vt 0.059969 0.614150
vt 0.161110 0.428700
vt 0.060298 0.721079
vt 0.059969 0.614150
vt 0.121730 0.686473
vt 0.053901 0.553568
vt 0.161110 0.428700
vt 0.101775 0.809063
vt 0.055680 0.884350
vt 0.546691 0.716904
vt 0.626770 0.592750
vt 0.572370 0.565736
vt 0.706851 0.716904
vt 0.681171 0.565736
vt 0.620110 0.668086
vt 0.680405 0.565736
vt 0.706806 0.715731
vt 0.546691 0.715731
vt 0.571059 0.565736
vt 0.082702 0.752367
vt 0.536728 0.746875
vt 0.479543 0.759129
vt 0.354889 0.615939
vt 0.458687 0.809247
vt 0.574266 0.805184
vt 0.621454 0.768393
vt 0.653278 0.839531
vt 0.808080 0.676566
vt 0.796529 0.651478
vt 0.941303 0.668358
vt 0.789563 0.799949
vt 0.772052 0.742170
vt 0.926407 0.784590
vt 0.877159 0.726067
vt 0.759554 0.713344
vt 0.303781 0.828505
vt 0.685062 0.750031
vt 0.659419 0.937091
vt 0.648295 0.936329
vt 0.597944 0.904151
vt 0.545109 0.938137
vt 0.565535 0.838484
vt 0.479544 0.759129
vt 0.574266 0.805184
vt 0.653278 0.839531
vt 0.621454 0.768393
vt 0.808080 0.676566
vt 0.789563 0.799949
vt 0.772053 0.742170
vt 0.474348 0.491285
vt 0.650579 0.479327
vt 0.468491 0.512701
vt 0.350900 0.590733
vt 0.174547 0.531922
vt 0.464753 0.538548
vt 0.184426 0.498894
vt 0.503883 0.574984
vt 0.474348 0.491285
vt 0.468491 0.512701
vt 0.650579 0.479327
vt 0.350900 0.590733
vt 0.174547 0.531922
vt 0.464753 0.538548
vt 0.184426 0.498894
vt 0.503883 0.574984
vt 0.897795 0.556590
vt 0.872621 0.520163
vt 0.872621 0.520163
vt 0.897795 0.556590
vt 0.897339 0.605994
vt 0.897339 0.605994
vt 0.858379 0.605211
vt 0.872621 0.520163
vt 0.872621 0.520163
vt 0.897339 0.605994
vt 0.897339 0.605994
vt 0.872621 0.520163
vt 0.262586 0.187739
vt 0.262586 0.133305
vt 0.842404 0.036984
vt 0.945844 0.036984
vt 0.945844 0.140425
vt 0.842404 0.140425
vt 0.842404 0.140425
vt 0.945844 0.036984
vt 0.842404 0.036984
vt 0.945844 0.140425
vt 0.247366 0.206920
vt 0.336864 0.206920
vt 0.336864 0.470404
vt 0.247366 0.470403
vt 0.437046 0.208741
vt 0.437046 0.472225
vt 0.542693 0.206920
vt 0.542693 0.470403
vn -0.995534 0.062920 -0.070379
vn 0.000000 -0.999828 0.018569
vn -0.653119 -0.754468 -0.064908
vn -1.000000 0.000000 0.000003
vn -1.000000 0.000000 0.000003
vn -1.000000 0.000000 0.000003
vn -0.000000 0.997000 -0.077400
vn -0.955831 0.264903 -0.127335
vn -0.607648 -0.792786 0.047488
vn -0.957176 0.281872 -0.066047
vn -0.853207 -0.508936 0.114113
vn -0.000000 -0.984129 -0.177455
vn 0.000004 -0.122153 0.992511
vn -0.752787 0.614691 0.235514
vn -0.762771 -0.644226 -0.056156
vn 0.000001 -0.918130 0.396279
vn 0.000002 -0.156813 0.987628
vn -0.000001 -0.938456 -0.345399
vn -1.000000 -0.000001 0.000003
vn -1.000000 -0.000001 0.000003
vn -1.000000 -0.000001 0.000003
vn -0.000001 -0.979192 -0.202934
vn -0.683232 0.690331 0.237986
vn -0.323303 0.946152 0.016475
vn -0.466284 0.879818 0.092196
vn -0.302697 0.952490 -0.033709
vn -0.409281 0.911872 0.031284
vn -0.122911 0.986264 -0.110346
vn -0.461554 0.884615 0.066509
vn -0.260189 0.965427 -0.015876
vn 0.070705 -0.994674 -0.075001
vn 0.145875 -0.984980 -0.092389
vn 0.029736 -0.999509 -0.009936
vn 0.127072 -0.988589 -0.080901
vn -0.998964 0.044833 0.007863
vn -0.755918 0.649631 -0.081045
vn -0.433390 -0.727670 0.531667
vn 0.000000 0.990155 0.139975
vn 0.000001 0.969667 0.244430
vn -0.000000 0.973446 -0.228915
vn 0.004849 0.986308 -0.164841
vn -0.001357 0.510610 0.859811
vn -0.410069 0.668481 0.620465
vn -0.272405 -0.380566 -0.883722
vn -0.000002 0.085917 -0.996302
vn 0.000000 0.000000 0.000000
vn -1.000000 0.000000 0.000003
vn 0.000000 0.000000 0.000000
vn -1.000000 0.000000 0.000003
vn -1.000000 0.000000 0.000003
vn -1.000000 0.000000 0.000003
vn 0.000000 -0.000000 -0.000000
vn 0.000000 -0.000000 -0.000000
vn 0.000000 -0.000000 -0.000000
vn -1.000000 0.000000 0.000003
vn 0.000000 -0.000000 -0.000000
vn 0.000000 -0.000000 -0.000000
vn 0.000000 0.000000 0.000000
vn 0.000000 0.000000 0.000000
vn 0.000000 0.000000 0.000000
vn -0.237898 0.836893 -0.492965
vn -0.237899 -0.492966 -0.836892
vn -0.237896 -0.836893 0.492967
vn -0.237895 0.492966 0.836893
vn 0.237896 0.836893 -0.492966
vn 0.237895 -0.492966 -0.836893
vn 0.237898 -0.836893 0.492965
vn 0.237899 0.492966 0.836892
vn -0.000002 0.384199 -0.923250
vn -0.000002 0.384199 -0.923250
vn -0.000002 0.384199 -0.923250
vn -0.000002 0.384199 -0.923250
vn 0.995535 0.062905 -0.070384
vn 0.653119 -0.754468 -0.064912
vn 0.954169 0.275206 -0.117573
vn 0.957176 0.281872 -0.066051
vn 0.607648 -0.792786 0.047486
vn 0.853208 -0.508936 0.114109
vn 0.752788 0.614691 0.235510
vn 0.762771 -0.644226 -0.056159
vn 0.683234 0.690330 0.237982
vn 0.466285 0.879818 0.092194
vn 0.323304 0.946152 0.016473
vn 0.302697 0.952490 -0.033711
vn 0.409281 0.911872 0.031282
vn 0.122910 0.986264 -0.110347
vn 0.461554 0.884615 0.066507
vn 0.260189 0.965427 -0.015877
vn -0.070705 -0.994674 -0.075001
vn -0.029736 -0.999508 -0.009936
vn -0.145876 -0.984980 -0.092388
vn -0.127072 -0.988589 -0.080900
vn 0.998964 0.044833 0.007858
vn 0.755917 0.649631 -0.081048
vn 0.433391 -0.727672 0.531663
vn 0.394004 0.662971 0.636577
vn 0.272400 -0.380566 -0.883724
vn 1.000000 -0.000000 -0.000003
vn 1.000000 -0.000000 -0.000003
vn 1.000000 -0.000000 -0.000003
vn 1.000000 -0.000000 -0.000003
vn 1.000000 -0.000000 -0.000003
vn -0.000002 0.384198 -0.923251
vn -0.000002 0.384199 -0.923250
vn -0.000002 0.384198 -0.923251
vn -0.000002 0.384200 -0.923250
vn -0.007561 0.092207 -0.995711
vn 0.686754 0.102113 -0.719682
vn -0.596856 0.169784 -0.784179
vn -0.873301 0.444265 0.199936
vn 0.000002 0.163757 0.986501
vn 0.917638 0.383788 0.103186
vn -0.765642 0.081576 0.638074
vn -0.465669 0.545834 0.696576
vn -0.925384 0.172894 -0.337303
vn -0.651349 -0.264334 -0.711247
vn 0.732690 0.011688 -0.680462
vn -0.756685 0.031246 -0.653032
vn 0.000002 -0.267749 0.963489
vn 0.465524 0.048986 0.883679
vn -0.023887 -0.062677 -0.997748
vn 0.934053 0.323499 -0.151305
vn -0.917582 0.396620 -0.027118
vn 0.000002 0.550014 0.835155
vn -0.744629 0.450082 -0.492903
vn 0.744626 0.450082 -0.492907
vn 0.000002 0.066018 0.997818
vn 0.000002 0.451786 0.892126
vn -0.572097 0.732624 0.368737
vn -0.596837 0.519071 -0.611842
vn -0.763415 0.645665 0.017742
vn -0.389038 0.578766 0.716715
vn -0.868069 0.356814 0.345168
vn -0.805979 0.187974 -0.561306
vn -0.476810 -0.273049 -0.835522
vn -0.727109 0.668180 0.157633
vn -0.000007 -0.754643 0.656136
vn 0.881716 0.171850 0.439369
vn -0.249408 0.747425 0.615752
vn 0.921714 -0.380171 0.076902
vn 0.596137 0.489172 -0.636657
vn 0.572099 0.732624 0.368734
vn 0.763415 0.645665 0.017737
vn 0.389042 0.578766 0.716712
vn 0.868070 0.356815 0.345162
vn 0.992513 0.110974 0.051021
vn -0.267265 0.835575 0.479983
vn 0.933932 -0.262964 -0.242117
vn 0.000010 -0.754642 0.656137
s 1
g TR_MO_sagass_selle
usemtl TR_MO_sagass_selleSG
f 2/127/1 3/128/2 1/129/3
s off
f 2/127/4 4/130/5 3/128/6
s 1
f 1/129/3 5/131/7 2/127/1
f 5/131/7 1/129/3 6/132/8
f 6/132/8 7/133/9 8/134/10
f 13/135/11 14/136/12 15/137/13
f 10/138/14 17/139/15 12/140/16
f 17/139/15 13/135/11 11/141/17
f 17/139/15 18/142/18 14/136/12
f 14/136/12 13/135/11 17/139/15
f 11/141/17 13/135/11 15/137/13
s off
f 2/127/19 5/131/20 16/143/21
s 1
f 7/133/9 6/132/8 1/129/3
f 3/128/2 20/144/22 7/133/9
s 6
f 22/157/23 7/158/24 21/159/25
f 23/160/26 24/161/27 21/159/25
f 21/159/25 19/162/28 23/160/26
f 21/159/25 25/163/29 22/157/23
f 25/163/29 21/159/25 24/161/27
f 1/164/30 19/162/28 21/159/25
s 1
f 3/128/2 7/133/9 1/129/3
s 8
f 27/106/31 10/107/32 29/108/33
f 29/108/33 10/107/32 12/114/34
f 31/74/35 30/75/36 27/73/31
f 28/116/37 30/75/36 31/74/35
f 31/74/35 27/73/31 29/115/33
f 29/115/33 28/116/37 31/74/35
f 29/108/33 12/114/34 28/76/37
s 1
f 17/139/15 20/144/22 18/142/18
f 17/139/15 8/134/10 20/144/22
f 32/145/38 10/138/14 12/140/39
f 11/141/17 12/140/16 17/139/15
f 32/145/38 9/146/40 8/134/10
f 32/145/38 8/134/10 10/138/14
f 8/134/10 17/139/15 10/138/14
f 8/134/10 7/133/9 20/144/22
f 34/147/41 6/132/8 8/134/10
f 34/147/41 73/148/42 6/132/8
f 34/147/41 8/134/10 9/146/40
f 33/79/43 35/80/44 6/72/8
f 5/131/7 6/132/8 26/149/45
f 35/117/44 26/118/45 6/119/8
s 13
f 36/173/46 32/77/47 40/82/48
s off
f 9/174/49 32/77/50 36/173/51
s 14
f 40/82/52 32/77/53 39/83/54
s 15
f 9/175/55 36/176/56 38/177/57
s 16
f 38/178/58 37/179/59 9/180/60
s 17
f 42/187/61 43/188/62 44/189/63
f 42/187/61 44/189/63 41/190/64
s 6
f 1/164/30 21/159/25 7/158/24
s 17
f 45/195/65 46/196/66 43/197/62
f 43/197/62 42/198/61 45/195/65
f 46/91/66 47/199/67 44/200/63
f 44/200/63 43/87/62 46/91/66
f 47/92/67 48/201/68 41/202/64
f 41/202/64 44/88/63 47/92/67
f 48/93/68 45/90/65 42/86/61
f 42/86/61 41/89/64 48/93/68
s 20
f 49/94/69 50/95/70 38/185/71
f 38/185/71 9/186/72 49/94/69
s 1
usemtl TR_MO_sagass_selleSG1
f 2/127/73 51/150/74 3/128/2
f 51/150/74 2/127/73 5/131/7
f 5/131/7 52/151/75 51/150/74
f 52/151/75 54/152/76 53/153/77
f 56/154/78 15/137/13 14/136/12
f 55/155/79 12/140/16 57/156/80
f 57/156/80 11/141/17 56/154/78
f 57/156/80 14/136/12 18/142/18
f 14/136/12 57/156/80 56/154/78
f 11/141/17 15/137/13 56/154/78
f 53/153/77 51/150/74 52/151/75
f 3/128/2 53/153/77 20/144/22
s 23
f 60/165/81 59/166/82 53/167/83
f 61/168/84 59/166/82 62/169/85
f 59/166/82 61/168/84 58/170/86
f 59/166/82 60/165/81 63/171/87
f 63/171/87 62/169/85 59/166/82
f 51/172/88 59/166/82 58/170/86
s 1
f 3/128/2 51/150/74 53/153/77
s 25
f 64/110/89 66/111/90 55/112/91
f 66/111/90 12/109/92 55/112/91
f 68/99/93 64/97/89 67/100/94
f 65/101/95 68/99/93 67/100/94
f 68/99/93 66/98/90 64/97/89
f 66/98/90 68/99/93 65/101/95
f 66/111/90 65/113/95 12/109/92
s 1
f 57/156/80 18/142/18 20/144/22
f 57/156/80 20/144/22 54/152/76
f 32/145/38 12/140/39 55/155/79
f 11/141/17 57/156/80 12/140/16
f 32/145/38 54/152/76 9/146/40
f 32/145/38 55/155/79 54/152/76
f 54/152/76 55/155/79 57/156/80
f 54/152/76 20/144/22 53/153/77
f 34/147/41 54/152/76 52/151/75
f 34/147/41 52/151/75 73/148/42
f 34/147/41 9/146/40 54/152/76
usemtl TR_MO_sagass_selleSG
f 69/102/96 52/96/75 70/103/97
f 73/122/42 52/123/75 69/124/96
usemtl TR_MO_sagass_selleSG1
f 5/131/7 26/149/45 52/151/75
usemtl TR_MO_sagass_selleSG
f 70/120/97 52/121/75 26/118/45
s 13
f 36/173/46 40/82/48 32/77/98
s off
f 9/174/99 36/173/100 32/77/101
s 14
f 40/82/52 39/83/54 32/77/53
s 15
f 9/181/102 38/182/57 36/81/56
s 16
f 38/183/58 9/184/60 37/85/59
s 17
usemtl TR_MO_sagass_selleSG1
f 45/191/65 47/192/67 46/193/66
f 45/191/65 48/194/68 47/192/67
s 1
usemtl TR_MO_sagass_selleSG
f 33/79/43 70/103/97 35/80/44
f 70/103/97 33/79/43 69/102/96
f 70/120/97 26/118/45 35/117/44
s 23
usemtl TR_MO_sagass_selleSG1
f 51/172/88 53/167/83 59/166/82
s 26
f 71/104/103 38/84/104 72/105/105
f 38/84/104 71/104/103 9/78/106
s 1
usemtl TR_MO_sagass_selleSG
f 33/125/43 73/122/42 69/124/96
f 6/126/8 73/122/42 33/125/43
s 27
f 76/65/107 75/64/108 74/60/109
f 79/1/110 116/33/111 80/35/112
f 116/33/111 79/1/110 77/4/113
f 96/5/114 97/6/115 95/7/116
f 74/60/109 75/64/108 82/58/117
f 82/58/117 81/59/118 74/60/109
f 116/33/111 77/4/113 83/34/119
usemtl TR_MO_sagass_selleSG1
f 82/8/117 78/11/120 83/10/119
f 78/11/120 82/8/117 75/43/108
usemtl TR_MO_sagass_selleSG
f 77/4/113 74/40/109 81/9/118
f 81/9/118 83/34/119 77/4/113
f 91/67/121 82/58/117 85/68/122
f 91/67/121 84/62/123 81/59/118
usemtl TR_MO_sagass_selleSG1
f 82/8/117 83/10/119 85/71/122
usemtl TR_MO_sagass_selleSG
f 90/39/124 83/34/119 84/50/123
usemtl TR_MO_sagass_selleSG1
f 90/12/124 85/71/122 83/10/119
usemtl TR_MO_sagass_selleSG
f 83/34/119 81/9/118 84/51/123
f 76/65/107 79/61/110 87/56/125
f 87/56/125 86/57/126 76/65/107
f 76/65/107 86/57/126 80/66/112
f 79/1/110 80/35/112 88/37/127
f 86/36/126 87/13/125 89/38/128
usemtl TR_MO_sagass_selleSG1
f 88/48/127 86/47/126 89/46/128
f 86/47/126 88/48/127 80/49/112
usemtl TR_MO_sagass_selleSG
f 87/13/125 79/1/110 88/37/127
f 88/37/127 89/38/128 87/13/125
f 82/58/117 91/67/121 81/59/118
f 101/14/129 103/52/130 92/15/131
f 90/39/124 84/53/123 101/14/129
f 101/14/129 102/16/132 90/39/124
f 93/17/133 101/14/129 92/15/131
f 98/18/134 74/41/109 100/19/135
f 98/18/134 97/6/115 99/20/136
f 97/6/115 96/5/114 99/20/136
f 97/6/115 98/18/134 95/7/116
f 79/1/110 74/42/109 98/18/134
f 79/1/110 98/18/134 77/4/113
f 76/65/107 74/60/109 79/61/110
f 98/18/134 99/20/136 77/4/113
f 98/18/134 100/19/135 95/7/116
f 102/16/132 101/14/129 93/17/133
f 93/17/133 94/21/137 102/16/132
f 84/62/123 91/67/121 103/63/130
f 84/54/123 103/55/130 101/14/129
usemtl TR_MO_sagass_selleSG1
f 105/22/138 104/23/139 106/24/140
f 110/70/141 111/25/142 109/26/143
f 85/71/122 90/12/124 111/25/142
f 107/27/144 111/25/142 90/12/124
f 111/25/142 112/28/145 109/26/143
usemtl TR_MO_sagass_selleSG
f 75/64/108 76/65/107 80/66/112
usemtl TR_MO_sagass_selleSG1
f 105/22/138 114/29/146 115/30/147
f 104/23/139 105/22/138 115/30/147
f 114/29/146 105/22/138 106/24/140
f 114/29/146 75/44/108 80/3/112
f 114/29/146 80/3/112 78/11/120
f 114/29/146 113/31/148 75/45/108
f 115/30/147 114/29/146 78/11/120
f 113/31/148 114/29/146 106/24/140
f 111/25/142 107/27/144 112/28/145
f 108/32/149 112/28/145 107/27/144
usemtl TR_MO_sagass_selleSG
f 91/67/121 85/68/122 110/69/141
usemtl TR_MO_sagass_selleSG1
f 110/70/141 85/71/122 111/25/142
f 78/11/120 116/2/111 83/10/119
f 116/2/111 78/11/120 80/3/112
g default
v -4.009805 31.222957 -1.101175
v -4.009813 31.222967 -8.612915
v -4.009824 44.484455 -1.101157
v -4.009833 44.484465 -8.612897
v 3.696170 31.222969 -1.101184
v 3.696161 31.222979 -8.612924
v 3.696151 44.484466 -1.101166
v 3.696142 44.484476 -8.612906
vn -1.000000 -0.000001 0.000001
vn -1.000000 -0.000001 0.000001
vn -1.000000 -0.000001 0.000001
vn -1.000000 -0.000001 0.000001
vn -1.000000 -0.000001 0.000001
vn -1.000000 -0.000001 0.000001
vn 1.000000 0.000001 -0.000001
vn 1.000000 0.000001 -0.000001
vn 1.000000 0.000001 -0.000001
vn 1.000000 0.000001 -0.000001
vn 1.000000 0.000001 -0.000001
vn 1.000000 0.000001 -0.000001
vn 0.000001 -1.000000 -0.000001
vn 0.000001 -1.000000 -0.000001
vn 0.000001 -1.000000 -0.000001
vn 0.000001 -1.000000 -0.000001
vn 0.000001 -1.000000 -0.000001
vn 0.000001 -1.000000 -0.000001
vn -0.000001 0.000001 -1.000000
vn -0.000001 0.000001 -1.000000
vn -0.000001 0.000001 -1.000000
vn -0.000001 0.000001 -1.000000
vn -0.000001 0.000001 -1.000000
vn -0.000001 0.000001 -1.000000
vn -0.000001 1.000000 0.000001
vn -0.000001 1.000000 0.000001
vn -0.000001 1.000000 0.000001
vn -0.000001 1.000000 0.000001
vn -0.000001 1.000000 0.000001
vn -0.000001 1.000000 0.000001
vn 0.000001 -0.000001 1.000000
vn 0.000001 -0.000001 1.000000
vn 0.000001 -0.000001 1.000000
vn 0.000001 -0.000001 1.000000
vn 0.000001 -0.000001 1.000000
vn 0.000001 -0.000001 1.000000
s off
g initialShadingGroup stick_1
f 117//150 119//151 120//152
f 120//153 118//154 117//155
f 121//156 122//157 124//158
f 124//159 123//160 121//161
f 117//162 118//163 122//164
f 122//165 121//166 117//167
f 118//168 120//169 124//170
f 124//171 122//172 118//173
f 120//174 119//175 123//176
f 123//177 124//178 120//179
f 119//180 117//181 121//182
f 121//183 123//184 119//185
g default
v 29.580698 -12.504869 128.254655
v 39.887604 -12.504868 128.254572
v 29.580243 2.703155 72.117750
v 39.887149 2.703155 72.117667
v 29.580722 -1.135362 131.334763
v 39.887628 -1.135361 131.334680
v 29.580267 14.072661 75.197858
v 39.887173 14.072662 75.197775
vn -0.000002 -0.965208 -0.261484
vn -0.000002 -0.965208 -0.261484
vn -0.000002 -0.965208 -0.261484
vn -0.000002 -0.965208 -0.261484
vn 0.000002 0.965208 0.261484
vn 0.000002 0.965208 0.261484
vn 0.000002 0.965208 0.261484
vn 0.000002 0.965208 0.261484
vn 0.000008 -0.261484 0.965208
vn 0.000008 -0.261484 0.965208
vn 0.000008 -0.261484 0.965208
vn 0.000008 -0.261484 0.965208
vn 1.000000 0.000000 -0.000008
vn 1.000000 0.000000 -0.000008
vn 1.000000 0.000000 -0.000008
vn 1.000000 0.000000 -0.000008
vn -0.000008 0.261484 -0.965208
vn -0.000008 0.261484 -0.965208
vn -0.000008 0.261484 -0.965208
vn -0.000008 0.261484 -0.965208
vn -1.000000 -0.000000 0.000008
vn -1.000000 -0.000000 0.000008
vn -1.000000 -0.000000 0.000008
vn -1.000000 -0.000000 0.000008
s off
g initialShadingGroup Box02
f 125//186 127//187 128//188 126//189
f 129//190 130//191 132//192 131//193
f 125//194 126//195 130//196 129//197
f 126//198 128//199 132//200 130//201
f 128//202 127//203 131//204 132//205
f 127//206 125//207 129//208 131//209
g default
v -41.095404 -12.484796 128.260232
v -30.788498 -12.484796 128.260206
v -41.095546 2.683094 72.112463
v -30.788639 2.683094 72.112437
v -41.095396 -1.113090 131.332212
v -30.788489 -1.113091 131.332186
v -41.095537 14.054800 75.184443
v -30.788631 14.054800 75.184417
vn -0.000001 -0.965394 -0.260794
vn -0.000001 -0.965394 -0.260794
vn -0.000001 -0.965394 -0.260794
vn -0.000001 -0.965394 -0.260794
vn 0.000001 0.965394 0.260794
vn 0.000001 0.965394 0.260794
vn 0.000001 0.965394 0.260794
vn 0.000001 0.965394 0.260794
vn 0.000002 -0.260794 0.965395
vn 0.000002 -0.260794 0.965395
vn 0.000002 -0.260794 0.965395
vn 0.000002 -0.260794 0.965395
vn 1.000000 -0.000000 -0.000003
vn 1.000000 -0.000000 -0.000003
vn 1.000000 -0.000000 -0.000003
vn 1.000000 -0.000000 -0.000003
vn -0.000002 0.260794 -0.965395
vn -0.000002 0.260794 -0.965395
vn -0.000002 0.260794 -0.965395
vn -0.000002 0.260794 -0.965395
vn -1.000000 0.000000 0.000003
vn -1.000000 0.000000 0.000003
vn -1.000000 0.000000 0.000003
vn -1.000000 0.000000 0.000003
s off
g initialShadingGroup Box01
f 133//210 135//211 136//212 134//213
f 137//214 138//215 140//216 139//217
f 133//218 134//219 138//220 137//221
f 134//222 136//223 140//224 138//225
f 136//226 135//227 139//228 140//229
f 135//230 133//231 137//232 139//233
