# This file uses meters as units for non-parametric coordinates.

mtllib tr_mo_kami_preacher_2_lod.max.fobj.mtl
g skinCluster1Set tweakSet1
v -0.071683 68.190798 -0.113750
v -9.737382 66.532031 -0.238142
v -14.207412 56.067617 -1.404537
v -23.429964 44.752669 -1.845538
v -34.744927 35.515960 -1.845551
v -37.631451 28.588422 -1.845558
v -14.361210 42.106884 5.678569
v -20.684741 27.549203 0.052072
v -19.181941 10.856456 -0.412969
v -11.334680 3.764433 -1.845598
v -11.044633 0.021502 -1.845594
v -1.692441 0.021419 -1.845601
v -2.118678 4.111040 -1.845591
v -0.071744 8.036627 -1.845588
v -0.071698 11.876028 15.575349
v -0.071674 25.623520 20.521710
v -0.071673 41.057861 17.320933
v -0.071679 53.181101 13.080311
v -0.071683 61.609626 10.453411
v -21.818265 37.090124 3.349431
v -32.238795 32.726567 0.472821
v -5.432942 0.019947 5.326172
v -6.214417 3.110889 3.558109
v -5.916509 7.006561 7.252688
v -0.071739 12.957843 -16.998114
v -0.071770 27.667796 -17.351256
v -0.071684 53.869429 -10.636751
v -0.071683 62.234324 -8.736905
v -13.078867 41.653436 -7.120463
v -21.818263 37.090137 -7.040535
v -32.238775 32.726568 -4.163929
v -5.432942 0.019967 -9.017367
v -6.065477 4.838678 -8.665421
v -13.884221 26.454629 14.329131
v -11.049254 12.843484 11.202136
v -12.738788 28.167468 -12.062221
v -12.559746 14.216428 -14.004292
v 9.594016 66.532022 -0.238138
v 14.064036 56.067593 -1.404533
v 23.286565 44.752632 -1.845536
v 34.601505 35.515864 -1.845547
v 37.488012 28.588322 -1.845553
v 14.217840 42.106846 5.678500
v 20.541291 27.549179 0.051966
v 19.038452 10.856442 -0.413077
v 11.191171 3.764403 -1.845598
v 10.901111 0.021478 -1.845597
v 1.548921 0.021416 -1.845604
v 1.975170 4.111043 -1.845594
v 21.674870 37.090093 3.349437
v 32.095356 32.726481 0.472830
v 5.289422 0.019935 5.326168
v 6.070904 3.110877 3.558106
v 5.773062 7.006564 7.252656
v 12.935446 41.653411 -7.120462
v 21.674870 37.090107 -7.040526
v 32.095344 32.726482 -4.163924
v 5.289422 0.019955 -9.017367
v 5.921972 4.838669 -8.665419
v 13.740842 26.454612 14.329058
v 10.905829 12.843480 11.202082
v 12.595275 28.167454 -12.062283
v 12.416193 14.216434 -14.004358
vt 0.515803 0.961375
vt 0.339781 0.938799
vt 0.271258 0.797042
vt 0.134029 0.628331
vt 0.041727 0.452470
vt 0.049938 0.351746
vt 0.268900 0.607922
vt 0.145218 0.410716
vt 0.168255 0.184586
vt 0.288550 0.088513
vt 0.292997 0.037810
vt 0.463108 0.037808
vt 0.456573 0.093208
vt 0.515803 0.146287
vt 0.487952 0.198398
vt 0.487952 0.384630
vt 0.487952 0.593712
vt 0.487952 0.757940
vt 0.487952 0.872117
vt 0.209550 0.543664
vt 0.095762 0.432333
vt 0.388574 0.039430
vt 0.376594 0.081301
vt 0.381160 0.134074
vt 0.515803 0.212969
vt 0.515803 0.412289
vt 0.515803 0.767321
vt 0.515803 0.880665
vt 0.276212 0.395888
vt 0.319671 0.211504
vt 0.673533 0.938899
vt 0.746477 0.797106
vt 0.892526 0.629457
vt 0.962963 0.474045
vt 0.947031 0.384953
vt 0.842456 0.523544
vt 0.852177 0.410682
vt 0.827653 0.184496
vt 0.699597 0.088399
vt 0.694864 0.037682
vt 0.542250 0.037681
vt 0.549205 0.093095
vt 0.209550 0.543664
vt 0.095762 0.432333
vt 0.388574 0.039430
vt 0.376594 0.081301
vt 0.381160 0.134074
vt 0.728060 0.601794
vt 0.832853 0.554292
vt 0.910942 0.453764
vt 0.603289 0.037661
vt 0.613612 0.102955
vt 0.276212 0.395888
vt 0.319671 0.211504
vt 0.722510 0.419059
vt 0.719588 0.230023
vt 0.515803 0.212969
vt 0.719588 0.230023
vt 0.515803 0.412289
vt 0.892526 0.629457
vt 0.728060 0.601794
vt 0.832853 0.554292
vt 0.515803 0.961375
vt 0.515803 0.880665
vt 0.673533 0.938899
vt 0.746477 0.797106
vt 0.515803 0.767321
vt 0.722510 0.419059
vt 0.852177 0.410682
vt 0.842456 0.523544
vt 0.542250 0.037681
vt 0.603289 0.037661
vt 0.549205 0.093095
vt 0.694864 0.037682
vt 0.613612 0.102955
vt 0.827653 0.184496
vt 0.699597 0.088399
vt 0.515803 0.146287
vt 0.910942 0.453764
vt 0.962963 0.474045
vt 0.947031 0.384953
vt 0.487952 0.384630
vt 0.134029 0.628331
vt 0.268900 0.607922
vt 0.515803 0.961375
vt 0.487952 0.872117
vt 0.339781 0.938799
vt 0.271258 0.797042
vt 0.487952 0.757940
vt 0.487952 0.593712
vt 0.463108 0.037808
vt 0.456573 0.093208
vt 0.292997 0.037810
vt 0.487952 0.198398
vt 0.168255 0.184586
vt 0.288550 0.088513
vt 0.515803 0.146287
vt 0.041727 0.452470
vt 0.049938 0.351746
vt 0.145218 0.410716
vn -0.686876 0.047600 0.725214
vn -0.561026 -0.441562 0.700195
vn 0.000003 -0.040300 0.999188
vn -0.715482 0.374140 0.590004
vn -0.714983 0.695091 -0.075158
vn -0.450823 0.433995 0.780004
vn 0.000000 0.447003 0.894533
vn 0.000000 0.999252 0.038683
vn -0.748536 0.660546 0.058081
vn -0.876165 0.479938 -0.044663
vn 0.000001 0.364783 0.931093
vn 0.000003 0.347639 0.937629
vn 0.079072 0.384844 0.919588
vn 0.994613 0.103662 -0.000000
vn 0.984528 -0.171245 -0.037150
vn -0.157667 -0.481092 0.862376
vn -0.996290 -0.045674 -0.072945
vn -0.041728 -0.858934 0.510384
vn 0.000002 -0.553295 0.832985
vn -0.936993 -0.348612 -0.022682
vn -0.777846 -0.618676 -0.110433
vn 0.000000 -0.999014 -0.044394
vn -0.402290 0.387299 0.829556
vn -0.733661 0.679515 -0.000002
vn -0.923074 0.384621 -0.000005
vn -0.000002 -0.355505 -0.934674
vn -0.626335 -0.243679 -0.740489
vn -0.000002 0.184385 -0.982854
vn -0.568734 0.307043 -0.763064
vn -0.351853 0.473452 -0.807492
vn 0.000000 0.430850 -0.902424
vn 0.000001 0.265603 -0.964083
vn -0.624866 0.180233 -0.759644
vn -0.995201 0.097851 -0.000685
vn 0.008452 0.060207 -0.998150
vn -0.093487 -0.740234 -0.665817
vn -0.402289 0.387300 -0.829555
vn 0.561029 -0.441563 0.700192
vn 0.686880 0.047599 0.725211
vn 0.714983 0.695090 -0.075160
vn 0.715484 0.374137 0.590003
vn 0.450823 0.433996 0.780004
vn 0.748536 0.660545 0.058081
vn 0.876166 0.479935 -0.044663
vn -0.994612 0.103666 -0.000000
vn -0.079071 0.384844 0.919589
vn -0.984529 -0.171240 -0.037150
vn 0.996289 -0.045677 -0.072946
vn 0.157667 -0.481086 0.862379
vn 0.041731 -0.858933 0.510385
vn 0.936992 -0.348613 -0.022687
vn 0.777845 -0.618678 -0.110431
vn 0.402292 0.387298 0.829555
vn 0.733664 0.679513 -0.000001
vn 0.923075 0.384619 -0.000003
vn 0.626332 -0.243680 -0.740492
vn 0.568733 0.307041 -0.763065
vn 0.351854 0.473451 -0.807492
vn 0.624862 0.180233 -0.759647
vn 0.995201 0.097849 -0.000690
vn -0.008452 0.060207 -0.998150
vn 0.093485 -0.740234 -0.665818
vn 0.402291 0.387299 -0.829555
s 1
g TR_MO_Kami_preacher_2_LOD
usemtl TR_MO_Kami_preacher_2_LODSG
f 34/29/1 35/30/2 16/16/3
f 7/7/4 4/4/5 20/20/6
f 19/19/7 1/1/8 2/2/9
f 19/19/7 2/2/9 3/3/10
f 7/7/4 18/18/11 3/3/10
f 17/17/12 18/18/11 7/7/4
f 34/29/1 17/17/12 7/7/4
f 16/16/3 17/17/12 34/29/1
f 22/22/13 12/12/14 13/13/15
f 23/23/16 11/11/17 22/22/13
f 35/30/2 24/24/18 15/15/19
f 35/30/2 15/15/19 16/16/3
f 23/23/16 9/9/20 10/10/21
f 14/14/22 23/23/16 13/13/15
f 18/18/11 19/19/7 3/3/10
f 3/3/10 4/4/5 7/7/4
f 4/4/5 21/21/23 20/20/6
f 4/4/5 5/5/24 21/21/23
f 5/5/24 6/6/25 21/21/23
f 23/23/16 22/22/13 13/13/15
f 24/24/18 9/9/20 23/23/16
f 10/10/21 11/11/17 23/23/16
f 14/14/22 24/24/18 23/23/16
f 14/14/22 15/15/19 24/24/18
f 25/57/26 37/58/27 26/59/28
f 4/60/5 29/61/29 30/62/30
f 1/63/8 28/64/31 2/65/9
f 2/65/9 28/64/31 3/66/10
f 27/67/32 29/61/29 3/66/10
f 36/68/33 29/61/29 26/59/28
f 8/69/34 36/68/33 37/58/27
f 7/70/4 29/61/29 8/69/34
f 12/71/14 32/72/35 13/73/15
f 11/74/17 33/75/36 32/72/35
f 29/61/29 36/68/33 8/69/34
f 25/57/26 33/75/36 37/58/27
f 9/76/20 33/75/36 10/77/21
f 33/75/36 14/78/22 13/73/15
f 28/64/31 27/67/32 3/66/10
f 4/60/5 3/66/10 29/61/29
f 31/79/37 4/60/5 30/62/30
f 5/80/24 4/60/5 31/79/37
f 6/81/25 5/80/24 31/79/37
f 32/72/35 33/75/36 13/73/15
f 11/74/17 10/77/21 33/75/36
f 25/57/26 14/78/22 33/75/36
f 34/29/1 7/7/4 8/8/34
f 34/29/1 9/9/20 35/30/2
f 8/8/34 9/9/20 34/29/1
f 9/9/20 24/24/18 35/30/2
f 29/61/29 27/67/32 26/59/28
f 36/68/33 26/59/28 37/58/27
f 37/58/27 33/75/36 9/76/20
f 37/58/27 9/76/20 8/69/34
usemtl TR_MO_Kami_preacher_2_LODSG1
f 61/54/38 60/53/39 16/82/3
f 40/83/40 43/84/41 50/43/42
f 1/85/8 19/86/7 38/87/43
f 38/87/43 19/86/7 39/88/44
f 18/89/11 43/84/41 39/88/44
f 18/89/11 17/90/12 43/84/41
f 17/90/12 60/53/39 43/84/41
f 17/90/12 16/82/3 60/53/39
f 48/91/45 52/45/46 49/92/47
f 47/93/48 53/46/49 52/45/46
f 54/47/50 61/54/38 15/94/19
f 15/94/19 61/54/38 16/82/3
f 45/95/51 53/46/49 46/96/52
f 53/46/49 14/97/22 49/92/47
f 19/86/7 18/89/11 39/88/44
f 40/83/40 39/88/44 43/84/41
f 51/44/53 40/83/40 50/43/42
f 41/98/54 40/83/40 51/44/53
f 42/99/55 41/98/54 51/44/53
f 52/45/46 53/46/49 49/92/47
f 45/95/51 54/47/50 53/46/49
f 47/93/48 46/96/52 53/46/49
f 54/47/50 14/97/22 53/46/49
f 15/94/19 14/97/22 54/47/50
f 63/56/56 25/25/26 26/26/28
f 55/48/57 40/33/40 56/49/58
f 28/28/31 1/1/8 38/31/43
f 28/28/31 38/31/43 39/32/44
f 55/48/57 27/27/32 39/32/44
f 55/48/57 62/55/59 26/26/28
f 62/55/59 44/37/60 63/56/56
f 55/48/57 43/36/41 44/37/60
f 58/51/61 48/41/45 49/42/47
f 59/52/62 47/40/48 58/51/61
f 62/55/59 55/48/57 44/37/60
f 59/52/62 25/25/26 63/56/56
f 59/52/62 45/38/51 46/39/52
f 14/14/22 59/52/62 49/42/47
f 27/27/32 28/28/31 39/32/44
f 39/32/44 40/33/40 55/48/57
f 40/33/40 57/50/63 56/49/58
f 40/33/40 41/34/54 57/50/63
f 41/34/54 42/35/55 57/50/63
f 59/52/62 58/51/61 49/42/47
f 46/39/52 47/40/48 59/52/62
f 14/14/22 25/25/26 59/52/62
f 43/84/41 60/53/39 44/100/60
f 45/95/51 44/100/60 60/53/39
f 61/54/38 45/95/51 60/53/39
f 54/47/50 45/95/51 61/54/38
f 27/27/32 55/48/57 26/26/28
f 26/26/28 62/55/59 63/56/56
f 59/52/62 63/56/56 45/38/51
f 45/38/51 63/56/56 44/37/60
