# This file uses meters as units for non-parametric coordinates.

mtllib tr_mo_kitinega_lod.max.fobj.mtl
g skinCluster1Set tweakSet1
v -20.854504 193.780494 3.362451
v -92.062376 120.881021 -43.017036
v -90.649359 103.415895 -63.148296
v -121.660362 166.566935 -92.576653
v -127.124535 184.378979 -82.810473
v -119.240831 213.490090 -90.280610
v -157.289265 122.308844 -129.160076
v -175.953685 127.871263 -146.889824
v -132.817660 0.576186 -106.762344
v -82.963489 141.146648 -55.854672
v 0.000815 220.833494 30.742624
v 0.000904 164.224422 36.369568
v 0.000827 213.489719 77.731740
v -40.888639 350.085390 85.055983
v 0.000973 278.563666 99.385566
v 0.001055 319.260645 -9.756008
v 0.000772 126.164782 0.161859
v 0.000719 86.690331 4.163107
v 0.000798 153.052962 187.631994
v 0.000805 145.402920 -117.849809
v 0.000739 104.096007 -107.172197
v 0.001005 300.304693 -152.686983
v 0.001049 311.143196 -97.280580
v 0.000964 251.592338 -104.937524
v -28.500460 276.535475 -119.501370
v -26.462848 193.780474 26.174098
v -110.040842 120.881128 41.547647
v -112.277590 141.146797 25.972346
v -122.873341 103.416049 25.972245
v -162.865923 184.379146 36.817901
v -162.289356 213.490283 25.972546
v -165.624963 166.567132 25.972423
v -216.651665 122.309142 23.960962
v -242.394672 127.871597 23.948023
v -216.651665 122.309142 23.960964
v -183.483230 0.576520 23.362233
v -20.468573 193.780635 48.515388
v 0.000955 241.303870 130.515999
v -30.139683 294.662100 47.990838
v -70.860641 270.197397 55.034524
v -130.692123 408.970881 15.242188
v -74.610923 120.881003 114.015114
v -94.452833 103.415871 110.332209
v -127.202497 166.566801 137.812644
v -118.117677 184.378837 144.347316
v -124.647342 213.489961 135.668713
v -167.584120 122.308671 169.071132
v -187.312768 127.871060 185.608536
v -142.560171 0.576091 147.291988
v -86.336051 141.146642 103.521508
v -110.040842 120.881128 41.547647
v -122.873341 103.416049 25.972245
v -165.624963 166.567132 25.972423
v -162.865923 184.379146 36.817901
v -162.289356 213.490283 25.972546
v -242.394672 127.871597 23.948023
v -183.483230 0.576520 23.362233
v -112.277590 141.146797 25.972346
v 20.856223 193.780558 3.362452
v 92.063929 120.880789 -43.017048
v 90.650882 103.415656 -63.148314
v 121.662106 166.566548 -92.576700
v 127.126326 184.378576 -82.810509
v 119.242705 213.489712 -90.280646
v 157.290889 122.308409 -129.160148
v 175.955333 127.870780 -146.889895
v 132.818855 0.575900 -106.762391
v 82.965125 141.146439 -55.854690
v 28.502440 276.535398 -119.501394
v 26.464567 193.780556 26.174100
v 110.042168 120.880473 41.547719
v 112.279035 141.146117 25.972411
v 122.874559 103.415322 25.972322
v 162.867655 184.378222 36.817984
v 162.291266 213.489365 25.972626
v 165.626611 166.566190 25.972505
v 216.653074 122.307903 23.961031
v 242.396130 127.870220 23.948091
v 216.653074 122.307903 23.961033
v 183.483888 0.575399 23.362278
v 20.470285 193.780699 48.515391
v 40.890761 350.085294 85.055941
v 30.141689 294.662017 47.990847
v 70.862521 270.197248 55.034551
v 130.694343 408.970571 15.242240
v 12.662297 103.167105 1.176915
v 74.612345 120.880800 114.015138
v 94.454201 103.415620 110.332268
v 127.204145 166.566521 137.812680
v 118.119361 184.378573 144.347328
v 124.649097 213.489684 135.668725
v 167.585696 122.308290 169.071001
v 187.314357 127.870637 185.608393
v 142.561425 0.575733 147.291917
v 86.337526 141.146415 103.521556
v 110.042168 120.880473 41.547719
v 122.874559 103.415322 25.972322
v 165.626611 166.566190 25.972505
v 162.867655 184.378222 36.817984
v 162.291266 213.489365 25.972626
v 242.396130 127.870220 23.948091
v 183.483888 0.575399 23.362278
v 112.279035 141.146117 25.972411
vt 0.650156 0.227823
vt 0.613375 0.289684
vt 0.455821 0.173727
vt 0.797479 0.228609
vt 0.756670 0.270304
vt 0.850952 0.172040
vt 0.762996 0.409302
vt 0.848224 0.410855
vt 0.762996 0.409302
vt 0.848902 0.755559
vt 0.674030 0.172047
vt 0.271852 0.214439
vt 0.450820 0.539379
vt 0.426333 0.171082
vt 0.426334 0.171082
vt 0.450820 0.539379
vt 0.271852 0.214439
vt 0.792073 0.776329
vt 0.401243 0.559686
vt 0.473147 0.961375
vt 0.610937 0.661256
vt 0.792073 0.776329
vt 0.473147 0.961375
vt 0.401243 0.559686
vt 0.641723 0.592909
vt 0.610937 0.661256
vt 0.721352 0.837415
vt 0.905456 0.898489
vt 0.843966 0.821530
vt 0.868746 0.717797
vt 0.877460 0.424826
vt 0.956201 0.716244
vt 0.958929 0.961354
vt 0.563797 0.959668
vt 0.758133 0.899275
vt 0.782007 0.961348
vt 0.613375 0.289684
vt 0.797479 0.228610
vt 0.756670 0.270304
vt 0.762996 0.409302
vt 0.848902 0.755560
vt 0.848224 0.410855
vt 0.850952 0.172040
vt 0.455821 0.173727
vt 0.650156 0.227823
vt 0.674030 0.172047
vt 0.720528 0.157909
vt 0.904632 0.096835
vt 0.863822 0.138530
vt 0.870149 0.277527
vt 0.961463 0.563057
vt 0.961359 0.279081
vt 0.961406 0.040266
vt 0.562974 0.041952
vt 0.757309 0.096049
vt 0.781183 0.040273
vt 0.720528 0.157909
vt 0.863822 0.138530
vt 0.904632 0.096835
vt 0.961359 0.279081
vt 0.961463 0.563057
vt 0.870149 0.277527
vt 0.961406 0.040266
vt 0.781183 0.040273
vt 0.757309 0.096049
vt 0.562974 0.041952
vt 0.613375 0.289684
vt 0.756670 0.270304
vt 0.797479 0.228609
vt 0.848224 0.410855
vt 0.848902 0.755559
vt 0.762996 0.409302
vt 0.850952 0.172040
vt 0.674030 0.172047
vt 0.650156 0.227823
vt 0.455821 0.173727
vt 0.721352 0.837415
vt 0.843966 0.821530
vt 0.905456 0.898489
vt 0.956201 0.716244
vt 0.877460 0.424826
vt 0.868746 0.717797
vt 0.958929 0.961354
vt 0.782007 0.961348
vt 0.758133 0.899275
vt 0.563797 0.959668
vt 0.707690 0.294030
vt 0.469720 0.438244
vt 0.828021 0.749472
vt 0.688476 0.502558
vt 0.139750 0.752956
vt 0.215896 0.815707
vt 0.139749 0.839866
vt 0.074589 0.959817
vt 0.141234 0.176295
vt 0.646697 0.116610
vt 0.056002 0.040484
vt 0.039309 0.252240
vt 0.040392 0.770728
vt 0.139750 0.664217
vt 0.139750 0.752956
vt 0.074589 0.959817
vt 0.139749 0.839866
vt 0.215896 0.815707
vt 0.219295 0.211959
vt 0.056002 0.040484
vt 0.646697 0.116610
vt 0.141234 0.176295
vt 0.139750 0.664217
vt 0.040392 0.770728
vt 0.039309 0.252240
vt 0.252265 0.230838
vt 0.230382 0.685007
vt 0.406274 0.690411
vt 0.231406 0.964706
vt 0.335256 0.691631
vt 0.442952 0.965598
vt 0.762996 0.409302
vt 0.762996 0.409302
vt 0.613375 0.289684
vt 0.650156 0.227823
vt 0.613375 0.289684
vt 0.756670 0.270304
vt 0.797479 0.228610
vt 0.613375 0.289684
vt 0.797479 0.228610
vt 0.650156 0.227823
vt 0.797479 0.228610
vt 0.850952 0.172040
vt 0.650156 0.227823
vt 0.850952 0.172040
vt 0.797479 0.228610
vt 0.850952 0.172040
vt 0.848224 0.410855
vt 0.797479 0.228610
vt 0.756670 0.270304
vt 0.848902 0.755560
vt 0.848224 0.410855
vt 0.850952 0.172040
vt 0.674030 0.172047
vt 0.650156 0.227823
vt 0.650156 0.227823
vt 0.674030 0.172047
vn -0.489482 -0.377418 0.786106
vn -0.634595 -0.608385 0.476610
vn -0.645395 0.154493 0.748062
vn -0.789518 0.195999 0.581588
vn -0.671504 -0.503886 0.543305
vn -0.698665 0.303482 0.647893
vn -0.699684 -0.008791 0.714398
vn -0.690597 -0.012329 0.723134
vn -0.689551 -0.005369 0.724217
vn -0.426259 0.612865 0.665357
vn 0.186061 -0.377421 0.907158
vn -0.132243 -0.608387 0.782545
vn 0.046775 0.154495 0.986886
vn -0.172357 0.195997 0.965339
vn -0.113105 -0.503888 0.856332
vn -0.060813 0.303479 0.950895
vn -0.015772 -0.008794 0.999837
vn -0.003167 -0.012332 0.999919
vn -0.952473 -0.304624 -0.000000
vn -0.001663 -0.005371 0.999984
vn 0.148806 0.612863 0.776051
vn -0.158992 -0.979511 0.123615
vn -0.999603 -0.008951 -0.026714
vn -0.973200 -0.200243 -0.113068
vn -0.000002 0.886493 0.462742
vn -0.857664 -0.081478 0.507715
vn -0.000001 0.435529 0.900175
vn -0.000001 -0.641164 -0.767404
vn 0.000001 0.282343 0.959314
vn -0.037334 0.373338 0.926944
vn 0.000536 0.275849 0.961201
vn 0.000536 0.275849 0.961201
vn 0.000536 0.275849 0.961201
vn -0.979986 0.196759 0.030219
vn -0.000001 -0.942823 -0.333294
vn 0.000000 -0.266746 0.963767
vn 0.000001 0.247545 -0.968876
vn 0.979987 0.196755 0.030219
vn -0.977440 0.090590 -0.190801
vn 0.000001 0.877818 0.478993
vn -0.000000 0.144378 -0.989523
vn -0.690360 -0.707915 0.149196
vn -0.230209 -0.334702 -0.913772
vn 0.725642 -0.377420 0.575324
vn 0.401709 -0.608387 0.684467
vn 0.670192 0.154492 0.725930
vn 0.488474 0.195997 0.850281
vn 0.463797 -0.503888 0.728690
vn 0.564638 0.303480 0.767518
vn 0.630601 -0.008793 0.776058
vn 0.640310 -0.012332 0.768018
vn 0.641504 -0.005372 0.767101
vn 0.612826 0.612864 0.498840
vn 0.186061 -0.377421 0.907158
vn -0.132243 -0.608387 0.782545
vn 0.046775 0.154495 0.986886
vn -0.172357 0.195997 0.965339
vn -0.113105 -0.503888 0.856332
vn -0.060813 0.303479 0.950895
vn -0.015772 -0.008794 0.999837
vn -0.003167 -0.012332 0.999919
vn -0.001663 -0.005371 0.999984
vn 0.148806 0.612863 0.776051
vn 0.645397 0.154493 0.748061
vn 0.634593 -0.608386 0.476611
vn 0.489480 -0.377420 0.786107
vn 0.671502 -0.503888 0.543306
vn 0.789520 0.195997 0.581587
vn 0.698667 0.303480 0.647892
vn 0.699683 -0.008794 0.714399
vn 0.690597 -0.012332 0.723135
vn 0.689551 -0.005371 0.724217
vn 0.426261 0.612863 0.665357
vn -0.046773 0.154497 0.986885
vn 0.132238 -0.608388 0.782545
vn -0.186065 -0.377420 0.907157
vn 0.113102 -0.503888 0.856332
vn 0.172358 0.195996 0.965338
vn 0.060815 0.303479 0.950895
vn 0.015773 -0.008794 0.999837
vn 0.003167 -0.012332 0.999919
vn 0.956968 0.290193 0.000000
vn 0.001663 -0.005372 0.999984
vn -0.148802 0.612864 0.776051
vn 0.894700 0.373410 0.245105
vn 0.999603 -0.008948 -0.026713
vn 0.857664 -0.081475 0.507715
vn 0.037336 0.373338 0.926944
vn -0.000536 0.275849 0.961201
vn -0.000536 0.275849 0.961201
vn -0.000536 0.275849 0.961201
vn 0.876154 0.481925 -0.010129
vn 0.995958 0.076430 0.047183
vn 0.997665 -0.059213 0.034034
vn 0.797644 -0.593838 0.105455
vn 0.995011 0.035097 -0.093390
vn 0.991421 -0.059531 -0.116367
vn 0.942071 0.245737 -0.228288
vn -0.670190 0.154497 0.725931
vn -0.401710 -0.608385 0.684468
vn -0.725643 -0.377418 0.575324
vn -0.463797 -0.503885 0.728692
vn -0.488472 0.195999 0.850282
vn -0.564636 0.303482 0.767519
vn -0.630600 -0.008792 0.776058
vn -0.640309 -0.012331 0.768018
vn -0.641504 -0.005369 0.767101
vn -0.612824 0.612866 0.498840
vn -0.046773 0.154497 0.986885
vn 0.132238 -0.608388 0.782545
vn -0.186065 -0.377420 0.907157
vn 0.113102 -0.503888 0.856332
vn 0.172358 0.195996 0.965338
vn 0.060815 0.303479 0.950895
vn 0.015773 -0.008794 0.999837
vn 0.003167 -0.012332 0.999919
vn 0.001663 -0.005372 0.999984
vn -0.148802 0.612864 0.776051
s 1
g TR_MO_kitinega_LOD
usemtl TR_MO_kitinega_LODSG1
f 2/65/1 3/57/2 1/66/3
f 5/59/4 4/58/5 3/57/2
f 2/65/1 5/59/4 3/57/2
f 2/65/1 6/63/6 5/59/4
f 5/59/4 6/63/6 7/62/7
f 8/60/8 7/62/7 6/63/6
f 4/58/5 5/59/4 7/62/7
f 8/60/8 9/61/9 7/62/7
f 2/65/1 10/64/10 6/63/6
f 10/64/10 2/65/1 1/66/3
s 3
f 27/1/11 29/2/12 26/3/13
f 30/4/14 32/5/15 29/2/12
f 27/1/11 30/4/14 29/2/12
f 27/1/11 31/6/16 30/4/14
f 30/4/14 31/6/16 33/7/17
f 34/8/18 33/7/17 31/6/16
f 32/5/15 30/4/14 33/7/17
f 33/7/17 35/9/19 32/5/15
f 34/8/18 36/10/20 33/7/17
f 33/7/17 36/10/20 35/9/19
f 27/1/11 28/11/21 31/6/16
f 28/11/21 27/1/11 26/3/13
s 5
f 12/104/22 26/101/23 1/109/24
f 26/101/23 11/110/25 1/109/24
f 12/104/22 37/103/26 26/101/23
f 11/110/25 26/101/23 37/103/26
f 13/102/27 11/110/25 37/103/26
f 13/102/27 37/103/26 12/104/22
s 6
f 15/90/28 38/89/29 14/87/30
s off
f 39/12/31 41/13/32 40/14/33
s 7
f 39/21/34 11/20/35 15/18/36
f 16/19/37 11/20/35 39/21/34
usemtl TR_MO_kitinega_LODSG
f 39/25/34 15/22/36 83/26/38
s 5
usemtl TR_MO_kitinega_LODSG1
f 25/108/39 23/111/40 22/106/41
f 25/108/39 1/109/24 23/111/40
f 24/105/42 12/104/22 1/109/24
f 24/105/42 1/109/24 25/108/39
f 25/108/39 20/107/43 24/105/42
f 22/106/41 20/107/43 25/108/39
f 1/109/24 11/110/25 23/111/40
s 9
f 42/85/44 43/77/45 37/86/46
f 45/79/47 44/78/48 43/77/45
f 42/85/44 45/79/47 43/77/45
f 42/85/44 46/83/49 45/79/47
f 45/79/47 46/83/49 47/82/50
f 48/80/51 47/82/50 46/83/49
f 44/78/48 45/79/47 47/82/50
f 48/80/51 49/81/52 47/82/50
f 42/85/44 50/84/53 46/83/49
f 50/84/53 42/85/44 37/86/46
s 11
f 51/75/54 52/67/55 26/76/56
f 54/69/57 53/68/58 52/67/55
f 51/75/54 54/69/57 52/67/55
f 51/75/54 55/73/59 54/69/57
f 54/69/57 55/73/59 33/72/60
f 56/70/61 33/72/60 55/73/59
f 53/68/58 54/69/57 33/72/60
f 56/70/61 57/71/62 33/72/60
f 51/75/54 58/74/63 55/73/59
f 58/74/63 51/75/54 26/76/56
s 13
usemtl TR_MO_kitinega_LODSG
f 59/54/64 61/47/65 60/55/66
f 61/47/65 62/49/67 63/48/68
f 61/47/65 63/48/68 60/55/66
f 63/48/68 64/53/69 60/55/66
f 65/50/70 64/53/69 63/48/68
f 64/53/69 65/50/70 66/52/71
f 65/50/70 63/48/68 62/49/67
f 65/50/70 67/51/72 66/52/71
f 64/53/69 68/56/73 60/55/66
f 59/54/64 60/55/66 68/56/73
s 15
f 70/44/74 73/37/75 71/45/76
f 73/37/75 76/39/77 74/38/78
f 73/37/75 74/38/78 71/45/76
f 74/38/78 75/43/79 71/45/76
f 77/40/80 75/43/79 74/38/78
f 75/43/79 77/40/80 78/42/81
f 77/40/80 74/38/78 76/39/77
f 76/39/77 79/118/82 77/40/80
f 77/40/80 80/41/83 78/42/81
f 79/119/82 80/41/83 77/40/80
f 75/43/79 72/46/84 71/45/76
f 70/44/74 71/45/76 72/46/84
s 5
f 59/100/85 70/91/86 12/92/22
f 59/100/85 11/99/25 70/91/86
f 70/91/86 81/93/87 12/92/22
f 81/93/87 70/91/86 11/99/25
f 81/93/87 11/99/25 13/94/27
f 12/92/22 81/93/87 13/94/27
s 6
f 38/89/29 82/88/88 14/87/30
usemtl TR_MO_kitinega_LODSG1
f 82/88/88 38/89/29 15/90/28
s off
usemtl TR_MO_kitinega_LODSG
f 84/15/89 85/16/90 83/17/91
s 7
f 83/26/38 11/23/35 16/24/37
f 83/26/38 15/22/36 11/23/35
f 16/24/37 39/25/34 83/26/38
s 18
f 17/113/92 19/112/93 86/116/94
f 86/116/94 19/112/93 18/114/95
f 17/113/92 86/116/94 20/115/96
f 86/116/94 18/114/95 21/117/97
f 20/115/96 86/116/94 21/117/97
s 5
f 22/97/41 23/98/40 69/95/98
f 23/98/40 59/100/85 69/95/98
f 69/95/98 20/96/43 22/97/41
f 23/98/40 11/99/25 59/100/85
s 19
f 81/34/99 88/27/100 87/35/101
f 88/27/100 89/29/102 90/28/103
f 88/27/100 90/28/103 87/35/101
f 90/28/103 91/33/104 87/35/101
f 92/30/105 91/33/104 90/28/103
f 91/33/104 92/30/105 93/32/106
f 92/30/105 90/28/103 89/29/102
f 92/30/105 94/31/107 93/32/106
f 91/33/104 95/36/108 87/35/101
f 81/34/99 87/35/101 95/36/108
s 21
f 70/44/109 97/120/110 96/121/111
f 97/122/110 98/123/112 99/124/113
f 97/125/110 99/126/113 96/127/111
f 99/128/113 100/129/114 96/130/111
f 77/40/115 100/131/114 99/132/113
f 100/133/114 77/40/115 101/134/116
f 77/40/115 99/135/113 98/136/112
f 77/40/115 102/137/117 101/138/116
f 100/139/114 103/140/118 96/141/111
f 70/44/109 96/142/111 103/143/118
