# This file uses meters as units for non-parametric coordinates.

mtllib tr_mo_ryzoholo_lod.max.fobj.mtl
g skinCluster1Set tweakSet1
v -28.172385 272.183192 -20.717636
v -21.614980 242.459095 -55.251685
v -35.704033 304.646170 -107.212749
v -18.705751 213.441792 -4.991305
v -0.000051 232.974434 -28.533462
v 0.006019 159.188148 9.543687
v 0.000118 251.023549 39.323367
v 0.026195 181.624362 112.798974
v 0.026079 124.389547 93.498924
v 0.026373 169.243694 186.858627
v 0.025041 192.050439 156.346223
v 0.025873 167.967053 -41.278061
v 0.026035 52.521276 54.287416
v -108.860915 8.957469 152.265248
v -99.333762 93.362355 -63.835576
v -100.765901 91.995114 -80.481127
v -93.233429 93.362361 -70.853141
v -34.340461 174.659023 4.038507
v -24.413930 160.457316 -21.646193
v -23.718852 197.472604 45.707488
v -25.886818 154.504241 72.689790
v -14.622797 200.646356 80.004707
v -24.315989 152.627671 101.665965
v -10.887836 179.718588 136.313125
v -36.936949 173.386206 148.168442
v -41.937413 256.371349 3.809702
v -76.277916 351.484847 20.985085
v -40.200116 252.519518 58.390447
v -20.084147 250.635672 116.491666
v -20.705886 252.547759 76.827767
v -29.040550 306.954479 98.679850
v -75.952493 8.606768 -22.227672
v -79.824017 8.957529 -50.064507
v -68.992876 8.957589 -37.623504
v -111.798625 91.539270 157.735035
v -101.216035 92.906457 151.615831
v -105.822246 93.362254 140.219316
v -93.749212 8.960521 146.012482
v -101.066332 8.898282 133.381042
v 28.224148 272.183168 -20.717672
v 21.666649 242.459083 -55.251786
v 35.755579 304.646027 -107.212868
v 18.757671 213.441706 -4.991341
v 108.913202 8.957279 152.265021
v 99.385620 93.362266 -63.835886
v 105.361993 91.539317 -81.351629
v 94.779403 92.906582 -75.232413
v 35.952152 176.563645 8.441335
v 24.465897 160.457240 -21.646348
v 23.770937 197.472633 45.707439
v 25.938941 154.307818 72.538918
v 14.674940 200.646198 80.004805
v 24.368168 152.848563 101.443818
v 10.940091 179.718583 136.313072
v 36.989288 173.386195 148.168072
v 41.989471 256.371510 3.809714
v 76.330049 351.485193 20.984943
v 40.252299 252.519673 58.390343
v 20.136335 250.635278 116.492519
v 20.757989 252.547455 76.828006
v 29.092712 306.954122 98.680243
v 76.004363 8.606732 -22.227785
v 86.374940 8.957553 -49.925593
v 71.210469 8.957481 -43.913600
v 111.850829 91.539162 157.734689
v 101.268239 92.906439 151.615521
v 105.874438 93.362302 140.219000
v 93.801428 8.959949 146.012315
v 101.118512 8.898246 133.380881
vt 0.228487 0.157938
vt 0.399883 0.222821
vt 0.437292 0.455232
vt 0.295175 0.360847
vt 0.578430 0.174578
vt 0.407920 0.570934
vt 0.470095 0.894604
vt 0.366020 0.691107
vt 0.246119 0.568797
vt 0.572996 0.542039
vt 0.242833 0.483342
vt 0.061041 0.339099
vt 0.439003 0.033465
vt 0.473177 0.109534
vt 0.100986 0.039961
vt 0.960731 0.034388
vt 0.211636 0.748489
vt 0.386403 0.754936
vt 0.228487 0.157938
vt 0.295175 0.360847
vt 0.437291 0.455232
vt 0.399883 0.222821
vt 0.407920 0.570934
vt 0.242833 0.483342
vt 0.366020 0.691107
vt 0.473177 0.109534
vt 0.386403 0.754936
vt 0.553101 0.966459
vt 0.296315 0.966651
vt 0.348253 0.833155
vt 0.174670 0.835526
vt 0.179784 0.792426
vt 0.204985 0.536794
vt 0.037925 0.323032
vt 0.035261 0.555259
vt 0.036904 0.570593
vt 0.165644 0.780023
vt 0.034555 0.799241
vt 0.152543 0.966031
vt 0.553101 0.966459
vt 0.174670 0.835526
vt 0.348253 0.833155
vt 0.296315 0.966651
vt 0.179784 0.792426
vt 0.035261 0.555259
vt 0.037925 0.323032
vt 0.204985 0.536794
vt 0.036904 0.570593
vt 0.152543 0.966031
vt 0.034555 0.799241
vt 0.165644 0.780023
vt 0.728541 0.930611
vt 0.493521 0.877167
vt 0.603692 0.964284
vt 0.738675 0.178646
vt 0.740081 0.465760
vt 0.682377 0.178632
vt 0.676599 0.464611
vt 0.601343 0.467837
vt 0.587547 0.178363
vt 0.728541 0.930611
vt 0.493521 0.877168
vt 0.603692 0.964284
vt 0.738676 0.178644
vt 0.740081 0.465761
vt 0.682377 0.178632
vt 0.587547 0.178363
vt 0.601343 0.467838
vt 0.676599 0.464611
vt 0.755146 0.858972
vt 0.839828 0.958802
vt 0.947063 0.908039
vt 0.795185 0.430354
vt 0.750595 0.123581
vt 0.886152 0.125139
vt 0.918012 0.420710
vt 0.965967 0.123385
vt 0.965805 0.420710
vt 0.755146 0.858972
vt 0.839828 0.958803
vt 0.947063 0.908039
vt 0.750595 0.123581
vt 0.795185 0.430354
vt 0.965967 0.123385
vt 0.965805 0.420710
vt 0.886833 0.125139
vt 0.918012 0.420710
vn -0.979414 -0.201469 -0.012566
vn -0.979906 -0.198905 -0.014866
vn -0.975800 -0.218648 0.002907
vn -0.984654 -0.169648 -0.040949
vn -0.952821 0.290953 0.086483
vn -0.973669 0.078745 0.213935
vn -0.855939 0.468455 -0.218906
vn -0.777659 0.281447 -0.562169
vn -0.274490 -0.127798 -0.953060
vn 0.783188 -0.200493 -0.588573
vn -0.893760 -0.108802 -0.435149
vn -0.941431 0.308408 0.136353
vn 0.017645 -0.589638 0.807475
vn -0.323923 -0.046272 0.944951
vn 0.003568 -0.785050 0.619422
vn -0.857036 0.515203 0.007424
vn -0.002714 0.905168 0.425045
vn 0.002036 -0.996301 0.085910
vn -0.809383 0.522586 0.267961
vn -0.000010 0.986722 0.162421
vn 0.000069 -0.305729 -0.952119
vn 0.000071 0.729489 -0.683992
vn 0.001584 -0.668013 0.744148
vn -0.944873 -0.327362 0.006973
vn -0.947636 -0.319262 0.007632
vn -0.940216 -0.340527 0.005896
vn -0.957294 -0.288940 0.010080
vn -0.990890 -0.134372 0.009055
vn -0.990406 -0.137900 0.008877
vn -0.987949 -0.154573 0.008035
vn -0.993222 -0.115799 0.009987
vn -0.971487 -0.198428 0.129767
vn -0.843891 -0.353243 -0.403816
vn 0.753558 -0.041864 -0.656047
vn -0.908607 0.373568 0.186763
vn 0.488124 0.028270 0.872316
vn -0.862117 0.441773 -0.248176
vn -0.874121 -0.042463 0.483847
vn 0.382192 -0.027659 0.923669
vn -0.927449 -0.010285 -0.373808
vn -0.000007 0.925222 0.379425
vn -0.482325 0.819010 0.310780
vn 0.000019 0.800976 0.598696
vn 0.975800 -0.218648 0.002905
vn 0.979906 -0.198904 -0.014869
vn 0.979414 -0.201468 -0.012569
vn 0.984654 -0.169646 -0.040954
vn 0.842306 0.487487 -0.229949
vn 0.980566 0.130169 0.146789
vn 0.919449 0.275012 0.281037
vn 0.875157 0.244976 -0.417238
vn 0.268564 -0.123115 -0.955362
vn -0.500429 0.001486 -0.865776
vn 0.932834 0.326887 0.151545
vn 0.891203 -0.113350 -0.439214
vn 0.325224 -0.048853 0.944374
vn 0.810775 0.522056 0.264767
vn 0.856652 0.515839 0.007619
vn 0.940216 -0.340527 0.005894
vn 0.947636 -0.319262 0.007630
vn 0.944873 -0.327362 0.006971
vn 0.957294 -0.288941 0.010078
vn 0.987949 -0.154573 0.008032
vn 0.990406 -0.137900 0.008874
vn 0.990890 -0.134372 0.009052
vn 0.993222 -0.115799 0.009984
vn 0.941589 -0.284849 -0.179640
vn 0.934288 -0.083663 0.346563
vn -0.368837 -0.252946 -0.894415
vn 0.910373 0.372354 0.180480
vn -0.487933 0.030102 0.872362
vn 0.861890 0.442289 -0.248043
vn -0.382187 -0.027658 0.923671
vn 0.874111 -0.042461 0.483866
vn 0.927447 -0.010284 -0.373813
vn 0.482305 0.819024 0.310775
s 1
g TR_MO_ryzoholo_LOD
usemtl TR_MO_ryzoholo_LODSG1
f 2/30/1 1/29/2 3/28/3
f 1/29/2 2/30/1 4/31/4
s 2
f 15/83/5 18/79/6 4/80/7
f 15/83/5 4/80/7 16/87/8
f 16/87/8 4/80/7 19/81/9
f 16/87/8 19/81/9 17/85/10
f 18/2/6 21/3/11 20/4/12
f 21/3/11 18/2/6 6/5/13
f 23/6/14 10/7/15 24/8/16
f 23/6/14 24/8/16 8/9/17
f 9/10/18 10/7/15 23/6/14
f 22/11/19 8/9/17 7/12/20
f 6/5/13 9/10/18 21/3/11
f 12/13/21 19/14/9 5/15/22
f 19/14/9 13/16/23 6/5/13
f 5/15/22 19/14/9 4/1/7
f 19/14/9 12/13/21 13/16/23
f 18/2/6 19/14/9 6/5/13
f 4/1/7 7/12/20 5/15/22
f 20/4/12 4/1/7 18/2/6
s 6
f 26/33/24 28/35/25 27/32/26
f 26/33/24 20/34/27 28/35/25
s 7
f 30/38/28 29/37/29 31/36/30
f 29/37/29 30/38/28 22/39/31
s 2
f 20/4/12 22/11/19 7/12/20
f 20/4/12 7/12/20 4/1/7
f 32/82/32 16/87/8 33/86/33
f 16/87/8 32/82/32 15/83/5
f 33/86/33 17/85/10 34/84/34
f 17/85/10 33/86/33 16/87/8
f 35/58/35 36/56/36 23/52/14
f 22/54/19 35/58/35 23/52/14
f 37/59/37 35/58/35 21/53/11
f 21/53/11 35/58/35 22/54/19
f 22/11/19 23/6/14 8/9/17
f 14/57/38 38/55/39 36/56/36
f 36/56/36 35/58/35 14/57/38
f 39/60/40 14/57/38 35/58/35
f 35/58/35 37/59/37 39/60/40
f 21/3/11 9/10/18 23/6/14
f 20/4/12 21/3/11 22/11/19
f 24/8/16 11/17/41 8/9/17
f 24/8/16 25/18/42 11/17/41
f 11/17/41 25/18/42 10/7/43
s 10
usemtl TR_MO_ryzoholo_LODSG
f 42/40/44 40/43/45 41/42/46
f 43/41/47 41/42/46 40/43/45
s 2
f 43/71/48 48/70/49 45/73/50
f 46/76/51 43/71/48 45/73/50
f 49/72/52 43/71/48 46/76/51
f 47/78/53 49/72/52 46/76/51
f 50/20/54 51/21/55 48/22/49
f 6/5/13 48/22/49 51/21/55
f 9/10/18 53/23/56 10/7/15
f 52/24/57 8/9/17 53/23/56
f 53/23/56 54/25/58 10/7/15
f 7/12/20 8/9/17 52/24/57
f 51/21/55 9/10/18 6/5/13
f 5/15/22 49/26/52 12/13/21
f 49/26/52 13/16/23 12/13/21
f 6/5/13 13/16/23 49/26/52
f 43/19/48 49/26/52 5/15/22
f 6/5/13 49/26/52 48/22/49
f 5/15/22 7/12/20 43/19/48
f 48/22/49 43/19/48 50/20/54
s 13
f 57/44/59 58/45/60 56/47/61
f 58/45/60 50/46/62 56/47/61
s 14
f 61/48/63 59/51/64 60/50/65
f 52/49/66 60/50/65 59/51/64
s 2
f 7/12/20 52/24/57 50/20/54
f 50/20/54 52/24/57 51/21/55
f 43/19/48 7/12/20 50/20/54
f 63/75/67 46/76/51 62/74/68
f 45/73/50 62/74/68 46/76/51
f 64/77/69 46/76/51 63/75/67
f 46/76/51 64/77/69 47/78/53
f 65/69/70 53/61/56 66/65/71
f 52/63/57 53/61/56 65/69/70
f 51/62/55 65/69/70 67/68/72
f 51/62/55 52/63/57 65/69/70
f 8/9/17 54/25/58 53/23/56
f 66/65/71 68/64/73 44/66/74
f 44/66/74 65/69/70 66/65/71
f 65/69/70 44/66/74 69/67/75
f 69/67/75 67/68/72 65/69/70
f 53/23/56 9/10/18 51/21/55
f 8/9/17 11/17/41 54/25/58
f 11/17/41 55/27/76 54/25/58
f 10/7/43 55/27/76 11/17/41
