# This file uses meters as units for non-parametric coordinates.

mtllib tr_mo_h10_lod.max.fobj.mtl
g skinCluster1Set tweakSet1
v -0.000140 15.334809 224.941194
v 0.000117 205.526960 92.399037
v -0.000006 189.179415 -78.924596
v -0.000056 78.797275 93.874061
v 0.000032 89.208990 -120.450675
v 0.000049 152.204663 105.475473
v 0.000006 53.726369 -51.325220
v 0.000002 131.616097 -183.620656
v 0.000006 99.699043 -233.640087
v 0.000007 109.402134 -185.714638
v -0.000119 31.401968 35.205875
v -0.000058 70.832294 222.672355
v 0.000079 167.742729 136.653829
v 0.000061 154.019785 166.395009
v 0.000111 181.993032 267.188704
v 0.000203 246.038294 228.399384
v -0.000100 47.685838 116.537160
v -76.384914 99.078006 115.996498
v -40.585992 95.189631 98.700386
v -33.339134 64.833385 28.852372
v -91.943109 139.449580 -77.250648
v -84.689528 134.946997 88.919157
v -63.189423 121.289801 -62.351626
v -55.669129 92.780218 -31.421185
v -37.160542 72.301981 73.046845
v -42.064908 67.208433 -55.526680
v -18.507436 118.636971 -187.068498
v -49.329656 109.330463 55.383569
v -53.138387 102.350926 23.475379
v -34.561628 57.040721 52.318808
v -60.889137 38.682461 27.575502
v -45.120409 24.761802 42.548761
v -55.621284 31.044900 57.983163
v -64.193529 36.345303 48.682216
v -49.077901 -1.833284 45.770097
v -56.928289 -1.826632 65.227312
v -70.268154 -1.828671 56.346560
v -59.695262 -1.833248 32.704531
v -68.918270 77.471298 52.916336
v -52.980167 0.578010 -96.376050
v -57.254171 53.074032 -85.523963
v -47.162086 0.578141 -73.138309
v -52.841717 49.314719 -59.516275
v -67.428583 45.401245 -45.759624
v -68.634945 0.578010 -82.502198
v -74.209434 46.782398 -69.415301
v -61.996746 0.579953 -57.757515
v -30.464867 83.119804 -94.299483
v 76.384854 99.077788 115.996492
v 40.585926 95.189515 98.700380
v 33.338976 64.833313 28.852370
v 91.943109 139.449598 -77.250642
v 84.689576 134.946768 88.919157
v 63.189405 121.289807 -62.351626
v 55.669147 92.780221 -31.421179
v 37.160403 72.301888 73.046845
v 42.064914 67.208433 -55.526668
v 18.507445 118.636980 -187.068474
v 49.329621 109.330344 55.383569
v 53.138334 102.350803 23.475379
v 34.561446 57.040644 52.318808
v 60.888958 38.682276 27.575506
v 45.120189 24.761659 42.548761
v 55.621076 31.044722 57.983166
v 64.193338 36.345100 48.682222
v 49.077609 -1.833487 45.770112
v 56.927991 -1.826870 65.227330
v 70.267862 -1.828945 56.346583
v 59.694970 -1.833487 32.704550
v 68.918151 77.471125 52.916339
v 52.979756 0.577772 -96.376026
v 57.253927 53.073823 -85.523951
v 47.161696 0.577939 -73.138291
v 52.841497 49.314529 -59.516269
v 67.428357 45.401013 -45.759630
v 68.634540 0.577724 -82.502180
v 74.209184 46.782142 -69.415313
v 61.996359 0.579703 -57.757503
v 30.464840 83.119807 -94.299471
vt 0.598535 0.577874
vt 0.592638 0.634829
vt 0.423981 0.559682
vt 0.435791 0.629845
vt 0.334132 0.791700
vt 0.305956 0.693554
vt 0.386474 0.723231
vt 0.233785 0.890163
vt 0.635321 0.811407
vt 0.317669 0.925121
vt 0.633567 0.919020
vt 0.834587 0.770971
vt 0.840639 0.843069
vt 0.724675 0.637208
vt 0.834635 0.692229
vt 0.605324 0.748330
vt 0.327605 0.585794
vt 0.353641 0.645519
vt 0.923721 0.703017
vt 0.398402 0.623459
vt 0.547830 0.688497
vt 0.445786 0.708583
vt 0.650112 0.660112
vt 0.273805 0.701714
vt 0.169599 0.900343
vt 0.114315 0.871543
vt 0.075513 0.642435
vt 0.071295 0.525962
vt 0.272800 0.593857
vt 0.584945 0.509915
vt 0.326648 0.394907
vt 0.567154 0.273825
vt 0.330327 0.569302
vt 0.854898 0.106649
vt 0.880407 0.259482
vt 0.737318 0.106666
vt 0.775436 0.250665
vt 0.581543 0.326963
vt 0.630132 0.205201
vt 0.715214 0.230671
vt 0.772447 0.409815
vt 0.742108 0.525979
vt 0.654262 0.386301
vt 0.900798 0.499651
vt 0.679186 0.106674
vt 0.614111 0.104880
vt 0.926071 0.352820
vt 0.331746 0.088221
vt 0.421853 0.088222
vt 0.292342 0.287350
vt 0.388644 0.269378
vt 0.118445 0.258246
vt 0.251857 0.088221
vt 0.204339 0.263485
vt 0.066382 0.437965
vt 0.178691 0.546108
vt 0.309450 0.401321
vt 0.162009 0.088229
vt 0.385631 0.346534
vt 0.598535 0.577874
vt 0.592638 0.634829
vt 0.423981 0.559682
vt 0.435791 0.629845
vt 0.334132 0.791700
vt 0.305956 0.693554
vt 0.386474 0.723231
vt 0.233785 0.890163
vt 0.635321 0.811407
vt 0.317669 0.925121
vt 0.633567 0.919020
vt 0.834587 0.770971
vt 0.840639 0.843069
vt 0.724675 0.637208
vt 0.834635 0.692229
vt 0.605324 0.748330
vt 0.327605 0.585794
vt 0.353641 0.645519
vt 0.923721 0.703017
vt 0.398402 0.623459
vt 0.547830 0.688497
vt 0.445786 0.708583
vt 0.650112 0.660112
vt 0.273805 0.701714
vt 0.169599 0.900343
vt 0.114315 0.871543
vt 0.075513 0.642435
vt 0.071295 0.525962
vt 0.272800 0.593857
vt 0.584945 0.509915
vt 0.326648 0.394907
vt 0.567154 0.273825
vt 0.330327 0.569302
vt 0.854898 0.106649
vt 0.880407 0.259482
vt 0.737318 0.106666
vt 0.775436 0.250665
vt 0.581543 0.326963
vt 0.630132 0.205201
vt 0.715214 0.230671
vt 0.772447 0.409815
vt 0.742108 0.525979
vt 0.654262 0.386301
vt 0.900798 0.499651
vt 0.679186 0.106674
vt 0.614111 0.104880
vt 0.926071 0.352820
vt 0.331746 0.088221
vt 0.421853 0.088222
vt 0.292342 0.287350
vt 0.388644 0.269378
vt 0.118445 0.258246
vt 0.251857 0.088221
vt 0.204339 0.263485
vt 0.066382 0.437965
vt 0.178691 0.546108
vt 0.309450 0.401321
vt 0.162009 0.088229
vt 0.385631 0.346534
vn -0.358573 -0.916771 -0.175944
vn 0.000000 -0.950532 -0.310627
vn -0.000001 -0.990501 0.137505
vn -0.723704 -0.657040 -0.211070
vn -0.866170 -0.479551 -0.140646
vn -0.766762 0.598701 0.231589
vn -0.805948 -0.554668 0.206861
vn 0.000001 0.632436 0.774613
vn 0.000001 0.983915 0.178635
vn -0.740173 0.635247 -0.220466
vn -0.000000 0.970975 -0.239180
vn -0.780759 0.289929 -0.553495
vn 0.000000 0.869308 -0.494271
vn 0.000000 -0.994503 -0.104710
vn 0.000000 -0.945495 -0.325637
vn -0.683424 -0.720296 -0.118765
vn -0.000001 -0.997696 0.067842
vn -0.439842 -0.542774 0.715496
vn 0.000002 0.082706 -0.996574
vn -0.059817 -0.909338 0.411736
vn -0.959524 -0.229292 0.163518
vn -0.855386 -0.511398 -0.082380
vn -0.834835 -0.005736 -0.550470
vn -0.910073 -0.078338 -0.406977
vn -0.989224 0.081585 0.121574
vn -0.988671 0.010354 0.149740
vn 0.761854 -0.221758 0.608606
vn -0.017976 -0.146798 0.989003
vn -0.953738 0.154894 0.257666
vn 0.967618 0.135822 -0.212762
vn 0.409435 0.232412 -0.882240
vn -0.187363 0.032082 -0.981767
vn 0.966099 -0.220713 -0.133932
vn -0.943969 -0.019277 -0.329471
vn -0.961391 0.007297 0.275091
vn -0.977271 0.067765 -0.200869
vn -0.472586 -0.390977 -0.789810
vn -0.949489 -0.183255 0.254731
vn 0.391070 0.183218 0.901940
vn 0.901775 0.019078 0.431785
vn 0.000001 0.999033 0.043974
vn -0.985731 -0.101254 0.134472
vn 0.000001 0.660988 0.750397
vn -0.000001 -0.883398 0.468623
vn 0.000000 0.298040 0.954553
vn -0.000001 -0.937202 -0.348786
vn 0.358573 -0.916771 -0.175943
vn 0.723703 -0.657042 -0.211070
vn 0.805947 -0.554670 0.206861
vn 0.766764 0.598698 0.231590
vn 0.866168 -0.479553 -0.140646
vn 0.740173 0.635247 -0.220466
vn 0.780759 0.289930 -0.553495
vn 0.683424 -0.720296 -0.118766
vn 0.439840 -0.542775 0.715496
vn 0.059815 -0.909338 0.411736
vn 0.855385 -0.511400 -0.082381
vn 0.959524 -0.229292 0.163518
vn 0.989224 0.081583 0.121574
vn 0.910073 -0.078340 -0.406977
vn 0.834835 -0.005738 -0.550470
vn 0.988671 0.010352 0.149740
vn 0.017976 -0.146798 0.989003
vn -0.761855 -0.221756 0.608606
vn 0.953738 0.154892 0.257666
vn 0.187362 0.032082 -0.981767
vn -0.409433 0.232413 -0.882241
vn -0.967618 0.135825 -0.212762
vn -0.966101 -0.220706 -0.133930
vn 0.977271 0.067762 -0.200871
vn 0.961391 0.007293 0.275089
vn 0.943969 -0.019280 -0.329470
vn 0.472587 -0.390977 -0.789809
vn 0.949489 -0.183258 0.254731
vn -0.391069 0.183219 0.901940
vn -0.901775 0.019080 0.431785
vn 0.985730 -0.101256 0.134472
vn 1.000000 -0.000001 -0.000000
vn 1.000000 -0.000001 -0.000000
vn 1.000000 -0.000001 -0.000000
vn 1.000000 -0.000001 -0.000000
s 1
g TR_MO_H10_lod
usemtl TR_MO_H10_lodSG1
f 26/2/1 7/1/2 11/3/3
f 11/3/3 20/4/4 26/2/1
f 19/6/5 22/5/6 28/7/7
f 6/8/8 22/5/6 19/6/5
f 2/10/9 21/9/10 22/5/6
f 21/9/10 2/10/9 3/11/11
f 27/12/12 21/9/10 3/11/11
f 3/11/11 8/13/13 27/12/12
f 10/15/14 5/14/15 27/12/12
f 21/9/10 27/12/12 23/16/16
f 4/17/17 19/6/5 25/18/18
f 8/13/13 9/19/19 27/12/12
f 27/12/12 9/19/19 10/15/14
f 22/5/6 6/8/8 2/10/9
f 30/20/20 11/3/3 25/18/18
f 5/14/15 23/16/16 27/12/12
f 11/3/3 4/17/17 25/18/18
f 23/16/16 24/21/21 29/22/22
f 29/22/22 24/21/21 20/4/4
f 22/5/6 23/16/16 29/22/22
f 23/16/16 22/5/6 21/9/10
f 31/35/23 38/34/24 37/36/25
f 34/37/26 31/35/23 37/36/25
f 32/39/27 30/38/20 33/40/28
f 39/41/29 34/37/26 33/40/28
f 39/41/29 31/35/23 34/37/26
f 25/43/18 28/42/7 39/41/29
f 28/42/7 29/44/22 39/41/29
f 29/44/22 31/35/23 39/41/29
f 25/43/18 39/41/29 33/40/28
f 30/38/20 25/43/18 33/40/28
f 42/49/30 40/48/31 41/50/32
f 42/49/30 41/50/32 43/51/33
f 45/53/34 44/52/35 46/54/36
f 40/48/31 45/53/34 46/54/36
f 40/48/31 46/54/36 41/50/32
f 24/55/21 46/54/36 44/52/35
f 23/56/16 41/50/32 46/54/36
f 41/50/32 23/56/16 48/57/37
f 47/58/38 44/52/35 45/53/34
f 34/37/26 37/36/25 33/40/28
f 36/45/39 33/40/28 37/36/25
f 33/40/28 36/45/39 35/46/40
f 33/40/28 35/46/40 32/39/27
f 23/56/16 46/54/36 24/55/21
f 25/18/18 19/6/5 28/7/7
f 20/47/4 31/35/23 29/44/22
f 26/59/1 43/51/33 48/57/37
f 5/14/15 7/1/2 48/23/37
f 48/23/37 23/16/16 5/14/15
f 43/51/33 41/50/32 48/57/37
f 48/23/37 7/1/2 26/2/1
f 20/4/4 11/3/3 30/20/20
f 22/5/6 29/22/22 28/7/7
f 13/25/41 18/24/42 14/26/43
f 1/28/44 12/27/45 18/24/42
f 18/24/42 12/27/45 14/26/43
f 18/24/42 19/6/5 17/29/46
f 4/17/17 17/29/46 19/6/5
f 13/25/41 6/8/8 18/24/42
f 24/21/21 26/2/1 20/4/4
f 19/6/5 18/24/42 6/8/8
f 18/24/42 17/29/46 1/28/44
usemtl TR_MO_H10_lodSG
f 11/62/3 7/60/2 57/61/47
f 57/61/47 51/63/48 11/62/3
f 59/66/49 53/64/50 50/65/51
f 50/65/51 53/64/50 6/67/8
f 53/64/50 52/68/52 2/69/9
f 3/70/11 2/69/9 52/68/52
f 3/70/11 52/68/52 58/71/53
f 58/71/53 8/72/13 3/70/11
f 58/71/53 5/73/15 10/74/14
f 54/75/54 58/71/53 52/68/52
f 56/77/55 50/65/51 4/76/17
f 58/71/53 9/78/19 8/72/13
f 10/74/14 9/78/19 58/71/53
f 2/69/9 6/67/8 53/64/50
f 56/77/55 11/62/3 61/79/56
f 58/71/53 54/75/54 5/73/15
f 56/77/55 4/76/17 11/62/3
f 60/81/57 55/80/58 54/75/54
f 51/63/48 55/80/58 60/81/57
f 60/81/57 54/75/54 53/64/50
f 52/68/52 53/64/50 54/75/54
f 68/95/59 69/93/60 62/94/61
f 68/95/59 62/94/61 65/96/62
f 64/99/63 61/97/56 63/98/64
f 64/99/63 65/96/62 70/100/65
f 65/96/62 62/94/61 70/100/65
f 70/100/65 59/101/49 56/102/55
f 70/100/65 60/103/57 59/101/49
f 70/100/65 62/94/61 60/103/57
f 64/99/63 70/100/65 56/102/55
f 64/99/63 56/102/55 61/97/56
f 72/109/66 71/107/67 73/108/68
f 74/110/69 72/109/66 73/108/68
f 77/113/70 75/111/71 76/112/72
f 77/113/70 76/112/72 71/107/67
f 72/109/66 77/113/70 71/107/67
f 75/111/71 77/113/70 55/114/58
f 77/113/70 72/109/66 54/115/54
f 79/116/73 54/115/54 72/109/66
f 76/112/72 75/111/71 78/117/74
f 64/99/63 68/95/59 65/96/62
f 68/95/59 64/99/63 67/104/75
f 66/105/76 67/104/75 64/99/63
f 63/98/64 66/105/76 64/99/63
f 55/114/58 77/113/70 54/115/54
f 59/66/49 50/65/51 56/77/55
f 60/103/57 62/94/61 51/106/48
f 79/116/73 74/110/69 57/118/47
f 79/82/73 7/60/2 5/73/15
f 5/73/15 54/75/54 79/82/73
f 79/116/73 72/109/66 74/110/69
f 57/61/47 7/60/2 79/82/73
f 61/79/56 11/62/3 51/63/48
f 59/66/49 60/81/57 53/64/50
f 14/85/43 49/83/77 13/84/41
f 49/83/77 12/86/45 1/87/44
f 14/85/43 12/86/45 49/83/77
s 20
f 12/91/78 14/89/79 15/90/80
f 16/92/81 15/90/80 14/89/79
s 1
f 17/88/46 50/65/51 49/83/77
f 50/65/51 17/88/46 4/76/17
f 49/83/77 6/67/8 13/84/41
f 51/63/48 57/61/47 55/80/58
f 6/67/8 49/83/77 50/65/51
f 1/87/44 17/88/46 49/83/77
