# This file uses meters as units for non-parametric coordinates.

mtllib fy_hom_skel_cheveux.max.fobj.mtl
g default
v -13.737726 150.104724 0.000087
v -9.365704 149.175416 0.000086
v -9.787795 168.687571 0.000103
v -5.415772 167.758263 0.000103
v -13.737726 150.104721 4.125961
v -9.365704 149.175413 4.125960
v -9.787795 168.687568 4.125977
v -5.415772 167.758260 4.125976
vn 0.000000 0.000001 -1.000000
vn 0.000000 0.000001 -1.000000
vn 0.000000 0.000001 -1.000000
vn 0.000000 0.000001 -1.000000
vn -0.000000 -0.000001 1.000000
vn -0.000000 -0.000001 1.000000
vn -0.000000 -0.000001 1.000000
vn -0.000000 -0.000001 1.000000
vn -0.207913 -0.978147 -0.000001
vn -0.207913 -0.978147 -0.000001
vn -0.207913 -0.978147 -0.000001
vn -0.207913 -0.978147 -0.000001
vn 0.978147 -0.207913 -0.000000
vn 0.978147 -0.207913 -0.000000
vn 0.978147 -0.207913 -0.000000
vn 0.978147 -0.207913 -0.000000
vn 0.207913 0.978147 0.000001
vn 0.207913 0.978147 0.000001
vn 0.207913 0.978147 0.000001
vn 0.207913 0.978147 0.000001
vn -0.978147 0.207913 0.000000
vn -0.978147 0.207913 0.000000
vn -0.978147 0.207913 0.000000
vn -0.978147 0.207913 0.000000
s off
g initialShadingGroup cheveux_dr
f 1//1 3//2 4//3 2//4
f 5//5 6//6 8//7 7//8
f 1//9 2//10 6//11 5//12
f 2//13 4//14 8//15 6//16
f 4//17 3//18 7//19 8//20
f 3//21 1//22 5//23 7//24
g default
v 9.189382 149.175391 0.000083
v 13.561408 150.104686 0.000084
v 5.239505 167.758248 0.000102
v 9.611530 168.687543 0.000104
v 9.189382 149.175386 4.125956
v 13.561407 150.104682 4.125957
v 5.239505 167.758243 4.125976
v 9.611530 168.687539 4.125977
vn 0.000000 0.000001 -1.000000
vn 0.000000 0.000001 -1.000000
vn 0.000000 0.000001 -1.000000
vn 0.000000 0.000001 -1.000000
vn -0.000000 -0.000001 1.000000
vn -0.000000 -0.000001 1.000000
vn -0.000000 -0.000001 1.000000
vn -0.000000 -0.000001 1.000000
vn 0.207910 -0.978148 -0.000001
vn 0.207910 -0.978148 -0.000001
vn 0.207910 -0.978148 -0.000001
vn 0.207910 -0.978148 -0.000001
vn 0.978148 0.207910 0.000000
vn 0.978148 0.207910 0.000000
vn 0.978148 0.207910 0.000000
vn 0.978148 0.207910 0.000000
vn -0.207910 0.978148 0.000001
vn -0.207910 0.978148 0.000001
vn -0.207910 0.978148 0.000001
vn -0.207910 0.978148 0.000001
vn -0.978148 -0.207910 -0.000000
vn -0.978148 -0.207910 -0.000000
vn -0.978148 -0.207910 -0.000000
vn -0.978148 -0.207910 -0.000000
s off
g initialShadingGroup cheveux_go
f 9//25 11//26 12//27 10//28
f 13//29 14//30 16//31 15//32
f 9//33 10//34 14//35 13//36
f 10//37 12//38 16//39 14//40
f 12//41 11//42 15//43 16//44
f 11//45 9//46 13//47 15//48
g default
v 47.124744 93.769767 -3.303412
v 51.260717 95.525376 -3.303407
v 38.925898 113.085116 -3.303392
v 43.061871 114.840725 -3.303388
v 47.124739 93.769757 4.245086
v 51.260713 95.525367 4.245090
v 38.925893 113.085106 4.245105
v 43.061867 114.840715 4.245110
vn 0.000001 0.000001 -1.000000
vn 0.000001 0.000001 -1.000000
vn 0.000001 0.000001 -1.000000
vn 0.000001 0.000001 -1.000000
vn 0.000001 0.000001 -1.000000
vn 0.000001 0.000001 -1.000000
vn -0.000001 -0.000001 1.000000
vn -0.000001 -0.000001 1.000000
vn -0.000001 -0.000001 1.000000
vn -0.000001 -0.000001 1.000000
vn -0.000001 -0.000001 1.000000
vn -0.000001 -0.000001 1.000000
vn 0.390730 -0.920505 -0.000001
vn 0.390730 -0.920505 -0.000001
vn 0.390730 -0.920505 -0.000001
vn 0.390730 -0.920505 -0.000001
vn 0.390730 -0.920505 -0.000001
vn 0.390730 -0.920505 -0.000001
vn 0.920505 0.390730 0.000001
vn 0.920505 0.390730 0.000001
vn 0.920505 0.390730 0.000001
vn 0.920505 0.390730 0.000001
vn 0.920506 0.390730 0.000001
vn 0.920505 0.390730 0.000001
vn -0.390730 0.920505 0.000001
vn -0.390730 0.920505 0.000001
vn -0.390730 0.920505 0.000001
vn -0.390730 0.920505 0.000001
vn -0.390730 0.920505 0.000001
vn -0.390730 0.920505 0.000001
vn -0.920505 -0.390730 -0.000001
vn -0.920506 -0.390730 -0.000001
vn -0.920505 -0.390730 -0.000001
vn -0.920505 -0.390730 -0.000001
vn -0.920506 -0.390730 -0.000001
vn -0.920505 -0.390730 -0.000001
s off
g initialShadingGroup Box_bouclier
f 17//49 19//50 20//51
f 20//52 18//53 17//54
f 21//55 22//56 24//57
f 24//58 23//59 21//60
f 17//61 18//62 22//63
f 22//64 21//65 17//66
f 18//67 20//68 24//69
f 24//70 22//71 18//72
f 20//73 19//74 23//75
f 23//76 24//77 20//78
f 19//79 17//80 21//81
f 21//82 23//83 19//84
g default
v 44.472649 82.365089 6.852493
v 41.264480 80.659282 6.852491
v 42.794355 85.521514 6.852497
v 39.586186 83.815707 6.852495
v 44.472646 82.365103 -5.648381
v 41.264476 80.659296 -5.648382
v 42.794352 85.521528 -5.648376
v 39.586183 83.815721 -5.648377
vn 0.000000 -0.000001 1.000000
vn 0.000000 -0.000001 1.000000
vn 0.000000 -0.000001 1.000000
vn 0.000000 -0.000001 1.000000
vn 0.000000 -0.000001 1.000000
vn 0.000000 -0.000001 1.000000
vn -0.000000 0.000001 -1.000000
vn -0.000000 0.000001 -1.000000
vn -0.000000 0.000001 -1.000000
vn -0.000000 0.000001 -1.000000
vn -0.000000 0.000001 -1.000000
vn -0.000000 0.000001 -1.000000
vn 0.469470 -0.882948 -0.000001
vn 0.469470 -0.882948 -0.000001
vn 0.469470 -0.882948 -0.000001
vn 0.469470 -0.882948 -0.000001
vn 0.469470 -0.882948 -0.000001
vn 0.469470 -0.882948 -0.000001
vn -0.882948 -0.469470 -0.000000
vn -0.882948 -0.469470 -0.000000
vn -0.882949 -0.469470 -0.000000
vn -0.882949 -0.469470 -0.000000
vn -0.882948 -0.469470 -0.000000
vn -0.882948 -0.469470 -0.000000
vn -0.469470 0.882948 0.000001
vn -0.469470 0.882948 0.000001
vn -0.469470 0.882948 0.000001
vn -0.469470 0.882948 0.000001
vn -0.469470 0.882948 0.000001
vn -0.469470 0.882948 0.000001
vn 0.882949 0.469470 0.000000
vn 0.882948 0.469470 0.000000
vn 0.882949 0.469470 0.000000
vn 0.882949 0.469470 0.000000
vn 0.882948 0.469470 0.000000
vn 0.882949 0.469470 0.000000
s off
g initialShadingGroup box_arme_gauche
f 25//85 27//86 28//87
f 28//88 26//89 25//90
f 29//91 30//92 32//93
f 32//94 31//95 29//96
f 25//97 26//98 30//99
f 30//100 29//101 25//102
f 26//103 28//104 32//105
f 32//106 30//107 26//108
f 28//109 27//110 31//111
f 31//112 32//113 28//114
f 27//115 25//116 29//117
f 29//118 31//119 27//120
g default
v -44.788694 82.365212 -5.654383
v -41.580530 80.659395 -5.654384
v -43.110390 85.521632 -5.654378
v -39.902226 83.815815 -5.654380
v -44.788695 82.365196 6.846490
v -41.580531 80.659379 6.846488
v -43.110391 85.521616 6.846493
v -39.902228 83.815798 6.846491
vn 0.000000 0.000001 -1.000000
vn 0.000000 0.000001 -1.000000
vn 0.000000 0.000001 -1.000000
vn 0.000000 0.000001 -1.000000
vn 0.000000 0.000001 -1.000000
vn 0.000000 0.000001 -1.000000
vn -0.000000 -0.000001 1.000000
vn -0.000000 -0.000001 1.000000
vn -0.000000 -0.000001 1.000000
vn -0.000000 -0.000001 1.000000
vn -0.000000 -0.000001 1.000000
vn -0.000000 -0.000001 1.000000
vn -0.469473 -0.882947 -0.000001
vn -0.469473 -0.882947 -0.000001
vn -0.469473 -0.882947 -0.000001
vn -0.469473 -0.882947 -0.000001
vn -0.469473 -0.882947 -0.000001
vn -0.469473 -0.882947 -0.000001
vn 0.882947 -0.469473 -0.000001
vn 0.882947 -0.469473 -0.000001
vn 0.882947 -0.469473 -0.000001
vn 0.882947 -0.469473 -0.000001
vn 0.882947 -0.469473 -0.000001
vn 0.882947 -0.469473 -0.000001
vn 0.469473 0.882947 0.000001
vn 0.469473 0.882947 0.000001
vn 0.469473 0.882947 0.000001
vn 0.469473 0.882947 0.000001
vn 0.469473 0.882947 0.000001
vn 0.469473 0.882947 0.000001
vn -0.882947 0.469473 0.000001
vn -0.882947 0.469473 0.000001
vn -0.882947 0.469473 0.000001
vn -0.882947 0.469473 0.000001
vn -0.882947 0.469473 0.000001
vn -0.882947 0.469473 0.000001
s off
g initialShadingGroup box_arme
f 33//121 35//122 36//123
f 36//124 34//125 33//126
f 37//127 38//128 40//129
f 40//130 39//131 37//132
f 33//133 34//134 38//135
f 38//136 37//137 33//138
f 34//139 36//140 40//141
f 40//142 38//143 34//144
f 36//145 35//146 39//147
f 39//148 40//149 36//150
f 35//151 33//152 37//153
f 37//154 39//155 35//156
