# This file uses meters as units for non-parametric coordinates.

mtllib fy_hof_skel_small.max.fobj.mtl
g default
v -11.433941 119.475844 2.532361
v -1.965965 119.475844 2.532375
v -11.433941 128.940574 2.780216
v -1.965965 128.940574 2.780230
v -11.433954 119.227989 11.997092
v -1.965978 119.227989 11.997105
v -11.433954 128.692719 12.244947
v -1.965978 128.692718 12.244961
vn 0.000001 0.026178 -0.999657
vn 0.000001 0.026178 -0.999657
vn 0.000001 0.026178 -0.999657
vn 0.000001 0.026178 -0.999657
vn 0.000001 0.026178 -0.999657
vn 0.000001 0.026178 -0.999657
vn -0.000001 -0.026178 0.999657
vn -0.000001 -0.026178 0.999657
vn -0.000001 -0.026178 0.999657
vn -0.000001 -0.026178 0.999657
vn -0.000001 -0.026178 0.999657
vn -0.000001 -0.026178 0.999657
vn -0.000000 -0.999657 -0.026178
vn -0.000000 -0.999657 -0.026178
vn -0.000000 -0.999657 -0.026178
vn -0.000000 -0.999657 -0.026178
vn -0.000000 -0.999657 -0.026178
vn -0.000000 -0.999657 -0.026178
vn 1.000000 -0.000000 0.000001
vn 1.000000 -0.000000 0.000001
vn 1.000000 -0.000000 0.000001
vn 1.000000 -0.000000 0.000001
vn 1.000000 -0.000000 0.000001
vn 1.000000 -0.000000 0.000001
vn 0.000000 0.999657 0.026178
vn 0.000000 0.999657 0.026178
vn 0.000000 0.999657 0.026178
vn 0.000000 0.999657 0.026178
vn 0.000000 0.999657 0.026178
vn 0.000000 0.999657 0.026178
vn -1.000000 0.000000 -0.000001
vn -1.000000 0.000000 -0.000001
vn -1.000000 0.000000 -0.000001
vn -1.000000 0.000000 -0.000001
vn -1.000000 0.000000 -0.000001
vn -1.000000 0.000000 -0.000001
s off
g initialShadingGroup sein_droit
f 1//1 3//2 4//3
f 4//4 2//5 1//6
f 5//7 6//8 8//9
f 8//10 7//11 5//12
f 1//13 2//14 6//15
f 6//16 5//17 1//18
f 2//19 4//20 8//21
f 8//22 6//23 2//24
f 4//25 3//26 7//27
f 7//28 8//29 4//30
f 3//31 1//32 5//33
f 5//34 7//35 3//36
g default
v 1.961820 119.475825 2.532363
v 11.438271 119.475825 2.532376
v 1.961820 128.940556 2.780216
v 11.438270 128.940556 2.780230
v 1.961807 119.228193 11.988610
v 11.438257 119.228193 11.988623
v 1.961806 128.692924 12.236464
v 11.438257 128.692924 12.236477
vn 0.000001 0.026178 -0.999657
vn 0.000001 0.026178 -0.999657
vn 0.000001 0.026178 -0.999657
vn 0.000001 0.026178 -0.999657
vn 0.000001 0.026178 -0.999657
vn 0.000001 0.026178 -0.999657
vn -0.000001 -0.026178 0.999657
vn -0.000001 -0.026178 0.999657
vn -0.000001 -0.026178 0.999657
vn -0.000001 -0.026178 0.999657
vn -0.000001 -0.026178 0.999657
vn -0.000001 -0.026178 0.999657
vn 0.000000 -0.999657 -0.026178
vn 0.000000 -0.999657 -0.026178
vn 0.000000 -0.999657 -0.026178
vn 0.000000 -0.999657 -0.026178
vn 0.000000 -0.999657 -0.026178
vn 0.000000 -0.999657 -0.026178
vn 1.000000 -0.000000 0.000001
vn 1.000000 -0.000000 0.000001
vn 1.000000 -0.000000 0.000001
vn 1.000000 -0.000000 0.000001
vn 1.000000 -0.000000 0.000001
vn 1.000000 -0.000000 0.000001
vn -0.000000 0.999657 0.026178
vn -0.000000 0.999657 0.026178
vn -0.000000 0.999657 0.026178
vn -0.000000 0.999657 0.026178
vn -0.000000 0.999657 0.026178
vn -0.000000 0.999657 0.026178
vn -1.000000 0.000000 -0.000001
vn -1.000000 0.000000 -0.000001
vn -1.000000 0.000000 -0.000001
vn -1.000000 0.000000 -0.000001
vn -1.000000 0.000000 -0.000001
vn -1.000000 0.000000 -0.000001
s off
g initialShadingGroup sein_gauche
f 9//37 11//38 12//39
f 12//40 10//41 9//42
f 13//43 14//44 16//45
f 16//46 15//47 13//48
f 9//49 10//50 14//51
f 14//52 13//53 9//54
f 10//55 12//56 16//57
f 16//58 14//59 10//60
f 12//61 11//62 15//63
f 15//64 16//65 12//66
f 11//67 9//68 13//69
f 13//70 15//71 11//72
g default
v -11.959939 123.118036 2.518176
v -1.439965 123.118036 2.518191
v -11.959939 133.634402 2.793571
v -1.439965 133.634402 2.793585
v -11.959954 122.842642 13.034542
v -1.439980 122.842642 13.034557
v -11.959954 133.359007 13.309937
v -1.439980 133.359007 13.309952
vn 0.000001 0.026178 -0.999657
vn 0.000001 0.026178 -0.999657
vn 0.000001 0.026178 -0.999657
vn 0.000001 0.026178 -0.999657
vn 0.000001 0.026178 -0.999657
vn 0.000001 0.026178 -0.999657
vn -0.000001 -0.026178 0.999657
vn -0.000001 -0.026178 0.999657
vn -0.000001 -0.026178 0.999657
vn -0.000001 -0.026178 0.999657
vn -0.000001 -0.026178 0.999657
vn -0.000001 -0.026178 0.999657
vn -0.000000 -0.999657 -0.026178
vn -0.000000 -0.999657 -0.026178
vn -0.000000 -0.999657 -0.026178
vn -0.000000 -0.999657 -0.026178
vn -0.000000 -0.999657 -0.026178
vn -0.000000 -0.999657 -0.026178
vn 1.000000 -0.000000 0.000001
vn 1.000000 -0.000000 0.000001
vn 1.000000 -0.000000 0.000001
vn 1.000000 -0.000000 0.000001
vn 1.000000 -0.000000 0.000001
vn 1.000000 -0.000000 0.000001
vn 0.000000 0.999657 0.026178
vn 0.000000 0.999657 0.026178
vn 0.000000 0.999657 0.026178
vn 0.000000 0.999657 0.026178
vn 0.000000 0.999657 0.026178
vn 0.000000 0.999657 0.026178
vn -1.000000 0.000000 -0.000001
vn -1.000000 0.000000 -0.000001
vn -1.000000 0.000000 -0.000001
vn -1.000000 0.000000 -0.000001
vn -1.000000 0.000000 -0.000001
vn -1.000000 0.000000 -0.000001
s off
g initialShadingGroup sein_droit_ref_scale
f 17//73 19//74 20//75
f 20//76 18//77 17//78
f 21//79 22//80 24//81
f 24//82 23//83 21//84
f 17//85 18//86 22//87
f 22//88 21//89 17//90
f 18//91 20//92 24//93
f 24//94 22//95 18//96
f 20//97 19//98 23//99
f 23//100 24//101 20//102
f 19//103 17//104 21//105
f 21//106 23//107 19//108
g default
v 1.440059 123.118016 2.518177
v 11.960033 123.118016 2.518192
v 1.440059 133.634384 2.793571
v 11.960033 133.634384 2.793585
v 1.440045 122.842623 13.034545
v 11.960019 122.842623 13.034560
v 1.440044 133.358991 13.309939
v 11.960018 133.358991 13.309953
vn 0.000001 0.026178 -0.999657
vn 0.000001 0.026178 -0.999657
vn 0.000001 0.026178 -0.999657
vn 0.000001 0.026178 -0.999657
vn 0.000001 0.026178 -0.999657
vn 0.000001 0.026178 -0.999657
vn -0.000001 -0.026178 0.999657
vn -0.000001 -0.026178 0.999657
vn -0.000001 -0.026178 0.999657
vn -0.000001 -0.026178 0.999657
vn -0.000001 -0.026178 0.999657
vn -0.000001 -0.026178 0.999657
vn 0.000000 -0.999657 -0.026178
vn 0.000000 -0.999657 -0.026178
vn 0.000000 -0.999657 -0.026178
vn 0.000000 -0.999657 -0.026178
vn 0.000000 -0.999657 -0.026178
vn 0.000000 -0.999657 -0.026178
vn 1.000000 -0.000000 0.000001
vn 1.000000 -0.000000 0.000001
vn 1.000000 -0.000000 0.000001
vn 1.000000 -0.000000 0.000001
vn 1.000000 -0.000000 0.000001
vn 1.000000 -0.000000 0.000001
vn -0.000000 0.999657 0.026178
vn -0.000000 0.999657 0.026178
vn -0.000000 0.999657 0.026178
vn -0.000000 0.999657 0.026178
vn -0.000000 0.999657 0.026178
vn -0.000000 0.999657 0.026178
vn -1.000000 0.000000 -0.000001
vn -1.000000 0.000000 -0.000001
vn -1.000000 0.000000 -0.000001
vn -1.000000 0.000000 -0.000001
vn -1.000000 0.000000 -0.000001
vn -1.000000 0.000000 -0.000001
s off
g initialShadingGroup sein_gauche_ref_scale
f 25//109 27//110 28//111
f 28//112 26//113 25//114
f 29//115 30//116 32//117
f 32//118 31//119 29//120
f 25//121 26//122 30//123
f 30//124 29//125 25//126
f 26//127 28//128 32//129
f 32//130 30//131 26//132
f 28//133 27//134 31//135
f 31//136 32//137 28//138
f 27//139 25//140 29//141
f 29//142 31//143 27//144
g default
v 41.773986 95.261981 -3.194045
v 45.625348 97.576165 -3.190489
v 30.970622 113.242240 -3.743054
v 34.821983 115.556423 -3.739498
v 41.667146 95.428193 4.351866
v 45.518508 97.742378 4.355423
v 30.863781 113.408453 3.802858
v 34.715143 115.722635 3.806413
vn 0.014154 -0.022019 -0.999657
vn 0.014154 -0.022019 -0.999657
vn 0.014154 -0.022019 -0.999657
vn 0.014154 -0.022019 -0.999657
vn 0.014154 -0.022019 -0.999657
vn 0.014154 -0.022019 -0.999657
vn -0.014154 0.022019 0.999657
vn -0.014154 0.022019 0.999657
vn -0.014154 0.022019 0.999657
vn -0.014154 0.022019 0.999657
vn -0.014154 0.022019 0.999657
vn -0.014154 0.022019 0.999657
vn 0.514853 -0.856879 0.026164
vn 0.514853 -0.856879 0.026164
vn 0.514853 -0.856879 0.026164
vn 0.514853 -0.856879 0.026164
vn 0.514853 -0.856879 0.026164
vn 0.514853 -0.856879 0.026164
vn 0.857162 0.515046 0.000791
vn 0.857162 0.515046 0.000791
vn 0.857162 0.515046 0.000791
vn 0.857162 0.515046 0.000791
vn 0.857162 0.515046 0.000791
vn 0.857162 0.515046 0.000791
vn -0.514853 0.856879 -0.026164
vn -0.514853 0.856879 -0.026164
vn -0.514853 0.856879 -0.026164
vn -0.514853 0.856879 -0.026164
vn -0.514853 0.856879 -0.026164
vn -0.514853 0.856879 -0.026164
vn -0.857162 -0.515046 -0.000791
vn -0.857162 -0.515046 -0.000791
vn -0.857162 -0.515046 -0.000791
vn -0.857162 -0.515046 -0.000791
vn -0.857162 -0.515046 -0.000791
vn -0.857162 -0.515046 -0.000791
s off
g initialShadingGroup Box_bouclier
f 33//145 35//146 36//147
f 36//148 34//149 33//150
f 37//151 38//152 40//153
f 40//154 39//155 37//156
f 33//157 34//158 38//159
f 38//160 37//161 33//162
f 34//163 36//164 40//165
f 40//166 38//167 34//168
f 36//169 35//170 39//171
f 39//172 40//173 36//174
f 35//175 33//176 37//177
f 37//178 39//179 35//180
g default
v 42.700732 99.527025 -3.194041
v 46.552094 101.841209 -3.190487
v 31.897366 117.507282 -3.743050
v 35.748728 119.821466 -3.739496
v 42.593894 99.693239 4.351871
v 46.445256 102.007424 4.355425
v 31.790528 117.673496 3.802861
v 35.641890 119.987680 3.806415
vn 0.014153 -0.022019 -0.999657
vn 0.014153 -0.022019 -0.999657
vn 0.014153 -0.022019 -0.999657
vn 0.014153 -0.022019 -0.999657
vn 0.014153 -0.022019 -0.999657
vn 0.014153 -0.022019 -0.999657
vn -0.014153 0.022019 0.999657
vn -0.014153 0.022019 0.999657
vn -0.014153 0.022019 0.999657
vn -0.014153 0.022019 0.999657
vn -0.014153 0.022019 0.999657
vn -0.014153 0.022019 0.999657
vn 0.514853 -0.856879 0.026164
vn 0.514853 -0.856879 0.026164
vn 0.514853 -0.856879 0.026164
vn 0.514853 -0.856879 0.026164
vn 0.514853 -0.856879 0.026164
vn 0.514853 -0.856879 0.026164
vn 0.857162 0.515047 0.000791
vn 0.857162 0.515046 0.000791
vn 0.857162 0.515046 0.000791
vn 0.857162 0.515046 0.000791
vn 0.857162 0.515046 0.000791
vn 0.857162 0.515047 0.000791
vn -0.514853 0.856879 -0.026164
vn -0.514853 0.856879 -0.026164
vn -0.514853 0.856879 -0.026164
vn -0.514853 0.856879 -0.026164
vn -0.514853 0.856879 -0.026164
vn -0.514853 0.856879 -0.026164
vn -0.857162 -0.515046 -0.000791
vn -0.857162 -0.515046 -0.000791
vn -0.857162 -0.515046 -0.000791
vn -0.857162 -0.515046 -0.000791
vn -0.857162 -0.515046 -0.000791
vn -0.857162 -0.515046 -0.000791
s off
g initialShadingGroup Box_bouclier_ref_scale
f 41//181 43//182 44//183
f 44//184 42//185 41//186
f 45//187 46//188 48//189
f 48//190 47//191 45//192
f 41//193 42//194 46//195
f 46//196 45//197 41//198
f 42//199 44//200 48//201
f 48//202 46//203 42//204
f 44//205 43//206 47//207
f 47//208 48//209 44//210
f 43//211 41//212 45//213
f 45//214 47//215 43//216
g default
v 40.224553 88.679014 6.008590
v 37.322662 86.492444 6.016729
v 38.073811 91.533011 5.915343
v 35.171919 89.346441 5.923482
v 40.398424 88.401744 -6.487999
v 37.496533 86.215173 -6.479859
v 38.247682 91.255740 -6.581246
v 35.345790 89.069170 -6.573106
vn -0.013909 0.022180 0.999657
vn -0.013909 0.022180 0.999657
vn -0.013909 0.022180 0.999657
vn -0.013909 0.022180 0.999657
vn -0.013909 0.022180 0.999657
vn -0.013909 0.022180 0.999657
vn 0.013909 -0.022180 -0.999657
vn 0.013909 -0.022180 -0.999657
vn 0.013909 -0.022180 -0.999657
vn 0.013909 -0.022180 -0.999657
vn 0.013909 -0.022180 -0.999657
vn 0.013909 -0.022180 -0.999657
vn 0.601629 -0.798350 0.026084
vn 0.601629 -0.798350 0.026084
vn 0.601629 -0.798350 0.026084
vn 0.601629 -0.798350 0.026084
vn 0.601629 -0.798350 0.026084
vn 0.601629 -0.798350 0.026084
vn -0.798655 -0.601785 0.002240
vn -0.798655 -0.601785 0.002240
vn -0.798655 -0.601785 0.002240
vn -0.798655 -0.601785 0.002240
vn -0.798655 -0.601785 0.002240
vn -0.798655 -0.601785 0.002240
vn -0.601629 0.798350 -0.026084
vn -0.601629 0.798350 -0.026084
vn -0.601629 0.798350 -0.026084
vn -0.601629 0.798350 -0.026084
vn -0.601629 0.798350 -0.026084
vn -0.601629 0.798350 -0.026084
vn 0.798655 0.601785 -0.002240
vn 0.798655 0.601785 -0.002240
vn 0.798655 0.601785 -0.002240
vn 0.798655 0.601785 -0.002240
vn 0.798655 0.601785 -0.002240
vn 0.798655 0.601785 -0.002240
s off
g initialShadingGroup box_arme_gauche
f 49//217 51//218 52//219
f 52//220 50//221 49//222
f 53//223 54//224 56//225
f 56//226 55//227 53//228
f 49//229 50//230 54//231
f 54//232 53//233 49//234
f 50//235 52//236 56//237
f 56//238 54//239 50//240
f 52//241 51//242 55//243
f 55//244 56//245 52//246
f 51//247 49//248 53//249
f 53//250 55//251 51//252
g default
v -40.666097 89.348186 -5.534093
v -37.764212 87.161607 -5.525954
v -38.515345 92.202176 -5.627341
v -35.613461 90.015597 -5.619202
v -40.492223 89.625454 6.962496
v -37.590339 87.438875 6.970635
v -38.341472 92.479443 6.869247
v -35.439588 90.292864 6.877387
vn -0.013909 -0.022180 -0.999657
vn -0.013909 -0.022180 -0.999657
vn -0.013909 -0.022180 -0.999657
vn -0.013909 -0.022180 -0.999657
vn -0.013909 -0.022180 -0.999657
vn -0.013909 -0.022180 -0.999657
vn 0.013909 0.022180 0.999657
vn 0.013909 0.022180 0.999657
vn 0.013909 0.022180 0.999657
vn 0.013909 0.022180 0.999657
vn 0.013909 0.022180 0.999657
vn 0.013909 0.022180 0.999657
vn -0.601631 -0.798348 0.026084
vn -0.601631 -0.798348 0.026084
vn -0.601631 -0.798348 0.026084
vn -0.601631 -0.798348 0.026084
vn -0.601631 -0.798348 0.026084
vn -0.601631 -0.798348 0.026084
vn 0.798653 -0.601788 0.002240
vn 0.798653 -0.601788 0.002240
vn 0.798653 -0.601788 0.002240
vn 0.798653 -0.601788 0.002240
vn 0.798653 -0.601788 0.002240
vn 0.798653 -0.601788 0.002240
vn 0.601631 0.798348 -0.026084
vn 0.601631 0.798348 -0.026084
vn 0.601631 0.798348 -0.026084
vn 0.601631 0.798348 -0.026084
vn 0.601631 0.798348 -0.026084
vn 0.601631 0.798348 -0.026084
vn -0.798653 0.601788 -0.002240
vn -0.798653 0.601788 -0.002240
vn -0.798653 0.601788 -0.002240
vn -0.798653 0.601788 -0.002240
vn -0.798653 0.601788 -0.002240
vn -0.798653 0.601788 -0.002240
s off
g initialShadingGroup box_arme
f 57//253 59//254 60//255
f 60//256 58//257 57//258
f 61//259 62//260 64//261
f 64//262 63//263 61//264
f 57//265 58//266 62//267
f 62//268 61//269 57//270
f 58//271 60//272 64//273
f 64//274 62//275 58//276
f 60//277 59//278 63//279
f 63//280 64//281 60//282
f 59//283 57//284 61//285
f 61//286 63//287 59//288
g default
v 41.617358 92.218906 6.045610
v 38.715466 90.032336 6.053747
v 39.466616 95.072903 5.952363
v 36.564724 92.886333 5.960500
v 41.791232 91.941641 -6.450978
v 38.889340 89.755071 -6.442841
v 39.640490 94.795638 -6.544224
v 36.738598 92.609068 -6.536086
vn -0.013909 0.022180 0.999657
vn -0.013909 0.022180 0.999657
vn -0.013909 0.022180 0.999657
vn -0.013909 0.022180 0.999657
vn -0.013909 0.022180 0.999657
vn -0.013909 0.022180 0.999657
vn 0.013909 -0.022179 -0.999657
vn 0.013909 -0.022179 -0.999657
vn 0.013909 -0.022179 -0.999657
vn 0.013909 -0.022179 -0.999657
vn 0.013909 -0.022179 -0.999657
vn 0.013909 -0.022179 -0.999657
vn 0.601628 -0.798350 0.026084
vn 0.601628 -0.798350 0.026084
vn 0.601628 -0.798350 0.026084
vn 0.601628 -0.798350 0.026084
vn 0.601628 -0.798350 0.026084
vn 0.601628 -0.798350 0.026084
vn -0.798655 -0.601785 0.002240
vn -0.798655 -0.601785 0.002240
vn -0.798655 -0.601785 0.002240
vn -0.798655 -0.601785 0.002240
vn -0.798655 -0.601785 0.002240
vn -0.798655 -0.601785 0.002240
vn -0.601628 0.798350 -0.026084
vn -0.601628 0.798350 -0.026084
vn -0.601628 0.798350 -0.026084
vn -0.601628 0.798350 -0.026084
vn -0.601628 0.798350 -0.026084
vn -0.601628 0.798350 -0.026084
vn 0.798655 0.601785 -0.002240
vn 0.798655 0.601785 -0.002240
vn 0.798655 0.601785 -0.002240
vn 0.798655 0.601785 -0.002240
vn 0.798655 0.601785 -0.002240
vn 0.798655 0.601785 -0.002240
s off
g initialShadingGroup box_arme_gauche_ref_scale
f 65//289 67//290 68//291
f 68//292 66//293 65//294
f 69//295 70//296 72//297
f 72//298 71//299 69//300
f 65//301 66//302 70//303
f 70//304 69//305 65//306
f 66//307 68//308 72//309
f 72//310 70//311 66//312
f 68//313 67//314 71//315
f 71//316 72//317 68//318
f 67//319 65//320 69//321
f 69//322 71//323 67//324
g default
v -42.097628 92.880225 -5.497072
v -39.195743 90.693646 -5.488933
v -39.946877 95.734214 -5.590320
v -37.044992 93.547635 -5.582181
v -41.923752 93.157491 6.999515
v -39.021867 90.970912 7.007653
v -39.773001 96.011481 6.906266
v -36.871117 93.824902 6.914404
vn -0.013909 -0.022180 -0.999657
vn -0.013909 -0.022180 -0.999657
vn -0.013909 -0.022180 -0.999657
vn -0.013909 -0.022180 -0.999657
vn -0.013909 -0.022180 -0.999657
vn -0.013909 -0.022180 -0.999657
vn 0.013909 0.022180 0.999657
vn 0.013909 0.022180 0.999657
vn 0.013909 0.022180 0.999657
vn 0.013909 0.022180 0.999657
vn 0.013909 0.022180 0.999657
vn 0.013909 0.022180 0.999657
vn -0.601631 -0.798348 0.026084
vn -0.601631 -0.798348 0.026084
vn -0.601631 -0.798348 0.026084
vn -0.601631 -0.798348 0.026084
vn -0.601631 -0.798348 0.026084
vn -0.601631 -0.798348 0.026084
vn 0.798653 -0.601787 0.002240
vn 0.798653 -0.601788 0.002240
vn 0.798653 -0.601787 0.002240
vn 0.798653 -0.601787 0.002240
vn 0.798653 -0.601787 0.002240
vn 0.798653 -0.601787 0.002240
vn 0.601631 0.798348 -0.026084
vn 0.601631 0.798348 -0.026084
vn 0.601631 0.798348 -0.026084
vn 0.601631 0.798348 -0.026084
vn 0.601631 0.798348 -0.026084
vn 0.601631 0.798348 -0.026084
vn -0.798653 0.601787 -0.002240
vn -0.798653 0.601787 -0.002240
vn -0.798653 0.601787 -0.002240
vn -0.798653 0.601787 -0.002240
vn -0.798653 0.601787 -0.002240
vn -0.798653 0.601787 -0.002240
s off
g initialShadingGroup box_arme_ref_scale
f 73//325 75//326 76//327
f 76//328 74//329 73//330
f 77//331 78//332 80//333
f 80//334 79//335 77//336
f 73//337 74//338 78//339
f 78//340 77//341 73//342
f 74//343 76//344 80//345
f 80//346 78//347 74//348
f 76//349 75//350 79//351
f 79//352 80//353 76//354
f 75//355 73//356 77//357
f 77//358 79//359 75//360
